<svg xmlns="http://www.w3.org/2000/svg" xmlns:xlink="http://www.w3.org/1999/xlink" version="1.1" width="250" height="204" viewBox="0 0 250 204">
<defs>
<path id="font_1_105" d="M.33198548 .12385559V.18066406H.30699159V.12585449C.30699159 .052108766 .2769928 .014251709 .23999024 .014251709 .17298889 .014251709 .17298889 .10491943 .17298889 .12187195V.3996582H.31599427V.43066407H.17298889V.6142578H.147995C.14698792 .5324249 .116989139 .42565919 .018997193 .42166139V.3996582H.10398865V.12408447C.10398865 .0012512207 .19699097-.0107421879 .23298645-.0107421879 .3039856-.0107421879 .33198548 .060180665 .33198548 .12408447V.12385559Z"/>
<path id="font_1_66" d="M.24699402 0V.0309906C.18099976 .0309906 .1769867 .035995485 .1769867 .075042728V.4423828L.036987306 .43066407V.3996582C.101989749 .3996582 .11099243 .3936615 .11099243 .3447113V.07595825C.11099243 .0309906 .099990848 .0309906 .032989503 .0309906V0L.14299011 .0029907227C.17799378 .0029907227 .21299744 .0009918213 .24699402 0M.19198609 .603775C.19198609 .6307678 .16899109 .6567688 .13899231 .6567688 .10499573 .6567688 .084991458 .6287689 .084991458 .603775 .084991458 .57676699 .10798645 .55078127 .13798523 .55078127 .17199707 .55078127 .19198609 .5787811 .19198609 .603775Z"/>
<path id="font_1_70" d="M.5109863 0V.0309906C.47399903 .0309906 .45199586 .0309906 .4139862 .0839386L.2869873 .26278688C.28599549 .26478578 .2809906 .2707672 .2809906 .2737732 .2809906 .277771 .35198976 .33770753 .3619995 .34570313 .4249878 .39666749 .46699525 .39865113 .48799134 .3996582V.43066407C.45899964 .42765809 .44599916 .42765809 .41799928 .42765809 .38198854 .42765809 .31999208 .42965699 .30599977 .43066407V.3996582C.32499696 .39865113 .33499146 .3876648 .33499146 .37467958 .33499146 .3547058 .32099916 .3427124 .31298829 .33570863L.17199707 .21382141V.69433596L.027999878 .6826172V.6516113C.09799194 .6516113 .10598755 .64460757 .10598755 .5956421V.07595825C.10598755 .0309906 .09498596 .0309906 .027999878 .0309906V0L.13699341 .0029907227 .24699402 0V.0309906C.17999268 .0309906 .16899109 .0309906 .16899109 .07595825V.17889405L.23298645 .23387146C.30999757 .12792969 .35198976 .07196045 .35198976 .053985597 .35198976 .034988405 .33499146 .0309906 .31599427 .0309906V0L.42399598 .0029907227C.45298768 .0029907227 .48199464 .0019989014 .5109863 0Z"/>
<path id="font_1_120" d="M.40098573 .18684387H.37599183C.36698915 .06895447 .34599305 .024993897 .22999573 .024993897H.11199951L.3899994 .40066529C.39898683 .4116516 .39898683 .4136505 .39898683 .41766358 .39898683 .43066407 .3909912 .43066407 .37298585 .43066407H.052993776L.041992189 .2697754H.066986087C.07299805 .37168885 .09199524 .4086609 .20199585 .4086609H.31599427L.036987306 .031982423C.027999878 .020996094 .027999878 .018997193 .027999878 .01399231 .027999878 0 .034988405 0 .053985597 0H.38398744L.40098573 .18684387Z"/>
<path id="font_1_98" d="M.3600006 .12823487C.3600006 .18122864 .32998658 .21122742 .31799317 .22323609 .2849884 .25523377 .24598694 .26322938 .20399475 .27124024 .147995 .28224183 .08099365 .29522706 .08099365 .35324098 .08099365 .38822938 .10699463 .42922975 .19299317 .42922975 .30299378 .42922975 .30799867 .3392334 .30999757 .30822755 .31098939 .2992401 .32199098 .2992401 .32199098 .2992401 .33499146 .2992401 .33499146 .30422975 .33499146 .32322694V.4242401C.33499146 .4412384 .33499146 .4482422 .32398988 .4482422 .31900025 .4482422 .31698609 .4482422 .3039856 .43623353 .30099488 .43223573 .29100038 .42323304 .2869873 .42022706 .24899292 .4482422 .20799256 .4482422 .19299317 .4482422 .070999149 .4482422 .032989503 .38124085 .032989503 .3252411 .032989503 .29023744 .04899597 .26223756 .07598877 .24023438 .10798645 .2142334 .13598633 .2082367 .20799256 .19422913 .22999573 .19021607 .31199647 .17422486 .31199647 .10221863 .31199647 .051223756 .2769928 .011245728 .19898987 .011245728 .114990238 .011245728 .07899475 .068222049 .05999756 .1532135 .056991579 .16621399 .055999757 .17021179 .04598999 .17021179 .032989503 .17021179 .032989503 .16322327 .032989503 .1452179V.013214111C.032989503-.003753662 .032989503-.0107421879 .04399109-.0107421879 .04899597-.0107421879 .049987794-.009750366 .068984989 .009246826 .070999149 .011245728 .070999149 .013214111 .08898926 .032226564 .1329956-.009750366 .17799378-.0107421879 .19898987-.0107421879 .31399537-.0107421879 .3600006 .05621338 .3600006 .1282196V.12823487Z"/>
<path id="font_1_50" d="M.4149933 .11933899C.4149933 .12934876 .40699769 .13134766 .4019928 .13134766 .3929901 .13134766 .3909912 .12535095 .3889923 .11734009 .35398866 .014251709 .2639923 .014251709 .2539978 .014251709 .20399475 .014251709 .1639862 .044281007 .14099121 .08131409 .11099243 .12934876 .11099243 .19540406 .11099243 .23144531H.3899994C.4119873 .23144531 .4149933 .23144531 .4149933 .2524414 .4149933 .35131837 .36099244 .4482422 .23599243 .4482422 .11999512 .4482422 .027999878 .34532167 .027999878 .22042847 .027999878 .08631897 .1329956-.0107421879 .24798584-.0107421879 .36999513-.0107421879 .4149933 .10032654 .4149933 .11933899M.34899903 .2524414H.11199951C.117996219 .40126039 .20199585 .426239 .23599243 .426239 .33898927 .426239 .34899903 .2913971 .34899903 .2524414Z"/>
<path id="font_2_2" d="M.9259949 .6056366C.93499758 .6416168 .93699648 .6516113 1.0119934 .6516113 1.0349884 .6516113 1.0439911 .6516113 1.0439911 .6716156 1.0439911 .6826172 1.0339966 .6826172 1.0169983 .6826172H.8849945C.85899356 .6826172 .8580017 .6826172 .84599307 .66360476L.48098756 .093948367 .40299989 .65960696C.3999939 .6826172 .397995 .6826172 .37199403 .6826172H.23498535C.21598816 .6826172 .20498657 .6826172 .20498657 .66360476 .20498657 .6516113 .21398926 .6516113 .23399353 .6516113 .24699402 .6516113 .2649994 .65060427 .2769928 .6496124 .29299928 .6476135 .29899598 .64460757 .29899598 .6336212 .29899598 .6296234 .2979889 .62661746 .29499818 .614624L.16799927 .10594177C.1579895 .065963748 .14099121 .033996583 .05999756 .0309906 .054992677 .0309906 .041992189 .02999878 .041992189 .011993408 .041992189 .0029907227 .04798889 0 .055999757 0 .08799744 0 .12298584 .0029907227 .1559906 .0029907227 .18998719 .0029907227 .22599793 0 .25898744 0 .2639923 0 .2769928 0 .2769928 .019989014 .2769928 .0309906 .2659912 .0309906 .25898744 .0309906 .20199585 .03199768 .19099427 .051986696 .19099427 .07496643 .19099427 .081954959 .19198609 .08695984 .19499207 .09794617L.33099366 .64260867H.33198548L.41799928 .022994996C.41999818 .010986328 .42099 0 .43299867 0 .44400025 0 .44999696 .010986328 .45498658 .017990113L.85899356 .65060427H.8600006L.71699526 .07795715C.70700076 .038986207 .7049866 .0309906 .6259918 .0309906 .60899356 .0309906 .59799197 .0309906 .59799197 .011993408 .59799197 0 .6100006 0 .61299136 0 .6409912 0 .70899966 .0029907227 .7369995 .0029907227 .7779999 .0029907227 .82099917 0 .8619995 0 .8679962 0 .8809967 0 .8809967 .019989014 .8809967 .0309906 .871994 .0309906 .8529968 .0309906 .81599429 .0309906 .7879944 .0309906 .7879944 .048980714 .7879944 .052978517 .7879944 .054977418 .79299929 .07296753L.9259949 .6056366Z"/>
<path id="font_2_1" d="M.70799258 .23292542C.70999148 .23791504 .71299746 .24491883 .71299746 .24691773 .71299746 .24790955 .71299746 .2579193 .70098879 .2579193 .69200137 .2579193 .6899872 .25190736 .6879883 .24591065 .6230011 .097961429 .58599856 .0309906 .4149933 .0309906H.2689972C.25498963 .0309906 .25299073 .0309906 .24699402 .03199768 .23699951 .032989503 .23399353 .033996583 .23399353 .041992189 .23399353 .04498291 .23399353 .04698181 .23899842 .06498718L.30699159 .33789063H.4059906C.4909973 .33789063 .4909973 .31689454 .4909973 .29190064 .4909973 .28489686 .4909973 .27290345 .48399354 .24291992 .48199464 .23791504 .48098756 .23492432 .48098756 .23191834 .48098756 .22692871 .4850006 .220932 .49398805 .220932 .5019989 .220932 .5049896 .22592163 .5089874 .24092102L.56599429 .47477723C.56599429 .48077394 .5609894 .48576356 .55400088 .48576356 .54499819 .48576356 .54299929 .47976686 .5399933 .4677887 .5189972 .39186097 .5009918 .36888124 .40899659 .36888124H.31498719L.375 .60964968C.38398744 .64460757 .3849945 .64860537 .42900086 .64860537H.56999209C.69200137 .64860537 .7220001 .61964419 .7220001 .5377197 .7220001 .51374819 .7220001 .51174929 .71798709 .48477174 .71798709 .47877503 .71699526 .4717865 .71699526 .46678163 .71699526 .461792 .7200012 .45480348 .72898867 .45480348 .73999026 .45480348 .7409973 .46080018 .7429962 .47976686L.7630005 .65260317C.7659912 .6796112 .7609863 .6796112 .73599246 .6796112H.23098755C.21099854 .6796112 .20098877 .6796112 .20098877 .65960696 .20098877 .64860537 .20999146 .64860537 .22898865 .64860537 .2659912 .64860537 .2939911 .64860537 .2939911 .6306305 .2939911 .6266327 .2939911 .6246338 .2889862 .6066437L.15699768 .07797241C.14698792 .038986207 .14498902 .0309906 .06599426 .0309906 .04899597 .0309906 .037994386 .0309906 .037994386 .011993408 .037994386 0 .04699707 0 .06599426 0H.58499148C.60798647 0 .60899356 .0009918213 .6159973 .016998291L.70799258 .23292542Z"/>
<path id="font_1_107" d="M.44898988 .17396546H.42399598C.4189911 .14398194 .4119873 .099990848 .4019928 .084991458 .394989 .07699585 .32899476 .07699585 .30699159 .07699585H.1269989L.23298645 .17996216C.3889923 .31803895 .44898988 .37210084 .44898988 .47216798 .44898988 .5860901 .35899354 .6660156 .23699951 .6660156 .12399292 .6660156 .049987794 .57411196 .049987794 .48516847 .049987794 .4291687 .099990848 .4291687 .102996829 .4291687 .11999512 .4291687 .15499878 .44117738 .15499878 .48217774 .15499878 .5081787 .13699341 .5341797 .101989749 .5341797 .09399414 .5341797 .09199524 .5341797 .08898926 .5331726 .11199951 .59806826 .1659851 .63500979 .22399903 .63500979 .31498719 .63500979 .35798646 .5541382 .35798646 .47216798 .35798646 .39196778 .30799867 .31297303 .25299073 .25097657L.06098938 .036987306C.049987794 .025985718 .049987794 .023986817 .049987794 0H.42099L.44898988 .17396546Z"/>
<path id="font_1_57" d="M.47099305 .16503906V.19602967H.37098695V.6507721C.37098695 .6707611 .37098695 .6767578 .35499574 .6767578 .34599305 .6767578 .34298707 .6767578 .33499146 .6647644L.027999878 .19602967V.16503906H.2939911V.07800293C.2939911 .041992189 .2919922 .0309906 .21798706 .0309906H.19699097V0C.23799134 .0029907227 .2899933 .0029907227 .33198548 .0029907227 .37399293 .0029907227 .4269867 .0029907227 .46798707 0V.0309906H.44699098C.37298585 .0309906 .37098695 .041992189 .37098695 .07800293V.16503906H.47099305M.2999878 .19602967H.055999757L.2999878 .56881716V.19602967Z"/>
<path id="font_1_101" d="M.45700074 .2036438C.45700074 .33070375 .36799623 .4267578 .25698854 .4267578 .18899536 .4267578 .1519928 .37573243 .13198853 .327713V.35173036C.13198853 .6047821 .2559967 .64100649 .30699159 .64100649 .33099366 .64100649 .37298585 .634964 .394989 .6007538 .37998963 .6007538 .33999635 .6007538 .33999635 .5557556 .33999635 .524765 .3639984 .5097656 .38598634 .5097656 .4019928 .5097656 .43199159 .51875308 .43199159 .5577545 .43199159 .6178589 .3880005 .6660156 .30499269 .6660156 .1769867 .6660156 .041992189 .5367584 .041992189 .31570436 .041992189 .048553468 .1579895-.022460938 .25099183-.022460938 .3619995-.022460938 .45700074 .07156372 .45700074 .2036438M.36698915 .20463562C.36698915 .15661621 .36698915 .10658264 .34999085 .0705719 .31999208 .010528564 .27398683 .0055389406 .25099183 .0055389406 .18798828 .0055389406 .1579895 .06556702 .1519928 .080566409 .13398743 .127594 .13398743 .2076416 .13398743 .22564698 .13398743 .30369569 .1659851 .40374757 .2559967 .40374757 .27198792 .40374757 .31799317 .40374757 .34899903 .34172059 .36698915 .30470277 .36698915 .2536621 .36698915 .20463562Z"/>
<path id="font_1_51" d="M.45700074 .16764832C.45700074 .20367432 .44599916 .24871826 .4079895 .29074098 .3889923 .31176759 .37298585 .32176209 .30899049 .36180116 .3809967 .39881898 .42999269 .4508667 .42999269 .51690676 .42999269 .6089783 .34098817 .6660156 .25 .6660156 .1499939 .6660156 .068984989 .5919647 .068984989 .49890138 .068984989 .48088075 .070999149 .43585206 .11299133 .38882447 .12399292 .3768158 .16099549 .35179139 .18598938 .33477784 .12799073 .30575563 .041992189 .24971009 .041992189 .15063477 .041992189 .044555665 .14399719-.022460938 .24899292-.022460938 .3619995-.022460938 .45700074 .060577394 .45700074 .16764832M.38598634 .51690676C.38598634 .45986939 .34700013 .41183473 .2869873 .3768158L.16299439 .4568634C.116989139 .4868927 .11299133 .5209198 .11299133 .53793337 .11299133 .5989685 .17799378 .64100649 .24899292 .64100649 .32199098 .64100649 .38598634 .588974 .38598634 .51690676M.40699769 .13162232C.40699769 .05757141 .33198548 .0055389406 .25 .0055389406 .1639862 .0055389406 .09199524 .06758118 .09199524 .15063477 .09199524 .2086792 .12399292 .2727356 .20899964 .31976319L.33198548 .24171448C.3600006 .22268677 .40699769 .19267273 .40699769 .13162232Z"/>
<path id="font_1_82" d="M.4189911 0V.0309906H.3869934C.29699708 .0309906 .2939911 .041992189 .2939911 .07902527V.64012148C.2939911 .6640167 .2939911 .6660156 .2709961 .6660156 .20899964 .60227969 .12098694 .60227969 .08898926 .60227969V.57128909C.10899353 .57128909 .16799927 .57128909 .21998596 .5972748V.07902527C.21998596 .042999269 .21699524 .0309906 .1269989 .0309906H.09498596V0C.12998963 .0029907227 .21699524 .0029907227 .25698854 .0029907227 .29699708 .0029907227 .38398744 .0029907227 .4189911 0Z"/>
<path id="font_1_121" d="M.45999146 .31976319C.45999146 .39982606 .45498658 .47988893 .41999818 .5539398 .37399293 .65000918 .2919922 .6660156 .25 .6660156 .18998719 .6660156 .116989139 .64001467 .07598877 .54693606 .04399109 .47789 .038986207 .39982606 .038986207 .31976319 .038986207 .24472046 .042999269 .15464783 .083999637 .07859802 .1269989-.0024719239 .19999695-.022460938 .24899292-.022460938 .30299378-.022460938 .3789978-.0014648438 .4229889 .09359741 .45498658 .16265869 .45999146 .2407074 .45999146 .31976319M.3769989 .3317871C.3769989 .25672914 .3769989 .18867493 .3659973 .12461853 .35099793 .029556275 .2939911-.00047302247 .24899292-.00047302247 .20999146-.00047302247 .15098572 .024551392 .1329956 .12062073 .12199402 .18066406 .12199402 .2727356 .12199402 .3317871 .12199402 .39582826 .12199402 .46188355 .12998963 .5159149 .14898682 .63500979 .22399903 .64401248 .24899292 .64401248 .28199769 .64401248 .34799195 .6259918 .36698915 .52693179 .3769989 .47088624 .3769989 .39482118 .3769989 .3317871Z"/>
</defs>
<use data-text="t" xlink:href="#font_1_105" transform="matrix(9.963197,0,0,-9.963197,.8969803,202.48242)"/>
<use data-text="i" xlink:href="#font_1_66" transform="matrix(9.963197,0,0,-9.963197,4.7726595,202.48242)"/>
<use data-text="k" xlink:href="#font_1_70" transform="matrix(9.963197,0,0,-9.963197,7.542427,202.48242)"/>
<use data-text="z" xlink:href="#font_1_120" transform="matrix(9.963197,0,0,-9.963197,12.802994,202.48242)"/>
<use data-text="s" xlink:href="#font_1_98" transform="matrix(9.963197,0,0,-9.963197,17.226655,202.48242)"/>
<use data-text="e" xlink:href="#font_1_50" transform="matrix(9.963197,0,0,-9.963197,21.152153,202.48242)"/>
<use data-text="t" xlink:href="#font_1_105" transform="matrix(9.963197,0,0,-9.963197,25.575806,202.48242)"/>
<path transform="matrix(1.00006,0,0,-1.00006,51.18998,187.1705)" stroke-width=".3985" stroke-linecap="butt" stroke-miterlimit="10" stroke-linejoin="miter" fill="none" stroke="#00aeef" d="M0 0H170.08086M0 14.17339H170.08086M0 28.3468H170.08086M0 42.5202H170.08086M0 56.69362H170.08086M0 70.867H170.08086M0 85.04042H170.08086M0 99.21382H170.08086M0 113.38724H170.08086M0 127.56062H170.08086M0 141.73404H170.08086M0 155.90744H170.08086M0 170.07587H170.08086M0 0V170.08086M14.17339 0V170.08086M28.3468 0V170.08086M42.5202 0V170.08086M56.69362 0V170.08086M70.867 0V170.08086M85.04042 0V170.08086M99.21382 0V170.08086M113.38724 0V170.08086M127.56062 0V170.08086M141.73404 0V170.08086M155.90744 0V170.08086M170.07587 0V170.08086M170.08086 170.08086"/>
<path transform="matrix(1.00006,0,0,-1.00006,51.18998,187.1705)" stroke-width=".79701" stroke-linecap="butt" stroke-miterlimit="10" stroke-linejoin="miter" fill="none" stroke="#000000" d="M0 0H181.4022"/>
<path transform="matrix(1.00006,0,0,-1.00006,232.60306,187.1705)" d="M1.0361 0C-.25902 .25902-1.55415 .77707-3.1083 1.68365-1.55415 .51805-1.55415-.51805-3.1083-1.68365-1.55415-.77707-.25902-.25902 1.0361 0Z"/>
<path transform="matrix(1.00006,0,0,-1.00006,232.60306,187.1705)" stroke-width=".79701" stroke-linecap="butt" stroke-linejoin="round" fill="none" stroke="#000000" d="M1.0361 0C-.25902 .25902-1.55415 .77707-3.1083 1.68365-1.55415 .51805-1.55415-.51805-3.1083-1.68365-1.55415-.77707-.25902-.25902 1.0361 0Z"/>
<use data-text="M" xlink:href="#font_2_2" transform="matrix(9.963197,0,0,-9.963197,237.75717,190.5747)"/>
<path transform="matrix(1.00006,0,0,-1.00006,51.18998,187.1705)" stroke-width=".79701" stroke-linecap="butt" stroke-miterlimit="10" stroke-linejoin="miter" fill="none" stroke="#000000" d="M0 0V181.4022"/>
<path transform="matrix(0,-1.00006,-1.00006,-0,51.18998,5.757416)" d="M1.0361 0C-.25902 .25902-1.55415 .77707-3.1083 1.68365-1.55415 .51805-1.55415-.51805-3.1083-1.68365-1.55415-.77707-.25902-.25902 1.0361 0Z"/>
<path transform="matrix(0,-1.00006,-1.00006,-0,51.18998,5.757416)" stroke-width=".79701" stroke-linecap="butt" stroke-linejoin="round" fill="none" stroke="#000000" d="M1.0361 0C-.25902 .25902-1.55415 .77707-3.1083 1.68365-1.55415 .51805-1.55415-.51805-3.1083-1.68365-1.55415-.77707-.25902-.25902 1.0361 0Z"/>
<use data-text="E" xlink:href="#font_2_1" transform="matrix(9.963197,0,0,-9.963197,39.541284,7.7267458)"/>
<path transform="matrix(1.00006,0,0,-1.00006,51.18998,187.1705)" stroke-width="1.19553" stroke-linecap="butt" stroke-miterlimit="10" stroke-linejoin="miter" fill="none" stroke="#00aeef" d="M28.3468 0V170.08086"/>
<path transform="matrix(1.00006,0,0,-1.00006,51.18998,187.1705)" stroke-width=".79701" stroke-linecap="butt" stroke-miterlimit="10" stroke-linejoin="miter" fill="none" stroke="#000000" d="M28.3468 1.4174V-1.41719"/>
<use data-text="2" xlink:href="#font_1_107" transform="matrix(9.963197,0,0,-9.963197,77.04753,198.9422)"/>
<path transform="matrix(1.00006,0,0,-1.00006,51.18998,187.1705)" stroke-width="1.19553" stroke-linecap="butt" stroke-miterlimit="10" stroke-linejoin="miter" fill="none" stroke="#00aeef" d="M56.69362 0V170.08086"/>
<path transform="matrix(1.00006,0,0,-1.00006,51.18998,187.1705)" stroke-width=".79701" stroke-linecap="butt" stroke-miterlimit="10" stroke-linejoin="miter" fill="none" stroke="#000000" d="M56.69362 1.4174V-1.41719"/>
<use data-text="4" xlink:href="#font_1_57" transform="matrix(9.963197,0,0,-9.963197,105.396228,199.05222)"/>
<path transform="matrix(1.00006,0,0,-1.00006,51.18998,187.1705)" stroke-width="1.19553" stroke-linecap="butt" stroke-miterlimit="10" stroke-linejoin="miter" fill="none" stroke="#00aeef" d="M85.04042 0V170.08086"/>
<path transform="matrix(1.00006,0,0,-1.00006,51.18998,187.1705)" stroke-width=".79701" stroke-linecap="butt" stroke-miterlimit="10" stroke-linejoin="miter" fill="none" stroke="#000000" d="M85.04042 1.4174V-1.41719"/>
<use data-text="6" xlink:href="#font_1_101" transform="matrix(9.963197,0,0,-9.963197,133.74494,198.9422)"/>
<path transform="matrix(1.00006,0,0,-1.00006,51.18998,187.1705)" stroke-width="1.19553" stroke-linecap="butt" stroke-miterlimit="10" stroke-linejoin="miter" fill="none" stroke="#00aeef" d="M113.38724 0V170.08086"/>
<path transform="matrix(1.00006,0,0,-1.00006,51.18998,187.1705)" stroke-width=".79701" stroke-linecap="butt" stroke-miterlimit="10" stroke-linejoin="miter" fill="none" stroke="#000000" d="M113.38724 1.4174V-1.41719"/>
<use data-text="8" xlink:href="#font_1_51" transform="matrix(9.963197,0,0,-9.963197,162.09363,198.9422)"/>
<path transform="matrix(1.00006,0,0,-1.00006,51.18998,187.1705)" stroke-width="1.19553" stroke-linecap="butt" stroke-miterlimit="10" stroke-linejoin="miter" fill="none" stroke="#00aeef" d="M141.73404 0V170.08086"/>
<path transform="matrix(1.00006,0,0,-1.00006,51.18998,187.1705)" stroke-width=".79701" stroke-linecap="butt" stroke-miterlimit="10" stroke-linejoin="miter" fill="none" stroke="#000000" d="M141.73404 1.4174V-1.41719"/>
<use data-text="1" xlink:href="#font_1_82" transform="matrix(9.963197,0,0,-9.963197,187.95117,198.9422)"/>
<use data-text="0" xlink:href="#font_1_121" transform="matrix(9.963197,0,0,-9.963197,192.93277,198.9422)"/>
<path transform="matrix(1.00006,0,0,-1.00006,51.18998,187.1705)" stroke-width="1.19553" stroke-linecap="butt" stroke-miterlimit="10" stroke-linejoin="miter" fill="none" stroke="#00aeef" d="M170.08086 0V170.08086"/>
<path transform="matrix(1.00006,0,0,-1.00006,51.18998,187.1705)" stroke-width=".79701" stroke-linecap="butt" stroke-miterlimit="10" stroke-linejoin="miter" fill="none" stroke="#000000" d="M170.08086 1.4174V-1.41719"/>
<use data-text="1" xlink:href="#font_1_82" transform="matrix(9.963197,0,0,-9.963197,216.29889,198.9422)"/>
<use data-text="2" xlink:href="#font_1_107" transform="matrix(9.963197,0,0,-9.963197,221.28049,198.9422)"/>
<path transform="matrix(1.00006,0,0,-1.00006,51.18998,187.1705)" stroke-width="1.19553" stroke-linecap="butt" stroke-miterlimit="10" stroke-linejoin="miter" fill="none" stroke="#00aeef" d="M0 28.3468H170.08086"/>
<path transform="matrix(1.00006,0,0,-1.00006,51.18998,187.1705)" stroke-width=".79701" stroke-linecap="butt" stroke-miterlimit="10" stroke-linejoin="miter" fill="none" stroke="#000000" d="M1.4174 28.3468H-1.41719"/>
<use data-text="2" xlink:href="#font_1_107" transform="matrix(9.963197,0,0,-9.963197,41.071374,162.14)"/>
<path transform="matrix(1.00006,0,0,-1.00006,51.18998,187.1705)" stroke-width="1.19553" stroke-linecap="butt" stroke-miterlimit="10" stroke-linejoin="miter" fill="none" stroke="#00aeef" d="M0 56.69362H170.08086"/>
<path transform="matrix(1.00006,0,0,-1.00006,51.18998,187.1705)" stroke-width=".79701" stroke-linecap="butt" stroke-miterlimit="10" stroke-linejoin="miter" fill="none" stroke="#000000" d="M1.4174 56.69362H-1.41719"/>
<use data-text="4" xlink:href="#font_1_57" transform="matrix(9.963197,0,0,-9.963197,41.071374,133.84632)"/>
<path transform="matrix(1.00006,0,0,-1.00006,51.18998,187.1705)" stroke-width="1.19553" stroke-linecap="butt" stroke-miterlimit="10" stroke-linejoin="miter" fill="none" stroke="#00aeef" d="M0 85.04042H170.08086"/>
<path transform="matrix(1.00006,0,0,-1.00006,51.18998,187.1705)" stroke-width=".79701" stroke-linecap="butt" stroke-miterlimit="10" stroke-linejoin="miter" fill="none" stroke="#000000" d="M1.4174 85.04042H-1.41719"/>
<use data-text="6" xlink:href="#font_1_101" transform="matrix(9.963197,0,0,-9.963197,41.071374,105.333599)"/>
<path transform="matrix(1.00006,0,0,-1.00006,51.18998,187.1705)" stroke-width="1.19553" stroke-linecap="butt" stroke-miterlimit="10" stroke-linejoin="miter" fill="none" stroke="#00aeef" d="M0 113.38724H170.08086"/>
<path transform="matrix(1.00006,0,0,-1.00006,51.18998,187.1705)" stroke-width=".79701" stroke-linecap="butt" stroke-miterlimit="10" stroke-linejoin="miter" fill="none" stroke="#000000" d="M1.4174 113.38724H-1.41719"/>
<use data-text="8" xlink:href="#font_1_51" transform="matrix(9.963197,0,0,-9.963197,41.071374,76.98489)"/>
<path transform="matrix(1.00006,0,0,-1.00006,51.18998,187.1705)" stroke-width="1.19553" stroke-linecap="butt" stroke-miterlimit="10" stroke-linejoin="miter" fill="none" stroke="#00aeef" d="M0 141.73404H170.08086"/>
<path transform="matrix(1.00006,0,0,-1.00006,51.18998,187.1705)" stroke-width=".79701" stroke-linecap="butt" stroke-miterlimit="10" stroke-linejoin="miter" fill="none" stroke="#000000" d="M1.4174 141.73404H-1.41719"/>
<use data-text="1" xlink:href="#font_1_82" transform="matrix(9.963197,0,0,-9.963197,36.090074,48.6362)"/>
<use data-text="0" xlink:href="#font_1_121" transform="matrix(9.963197,0,0,-9.963197,41.07167,48.6362)"/>
<path transform="matrix(1.00006,0,0,-1.00006,51.18998,187.1705)" stroke-width="1.19553" stroke-linecap="butt" stroke-miterlimit="10" stroke-linejoin="miter" fill="none" stroke="#00aeef" d="M0 170.08086H170.08086"/>
<path transform="matrix(1.00006,0,0,-1.00006,51.18998,187.1705)" stroke-width=".79701" stroke-linecap="butt" stroke-miterlimit="10" stroke-linejoin="miter" fill="none" stroke="#000000" d="M1.4174 170.08086H-1.41719"/>
<use data-text="1" xlink:href="#font_1_82" transform="matrix(9.963197,0,0,-9.963197,36.090074,20.397507)"/>
<use data-text="2" xlink:href="#font_1_107" transform="matrix(9.963197,0,0,-9.963197,41.07167,20.397507)"/>
</svg>
