<svg xmlns="http://www.w3.org/2000/svg" xmlns:xlink="http://www.w3.org/1999/xlink" version="1.1" width="208" height="201" viewBox="0 0 208 201">
<defs>
<path id="font_1_2" d="M.20599365 .3996582H.2999878C.31999208 .3996582 .32998658 .3996582 .32998658 .41966249 .32998658 .43066407 .31999208 .43066407 .3019867 .43066407H.21398926C.25 .5724945 .25498963 .59246829 .25498963 .59846499 .25498963 .61546328 .24299622 .62545779 .22599793 .62545779 .22299195 .62545779 .19499207 .62446597 .18598938 .58947756L.14698792 .43066407H.052993776C.032989503 .43066407 .022994996 .43066407 .022994996 .4116516 .022994996 .3996582 .0309906 .3996582 .050994874 .3996582H.13899231C.066986087 .11608887 .06298828 .099121097 .06298828 .08114624 .06298828 .02722168 .100997928-.0107421879 .15499878-.0107421879 .25698854-.0107421879 .31399537 .13505554 .31399537 .14305115 .31399537 .1530304 .30599977 .1530304 .3019867 .1530304 .29299928 .1530304 .2919922 .15003968 .2869873 .13905335 .24398804 .035217287 .19099427 .011245728 .15699768 .011245728 .13598633 .011245728 .12599182 .024230957 .12599182 .057174684 .12599182 .08114624 .12799073 .088134769 .13198853 .10510254L.20599365 .3996582Z"/>
<path id="font_1_1" d="M.08799744 .059265138C.084991458 .044265748 .07899475 .021255494 .07899475 .01625061 .07899475-.0017547608 .09298706-.0107421879 .10798645-.0107421879 .11999512-.0107421879 .13798523-.002746582 .14498902 .01725769 .14698792 .021255494 .18099976 .15730286 .18499756 .17530823 .19299317 .20831299 .21099854 .27833558 .21699524 .30534364 .22099304 .31835938 .24899292 .36535646 .272995 .38734437 .2809906 .39434815 .30999757 .42037965 .35299684 .42037965 .3789978 .42037965 .3939972 .4083557 .394989 .4083557 .36499024 .40335084 .34298707 .37934876 .34298707 .35334779 .34298707 .33735658 .35398866 .31835938 .3809967 .31835938 .4079895 .31835938 .43598939 .34135438 .43598939 .37734986 .43598939 .41235353 .4039917 .4423828 .35299684 .4423828 .28799439 .4423828 .24398804 .39335633 .22499085 .36535646 .21699524 .4103546 .18099976 .4423828 .13398743 .4423828 .08799744 .4423828 .068984989 .40335084 .05999756 .38534547 .041992189 .35134889 .0289917 .29133607 .0289917 .28834535 .0289917 .27833558 .038986207 .27833558 .040985109 .27833558 .050994874 .27833558 .051986696 .27934266 .057998659 .30134584 .07499695 .37234498 .09498596 .42037965 .1309967 .42037965 .147995 .42037965 .1619873 .41235353 .1619873 .37435914 .1619873 .35334779 .15899658 .3423462 .1459961 .29034425L.08799744 .059265138Z"/>
<path id="font_2_3" d="M.1269989 .07699585 .23298645 .18003845C.3889923 .31811524 .44898988 .3721466 .44898988 .47216798 .44898988 .5860901 .35899354 .6660156 .23699951 .6660156 .12399292 .6660156 .049987794 .57411196 .049987794 .48516847 .049987794 .4291687 .099990848 .4291687 .102996829 .4291687 .11999512 .4291687 .15499878 .44117738 .15499878 .48217774 .15499878 .5081787 .13699341 .5341797 .101989749 .5341797 .09399414 .5341797 .09199524 .5341797 .08898926 .5331726 .11199951 .59806826 .1659851 .63500979 .22399903 .63500979 .31498719 .63500979 .35798646 .5541382 .35798646 .47216798 .35798646 .39215089 .30799867 .31311036 .25299073 .25108338L.06098938 .036987306C.049987794 .025985718 .049987794 .023986817 .049987794 0H.42099L.44898988 .17404175H.42399598C.4189911 .14402771 .4119873 .1000061 .4019928 .084991458 .394989 .07699585 .32899476 .07699585 .30699159 .07699585H.1269989Z"/>
<path id="font_2_4" d="M.2939911 .16503906V.07800293C.2939911 .041992189 .2919922 .0309906 .21798706 .0309906H.19699097V0C.23799134 .0029907227 .2899933 .0029907227 .33198548 .0029907227 .37399293 .0029907227 .4269867 .0029907227 .46798707 0V.0309906H.44699098C.37298585 .0309906 .37098695 .041992189 .37098695 .07800293V.16503906H.47099305V.19602967H.37098695V.65075686C.37098695 .67074587 .37098695 .6767578 .35499574 .6767578 .34599305 .6767578 .34298707 .6767578 .33499146 .66474917L.027999878 .19602967V.16503906H.2939911M.2999878 .19602967H.055999757L.2999878 .5688019V.19602967Z"/>
<path id="font_2_5" d="M.13198853 .327713V.35173036C.13198853 .6047821 .2559967 .64100649 .30699159 .64100649 .33099366 .64100649 .37298585 .634964 .394989 .6007538 .37998963 .6007538 .33999635 .6007538 .33999635 .5557556 .33999635 .524765 .3639984 .5097656 .38598634 .5097656 .4019928 .5097656 .43199159 .51875308 .43199159 .5577545 .43199159 .6178589 .3880005 .6660156 .30499269 .6660156 .1769867 .6660156 .041992189 .5367584 .041992189 .31570436 .041992189 .048553468 .1579895-.022460938 .25099183-.022460938 .3619995-.022460938 .45700074 .07156372 .45700074 .2036438 .45700074 .33070375 .36799623 .4267578 .25698854 .4267578 .18899536 .4267578 .1519928 .37573243 .13198853 .327713M.25099183 .0055389406C.18798828 .0055389406 .1579895 .06556702 .1519928 .080566409 .13398743 .127594 .13398743 .2076416 .13398743 .22564698 .13398743 .30369569 .1659851 .40374757 .2559967 .40374757 .27198792 .40374757 .31799317 .40374757 .34899903 .34172059 .36698915 .30470277 .36698915 .2536621 .36698915 .20463562 .36698915 .15661621 .36698915 .10658264 .34999085 .0705719 .31999208 .010528564 .27398683 .0055389406 .25099183 .0055389406Z"/>
<path id="font_2_6" d="M.16299439 .4569702C.116989139 .486969 .11299133 .52098086 .11299133 .5379791 .11299133 .598999 .17799378 .64100649 .24899292 .64100649 .32199098 .64100649 .38598634 .58898928 .38598634 .51698306 .38598634 .45996095 .34700013 .4119568 .2869873 .37695313L.16299439 .4569702M.30899049 .36193849C.3809967 .3989563 .42999269 .45095826 .42999269 .51698306 .42999269 .6090088 .34098817 .6660156 .25 .6660156 .1499939 .6660156 .068984989 .59199526 .068984989 .49897767 .068984989 .4809723 .070999149 .43595887 .11299133 .38894654 .12399292 .37695313 .16099549 .35194398 .18598938 .33494569 .12799073 .30592347 .041992189 .24984741 .041992189 .15072632 .041992189 .04458618 .14399719-.022460938 .24899292-.022460938 .3619995-.022460938 .45700074 .06060791 .45700074 .16773987 .45700074 .20379639 .44599916 .24885559 .4079895 .2909088 .3889923 .31193543 .37298585 .3219452 .30899049 .36193849M.20899964 .3199463 .33198548 .24183655C.3600006 .2228241 .40699769 .19277954 .40699769 .13169861 .40699769 .05760193 .33198548 .0055389406 .25 .0055389406 .1639862 .0055389406 .09199524 .067611698 .09199524 .15072632 .09199524 .20880127 .12399292 .27288819 .20899964 .3199463Z"/>
<path id="font_2_2" d="M.2939911 .64004519C.2939911 .66400149 .2939911 .6660156 .2709961 .6660156 .20899964 .60227969 .12098694 .60227969 .08898926 .60227969V.57128909C.10899353 .57128909 .16799927 .57128909 .21998596 .5972748V.07902527C.21998596 .042999269 .21699524 .0309906 .1269989 .0309906H.09498596V0C.12998963 .0029907227 .21699524 .0029907227 .25698854 .0029907227 .29699708 .0029907227 .38398744 .0029907227 .4189911 0V.0309906H.3869934C.29699708 .0309906 .2939911 .041992189 .2939911 .07902527V.64004519Z"/>
<path id="font_2_1" d="M.45999146 .31976319C.45999146 .39982606 .45498658 .47988893 .41999818 .5539398 .37399293 .65000918 .2919922 .6660156 .25 .6660156 .18998719 .6660156 .116989139 .64001467 .07598877 .54693606 .04399109 .47789 .038986207 .39982606 .038986207 .31976319 .038986207 .24472046 .042999269 .15464783 .083999637 .07859802 .1269989-.0024719239 .19999695-.022460938 .24899292-.022460938 .30299378-.022460938 .3789978-.0014648438 .4229889 .09359741 .45498658 .16265869 .45999146 .2407074 .45999146 .31976319M.24899292-.00047302247C.20999146-.00047302247 .15098572 .024551392 .1329956 .12062073 .12199402 .18066406 .12199402 .2727356 .12199402 .3317871 .12199402 .39582826 .12199402 .46188355 .12998963 .5159149 .14898682 .63500979 .22399903 .64401248 .24899292 .64401248 .28199769 .64401248 .34799195 .6259918 .36698915 .52693179 .3769989 .47088624 .3769989 .39482118 .3769989 .3317871 .3769989 .25672914 .3769989 .18867493 .3659973 .12461853 .35099793 .029556275 .2939911-.00047302247 .24899292-.00047302247Z"/>
</defs>
<path transform="matrix(1.00003,0,0,-1.00002,15.638054,187.7545)" stroke-width=".3985" stroke-linecap="butt" stroke-miterlimit="10" stroke-linejoin="miter" fill="none" stroke="#00aeef" d="M0 0H170.08257M0 17.00824H170.08257M0 34.0165H170.08257M0 51.02477H170.08257M0 68.03302H170.08257M0 85.04128H170.08257M0 102.04953H170.08257M0 119.0578H170.08257M0 136.06606H170.08257M0 153.07433H170.08257M0 170.07959H170.08257M0 0V170.08257M17.00824 0V170.08257M34.0165 0V170.08257M51.02477 0V170.08257M68.03302 0V170.08257M85.04128 0V170.08257M102.04953 0V170.08257M119.0578 0V170.08257M136.06606 0V170.08257M153.07433 0V170.08257M170.07959 0V170.08257M170.08257 170.08257"/>
<path transform="matrix(1.00003,0,0,-1.00002,15.638054,187.7545)" stroke-width=".79701" stroke-linecap="butt" stroke-miterlimit="10" stroke-linejoin="miter" fill="none" stroke="#000000" d="M0 0H182.25463"/>
<path transform="matrix(1.00003,0,0,-1.00002,197.89817,187.7545)" d="M1.0361 0C-.25902 .25902-1.55415 .77707-3.1083 1.68365-1.55415 .51805-1.55415-.51805-3.1083-1.68365-1.55415-.77707-.25902-.25902 1.0361 0Z"/>
<path transform="matrix(1.00003,0,0,-1.00002,197.89817,187.7545)" stroke-width=".79701" stroke-linecap="butt" stroke-linejoin="round" fill="none" stroke="#000000" d="M1.0361 0C-.25902 .25902-1.55415 .77707-3.1083 1.68365-1.55415 .51805-1.55415-.51805-3.1083-1.68365-1.55415-.77707-.25902-.25902 1.0361 0Z"/>
<use data-text="t" xlink:href="#font_1_2" transform="matrix(9.962899,0,0,-9.962799,203.0517,190.81856)"/>
<path transform="matrix(1.00003,0,0,-1.00002,15.638054,187.7545)" stroke-width=".79701" stroke-linecap="butt" stroke-miterlimit="10" stroke-linejoin="miter" fill="none" stroke="#000000" d="M0 0V182.25463"/>
<path transform="matrix(0,-1.00002,-1.00003,-0,15.638054,5.496231)" d="M1.0361 0C-.25902 .25902-1.55415 .77707-3.1083 1.68365-1.55415 .51805-1.55415-.51805-3.1083-1.68365-1.55415-.77707-.25902-.25902 1.0361 0Z"/>
<path transform="matrix(0,-1.00002,-1.00003,-0,15.638054,5.496231)" stroke-width=".79701" stroke-linecap="butt" stroke-linejoin="round" fill="none" stroke="#000000" d="M1.0361 0C-.25902 .25902-1.55415 .77707-3.1083 1.68365-1.55415 .51805-1.55415-.51805-3.1083-1.68365-1.55415-.77707-.25902-.25902 1.0361 0Z"/>
<use data-text="r" xlink:href="#font_1_1" transform="matrix(9.962899,0,0,-9.962799,9.139862,6.2068636)"/>
<path transform="matrix(1.00003,0,0,-1.00002,15.638054,187.7545)" stroke-width=".3985" stroke-linecap="butt" stroke-miterlimit="10" stroke-linejoin="miter" fill="none" stroke="#000000" d="M17.00824 1.27554V-1.27568"/>
<path transform="matrix(1.00003,0,0,-1.00002,15.638054,187.7545)" d="M13.52127-11.88048H20.495209V-3.4674998H13.52127Z" fill="#ffffff"/>
<use data-text="2" xlink:href="#font_2_3" transform="matrix(9.962899,0,0,-9.962799,30.156487,198.63872)"/>
<path transform="matrix(1.00003,0,0,-1.00002,15.638054,187.7545)" stroke-width=".3985" stroke-linecap="butt" stroke-miterlimit="10" stroke-linejoin="miter" fill="none" stroke="#000000" d="M1.27554 17.00824H-1.27568"/>
<path transform="matrix(1.00003,0,0,-1.00002,15.638054,187.7545)" d="M-10.44142 12.80174H-3.4674798V21.21472H-10.44142Z" fill="#ffffff"/>
<use data-text="2" xlink:href="#font_2_3" transform="matrix(9.962899,0,0,-9.962799,6.192772,173.95623)"/>
<path transform="matrix(1.00003,0,0,-1.00002,15.638054,187.7545)" stroke-width=".3985" stroke-linecap="butt" stroke-miterlimit="10" stroke-linejoin="miter" fill="none" stroke="#000000" d="M34.0165 1.27554V-1.27568"/>
<path transform="matrix(1.00003,0,0,-1.00002,15.638054,187.7545)" d="M30.52953-11.88048H37.50347V-3.4674998H30.52953Z" fill="#ffffff"/>
<use data-text="4" xlink:href="#font_2_4" transform="matrix(9.962899,0,0,-9.962799,47.165,198.63872)"/>
<path transform="matrix(1.00003,0,0,-1.00002,15.638054,187.7545)" stroke-width=".3985" stroke-linecap="butt" stroke-miterlimit="10" stroke-linejoin="miter" fill="none" stroke="#000000" d="M1.27554 34.0165H-1.27568"/>
<path transform="matrix(1.00003,0,0,-1.00002,15.638054,187.7545)" d="M-10.44142 29.81001H-3.4674798V38.222993H-10.44142Z" fill="#ffffff"/>
<use data-text="4" xlink:href="#font_2_4" transform="matrix(9.962899,0,0,-9.962799,6.192772,156.94789)"/>
<path transform="matrix(1.00003,0,0,-1.00002,15.638054,187.7545)" stroke-width=".3985" stroke-linecap="butt" stroke-miterlimit="10" stroke-linejoin="miter" fill="none" stroke="#000000" d="M51.02477 1.27554V-1.27568"/>
<path transform="matrix(1.00003,0,0,-1.00002,15.638054,187.7545)" d="M47.5378-11.88048H54.51174V-3.4674998H47.5378Z" fill="#ffffff"/>
<use data-text="6" xlink:href="#font_2_5" transform="matrix(9.962899,0,0,-9.962799,64.17351,198.63872)"/>
<path transform="matrix(1.00003,0,0,-1.00002,15.638054,187.7545)" stroke-width=".3985" stroke-linecap="butt" stroke-miterlimit="10" stroke-linejoin="miter" fill="none" stroke="#000000" d="M1.27554 51.02477H-1.27568"/>
<path transform="matrix(1.00003,0,0,-1.00002,15.638054,187.7545)" d="M-10.44142 46.81827H-3.4674798V55.23125H-10.44142Z" fill="#ffffff"/>
<use data-text="6" xlink:href="#font_2_5" transform="matrix(9.962899,0,0,-9.962799,6.192772,139.93854)"/>
<path transform="matrix(1.00003,0,0,-1.00002,15.638054,187.7545)" stroke-width=".3985" stroke-linecap="butt" stroke-miterlimit="10" stroke-linejoin="miter" fill="none" stroke="#000000" d="M68.03302 1.27554V-1.27568"/>
<path transform="matrix(1.00003,0,0,-1.00002,15.638054,187.7545)" d="M64.54605-11.88048H71.51999V-3.4674998H64.54605Z" fill="#ffffff"/>
<use data-text="8" xlink:href="#font_2_6" transform="matrix(9.962899,0,0,-9.962799,81.18202,198.63872)"/>
<path transform="matrix(1.00003,0,0,-1.00002,15.638054,187.7545)" stroke-width=".3985" stroke-linecap="butt" stroke-miterlimit="10" stroke-linejoin="miter" fill="none" stroke="#000000" d="M1.27554 68.03302H-1.27568"/>
<path transform="matrix(1.00003,0,0,-1.00002,15.638054,187.7545)" d="M-10.44142 63.82654H-3.4674798V72.239528H-10.44142Z" fill="#ffffff"/>
<use data-text="8" xlink:href="#font_2_6" transform="matrix(9.962899,0,0,-9.962799,6.192772,122.93021)"/>
<path transform="matrix(1.00003,0,0,-1.00002,15.638054,187.7545)" stroke-width=".3985" stroke-linecap="butt" stroke-miterlimit="10" stroke-linejoin="miter" fill="none" stroke="#000000" d="M85.04128 1.27554V-1.27568"/>
<path transform="matrix(1.00003,0,0,-1.00002,15.638054,187.7545)" d="M79.0636-11.88048H91.018939V-3.4674998H79.0636Z" fill="#ffffff"/>
<use data-text="1" xlink:href="#font_2_2" transform="matrix(9.962899,0,0,-9.962799,95.700458,198.63872)"/>
<use data-text="0" xlink:href="#font_2_1" transform="matrix(9.962899,0,0,-9.962799,100.68191,198.63872)"/>
<path transform="matrix(1.00003,0,0,-1.00002,15.638054,187.7545)" stroke-width=".3985" stroke-linecap="butt" stroke-miterlimit="10" stroke-linejoin="miter" fill="none" stroke="#000000" d="M1.27554 85.04128H-1.27568"/>
<path transform="matrix(1.00003,0,0,-1.00002,15.638054,187.7545)" d="M-15.42284 80.83478H-3.4674998V89.24776H-15.42284Z" fill="#ffffff"/>
<use data-text="1" xlink:href="#font_2_2" transform="matrix(9.962899,0,0,-9.962799,1.2106247,105.92186)"/>
<use data-text="0" xlink:href="#font_2_1" transform="matrix(9.962899,0,0,-9.962799,6.1920778,105.92186)"/>
<path transform="matrix(1.00003,0,0,-1.00002,15.638054,187.7545)" stroke-width=".3985" stroke-linecap="butt" stroke-miterlimit="10" stroke-linejoin="miter" fill="none" stroke="#000000" d="M102.04953 1.27554V-1.27568"/>
<path transform="matrix(1.00003,0,0,-1.00002,15.638054,187.7545)" d="M96.07185-11.88048H108.02719V-3.4674998H96.07185Z" fill="#ffffff"/>
<use data-text="1" xlink:href="#font_2_2" transform="matrix(9.962899,0,0,-9.962799,112.70897,198.63872)"/>
<use data-text="2" xlink:href="#font_2_3" transform="matrix(9.962899,0,0,-9.962799,117.69042,198.63872)"/>
<path transform="matrix(1.00003,0,0,-1.00002,15.638054,187.7545)" stroke-width=".3985" stroke-linecap="butt" stroke-miterlimit="10" stroke-linejoin="miter" fill="none" stroke="#000000" d="M1.27554 102.04953H-1.27568"/>
<path transform="matrix(1.00003,0,0,-1.00002,15.638054,187.7545)" d="M-15.42284 97.84305H-3.4674998V106.25603H-15.42284Z" fill="#ffffff"/>
<use data-text="1" xlink:href="#font_2_2" transform="matrix(9.962899,0,0,-9.962799,1.2106247,88.91353)"/>
<use data-text="2" xlink:href="#font_2_3" transform="matrix(9.962899,0,0,-9.962799,6.1920778,88.91353)"/>
<path transform="matrix(1.00003,0,0,-1.00002,15.638054,187.7545)" stroke-width=".3985" stroke-linecap="butt" stroke-miterlimit="10" stroke-linejoin="miter" fill="none" stroke="#000000" d="M119.0578 1.27554V-1.27568"/>
<path transform="matrix(1.00003,0,0,-1.00002,15.638054,187.7545)" d="M113.08012-11.88048H125.03545V-3.4674998H113.08012Z" fill="#ffffff"/>
<use data-text="1" xlink:href="#font_2_2" transform="matrix(9.962899,0,0,-9.962799,129.71747,198.63872)"/>
<use data-text="4" xlink:href="#font_2_4" transform="matrix(9.962899,0,0,-9.962799,134.69893,198.63872)"/>
<path transform="matrix(1.00003,0,0,-1.00002,15.638054,187.7545)" stroke-width=".3985" stroke-linecap="butt" stroke-miterlimit="10" stroke-linejoin="miter" fill="none" stroke="#000000" d="M1.27554 119.0578H-1.27568"/>
<path transform="matrix(1.00003,0,0,-1.00002,15.638054,187.7545)" d="M-15.42284 114.8513H-3.4674998V123.26428H-15.42284Z" fill="#ffffff"/>
<use data-text="1" xlink:href="#font_2_2" transform="matrix(9.962899,0,0,-9.962799,1.2106247,71.90418)"/>
<use data-text="4" xlink:href="#font_2_4" transform="matrix(9.962899,0,0,-9.962799,6.1920778,71.90418)"/>
<path transform="matrix(1.00003,0,0,-1.00002,15.638054,187.7545)" stroke-width=".3985" stroke-linecap="butt" stroke-miterlimit="10" stroke-linejoin="miter" fill="none" stroke="#000000" d="M136.06606 1.27554V-1.27568"/>
<path transform="matrix(1.00003,0,0,-1.00002,15.638054,187.7545)" d="M130.08838-11.88048H142.04372V-3.4674998H130.08838Z" fill="#ffffff"/>
<use data-text="1" xlink:href="#font_2_2" transform="matrix(9.962899,0,0,-9.962799,146.72699,198.63872)"/>
<use data-text="6" xlink:href="#font_2_5" transform="matrix(9.962899,0,0,-9.962799,151.70845,198.63872)"/>
<path transform="matrix(1.00003,0,0,-1.00002,15.638054,187.7545)" stroke-width=".3985" stroke-linecap="butt" stroke-miterlimit="10" stroke-linejoin="miter" fill="none" stroke="#000000" d="M1.27554 136.06606H-1.27568"/>
<path transform="matrix(1.00003,0,0,-1.00002,15.638054,187.7545)" d="M-15.42284 131.85958H-3.4674998V140.27256H-15.42284Z" fill="#ffffff"/>
<use data-text="1" xlink:href="#font_2_2" transform="matrix(9.962899,0,0,-9.962799,1.2106247,54.895845)"/>
<use data-text="6" xlink:href="#font_2_5" transform="matrix(9.962899,0,0,-9.962799,6.1920778,54.895845)"/>
<path transform="matrix(1.00003,0,0,-1.00002,15.638054,187.7545)" stroke-width=".3985" stroke-linecap="butt" stroke-miterlimit="10" stroke-linejoin="miter" fill="none" stroke="#000000" d="M153.07433 1.27554V-1.27568"/>
<path transform="matrix(1.00003,0,0,-1.00002,15.638054,187.7545)" d="M147.09665-11.88048H159.05199V-3.4674998H147.09665Z" fill="#ffffff"/>
<use data-text="1" xlink:href="#font_2_2" transform="matrix(9.962899,0,0,-9.962799,163.7355,198.63872)"/>
<use data-text="8" xlink:href="#font_2_6" transform="matrix(9.962899,0,0,-9.962799,168.71697,198.63872)"/>
<path transform="matrix(1.00003,0,0,-1.00002,15.638054,187.7545)" stroke-width=".3985" stroke-linecap="butt" stroke-miterlimit="10" stroke-linejoin="miter" fill="none" stroke="#000000" d="M1.27554 153.07433H-1.27568"/>
<path transform="matrix(1.00003,0,0,-1.00002,15.638054,187.7545)" d="M-15.42284 148.86783H-3.4674998V157.2808H-15.42284Z" fill="#ffffff"/>
<use data-text="1" xlink:href="#font_2_2" transform="matrix(9.962899,0,0,-9.962799,1.2106247,37.887498)"/>
<use data-text="8" xlink:href="#font_2_6" transform="matrix(9.962899,0,0,-9.962799,6.1920778,37.887498)"/>
<path transform="matrix(1.00003,0,0,-1.00002,15.638054,187.7545)" stroke-width=".3985" stroke-linecap="butt" stroke-miterlimit="10" stroke-linejoin="miter" fill="none" stroke="#000000" d="M170.08257 1.27554V-1.27568"/>
<path transform="matrix(1.00003,0,0,-1.00002,15.638054,187.7545)" d="M164.10489-11.88048H176.06023V-3.4674998H164.10489Z" fill="#ffffff"/>
<use data-text="2" xlink:href="#font_2_3" transform="matrix(9.962899,0,0,-9.962799,180.74402,198.63872)"/>
<use data-text="0" xlink:href="#font_2_1" transform="matrix(9.962899,0,0,-9.962799,185.72547,198.63872)"/>
<path transform="matrix(1.00003,0,0,-1.00002,15.638054,187.7545)" stroke-width=".3985" stroke-linecap="butt" stroke-miterlimit="10" stroke-linejoin="miter" fill="none" stroke="#000000" d="M1.27554 170.08257H-1.27568"/>
<path transform="matrix(1.00003,0,0,-1.00002,15.638054,187.7545)" d="M-15.42284 165.87607H-3.4674998V174.28905H-15.42284Z" fill="#ffffff"/>
<use data-text="2" xlink:href="#font_2_3" transform="matrix(9.962899,0,0,-9.962799,1.2106247,20.879166)"/>
<use data-text="0" xlink:href="#font_2_1" transform="matrix(9.962899,0,0,-9.962799,6.1920778,20.879166)"/>
</svg>
