<svg xmlns="http://www.w3.org/2000/svg" xmlns:xlink="http://www.w3.org/1999/xlink" version="1.1" width="147" height="176" viewBox="0 0 147 176">
<path transform="matrix(1.00003,0,0,-1.00003,3.5406647,171.88468)" stroke-width=".3985" stroke-linecap="butt" stroke-miterlimit="10" stroke-linejoin="miter" fill="none" stroke="#00aeef" d="M0 0H141.73404M0 17.00824H141.73404M0 34.0165H141.73404M0 51.02477H141.73404M0 68.03302H141.73404M0 85.04128H141.73404M0 102.04953H141.73404M0 119.0578H141.73404M0 136.06606H141.73404M0 153.07433H141.73404M0 170.0766H141.73404M0 0V170.08257M14.17339 0V170.08257M28.3468 0V170.08257M42.5202 0V170.08257M56.69362 0V170.08257M70.867 0V170.08257M85.04042 0V170.08257M99.21382 0V170.08257M113.38724 0V170.08257M127.56062 0V170.08257M141.72905 0V170.08257M141.73404 170.08257"/>
<path transform="matrix(1.00003,0,0,-1.00003,3.5406647,171.88468)" stroke-width=".3985" stroke-linecap="butt" stroke-miterlimit="10" stroke-linejoin="miter" fill="none" stroke="#000000" d="M14.17339 2.55112V-2.55139"/>
<path transform="matrix(1.00003,0,0,-1.00003,3.5406647,171.88468)" stroke-width=".3985" stroke-linecap="butt" stroke-miterlimit="10" stroke-linejoin="miter" fill="none" stroke="#000000" d="M2.12592 17.00824H-2.12613"/>
<path transform="matrix(1.00003,0,0,-1.00003,3.5406647,171.88468)" stroke-width=".3985" stroke-linecap="butt" stroke-miterlimit="10" stroke-linejoin="miter" fill="none" stroke="#000000" d="M28.3468 2.55112V-2.55139"/>
<path transform="matrix(1.00003,0,0,-1.00003,3.5406647,171.88468)" stroke-width=".3985" stroke-linecap="butt" stroke-miterlimit="10" stroke-linejoin="miter" fill="none" stroke="#000000" d="M2.12592 34.0165H-2.12613"/>
<path transform="matrix(1.00003,0,0,-1.00003,3.5406647,171.88468)" stroke-width=".3985" stroke-linecap="butt" stroke-miterlimit="10" stroke-linejoin="miter" fill="none" stroke="#000000" d="M42.5202 2.55112V-2.55139"/>
<path transform="matrix(1.00003,0,0,-1.00003,3.5406647,171.88468)" stroke-width=".3985" stroke-linecap="butt" stroke-miterlimit="10" stroke-linejoin="miter" fill="none" stroke="#000000" d="M2.12592 51.02477H-2.12613"/>
<path transform="matrix(1.00003,0,0,-1.00003,3.5406647,171.88468)" stroke-width=".3985" stroke-linecap="butt" stroke-miterlimit="10" stroke-linejoin="miter" fill="none" stroke="#000000" d="M56.69362 2.55112V-2.55139"/>
<path transform="matrix(1.00003,0,0,-1.00003,3.5406647,171.88468)" stroke-width=".3985" stroke-linecap="butt" stroke-miterlimit="10" stroke-linejoin="miter" fill="none" stroke="#000000" d="M2.12592 68.03302H-2.12613"/>
<path transform="matrix(1.00003,0,0,-1.00003,3.5406647,171.88468)" stroke-width=".3985" stroke-linecap="butt" stroke-miterlimit="10" stroke-linejoin="miter" fill="none" stroke="#000000" d="M70.867 2.55112V-2.55139"/>
<path transform="matrix(1.00003,0,0,-1.00003,3.5406647,171.88468)" stroke-width=".3985" stroke-linecap="butt" stroke-miterlimit="10" stroke-linejoin="miter" fill="none" stroke="#000000" d="M2.12592 85.04128H-2.12613"/>
<path transform="matrix(1.00003,0,0,-1.00003,3.5406647,171.88468)" stroke-width=".3985" stroke-linecap="butt" stroke-miterlimit="10" stroke-linejoin="miter" fill="none" stroke="#000000" d="M85.04042 2.55112V-2.55139"/>
<path transform="matrix(1.00003,0,0,-1.00003,3.5406647,171.88468)" stroke-width=".3985" stroke-linecap="butt" stroke-miterlimit="10" stroke-linejoin="miter" fill="none" stroke="#000000" d="M2.12592 102.04953H-2.12613"/>
<path transform="matrix(1.00003,0,0,-1.00003,3.5406647,171.88468)" stroke-width=".3985" stroke-linecap="butt" stroke-miterlimit="10" stroke-linejoin="miter" fill="none" stroke="#000000" d="M99.21382 2.55112V-2.55139"/>
<path transform="matrix(1.00003,0,0,-1.00003,3.5406647,171.88468)" stroke-width=".3985" stroke-linecap="butt" stroke-miterlimit="10" stroke-linejoin="miter" fill="none" stroke="#000000" d="M2.12592 119.0578H-2.12613"/>
<path transform="matrix(1.00003,0,0,-1.00003,3.5406647,171.88468)" stroke-width=".3985" stroke-linecap="butt" stroke-miterlimit="10" stroke-linejoin="miter" fill="none" stroke="#000000" d="M113.38724 2.55112V-2.55139"/>
<path transform="matrix(1.00003,0,0,-1.00003,3.5406647,171.88468)" stroke-width=".3985" stroke-linecap="butt" stroke-miterlimit="10" stroke-linejoin="miter" fill="none" stroke="#000000" d="M2.12592 136.06606H-2.12613"/>
<path transform="matrix(1.00003,0,0,-1.00003,3.5406647,171.88468)" stroke-width=".3985" stroke-linecap="butt" stroke-miterlimit="10" stroke-linejoin="miter" fill="none" stroke="#000000" d="M127.56062 2.55112V-2.55139"/>
<path transform="matrix(1.00003,0,0,-1.00003,3.5406647,171.88468)" stroke-width=".3985" stroke-linecap="butt" stroke-miterlimit="10" stroke-linejoin="miter" fill="none" stroke="#000000" d="M2.12592 153.07433H-2.12613"/>
<path transform="matrix(1.00003,0,0,-1.00003,3.5406647,171.88468)" stroke-width=".3985" stroke-linecap="butt" stroke-miterlimit="10" stroke-linejoin="miter" fill="none" stroke="#000000" d="M141.73404 2.55112V-2.55139"/>
<path transform="matrix(1.00003,0,0,-1.00003,3.5406647,171.88468)" stroke-width=".3985" stroke-linecap="butt" stroke-miterlimit="10" stroke-linejoin="miter" fill="none" stroke="#000000" d="M2.12592 170.08257H-2.12613"/>
</svg>
