<svg xmlns="http://www.w3.org/2000/svg" xmlns:xlink="http://www.w3.org/1999/xlink" version="1.1" width="203" height="194" viewBox="0 0 203 194">
<defs>
<path id="font_1_4" d="M.33399964 .30233766C.33999635 .32835389 .36299134 .42037965 .43299867 .42037965 .43798829 .42037965 .46199037 .42037965 .48298646 .40734864 .45498658 .402359 .43499757 .37734986 .43499757 .35334779 .43499757 .33735658 .44599916 .31835938 .47299195 .31835938 .49499513 .31835938 .5269928 .3363495 .5269928 .37635804 .5269928 .42837525 .46798707 .4423828 .43399049 .4423828 .37599183 .4423828 .34098817 .38935853 .32899476 .36634828 .3039856 .43237306 .25 .4423828 .22099304 .4423828 .116989139 .4423828 .05999756 .3133545 .05999756 .28834535 .05999756 .27833558 .069992069 .27833558 .07199097 .27833558 .07998657 .27833558 .08299255 .28033448 .084991458 .28933717 .11898804 .39535523 .18499756 .42037965 .21899414 .42037965 .23799134 .42037965 .272995 .4113617 .272995 .35334779 .272995 .32235719 .2559967 .25532533 .21899414 .11528015 .20298767 .053268434 .16799927 .011245728 .12399292 .011245728 .117996219 .011245728 .09498596 .011245728 .07398987 .024276734 .09899902 .029266358 .12098694 .05027771 .12098694 .07827759 .12098694 .105270389 .09899902 .11328125 .083999637 .11328125 .053985597 .11328125 .0289917 .08728027 .0289917 .055267335 .0289917 .009246826 .07899475-.0107421879 .12298584-.0107421879 .18899536-.0107421879 .22499085 .059280397 .22799683 .0652771 .23999024 .028274537 .27598573-.0107421879 .33599855-.0107421879 .43899537-.0107421879 .49598695 .118270877 .49598695 .14328003 .49598695 .1532898 .4869995 .1532898 .48399354 .1532898 .47499085 .1532898 .47299195 .14929199 .47099305 .14228821 .43798829 .03527832 .36999513 .011245728 .33799745 .011245728 .29899598 .011245728 .2829895 .043273927 .2829895 .07727051 .2829895 .09927368 .2889862 .121276859 .2999878 .16529846L.33399964 .30233766Z"/>
<path id="font_1_5" d="M.48599244 .38136292C.48999024 .39537049 .48999024 .39736939 .48999024 .40437318 .48999024 .42237855 .47599793 .43138124 .46099855 .43138124 .45098878 .43138124 .43499757 .42536927 .42599488 .41036988 .42399598 .405365 .41600038 .37435914 .4119873 .35635377 .40499879 .33035279 .397995 .30334474 .3919983 .27633668L.34700013 .09628296C.34298707 .08126831 .2999878 .011245728 .23399353 .011245728 .18299866 .011245728 .17199707 .055267335 .17199707 .0922699 .17199707 .1382904 .18899536 .20030213 .22299195 .28833009 .23899842 .3293457 .24299622 .3403473 .24299622 .36035157 .24299622 .405365 .21099854 .4423828 .16099549 .4423828 .06599426 .4423828 .0289917 .29733277 .0289917 .28833009 .0289917 .27833558 .038986207 .27833558 .040985109 .27833558 .050994874 .27833558 .051986696 .28033448 .056991579 .29634095 .083999637 .3903656 .12399292 .42037965 .1579895 .42037965 .1659851 .42037965 .18299866 .42037965 .18299866 .3883667 .18299866 .36335755 .17298889 .3373413 .1659851 .31834413 .12599182 .21231079 .10798645 .1552887 .10798645 .10827637 .10798645 .019256592 .17098999-.0107421879 .22999573-.0107421879 .2689972-.0107421879 .30299378 .0062561037 .33099366 .03425598 .31799317-.017745972 .30599977-.06674194 .2659912-.11973572 .23999024-.15385437 .20199585-.18309021 .1559906-.18309021 .14199829-.18309021 .09700012-.18005371 .07998657-.14074707 .09599304-.14074707 .10899353-.14074707 .12298584-.1287384 .1329956-.11973572 .14299011-.10673523 .14299011-.08773804 .14299011-.056747438 .115997318-.052734376 .10598755-.052734376 .08299255-.052734376 .049987794-.068740848 .049987794-.11773682 .049987794-.16796875 .09399414-.20507813 .1559906-.20507813 .25898744-.20507813 .3619995-.11373901 .3899994-.00074768069L.48599244 .38136292Z"/>
<path id="font_2_1" d="M.6589966 .23046875C.6759949 .23046875 .69400027 .23046875 .69400027 .25045777 .69400027 .27046205 .6759949 .27046205 .6589966 .27046205H.117996219C.100997928 .27046205 .08299255 .27046205 .08299255 .25045777 .08299255 .23046875 .100997928 .23046875 .117996219 .23046875H.6589966Z"/>
<path id="font_3_3" d="M.44898988 .20022583C.44898988 .3193512 .36698915 .41944886 .25898744 .41944886 .21099854 .41944886 .16799927 .40345765 .13198853 .36842347V.5637665C.1519928 .5577698 .18499756 .55078127 .21699524 .55078127 .33999635 .55078127 .4099884 .6417694 .4099884 .6547699 .4099884 .6607666 .40699769 .6657715 .3999939 .6657715 .39898683 .6657715 .39698792 .6657715 .3919983 .66278079 .37199403 .6537781 .32299806 .6337738 .2559967 .6337738 .21598816 .6337738 .16999817 .6407776 .12298584 .6617737 .114990238 .66477969 .11299133 .66477969 .11099243 .66477969 .100997928 .66477969 .100997928 .6567688 .100997928 .6407776V.34439088C.100997928 .32637025 .100997928 .31835938 .114990238 .31835938 .12199402 .31835938 .12399292 .32136537 .12799073 .32736207 .13899231 .3433838 .17599488 .39746095 .25698854 .39746095 .30899049 .39746095 .33399964 .35139466 .34199525 .33337403 .35798646 .29632569 .3600006 .25727845 .3600006 .20722962 .3600006 .17222595 .3600006 .11222839 .33599855 .07035828 .31199647 .031463624 .2749939 .0055389406 .22898865 .0055389406 .1559906 .0055389406 .09899902 .058380128 .08198547 .11723328 .084991458 .1162262 .08799744 .115234378 .09899902 .115234378 .13198853 .115234378 .14898682 .14022827 .14898682 .16423035 .14898682 .18823242 .13198853 .21322632 .09899902 .21322632 .084991458 .21322632 .049987794 .20622254 .049987794 .16023255 .049987794 .07434082 .11898804-.022460938 .23098755-.022460938 .34700013-.022460938 .44898988 .073349 .44898988 .20022583Z"/>
<path id="font_3_2" d="M.2939911 .64004519C.2939911 .66400149 .2939911 .6660156 .2709961 .6660156 .20899964 .60227969 .12098694 .60227969 .08898926 .60227969V.57128909C.10899353 .57128909 .16799927 .57128909 .21998596 .5972748V.07902527C.21998596 .042999269 .21699524 .0309906 .1269989 .0309906H.09498596V0C.12998963 .0029907227 .21699524 .0029907227 .25698854 .0029907227 .29699708 .0029907227 .38398744 .0029907227 .4189911 0V.0309906H.3869934C.29699708 .0309906 .2939911 .041992189 .2939911 .07902527V.64004519Z"/>
<path id="font_3_1" d="M.45999146 .31976319C.45999146 .39982606 .45498658 .47988893 .41999818 .5539398 .37399293 .65000918 .2919922 .6660156 .25 .6660156 .18998719 .6660156 .116989139 .64001467 .07598877 .54693606 .04399109 .47789 .038986207 .39982606 .038986207 .31976319 .038986207 .24472046 .042999269 .15464783 .083999637 .07859802 .1269989-.0024719239 .19999695-.022460938 .24899292-.022460938 .30299378-.022460938 .3789978-.0014648438 .4229889 .09359741 .45498658 .16265869 .45999146 .2407074 .45999146 .31976319M.24899292-.00047302247C.20999146-.00047302247 .15098572 .024551392 .1329956 .12062073 .12199402 .18066406 .12199402 .2727356 .12199402 .3317871 .12199402 .39582826 .12199402 .46188355 .12998963 .5159149 .14898682 .63500979 .22399903 .64401248 .24899292 .64401248 .28199769 .64401248 .34799195 .6259918 .36698915 .52693179 .3769989 .47088624 .3769989 .39482118 .3769989 .3317871 .3769989 .25672914 .3769989 .18867493 .3659973 .12461853 .35099793 .029556275 .2939911-.00047302247 .24899292-.00047302247Z"/>
<path id="font_1_1" d="M.7630005 .60565188C.7719879 .6416168 .7739868 .6516113 .8470001 .6516113 .8730011 .6516113 .8809967 .6516113 .8809967 .6716156 .8809967 .6826172 .8699951 .6826172 .86698916 .6826172 .83898928 .6826172 .7669983 .6796112 .7389984 .6796112 .70999148 .6796112 .6389923 .6826172 .6100006 .6826172 .60198977 .6826172 .59098818 .6826172 .59098818 .6626129 .59098818 .6516113 .59999087 .6516113 .61898806 .6516113 .62098696 .6516113 .6399994 .6516113 .6569977 .6496124 .6749878 .6476135 .6839905 .6466217 .6839905 .6336212 .6839905 .6296234 .68299868 .6276245 .6799927 .6146393L.6199951 .37083436H.31498719L.37399293 .60565188C.3829956 .6416168 .38598634 .6516113 .45799256 .6516113 .48399354 .6516113 .49198915 .6516113 .49198915 .6716156 .49198915 .6826172 .48098756 .6826172 .47799684 .6826172 .44999696 .6826172 .37799073 .6796112 .34999085 .6796112 .32099916 .6796112 .25 .6826172 .22099304 .6826172 .21299744 .6826172 .20199585 .6826172 .20199585 .6626129 .20199585 .6516113 .21099854 .6516113 .22999573 .6516113 .23199463 .6516113 .25099183 .6516113 .2679901 .6496124 .28599549 .6476135 .29499818 .6466217 .29499818 .6336212 .29499818 .6296234 .2939911 .6266327 .29100038 .6146393L.15699768 .07797241C.14698792 .038986207 .14498902 .0309906 .06599426 .0309906 .04798889 .0309906 .038986207 .0309906 .038986207 .010986328 .038986207 0 .050994874 0 .052993776 0 .08099365 0 .1519928 .0029907227 .17999268 .0029907227 .20098877 .0029907227 .22299195 .0019989014 .24398804 .0019989014 .2659912 .0019989014 .28799439 0 .30899049 0 .31698609 0 .32899476 0 .32899476 .019989014 .32899476 .0309906 .31999208 .0309906 .30099488 .0309906 .2639923 .0309906 .23599243 .0309906 .23599243 .048980714 .23599243 .054977418 .23799134 .0599823 .23899842 .065979007L.30699159 .33984376H.6119995C.56999209 .17391968 .5469971 .07896423 .54299929 .0639801 .5329895 .03199768 .5139923 .0309906 .45199586 .0309906 .43699647 .0309906 .42799378 .0309906 .42799378 .010986328 .42799378 0 .43998719 0 .44198609 0 .46998597 0 .54100039 .0029907227 .56900027 .0029907227 .58999636 .0029907227 .6119995 .0019989014 .6329956 .0019989014 .6549988 .0019989014 .6769867 0 .69799807 0 .70599368 0 .71798709 0 .71798709 .019989014 .71798709 .0309906 .70899966 .0309906 .6899872 .0309906 .6529999 .0309906 .625 .0309906 .625 .048980714 .625 .054977418 .6269989 .0599823 .6279907 .065979007L.7630005 .60565188Z"/>
<path id="font_1_2" d="M.54100039 .6096039C.548996 .64260867 .5509949 .6516113 .60598757 .6516113 .621994 .6516113 .6329956 .6516113 .6329956 .6706085 .6329956 .6796112 .6269989 .6826172 .61898806 .6826172 .59399417 .6826172 .5329895 .6796112 .5079956 .6796112 .47499085 .6796112 .3939972 .6826172 .36099244 .6826172 .35198976 .6826172 .33999635 .6826172 .33999635 .6626129 .33999635 .6516113 .34799195 .6516113 .37399293 .6516113 .39698792 .6516113 .40699769 .6516113 .43199159 .6496124 .45599366 .64660647 .46299745 .64360049 .46299745 .62960818 .46299745 .62361147 .46099855 .61660769 .45899964 .60861209L.34399415 .1496582C.31999208 .052642824 .2519989-.00047302247 .19999695-.00047302247 .17399597-.00047302247 .12098694 .009552002 .10499573 .061660768 .10798645 .060653688 .114990238 .060653688 .116989139 .060653688 .1559906 .060653688 .18199158 .09465027 .18199158 .12464905 .18199158 .15666199 .15499878 .1666565 .13798523 .1666565 .11999512 .1666565 .070999149 .15466309 .070999149 .08665466 .070999149 .02458191 .12399292-.022460938 .20298767-.022460938 .29499818-.022460938 .39898683 .043624879 .42399598 .14265442L.54100039 .6096039Z"/>
<path id="font_1_3" d="M.5089874 .40376283C.5079956 .40675355 .5039978 .41474916 .5039978 .41775514 .5039978 .41874696 .5219879 .43273927 .5329895 .44073487L.70799258 .5756531C.8019867 .64460757 .84098818 .64860537 .87098696 .6516113 .8789978 .65260317 .8889923 .6536102 .8889923 .6716156 .8889923 .6756134 .8860016 .6826172 .8779907 .6826172 .85598757 .6826172 .83099368 .6796112 .8069916 .6796112 .7709961 .6796112 .7319946 .6826172 .69599917 .6826172 .68899539 .6826172 .6769867 .6826172 .6769867 .6626129 .6769867 .65560916 .6819916 .65260317 .68899539 .6516113 .71099856 .6496124 .7200012 .64460757 .7200012 .63061526 .7200012 .6126251 .6899872 .5896454 .6839905 .5846405L.2939911 .28483583 .37399293 .6056366C.3829956 .6416168 .3849945 .6516113 .45799256 .6516113 .48298646 .6516113 .49198915 .6516113 .49198915 .6716156 .49198915 .680603 .48399354 .6826172 .47799684 .6826172 .44999696 .6826172 .37799073 .6796112 .34999085 .6796112 .32099916 .6796112 .25 .6826172 .22099304 .6826172 .21398926 .6826172 .20098877 .6826172 .20098877 .66360476 .20098877 .6516113 .20999146 .6516113 .22999573 .6516113 .24299622 .6516113 .26098634 .65060427 .272995 .6496124 .2889862 .6476135 .29499818 .64460757 .29499818 .6336212 .29499818 .6296234 .2939911 .62661746 .29100038 .614624L.15699768 .07795715C.14698792 .038986207 .14498902 .0309906 .06599426 .0309906 .04899597 .0309906 .037994386 .0309906 .037994386 .011993408 .037994386 0 .049987794 0 .052993776 0 .08099365 0 .1519928 .0029907227 .17999268 .0029907227 .20098877 .0029907227 .22299195 .0019989014 .24398804 .0019989014 .2659912 .0019989014 .28799439 0 .30899049 0 .31599427 0 .32899476 0 .32899476 .019989014 .32899476 .0309906 .31999208 .0309906 .30099488 .0309906 .2639923 .0309906 .23599243 .0309906 .23599243 .048980714 .23599243 .05596924 .24198914 .07795715 .24499512 .09295654 .25898744 .14492798 .27198792 .19789124 .2849884 .24986267L.43399049 .3657837 .5499878 .096954349C.56199648 .06996155 .56199648 .06796265 .56199648 .061965944 .56199648 .03199768 .5189972 .0309906 .5099945 .0309906 .49899293 .0309906 .48799134 .0309906 .48799134 .010986328 .48799134 0 .5 0 .5019989 0 .5419922 0 .58399966 .0029907227 .6239929 .0029907227 .6459961 .0029907227 .69999697 0 .7220001 0 .72698977 0 .73999026 0 .73999026 .019989014 .73999026 .0309906 .72898867 .0309906 .7200012 .0309906 .67900088 .03199768 .66600039 .040985109 .651001 .07595825L.5089874 .40376283Z"/>
</defs>
<path transform="matrix(1.00002,0,0,-1.00002,94.107639,103.68082)" stroke-width=".3985" stroke-linecap="butt" stroke-miterlimit="10" stroke-linejoin="miter" fill="none" stroke="#00aeef" d="M-85.04128-85.04128H85.04128M-85.04128-76.53716H85.04128M-85.04128-68.03302H85.04128M-85.04128-59.52888H85.04128M-85.04128-51.02477H85.04128M-85.04128-42.52063H85.04128M-85.04128-34.0165H85.04128M-85.04128-25.51237H85.04128M-85.04128-17.00824H85.04128M-85.04128-8.50412H85.04128M-85.04128 0H85.04128M-85.04128 8.50412H85.04128M-85.04128 17.00824H85.04128M-85.04128 25.51237H85.04128M-85.04128 34.0165H85.04128M-85.04128 42.52063H85.04128M-85.04128 51.02477H85.04128M-85.04128 59.52888H85.04128M-85.04128 68.03302H85.04128M-85.04128 76.53716H85.04128M-85.04128 85.0383H85.04128M-85.04128-85.04128V85.04128M-76.53716-85.04128V85.04128M-68.03302-85.04128V85.04128M-59.52888-85.04128V85.04128M-51.02477-85.04128V85.04128M-42.52063-85.04128V85.04128M-34.0165-85.04128V85.04128M-25.51237-85.04128V85.04128M-17.00824-85.04128V85.04128M-8.50412-85.04128V85.04128M0-85.04128V85.04128M8.50412-85.04128V85.04128M17.00824-85.04128V85.04128M25.51237-85.04128V85.04128M34.0165-85.04128V85.04128M42.52063-85.04128V85.04128M51.02477-85.04128V85.04128M59.52888-85.04128V85.04128M68.03302-85.04128V85.04128M76.53716-85.04128V85.04128M85.0383-85.04128V85.04128M85.04128 85.04128"/>
<path transform="matrix(1.00002,0,0,-1.00002,94.107639,103.68082)" stroke-width=".79701" stroke-linecap="butt" stroke-miterlimit="10" stroke-linejoin="miter" fill="none" stroke="#000000" d="M-85.04128 0H97.21333"/>
<path transform="matrix(1.00002,0,0,-1.00002,191.3229,103.68082)" d="M1.0361 0C-.25902 .25902-1.55415 .77707-3.1083 1.68365-1.55415 .51805-1.55415-.51805-3.1083-1.68365-1.55415-.77707-.25902-.25902 1.0361 0Z"/>
<path transform="matrix(1.00002,0,0,-1.00002,191.3229,103.68082)" stroke-width=".79701" stroke-linecap="butt" stroke-linejoin="round" fill="none" stroke="#000000" d="M1.0361 0C-.25902 .25902-1.55415 .77707-3.1083 1.68365-1.55415 .51805-1.55415-.51805-3.1083-1.68365-1.55415-.77707-.25902-.25902 1.0361 0Z"/>
<use data-text="x" xlink:href="#font_1_4" transform="matrix(9.962799,0,0,-9.962799,196.47669,105.82586)"/>
<path transform="matrix(1.00002,0,0,-1.00002,94.107639,103.68082)" stroke-width=".79701" stroke-linecap="butt" stroke-miterlimit="10" stroke-linejoin="miter" fill="none" stroke="#000000" d="M0-85.04128V97.21333"/>
<path transform="matrix(0,-1.00002,-1.00002,-0,94.107639,6.465538)" d="M1.0361 0C-.25902 .25902-1.55415 .77707-3.1083 1.68365-1.55415 .51805-1.55415-.51805-3.1083-1.68365-1.55415-.77707-.25902-.25902 1.0361 0Z"/>
<path transform="matrix(0,-1.00002,-1.00002,-0,94.107639,6.465538)" stroke-width=".79701" stroke-linecap="butt" stroke-linejoin="round" fill="none" stroke="#000000" d="M1.0361 0C-.25902 .25902-1.55415 .77707-3.1083 1.68365-1.55415 .51805-1.55415-.51805-3.1083-1.68365-1.55415-.77707-.25902-.25902 1.0361 0Z"/>
<use data-text="y" xlink:href="#font_1_5" transform="matrix(9.962799,0,0,-9.962799,87.1385,6.2068636)"/>
<path transform="matrix(1.00002,0,0,-1.00002,94.107639,103.68082)" stroke-width="1.19553" stroke-linecap="butt" stroke-miterlimit="10" stroke-linejoin="miter" fill="none" stroke="#00aeef" d="M-42.52063-85.04128V85.04128"/>
<path transform="matrix(1.00002,0,0,-1.00002,94.107639,103.68082)" stroke-width="1.19553" stroke-linecap="butt" stroke-miterlimit="10" stroke-linejoin="miter" fill="none" stroke="#00aeef" d="M-85.04128-42.52063H85.04128"/>
<path transform="matrix(1.00002,0,0,-1.00002,94.107639,103.68082)" stroke-width=".3985" stroke-linecap="butt" stroke-miterlimit="10" stroke-linejoin="miter" fill="none" stroke="#000000" d="M-42.52063 1.27554V-1.27568"/>
<path transform="matrix(1.00002,0,0,-1.00002,94.107639,103.68082)" d="M-49.88202-12.71071H-35.15924V-3.4674798H-49.88202Z" fill="#ffffff"/>
<use data-text="&#x2212;" xlink:href="#font_2_1" transform="matrix(9.962799,0,0,-9.962799,45.220659,114.56503)"/>
<use data-text="5" xlink:href="#font_3_3" transform="matrix(9.962799,0,0,-9.962799,52.969804,114.56503)"/>
<path transform="matrix(1.00002,0,0,-1.00002,94.107639,103.68082)" stroke-width=".3985" stroke-linecap="butt" stroke-miterlimit="10" stroke-linejoin="miter" fill="none" stroke="#000000" d="M1.27554-42.52063H-1.27568"/>
<path transform="matrix(1.00002,0,0,-1.00002,94.107639,103.68082)" d="M-18.19026-47.14224H-3.4674798V-37.89901H-18.19026Z" fill="#ffffff"/>
<use data-text="&#x2212;" xlink:href="#font_2_1" transform="matrix(9.962799,0,0,-9.962799,76.91329,148.99773)"/>
<use data-text="5" xlink:href="#font_3_3" transform="matrix(9.962799,0,0,-9.962799,84.66244,148.99773)"/>
<path transform="matrix(1.00002,0,0,-1.00002,94.107639,103.68082)" stroke-width="1.19553" stroke-linecap="butt" stroke-miterlimit="10" stroke-linejoin="miter" fill="none" stroke="#00aeef" d="M42.52063-85.04128V85.04128"/>
<path transform="matrix(1.00002,0,0,-1.00002,94.107639,103.68082)" stroke-width="1.19553" stroke-linecap="butt" stroke-miterlimit="10" stroke-linejoin="miter" fill="none" stroke="#00aeef" d="M-85.04128 42.52063H85.04128"/>
<path transform="matrix(1.00002,0,0,-1.00002,94.107639,103.68082)" stroke-width=".3985" stroke-linecap="butt" stroke-miterlimit="10" stroke-linejoin="miter" fill="none" stroke="#000000" d="M42.52063 1.27554V-1.27568"/>
<path transform="matrix(1.00002,0,0,-1.00002,94.107639,103.68082)" d="M39.03366-11.88048H46.0076V-3.4674998H39.03366Z" fill="#ffffff"/>
<use data-text="5" xlink:href="#font_3_3" transform="matrix(9.962799,0,0,-9.962799,134.13843,114.56503)"/>
<path transform="matrix(1.00002,0,0,-1.00002,94.107639,103.68082)" stroke-width=".3985" stroke-linecap="butt" stroke-miterlimit="10" stroke-linejoin="miter" fill="none" stroke="#000000" d="M1.27554 42.52063H-1.27568"/>
<path transform="matrix(1.00002,0,0,-1.00002,94.107639,103.68082)" d="M-10.44142 38.31413H-3.4674798V46.727109H-10.44142Z" fill="#ffffff"/>
<use data-text="5" xlink:href="#font_3_3" transform="matrix(9.962799,0,0,-9.962799,84.662448,64.370029)"/>
<path transform="matrix(1.00002,0,0,-1.00002,94.107639,103.68082)" stroke-width="1.19553" stroke-linecap="butt" stroke-miterlimit="10" stroke-linejoin="miter" fill="none" stroke="#00aeef" d="M-85.04128-85.04128V85.04128"/>
<path transform="matrix(1.00002,0,0,-1.00002,94.107639,103.68082)" stroke-width="1.19553" stroke-linecap="butt" stroke-miterlimit="10" stroke-linejoin="miter" fill="none" stroke="#00aeef" d="M-85.04128-85.04128H85.04128"/>
<path transform="matrix(1.00002,0,0,-1.00002,94.107639,103.68082)" stroke-width=".3985" stroke-linecap="butt" stroke-miterlimit="10" stroke-linejoin="miter" fill="none" stroke="#000000" d="M-85.04128 1.27554V-1.27568"/>
<path transform="matrix(1.00002,0,0,-1.00002,94.107639,103.68082)" d="M-94.89337-12.71071H-75.18917V-3.4674798H-94.89337Z" fill="#ffffff"/>
<use data-text="&#x2212;" xlink:href="#font_2_1" transform="matrix(9.962799,0,0,-9.962799,.2087555,114.56503)"/>
<use data-text="1" xlink:href="#font_3_2" transform="matrix(9.962799,0,0,-9.962799,7.957901,114.56503)"/>
<use data-text="0" xlink:href="#font_3_1" transform="matrix(9.962799,0,0,-9.962799,12.939285,114.56503)"/>
<path transform="matrix(1.00002,0,0,-1.00002,94.107639,103.68082)" stroke-width=".3985" stroke-linecap="butt" stroke-miterlimit="10" stroke-linejoin="miter" fill="none" stroke="#000000" d="M1.27554-85.04128H-1.27568"/>
<path transform="matrix(1.00002,0,0,-1.00002,94.107639,103.68082)" d="M-23.17168-89.66289H-3.4674798V-80.419658H-23.17168Z" fill="#ffffff"/>
<use data-text="&#x2212;" xlink:href="#font_2_1" transform="matrix(9.962799,0,0,-9.962799,71.93219,191.51859)"/>
<use data-text="1" xlink:href="#font_3_2" transform="matrix(9.962799,0,0,-9.962799,79.681339,191.51859)"/>
<use data-text="0" xlink:href="#font_3_1" transform="matrix(9.962799,0,0,-9.962799,84.66272,191.51859)"/>
<path transform="matrix(1.00002,0,0,-1.00002,94.107639,103.68082)" stroke-width="1.19553" stroke-linecap="butt" stroke-miterlimit="10" stroke-linejoin="miter" fill="none" stroke="#00aeef" d="M85.04128-85.04128V85.04128"/>
<path transform="matrix(1.00002,0,0,-1.00002,94.107639,103.68082)" stroke-width="1.19553" stroke-linecap="butt" stroke-miterlimit="10" stroke-linejoin="miter" fill="none" stroke="#00aeef" d="M-85.04128 85.04128H85.04128"/>
<path transform="matrix(1.00002,0,0,-1.00002,94.107639,103.68082)" stroke-width=".3985" stroke-linecap="butt" stroke-miterlimit="10" stroke-linejoin="miter" fill="none" stroke="#000000" d="M85.04128 1.27554V-1.27568"/>
<path transform="matrix(1.00002,0,0,-1.00002,94.107639,103.68082)" d="M79.0636-11.88048H91.018939V-3.4674998H79.0636Z" fill="#ffffff"/>
<use data-text="1" xlink:href="#font_3_2" transform="matrix(9.962799,0,0,-9.962799,174.16924,114.56503)"/>
<use data-text="0" xlink:href="#font_3_1" transform="matrix(9.962799,0,0,-9.962799,179.15062,114.56503)"/>
<path transform="matrix(1.00002,0,0,-1.00002,94.107639,103.68082)" stroke-width=".3985" stroke-linecap="butt" stroke-miterlimit="10" stroke-linejoin="miter" fill="none" stroke="#000000" d="M1.27554 85.04128H-1.27568"/>
<path transform="matrix(1.00002,0,0,-1.00002,94.107639,103.68082)" d="M-15.42284 80.83478H-3.4674998V89.24776H-15.42284Z" fill="#ffffff"/>
<use data-text="1" xlink:href="#font_3_2" transform="matrix(9.962799,0,0,-9.962799,79.68034,21.848176)"/>
<use data-text="0" xlink:href="#font_3_1" transform="matrix(9.962799,0,0,-9.962799,84.66173,21.848176)"/>
<path transform="matrix(1.00002,0,0,-1.00002,94.107639,103.68082)" stroke-width="1.19553" stroke-linecap="butt" stroke-miterlimit="10" stroke-linejoin="miter" fill="none" stroke="#0000cc" d="M-76.53885 25.51294-25.51294-42.52156"/>
<path transform="matrix(1.00002,0,0,-1.00002,94.107639,103.68082)" d="M-74.41283 25.51294C-74.41283 26.68713-75.36467 27.63896-76.53885 27.63896-77.71304 27.63896-78.66489 26.68713-78.66489 25.51294-78.66489 24.33876-77.71304 23.38692-76.53885 23.38692-75.36467 23.38692-74.41283 24.33876-74.41283 25.51294ZM-76.53885 25.51294" fill="#0000cc"/>
<path transform="matrix(1.00002,0,0,-1.00002,94.107639,103.68082)" stroke-width=".3985" stroke-linecap="butt" stroke-miterlimit="10" stroke-linejoin="miter" fill="none" stroke="#0000cc" d="M-74.41283 25.51294C-74.41283 26.68713-75.36467 27.63896-76.53885 27.63896-77.71304 27.63896-78.66489 26.68713-78.66489 25.51294-78.66489 24.33876-77.71304 23.38692-76.53885 23.38692-75.36467 23.38692-74.41283 24.33876-74.41283 25.51294ZM-76.53885 25.51294"/>
<path transform="matrix(1.00002,0,0,-1.00002,94.107639,103.68082)" d="M-80.08807 29.6973H-69.00453V38.49772H-80.08807Z" fill="#ffffff"/>
<use data-text="H" xlink:href="#font_1_1" transform="matrix(9.962799,0,0,-9.962799,15.014053,72.986209)"/>
<path transform="matrix(1.00002,0,0,-1.00002,94.107639,103.68082)" d="M-74.41283-42.52156C-74.41283-41.34738-75.36467-40.39554-76.53885-40.39554-77.71304-40.39554-78.66489-41.34738-78.66489-42.52156-78.66489-43.69576-77.71304-44.6476-76.53885-44.6476-75.36467-44.6476-74.41283-43.69576-74.41283-42.52156ZM-76.53885-42.52156" fill="#c64a86"/>
<path transform="matrix(1.00002,0,0,-1.00002,94.107639,103.68082)" stroke-width=".3985" stroke-linecap="butt" stroke-miterlimit="10" stroke-linejoin="miter" fill="none" stroke="#c64a86" d="M-74.41283-42.52156C-74.41283-41.34738-75.36467-40.39554-76.53885-40.39554-77.71304-40.39554-78.66489-41.34738-78.66489-42.52156-78.66489-43.69576-77.71304-44.6476-76.53885-44.6476-75.36467-44.6476-74.41283-43.69576-74.41283-42.52156ZM-76.53885-42.52156"/>
<path transform="matrix(1.00002,0,0,-1.00002,94.107639,103.68082)" d="M-74.34705-53.5138H-65.8718V-44.713384H-74.34705Z" fill="#ffffff"/>
<use data-text="J" xlink:href="#font_1_2" transform="matrix(9.962799,0,0,-9.962799,20.755173,156.19988)"/>
<path transform="matrix(1.00002,0,0,-1.00002,94.107639,103.68082)" d="M-23.38692-42.52156C-23.38692-41.34738-24.33876-40.39554-25.51294-40.39554-26.68713-40.39554-27.63896-41.34738-27.63896-42.52156-27.63896-43.69576-26.68713-44.6476-25.51294-44.6476-24.33876-44.6476-23.38692-43.69576-23.38692-42.52156ZM-25.51294-42.52156" fill="#0000cc"/>
<path transform="matrix(1.00002,0,0,-1.00002,94.107639,103.68082)" stroke-width=".3985" stroke-linecap="butt" stroke-miterlimit="10" stroke-linejoin="miter" fill="none" stroke="#0000cc" d="M-23.38692-42.52156C-23.38692-41.34738-24.33876-40.39554-25.51294-40.39554-26.68713-40.39554-27.63896-41.34738-27.63896-42.52156-27.63896-43.69576-26.68713-44.6476-25.51294-44.6476-24.33876-44.6476-23.38692-43.69576-23.38692-42.52156ZM-25.51294-42.52156"/>
<path transform="matrix(1.00002,0,0,-1.00002,94.107639,103.68082)" d="M-23.32114-55.50635H-12.15456V-46.705934H-23.32114Z" fill="#ffffff"/>
<use data-text="K" xlink:href="#font_1_3" transform="matrix(9.962799,0,0,-9.962799,71.78219,158.19191)"/>
</svg>
