<svg xmlns="http://www.w3.org/2000/svg" xmlns:xlink="http://www.w3.org/1999/xlink" version="1.1" width="102" height="39" viewBox="0 0 102 39">
<defs>
<path id="font_1_1" d="M.30299378 .3157959H.47299195C.61499026 .3157959 .7539978 .41973878 .7539978 .53167727 .7539978 .6086273 .6879883 .6826172 .5569916 .6826172H.23298645C.21398926 .6826172 .20298767 .6826172 .20298767 .66360476 .20298767 .6516113 .21199036 .6516113 .23199463 .6516113 .24499512 .6516113 .2630005 .65060427 .2749939 .6496124 .29100038 .6476135 .29699708 .64460757 .29699708 .6336212 .29699708 .6296234 .29599 .62661746 .29299928 .614624L.15899658 .07795715C.14898682 .038986207 .14698792 .0309906 .067993167 .0309906 .050994874 .0309906 .039993287 .0309906 .039993287 .011993408 .039993287 0 .051986696 0 .054992677 0 .08299255 0 .1539917 .0029907227 .18199158 .0029907227 .20298767 .0029907227 .22499085 .0019989014 .24598694 .0019989014 .2679901 .0019989014 .2899933 0 .31098939 0 .31799317 0 .33099366 0 .33099366 .019989014 .33099366 .0309906 .32199098 .0309906 .30299378 .0309906 .2659912 .0309906 .23799134 .0309906 .23799134 .048980714 .23799134 .054977418 .23999024 .05996704 .24099732 .065963748L.30299378 .3157959M.375 .6136322C.38398744 .64860537 .38598634 .6516113 .42900086 .6516113H.5249939C.60798647 .6516113 .6609955 .62461856 .6609955 .55566409 .6609955 .5166931 .6409912 .43074037 .60198977 .39476014 .5519867 .34977723 .49198915 .34179688 .44799806 .34179688H.30699159L.375 .6136322Z"/>
<path id="font_1_2" d="M.43798829 .0055236818C.59298709 .0644989 .73999026 .24256897 .73999026 .43579103 .73999026 .5969696 .6339874 .7050781 .4850006 .7050781 .2689972 .7050781 .04899597 .47784425 .04899597 .24456787 .04899597 .07847595 .16099549-.022460938 .30499269-.022460938 .32998658-.022460938 .3639984-.018463135 .40299989-.007461548 .39898683-.06939697 .39898683-.071380618 .39898683-.084365848 .39898683-.11634827 .39898683-.19433594 .48199464-.19433594 .6009979-.19433594 .6489868-.011474609 .6489868-.00047302247 .6489868 .0065307619 .6419983 .009521484 .6380005 .009521484 .6299896 .009521484 .6279907 .0045318605 .6259918-.0014648438 .60198977-.072387699 .5439911-.097335819 .5089874-.097335819 .46299745-.097335819 .44799806-.070388797 .43798829 .0055236818M.24899292 .013519287C.17098999 .044509889 .13699341 .12245178 .13699341 .21252442 .13699341 .2816162 .16299439 .4237671 .23899842 .5319061 .31199647 .63401797 .4059906 .68006899 .47898866 .68006899 .57899478 .68006899 .6519928 .6019745 .6519928 .4678192 .6519928 .3677063 .6009979 .13345337 .43299867 .039505006 .42799378 .07447815 .41799928 .14746094 .34498597 .14746094 .2919922 .14746094 .24299622 .097473148 .24299622 .04550171 .24299622 .025512696 .24899292 .014526367 .24899292 .013519287M.31098939 .002532959C.29699708 .002532959 .2649994 .002532959 .2649994 .04550171 .2649994 .08547974 .30299378 .12545777 .34498597 .12545777 .3869934 .12545777 .4059906 .10147095 .4059906 .040512086 .4059906 .025512696 .40499879 .024520874 .394989 .020523072 .36898805 .009521484 .33898927 .002532959 .31098939 .002532959Z"/>
</defs>
<path transform="matrix(1.00005,0,0,-1.00002,1.4133225,37.233427)" stroke-width=".3985" stroke-linecap="butt" stroke-miterlimit="10" stroke-linejoin="miter" fill="none" stroke="#00aeef" d="M0 0H99.21382M0 7.08669H99.21382M0 14.17339H99.21382M0 21.2601H99.21382M0 28.3468H99.21382M0 35.43102H99.21382M0 0V35.43349M7.08669 0V35.43349M14.17339 0V35.43349M21.2601 0V35.43349M28.3468 0V35.43349M35.43349 0V35.43349M42.5202 0V35.43349M49.6069 0V35.43349M56.69362 0V35.43349M63.7803 0V35.43349M70.867 0V35.43349M77.95372 0V35.43349M85.04042 0V35.43349M92.1271 0V35.43349M99.21132 0V35.43349M99.21382 35.43349"/>
<path transform="matrix(1.00005,0,0,-1.00002,1.4133225,37.233427)" stroke-width="1.19553" stroke-linecap="butt" stroke-miterlimit="10" stroke-linejoin="miter" fill="none" stroke="#c64a86" d="M7.08669 7.08669 92.1271 28.3468"/>
<path transform="matrix(1.00005,0,0,-1.00002,1.4133225,37.233427)" d="M8.14964 7.08669C8.14964 7.67374 7.67374 8.14964 7.08669 8.14964 6.49963 8.14964 6.02373 7.67374 6.02373 7.08669 6.02373 6.49963 6.49963 6.02373 7.08669 6.02373 7.67374 6.02373 8.14964 6.49963 8.14964 7.08669ZM7.08669 7.08669" fill="#c64a86"/>
<path transform="matrix(1.00005,0,0,-1.00002,1.4133225,37.233427)" stroke-width=".3985" stroke-linecap="butt" stroke-miterlimit="10" stroke-linejoin="miter" fill="none" stroke="#c64a86" d="M8.14964 7.08669C8.14964 7.67374 7.67374 8.14964 7.08669 8.14964 6.49963 8.14964 6.02373 7.67374 6.02373 7.08669 6.02373 6.49963 6.49963 6.02373 7.08669 6.02373 7.67374 6.02373 8.14964 6.49963 8.14964 7.08669ZM7.08669 7.08669"/>
<path transform="matrix(1.00005,0,0,-1.00002,1.4133225,37.233427)" d="M2.20044 9.27849H11.972929V18.07891H2.20044Z" fill="#ffffff"/>
<use data-text="P" xlink:href="#font_1_1" transform="matrix(9.963098,0,0,-9.962799,4.6104815,26.95822)" fill="#c64a86"/>
<path transform="matrix(1.00005,0,0,-1.00002,1.4133225,37.233427)" d="M93.19006 28.3468C93.19006 28.93385 92.71417 29.40976 92.1271 29.40976 91.54005 29.40976 91.06416 28.93385 91.06416 28.3468 91.06416 27.75975 91.54005 27.28384 92.1271 27.28384 92.71417 27.28384 93.19006 27.75975 93.19006 28.3468ZM92.1271 28.3468" fill="#c64a86"/>
<path transform="matrix(1.00005,0,0,-1.00002,1.4133225,37.233427)" stroke-width=".3985" stroke-linecap="butt" stroke-miterlimit="10" stroke-linejoin="miter" fill="none" stroke="#c64a86" d="M93.19006 28.3468C93.19006 28.93385 92.71417 29.40976 92.1271 29.40976 91.54005 29.40976 91.06416 28.93385 91.06416 28.3468 91.06416 27.75975 91.54005 27.28384 92.1271 27.28384 92.71417 27.28384 93.19006 27.75975 93.19006 28.3468ZM92.1271 28.3468"/>
<path transform="matrix(1.00005,0,0,-1.00002,1.4133225,37.233427)" d="M87.19278 15.41739H97.06145V26.154999H87.19278Z" fill="#ffffff"/>
<use data-text="Q" xlink:href="#font_1_2" transform="matrix(9.963098,0,0,-9.962799,89.60673,18.882058)" fill="#c64a86"/>
</svg>
