<svg xmlns="http://www.w3.org/2000/svg" xmlns:xlink="http://www.w3.org/1999/xlink" version="1.1" width="231" height="217" viewBox="0 0 231 217">
<defs>
<path id="font_1_2" d="M.644989 .69506838C.644989 .69807437 .6429901 .7050781 .6339874 .7050781 .6289978 .7050781 .6279907 .70407107 .6159973 .6900635L.56799319 .6330414C.5419922 .68006899 .48999024 .7050781 .4249878 .7050781 .2979889 .7050781 .17799378 .58999636 .17799378 .4689026 .17799378 .38783265 .23098755 .34179688 .28199769 .32678224L.3889923 .2987671C.42599488 .2897644 .48098756 .27474977 .48098756 .19267273 .48098756 .1026001 .39898683 .008529663 .30099488 .008529663 .23699951 .008529663 .12599182 .030548096 .12599182 .15464783 .12599182 .17866516 .1309967 .2026825 .13198853 .20869446 .1329956 .21269226 .13398743 .21369934 .13398743 .21569824 .13398743 .22570801 .1269989 .22669983 .12199402 .22669983 .116989139 .22669983 .114990238 .22570801 .11199951 .22270203 .10798645 .21870423 .051986696-.009475708 .051986696-.012466431 .051986696-.018463135 .056991579-.022460938 .06298828-.022460938 .067993167-.022460938 .068984989-.021469117 .08099365-.007461548L.12998963 .049560548C.17298889-.008468628 .24099732-.022460938 .29899598-.022460938 .43499757-.022460938 .5529938 .11061096 .5529938 .2347107 .5529938 .30377198 .5189972 .33779908 .5039978 .35180665 .48098756 .37483216 .46598817 .37882997 .3769989 .40185548 .35499574 .40785218 .31900025 .41786195 .30999757 .41986085 .2829895 .42886354 .24899292 .457901 .24899292 .51094058 .24899292 .59199526 .32899476 .677063 .42399598 .677063 .5069885 .677063 .56799319 .6340332 .56799319 .52194216 .56799319 .48991395 .56399539 .47190858 .56399539 .4658966 .56399539 .4649048 .56399539 .45588685 .57598879 .45588685 .58599856 .45588685 .58699038 .45889283 .59098818 .47590638L.644989 .69506838Z"/>
<path id="font_1_1" d="M.375 .6136017C.3809967 .63760378 .38398744 .6476135 .40299989 .65060427 .4119873 .6516113 .44400025 .6516113 .46398927 .6516113 .5349884 .6516113 .6459961 .6516113 .6459961 .5525818 .6459961 .51856997 .6299896 .44955445 .59098818 .41055299 .5649872 .38453675 .5119934 .35253907 .42199708 .35253907H.30999757L.375 .6136017M.5189972 .33953858C.6199951 .3615265 .7389984 .43154908 .7389984 .5325775 .7389984 .61860659 .6489868 .6826172 .5179901 .6826172H.23298645C.21299744 .6826172 .20399475 .6826172 .20399475 .6626129 .20399475 .6516113 .21299744 .6516113 .23199463 .6516113 .23399353 .6516113 .25299073 .6516113 .269989 .6496124 .28799439 .6476135 .29699708 .64660647 .29699708 .63360598 .29699708 .62960818 .29599 .6266022 .29299928 .6145935L.15899658 .07752991C.14898682 .038528444 .14698792 .030532837 .067993167 .030532837 .049987794 .030532837 .040985109 .030532837 .040985109 .010528564 .040985109-.00047302247 .052993776-.00047302247 .054992677-.00047302247 .08299255-.00047302247 .15299988 .002532959 .18099976 .002532959 .20899964 .002532959 .27999879-.00047302247 .30799867-.00047302247 .31599427-.00047302247 .32798768-.00047302247 .32798768 .01953125 .32798768 .030532837 .31900025 .030532837 .2999878 .030532837 .2630005 .030532837 .23498535 .030532837 .23498535 .048538209 .23498535 .054534913 .23699951 .059524537 .23799134 .0655365L.3039856 .3305359H.4229889C.5139923 .3305359 .5319977 .27453614 .5319977 .23953247 .5319977 .22453308 .5239868 .19352722 .5179901 .17053223 .5109863 .14253235 .5019989 .105529788 .5019989 .08552551 .5019989-.022460938 .621994-.022460938 .6349945-.022460938 .7200012-.022460938 .7549896 .07853699 .7549896 .0925293 .7549896 .104537967 .74398806 .104537967 .7429962 .104537967 .73399356 .104537967 .7319946 .09753418 .7299957 .090530399 .7049866 .016525269 .6619873-.00047302247 .6389923-.00047302247 .60598757-.00047302247 .598999 .021530152 .598999 .060531618 .598999 .091537479 .6049957 .14253235 .60899356 .17453003 .61099246 .1885376 .61299136 .20753479 .61299136 .2215271 .61299136 .2985382 .54599 .3295288 .5189972 .33953858Z"/>
</defs>
<path transform="matrix(1.00003,0,0,-1.00003,11.896027,211.689)" stroke-width=".3985" stroke-linecap="butt" stroke-miterlimit="10" stroke-linejoin="miter" fill="none" stroke="#00aeef" d="M0 0H198.4311M0 9.92155H198.4311M0 19.84311H198.4311M0 29.76466H198.4311M0 39.68622H198.4311M0 49.60777H198.4311M0 59.52933H198.4311M0 69.45088H198.4311M0 79.37244H198.4311M0 89.29399H198.4311M0 99.21555H198.4311M0 109.13712H198.4311M0 119.05867H198.4311M0 128.98023H198.4311M0 138.90178H198.4311M0 148.82334H198.4311M0 158.74489H198.4311M0 168.66645H198.4311M0 178.588H198.4311M0 188.50955H198.4311M0 198.42763H198.4311M0 0V198.4311M9.92155 0V198.4311M19.84311 0V198.4311M29.76466 0V198.4311M39.68622 0V198.4311M49.60777 0V198.4311M59.52933 0V198.4311M69.45088 0V198.4311M79.37244 0V198.4311M89.29399 0V198.4311M99.21555 0V198.4311M109.13712 0V198.4311M119.05867 0V198.4311M128.98023 0V198.4311M138.90178 0V198.4311M148.82334 0V198.4311M158.74489 0V198.4311M168.66645 0V198.4311M178.588 0V198.4311M188.50955 0V198.4311M198.42763 0V198.4311M198.4311 198.4311"/>
<path transform="matrix(1.00003,0,0,-1.00003,11.896027,211.689)" stroke-width=".79701" stroke-linecap="butt" stroke-miterlimit="10" stroke-linejoin="miter" fill="none" stroke="#000000" d="M0 0H205.92584"/>
<path transform="matrix(1.00003,0,0,-1.00003,217.82805,211.689)" d="M1.0361 0C-.25902 .25902-1.55415 .77707-3.1083 1.68365-1.55415 .51805-1.55415-.51805-3.1083-1.68365-1.55415-.77707-.25902-.25902 1.0361 0Z"/>
<path transform="matrix(1.00003,0,0,-1.00003,217.82805,211.689)" stroke-width=".79701" stroke-linecap="butt" stroke-linejoin="round" fill="none" stroke="#000000" d="M1.0361 0C-.25902 .25902-1.55415 .77707-3.1083 1.68365-1.55415 .51805-1.55415-.51805-3.1083-1.68365-1.55415-.77707-.25902-.25902 1.0361 0Z"/>
<use data-text="S" xlink:href="#font_1_2" transform="matrix(9.962899,0,0,-9.962899,222.98238,215.0931)"/>
<path transform="matrix(1.00003,0,0,-1.00003,11.896027,211.689)" stroke-width=".79701" stroke-linecap="butt" stroke-miterlimit="10" stroke-linejoin="miter" fill="none" stroke="#000000" d="M0 0V205.92584"/>
<path transform="matrix(0,-1.00003,-1.00003,-0,11.896027,5.7569735)" d="M1.0361 0C-.25902 .25902-1.55415 .77707-3.1083 1.68365-1.55415 .51805-1.55415-.51805-3.1083-1.68365-1.55415-.77707-.25902-.25902 1.0361 0Z"/>
<path transform="matrix(0,-1.00003,-1.00003,-0,11.896027,5.7569735)" stroke-width=".79701" stroke-linecap="butt" stroke-linejoin="round" fill="none" stroke="#000000" d="M1.0361 0C-.25902 .25902-1.55415 .77707-3.1083 1.68365-1.55415 .51805-1.55415-.51805-3.1083-1.68365-1.55415-.77707-.25902-.25902 1.0361 0Z"/>
<use data-text="R" xlink:href="#font_1_1" transform="matrix(9.962899,0,0,-9.962899,.5346832,7.7258608)"/>
<path transform="matrix(1.00003,0,0,-1.00003,11.896027,211.689)" stroke-width="1.19553" stroke-linecap="butt" stroke-miterlimit="10" stroke-linejoin="miter" fill="none" stroke="#00aeef" d="M49.60777 0V198.4311"/>
<path transform="matrix(1.00003,0,0,-1.00003,11.896027,211.689)" stroke-width="1.19553" stroke-linecap="butt" stroke-miterlimit="10" stroke-linejoin="miter" fill="none" stroke="#00aeef" d="M0 49.60777H198.4311"/>
<path transform="matrix(1.00003,0,0,-1.00003,11.896027,211.689)" stroke-width="1.19553" stroke-linecap="butt" stroke-miterlimit="10" stroke-linejoin="miter" fill="none" stroke="#00aeef" d="M99.21555 0V198.4311"/>
<path transform="matrix(1.00003,0,0,-1.00003,11.896027,211.689)" stroke-width="1.19553" stroke-linecap="butt" stroke-miterlimit="10" stroke-linejoin="miter" fill="none" stroke="#00aeef" d="M0 99.21555H198.4311"/>
<path transform="matrix(1.00003,0,0,-1.00003,11.896027,211.689)" stroke-width="1.19553" stroke-linecap="butt" stroke-miterlimit="10" stroke-linejoin="miter" fill="none" stroke="#00aeef" d="M148.82334 0V198.4311"/>
<path transform="matrix(1.00003,0,0,-1.00003,11.896027,211.689)" stroke-width="1.19553" stroke-linecap="butt" stroke-miterlimit="10" stroke-linejoin="miter" fill="none" stroke="#00aeef" d="M0 148.82334H198.4311"/>
<path transform="matrix(1.00003,0,0,-1.00003,11.896027,211.689)" stroke-width="1.19553" stroke-linecap="butt" stroke-miterlimit="10" stroke-linejoin="miter" fill="none" stroke="#00aeef" d="M198.4311 0V198.4311"/>
<path transform="matrix(1.00003,0,0,-1.00003,11.896027,211.689)" stroke-width="1.19553" stroke-linecap="butt" stroke-miterlimit="10" stroke-linejoin="miter" fill="none" stroke="#00aeef" d="M0 198.4311H198.4311"/>
</svg>
