<svg xmlns="http://www.w3.org/2000/svg" xmlns:xlink="http://www.w3.org/1999/xlink" version="1.1" width="72" height="71" viewBox="0 0 72 71">
<defs>
<path id="font_1_1" d="M.644989 .69506838C.644989 .69807437 .6429901 .7050781 .6339874 .7050781 .6289978 .7050781 .6279907 .70407107 .6159973 .6900635L.56799319 .6330414C.5419922 .68006899 .48999024 .7050781 .4249878 .7050781 .2979889 .7050781 .17799378 .58999636 .17799378 .4689026 .17799378 .38783265 .23098755 .34179688 .28199769 .32678224L.3889923 .2987671C.42599488 .2897644 .48098756 .27474977 .48098756 .19267273 .48098756 .1026001 .39898683 .008529663 .30099488 .008529663 .23699951 .008529663 .12599182 .030548096 .12599182 .15464783 .12599182 .17866516 .1309967 .2026825 .13198853 .20869446 .1329956 .21269226 .13398743 .21369934 .13398743 .21569824 .13398743 .22570801 .1269989 .22669983 .12199402 .22669983 .116989139 .22669983 .114990238 .22570801 .11199951 .22270203 .10798645 .21870423 .051986696-.009475708 .051986696-.012466431 .051986696-.018463135 .056991579-.022460938 .06298828-.022460938 .067993167-.022460938 .068984989-.021469117 .08099365-.007461548L.12998963 .049560548C.17298889-.008468628 .24099732-.022460938 .29899598-.022460938 .43499757-.022460938 .5529938 .11061096 .5529938 .2347107 .5529938 .30377198 .5189972 .33779908 .5039978 .35180665 .48098756 .37483216 .46598817 .37882997 .3769989 .40185548 .35499574 .40785218 .31900025 .41786195 .30999757 .41986085 .2829895 .42886354 .24899292 .457901 .24899292 .51094058 .24899292 .59199526 .32899476 .677063 .42399598 .677063 .5069885 .677063 .56799319 .6340332 .56799319 .52194216 .56799319 .48991395 .56399539 .47190858 .56399539 .4658966 .56399539 .4649048 .56399539 .45588685 .57598879 .45588685 .58599856 .45588685 .58699038 .45889283 .59098818 .47590638L.644989 .69506838Z"/>
<path id="font_1_2" d="M.4269867 .6066284C.43399049 .63461306 .43798829 .64060977 .44999696 .6436157 .45899964 .6456146 .49198915 .6456146 .5130005 .6456146 .6139984 .6456146 .6589966 .6416168 .6589966 .56365969 .6589966 .54867556 .6549988 .50968936 .651001 .4837036 .6499939 .4797058 .647995 .4677124 .647995 .46472169 .647995 .45872499 .651001 .45173646 .6599884 .45173646 .67099 .45173646 .6729889 .45973207 .6749878 .4747162L.70199587 .64860537C.7029877 .65260317 .70399478 .6626129 .70399478 .66560366 .70399478 .6766052 .69400027 .6766052 .6769867 .6766052H.12199402C.09799194 .6766052 .09700012 .6756134 .08999634 .6566162L.02999878 .4807129C.0289917 .478714 .023986817 .46472169 .023986817 .46272279 .023986817 .45672608 .0289917 .45173646 .035995485 .45173646 .04598999 .45173646 .04699707 .45672608 .052993776 .4727173 .10699463 .6276245 .1329956 .6456146 .2809906 .6456146H.31999208C.34799195 .6456146 .34799195 .6416168 .34799195 .6336212 .34799195 .6276245 .34498597 .6156311 .34399415 .6126251L.20999146 .07896423C.20098877 .041992189 .19799805 .0309906 .09098816 .0309906 .054992677 .0309906 .04899597 .0309906 .04899597 .011993408 .04899597 0 .05999756 0 .06599426 0 .09298706 0 .12098694 .0019989014 .147995 .0019989014 .17599488 .0019989014 .20498657 .0029907227 .23298645 .0029907227 .26098634 .0029907227 .2889862 .0019989014 .31599427 .0019989014 .34498597 .0019989014 .375 0 .40299989 0 .41299439 0 .4249878 0 .4249878 .019989014 .4249878 .0309906 .4169922 .0309906 .3909912 .0309906 .3659973 .0309906 .35299684 .0309906 .32699586 .032989503 .2979889 .035995485 .2899933 .038986207 .2899933 .054977418 .2899933 .05596924 .2899933 .06097412 .2939911 .07595825L.4269867 .6066284Z"/>
</defs>
<path transform="matrix(1.00005,0,0,-1.00006,1.4133225,69.285259)" stroke-width=".3985" stroke-linecap="butt" stroke-miterlimit="10" stroke-linejoin="miter" fill="none" stroke="#00aeef" d="M0 0H68.0313M0 11.33855H68.0313M0 22.6771H68.0313M0 34.01564H68.0313M0 45.35419H68.0313M0 56.69275H68.0313M0 68.02731H68.0313M0 0V68.0313M11.33855 0V68.0313M22.6771 0V68.0313M34.01564 0V68.0313M45.35419 0V68.0313M56.69275 0V68.0313M68.02731 0V68.0313M68.0313 68.0313"/>
<path transform="matrix(1.00005,0,0,-1.00006,1.4133225,69.285259)" stroke-width="1.19553" stroke-linecap="butt" stroke-miterlimit="10" stroke-linejoin="miter" fill="none" stroke="#c64a86" d="M11.33855 56.69275 56.69275 11.33855"/>
<path transform="matrix(1.00005,0,0,-1.00006,1.4133225,69.285259)" d="M13.03925 56.69275C13.03925 57.63203 12.27783 58.39345 11.33855 58.39345 10.39926 58.39345 9.63783 57.63203 9.63783 56.69275 9.63783 55.75346 10.39926 54.99203 11.33855 54.99203 12.27783 54.99203 13.03925 55.75346 13.03925 56.69275ZM11.33855 56.69275" fill="#c64a86"/>
<path transform="matrix(1.00005,0,0,-1.00006,1.4133225,69.285259)" stroke-width=".3985" stroke-linecap="butt" stroke-miterlimit="10" stroke-linejoin="miter" fill="none" stroke="#c64a86" d="M13.03925 56.69275C13.03925 57.63203 12.27783 58.39345 11.33855 58.39345 10.39926 58.39345 9.63783 57.63203 9.63783 56.69275 9.63783 55.75346 10.39926 54.99203 11.33855 54.99203 12.27783 54.99203 13.03925 55.75346 13.03925 56.69275ZM11.33855 56.69275"/>
<path transform="matrix(1.00005,0,0,-1.00006,1.4133225,69.285259)" d="M1.46712 59.88083H10.14301V68.68125H1.46712Z" fill="#ffffff"/>
<use data-text="S" xlink:href="#font_1_1" transform="matrix(9.963098,0,0,-9.963197,3.876442,8.404606)" fill="#c64a86"/>
<path transform="matrix(1.00005,0,0,-1.00006,1.4133225,69.285259)" d="M58.39345 11.33855C58.39345 12.27783 57.63203 13.03925 56.69275 13.03925 55.75346 13.03925 54.99203 12.27783 54.99203 11.33855 54.99203 10.39926 55.75346 9.63783 56.69275 9.63783 57.63203 9.63783 58.39345 10.39926 58.39345 11.33855ZM56.69275 11.33855" fill="#c64a86"/>
<path transform="matrix(1.00005,0,0,-1.00006,1.4133225,69.285259)" stroke-width=".3985" stroke-linecap="butt" stroke-miterlimit="10" stroke-linejoin="miter" fill="none" stroke="#c64a86" d="M58.39345 11.33855C58.39345 12.27783 57.63203 13.03925 56.69275 13.03925 55.75346 13.03925 54.99203 12.27783 54.99203 11.33855 54.99203 10.39926 55.75346 9.63783 56.69275 9.63783 57.63203 9.63783 58.39345 10.39926 58.39345 11.33855ZM56.69275 11.33855"/>
<path transform="matrix(1.00005,0,0,-1.00006,1.4133225,69.285259)" d="M60.8771 6.93832H70.07536V15.73874H60.8771Z" fill="#ffffff"/>
<use data-text="T" xlink:href="#font_1_2" transform="matrix(9.963098,0,0,-9.963197,63.289415,61.34978)" fill="#c64a86"/>
</svg>
