<svg xmlns="http://www.w3.org/2000/svg" xmlns:xlink="http://www.w3.org/1999/xlink" version="1.1" width="414" height="253" viewBox="0 0 414 253">
<defs>
<path id="font_1_82" d="M.4189911 0V.0309906H.3869934C.29699708 .0309906 .2939911 .041992189 .2939911 .07902527V.64012148C.2939911 .6640167 .2939911 .6660156 .2709961 .6660156 .20899964 .60227969 .12098694 .60227969 .08898926 .60227969V.57128909C.10899353 .57128909 .16799927 .57128909 .21998596 .5972748V.07902527C.21998596 .042999269 .21699524 .0309906 .1269989 .0309906H.09498596V0C.12998963 .0029907227 .21699524 .0029907227 .25698854 .0029907227 .29699708 .0029907227 .38398744 .0029907227 .4189911 0Z"/>
<path id="font_1_78" d="M.45700074 .32888795C.45700074 .598114 .34199525 .6660156 .25299073 .6660156 .19799805 .6660156 .14898682 .64801028 .10598755 .6031189 .06498718 .5580902 .041992189 .5160217 .041992189 .44091798 .041992189 .3158722 .12998963 .21777344 .24198914 .21777344 .30299378 .21777344 .34399415 .25979615 .36698915 .3178711V.28582765C.36698915 .05178833 .2630005 .0055389406 .20498657 .0055389406 .18798828 .0055389406 .13398743 .007537842 .10699463 .041778566 .15098572 .041778566 .15899658 .07078552 .15899658 .08778381 .15899658 .118774417 .1349945 .13378906 .11299133 .13378906 .09700012 .13378906 .066986087 .12478638 .066986087 .08578491 .066986087 .018615723 .12098694-.022460938 .20599365-.022460938 .33499146-.022460938 .45700074 .11378479 .45700074 .32888795M.36499024 .42089845C.36499024 .33789063 .33099366 .24076844 .24299622 .24076844 .22698975 .2407074 .18099976 .2407074 .1499939 .30371095 .13198853 .34072877 .13198853 .3908081 .13198853 .43988038 .13198853 .49397279 .13198853 .5410614 .15299988 .578125 .17999268 .62805178 .21798706 .64100649 .25299073 .64100649 .29899598 .64100649 .33198548 .60710147 .34899903 .562088 .36099244 .52989199 .36499024 .46688844 .36499024 .42089845Z"/>
<path id="font_1_107" d="M.44898988 .17396546H.42399598C.4189911 .14398194 .4119873 .099990848 .4019928 .084991458 .394989 .07699585 .32899476 .07699585 .30699159 .07699585H.1269989L.23298645 .17996216C.3889923 .31803895 .44898988 .37210084 .44898988 .47216798 .44898988 .5860901 .35899354 .6660156 .23699951 .6660156 .12399292 .6660156 .049987794 .57411196 .049987794 .48516847 .049987794 .4291687 .099990848 .4291687 .102996829 .4291687 .11999512 .4291687 .15499878 .44117738 .15499878 .48217774 .15499878 .5081787 .13699341 .5341797 .101989749 .5341797 .09399414 .5341797 .09199524 .5341797 .08898926 .5331726 .11199951 .59806826 .1659851 .63500979 .22399903 .63500979 .31498719 .63500979 .35798646 .5541382 .35798646 .47216798 .35798646 .39196778 .30799867 .31297303 .25299073 .25097657L.06098938 .036987306C.049987794 .025985718 .049987794 .023986817 .049987794 0H.42099L.44898988 .17396546Z"/>
<path id="font_1_106" d="M.45700074 .17037964C.45700074 .252594 .3939972 .33088685 .2899933 .35191346 .37199403 .37893678 .42999269 .4490509 .42999269 .52809146 .42999269 .6100464 .34199525 .6660156 .24598694 .6660156 .14498902 .6660156 .068984989 .60606387 .068984989 .53009036 .068984989 .49710084 .09098816 .47808839 .11999512 .47808839 .15098572 .47808839 .17098999 .50009158 .17098999 .5290985 .17098999 .57910159 .12399292 .57910159 .10899353 .57910159 .13999939 .62802127 .20599365 .64100649 .24198914 .64100649 .2829895 .64100649 .33799745 .6190338 .33799745 .5290985 .33799745 .51708987 .33599855 .45906068 .30999757 .4149933 .27999879 .36691285 .24598694 .36390687 .22099304 .36291505 .21299744 .36190797 .18899536 .35990907 .18199158 .35990907 .17399597 .35890199 .16699219 .35791017 .16699219 .3479004 .16699219 .33691407 .17399597 .33691407 .19099427 .33691407H.23498535C.31698609 .33691407 .35398866 .2686615 .35398866 .17037964 .35398866 .034469606 .2849884 .0055389406 .24099732 .0055389406 .19799805 .0055389406 .12298584 .022491456 .08799744 .08137512 .12298584 .07637024 .1539917 .09837341 .1539917 .1363678 .1539917 .17237854 .1269989 .19238281 .09799194 .19238281 .07398987 .19238281 .041992189 .17837525 .041992189 .1343689 .041992189 .043441774 .1349945-.022460938 .24398804-.022460938 .3659973-.022460938 .45700074 .06838989 .45700074 .17037964Z"/>
<path id="font_1_121" d="M.45999146 .31976319C.45999146 .39982606 .45498658 .47988893 .41999818 .5539398 .37399293 .65000918 .2919922 .6660156 .25 .6660156 .18998719 .6660156 .116989139 .64001467 .07598877 .54693606 .04399109 .47789 .038986207 .39982606 .038986207 .31976319 .038986207 .24472046 .042999269 .15464783 .083999637 .07859802 .1269989-.0024719239 .19999695-.022460938 .24899292-.022460938 .30299378-.022460938 .3789978-.0014648438 .4229889 .09359741 .45498658 .16265869 .45999146 .2407074 .45999146 .31976319M.3769989 .3317871C.3769989 .25672914 .3769989 .18867493 .3659973 .12461853 .35099793 .029556275 .2939911-.00047302247 .24899292-.00047302247 .20999146-.00047302247 .15098572 .024551392 .1329956 .12062073 .12199402 .18066406 .12199402 .2727356 .12199402 .3317871 .12199402 .39582826 .12199402 .46188355 .12998963 .5159149 .14898682 .63500979 .22399903 .64401248 .24899292 .64401248 .28199769 .64401248 .34799195 .6259918 .36698915 .52693179 .3769989 .47088624 .3769989 .39482118 .3769989 .3317871Z"/>
<path id="font_1_57" d="M.47099305 .16503906V.19602967H.37098695V.6507721C.37098695 .6707611 .37098695 .6767578 .35499574 .6767578 .34599305 .6767578 .34298707 .6767578 .33499146 .6647644L.027999878 .19602967V.16503906H.2939911V.07800293C.2939911 .041992189 .2919922 .0309906 .21798706 .0309906H.19699097V0C.23799134 .0029907227 .2899933 .0029907227 .33198548 .0029907227 .37399293 .0029907227 .4269867 .0029907227 .46798707 0V.0309906H.44699098C.37298585 .0309906 .37098695 .041992189 .37098695 .07800293V.16503906H.47099305M.2999878 .19602967H.055999757L.2999878 .56881716V.19602967Z"/>
<path id="font_1_56" d="M.44898988 .20091248C.44898988 .31991578 .36698915 .41992188 .25898744 .41992188 .21099854 .41992188 .16799927 .4039154 .13198853 .36891175V.5641022C.1519928 .55778506 .18499756 .55078127 .21699524 .55078127 .33999635 .55078127 .4099884 .6418457 .4099884 .65493777 .4099884 .6609802 .40699769 .6660156 .3999939 .6660156 .3999939 .66607668 .39698792 .66607668 .3919983 .66308596 .37199403 .65408328 .32299806 .63378909 .2559967 .63378909 .21598816 .63409426 .16999817 .641098 .12298584 .6621094 .114990238 .6651001 .11099243 .6651001 .11099243 .6651001 .100997928 .66508486 .100997928 .657074 .100997928 .64108279V.3447113C.100997928 .3266449 .100997928 .31861878 .114990238 .31861878 .12199402 .31861878 .12399292 .32164 .12799073 .32765199 .13899231 .34371949 .17599488 .3979187 .25698854 .3979187 .30899049 .3979187 .33399964 .3517456 .34199525 .3336792 .35798646 .2965393 .3600006 .2574005 .3600006 .20721436 .3600006 .17218018 .3600006 .112197879 .33599855 .07032776 .31199647 .031448366 .2749939 .0055389406 .22898865 .0055389406 .1559906 .0055389406 .09899902 .05836487 .08198547 .1171875 .084991458 .11685181 .08799744 .115859989 .09899902 .115859989 .13198853 .115859989 .14898682 .14085388 .14898682 .16485596 .14898682 .18885803 .13198853 .21386719 .09899902 .21386719 .084991458 .21386719 .049987794 .2068634 .049987794 .16085816 .049987794 .07432556 .11898804-.022460938 .23098755-.022460938 .34700013-.022460938 .44898988 .07331848 .44898988 .20019531V.20091248Z"/>
<path id="font_1_101" d="M.45700074 .2036438C.45700074 .33070375 .36799623 .4267578 .25698854 .4267578 .18899536 .4267578 .1519928 .37573243 .13198853 .327713V.35173036C.13198853 .6047821 .2559967 .64100649 .30699159 .64100649 .33099366 .64100649 .37298585 .634964 .394989 .6007538 .37998963 .6007538 .33999635 .6007538 .33999635 .5557556 .33999635 .524765 .3639984 .5097656 .38598634 .5097656 .4019928 .5097656 .43199159 .51875308 .43199159 .5577545 .43199159 .6178589 .3880005 .6660156 .30499269 .6660156 .1769867 .6660156 .041992189 .5367584 .041992189 .31570436 .041992189 .048553468 .1579895-.022460938 .25099183-.022460938 .3619995-.022460938 .45700074 .07156372 .45700074 .2036438M.36698915 .20463562C.36698915 .15661621 .36698915 .10658264 .34999085 .0705719 .31999208 .010528564 .27398683 .0055389406 .25099183 .0055389406 .18798828 .0055389406 .1579895 .06556702 .1519928 .080566409 .13398743 .127594 .13398743 .2076416 .13398743 .22564698 .13398743 .30369569 .1659851 .40374757 .2559967 .40374757 .27198792 .40374757 .31799317 .40374757 .34899903 .34172059 .36698915 .30470277 .36698915 .2536621 .36698915 .20463562Z"/>
<path id="font_1_100" d="M.4850006 .6435547H.24198914C.11999512 .6435547 .117996219 .6566467 .11399841 .67578127H.08898926L.055999757 .46954347H.08099365C.083999637 .48554994 .09298706 .54855349 .10598755 .5605469 .11299133 .5665436 .19099427 .5665436 .20399475 .5665436H.41099549L.29899598 .40853883C.20899964 .2735443 .17599488 .13453675 .17599488 .03253174 .17599488 .022537232 .17599488-.022460938 .22200012-.022460938 .2679901-.022460938 .2679901 .022537232 .2679901 .03253174V.08354187C.2679901 .13853455 .2709961 .19354248 .2789917 .24754334 .2829895 .27053834 .29699708 .35653688 .34098817 .41854859L.47599793 .608551C.4850006 .62054446 .4850006 .62254336 .4850006 .6435547Z"/>
<path id="font_1_51" d="M.45700074 .16764832C.45700074 .20367432 .44599916 .24871826 .4079895 .29074098 .3889923 .31176759 .37298585 .32176209 .30899049 .36180116 .3809967 .39881898 .42999269 .4508667 .42999269 .51690676 .42999269 .6089783 .34098817 .6660156 .25 .6660156 .1499939 .6660156 .068984989 .5919647 .068984989 .49890138 .068984989 .48088075 .070999149 .43585206 .11299133 .38882447 .12399292 .3768158 .16099549 .35179139 .18598938 .33477784 .12799073 .30575563 .041992189 .24971009 .041992189 .15063477 .041992189 .044555665 .14399719-.022460938 .24899292-.022460938 .3619995-.022460938 .45700074 .060577394 .45700074 .16764832M.38598634 .51690676C.38598634 .45986939 .34700013 .41183473 .2869873 .3768158L.16299439 .4568634C.116989139 .4868927 .11299133 .5209198 .11299133 .53793337 .11299133 .5989685 .17799378 .64100649 .24899292 .64100649 .32199098 .64100649 .38598634 .588974 .38598634 .51690676M.40699769 .13162232C.40699769 .05757141 .33198548 .0055389406 .25 .0055389406 .1639862 .0055389406 .09199524 .06758118 .09199524 .15063477 .09199524 .2086792 .12399292 .2727356 .20899964 .31976319L.33198548 .24171448C.3600006 .22268677 .40699769 .19267273 .40699769 .13162232Z"/>
<path id="font_1_108" d="M.71598818 .6516113V.6826172L.59799197 .6796112 .47898866 .6826172V.6516113C.58200076 .6516113 .58200076 .6044922 .58200076 .57748416V.23051453C.58200076 .088531497 .4850006 .008529663 .3899994 .008529663 .34298707 .008529663 .22499085 .03352356 .22499085 .22351074V.6044922C.22499085 .6405792 .22698975 .6516113 .3039856 .6516113H.32798768V.6826172C.29299928 .6796112 .21899414 .6796112 .18099976 .6796112 .14299011 .6796112 .067993167 .6796112 .032989503 .6826172V.6516113H.056991579C.13398743 .6516113 .13598633 .6405792 .13598633 .6044922V.22750855C.13598633 .086517337 .2519989-.022460938 .3880005-.022460938 .5029907-.022460938 .59298709 .07052612 .6100006 .18450928 .61299136 .20451355 .61299136 .21351624 .61299136 .25350953V.5734863C.61299136 .6064911 .61299136 .6516113 .71598818 .6516113Z"/>
<path id="font_1_77" d="M.5349884 0V.0309906C.48298646 .0309906 .45799256 .0309906 .45700074 .061019899V.25221253C.45700074 .3383026 .45700074 .36932374 .42599488 .405365 .4119873 .42237855 .3789978 .4423828 .32099916 .4423828 .24798584 .4423828 .20098877 .39935304 .17298889 .33729554V.4423828L.03199768 .43066407V.3996582C.101989749 .3996582 .10998535 .39266969 .10998535 .34370423V.07595825C.10998535 .0309906 .09899902 .0309906 .03199768 .0309906V0L.14498902 .0029907227 .25698854 0V.0309906C.18998719 .0309906 .1789856 .0309906 .1789856 .07595825V.25978089C.1789856 .36431886 .25 .42037965 .31399537 .42037965 .3769989 .42037965 .3880005 .36631776 .3880005 .30926515V.076034549C.3880005 .0309906 .3769989 .0309906 .30999757 .0309906V0L.4229889 .0029907227 .5349884 0Z"/>
<path id="font_1_50" d="M.4149933 .11933899C.4149933 .12934876 .40699769 .13134766 .4019928 .13134766 .3929901 .13134766 .3909912 .12535095 .3889923 .11734009 .35398866 .014251709 .2639923 .014251709 .2539978 .014251709 .20399475 .014251709 .1639862 .044281007 .14099121 .08131409 .11099243 .12934876 .11099243 .19540406 .11099243 .23144531H.3899994C.4119873 .23144531 .4149933 .23144531 .4149933 .2524414 .4149933 .35131837 .36099244 .4482422 .23599243 .4482422 .11999512 .4482422 .027999878 .34532167 .027999878 .22042847 .027999878 .08631897 .1329956-.0107421879 .24798584-.0107421879 .36999513-.0107421879 .4149933 .10032654 .4149933 .11933899M.34899903 .2524414H.11199951C.117996219 .40126039 .20199585 .426239 .23599243 .426239 .33898927 .426239 .34899903 .2913971 .34899903 .2524414Z"/>
<path id="font_1_75" d="M.8129883 0V.0309906C.7609863 .0309906 .73599246 .0309906 .7350006 .061019899V.25221253C.7350006 .3383026 .7350006 .36932374 .70399478 .405365 .6899872 .42237855 .6569977 .4423828 .598999 .4423828 .5149994 .4423828 .47099305 .38233949 .45399476 .34429933 .43998719 .43138124 .3659973 .4423828 .32099916 .4423828 .24798584 .4423828 .20098877 .39935304 .17298889 .33729554V.4423828L.03199768 .43066407V.3996582C.101989749 .3996582 .10998535 .39266969 .10998535 .34370423V.07595825C.10998535 .0309906 .09899902 .0309906 .03199768 .0309906V0L.14498902 .0029907227 .25698854 0V.0309906C.18998719 .0309906 .1789856 .0309906 .1789856 .07595825V.25978089C.1789856 .36431886 .25 .42037965 .31399537 .42037965 .3769989 .42037965 .3880005 .36631776 .3880005 .30926515V.076034549C.3880005 .0309906 .3769989 .0309906 .30999757 .0309906V0L.4229889 .0029907227 .5349884 0V.0309906C.46798707 .0309906 .45700074 .0309906 .45700074 .076034549V.2602234C.45700074 .36431886 .5279999 .42037965 .59199526 .42037965 .6549988 .42037965 .66600039 .36631776 .66600039 .30926515V.076034549C.66600039 .0309906 .6549988 .0309906 .58799746 .0309906V0L.70098879 .0029907227 .8129883 0Z"/>
<path id="font_1_84" d="M.5209961 .21636963C.5209961 .34336854 .42399598 .4423828 .31199647 .4423828 .23399353 .4423828 .19198609 .39837647 .17199707 .3763733V.4423828L.027999878 .43066407V.3996582C.09899902 .3996582 .10598755 .3936615 .10598755 .34973146V-.117996219C.10598755-.16308594 .09498596-.16308594 .027999878-.16308594V-.1940918L.13999939-.19110108 .25299073-.1940918V-.16308594C.18598938-.16308594 .1749878-.16308594 .1749878-.117996219V.050186159 .059173585C.17999268 .04319763 .22200012-.0107421879 .2979889-.0107421879 .4169922-.0107421879 .5209961 .087127689 .5209961 .21594239V.21636963M.43798829 .21594239C.43798829 .09512329 .36799623 .011245728 .2939911 .011245728 .2539978 .011245728 .21598816 .031219483 .18899536 .07215881 .1749878 .09312439 .1749878 .09411621 .1749878 .114089969V.33674623C.20399475 .38838197 .25299073 .41737367 .3039856 .41737367 .3769989 .41737367 .43798829 .32937623 .43798829 .21636963V.21594239Z"/>
<path id="font_1_72" d="M.25498963 0V.0309906C.18798828 .0309906 .1769867 .0309906 .1769867 .07601929V.69433596L.032989503 .6826172V.6516113C.102996829 .6516113 .11099243 .64460757 .11099243 .5956421V.07595825C.11099243 .0309906 .099990848 .0309906 .032989503 .0309906V0L.14399719 .0029907227 .25498963 0Z"/>
<path id="font_1_81" d="M.47099305 .21424866C.47099305 .34223939 .37098695 .4482422 .25 .4482422 .125 .4482422 .027999878 .3392334 .027999878 .21424866 .027999878 .085250858 .13198853-.0107421879 .24899292-.0107421879 .36999513-.0107421879 .47099305 .087249759 .47099305 .21424866M.3880005 .22224427C.3880005 .18624878 .3880005 .13224793 .3659973 .08824158 .34399415 .04324341 .2999878 .014251709 .25 .014251709 .20698548 .014251709 .16299439 .035247804 .13598633 .08125305 .11099243 .12524414 .11099243 .18624878 .11099243 .22224427 .11099243 .26124574 .11099243 .31523133 .1349945 .35923768 .1619873 .40522767 .20899964 .426239 .24899292 .426239 .29299928 .426239 .33599855 .40423585 .3619995 .36123658 .3880005 .3182373 .3880005 .26023866 .3880005 .22224427Z"/>
<path id="font_1_118" d="M.5079956 .3996582V.43066407C.4850006 .4286499 .45599366 .42765809 .43299867 .42765809L.34599305 .43066407V.3996582C.3769989 .39866639 .3929901 .3816681 .3929901 .35668946 .3929901 .34669496 .3919983 .34469605 .3869934 .33270265L.28599549 .08685303 .1749878 .35568238C.17098999 .36567689 .16899109 .36967469 .16899109 .3736725 .16899109 .3996582 .20599365 .3996582 .22499085 .3996582V.43066407L.115997318 .42765809C.08898926 .42765809 .04899597 .4286499 .018997193 .43066407V.3996582C.066986087 .3996582 .085998538 .3996582 .099990848 .36468507L.25-.000091552738 .22499085-.059066774C.20298767-.11407471 .1749878-.18309021 .11099243-.18309021 .10598755-.18309021 .08299255-.18309021 .06399536-.16503906 .09498596-.16104126 .102996829-.13905335 .102996829-.123046878 .102996829-.0970459 .083999637-.08103943 .06098938-.08103943 .040985109-.08103943 .018997193-.09403992 .018997193-.124053958 .018997193-.16905213 .06098938-.20507813 .11099243-.20507813 .17399597-.20507813 .21499634-.14804077 .23899842-.091049198L.4149933 .33569337C.44099427 .39865113 .49198915 .3996582 .5079956 .3996582Z"/>
<path id="font_1_105" d="M.33198548 .12385559V.18066406H.30699159V.12585449C.30699159 .052108766 .2769928 .014251709 .23999024 .014251709 .17298889 .014251709 .17298889 .10491943 .17298889 .12187195V.3996582H.31599427V.43066407H.17298889V.6142578H.147995C.14698792 .5324249 .116989139 .42565919 .018997193 .42166139V.3996582H.10398865V.12408447C.10398865 .0012512207 .19699097-.0107421879 .23298645-.0107421879 .3039856-.0107421879 .33198548 .060180665 .33198548 .12408447V.12385559Z"/>
<path id="font_1_95" d="M.7319946 .08753967C.7319946 .09353638 .7319946 .104537967 .71899417 .104537967 .70799258 .104537967 .70799258 .09555054 .70700076 .08854675 .70098879 .017532349 .66600039-.00047302247 .6409912-.00047302247 .59199526-.00047302247 .58399966 .05053711 .56999209 .14355469L.5569916 .22355652C.5389862 .28756715 .48999024 .3205719 .43499757 .3395691 .5319977 .36357118 .6100006 .4245758 .6100006 .502594 .6100006 .5986023 .49598695 .6826172 .34899903 .6826172H.034988405V.6516113H.05899048C.13598633 .6516113 .13798523 .64060977 .13798523 .604599V.077545169C.13798523 .04197693 .13598633 .0309906 .05899048 .0309906H.034988405V0C.070999149 .0029907227 .14199829 .0029907227 .18099976 .0029907227 .21998596 .0029907227 .29100038 .0029907227 .32699586 0V.0309906H.30299378C.22599793 .0309906 .22399903 .04197693 .22399903 .077926639V.3305359H.33898927C.35499574 .3305359 .39698792 .3305359 .43199159 .29658509 .46998597 .26063539 .46998597 .22969055 .46998597 .16279602 .46998597 .09788513 .46998597 .05795288 .5109863 .019989014 .5519867-.016464234 .6069946-.022460938 .6369934-.022460938 .71499636-.022460938 .7319946 .059524537 .7319946 .087524417V.08753967M.5069885 .5025635C.5069885 .43354798 .48298646 .35253907 .33499146 .35253907H.22399903V.6116028C.22399903 .6345978 .22399903 .64660647 .24598694 .6496124 .2559967 .6516113 .2849884 .6516113 .30499269 .6516113 .394989 .6516113 .5069885 .6476135 .5069885 .5025635Z"/>
<path id="font_1_28" d="M.48298646 .08912659V.14511109H.45799256V.08912659C.45799256 .03112793 .43299867 .025131226 .42199708 .025131226 .3889923 .025131226 .3849945 .070129398 .3849945 .07511902V.27508546C.3849945 .31707765 .3849945 .3560791 .34899903 .39312745 .30999757 .43223573 .2599945 .4482422 .21199036 .4482422 .12998963 .4482422 .06098938 .40115357 .06098938 .335083 .06098938 .30508424 .08099365 .28808595 .10699463 .28808595 .1349945 .28808595 .15299988 .30807496 .15299988 .33407594 .15299988 .3460846 .147995 .37908937 .101989749 .38008119 .1289978 .41519166 .17799378 .426239 .20999146 .426239 .25898744 .426239 .31599427 .38710023 .31599427 .29808045V.26107789C.2649994 .25808717 .19499207 .25508119 .13198853 .22509766 .056991579 .19110108 .03199768 .13911438 .03199768 .09512329 .03199768 .014251709 .1289978-.0107421879 .19198609-.0107421879 .2579956-.0107421879 .3039856 .029251099 .32299806 .07624817 .32699586 .036132814 .35398866-.005859375 .40098573-.005859375 .42199708-.005859375 .48298646 .008132935 .48298646 .08912659M.31599427 .14013672C.31599427 .04525757 .24398804 .011245728 .19898987 .011245728 .1499939 .011245728 .10899353 .04624939 .10899353 .09625244 .10899353 .15124512 .15098572 .23425293 .31599427 .24024964V.14013672Z"/>
<path id="font_2_108" d="M.69200137 .6536102V.6826172C.66600039 .680603 .6119995 .680603 .58399966 .680603 .5549927 .680603 .5009918 .680603 .47499085 .6826172V.6536102C.56999209 .6536102 .56999209 .6065979 .56999209 .57958987V.22953797C.56999209 .089523319 .47499085 .007507324 .3809967 .007507324 .32099916 .007507324 .21699524 .04751587 .21699524 .22253418V.6065979C.21699524 .64360049 .21998596 .6536102 .2919922 .6536102H.31199647V.6826172C.28799439 .680603 .20599365 .680603 .1769867 .680603 .14698792 .680603 .06498718 .680603 .040985109 .6826172V.6536102H.06098938C.1329956 .6536102 .13598633 .64360049 .13598633 .6065979V.22854615C.13598633 .08352661 .2519989-.021484375 .3789978-.021484375 .5179901-.021484375 .5970001 .11451721 .5970001 .21453858V.59259036C.5970001 .6536102 .673996 .6536102 .69200137 .6536102Z"/>
<path id="font_2_88" d="M.18399048 .04899597C.18399048 .07598877 .16099549 .09700012 .13598633 .09700012 .10699463 .09700012 .08699036 .07398987 .08699036 .04899597 .08699036 .018997193 .11199951 0 .1349945 0 .1619873 0 .18399048 .020996094 .18399048 .04899597Z"/>
<path id="font_2_97" d="M.4889984 .18367005C.4889984 .24472046 .46598817 .28974916 .43899537 .32278443 .4019928 .36782838 .35699464 .37882997 .31799317 .38883973L.20799256 .41687013C.15699768 .42988587 .11199951 .47991944 .11199951 .54397585 .11199951 .6140442 .16799927 .6770935 .24598694 .6770935 .4099884 .6770935 .43199159 .5149536 .43798829 .47192384 .43998719 .4598999 .43998719 .4559021 .44999696 .4559021 .46099855 .4559021 .46099855 .46090699 .46099855 .4789276V.6810913C.46099855 .6990967 .46099855 .70410159 .45098878 .70410159 .44799806 .70410159 .44400025 .70410159 .43699647 .6911011L.4039917 .63005068C.35598756 .6920929 .2899933 .70410159 .24598694 .70410159 .1349945 .70410159 .053985597 .615036 .053985597 .5129547 .053985597 .4649048 .070999149 .42086793 .10798645 .38084413 .14299011 .34179688 .17799378 .3327942 .24899292 .31477357 .28399659 .30677796 .33898927 .29275514 .35299684 .28675843 .3999939 .2637329 .43099977 .20968628 .43099977 .15364075 .43099977 .078567508 .37799073 .007507324 .29499818 .007507324 .25 .007507324 .18798828 .01852417 .13899231 .061553956 .08099365 .113601688 .07699585 .18566895 .07598877 .21868897 .07499695 .22669983 .06498718 .22669983 .06498718 .22669983 .053985597 .22669983 .053985597 .22169495 .053985597 .20367432V.0015106201C.053985597-.016494751 .053985597-.021484375 .06399536-.021484375 .069992069-.021484375 .070999149-.019485474 .07798767-.0074920656L.11099243 .05255127C.14698792 .012512207 .20999146-.021484375 .29599-.021484375 .4079895-.021484375 .4889984 .07356262 .4889984 .18367005Z"/>
<path id="font_2_77" d="M.5209961 0V.0289917C.47099305 .0289917 .44599916 .0289917 .44499208 .059051515V.24342346C.44499208 .3365631 .44499208 .36450196 .42199708 .39640809 .3929901 .4353943 .34599305 .44140626 .31199647 .44140626 .21499634 .44140626 .1769867 .35850526 .16899109 .338562H.16799927V.44140626L.03199768 .4303589V.4013672C.099990848 .4013672 .10798645 .39437867 .10798645 .34553529V.07408142C.10798645 .0289917 .09700012 .0289917 .03199768 .0289917V0C.057998659 .0019989014 .11199951 .0019989014 .13999939 .0019989014 .16899109 .0019989014 .22299195 .0019989014 .24899292 0V.0289917C.18499756 .0289917 .17298889 .0289917 .17298889 .07408142V.26046754C.17298889 .36547853 .24198914 .4213562 .3039856 .4213562 .3659973 .4213562 .37998963 .37045289 .37998963 .3095703V.07408142C.37998963 .0289917 .36898805 .0289917 .3039856 .0289917V0C.32998658 .0019989014 .38398744 .0019989014 .4119873 .0019989014 .44099427 .0019989014 .49499513 .0019989014 .5209961 0Z"/>
<path id="font_2_50" d="M.40699769 .11932373C.40699769 .1253357 .4019928 .1293335 .3959961 .1293335 .3880005 .1293335 .38598634 .12432861 .38398744 .11932373 .35798646 .035247804 .29100038 .01222229 .24899292 .01222229 .20698548 .01222229 .10598755 .040252687 .10598755 .21340943V.23242188H.3829956C.40499879 .23242188 .40699769 .23242188 .40699769 .25141908 .40699769 .3523407 .35299684 .44628907 .23199463 .44628907 .117996219 .44628907 .02999878 .34335328 .02999878 .21940613 .02999878 .08729553 .13198853-.009765625 .24299622-.009765625 .3619995-.009765625 .40699769 .09829712 .40699769 .11932373M.34498597 .25141908H.10699463C.114990238 .40830995 .20298767 .42630006 .23098755 .42630006 .33799745 .42630006 .34399415 .28538514 .34498597 .25141908Z"/>
<path id="font_2_75" d="M.79299929 0V.0289917C.7429962 .0289917 .71798709 .0289917 .71699526 .059051515V.24342346C.71699526 .3365631 .71699526 .36450196 .69400027 .39640809 .6649933 .4353943 .6179962 .44140626 .58399966 .44140626 .5009918 .44140626 .45899964 .38145448 .44299317 .3425598 .42900086 .41940309 .375 .44140626 .31199647 .44140626 .21499634 .44140626 .1769867 .35850526 .16899109 .338562H.16799927V.44140626L.03199768 .4303589V.4013672C.099990848 .4013672 .10798645 .39437867 .10798645 .34553529V.07408142C.10798645 .0289917 .09700012 .0289917 .03199768 .0289917V0C.057998659 .0019989014 .11199951 .0019989014 .13999939 .0019989014 .16899109 .0019989014 .22299195 .0019989014 .24899292 0V.0289917C.18499756 .0289917 .17298889 .0289917 .17298889 .07408142V.26046754C.17298889 .36547853 .24198914 .4213562 .3039856 .4213562 .3659973 .4213562 .37998963 .37045289 .37998963 .3095703V.07408142C.37998963 .0289917 .36898805 .0289917 .3039856 .0289917V0C.32998658 .0019989014 .38398744 .0019989014 .4119873 .0019989014 .44099427 .0019989014 .49499513 .0019989014 .5209961 0V.0289917C.45700074 .0289917 .44499208 .0289917 .44499208 .07408142V.26046754C.44499208 .36547853 .5139923 .4213562 .57598879 .4213562 .6380005 .4213562 .6519928 .37045289 .6519928 .3095703V.07408142C.6519928 .0289917 .6409912 .0289917 .57598879 .0289917V0C.60198977 .0019989014 .6559906 .0019989014 .6839905 .0019989014 .71299746 .0019989014 .7669983 .0019989014 .79299929 0Z"/>
<path id="font_2_84" d="M.5079956 .21640015C.5079956 .34339906 .4139862 .44140626 .30499269 .44140626 .21699524 .44140626 .16999817 .3784027 .16699219 .3744049V.44140626L.027999878 .4303589V.4013672C.09799194 .4013672 .10398865 .3943634 .10398865 .3503418V-.1199646C.10398865-.16503906 .09298706-.16503906 .027999878-.16503906V-.19404602C.053985597-.19204712 .10798645-.19204712 .13598633-.19204712 .16499329-.19204712 .21899414-.19204712 .24499512-.19404602V-.16503906C.18099976-.16503906 .16899109-.16503906 .16899109-.1199646V.054244996C.18699646 .02923584 .22799683-.009765625 .2919922-.009765625 .40699769-.009765625 .5079956 .087249759 .5079956 .21629334V.21640015M.43199159 .21629334C.43199159 .09725952 .3639984 .010223389 .2869873 .010223389 .2559967 .010223389 .22698975 .023223877 .20698548 .042236329 .18399048 .06524658 .16899109 .085250858 .16899109 .11326599V.31933595C.16899109 .33833314 .16899109 .3393402 .17999268 .35534669 .20999146 .40040589 .25898744 .41940309 .29699708 .41940309 .37199403 .41940309 .43199159 .32839967 .43199159 .21640015V.21629334Z"/>
<path id="font_2_72" d="M.24798584 0V.0289917C.18399048 .0289917 .17199707 .0289917 .17199707 .074020389V.69433596L.032989503 .6826172V.6536102C.100997928 .6536102 .10899353 .6466217 .10899353 .597641V.07395935C.10899353 .0289917 .09799194 .0289917 .032989503 .0289917V0C.06098938 .0019989014 .10998535 .0019989014 .13999939 .0019989014 .16999817 .0019989014 .21998596 .0019989014 .24798584 0Z"/>
<path id="font_2_81" d="M.45899964 .21424866C.45899964 .34326173 .36099244 .44628907 .24499512 .44628907 .125 .44628907 .02999878 .340271 .02999878 .21424866 .02999878 .086242679 .12998963-.009765625 .24398804-.009765625 .3619995-.009765625 .45899964 .08824158 .45899964 .21424866M.3829956 .22325135C.3829956 .18824768 .3829956 .12623596 .35699464 .07923889 .32899476 .031234742 .2829895 .01222229 .24499512 .01222229 .20799256 .01222229 .16299439 .02822876 .13398743 .07723999 .10699463 .12223816 .10598755 .1812439 .10598755 .22325135 .10598755 .261261 .10598755 .32226563 .13699341 .3672638 .16499329 .41027833 .20899964 .42626954 .24398804 .42626954 .2829895 .42626954 .32499696 .40827943 .35198976 .3692627 .3829956 .32325746 .3829956 .2602539 .3829956 .22325135Z"/>
<path id="font_2_118" d="M.49798585 .4016571V.43066407C.46899415 .4286499 .45498658 .4286499 .4229889 .4286499L.34199525 .43066407V.4016571C.3789978 .3996582 .3880005 .3766632 .3880005 .35865785 .3880005 .34965516 .38598634 .34465028 .38198854 .33465577L.27999879 .08265686 .16899109 .35466004C.16299439 .36865235 .16299439 .37565614 .16299439 .37565614 .16299439 .4016571 .19799805 .4016571 .21798706 .4016571V.43066407C.19198609 .4286499 .14299011 .4286499 .114990238 .4286499L.017990113 .43066407V.4016571C.07598877 .4016571 .083999637 .39665223 .09700012 .36567689L.24598694-.000076293948C.20199585-.10601807 .20199585-.10801697 .19799805-.11602783 .18099976-.14602661 .1539917-.184021 .10899353-.184021 .07798767-.184021 .05899048-.16601563 .05899048-.16601563 .05899048-.16601563 .09399414-.16201782 .09399414-.12702942 .09399414-.103027347 .07499695-.090026859 .056991579-.090026859 .039993287-.090148929 .018997193-.10014343 .018997193-.12913513 .018997193-.16712952 .055999757-.20410156 .10899353-.20410156 .16499329-.20410156 .20599365-.15512085 .23199463-.09214783L.40499879 .3336792C.43199159 .40065003 .47898866 .4016571 .49798585 .4016571Z"/>
<path id="font_2_105" d="M.32598878 .124069217V.1809845H.3039856V.12606812C.3039856 .0541687 .2749939 .01222229 .23599243 .01222229 .16799927 .01222229 .16799927 .10508728 .16799927 .12207031V.4016571H.30899049V.43066407H.16799927V.6142578H.1459961C.14498902 .52046206 .10899353 .4246521 .017990113 .42166139V.4016571H.102996829V.124069217C.102996829 .01322937 .1769867-.009765625 .22999573-.009765625 .29299928-.009765625 .32598878 .0521698 .32598878 .124069217Z"/>
<path id="font_2_95" d="M.71699526 .086502078C.71699526 .09251404 .71699526 .101501468 .70599368 .101501468 .69599917 .101501468 .69599917 .09550476 .69499209 .085510257 .6899872 .025512696 .6609955-.0014953613 .6289978-.0014953613 .58299258-.0014953613 .57299807 .04550171 .5649872 .09851074L.5549927 .17350769C.5479889 .22351074 .5439911 .25550843 .5139923 .28651429 .5029907 .29751588 .47698976 .32450868 .42199708 .33950807 .5209961 .3630066 .59799197 .42591859 .59799197 .5028229 .59799197 .59968569 .4850006 .6826172 .34098817 .6826172H.041992189V.6536102H.06199646C.13398743 .6536102 .13699341 .643631 .13699341 .6066742V.07600403C.13699341 .038986207 .13398743 .0289917 .06199646 .0289917H.041992189V0C.06498718 .0019989014 .14698792 .0019989014 .17599488 .0019989014 .20498657 .0019989014 .28799439 .0019989014 .31098939 0V.0289917H.29100038C.21899414 .0289917 .21598816 .038986207 .21598816 .07600403V.33203126H.33198548C.37098695 .33203126 .4079895 .3210144 .43499757 .29296876 .46899415 .25489808 .46899415 .23387146 .46899415 .1647644 .46899415 .08564758 .46899415 .05960083 .5130005 .016540528 .5279999 .0015106201 .56999209-.021484375 .6259918-.021484375 .70399478-.021484375 .71699526 .06561279 .71699526 .086639408V.086502078M.5049896 .5028229C.5049896 .41593934 .45799256 .35202027 .32798768 .35202027H.21598816V.6136627C.21598816 .6366272 .21598816 .6486206 .23699951 .6526184 .24598694 .6536102 .27598573 .6536102 .29599 .6536102 .3769989 .6539917 .5049896 .6539917 .5049896 .5029907V.5028229Z"/>
<path id="font_2_28" d="M.47399903 .08912659V.14515686H.45199586V.08912659C.45199586 .03211975 .42799378 .024108887 .4139862 .024108887 .37599183 .024108887 .37599183 .07713318 .37599183 .09213257V.26719667C.37599183 .3211975 .37599183 .36120606 .33198548 .40023805 .29699708 .43226625 .2519989 .44628907 .20799256 .44628907 .12599182 .44628907 .06298828 .39222718 .06298828 .32720948 .06298828 .2982025 .08198547 .2842102 .10499573 .2842102 .1289978 .2842102 .1459961 .3012085 .1459961 .32521058 .1459961 .36621095 .10998535 .36621095 .09498596 .36621095 .117996219 .4082489 .1659851 .42625428 .20599365 .42625428 .2519989 .42625428 .31098939 .38822938 .31098939 .2982025V.25819398C.10998535 .255188 .033996583 .17115784 .033996583 .09413147 .033996583 .0152282719 .12599182-.009765625 .18699646-.009765625 .25299073-.009765625 .2979889 .030227662 .31698609 .07823181 .32099916 .03111267 .35198976-.0048828127 .394989-.0048828127 .41600038-.0048828127 .47399903 .009109497 .47399903 .089141849V.08912659M.31098939 .14117432C.31098939 .043121339 .23799134 .010116577 .19499207 .010116577 .1459961 .010116577 .10499573 .04612732 .10499573 .09414673 .10499573 .22621155 .2749939 .23822022 .31098939 .24023438V.14117432Z"/>
</defs>
<path transform="matrix(1,0,0,-1.0001,35.038003,238.0675)" stroke-width=".3985" stroke-linecap="butt" stroke-miterlimit="10" stroke-linejoin="miter" fill="none" stroke="#929292" d="M0 0H368.5085M0 8.50412H368.5085M0 17.00824H368.5085M0 25.51237H368.5085M0 34.0165H368.5085M0 42.52063H368.5085M0 51.02477H368.5085M0 59.52888H368.5085M0 68.03302H368.5085M0 76.53716H368.5085M0 85.04128H368.5085M0 93.54541H368.5085M0 102.04953H368.5085M0 110.55368H368.5085M0 119.0578H368.5085M0 127.56192H368.5085M0 136.06606H368.5085M0 144.57019H368.5085M0 153.07433H368.5085M0 161.57845H368.5085M0 170.08257H368.5085M0 178.5867H368.5085M0 187.09084H368.5085M0 195.59496H368.5085M0 204.09909H368.5085M0 212.60024H368.5085M0 0V212.60321M28.3468 0V212.60321M56.69362 0V212.60321M85.04042 0V212.60321M113.38724 0V212.60321M141.73404 0V212.60321M170.08086 0V212.60321M198.42766 0V212.60321M226.77448 0V212.60321M255.12128 0V212.60321M283.4681 0V212.60321M311.8149 0V212.60321M340.1617 0V212.60321M368.49858 0V212.60321M368.5085 212.60321"/>
<path transform="matrix(1,0,0,-1.0001,35.038003,238.0675)" stroke-width=".79701" stroke-linecap="butt" stroke-miterlimit="10" stroke-linejoin="miter" fill="none" stroke="#515151" d="M0 2.12602V-2.12602"/>
<use data-text="1" xlink:href="#font_1_82" transform="matrix(9.9626,0,0,-9.963596,25.075005,250.54875)" fill="#515151"/>
<use data-text="9" xlink:href="#font_1_78" transform="matrix(9.9626,0,0,-9.963596,30.056305,250.54875)" fill="#515151"/>
<use data-text="2" xlink:href="#font_1_107" transform="matrix(9.9626,0,0,-9.963596,35.037599,250.54875)" fill="#515151"/>
<use data-text="9" xlink:href="#font_1_78" transform="matrix(9.9626,0,0,-9.963596,40.01889,250.54875)" fill="#515151"/>
<path transform="matrix(1,0,0,-1.0001,35.038003,238.0675)" stroke-width=".79701" stroke-linecap="butt" stroke-miterlimit="10" stroke-linejoin="miter" fill="none" stroke="#515151" d="M28.3468 2.12602V-2.12602"/>
<use data-text="1" xlink:href="#font_1_82" transform="matrix(9.9626,0,0,-9.963596,53.422006,250.54875)" fill="#515151"/>
<use data-text="9" xlink:href="#font_1_78" transform="matrix(9.9626,0,0,-9.963596,58.403306,250.54875)" fill="#515151"/>
<use data-text="3" xlink:href="#font_1_106" transform="matrix(9.9626,0,0,-9.963596,63.384599,250.54875)" fill="#515151"/>
<use data-text="0" xlink:href="#font_1_121" transform="matrix(9.9626,0,0,-9.963596,68.36589,250.54875)" fill="#515151"/>
<path transform="matrix(1,0,0,-1.0001,35.038003,238.0675)" stroke-width=".79701" stroke-linecap="butt" stroke-miterlimit="10" stroke-linejoin="miter" fill="none" stroke="#515151" d="M56.69362 2.12602V-2.12602"/>
<use data-text="1" xlink:href="#font_1_82" transform="matrix(9.9626,0,0,-9.963596,81.769,250.54875)" fill="#515151"/>
<use data-text="9" xlink:href="#font_1_78" transform="matrix(9.9626,0,0,-9.963596,86.750308,250.54875)" fill="#515151"/>
<use data-text="3" xlink:href="#font_1_106" transform="matrix(9.9626,0,0,-9.963596,91.7316,250.54875)" fill="#515151"/>
<use data-text="1" xlink:href="#font_1_82" transform="matrix(9.9626,0,0,-9.963596,96.71289,250.54875)" fill="#515151"/>
<path transform="matrix(1,0,0,-1.0001,35.038003,238.0675)" stroke-width=".79701" stroke-linecap="butt" stroke-miterlimit="10" stroke-linejoin="miter" fill="none" stroke="#515151" d="M85.04042 2.12602V-2.12602"/>
<use data-text="1" xlink:href="#font_1_82" transform="matrix(9.9626,0,0,-9.963596,110.116008,250.54875)" fill="#515151"/>
<use data-text="9" xlink:href="#font_1_78" transform="matrix(9.9626,0,0,-9.963596,115.097309,250.54875)" fill="#515151"/>
<use data-text="3" xlink:href="#font_1_106" transform="matrix(9.9626,0,0,-9.963596,120.0786,250.54875)" fill="#515151"/>
<use data-text="2" xlink:href="#font_1_107" transform="matrix(9.9626,0,0,-9.963596,125.05989,250.54875)" fill="#515151"/>
<path transform="matrix(1,0,0,-1.0001,35.038003,238.0675)" stroke-width=".79701" stroke-linecap="butt" stroke-miterlimit="10" stroke-linejoin="miter" fill="none" stroke="#515151" d="M113.38724 2.12602V-2.12602"/>
<use data-text="1" xlink:href="#font_1_82" transform="matrix(9.9626,0,0,-9.963596,138.462,250.54875)" fill="#515151"/>
<use data-text="9" xlink:href="#font_1_78" transform="matrix(9.9626,0,0,-9.963596,143.4433,250.54875)" fill="#515151"/>
<use data-text="3" xlink:href="#font_1_106" transform="matrix(9.9626,0,0,-9.963596,148.42459,250.54875)" fill="#515151"/>
<use data-text="3" xlink:href="#font_1_106" transform="matrix(9.9626,0,0,-9.963596,153.40589,250.54875)" fill="#515151"/>
<path transform="matrix(1,0,0,-1.0001,35.038003,238.0675)" stroke-width=".79701" stroke-linecap="butt" stroke-miterlimit="10" stroke-linejoin="miter" fill="none" stroke="#515151" d="M141.73404 2.12602V-2.12602"/>
<use data-text="1" xlink:href="#font_1_82" transform="matrix(9.9626,0,0,-9.963596,166.80899,250.65877)" fill="#515151"/>
<use data-text="9" xlink:href="#font_1_78" transform="matrix(9.9626,0,0,-9.963596,171.7903,250.65877)" fill="#515151"/>
<use data-text="3" xlink:href="#font_1_106" transform="matrix(9.9626,0,0,-9.963596,176.77159,250.65877)" fill="#515151"/>
<use data-text="4" xlink:href="#font_1_57" transform="matrix(9.9626,0,0,-9.963596,181.75289,250.65877)" fill="#515151"/>
<path transform="matrix(1,0,0,-1.0001,35.038003,238.0675)" stroke-width=".79701" stroke-linecap="butt" stroke-miterlimit="10" stroke-linejoin="miter" fill="none" stroke="#515151" d="M170.08086 2.12602V-2.12602"/>
<use data-text="1" xlink:href="#font_1_82" transform="matrix(9.9626,0,0,-9.963596,195.156,250.54875)" fill="#515151"/>
<use data-text="9" xlink:href="#font_1_78" transform="matrix(9.9626,0,0,-9.963596,200.1373,250.54875)" fill="#515151"/>
<use data-text="3" xlink:href="#font_1_106" transform="matrix(9.9626,0,0,-9.963596,205.11859,250.54875)" fill="#515151"/>
<use data-text="5" xlink:href="#font_1_56" transform="matrix(9.9626,0,0,-9.963596,210.09989,250.54875)" fill="#515151"/>
<path transform="matrix(1,0,0,-1.0001,35.038003,238.0675)" stroke-width=".79701" stroke-linecap="butt" stroke-miterlimit="10" stroke-linejoin="miter" fill="none" stroke="#515151" d="M198.42766 2.12602V-2.12602"/>
<use data-text="1" xlink:href="#font_1_82" transform="matrix(9.9626,0,0,-9.963596,223.50299,250.54875)" fill="#515151"/>
<use data-text="9" xlink:href="#font_1_78" transform="matrix(9.9626,0,0,-9.963596,228.4843,250.54875)" fill="#515151"/>
<use data-text="3" xlink:href="#font_1_106" transform="matrix(9.9626,0,0,-9.963596,233.46559,250.54875)" fill="#515151"/>
<use data-text="6" xlink:href="#font_1_101" transform="matrix(9.9626,0,0,-9.963596,238.44689,250.54875)" fill="#515151"/>
<path transform="matrix(1,0,0,-1.0001,35.038003,238.0675)" stroke-width=".79701" stroke-linecap="butt" stroke-miterlimit="10" stroke-linejoin="miter" fill="none" stroke="#515151" d="M226.77448 2.12602V-2.12602"/>
<use data-text="1" xlink:href="#font_1_82" transform="matrix(9.9626,0,0,-9.963596,251.85,250.64876)" fill="#515151"/>
<use data-text="9" xlink:href="#font_1_78" transform="matrix(9.9626,0,0,-9.963596,256.8313,250.64876)" fill="#515151"/>
<use data-text="3" xlink:href="#font_1_106" transform="matrix(9.9626,0,0,-9.963596,261.8126,250.64876)" fill="#515151"/>
<use data-text="7" xlink:href="#font_1_100" transform="matrix(9.9626,0,0,-9.963596,266.79389,250.64876)" fill="#515151"/>
<path transform="matrix(1,0,0,-1.0001,35.038003,238.0675)" stroke-width=".79701" stroke-linecap="butt" stroke-miterlimit="10" stroke-linejoin="miter" fill="none" stroke="#515151" d="M255.12128 2.12602V-2.12602"/>
<use data-text="1" xlink:href="#font_1_82" transform="matrix(9.9626,0,0,-9.963596,280.197,250.54875)" fill="#515151"/>
<use data-text="9" xlink:href="#font_1_78" transform="matrix(9.9626,0,0,-9.963596,285.17829,250.54875)" fill="#515151"/>
<use data-text="3" xlink:href="#font_1_106" transform="matrix(9.9626,0,0,-9.963596,290.1596,250.54875)" fill="#515151"/>
<use data-text="8" xlink:href="#font_1_51" transform="matrix(9.9626,0,0,-9.963596,295.14088,250.54875)" fill="#515151"/>
<path transform="matrix(1,0,0,-1.0001,35.038003,238.0675)" stroke-width=".79701" stroke-linecap="butt" stroke-miterlimit="10" stroke-linejoin="miter" fill="none" stroke="#515151" d="M283.4681 2.12602V-2.12602"/>
<use data-text="1" xlink:href="#font_1_82" transform="matrix(9.9626,0,0,-9.963596,308.543,250.54875)" fill="#515151"/>
<use data-text="9" xlink:href="#font_1_78" transform="matrix(9.9626,0,0,-9.963596,313.5243,250.54875)" fill="#515151"/>
<use data-text="3" xlink:href="#font_1_106" transform="matrix(9.9626,0,0,-9.963596,318.5056,250.54875)" fill="#515151"/>
<use data-text="9" xlink:href="#font_1_78" transform="matrix(9.9626,0,0,-9.963596,323.48689,250.54875)" fill="#515151"/>
<path transform="matrix(1,0,0,-1.0001,35.038003,238.0675)" stroke-width=".79701" stroke-linecap="butt" stroke-miterlimit="10" stroke-linejoin="miter" fill="none" stroke="#515151" d="M311.8149 2.12602V-2.12602"/>
<use data-text="1" xlink:href="#font_1_82" transform="matrix(9.9626,0,0,-9.963596,336.88999,250.65877)" fill="#515151"/>
<use data-text="9" xlink:href="#font_1_78" transform="matrix(9.9626,0,0,-9.963596,341.87129,250.65877)" fill="#515151"/>
<use data-text="4" xlink:href="#font_1_57" transform="matrix(9.9626,0,0,-9.963596,346.8526,250.65877)" fill="#515151"/>
<use data-text="0" xlink:href="#font_1_121" transform="matrix(9.9626,0,0,-9.963596,351.83387,250.65877)" fill="#515151"/>
<path transform="matrix(1,0,0,-1.0001,35.038003,238.0675)" stroke-width=".79701" stroke-linecap="butt" stroke-miterlimit="10" stroke-linejoin="miter" fill="none" stroke="#515151" d="M340.1617 2.12602V-2.12602"/>
<use data-text="1" xlink:href="#font_1_82" transform="matrix(9.9626,0,0,-9.963596,365.237,250.65877)" fill="#515151"/>
<use data-text="9" xlink:href="#font_1_78" transform="matrix(9.9626,0,0,-9.963596,370.21833,250.65877)" fill="#515151"/>
<use data-text="4" xlink:href="#font_1_57" transform="matrix(9.9626,0,0,-9.963596,375.1996,250.65877)" fill="#515151"/>
<use data-text="1" xlink:href="#font_1_82" transform="matrix(9.9626,0,0,-9.963596,380.1809,250.65877)" fill="#515151"/>
<path transform="matrix(1,0,0,-1.0001,35.038003,238.0675)" stroke-width=".79701" stroke-linecap="butt" stroke-miterlimit="10" stroke-linejoin="miter" fill="none" stroke="#515151" d="M368.5085 2.12602V-2.12602"/>
<use data-text="1" xlink:href="#font_1_82" transform="matrix(9.9626,0,0,-9.963596,393.58399,250.65877)" fill="#515151"/>
<use data-text="9" xlink:href="#font_1_78" transform="matrix(9.9626,0,0,-9.963596,398.5653,250.65877)" fill="#515151"/>
<use data-text="4" xlink:href="#font_1_57" transform="matrix(9.9626,0,0,-9.963596,403.54658,250.65877)" fill="#515151"/>
<use data-text="2" xlink:href="#font_1_107" transform="matrix(9.9626,0,0,-9.963596,408.5279,250.65877)" fill="#515151"/>
<path transform="matrix(1,0,0,-1.0001,35.038003,238.0675)" stroke-width=".79701" stroke-linecap="butt" stroke-miterlimit="10" stroke-linejoin="miter" fill="none" stroke="#000000" d="M2.83484 0H-2.83441"/>
<use data-text="0" xlink:href="#font_1_121" transform="matrix(9.9626,0,0,-9.963596,23.502999,241.27582)"/>
<path transform="matrix(1,0,0,-1.0001,35.038003,238.0675)" stroke-width="1.19553" stroke-linecap="butt" stroke-miterlimit="10" stroke-linejoin="miter" fill="none" stroke="#515151" d="M0 0H368.5085"/>
<path transform="matrix(1,0,0,-1.0001,35.038003,238.0675)" stroke-width=".79701" stroke-linecap="butt" stroke-miterlimit="10" stroke-linejoin="miter" fill="none" stroke="#000000" d="M2.83484 42.52063H-2.83441"/>
<use data-text="5" xlink:href="#font_1_56" transform="matrix(9.9626,0,0,-9.963596,23.502999,198.75058)"/>
<path transform="matrix(1,0,0,-1.0001,35.038003,238.0675)" stroke-width="1.19553" stroke-linecap="butt" stroke-miterlimit="10" stroke-linejoin="miter" fill="none" stroke="#515151" d="M0 42.52063H368.5085"/>
<path transform="matrix(1,0,0,-1.0001,35.038003,238.0675)" stroke-width=".79701" stroke-linecap="butt" stroke-miterlimit="10" stroke-linejoin="miter" fill="none" stroke="#000000" d="M2.83484 85.04128H-2.83441"/>
<use data-text="1" xlink:href="#font_1_82" transform="matrix(9.9626,0,0,-9.963596,18.522004,156.22632)"/>
<use data-text="0" xlink:href="#font_1_121" transform="matrix(9.9626,0,0,-9.963596,23.503304,156.22632)"/>
<path transform="matrix(1,0,0,-1.0001,35.038003,238.0675)" stroke-width="1.19553" stroke-linecap="butt" stroke-miterlimit="10" stroke-linejoin="miter" fill="none" stroke="#515151" d="M0 85.04128H368.5085"/>
<path transform="matrix(1,0,0,-1.0001,35.038003,238.0675)" stroke-width=".79701" stroke-linecap="butt" stroke-miterlimit="10" stroke-linejoin="miter" fill="none" stroke="#000000" d="M2.83484 127.56192H-2.83441"/>
<use data-text="1" xlink:href="#font_1_82" transform="matrix(9.9626,0,0,-9.963596,18.522004,113.70107)"/>
<use data-text="5" xlink:href="#font_1_56" transform="matrix(9.9626,0,0,-9.963596,23.503304,113.70107)"/>
<path transform="matrix(1,0,0,-1.0001,35.038003,238.0675)" stroke-width="1.19553" stroke-linecap="butt" stroke-miterlimit="10" stroke-linejoin="miter" fill="none" stroke="#515151" d="M0 127.56192H368.5085"/>
<path transform="matrix(1,0,0,-1.0001,35.038003,238.0675)" stroke-width=".79701" stroke-linecap="butt" stroke-miterlimit="10" stroke-linejoin="miter" fill="none" stroke="#000000" d="M2.83484 170.08257H-2.83441"/>
<use data-text="2" xlink:href="#font_1_107" transform="matrix(9.9626,0,0,-9.963596,18.522004,71.17581)"/>
<use data-text="0" xlink:href="#font_1_121" transform="matrix(9.9626,0,0,-9.963596,23.503304,71.17581)"/>
<path transform="matrix(1,0,0,-1.0001,35.038003,238.0675)" stroke-width="1.19553" stroke-linecap="butt" stroke-miterlimit="10" stroke-linejoin="miter" fill="none" stroke="#515151" d="M0 170.08257H368.5085"/>
<path transform="matrix(1,0,0,-1.0001,35.038003,238.0675)" stroke-width=".79701" stroke-linecap="butt" stroke-miterlimit="10" stroke-linejoin="miter" fill="none" stroke="#000000" d="M2.83484 212.60321H-2.83441"/>
<use data-text="2" xlink:href="#font_1_107" transform="matrix(9.9626,0,0,-9.963596,18.522004,28.65155)"/>
<use data-text="5" xlink:href="#font_1_56" transform="matrix(9.9626,0,0,-9.963596,23.503304,28.65155)"/>
<path transform="matrix(1,0,0,-1.0001,35.038003,238.0675)" stroke-width="1.19553" stroke-linecap="butt" stroke-miterlimit="10" stroke-linejoin="miter" fill="none" stroke="#515151" d="M0 212.60321H368.5085"/>
<path transform="matrix(1,0,0,-1.0001,35.038003,238.0675)" stroke-width="1.19553" stroke-linecap="butt" stroke-miterlimit="10" stroke-linejoin="miter" fill="none" stroke="#0000ff" d="M0 27.21318 28.3468 76.53716 56.69362 136.06606 85.04042 199.84703 113.38724 211.75276 141.73404 184.53957 170.08086 170.08257 198.42766 144.57019 226.77448 119.0578 255.12128 161.57845 283.4681 144.57019 311.8149 123.30986 340.1617 80.78922 368.5085 38.26857"/>
<use data-text="U" xlink:href="#font_1_108" transform="matrix(0,-9.963596,-9.9626,-0,8.130005,174.0491)"/>
<use data-text="n" xlink:href="#font_1_77" transform="matrix(0,-9.963596,-9.9626,-0,8.130005,166.57642)"/>
<use data-text="e" xlink:href="#font_1_50" transform="matrix(0,-9.963596,-9.9626,-0,8.130005,161.03667)"/>
<use data-text="m" xlink:href="#font_1_75" transform="matrix(0,-9.963596,-9.9626,-0,8.130005,156.61283)"/>
<use data-text="p" xlink:href="#font_1_84" transform="matrix(0,-9.963596,-9.9626,-0,8.130005,148.31316)"/>
<use data-text="l" xlink:href="#font_1_72" transform="matrix(0,-9.963596,-9.9626,-0,8.130005,142.77339)"/>
<use data-text="o" xlink:href="#font_1_81" transform="matrix(0,-9.963596,-9.9626,-0,8.130005,140.00351)"/>
<use data-text="y" xlink:href="#font_1_118" transform="matrix(0,-9.963596,-9.9626,-0,8.130005,135.29074)"/>
<use data-text="m" xlink:href="#font_1_75" transform="matrix(0,-9.963596,-9.9626,-0,8.130005,130.02997)"/>
<use data-text="e" xlink:href="#font_1_50" transform="matrix(0,-9.963596,-9.9626,-0,8.130005,121.730289)"/>
<use data-text="n" xlink:href="#font_1_77" transform="matrix(0,-9.963596,-9.9626,-0,8.130005,117.30644)"/>
<use data-text="t" xlink:href="#font_1_105" transform="matrix(0,-9.963596,-9.9626,-0,8.130005,112.04567)"/>
<use data-text="R" xlink:href="#font_1_95" transform="matrix(0,-9.963596,-9.9626,-0,8.130005,104.86191)"/>
<use data-text="a" xlink:href="#font_1_28" transform="matrix(0,-9.963596,-9.9626,-0,8.130005,97.5287)"/>
<use data-text="t" xlink:href="#font_1_105" transform="matrix(0,-9.963596,-9.9626,-0,8.130005,92.546909)"/>
<use data-text="e" xlink:href="#font_1_50" transform="matrix(0,-9.963596,-9.9626,-0,8.130005,88.67107)"/>
<use data-text="U" xlink:href="#font_2_108" transform="matrix(14.3462,0,0,-14.347635,126.393009,12.019897)"/>
<use data-text="." xlink:href="#font_2_88" transform="matrix(14.3462,0,0,-14.347635,136.92313,12.019897)"/>
<use data-text="S" xlink:href="#font_2_97" transform="matrix(14.3462,0,0,-14.347635,140.82529,12.019897)"/>
<use data-text="." xlink:href="#font_2_88" transform="matrix(14.3462,0,0,-14.347635,148.62961,12.019897)"/>
<use data-text="U" xlink:href="#font_2_108" transform="matrix(14.3462,0,0,-14.347635,157.20865,12.019897)"/>
<use data-text="n" xlink:href="#font_2_77" transform="matrix(14.3462,0,0,-14.347635,167.73874,12.019897)"/>
<use data-text="e" xlink:href="#font_2_50" transform="matrix(14.3462,0,0,-14.347635,175.54309,12.019897)"/>
<use data-text="m" xlink:href="#font_2_75" transform="matrix(14.3462,0,0,-14.347635,181.78369,12.019897)"/>
<use data-text="p" xlink:href="#font_2_84" transform="matrix(14.3462,0,0,-14.347635,193.49018,12.019897)"/>
<use data-text="l" xlink:href="#font_2_72" transform="matrix(14.3462,0,0,-14.347635,201.29453,12.019897)"/>
<use data-text="o" xlink:href="#font_2_81" transform="matrix(14.3462,0,0,-14.347635,205.19669,12.019897)"/>
<use data-text="y" xlink:href="#font_2_118" transform="matrix(14.3462,0,0,-14.347635,211.8533,12.019897)"/>
<use data-text="m" xlink:href="#font_2_75" transform="matrix(14.3462,0,0,-14.347635,219.2703,12.019897)"/>
<use data-text="e" xlink:href="#font_2_50" transform="matrix(14.3462,0,0,-14.347635,230.9768,12.019897)"/>
<use data-text="n" xlink:href="#font_2_77" transform="matrix(14.3462,0,0,-14.347635,237.2174,12.019897)"/>
<use data-text="t" xlink:href="#font_2_105" transform="matrix(14.3462,0,0,-14.347635,244.6344,12.019897)"/>
<use data-text="R" xlink:href="#font_2_95" transform="matrix(14.3462,0,0,-14.347635,254.76282,12.019897)"/>
<use data-text="a" xlink:href="#font_2_28" transform="matrix(14.3462,0,0,-14.347635,265.1064,12.019897)"/>
<use data-text="t" xlink:href="#font_2_105" transform="matrix(14.3462,0,0,-14.347635,272.13606,12.019897)"/>
<use data-text="e" xlink:href="#font_2_50" transform="matrix(14.3462,0,0,-14.347635,277.60197,12.019897)"/>
</svg>
