<svg xmlns="http://www.w3.org/2000/svg" xmlns:xlink="http://www.w3.org/1999/xlink" version="1.1" width="209" height="203" viewBox="0 0 209 203">
<defs>
<path id="font_1_1" d="M.33399964 .30233766C.33999635 .32835389 .36299134 .42037965 .43299867 .42037965 .43798829 .42037965 .46199037 .42037965 .48298646 .40734864 .45498658 .402359 .43499757 .37734986 .43499757 .35334779 .43499757 .33735658 .44599916 .31835938 .47299195 .31835938 .49499513 .31835938 .5269928 .3363495 .5269928 .37635804 .5269928 .42837525 .46798707 .4423828 .43399049 .4423828 .37599183 .4423828 .34098817 .38935853 .32899476 .36634828 .3039856 .43237306 .25 .4423828 .22099304 .4423828 .116989139 .4423828 .05999756 .3133545 .05999756 .28834535 .05999756 .27833558 .069992069 .27833558 .07199097 .27833558 .07998657 .27833558 .08299255 .28033448 .084991458 .28933717 .11898804 .39535523 .18499756 .42037965 .21899414 .42037965 .23799134 .42037965 .272995 .4113617 .272995 .35334779 .272995 .32235719 .2559967 .25532533 .21899414 .11528015 .20298767 .053268434 .16799927 .011245728 .12399292 .011245728 .117996219 .011245728 .09498596 .011245728 .07398987 .024276734 .09899902 .029266358 .12098694 .05027771 .12098694 .07827759 .12098694 .105270389 .09899902 .11328125 .083999637 .11328125 .053985597 .11328125 .0289917 .08728027 .0289917 .055267335 .0289917 .009246826 .07899475-.0107421879 .12298584-.0107421879 .18899536-.0107421879 .22499085 .059280397 .22799683 .0652771 .23999024 .028274537 .27598573-.0107421879 .33599855-.0107421879 .43899537-.0107421879 .49598695 .118270877 .49598695 .14328003 .49598695 .1532898 .4869995 .1532898 .48399354 .1532898 .47499085 .1532898 .47299195 .14929199 .47099305 .14228821 .43798829 .03527832 .36999513 .011245728 .33799745 .011245728 .29899598 .011245728 .2829895 .043273927 .2829895 .07727051 .2829895 .09927368 .2889862 .121276859 .2999878 .16529846L.33399964 .30233766Z"/>
<path id="font_1_2" d="M.48599244 .38136292C.48999024 .39537049 .48999024 .39736939 .48999024 .40437318 .48999024 .42237855 .47599793 .43138124 .46099855 .43138124 .45098878 .43138124 .43499757 .42536927 .42599488 .41036988 .42399598 .405365 .41600038 .37435914 .4119873 .35635377 .40499879 .33035279 .397995 .30334474 .3919983 .27633668L.34700013 .09628296C.34298707 .08126831 .2999878 .011245728 .23399353 .011245728 .18299866 .011245728 .17199707 .055267335 .17199707 .0922699 .17199707 .1382904 .18899536 .20030213 .22299195 .28833009 .23899842 .3293457 .24299622 .3403473 .24299622 .36035157 .24299622 .405365 .21099854 .4423828 .16099549 .4423828 .06599426 .4423828 .0289917 .29733277 .0289917 .28833009 .0289917 .27833558 .038986207 .27833558 .040985109 .27833558 .050994874 .27833558 .051986696 .28033448 .056991579 .29634095 .083999637 .3903656 .12399292 .42037965 .1579895 .42037965 .1659851 .42037965 .18299866 .42037965 .18299866 .3883667 .18299866 .36335755 .17298889 .3373413 .1659851 .31834413 .12599182 .21231079 .10798645 .1552887 .10798645 .10827637 .10798645 .019256592 .17098999-.0107421879 .22999573-.0107421879 .2689972-.0107421879 .30299378 .0062561037 .33099366 .03425598 .31799317-.017745972 .30599977-.06674194 .2659912-.11973572 .23999024-.15385437 .20199585-.18309021 .1559906-.18309021 .14199829-.18309021 .09700012-.18005371 .07998657-.14074707 .09599304-.14074707 .10899353-.14074707 .12298584-.1287384 .1329956-.11973572 .14299011-.10673523 .14299011-.08773804 .14299011-.056747438 .115997318-.052734376 .10598755-.052734376 .08299255-.052734376 .049987794-.068740848 .049987794-.11773682 .049987794-.16796875 .09399414-.20507813 .1559906-.20507813 .25898744-.20507813 .3619995-.11373901 .3899994-.00074768069L.48599244 .38136292Z"/>
<path id="font_2_82" d="M.4189911 0V.0309906H.3869934C.29699708 .0309906 .2939911 .041992189 .2939911 .07902527V.64012148C.2939911 .6640167 .2939911 .6660156 .2709961 .6660156 .20899964 .60227969 .12098694 .60227969 .08898926 .60227969V.57128909C.10899353 .57128909 .16799927 .57128909 .21998596 .5972748V.07902527C.21998596 .042999269 .21699524 .0309906 .1269989 .0309906H.09498596V0C.12998963 .0029907227 .21699524 .0029907227 .25698854 .0029907227 .29699708 .0029907227 .38398744 .0029907227 .4189911 0Z"/>
<path id="font_2_121" d="M.45999146 .31976319C.45999146 .39982606 .45498658 .47988893 .41999818 .5539398 .37399293 .65000918 .2919922 .6660156 .25 .6660156 .18998719 .6660156 .116989139 .64001467 .07598877 .54693606 .04399109 .47789 .038986207 .39982606 .038986207 .31976319 .038986207 .24472046 .042999269 .15464783 .083999637 .07859802 .1269989-.0024719239 .19999695-.022460938 .24899292-.022460938 .30299378-.022460938 .3789978-.0014648438 .4229889 .09359741 .45498658 .16265869 .45999146 .2407074 .45999146 .31976319M.3769989 .3317871C.3769989 .25672914 .3769989 .18867493 .3659973 .12461853 .35099793 .029556275 .2939911-.00047302247 .24899292-.00047302247 .20999146-.00047302247 .15098572 .024551392 .1329956 .12062073 .12199402 .18066406 .12199402 .2727356 .12199402 .3317871 .12199402 .39582826 .12199402 .46188355 .12998963 .5159149 .14898682 .63500979 .22399903 .64401248 .24899292 .64401248 .28199769 .64401248 .34799195 .6259918 .36698915 .52693179 .3769989 .47088624 .3769989 .39482118 .3769989 .3317871Z"/>
<path id="font_2_107" d="M.44898988 .17396546H.42399598C.4189911 .14398194 .4119873 .099990848 .4019928 .084991458 .394989 .07699585 .32899476 .07699585 .30699159 .07699585H.1269989L.23298645 .17996216C.3889923 .31803895 .44898988 .37210084 .44898988 .47216798 .44898988 .5860901 .35899354 .6660156 .23699951 .6660156 .12399292 .6660156 .049987794 .57411196 .049987794 .48516847 .049987794 .4291687 .099990848 .4291687 .102996829 .4291687 .11999512 .4291687 .15499878 .44117738 .15499878 .48217774 .15499878 .5081787 .13699341 .5341797 .101989749 .5341797 .09399414 .5341797 .09199524 .5341797 .08898926 .5331726 .11199951 .59806826 .1659851 .63500979 .22399903 .63500979 .31498719 .63500979 .35798646 .5541382 .35798646 .47216798 .35798646 .39196778 .30799867 .31297303 .25299073 .25097657L.06098938 .036987306C.049987794 .025985718 .049987794 .023986817 .049987794 0H.42099L.44898988 .17396546Z"/>
<path id="font_2_56" d="M.44898988 .20091248C.44898988 .31991578 .36698915 .41992188 .25898744 .41992188 .21099854 .41992188 .16799927 .4039154 .13198853 .36891175V.5641022C.1519928 .55778506 .18499756 .55078127 .21699524 .55078127 .33999635 .55078127 .4099884 .6418457 .4099884 .65493777 .4099884 .6609802 .40699769 .6660156 .3999939 .6660156 .3999939 .66607668 .39698792 .66607668 .3919983 .66308596 .37199403 .65408328 .32299806 .63378909 .2559967 .63378909 .21598816 .63409426 .16999817 .641098 .12298584 .6621094 .114990238 .6651001 .11099243 .6651001 .11099243 .6651001 .100997928 .66508486 .100997928 .657074 .100997928 .64108279V.3447113C.100997928 .3266449 .100997928 .31861878 .114990238 .31861878 .12199402 .31861878 .12399292 .32164 .12799073 .32765199 .13899231 .34371949 .17599488 .3979187 .25698854 .3979187 .30899049 .3979187 .33399964 .3517456 .34199525 .3336792 .35798646 .2965393 .3600006 .2574005 .3600006 .20721436 .3600006 .17218018 .3600006 .112197879 .33599855 .07032776 .31199647 .031448366 .2749939 .0055389406 .22898865 .0055389406 .1559906 .0055389406 .09899902 .05836487 .08198547 .1171875 .084991458 .11685181 .08799744 .115859989 .09899902 .115859989 .13198853 .115859989 .14898682 .14085388 .14898682 .16485596 .14898682 .18885803 .13198853 .21386719 .09899902 .21386719 .084991458 .21386719 .049987794 .2068634 .049987794 .16085816 .049987794 .07432556 .11898804-.022460938 .23098755-.022460938 .34700013-.022460938 .44898988 .07331848 .44898988 .20019531V.20091248Z"/>
<path id="font_3_3" d="M.68699648 .32714845C.70199587 .32714845 .72099307 .32714845 .72099307 .34713746 .72099307 .36714173 .70199587 .36714173 .6879883 .36714173H.08898926C.07499695 .36714173 .055999757 .36714173 .055999757 .34713746 .055999757 .32714845 .07499695 .32714845 .08999634 .32714845H.68699648M.6879883 .13284302C.70199587 .13284302 .72099307 .13284302 .72099307 .15284729 .72099307 .17285156 .70199587 .17285156 .68699648 .17285156H.08999634C.07499695 .17285156 .055999757 .17285156 .055999757 .15284729 .055999757 .13284302 .07499695 .13284302 .08898926 .13284302H.6879883Z"/>
<path id="font_3_1" d="M.1269989 .07699585 .23298645 .18003845C.3889923 .31811524 .44898988 .3721466 .44898988 .47216798 .44898988 .5860901 .35899354 .6660156 .23699951 .6660156 .12399292 .6660156 .049987794 .57411196 .049987794 .48516847 .049987794 .4291687 .099990848 .4291687 .102996829 .4291687 .11999512 .4291687 .15499878 .44117738 .15499878 .48217774 .15499878 .5081787 .13699341 .5341797 .101989749 .5341797 .09399414 .5341797 .09199524 .5341797 .08898926 .5331726 .11199951 .59806826 .1659851 .63500979 .22399903 .63500979 .31498719 .63500979 .35798646 .5541382 .35798646 .47216798 .35798646 .39215089 .30799867 .31311036 .25299073 .25108338L.06098938 .036987306C.049987794 .025985718 .049987794 .023986817 .049987794 0H.42099L.44898988 .17404175H.42399598C.4189911 .14402771 .4119873 .1000061 .4019928 .084991458 .394989 .07699585 .32899476 .07699585 .30699159 .07699585H.1269989Z"/>
<path id="font_3_2" d="M.2939911 .16503906V.07800293C.2939911 .041992189 .2919922 .0309906 .21798706 .0309906H.19699097V0C.23799134 .0029907227 .2899933 .0029907227 .33198548 .0029907227 .37399293 .0029907227 .4269867 .0029907227 .46798707 0V.0309906H.44699098C.37298585 .0309906 .37098695 .041992189 .37098695 .07800293V.16503906H.47099305V.19602967H.37098695V.65075686C.37098695 .67074587 .37098695 .6767578 .35499574 .6767578 .34599305 .6767578 .34298707 .6767578 .33499146 .66474917L.027999878 .19602967V.16503906H.2939911M.2999878 .19602967H.055999757L.2999878 .5688019V.19602967Z"/>
</defs>
<path transform="matrix(1,0,0,-1,14.5,189.286)" stroke-width=".3985" stroke-linecap="butt" stroke-miterlimit="10" stroke-linejoin="miter" fill="none" stroke="#00aeef" d="M0 0H170.08086M0 14.17339H170.08086M0 28.3468H170.08086M0 42.5202H170.08086M0 56.69362H170.08086M0 70.867H170.08086M0 85.04042H170.08086M0 99.21382H170.08086M0 113.38724H170.08086M0 127.56062H170.08086M0 141.73404H170.08086M0 155.90744H170.08086M0 170.07587H170.08086M0 0V170.08086M14.17339 0V170.08086M28.3468 0V170.08086M42.5202 0V170.08086M56.69362 0V170.08086M70.867 0V170.08086M85.04042 0V170.08086M99.21382 0V170.08086M113.38724 0V170.08086M127.56062 0V170.08086M141.73404 0V170.08086M155.90744 0V170.08086M170.07836 0V170.08086M170.08086 170.08086"/>
<path transform="matrix(1,0,0,-1,14.5,189.286)" stroke-width=".79701" stroke-linecap="butt" stroke-miterlimit="10" stroke-linejoin="miter" fill="none" stroke="#000000" d="M0 0H182.81964"/>
<path transform="matrix(1,0,0,-1,197.31964,189.286)" d="M1.0361 0C-.25902 .25902-1.55415 .77707-3.1083 1.68365-1.55415 .51805-1.55415-.51805-3.1083-1.68365-1.55415-.77707-.25902-.25902 1.0361 0Z"/>
<path transform="matrix(1,0,0,-1,197.31964,189.286)" stroke-width=".79701" stroke-linecap="butt" stroke-linejoin="round" fill="none" stroke="#000000" d="M1.0361 0C-.25902 .25902-1.55415 .77707-3.1083 1.68365-1.55415 .51805-1.55415-.51805-3.1083-1.68365-1.55415-.77707-.25902-.25902 1.0361 0Z"/>
<use data-text="x" xlink:href="#font_1_1" transform="matrix(9.9626,0,0,-9.9626,202.473,191.431)"/>
<path transform="matrix(1,0,0,-1,14.5,189.286)" stroke-width=".79701" stroke-linecap="butt" stroke-miterlimit="10" stroke-linejoin="miter" fill="none" stroke="#000000" d="M0 0V182.81964"/>
<path transform="matrix(0,-1,-1,-0,14.5,6.4663546)" d="M1.0361 0C-.25902 .25902-1.55415 .77707-3.1083 1.68365-1.55415 .51805-1.55415-.51805-3.1083-1.68365-1.55415-.77707-.25902-.25902 1.0361 0Z"/>
<path transform="matrix(0,-1,-1,-0,14.5,6.4663546)" stroke-width=".79701" stroke-linecap="butt" stroke-linejoin="round" fill="none" stroke="#000000" d="M1.0361 0C-.25902 .25902-1.55415 .77707-3.1083 1.68365-1.55415 .51805-1.55415-.51805-3.1083-1.68365-1.55415-.77707-.25902-.25902 1.0361 0Z"/>
<use data-text="y" xlink:href="#font_1_2" transform="matrix(9.9626,0,0,-9.9626,5.5390017,6.2079927)"/>
<path transform="matrix(1,0,0,-1,14.5,189.286)" stroke-width="1.19553" stroke-linecap="butt" stroke-miterlimit="10" stroke-linejoin="miter" fill="none" stroke="#00aeef" d="M70.867 0V170.08086"/>
<path transform="matrix(1,0,0,-1,14.5,189.286)" stroke-width=".79701" stroke-linecap="butt" stroke-miterlimit="10" stroke-linejoin="miter" fill="none" stroke="#000000" d="M70.867 1.13388V-1.1339"/>
<use data-text="1" xlink:href="#font_2_82" transform="matrix(9.9626,0,0,-9.9626,80.386,200.77399)"/>
<use data-text="0" xlink:href="#font_2_121" transform="matrix(9.9626,0,0,-9.9626,85.3673,200.77399)"/>
<path transform="matrix(1,0,0,-1,14.5,189.286)" stroke-width="1.19553" stroke-linecap="butt" stroke-miterlimit="10" stroke-linejoin="miter" fill="none" stroke="#00aeef" d="M141.73404 0V170.08086"/>
<path transform="matrix(1,0,0,-1,14.5,189.286)" stroke-width=".79701" stroke-linecap="butt" stroke-miterlimit="10" stroke-linejoin="miter" fill="none" stroke="#000000" d="M141.73404 1.13388V-1.1339"/>
<use data-text="2" xlink:href="#font_2_107" transform="matrix(9.9626,0,0,-9.9626,151.253,200.77399)"/>
<use data-text="0" xlink:href="#font_2_121" transform="matrix(9.9626,0,0,-9.9626,156.23432,200.77399)"/>
<path transform="matrix(1,0,0,-1,14.5,189.286)" stroke-width="1.19553" stroke-linecap="butt" stroke-miterlimit="10" stroke-linejoin="miter" fill="none" stroke="#00aeef" d="M0 70.867H170.08086"/>
<path transform="matrix(1,0,0,-1,14.5,189.286)" stroke-width=".79701" stroke-linecap="butt" stroke-miterlimit="10" stroke-linejoin="miter" fill="none" stroke="#000000" d="M.2834 70.867H-.28351"/>
<use data-text="5" xlink:href="#font_2_56" transform="matrix(9.9626,0,0,-9.9626,5.515999,121.627)"/>
<path transform="matrix(1,0,0,-1,14.5,189.286)" stroke-width="1.19553" stroke-linecap="butt" stroke-miterlimit="10" stroke-linejoin="miter" fill="none" stroke="#00aeef" d="M0 141.73404H170.08086"/>
<path transform="matrix(1,0,0,-1,14.5,189.286)" stroke-width=".79701" stroke-linecap="butt" stroke-miterlimit="10" stroke-linejoin="miter" fill="none" stroke="#000000" d="M.2834 141.73404H-.28351"/>
<use data-text="1" xlink:href="#font_2_82" transform="matrix(9.9626,0,0,-9.9626,.53500369,50.759996)"/>
<use data-text="0" xlink:href="#font_2_121" transform="matrix(9.9626,0,0,-9.9626,5.516304,50.759996)"/>
<path transform="matrix(1,0,0,-1,14.5,189.286)" stroke-width="1.19553" stroke-linecap="butt" stroke-miterlimit="10" stroke-linejoin="miter" fill="none" stroke="#ff0000" d="M14.34695 168.21604C15.93344 151.17256 15.93344 151.17256 16.60945 145.13573 17.28543 139.09893 18.3695 131.13892 19.0455 126.57164 19.72148 122.00433 20.80556 115.7952 21.48155 112.21786 22.15755 108.64053 23.24161 103.66707 23.9176 100.78868 24.5936 97.91031 25.67767 93.83905 26.35365 91.47247 27.02966 89.10588 28.11372 85.71233 28.78972 83.732 29.46571 81.75166 30.54976 78.88107 31.22577 77.19957 31.90175 75.51808 32.98582 73.05853 33.66182 71.61293 34.33781 70.16731 35.42188 68.03693 36.09789 66.78061 36.77386 65.52428 37.85794 63.66011 38.53394 62.55817 39.20993 61.45624 40.29399 59.8128 40.96997 58.83856 41.64598 57.86433 42.73004 56.40417 43.40604 55.53656 44.08203 54.66895 45.1661 53.36298 45.84209 52.58536 46.5181 51.80772 47.60214 50.63287 48.27815 49.93196 48.95413 49.23102 50.03821 48.1686 50.7142 47.53354 51.39018 46.89848 52.47426 45.93292 53.15025 45.35484 53.82625 44.77676 54.91031 43.89552 55.5863 43.3671 56.2623 42.83868 57.34637 42.03122 58.02235 41.54634 58.69836 41.06146 59.78242 40.31895 60.45842 39.87242 61.13441 39.4259 62.21848 38.7406 62.89447 38.32805 63.57047 37.9155 64.65453 37.28128 65.33052 36.89894 66.00652 36.51659 67.09058 35.92764 67.76659 35.57234 68.44257 35.21703 69.52664 34.66913 70.20264 34.3381 70.87862 34.00706 71.96269 33.49568 72.63867 33.18646 73.31468 32.87724 74.39874 32.3989 75.07474 32.10945 75.75073 31.81999 76.83481 31.3718 77.51079 31.10034 78.1868 30.82886 79.27084 30.40802 79.94685 30.15286 80.62283 29.89767 81.70691 29.5015 82.3829 29.26118 83.05888 29.02086 84.14296 28.64745 84.81895 28.42076 85.49495 28.19405 86.57901 27.84146 87.25502 27.62726 87.931 27.41309 89.01508 27.07976 89.69106 26.87703 90.36707 26.67432 91.45113 26.3583 92.1271 26.16615 92.80312 25.97398 93.88718 25.6744 94.56317 25.49203 95.23917 25.3097 96.32323 25.02518 96.99922 24.85188 97.67522 24.67859 98.75928 24.408 99.43529 24.24309 100.11127 24.07817 101.19534 23.82039 101.87134 23.66327 102.54732 23.50616 103.6314 23.26056 104.30739 23.1107 104.98338 22.96085 106.06744 22.72633 106.74344 22.58324 107.41943 22.44014 108.50351 22.2161 109.17949 22.07932 109.8555 21.94257 110.93956 21.72833 111.61555 21.59747 112.29155 21.46661 113.3756 21.2615 114.0516 21.13617 114.72758 21.01085 115.81166 20.81425 116.48766 20.6941 117.16365 20.57397 118.24771 20.38548 118.92372 20.27023 119.5997 20.15497 120.68378 19.97409 121.35976 19.86343 122.03575 19.75276 123.11983 19.579 123.7958 19.47263 124.47182 19.36626 125.55588 19.19907 126.23187 19.09674 126.90787 18.99445 127.99194 18.8336 128.66793 18.73515 129.34394 18.6367 130.42798 18.482 131.10399 18.38718 131.77997 18.29236 132.86405 18.14317 133.54004 18.05174 134.21602 17.96033 135.3001 17.81636 135.97609 17.72821 136.65209 17.64005 137.73615 17.50143 138.41214 17.41634 139.08814 17.33125 140.17221 17.19705 140.84819 17.11487 141.5242 17.03268 142.60826 16.90338 143.28424 16.82397 143.96025 16.7446 145.0443 16.61937 145.7203 16.54262 146.39629 16.46587 147.48036 16.34499 148.15636 16.27077 148.83235 16.19653 149.91641 16.07942 150.59243 16.00757 151.2684 15.93571 152.35248 15.8224 153.02848 15.75279 153.70446 15.68318 154.78853 15.57327 155.46451 15.50583 156.14052 15.43837 157.22458 15.33199 157.90058 15.26663 158.57657 15.20128 159.66065 15.09816 160.33663 15.03479 161.01264 14.97142 162.09668 14.87137 162.77269 14.80986 163.44867 14.74835 164.53273 14.65117 165.20874 14.59145 165.88472 14.53171 166.9688 14.43729 167.64479 14.37929 168.32079 14.32127 170.08086 14.17339 168.21454 14.33014"/>
<path transform="matrix(-.09267,-.99564,-.99564,.09267,28.84695,21.069962)" d="M1.27522 0C-.31879 .31879-1.91284 .9564-3.8257 2.07224-1.91284 .6376-1.91284-.6376-3.8257-2.07224-1.91284-.9564-.31879-.31879 1.27522 0Z" fill="#ff0000"/>
<path transform="matrix(-.09267,-.99564,-.99564,.09267,28.84695,21.069962)" stroke-width="1.19553" stroke-linecap="butt" stroke-linejoin="round" fill="none" stroke="#ff0000" d="M1.27522 0C-.31879 .31879-1.91284 .9564-3.8257 2.07224-1.91284 .6376-1.91284-.6376-3.8257-2.07224-1.91284-.9564-.31879-.31879 1.27522 0Z"/>
<path transform="matrix(.99644,.0837,.0837,-.99644,182.71453,174.95584)" d="M1.27522 0C-.31879 .31879-1.91284 .9564-3.8257 2.07224-1.91284 .6376-1.91284-.6376-3.8257-2.07224-1.91284-.9564-.31879-.31879 1.27522 0Z" fill="#ff0000"/>
<path transform="matrix(.99644,.0837,.0837,-.99644,182.71453,174.95584)" stroke-width="1.19553" stroke-linecap="butt" stroke-linejoin="round" fill="none" stroke="#ff0000" d="M1.27522 0C-.31879 .31879-1.91284 .9564-3.8257 2.07224-1.91284 .6376-1.91284-.6376-3.8257-2.07224-1.91284-.9564-.31879-.31879 1.27522 0Z"/>
<use data-text="0" xlink:href="#font_2_121" transform="matrix(9.9626,0,0,-9.9626,6.9950029,199.441)"/>
<path transform="matrix(1,0,0,-1,14.5,189.286)" d="M33.17091 102.3938H66.04291V124.38066H33.17091Z" fill="#ffffff"/>
<use data-text="y" xlink:href="#font_1_2" transform="matrix(9.9626,0,0,-9.9626,48.667,79.062)" fill="#ff0000"/>
<use data-text="=" xlink:href="#font_3_3" transform="matrix(9.9626,0,0,-9.9626,56.676004,79.062)" fill="#ff0000"/>
<use data-text="2" xlink:href="#font_3_1" transform="matrix(9.9626,0,0,-9.9626,68.388,72.32199)" fill="#ff0000"/>
<use data-text="4" xlink:href="#font_3_2" transform="matrix(9.9626,0,0,-9.9626,73.3693,72.32199)" fill="#ff0000"/>
<path transform="matrix(1,0,0,-1,-54.833,-97.224)" stroke-width=".3985" stroke-linecap="butt" stroke-miterlimit="10" stroke-linejoin="miter" fill="none" stroke="#ff0000" d="M123.221-173.795H133.183"/>
<use data-text="x" xlink:href="#font_1_1" transform="matrix(9.9626,0,0,-9.9626,70.522,85.895999)" fill="#ff0000"/>
</svg>
