<svg xmlns="http://www.w3.org/2000/svg" xmlns:xlink="http://www.w3.org/1999/xlink" version="1.1" width="181" height="174" viewBox="0 0 181 174">
<defs>
<path id="font_1_1" d="M.3909912 .37405396C.36299134 .37304688 .34298707 .3510437 .34298707 .32904054 .34298707 .31503297 .35198976 .30003358 .37399293 .30003358 .3959961 .30003358 .41999818 .31703187 .41999818 .35603334 .41999818 .40124513 .3769989 .4423828 .30099488 .4423828 .16899109 .4423828 .13198853 .3400421 .13198853 .29605104 .13198853 .21820069 .20599365 .20323181 .23498535 .19725037 .2869873 .18727112 .33898927 .17628479 .33898927 .12133789 .33898927 .095336917 .31599427 .011245728 .19599915 .011245728 .18199158 .011245728 .10499573 .011245728 .08198547 .064331058 .11999512 .059326173 .14498902 .08934021 .14498902 .11734009 .14498902 .14033509 .1289978 .15234375 .10798645 .15234375 .08198547 .15234375 .051986696 .1313324 .051986696 .08633423 .051986696 .029281617 .10899353-.0107421879 .19499207-.0107421879 .35699464-.0107421879 .3959961 .1103363 .3959961 .15533448 .3959961 .19125366 .3769989 .21620178 .36499024 .22817993 .33799745 .25613404 .30899049 .26112367 .2649994 .27009584 .22898865 .27807618 .18899536 .2850647 .18899536 .33003236 .18899536 .3590393 .21299744 .42037965 .30099488 .42037965 .32598878 .42037965 .37599183 .41333009 .3909912 .37405396Z"/>
<path id="font_1_2" d="M.20599365 .3996582H.2999878C.31999208 .3996582 .32998658 .3996582 .32998658 .41966249 .32998658 .43066407 .31999208 .43066407 .3019867 .43066407H.21398926C.25 .5724945 .25498963 .59246829 .25498963 .59846499 .25498963 .61546328 .24299622 .62545779 .22599793 .62545779 .22299195 .62545779 .19499207 .62446597 .18598938 .58947756L.14698792 .43066407H.052993776C.032989503 .43066407 .022994996 .43066407 .022994996 .4116516 .022994996 .3996582 .0309906 .3996582 .050994874 .3996582H.13899231C.066986087 .11608887 .06298828 .099121097 .06298828 .08114624 .06298828 .02722168 .100997928-.0107421879 .15499878-.0107421879 .25698854-.0107421879 .31399537 .13505554 .31399537 .14305115 .31399537 .1530304 .30599977 .1530304 .3019867 .1530304 .29299928 .1530304 .2919922 .15003968 .2869873 .13905335 .24398804 .035217287 .19099427 .011245728 .15699768 .011245728 .13598633 .011245728 .12599182 .024230957 .12599182 .057174684 .12599182 .08114624 .12799073 .088134769 .13198853 .10510254L.20599365 .3996582Z"/>
<path id="font_2_56" d="M.44898988 .20091248C.44898988 .31991578 .36698915 .41992188 .25898744 .41992188 .21099854 .41992188 .16799927 .4039154 .13198853 .36891175V.5641022C.1519928 .55778506 .18499756 .55078127 .21699524 .55078127 .33999635 .55078127 .4099884 .6418457 .4099884 .65493777 .4099884 .6609802 .40699769 .6660156 .3999939 .6660156 .3999939 .66607668 .39698792 .66607668 .3919983 .66308596 .37199403 .65408328 .32299806 .63378909 .2559967 .63378909 .21598816 .63409426 .16999817 .641098 .12298584 .6621094 .114990238 .6651001 .11099243 .6651001 .11099243 .6651001 .100997928 .66508486 .100997928 .657074 .100997928 .64108279V.3447113C.100997928 .3266449 .100997928 .31861878 .114990238 .31861878 .12199402 .31861878 .12399292 .32164 .12799073 .32765199 .13899231 .34371949 .17599488 .3979187 .25698854 .3979187 .30899049 .3979187 .33399964 .3517456 .34199525 .3336792 .35798646 .2965393 .3600006 .2574005 .3600006 .20721436 .3600006 .17218018 .3600006 .112197879 .33599855 .07032776 .31199647 .031448366 .2749939 .0055389406 .22898865 .0055389406 .1559906 .0055389406 .09899902 .05836487 .08198547 .1171875 .084991458 .11685181 .08799744 .115859989 .09899902 .115859989 .13198853 .115859989 .14898682 .14085388 .14898682 .16485596 .14898682 .18885803 .13198853 .21386719 .09899902 .21386719 .084991458 .21386719 .049987794 .2068634 .049987794 .16085816 .049987794 .07432556 .11898804-.022460938 .23098755-.022460938 .34700013-.022460938 .44898988 .07331848 .44898988 .20019531V.20091248Z"/>
<path id="font_2_82" d="M.4189911 0V.0309906H.3869934C.29699708 .0309906 .2939911 .041992189 .2939911 .07902527V.64012148C.2939911 .6640167 .2939911 .6660156 .2709961 .6660156 .20899964 .60227969 .12098694 .60227969 .08898926 .60227969V.57128909C.10899353 .57128909 .16799927 .57128909 .21998596 .5972748V.07902527C.21998596 .042999269 .21699524 .0309906 .1269989 .0309906H.09498596V0C.12998963 .0029907227 .21699524 .0029907227 .25698854 .0029907227 .29699708 .0029907227 .38398744 .0029907227 .4189911 0Z"/>
<path id="font_2_121" d="M.45999146 .31976319C.45999146 .39982606 .45498658 .47988893 .41999818 .5539398 .37399293 .65000918 .2919922 .6660156 .25 .6660156 .18998719 .6660156 .116989139 .64001467 .07598877 .54693606 .04399109 .47789 .038986207 .39982606 .038986207 .31976319 .038986207 .24472046 .042999269 .15464783 .083999637 .07859802 .1269989-.0024719239 .19999695-.022460938 .24899292-.022460938 .30299378-.022460938 .3789978-.0014648438 .4229889 .09359741 .45498658 .16265869 .45999146 .2407074 .45999146 .31976319M.3769989 .3317871C.3769989 .25672914 .3769989 .18867493 .3659973 .12461853 .35099793 .029556275 .2939911-.00047302247 .24899292-.00047302247 .20999146-.00047302247 .15098572 .024551392 .1329956 .12062073 .12199402 .18066406 .12199402 .2727356 .12199402 .3317871 .12199402 .39582826 .12199402 .46188355 .12998963 .5159149 .14898682 .63500979 .22399903 .64401248 .24899292 .64401248 .28199769 .64401248 .34799195 .6259918 .36698915 .52693179 .3769989 .47088624 .3769989 .39482118 .3769989 .3317871Z"/>
</defs>
<path transform="matrix(1,0,0,-1.00008,15.349998,160.90183)" stroke-width=".3985" stroke-linecap="butt" stroke-miterlimit="10" stroke-linejoin="miter" fill="none" stroke="#00aeef" d="M0 0H141.73404M0 14.17339H141.73404M0 28.3468H141.73404M0 42.5202H141.73404M0 56.69362H141.73404M0 70.867H141.73404M0 85.04042H141.73404M0 99.21382H141.73404M0 113.38724H141.73404M0 127.56062H141.73404M0 141.72905H141.73404M0 0V141.73404M14.17339 0V141.73404M28.3468 0V141.73404M42.5202 0V141.73404M56.69362 0V141.73404M70.867 0V141.73404M85.04042 0V141.73404M99.21382 0V141.73404M113.38724 0V141.73404M127.56062 0V141.73404M141.72905 0V141.73404M141.73404 141.73404"/>
<path transform="matrix(1,0,0,-1.00008,15.349998,160.90183)" stroke-width=".79701" stroke-linecap="butt" stroke-miterlimit="10" stroke-linejoin="miter" fill="none" stroke="#000000" d="M0 0H154.47283"/>
<path transform="matrix(1,0,0,-1.00008,169.82282,160.90183)" d="M1.0361 0C-.25902 .25902-1.55415 .77707-3.1083 1.68365-1.55415 .51805-1.55415-.51805-3.1083-1.68365-1.55415-.77707-.25902-.25902 1.0361 0Z"/>
<path transform="matrix(1,0,0,-1.00008,169.82282,160.90183)" stroke-width=".79701" stroke-linecap="butt" stroke-linejoin="round" fill="none" stroke="#000000" d="M1.0361 0C-.25902 .25902-1.55415 .77707-3.1083 1.68365-1.55415 .51805-1.55415-.51805-3.1083-1.68365-1.55415-.77707-.25902-.25902 1.0361 0Z"/>
<use data-text="s" xlink:href="#font_1_1" transform="matrix(9.9626,0,0,-9.963397,174.97699,163.047)"/>
<path transform="matrix(1,0,0,-1.00008,15.349998,160.90183)" stroke-width=".79701" stroke-linecap="butt" stroke-miterlimit="10" stroke-linejoin="miter" fill="none" stroke="#000000" d="M0 0V154.47283"/>
<path transform="matrix(0,-1.00008,-1,-0,15.349998,6.416641)" d="M1.0361 0C-.25902 .25902-1.55415 .77707-3.1083 1.68365-1.55415 .51805-1.55415-.51805-3.1083-1.68365-1.55415-.77707-.25902-.25902 1.0361 0Z"/>
<path transform="matrix(0,-1.00008,-1,-0,15.349998,6.416641)" stroke-width=".79701" stroke-linecap="butt" stroke-linejoin="round" fill="none" stroke="#000000" d="M1.0361 0C-.25902 .25902-1.55415 .77707-3.1083 1.68365-1.55415 .51805-1.55415-.51805-3.1083-1.68365-1.55415-.77707-.25902-.25902 1.0361 0Z"/>
<use data-text="t" xlink:href="#font_1_2" transform="matrix(9.9626,0,0,-9.963397,8.032997,8.0466)"/>
<path transform="matrix(1,0,0,-1.00008,15.349998,160.90183)" stroke-width=".79701" stroke-linecap="butt" stroke-miterlimit="10" stroke-linejoin="miter" fill="none" stroke="#00aeef" d="M70.867 0V141.73404"/>
<path transform="matrix(1,0,0,-1.00008,15.349998,160.90183)" stroke-width=".79701" stroke-linecap="butt" stroke-miterlimit="10" stroke-linejoin="miter" fill="none" stroke="#00aeef" d="M0 70.867H141.73404"/>
<path transform="matrix(1,0,0,-1.00008,15.349998,160.90183)" stroke-width=".79701" stroke-linecap="butt" stroke-miterlimit="10" stroke-linejoin="miter" fill="none" stroke="#000000" d="M70.867 1.13388V-1.1339"/>
<use data-text="5" xlink:href="#font_2_56" transform="matrix(9.9626,0,0,-9.963397,83.726,172.39075)"/>
<path transform="matrix(1,0,0,-1.00008,15.349998,160.90183)" stroke-width=".79701" stroke-linecap="butt" stroke-miterlimit="10" stroke-linejoin="miter" fill="none" stroke="#000000" d="M1.13388 70.867H-1.1339"/>
<use data-text="5" xlink:href="#font_2_56" transform="matrix(9.9626,0,0,-9.963397,5.515999,93.23742)"/>
<path transform="matrix(1,0,0,-1.00008,15.349998,160.90183)" stroke-width=".79701" stroke-linecap="butt" stroke-miterlimit="10" stroke-linejoin="miter" fill="none" stroke="#00aeef" d="M141.73404 0V141.73404"/>
<path transform="matrix(1,0,0,-1.00008,15.349998,160.90183)" stroke-width=".79701" stroke-linecap="butt" stroke-miterlimit="10" stroke-linejoin="miter" fill="none" stroke="#00aeef" d="M0 141.73404H141.73404"/>
<path transform="matrix(1,0,0,-1.00008,15.349998,160.90183)" stroke-width=".79701" stroke-linecap="butt" stroke-miterlimit="10" stroke-linejoin="miter" fill="none" stroke="#000000" d="M141.73404 1.13388V-1.1339"/>
<use data-text="1" xlink:href="#font_2_82" transform="matrix(9.9626,0,0,-9.963397,152.103,172.39075)"/>
<use data-text="0" xlink:href="#font_2_121" transform="matrix(9.9626,0,0,-9.963397,157.0843,172.39075)"/>
<path transform="matrix(1,0,0,-1.00008,15.349998,160.90183)" stroke-width=".79701" stroke-linecap="butt" stroke-miterlimit="10" stroke-linejoin="miter" fill="none" stroke="#000000" d="M1.13388 141.73404H-1.1339"/>
<use data-text="1" xlink:href="#font_2_82" transform="matrix(9.9626,0,0,-9.963397,.5339966,22.364747)"/>
<use data-text="0" xlink:href="#font_2_121" transform="matrix(9.9626,0,0,-9.963397,5.515297,22.364747)"/>
<path transform="matrix(1,0,0,-1.00008,15.349998,160.90183)" stroke-width="1.19553" stroke-linecap="butt" stroke-miterlimit="10" stroke-linejoin="miter" fill="none" stroke="#ff0000" d="M0 70.867C0 70.867 1.60005 74.02863 2.21458 75.2097 2.82913 76.39075 3.81464 78.24629 4.42918 79.37936 5.04372 80.5124 6.02924 82.29095 6.64377 83.376 7.25832 84.46106 8.24382 86.16261 8.85837 87.19965 9.4729 88.23668 10.45842 89.86124 11.07297 90.85027 11.6875 91.8393 12.67302 93.38686 13.28755 94.32787 13.9021 95.26888 14.8876 96.73946 15.50215 97.63246 16.11668 98.52545 17.1022 99.91904 17.71674 100.76404 18.33128 101.60902 19.3168 102.92561 19.93134 103.7226 20.54588 104.51956 21.53139 105.75917 22.14594 106.50813 22.76047 107.25711 23.74599 108.41971 24.36052 109.12068 24.97507 109.82162 25.96057 110.90724 26.57512 111.56018 27.18965 112.21313 28.17517 113.22174 28.78972 113.82668 29.40425 114.43161 30.38977 115.36325 31.0043 115.92017 31.61885 116.4771 32.60435 117.33173 33.2189 117.84064 33.83344 118.34955 34.81895 119.1272 35.43349 119.58809 36.04803 120.049 37.03355 120.74963 37.64809 121.16252 38.26263 121.57542 39.24814 122.19907 39.86269 122.56395 40.47722 122.92883 41.46274 123.4755 42.07727 123.79236 42.69182 124.10924 43.67732 124.5789 44.29187 124.84775 44.9064 125.11661 45.89192 125.50928 46.50647 125.73013 47.121 125.95097 48.10654 126.26665 48.72107 126.43948 49.33562 126.61234 50.32112 126.85101 50.93567 126.97585 51.5502 127.10066 52.53572 127.26234 53.15025 127.33917 53.7648 127.41599 54.7503 127.50069 55.36485 127.52948 55.97939 127.55829 56.9649 127.566 57.57945 127.5468 58.19398 127.52759 59.1795 127.45828 59.79404 127.39108 60.40858 127.32385 61.39409 127.17757 62.00864 127.06233 62.62317 126.94713 63.60869 126.72383 64.22322 126.5606 64.83777 126.39737 65.82329 126.09709 66.43782 125.88585 67.05237 125.67459 68.03787 125.29733 68.65242 125.03807 69.26695 124.77882 70.25247 124.32455 70.867 124.01727 71.48155 123.71 72.46706 123.17876 73.0816 122.82349 73.69614 122.4682 74.68166 121.85994 75.2962 121.45665 75.91074 121.05336 76.89626 120.36812 77.51079 119.91681 78.12534 119.46552 79.11084 118.70328 79.72539 118.20396 80.33992 117.70465 81.32544 116.86543 81.93997 116.3181 82.55452 115.77078 83.54004 114.85455 84.15457 114.25922 84.76912 113.6639 85.75462 112.67067 86.36917 112.02733 86.9837 111.38397 87.96922 110.31377 88.58376 109.62242 89.1983 108.93106 90.1838 107.78384 90.79836 107.04448 91.41289 106.30511 92.3984 105.08093 93.01295 104.29355 93.62749 103.50618 94.61302 102.20497 95.22755 101.36958 95.8421 100.5342 96.8276 99.15602 97.44215 98.27261 98.05669 97.38922 99.0422 95.93404 99.65674 95.00262 100.27129 94.07121 101.2568 92.53906 101.87134 91.55962 102.48587 90.5802 103.47139 88.97104 104.08594 87.9436 104.70047 86.91618 105.68599 85.23003 106.30052 84.15457 106.91507 83.07913 107.90057 81.31598 108.51512 80.19252 109.12965 79.06908 110.11517 77.22893 110.7297 76.05746 111.34425 74.886 112.32977 72.96887 112.9443 71.74939 113.55885 70.5299 114.54436 68.53578 115.1589 67.2683 115.77344 66.00081 116.75896 63.92969 117.37349 62.6142 117.98804 61.29869 118.97354 59.15057 119.58809 57.78706 120.20262 56.42355 121.18814 54.19844 121.80269 52.78691 122.41722 51.3754 123.40274 49.0733 124.01727 47.61377 124.63182 46.15424 125.61732 43.77513 126.23187 42.26761 126.8464 40.76006 127.83192 38.30397 128.44646 36.74841 129.061 35.19286 130.04653 32.65977 130.66106 31.0562 131.2756 29.45264 132.26111 26.84258 132.87566 25.191 133.49019 23.53941 134.47571 20.85236 135.09024 19.15277 135.70479 17.45317 136.69029 14.68912 137.30484 12.94153 137.91938 11.19392 138.90489 8.35287 139.51944 6.55727 140.13397 4.76164 141.73404 0 141.73404 0"/>
<use data-text="0" xlink:href="#font_2_121" transform="matrix(9.9626,0,0,-9.963397,7.845001,171.05764)"/>
</svg>
