<svg xmlns="http://www.w3.org/2000/svg" xmlns:xlink="http://www.w3.org/1999/xlink" version="1.1" width="190" height="204" viewBox="0 0 190 204">
<defs>
<path id="font_1_2" d="M.46199037 .33935548C.46699525 .36135865 .47698976 .3983612 .47698976 .40437318 .47698976 .42237855 .46299745 .43138124 .44799806 .43138124 .43598939 .43138124 .41799928 .42337037 .41099549 .4033661 .4079895 .3963623 .36099244 .205307 .35398866 .17930603 .34700013 .14929199 .34498597 .13128662 .34498597 .11328125 .34498597 .10227966 .34498597 .10028076 .34599305 .09527588 .32299806 .042266847 .29299928 .011245728 .2539978 .011245728 .17399597 .011245728 .17399597 .08526611 .17399597 .10227966 .17399597 .1342926 .1789856 .17329407 .22599793 .29634095 .23699951 .32633973 .24299622 .3403473 .24299622 .36035157 .24299622 .405365 .20999146 .4423828 .16099549 .4423828 .06599426 .4423828 .0289917 .29733277 .0289917 .28833009 .0289917 .27833558 .038986207 .27833558 .040985109 .27833558 .050994874 .27833558 .051986696 .28033448 .056991579 .29634095 .083999637 .38935853 .12298584 .42037965 .1579895 .42037965 .16699219 .42037965 .18299866 .41937257 .18299866 .38735963 .18299866 .36235047 .17199707 .3343506 .16499329 .31733705 .12098694 .1993103 .10899353 .1532898 .10899353 .11528015 .10899353 .024261475 .17599488-.0107421879 .25099183-.0107421879 .2679901-.0107421879 .31498719-.0107421879 .35499574 .059265138 .3809967-.0047454836 .44999696-.0107421879 .47999574-.0107421879 .5549927-.0107421879 .598999 .052261354 .625 .11227417 .6589966 .19030762 .69099429 .32434083 .69099429 .37236024 .69099429 .42736817 .6639862 .4423828 .6469879 .4423828 .621994 .4423828 .5970001 .41636659 .5970001 .3943634 .5970001 .38136292 .6029968 .3753662 .6119995 .36735536 .6230011 .35635377 .647995 .33035279 .647995 .28233338 .647995 .24832154 .61898806 .15029907 .59298709 .09927368 .5669861 .04626465 .5319977 .011245728 .48298646 .011245728 .43598939 .011245728 .40899659 .041259767 .40899659 .09828186 .40899659 .12628174 .41600038 .1572876 .41999818 .17129517L.46199037 .33935548Z"/>
<path id="font_1_1" d="M.1789856 .114868167C.13899231 .047973634 .099990848 .033981325 .055999757 .0309906 .04399109 .02999878 .034988405 .02999878 .034988405 .010986328 .034988405 .004989624 .039993287 0 .04798889 0 .07499695 0 .10598755 .0029907227 .13398743 .0029907227 .16699219 .0029907227 .20199585 0 .23399353 0 .23999024 0 .25299073 0 .25299073 .018997193 .25299073 .02999878 .24398804 .0309906 .23699951 .0309906 .21398926 .032989503 .18998719 .04096985 .18998719 .06593323 .18998719 .077926639 .19599915 .088897708 .20399475 .102890018L.27999879 .23068238H.5309906C.5329895 .2097168 .5469971 .07392883 .5469971 .063949588 .5469971 .033981325 .49499513 .0309906 .47499085 .0309906 .46099855 .0309906 .45098878 .0309906 .45098878 .010986328 .45098878 0 .46299745 0 .46499635 0 .5059967 0 .548996 .0029907227 .58999636 .0029907227 .61499026 .0029907227 .6779938 0 .7029877 0 .70899966 0 .72099307 0 .72099307 .019989014 .72099307 .0309906 .71099856 .0309906 .69799807 .0309906 .6359863 .0309906 .6359863 .037979127 .6329956 .06694031L.57199099 .691803C.56999209 .71180728 .56999209 .7158203 .5529938 .7158203 .5369873 .7158203 .5329895 .7088165 .5269928 .69880679L.1789856 .114868167M.29899598 .26168824 .49598695 .5917816 .5279999 .26168824H.29899598Z"/>
<path id="font_2_4" d="M.44898988 .20022583C.44898988 .3193512 .36698915 .41944886 .25898744 .41944886 .21099854 .41944886 .16799927 .40345765 .13198853 .36842347V.5637665C.1519928 .5577698 .18499756 .55078127 .21699524 .55078127 .33999635 .55078127 .4099884 .6417694 .4099884 .6547699 .4099884 .6607666 .40699769 .6657715 .3999939 .6657715 .39898683 .6657715 .39698792 .6657715 .3919983 .66278079 .37199403 .6537781 .32299806 .6337738 .2559967 .6337738 .21598816 .6337738 .16999817 .6407776 .12298584 .6617737 .114990238 .66477969 .11299133 .66477969 .11099243 .66477969 .100997928 .66477969 .100997928 .6567688 .100997928 .6407776V.34439088C.100997928 .32637025 .100997928 .31835938 .114990238 .31835938 .12199402 .31835938 .12399292 .32136537 .12799073 .32736207 .13899231 .3433838 .17599488 .39746095 .25698854 .39746095 .30899049 .39746095 .33399964 .35139466 .34199525 .33337403 .35798646 .29632569 .3600006 .25727845 .3600006 .20722962 .3600006 .17222595 .3600006 .11222839 .33599855 .07035828 .31199647 .031463624 .2749939 .0055389406 .22898865 .0055389406 .1559906 .0055389406 .09899902 .058380128 .08198547 .11723328 .084991458 .1162262 .08799744 .115234378 .09899902 .115234378 .13198853 .115234378 .14898682 .14022827 .14898682 .16423035 .14898682 .18823242 .13198853 .21322632 .09899902 .21322632 .084991458 .21322632 .049987794 .20622254 .049987794 .16023255 .049987794 .07434082 .11898804-.022460938 .23098755-.022460938 .34700013-.022460938 .44898988 .073349 .44898988 .20022583Z"/>
<path id="font_2_2" d="M.1269989 .07699585 .23298645 .18003845C.3889923 .31811524 .44898988 .3721466 .44898988 .47216798 .44898988 .5860901 .35899354 .6660156 .23699951 .6660156 .12399292 .6660156 .049987794 .57411196 .049987794 .48516847 .049987794 .4291687 .099990848 .4291687 .102996829 .4291687 .11999512 .4291687 .15499878 .44117738 .15499878 .48217774 .15499878 .5081787 .13699341 .5341797 .101989749 .5341797 .09399414 .5341797 .09199524 .5341797 .08898926 .5331726 .11199951 .59806826 .1659851 .63500979 .22399903 .63500979 .31498719 .63500979 .35798646 .5541382 .35798646 .47216798 .35798646 .39215089 .30799867 .31311036 .25299073 .25108338L.06098938 .036987306C.049987794 .025985718 .049987794 .023986817 .049987794 0H.42099L.44898988 .17404175H.42399598C.4189911 .14402771 .4119873 .1000061 .4019928 .084991458 .394989 .07699585 .32899476 .07699585 .30699159 .07699585H.1269989Z"/>
<path id="font_2_1" d="M.45999146 .31976319C.45999146 .39982606 .45498658 .47988893 .41999818 .5539398 .37399293 .65000918 .2919922 .6660156 .25 .6660156 .18998719 .6660156 .116989139 .64001467 .07598877 .54693606 .04399109 .47789 .038986207 .39982606 .038986207 .31976319 .038986207 .24472046 .042999269 .15464783 .083999637 .07859802 .1269989-.0024719239 .19999695-.022460938 .24899292-.022460938 .30299378-.022460938 .3789978-.0014648438 .4229889 .09359741 .45498658 .16265869 .45999146 .2407074 .45999146 .31976319M.24899292-.00047302247C.20999146-.00047302247 .15098572 .024551392 .1329956 .12062073 .12199402 .18066406 .12199402 .2727356 .12199402 .3317871 .12199402 .39582826 .12199402 .46188355 .12998963 .5159149 .14898682 .63500979 .22399903 .64401248 .24899292 .64401248 .28199769 .64401248 .34799195 .6259918 .36698915 .52693179 .3769989 .47088624 .3769989 .39482118 .3769989 .3317871 .3769989 .25672914 .3769989 .18867493 .3659973 .12461853 .35099793 .029556275 .2939911-.00047302247 .24899292-.00047302247Z"/>
<path id="font_2_3" d="M.2939911 .16503906V.07800293C.2939911 .041992189 .2919922 .0309906 .21798706 .0309906H.19699097V0C.23799134 .0029907227 .2899933 .0029907227 .33198548 .0029907227 .37399293 .0029907227 .4269867 .0029907227 .46798707 0V.0309906H.44699098C.37298585 .0309906 .37098695 .041992189 .37098695 .07800293V.16503906H.47099305V.19602967H.37098695V.65075686C.37098695 .67074587 .37098695 .6767578 .35499574 .6767578 .34599305 .6767578 .34298707 .6767578 .33499146 .66474917L.027999878 .19602967V.16503906H.2939911M.2999878 .19602967H.055999757L.2999878 .5688019V.19602967Z"/>
<path id="font_2_5" d="M.13198853 .327713V.35173036C.13198853 .6047821 .2559967 .64100649 .30699159 .64100649 .33099366 .64100649 .37298585 .634964 .394989 .6007538 .37998963 .6007538 .33999635 .6007538 .33999635 .5557556 .33999635 .524765 .3639984 .5097656 .38598634 .5097656 .4019928 .5097656 .43199159 .51875308 .43199159 .5577545 .43199159 .6178589 .3880005 .6660156 .30499269 .6660156 .1769867 .6660156 .041992189 .5367584 .041992189 .31570436 .041992189 .048553468 .1579895-.022460938 .25099183-.022460938 .3619995-.022460938 .45700074 .07156372 .45700074 .2036438 .45700074 .33070375 .36799623 .4267578 .25698854 .4267578 .18899536 .4267578 .1519928 .37573243 .13198853 .327713M.25099183 .0055389406C.18798828 .0055389406 .1579895 .06556702 .1519928 .080566409 .13398743 .127594 .13398743 .2076416 .13398743 .22564698 .13398743 .30369569 .1659851 .40374757 .2559967 .40374757 .27198792 .40374757 .31799317 .40374757 .34899903 .34172059 .36698915 .30470277 .36698915 .2536621 .36698915 .20463562 .36698915 .15661621 .36698915 .10658264 .34999085 .0705719 .31999208 .010528564 .27398683 .0055389406 .25099183 .0055389406Z"/>
<path id="font_3_85" d="M.33099366-.2400055C.33099366-.23701477 .33099366-.23500061 .31399537-.21800232 .18899536-.0920105 .15699768 .09700012 .15699768 .25 .15699768 .42399598 .19499207 .59799197 .31799317 .72299197 .33099366 .7350006 .33099366 .7369995 .33099366 .73999026 .33099366 .746994 .32699586 .75 .32099916 .75 .31098939 .75 .22099304 .6819916 .1619873 .5549927 .11099243 .44499208 .09899902 .33399964 .09899902 .25 .09899902 .17199707 .10998535 .050994874 .16499329-.06201172 .22499085-.18501282 .31098939-.25 .32099916-.25 .32699586-.25 .33099366-.24700928 .33099366-.2400055Z"/>
<path id="font_3_47" d="M.5269928 0V.0309906C.45700074 .0309906 .44898988 .038009645 .44898988 .0871582V.69433596L.30499269 .6826172V.6516113C.375 .6516113 .3829956 .64463809 .3829956 .59580996V.38035584C.35398866 .41636659 .31098939 .4423828 .25698854 .4423828 .13899231 .4423828 .033996583 .3443451 .033996583 .21531677 .033996583 .088272098 .13198853-.0107421879 .24598694-.0107421879 .30999757-.0107421879 .35499574 .023254395 .37998963 .055267335V-.0107421879L.5269928 0M.37998963 .117996219C.37998963 .099990848 .37998963 .09799194 .36898805 .08099365 .33898927 .033218385 .2939911 .011245728 .25099183 .011245728 .20599365 .011245728 .16999817 .037216188 .1459961 .075164798 .11999512 .1161499 .116989139 .17320252 .116989139 .21421814 .116989139 .25125123 .11898804 .31129457 .147995 .35632325 .16899109 .38734437 .20698548 .42037965 .26098634 .42037965 .29599 .42037965 .33799745 .405365 .36898805 .3603363 .37998963 .34332276 .37998963 .34132386 .37998963 .32330323V.117996219Z"/>
<path id="font_3_86" d="M.2889862 .25C.2889862 .32798768 .27799989 .44898988 .22299195 .56199648 .16299439 .68499758 .07699585 .75 .066986087 .75 .06098938 .75 .056991579 .74598696 .056991579 .73999026 .056991579 .7369995 .056991579 .7350006 .07598877 .71699526 .17399597 .6179962 .23098755 .45899964 .23098755 .25 .23098755 .07899475 .19400025-.09700012 .069992069-.2230072 .056991579-.23500061 .056991579-.23701477 .056991579-.2400055 .056991579-.2460022 .06098938-.25 .066986087-.25 .07699585-.25 .16699219-.18200684 .22599793-.055007936 .2769928 .054992677 .2889862 .16600037 .2889862 .25Z"/>
</defs>
<path transform="matrix(1.00002,0,0,-1.00006,18.813103,189.5886)" stroke-width=".3985" stroke-linecap="butt" stroke-miterlimit="10" stroke-linejoin="miter" fill="none" stroke="#00aeef" d="M0 0H141.73404M0 14.17339H141.73404M0 28.3468H141.73404M0 42.5202H141.73404M0 56.69362H141.73404M0 70.867H141.73404M0 85.04042H141.73404M0 99.21382H141.73404M0 113.38724H141.73404M0 127.56062H141.73404M0 141.73404H141.73404M0 155.90744H141.73404M0 170.07587H141.73404M0 0V170.08086M28.3468 0V170.08086M56.69362 0V170.08086M85.04042 0V170.08086M113.38724 0V170.08086M141.72409 0V170.08086M141.73404 170.08086"/>
<path transform="matrix(1.00002,0,0,-1.00006,18.813103,189.5886)" stroke-width=".79701" stroke-linecap="butt" stroke-miterlimit="10" stroke-linejoin="miter" fill="none" stroke="#000000" d="M0 0H157.30768"/>
<path transform="matrix(1.00002,0,0,-1.00006,176.12393,189.5886)" d="M1.0361 0C-.25902 .25902-1.55415 .77707-3.1083 1.68365-1.55415 .51805-1.55415-.51805-3.1083-1.68365-1.55415-.77707-.25902-.25902 1.0361 0Z"/>
<path transform="matrix(1.00002,0,0,-1.00006,176.12393,189.5886)" stroke-width=".79701" stroke-linecap="butt" stroke-linejoin="round" fill="none" stroke="#000000" d="M1.0361 0C-.25902 .25902-1.55415 .77707-3.1083 1.68365-1.55415 .51805-1.55415-.51805-3.1083-1.68365-1.55415-.77707-.25902-.25902 1.0361 0Z"/>
<use data-text="w" xlink:href="#font_1_2" transform="matrix(9.962799,0,0,-9.963197,181.27735,191.73372)"/>
<path transform="matrix(1.00002,0,0,-1.00006,18.813103,189.5886)" stroke-width=".79701" stroke-linecap="butt" stroke-miterlimit="10" stroke-linejoin="miter" fill="none" stroke="#000000" d="M0 0V182.81964"/>
<path transform="matrix(0,-1.00006,-1.00002,-0,18.813103,6.7579958)" d="M1.0361 0C-.25902 .25902-1.55415 .77707-3.1083 1.68365-1.55415 .51805-1.55415-.51805-3.1083-1.68365-1.55415-.77707-.25902-.25902 1.0361 0Z"/>
<path transform="matrix(0,-1.00006,-1.00002,-0,18.813103,6.7579958)" stroke-width=".79701" stroke-linecap="butt" stroke-linejoin="round" fill="none" stroke="#000000" d="M1.0361 0C-.25902 .25902-1.55415 .77707-3.1083 1.68365-1.55415 .51805-1.55415-.51805-3.1083-1.68365-1.55415-.77707-.25902-.25902 1.0361 0Z"/>
<use data-text="A" xlink:href="#font_1_1" transform="matrix(9.962799,0,0,-9.963197,8.617897,8.727737)"/>
<path transform="matrix(1.00002,0,0,-1.00006,18.813103,189.5886)" stroke-width="1.19553" stroke-linecap="butt" stroke-miterlimit="10" stroke-linejoin="miter" fill="none" stroke="#00aeef" d="M141.73404 0V170.08086"/>
<path transform="matrix(1.00002,0,0,-1.00006,18.813103,189.5886)" stroke-width=".79701" stroke-linecap="butt" stroke-miterlimit="10" stroke-linejoin="miter" fill="none" stroke="#000000" d="M141.73404 2.12592V-2.12613"/>
<path transform="matrix(1.00002,0,0,-1.00006,18.813103,189.5886)" d="M138.24707-12.93018H145.22101V-4.5171997H138.24707Z" fill="#ffffff"/>
<use data-text="5" xlink:href="#font_2_4" transform="matrix(9.962799,0,0,-9.963197,158.0589,201.52332)"/>
<path transform="matrix(1.00002,0,0,-1.00006,18.813103,189.5886)" stroke-width="1.19553" stroke-linecap="butt" stroke-miterlimit="10" stroke-linejoin="miter" fill="none" stroke="#00aeef" d="M0 56.69362H141.73404"/>
<path transform="matrix(1.00002,0,0,-1.00006,18.813103,189.5886)" stroke-width=".79701" stroke-linecap="butt" stroke-miterlimit="10" stroke-linejoin="miter" fill="none" stroke="#000000" d="M4.25183 56.69362H-4.25227"/>
<path transform="matrix(1.00002,0,0,-1.00006,18.813103,189.5886)" d="M-18.59868 52.48712H-6.64334V60.9001H-18.59868Z" fill="#ffffff"/>
<use data-text="2" xlink:href="#font_2_2" transform="matrix(9.962799,0,0,-9.963197,1.2107468,136.10239)"/>
<use data-text="0" xlink:href="#font_2_1" transform="matrix(9.962799,0,0,-9.963197,6.1921465,136.10239)"/>
<path transform="matrix(1.00002,0,0,-1.00006,18.813103,189.5886)" stroke-width="1.19553" stroke-linecap="butt" stroke-miterlimit="10" stroke-linejoin="miter" fill="none" stroke="#00aeef" d="M0 113.38724H141.73404"/>
<path transform="matrix(1.00002,0,0,-1.00006,18.813103,189.5886)" stroke-width=".79701" stroke-linecap="butt" stroke-miterlimit="10" stroke-linejoin="miter" fill="none" stroke="#000000" d="M4.25183 113.38724H-4.25227"/>
<path transform="matrix(1.00002,0,0,-1.00006,18.813103,189.5886)" d="M-18.59868 109.18074H-6.64334V117.59372H-18.59868Z" fill="#ffffff"/>
<use data-text="4" xlink:href="#font_2_3" transform="matrix(9.962799,0,0,-9.963197,1.2107468,79.40498)"/>
<use data-text="0" xlink:href="#font_2_1" transform="matrix(9.962799,0,0,-9.963197,6.1921465,79.40498)"/>
<path transform="matrix(1.00002,0,0,-1.00006,18.813103,189.5886)" stroke-width="1.19553" stroke-linecap="butt" stroke-miterlimit="10" stroke-linejoin="miter" fill="none" stroke="#00aeef" d="M0 170.08086H141.73404"/>
<path transform="matrix(1.00002,0,0,-1.00006,18.813103,189.5886)" stroke-width=".79701" stroke-linecap="butt" stroke-miterlimit="10" stroke-linejoin="miter" fill="none" stroke="#000000" d="M4.25183 170.08086H-4.25227"/>
<path transform="matrix(1.00002,0,0,-1.00006,18.813103,189.5886)" d="M-18.59868 165.87436H-6.64334V174.28734H-18.59868Z" fill="#ffffff"/>
<use data-text="6" xlink:href="#font_2_5" transform="matrix(9.962799,0,0,-9.963197,1.2107468,22.70758)"/>
<use data-text="0" xlink:href="#font_2_1" transform="matrix(9.962799,0,0,-9.963197,6.1921465,22.70758)"/>
<path transform="matrix(1.00002,0,0,-1.00006,18.813103,189.5886)" stroke-width="1.59404" stroke-linecap="butt" stroke-miterlimit="10" stroke-linejoin="miter" fill="none" stroke="#ff0000" d="M0 0C0 0 1.60005 .0152 2.21458 .03436 2.82913 .05353 3.81464 .09978 4.42918 .13818 5.04372 .17659 6.02924 .25359 6.64377 .31119 7.25832 .3688 8.24382 .47661 8.85837 .55342 9.4729 .63023 10.45842 .76883 11.07297 .86485 11.6875 .96086 12.67302 1.13026 13.28755 1.24547 13.9021 1.3607 14.8876 1.5609 15.50215 1.69531 16.11668 1.82974 17.1022 2.06073 17.71674 2.21436 18.33128 2.368 19.3168 2.62978 19.93134 2.80261 20.54588 2.97546 21.53139 3.26804 22.14594 3.46007 22.76047 3.65211 23.74599 3.9755 24.36052 4.18674 24.97507 4.39798 25.96057 4.75217 26.57512 4.9826 27.18965 5.21306 28.17517 5.59802 28.78972 5.84767 29.40425 6.09734 30.38977 6.51309 31.0043 6.78197 31.61885 7.05083 32.60435 7.49739 33.2189 7.78546 33.83344 8.07352 34.81895 8.55087 35.43349 8.85814 36.04803 9.16542 37.03355 9.67357 37.64809 10.00005 38.26263 10.3265 39.24814 10.86546 39.86269 11.21115 40.47722 11.55682 41.46274 12.1266 42.07727 12.49147 42.69182 12.85635 43.67732 13.45694 44.29187 13.84099 44.9064 14.22505 45.89192 14.85623 46.50647 15.25949 47.121 15.66275 48.10654 16.32492 48.72107 16.74742 49.33562 17.1699 50.32112 17.86287 50.93567 18.30455 51.5502 18.74626 52.53572 19.47 53.15025 19.9309 53.7648 20.3918 54.7503 21.14635 55.36485 21.62645 55.97939 22.10655 56.9649 22.89189 57.57945 23.3912 58.19398 23.8905 59.1795 24.70667 59.79404 25.22517 60.40858 25.7437 61.39409 26.59065 62.00864 27.12833 62.62317 27.66603 63.60869 28.5436 64.22322 29.10048 64.83777 29.65738 65.82329 30.56595 66.43782 31.14206 67.05237 31.7182 68.03787 32.65752 68.65242 33.25285 69.26695 33.84819 70.25247 34.81831 70.867 35.43286 71.48155 36.0474 72.46706 37.04831 73.0816 37.68205 73.69614 38.3158 74.68166 39.3475 75.2962 40.00046 75.91074 40.6534 76.89626 41.71594 77.51079 42.38806 78.12534 43.0602 79.11084 44.15334 79.72539 44.84467 80.33992 45.53598 81.32544 46.66013 81.93997 47.37068 82.55452 48.08125 83.54004 49.23615 84.15457 49.96591 84.76912 50.69568 85.75462 51.88136 86.36917 52.63034 86.9837 53.3793 87.96922 54.59584 88.58376 55.36398 89.1983 56.13213 90.1838 57.37927 90.79836 58.16661 91.41289 58.95396 92.3984 60.23209 93.01295 61.03867 93.62749 61.84525 94.61302 63.15413 95.22755 63.97992 95.8421 64.80571 96.8276 66.1454 97.44215 66.99039 98.05669 67.83539 99.0422 69.20589 99.65674 70.07007 100.27129 70.93422 101.2568 72.33536 101.87134 73.21872 102.48587 74.1021 103.47139 75.5342 104.08594 76.4368 104.70047 77.3394 105.68599 78.80228 106.30052 79.72409 106.91507 80.64589 107.90057 82.1396 108.51512 83.08058 109.12965 84.02158 110.11517 85.54588 110.7297 86.50607 111.34425 87.46626 112.32977 89.02155 112.9443 90.00098 113.55885 90.9804 114.54436 92.56647 115.1589 93.56508 115.77344 94.56372 116.75896 96.1806 117.37349 97.1984 117.98804 98.2162 118.97354 99.86372 119.58809 100.90073 120.20262 101.93773 121.18814 103.61621 121.80269 104.67245 122.41722 105.72868 123.40274 107.43794 124.01727 108.51338 124.63182 109.58882 125.61732 111.32892 126.23187 112.42354 126.8464 113.51816 127.83192 115.28883 128.44646 116.40266 129.061 117.51648 130.04653 119.31816 130.66106 120.45122 131.2756 121.58427 132.26111 123.41675 132.87566 124.56898 133.49019 125.72122 134.47571 127.5843 135.09024 128.75574 135.70479 129.92717 136.69029 131.82123 137.30484 133.0119 137.91938 134.20258 138.90489 136.12741 139.51944 137.33728 140.13397 138.54717 141.73404 141.73188 140.69641 139.66666"/>
<path transform="matrix(.448939,-.89356359,-.89352789,-.4489569,159.51233,49.913576)" d="M1.51433 0C-.37857 .37857-2.27148 1.13573-4.54298 2.46077-2.27148 .75716-2.27148-.75716-4.54298-2.46077-2.27148-1.13573-.37857-.37857 1.51433 0Z" fill="#ff0000"/>
<path transform="matrix(.448939,-.89356359,-.89352789,-.4489569,159.51233,49.913576)" stroke-width="1.59404" stroke-linecap="butt" stroke-linejoin="round" fill="none" stroke="#ff0000" d="M1.51433 0C-.37857 .37857-2.27148 1.13573-4.54298 2.46077-2.27148 .75716-2.27148-.75716-4.54298-2.46077-2.27148-1.13573-.37857-.37857 1.51433 0Z"/>
<path transform="matrix(1.00002,0,0,-1.00006,18.813103,189.5886)" d="M141.70487 136.06455C141.70487 137.6301 140.43576 138.8992 138.87021 138.8992 137.30464 138.8992 136.03554 137.6301 136.03554 136.06455 136.03554 134.49898 137.30464 133.22988 138.87021 133.22988 140.43576 133.22988 141.70487 134.49898 141.70487 136.06455ZM138.87021 136.06455" fill="#0000ff"/>
<path transform="matrix(1.00002,0,0,-1.00006,18.813103,189.5886)" stroke-width=".3985" stroke-linecap="butt" stroke-miterlimit="10" stroke-linejoin="miter" fill="none" stroke="#0000ff" d="M141.70487 136.06455C141.70487 137.6301 140.43576 138.8992 138.87021 138.8992 137.30464 138.8992 136.03554 137.6301 136.03554 136.06455 136.03554 134.49898 137.30464 133.22988 138.87021 133.22988 140.43576 133.22988 141.70487 134.49898 141.70487 136.06455ZM138.87021 136.06455"/>
<path transform="matrix(1.00002,0,0,-1.00006,18.813103,189.5886)" d="M117.4104 136.2638H132.69329V148.21909H117.4104Z" fill="#ffffff"/>
<use data-text="(" xlink:href="#font_3_85" transform="matrix(9.962799,0,0,-9.963197,137.22248,49.82921)" fill="#0000ff"/>
<use data-text="d" xlink:href="#font_3_47" transform="matrix(9.962799,0,0,-9.963197,141.09799,49.82921)" fill="#0000ff"/>
<use data-text=")" xlink:href="#font_3_86" transform="matrix(9.962799,0,0,-9.963197,146.63733,49.82921)" fill="#0000ff"/>
</svg>
