<svg xmlns="http://www.w3.org/2000/svg" xmlns:xlink="http://www.w3.org/1999/xlink" version="1.1" width="157" height="226" viewBox="0 0 157 226">
<defs>
<path id="font_1_1" d="M.33399964 .30233766C.33999635 .32835389 .36299134 .42037965 .43299867 .42037965 .43798829 .42037965 .46199037 .42037965 .48298646 .40734864 .45498658 .402359 .43499757 .37734986 .43499757 .35334779 .43499757 .33735658 .44599916 .31835938 .47299195 .31835938 .49499513 .31835938 .5269928 .3363495 .5269928 .37635804 .5269928 .42837525 .46798707 .4423828 .43399049 .4423828 .37599183 .4423828 .34098817 .38935853 .32899476 .36634828 .3039856 .43237306 .25 .4423828 .22099304 .4423828 .116989139 .4423828 .05999756 .3133545 .05999756 .28834535 .05999756 .27833558 .069992069 .27833558 .07199097 .27833558 .07998657 .27833558 .08299255 .28033448 .084991458 .28933717 .11898804 .39535523 .18499756 .42037965 .21899414 .42037965 .23799134 .42037965 .272995 .4113617 .272995 .35334779 .272995 .32235719 .2559967 .25532533 .21899414 .11528015 .20298767 .053268434 .16799927 .011245728 .12399292 .011245728 .117996219 .011245728 .09498596 .011245728 .07398987 .024276734 .09899902 .029266358 .12098694 .05027771 .12098694 .07827759 .12098694 .105270389 .09899902 .11328125 .083999637 .11328125 .053985597 .11328125 .0289917 .08728027 .0289917 .055267335 .0289917 .009246826 .07899475-.0107421879 .12298584-.0107421879 .18899536-.0107421879 .22499085 .059280397 .22799683 .0652771 .23999024 .028274537 .27598573-.0107421879 .33599855-.0107421879 .43899537-.0107421879 .49598695 .118270877 .49598695 .14328003 .49598695 .1532898 .4869995 .1532898 .48399354 .1532898 .47499085 .1532898 .47299195 .14929199 .47099305 .14228821 .43798829 .03527832 .36999513 .011245728 .33799745 .011245728 .29899598 .011245728 .2829895 .043273927 .2829895 .07727051 .2829895 .09927368 .2889862 .121276859 .2999878 .16529846L.33399964 .30233766Z"/>
<path id="font_1_2" d="M.48599244 .38136292C.48999024 .39537049 .48999024 .39736939 .48999024 .40437318 .48999024 .42237855 .47599793 .43138124 .46099855 .43138124 .45098878 .43138124 .43499757 .42536927 .42599488 .41036988 .42399598 .405365 .41600038 .37435914 .4119873 .35635377 .40499879 .33035279 .397995 .30334474 .3919983 .27633668L.34700013 .09628296C.34298707 .08126831 .2999878 .011245728 .23399353 .011245728 .18299866 .011245728 .17199707 .055267335 .17199707 .0922699 .17199707 .1382904 .18899536 .20030213 .22299195 .28833009 .23899842 .3293457 .24299622 .3403473 .24299622 .36035157 .24299622 .405365 .21099854 .4423828 .16099549 .4423828 .06599426 .4423828 .0289917 .29733277 .0289917 .28833009 .0289917 .27833558 .038986207 .27833558 .040985109 .27833558 .050994874 .27833558 .051986696 .28033448 .056991579 .29634095 .083999637 .3903656 .12399292 .42037965 .1579895 .42037965 .1659851 .42037965 .18299866 .42037965 .18299866 .3883667 .18299866 .36335755 .17298889 .3373413 .1659851 .31834413 .12599182 .21231079 .10798645 .1552887 .10798645 .10827637 .10798645 .019256592 .17098999-.0107421879 .22999573-.0107421879 .2689972-.0107421879 .30299378 .0062561037 .33099366 .03425598 .31799317-.017745972 .30599977-.06674194 .2659912-.11973572 .23999024-.15385437 .20199585-.18309021 .1559906-.18309021 .14199829-.18309021 .09700012-.18005371 .07998657-.14074707 .09599304-.14074707 .10899353-.14074707 .12298584-.1287384 .1329956-.11973572 .14299011-.10673523 .14299011-.08773804 .14299011-.056747438 .115997318-.052734376 .10598755-.052734376 .08299255-.052734376 .049987794-.068740848 .049987794-.11773682 .049987794-.16796875 .09399414-.20507813 .1559906-.20507813 .25898744-.20507813 .3619995-.11373901 .3899994-.00074768069L.48599244 .38136292Z"/>
<path id="font_2_4" d="M.44898988 .20022583C.44898988 .3193512 .36698915 .41944886 .25898744 .41944886 .21099854 .41944886 .16799927 .40345765 .13198853 .36842347V.5637665C.1519928 .5577698 .18499756 .55078127 .21699524 .55078127 .33999635 .55078127 .4099884 .6417694 .4099884 .6547699 .4099884 .6607666 .40699769 .6657715 .3999939 .6657715 .39898683 .6657715 .39698792 .6657715 .3919983 .66278079 .37199403 .6537781 .32299806 .6337738 .2559967 .6337738 .21598816 .6337738 .16999817 .6407776 .12298584 .6617737 .114990238 .66477969 .11299133 .66477969 .11099243 .66477969 .100997928 .66477969 .100997928 .6567688 .100997928 .6407776V.34439088C.100997928 .32637025 .100997928 .31835938 .114990238 .31835938 .12199402 .31835938 .12399292 .32136537 .12799073 .32736207 .13899231 .3433838 .17599488 .39746095 .25698854 .39746095 .30899049 .39746095 .33399964 .35139466 .34199525 .33337403 .35798646 .29632569 .3600006 .25727845 .3600006 .20722962 .3600006 .17222595 .3600006 .11222839 .33599855 .07035828 .31199647 .031463624 .2749939 .0055389406 .22898865 .0055389406 .1559906 .0055389406 .09899902 .058380128 .08198547 .11723328 .084991458 .1162262 .08799744 .115234378 .09899902 .115234378 .13198853 .115234378 .14898682 .14022827 .14898682 .16423035 .14898682 .18823242 .13198853 .21322632 .09899902 .21322632 .084991458 .21322632 .049987794 .20622254 .049987794 .16023255 .049987794 .07434082 .11898804-.022460938 .23098755-.022460938 .34700013-.022460938 .44898988 .073349 .44898988 .20022583Z"/>
<path id="font_2_2" d="M.2939911 .64004519C.2939911 .66400149 .2939911 .6660156 .2709961 .6660156 .20899964 .60227969 .12098694 .60227969 .08898926 .60227969V.57128909C.10899353 .57128909 .16799927 .57128909 .21998596 .5972748V.07902527C.21998596 .042999269 .21699524 .0309906 .1269989 .0309906H.09498596V0C.12998963 .0029907227 .21699524 .0029907227 .25698854 .0029907227 .29699708 .0029907227 .38398744 .0029907227 .4189911 0V.0309906H.3869934C.29699708 .0309906 .2939911 .041992189 .2939911 .07902527V.64004519Z"/>
<path id="font_2_1" d="M.45999146 .31976319C.45999146 .39982606 .45498658 .47988893 .41999818 .5539398 .37399293 .65000918 .2919922 .6660156 .25 .6660156 .18998719 .6660156 .116989139 .64001467 .07598877 .54693606 .04399109 .47789 .038986207 .39982606 .038986207 .31976319 .038986207 .24472046 .042999269 .15464783 .083999637 .07859802 .1269989-.0024719239 .19999695-.022460938 .24899292-.022460938 .30299378-.022460938 .3789978-.0014648438 .4229889 .09359741 .45498658 .16265869 .45999146 .2407074 .45999146 .31976319M.24899292-.00047302247C.20999146-.00047302247 .15098572 .024551392 .1329956 .12062073 .12199402 .18066406 .12199402 .2727356 .12199402 .3317871 .12199402 .39582826 .12199402 .46188355 .12998963 .5159149 .14898682 .63500979 .22399903 .64401248 .24899292 .64401248 .28199769 .64401248 .34799195 .6259918 .36698915 .52693179 .3769989 .47088624 .3769989 .39482118 .3769989 .3317871 .3769989 .25672914 .3769989 .18867493 .3659973 .12461853 .35099793 .029556275 .2939911-.00047302247 .24899292-.00047302247Z"/>
<path id="font_3_1" d="M.6589966 .23046875C.6759949 .23046875 .69400027 .23046875 .69400027 .25045777 .69400027 .27046205 .6759949 .27046205 .6589966 .27046205H.117996219C.100997928 .27046205 .08299255 .27046205 .08299255 .25045777 .08299255 .23046875 .100997928 .23046875 .117996219 .23046875H.6589966Z"/>
<path id="font_2_3" d="M.1269989 .07699585 .23298645 .18003845C.3889923 .31811524 .44898988 .3721466 .44898988 .47216798 .44898988 .5860901 .35899354 .6660156 .23699951 .6660156 .12399292 .6660156 .049987794 .57411196 .049987794 .48516847 .049987794 .4291687 .099990848 .4291687 .102996829 .4291687 .11999512 .4291687 .15499878 .44117738 .15499878 .48217774 .15499878 .5081787 .13699341 .5341797 .101989749 .5341797 .09399414 .5341797 .09199524 .5341797 .08898926 .5331726 .11199951 .59806826 .1659851 .63500979 .22399903 .63500979 .31498719 .63500979 .35798646 .5541382 .35798646 .47216798 .35798646 .39215089 .30799867 .31311036 .25299073 .25108338L.06098938 .036987306C.049987794 .025985718 .049987794 .023986817 .049987794 0H.42099L.44898988 .17404175H.42399598C.4189911 .14402771 .4119873 .1000061 .4019928 .084991458 .394989 .07699585 .32899476 .07699585 .30699159 .07699585H.1269989Z"/>
</defs>
<path transform="matrix(1.00003,0,0,-1.00002,29.026429,68.81412)" stroke-width=".3985" stroke-linecap="butt" stroke-miterlimit="10" stroke-linejoin="miter" fill="none" stroke="#00aeef" d="M-27.21355-155.90744H108.85423M-27.21355-141.73404H108.85423M-27.21355-127.56062H108.85423M-27.21355-113.38724H108.85423M-27.21355-99.21382H108.85423M-27.21355-85.04042H108.85423M-27.21355-70.867H108.85423M-27.21355-56.69362H108.85423M-27.21355-42.5202H108.85423M-27.21355-28.3468H108.85423M-27.21355-14.17339H108.85423M-27.21355 0H108.85423M-27.21355 14.17339H108.85423M-27.21355 28.3468H108.85423M-27.21355 42.5202H108.85423M-27.21355 56.69112H108.85423M-27.21355-155.90744V56.69362M-18.14235-155.90744V56.69362M-9.07117-155.90744V56.69362M0-155.90744V56.69362M9.07117-155.90744V56.69362M18.14235-155.90744V56.69362M27.21355-155.90744V56.69362M36.28473-155.90744V56.69362M45.35591-155.90744V56.69362M54.42711-155.90744V56.69362M63.49829-155.90744V56.69362M72.56947-155.90744V56.69362M81.64067-155.90744V56.69362M90.71185-155.90744V56.69362M99.78304-155.90744V56.69362M108.85104-155.90744V56.69362M108.85423 56.69362"/>
<path transform="matrix(1.00003,0,0,-1.00002,29.026429,68.81412)" stroke-width=".79701" stroke-linecap="butt" stroke-miterlimit="10" stroke-linejoin="miter" fill="none" stroke="#000000" d="M-27.21355 0H116.49081"/>
<path transform="matrix(1.00003,0,0,-1.00002,145.52074,68.81412)" d="M1.0361 0C-.25902 .25902-1.55415 .77707-3.1083 1.68365-1.55415 .51805-1.55415-.51805-3.1083-1.68365-1.55415-.77707-.25902-.25902 1.0361 0Z"/>
<path transform="matrix(1.00003,0,0,-1.00002,145.52074,68.81412)" stroke-width=".79701" stroke-linecap="butt" stroke-linejoin="round" fill="none" stroke="#000000" d="M1.0361 0C-.25902 .25902-1.55415 .77707-3.1083 1.68365-1.55415 .51805-1.55415-.51805-3.1083-1.68365-1.55415-.77707-.25902-.25902 1.0361 0Z"/>
<use data-text="x" xlink:href="#font_1_1" transform="matrix(9.962899,0,0,-9.962799,150.67407,70.95916)"/>
<path transform="matrix(1.00003,0,0,-1.00002,29.026429,68.81412)" stroke-width=".79701" stroke-linecap="butt" stroke-miterlimit="10" stroke-linejoin="miter" fill="none" stroke="#000000" d="M0-155.90744V62.34569"/>
<path transform="matrix(0,-1.00002,-1.00003,-0,29.026429,6.4671785)" d="M1.0361 0C-.25902 .25902-1.55415 .77707-3.1083 1.68365-1.55415 .51805-1.55415-.51805-3.1083-1.68365-1.55415-.77707-.25902-.25902 1.0361 0Z"/>
<path transform="matrix(0,-1.00002,-1.00003,-0,29.026429,6.4671785)" stroke-width=".79701" stroke-linecap="butt" stroke-linejoin="round" fill="none" stroke="#000000" d="M1.0361 0C-.25902 .25902-1.55415 .77707-3.1083 1.68365-1.55415 .51805-1.55415-.51805-3.1083-1.68365-1.55415-.77707-.25902-.25902 1.0361 0Z"/>
<use data-text="y" xlink:href="#font_1_2" transform="matrix(9.962899,0,0,-9.962799,22.05722,6.2088625)"/>
<path transform="matrix(1.00003,0,0,-1.00002,29.026429,68.81412)" stroke-width="1.19553" stroke-linecap="butt" stroke-miterlimit="10" stroke-linejoin="miter" fill="none" stroke="#00aeef" d="M45.35591-155.90744V56.69362"/>
<path transform="matrix(1.00003,0,0,-1.00002,29.026429,68.81412)" stroke-width=".79701" stroke-linecap="butt" stroke-miterlimit="10" stroke-linejoin="miter" fill="none" stroke="#000000" d="M45.35591 1.06294V-1.06305"/>
<path transform="matrix(1.00003,0,0,-1.00002,29.026429,68.81412)" d="M41.86894-11.8671H48.84288V-3.4541198H41.86894Z" fill="#ffffff"/>
<use data-text="5" xlink:href="#font_2_4" transform="matrix(9.962899,0,0,-9.962799,71.892719,79.68533)"/>
<path transform="matrix(1.00003,0,0,-1.00002,29.026429,68.81412)" stroke-width="1.19553" stroke-linecap="butt" stroke-miterlimit="10" stroke-linejoin="miter" fill="none" stroke="#00aeef" d="M90.71185-155.90744V56.69362"/>
<path transform="matrix(1.00003,0,0,-1.00002,29.026429,68.81412)" stroke-width=".79701" stroke-linecap="butt" stroke-miterlimit="10" stroke-linejoin="miter" fill="none" stroke="#000000" d="M90.71185 1.06294V-1.06305"/>
<path transform="matrix(1.00003,0,0,-1.00002,29.026429,68.81412)" d="M84.73418-11.8671H96.689517V-3.4541198H84.73418Z" fill="#ffffff"/>
<use data-text="1" xlink:href="#font_2_2" transform="matrix(9.962899,0,0,-9.962799,114.75901,79.68533)"/>
<use data-text="0" xlink:href="#font_2_1" transform="matrix(9.962899,0,0,-9.962799,119.74046,79.68533)"/>
<path transform="matrix(1.00003,0,0,-1.00002,29.026429,68.81412)" stroke-width="1.19553" stroke-linecap="butt" stroke-miterlimit="10" stroke-linejoin="miter" fill="none" stroke="#00aeef" d="M-27.21355-70.867H108.85423"/>
<path transform="matrix(1.00003,0,0,-1.00002,29.026429,68.81412)" stroke-width=".79701" stroke-linecap="butt" stroke-miterlimit="10" stroke-linejoin="miter" fill="none" stroke="#000000" d="M1.3606-70.867H-1.36075"/>
<path transform="matrix(1.00003,0,0,-1.00002,29.026429,68.81412)" d="M-23.45601-75.48862H-3.75181V-66.245388H-23.45601Z" fill="#ffffff"/>
<use data-text="&#x2212;" xlink:href="#font_3_1" transform="matrix(9.962899,0,0,-9.962799,6.56575,142.47759)"/>
<use data-text="1" xlink:href="#font_2_2" transform="matrix(9.962899,0,0,-9.962799,14.31498,142.47759)"/>
<use data-text="0" xlink:href="#font_2_1" transform="matrix(9.962899,0,0,-9.962799,19.296433,142.47759)"/>
<path transform="matrix(1.00003,0,0,-1.00002,29.026429,68.81412)" stroke-width="1.19553" stroke-linecap="butt" stroke-miterlimit="10" stroke-linejoin="miter" fill="none" stroke="#00aeef" d="M-27.21355-141.73404H108.85423"/>
<path transform="matrix(1.00003,0,0,-1.00002,29.026429,68.81412)" stroke-width=".79701" stroke-linecap="butt" stroke-miterlimit="10" stroke-linejoin="miter" fill="none" stroke="#000000" d="M1.3606-141.73404H-1.36075"/>
<path transform="matrix(1.00003,0,0,-1.00002,29.026429,68.81412)" d="M-23.45601-146.35565H-3.75181V-137.11243H-23.45601Z" fill="#ffffff"/>
<use data-text="&#x2212;" xlink:href="#font_3_1" transform="matrix(9.962899,0,0,-9.962799,6.56575,213.34603)"/>
<use data-text="2" xlink:href="#font_2_3" transform="matrix(9.962899,0,0,-9.962799,14.31498,213.34603)"/>
<use data-text="0" xlink:href="#font_2_1" transform="matrix(9.962899,0,0,-9.962799,19.296433,213.34603)"/>
<path transform="matrix(1.00003,0,0,-1.00002,29.026429,68.81412)" stroke-width="1.59404" stroke-linecap="butt" stroke-miterlimit="10" stroke-linejoin="miter" fill="none" stroke="#ff0000" d="M-7.11469 54.39844C-6.30501 47.73978-6.30501 47.73978-5.88693 44.37622-5.46884 41.01265-4.79836 35.70569-4.38028 32.4506-3.96219 29.19553-3.2917 24.06247-2.87363 20.9159-2.45554 17.76933-1.78505 12.81038-1.36697 9.77231-.94888 6.73425-.27841 1.94922 .13963-.98033 .55772-3.90991 1.22821-8.52094 1.64629-11.342 2.06438-14.16307 2.73486-18.60008 3.15294-21.31265 3.57103-24.0252 4.24152-28.28821 4.65959-30.89229 5.07768-33.49635 5.74817-37.58543 6.16624-40.08101 6.58434-42.57658 7.25482-46.49155 7.6729-48.87862 8.09099-51.26569 8.76146-55.00674 9.17955-57.28532 9.59764-59.5639 10.26811-63.13094 10.68619-65.30101 11.10428-67.47107 11.77477-70.86409 12.19284-72.92567 12.61093-74.98724 13.28142-78.20638 13.6995-80.15945 14.11758-82.11252 14.78807-85.1575 15.20615-87.00209 15.62424-88.84665 16.29472-91.71774 16.7128-93.45383 17.13089-95.1899 17.80138-97.88698 18.21945-99.51454 18.63754-101.14212 19.30803-103.66519 19.7261-105.18425 20.1442-106.70332 20.81467-109.05237 21.23276-110.46295 21.65085-111.8735 22.32132-114.04855 22.7394-115.35063 23.15749-116.6527 23.82797-118.65381 24.24605-119.84738 24.66414-121.04097 25.33463-122.86809 25.7527-123.95316 26.17079-125.03824 26.84128-126.69131 27.25935-127.6679 27.67744-128.64447 28.34793-130.12357 28.766-130.99163 29.1841-131.8597 29.85458-133.16477 30.27266-133.92435 30.69075-134.68393 31.36124-135.81508 31.77931-136.46616 32.1974-137.11724 32.86787-138.07427 33.28595-138.61685 33.70406-139.15941 34.37453-139.94255 34.7926-140.37664 35.2107-140.8107 35.88118-141.4198 36.29926-141.74538 36.71735-142.07099 37.38783-142.50617 37.80591-142.72325 38.224-142.94034 38.89449-143.20143 39.31256-143.30998 39.73065-143.41857 40.40114-143.50563 40.81921-143.5057 41.2373-143.50579 41.90778-143.41895 42.32585-143.31053 42.74394-143.20212 43.41444-142.94124 43.83252-142.72434 44.25061-142.50742 44.92108-142.07253 45.33916-141.74712 45.75725-141.4217 46.42773-140.81291 46.84581-140.379 47.2639-139.94509 47.93439-139.16217 48.35246-138.61977 48.77055-138.07735 49.44104-137.12053 49.85912-136.4696 50.2772-135.8187 50.9477-134.68778 51.36577-133.92835 51.78386-133.16892 52.45433-131.86408 52.87242-130.99617 53.29051-130.12828 53.96098-128.6495 54.37906-127.6731 54.79715-126.69669 55.46764-125.04381 55.88573-123.95888 56.30382-122.87398 56.97429-121.0472 57.39236-119.85378 57.81046-118.66035 58.48094-116.65947 58.89902-115.35754 59.31711-114.05562 59.9876-111.88083 60.40567-110.4704 60.82376-109.05998 61.49425-106.71117 61.91232-105.19226 62.33041-103.67334 63.0009-101.1505 63.41898-99.52309 63.83707-97.89568 64.50754-95.19891 64.92561-93.46301 65.34372-91.72711 66.01419-88.85635 66.43227-87.01192 66.85036-85.16751 67.52084-82.12263 67.93892-80.16971 68.35701-78.21678 69.0275-74.99802 69.44557-72.93658 69.86366-70.87518 70.53415-67.48236 70.95222-65.31247 71.37032-63.14256 72.0408-59.57584 72.45888-57.29744 72.87697-55.01903 73.54745-51.27818 73.96553-48.89127 74.38362-46.50435 75.05411-42.58961 75.47218-40.09421 75.89027-37.5988 76.56075-33.51003 76.97882-30.90611 77.39693-28.30222 78.0674-24.03944 78.48547-21.32703 78.90356-18.61462 79.57405-14.17784 79.99213-11.35692 80.41022-8.536 81.0807-3.9252 81.49878-.9958 81.91687 1.9336 82.58736 6.7183 83.00543 9.7562 83.42352 12.7941 84.09401 17.75285 84.51208 20.89925 84.93018 24.04564 85.60066 29.17839 86.01874 32.4333 86.43683 35.68822 87.1073 40.99496 87.52539 44.35838 87.94348 47.7218 89.03203 56.67445 88.75314 54.38004"/>
<path transform="matrix(-.12067363,-.9926999,-.9927098,.12067241,21.911545,14.414585)" d="M1.51433 0C-.37857 .37857-2.27148 1.13573-4.54298 2.46077-2.27148 .75716-2.27148-.75716-4.54298-2.46077-2.27148-1.13573-.37857-.37857 1.51433 0Z" fill="#ff0000"/>
<path transform="matrix(-.12067363,-.9926999,-.9927098,.12067241,21.911545,14.414585)" stroke-width="1.59404" stroke-linecap="butt" stroke-linejoin="round" fill="none" stroke="#ff0000" d="M1.51433 0C-.37857 .37857-2.27148 1.13573-4.54298 2.46077-2.27148 .75716-2.27148-.75716-4.54298-2.46077-2.27148-1.13573-.37857-.37857 1.51433 0Z"/>
<path transform="matrix(.12067363,-.9926999,-.9927098,-.12067241,117.78222,14.432991)" d="M1.51433 0C-.37857 .37857-2.27148 1.13573-4.54298 2.46077-2.27148 .75716-2.27148-.75716-4.54298-2.46077-2.27148-1.13573-.37857-.37857 1.51433 0Z" fill="#ff0000"/>
<path transform="matrix(.12067363,-.9926999,-.9927098,-.12067241,117.78222,14.432991)" stroke-width="1.59404" stroke-linecap="butt" stroke-linejoin="round" fill="none" stroke="#ff0000" d="M1.51433 0C-.37857 .37857-2.27148 1.13573-4.54298 2.46077-2.27148 .75716-2.27148-.75716-4.54298-2.46077-2.27148-1.13573-.37857-.37857 1.51433 0Z"/>
</svg>
