<svg xmlns="http://www.w3.org/2000/svg" xmlns:xlink="http://www.w3.org/1999/xlink" version="1.1" width="137" height="160" viewBox="0 0 137 160">
<defs>
<path id="font_1_1" d="M.33399964 .30233766C.33999635 .32835389 .36299134 .42037965 .43299867 .42037965 .43798829 .42037965 .46199037 .42037965 .48298646 .40734864 .45498658 .402359 .43499757 .37734986 .43499757 .35334779 .43499757 .33735658 .44599916 .31835938 .47299195 .31835938 .49499513 .31835938 .5269928 .3363495 .5269928 .37635804 .5269928 .42837525 .46798707 .4423828 .43399049 .4423828 .37599183 .4423828 .34098817 .38935853 .32899476 .36634828 .3039856 .43237306 .25 .4423828 .22099304 .4423828 .116989139 .4423828 .05999756 .3133545 .05999756 .28834535 .05999756 .27833558 .069992069 .27833558 .07199097 .27833558 .07998657 .27833558 .08299255 .28033448 .084991458 .28933717 .11898804 .39535523 .18499756 .42037965 .21899414 .42037965 .23799134 .42037965 .272995 .4113617 .272995 .35334779 .272995 .32235719 .2559967 .25532533 .21899414 .11528015 .20298767 .053268434 .16799927 .011245728 .12399292 .011245728 .117996219 .011245728 .09498596 .011245728 .07398987 .024276734 .09899902 .029266358 .12098694 .05027771 .12098694 .07827759 .12098694 .105270389 .09899902 .11328125 .083999637 .11328125 .053985597 .11328125 .0289917 .08728027 .0289917 .055267335 .0289917 .009246826 .07899475-.0107421879 .12298584-.0107421879 .18899536-.0107421879 .22499085 .059280397 .22799683 .0652771 .23999024 .028274537 .27598573-.0107421879 .33599855-.0107421879 .43899537-.0107421879 .49598695 .118270877 .49598695 .14328003 .49598695 .1532898 .4869995 .1532898 .48399354 .1532898 .47499085 .1532898 .47299195 .14929199 .47099305 .14228821 .43798829 .03527832 .36999513 .011245728 .33799745 .011245728 .29899598 .011245728 .2829895 .043273927 .2829895 .07727051 .2829895 .09927368 .2889862 .121276859 .2999878 .16529846L.33399964 .30233766Z"/>
<path id="font_1_2" d="M.48599244 .38136292C.48999024 .39537049 .48999024 .39736939 .48999024 .40437318 .48999024 .42237855 .47599793 .43138124 .46099855 .43138124 .45098878 .43138124 .43499757 .42536927 .42599488 .41036988 .42399598 .405365 .41600038 .37435914 .4119873 .35635377 .40499879 .33035279 .397995 .30334474 .3919983 .27633668L.34700013 .09628296C.34298707 .08126831 .2999878 .011245728 .23399353 .011245728 .18299866 .011245728 .17199707 .055267335 .17199707 .0922699 .17199707 .1382904 .18899536 .20030213 .22299195 .28833009 .23899842 .3293457 .24299622 .3403473 .24299622 .36035157 .24299622 .405365 .21099854 .4423828 .16099549 .4423828 .06599426 .4423828 .0289917 .29733277 .0289917 .28833009 .0289917 .27833558 .038986207 .27833558 .040985109 .27833558 .050994874 .27833558 .051986696 .28033448 .056991579 .29634095 .083999637 .3903656 .12399292 .42037965 .1579895 .42037965 .1659851 .42037965 .18299866 .42037965 .18299866 .3883667 .18299866 .36335755 .17298889 .3373413 .1659851 .31834413 .12599182 .21231079 .10798645 .1552887 .10798645 .10827637 .10798645 .019256592 .17098999-.0107421879 .22999573-.0107421879 .2689972-.0107421879 .30299378 .0062561037 .33099366 .03425598 .31799317-.017745972 .30599977-.06674194 .2659912-.11973572 .23999024-.15385437 .20199585-.18309021 .1559906-.18309021 .14199829-.18309021 .09700012-.18005371 .07998657-.14074707 .09599304-.14074707 .10899353-.14074707 .12298584-.1287384 .1329956-.11973572 .14299011-.10673523 .14299011-.08773804 .14299011-.056747438 .115997318-.052734376 .10598755-.052734376 .08299255-.052734376 .049987794-.068740848 .049987794-.11773682 .049987794-.16796875 .09399414-.20507813 .1559906-.20507813 .25898744-.20507813 .3619995-.11373901 .3899994-.00074768069L.48599244 .38136292Z"/>
<path id="font_2_1" d="M.6589966 .23046875C.6759949 .23046875 .69400027 .23046875 .69400027 .25045777 .69400027 .27046205 .6759949 .27046205 .6589966 .27046205H.117996219C.100997928 .27046205 .08299255 .27046205 .08299255 .25045777 .08299255 .23046875 .100997928 .23046875 .117996219 .23046875H.6589966Z"/>
<path id="font_3_4" d="M.2899933 .35191346C.37199403 .37893678 .42999269 .4490509 .42999269 .52809146 .42999269 .6100464 .34199525 .6660156 .24598694 .6660156 .14498902 .6660156 .068984989 .60606387 .068984989 .53009036 .068984989 .49710084 .09098816 .47808839 .11999512 .47808839 .15098572 .47808839 .17098999 .50009158 .17098999 .5290985 .17098999 .57910159 .12399292 .57910159 .10899353 .57910159 .13999939 .62802127 .20599365 .64100649 .24198914 .64100649 .2829895 .64100649 .33799745 .6190338 .33799745 .5290985 .33799745 .51708987 .33599855 .45906068 .30999757 .4149933 .27999879 .36691285 .24598694 .36390687 .22099304 .36291505 .21299744 .36190797 .18899536 .35990907 .18199158 .35990907 .17399597 .35890199 .16699219 .35791017 .16699219 .3479004 .16699219 .33691407 .17399597 .33691407 .19099427 .33691407H.23498535C.31698609 .33691407 .35398866 .2686615 .35398866 .17037964 .35398866 .034469606 .2849884 .0055389406 .24099732 .0055389406 .19799805 .0055389406 .12298584 .022491456 .08799744 .08137512 .12298584 .07637024 .1539917 .09837341 .1539917 .1363678 .1539917 .17237854 .1269989 .19238281 .09799194 .19238281 .07398987 .19238281 .041992189 .17837525 .041992189 .1343689 .041992189 .043441774 .1349945-.022460938 .24398804-.022460938 .3659973-.022460938 .45700074 .06838989 .45700074 .17037964 .45700074 .252594 .3939972 .33088685 .2899933 .35191346Z"/>
<path id="font_3_5" d="M.44898988 .20022583C.44898988 .3193512 .36698915 .41944886 .25898744 .41944886 .21099854 .41944886 .16799927 .40345765 .13198853 .36842347V.5637665C.1519928 .5577698 .18499756 .55078127 .21699524 .55078127 .33999635 .55078127 .4099884 .6417694 .4099884 .6547699 .4099884 .6607666 .40699769 .6657715 .3999939 .6657715 .39898683 .6657715 .39698792 .6657715 .3919983 .66278079 .37199403 .6537781 .32299806 .6337738 .2559967 .6337738 .21598816 .6337738 .16999817 .6407776 .12298584 .6617737 .114990238 .66477969 .11299133 .66477969 .11099243 .66477969 .100997928 .66477969 .100997928 .6567688 .100997928 .6407776V.34439088C.100997928 .32637025 .100997928 .31835938 .114990238 .31835938 .12199402 .31835938 .12399292 .32136537 .12799073 .32736207 .13899231 .3433838 .17599488 .39746095 .25698854 .39746095 .30899049 .39746095 .33399964 .35139466 .34199525 .33337403 .35798646 .29632569 .3600006 .25727845 .3600006 .20722962 .3600006 .17222595 .3600006 .11222839 .33599855 .07035828 .31199647 .031463624 .2749939 .0055389406 .22898865 .0055389406 .1559906 .0055389406 .09899902 .058380128 .08198547 .11723328 .084991458 .1162262 .08799744 .115234378 .09899902 .115234378 .13198853 .115234378 .14898682 .14022827 .14898682 .16423035 .14898682 .18823242 .13198853 .21322632 .09899902 .21322632 .084991458 .21322632 .049987794 .20622254 .049987794 .16023255 .049987794 .07434082 .11898804-.022460938 .23098755-.022460938 .34700013-.022460938 .44898988 .073349 .44898988 .20022583Z"/>
<path id="font_3_2" d="M.2939911 .64004519C.2939911 .66400149 .2939911 .6660156 .2709961 .6660156 .20899964 .60227969 .12098694 .60227969 .08898926 .60227969V.57128909C.10899353 .57128909 .16799927 .57128909 .21998596 .5972748V.07902527C.21998596 .042999269 .21699524 .0309906 .1269989 .0309906H.09498596V0C.12998963 .0029907227 .21699524 .0029907227 .25698854 .0029907227 .29699708 .0029907227 .38398744 .0029907227 .4189911 0V.0309906H.3869934C.29699708 .0309906 .2939911 .041992189 .2939911 .07902527V.64004519Z"/>
<path id="font_3_1" d="M.45999146 .31976319C.45999146 .39982606 .45498658 .47988893 .41999818 .5539398 .37399293 .65000918 .2919922 .6660156 .25 .6660156 .18998719 .6660156 .116989139 .64001467 .07598877 .54693606 .04399109 .47789 .038986207 .39982606 .038986207 .31976319 .038986207 .24472046 .042999269 .15464783 .083999637 .07859802 .1269989-.0024719239 .19999695-.022460938 .24899292-.022460938 .30299378-.022460938 .3789978-.0014648438 .4229889 .09359741 .45498658 .16265869 .45999146 .2407074 .45999146 .31976319M.24899292-.00047302247C.20999146-.00047302247 .15098572 .024551392 .1329956 .12062073 .12199402 .18066406 .12199402 .2727356 .12199402 .3317871 .12199402 .39582826 .12199402 .46188355 .12998963 .5159149 .14898682 .63500979 .22399903 .64401248 .24899292 .64401248 .28199769 .64401248 .34799195 .6259918 .36698915 .52693179 .3769989 .47088624 .3769989 .39482118 .3769989 .3317871 .3769989 .25672914 .3769989 .18867493 .3659973 .12461853 .35099793 .029556275 .2939911-.00047302247 .24899292-.00047302247Z"/>
<path id="font_3_6" d="M.68699648 .32714845C.70199587 .32714845 .72099307 .32714845 .72099307 .34713746 .72099307 .36714173 .70199587 .36714173 .6879883 .36714173H.08898926C.07499695 .36714173 .055999757 .36714173 .055999757 .34713746 .055999757 .32714845 .07499695 .32714845 .08999634 .32714845H.68699648M.6879883 .13284302C.70199587 .13284302 .72099307 .13284302 .72099307 .15284729 .72099307 .17285156 .70199587 .17285156 .68699648 .17285156H.08999634C.07499695 .17285156 .055999757 .17285156 .055999757 .15284729 .055999757 .13284302 .07499695 .13284302 .08898926 .13284302H.6879883Z"/>
<path id="font_3_3" d="M.1269989 .07699585 .23298645 .18003845C.3889923 .31811524 .44898988 .3721466 .44898988 .47216798 .44898988 .5860901 .35899354 .6660156 .23699951 .6660156 .12399292 .6660156 .049987794 .57411196 .049987794 .48516847 .049987794 .4291687 .099990848 .4291687 .102996829 .4291687 .11999512 .4291687 .15499878 .44117738 .15499878 .48217774 .15499878 .5081787 .13699341 .5341797 .101989749 .5341797 .09399414 .5341797 .09199524 .5341797 .08898926 .5331726 .11199951 .59806826 .1659851 .63500979 .22399903 .63500979 .31498719 .63500979 .35798646 .5541382 .35798646 .47216798 .35798646 .39215089 .30799867 .31311036 .25299073 .25108338L.06098938 .036987306C.049987794 .025985718 .049987794 .023986817 .049987794 0H.42099L.44898988 .17404175H.42399598C.4189911 .14402771 .4119873 .1000061 .4019928 .084991458 .394989 .07699585 .32899476 .07699585 .30699159 .07699585H.1269989Z"/>
<path id="font_4_1" d="M.5049896 .18203736H.47099305C.46798707 .16001892 .45799256 .100997928 .44499208 .09098816 .43699647 .084991458 .3600006 .084991458 .34599305 .084991458H.1619873C.2669983 .17803955 .3019867 .20603943 .3619995 .25306703 .43598939 .312088 .5049896 .374115 .5049896 .46914674 .5049896 .5900879 .39898683 .6640625 .2709961 .6640625 .14698792 .6640625 .06298828 .57710269 .06298828 .4851532 .06298828 .43414308 .10598755 .42915345 .115997318 .42915345 .13999939 .42915345 .16899109 .44615174 .16899109 .48214723 .16899109 .5001526 .1619873 .53515627 .10998535 .53515627 .14099121 .6060791 .20899964 .62805178 .2559967 .62805178 .35598756 .62805178 .4079895 .5501404 .4079895 .46914674 .4079895 .38212586 .34599305 .3130951 .31399537 .27708436L.07299805 .038986207C.06298828 .02999878 .06298828 .027999878 .06298828 0H.47499085L.5049896 .18203736Z"/>
</defs>
<path transform="matrix(1.00002,0,0,-1.00002,58.30687,101.41277)" stroke-width=".3985" stroke-linecap="butt" stroke-miterlimit="10" stroke-linejoin="miter" fill="none" stroke="#00aeef" d="M-56.69362-56.69362H56.69362M-56.69362-49.6069H56.69362M-56.69362-42.5202H56.69362M-56.69362-35.43349H56.69362M-56.69362-28.3468H56.69362M-56.69362-21.2601H56.69362M-56.69362-14.17339H56.69362M-56.69362-7.08669H56.69362M-56.69362 0H56.69362M-56.69362 7.08669H56.69362M-56.69362 14.17339H56.69362M-56.69362 21.2601H56.69362M-56.69362 28.3468H56.69362M-56.69362 35.43349H56.69362M-56.69362 42.5202H56.69362M-56.69362 49.6069H56.69362M-56.69362 56.69362H56.69362M-56.69362 63.7803H56.69362M-56.69362 70.867H56.69362M-56.69362 77.95372H56.69362M-56.69362 85.03793H56.69362M-56.69362-56.69362V85.04042M-42.5202-56.69362V85.04042M-28.3468-56.69362V85.04042M-14.17339-56.69362V85.04042M0-56.69362V85.04042M14.17339-56.69362V85.04042M28.3468-56.69362V85.04042M42.5202-56.69362V85.04042M56.68863-56.69362V85.04042M56.69362 85.04042"/>
<path transform="matrix(1.00002,0,0,-1.00002,58.30687,101.41277)" stroke-width=".79701" stroke-linecap="butt" stroke-miterlimit="10" stroke-linejoin="miter" fill="none" stroke="#000000" d="M-56.69362 0H66.59776"/>
<path transform="matrix(1.00002,0,0,-1.00002,124.90597,101.41277)" d="M1.0361 0C-.25902 .25902-1.55415 .77707-3.1083 1.68365-1.55415 .51805-1.55415-.51805-3.1083-1.68365-1.55415-.77707-.25902-.25902 1.0361 0Z"/>
<path transform="matrix(1.00002,0,0,-1.00002,124.90597,101.41277)" stroke-width=".79701" stroke-linecap="butt" stroke-linejoin="round" fill="none" stroke="#000000" d="M1.0361 0C-.25902 .25902-1.55415 .77707-3.1083 1.68365-1.55415 .51805-1.55415-.51805-3.1083-1.68365-1.55415-.77707-.25902-.25902 1.0361 0Z"/>
<use data-text="x" xlink:href="#font_1_1" transform="matrix(9.962799,0,0,-9.962799,130.0593,103.557819)"/>
<path transform="matrix(1.00002,0,0,-1.00002,58.30687,101.41277)" stroke-width=".79701" stroke-linecap="butt" stroke-miterlimit="10" stroke-linejoin="miter" fill="none" stroke="#000000" d="M0-56.69362V94.94456"/>
<path transform="matrix(0,-1.00002,-1.00002,-0,58.30687,6.466316)" d="M1.0361 0C-.25902 .25902-1.55415 .77707-3.1083 1.68365-1.55415 .51805-1.55415-.51805-3.1083-1.68365-1.55415-.77707-.25902-.25902 1.0361 0Z"/>
<path transform="matrix(0,-1.00002,-1.00002,-0,58.30687,6.466316)" stroke-width=".79701" stroke-linecap="butt" stroke-linejoin="round" fill="none" stroke="#000000" d="M1.0361 0C-.25902 .25902-1.55415 .77707-3.1083 1.68365-1.55415 .51805-1.55415-.51805-3.1083-1.68365-1.55415-.77707-.25902-.25902 1.0361 0Z"/>
<use data-text="y" xlink:href="#font_1_2" transform="matrix(9.962799,0,0,-9.962799,51.33773,6.207863)"/>
<path transform="matrix(1.00002,0,0,-1.00002,58.30687,101.41277)" stroke-width=".79701" stroke-linecap="butt" stroke-miterlimit="10" stroke-linejoin="miter" fill="none" stroke="#000000" d="M-42.5202 1.06294V-1.06305"/>
<path transform="matrix(1.00002,0,0,-1.00002,58.30687,101.41277)" d="M-49.88159-12.69734H-35.158815V-3.4541102H-49.88159Z" fill="#ffffff"/>
<use data-text="&#x2212;" xlink:href="#font_2_1" transform="matrix(9.962799,0,0,-9.962799,9.420898,112.28399)"/>
<use data-text="3" xlink:href="#font_3_4" transform="matrix(9.962799,0,0,-9.962799,17.169053,112.28399)"/>
<path transform="matrix(1.00002,0,0,-1.00002,58.30687,101.41277)" stroke-width=".79701" stroke-linecap="butt" stroke-miterlimit="10" stroke-linejoin="miter" fill="none" stroke="#000000" d="M42.5202 1.06294V-1.06305"/>
<path transform="matrix(1.00002,0,0,-1.00002,58.30687,101.41277)" d="M39.03323-11.8671H46.00717V-3.4541198H39.03323Z" fill="#ffffff"/>
<use data-text="3" xlink:href="#font_3_4" transform="matrix(9.962799,0,0,-9.962799,98.33767,112.28399)"/>
<path transform="matrix(1.00002,0,0,-1.00002,58.30687,101.41277)" stroke-width=".79701" stroke-linecap="butt" stroke-miterlimit="10" stroke-linejoin="miter" fill="none" stroke="#00aeef" d="M-56.69362-35.43349H56.69362"/>
<path transform="matrix(1.00002,0,0,-1.00002,58.30687,101.41277)" stroke-width=".79701" stroke-linecap="butt" stroke-miterlimit="10" stroke-linejoin="miter" fill="none" stroke="#000000" d="M2.12592-35.43349H-2.12613"/>
<path transform="matrix(1.00002,0,0,-1.00002,58.30687,101.41277)" d="M-19.23996-40.05511H-4.5171797V-30.811882H-19.23996Z" fill="#ffffff"/>
<use data-text="&#x2212;" xlink:href="#font_2_1" transform="matrix(9.962799,0,0,-9.962799,40.0625,139.64255)"/>
<use data-text="5" xlink:href="#font_3_5" transform="matrix(9.962799,0,0,-9.962799,47.810655,139.64255)"/>
<path transform="matrix(1.00002,0,0,-1.00002,58.30687,101.41277)" stroke-width=".79701" stroke-linecap="butt" stroke-miterlimit="10" stroke-linejoin="miter" fill="none" stroke="#00aeef" d="M-56.69362 35.43349H56.69362"/>
<path transform="matrix(1.00002,0,0,-1.00002,58.30687,101.41277)" stroke-width=".79701" stroke-linecap="butt" stroke-miterlimit="10" stroke-linejoin="miter" fill="none" stroke="#000000" d="M2.12592 35.43349H-2.12613"/>
<path transform="matrix(1.00002,0,0,-1.00002,58.30687,101.41277)" d="M-11.49112 31.227H-4.5171806V39.63998H-11.49112Z" fill="#ffffff"/>
<use data-text="5" xlink:href="#font_3_5" transform="matrix(9.962799,0,0,-9.962799,47.81166,69.18913)"/>
<path transform="matrix(1.00002,0,0,-1.00002,58.30687,101.41277)" stroke-width=".79701" stroke-linecap="butt" stroke-miterlimit="10" stroke-linejoin="miter" fill="none" stroke="#00aeef" d="M-56.69362 70.867H56.69362"/>
<path transform="matrix(1.00002,0,0,-1.00002,58.30687,101.41277)" stroke-width=".79701" stroke-linecap="butt" stroke-miterlimit="10" stroke-linejoin="miter" fill="none" stroke="#000000" d="M2.12592 70.867H-2.12613"/>
<path transform="matrix(1.00002,0,0,-1.00002,58.30687,101.41277)" d="M-16.47253 66.66052H-4.51719V75.0735H-16.47253Z" fill="#ffffff"/>
<use data-text="1" xlink:href="#font_3_2" transform="matrix(9.962799,0,0,-9.962799,42.83056,33.754419)"/>
<use data-text="0" xlink:href="#font_3_1" transform="matrix(9.962799,0,0,-9.962799,47.81196,33.754419)"/>
<path transform="matrix(1.00002,0,0,-1.00002,58.30687,101.41277)" stroke-width="1.19553" stroke-linecap="butt" stroke-miterlimit="10" stroke-linejoin="miter" fill="none" stroke="#ff0000" d="M-41.00252 83.19409C-40.38922 79.65251-40.38922 79.65251-40.03093 77.62866-39.67265 75.60481-39.0981 72.41165-38.73982 70.45308-38.38153 68.49448-37.80698 65.40585-37.4487 63.51257-37.09042 61.61928-36.51584 58.6356-36.15756 56.80759-35.79929 54.97955-35.22473 52.10022-34.86644 50.33745-34.50816 48.5747-33.9336 45.80031-33.57532 44.10286-33.21703 42.4054-32.64247 39.73553-32.2842 38.10335-31.9259 36.47115-31.35133 33.90602-30.99306 32.33911-30.63478 30.77222-30.06021 28.31184-29.70193 26.8102-29.34366 25.30856-28.7691 22.95274-28.41081 21.51637-28.05254 20.08-27.47797 17.82895-27.11969 16.45784-26.7614 15.08675-26.18684 12.9402-25.82857 11.63438-25.47029 10.32858-24.8957 8.28697-24.53743 7.04646-24.17915 5.80595-23.60458 3.8689-23.2463 2.69362-22.88803 1.51834-22.31346-.3141-21.95517-1.42412-21.5969-2.53413-21.02234-4.26186-20.66406-5.30658-20.30577-6.35129-19.7312-7.9743-19.37292-8.95375-19.01465-9.93317-18.44008-11.45145-18.0818-12.3656-17.72353-13.27975-17.14897-14.69348-16.79068-15.54237-16.4324-16.39127-15.85783-17.70024-15.49954-18.48386-15.14127-19.26746-14.56671-20.4717-14.20844-21.19002-13.85014-21.90836-13.27557-23.00804-12.9173-23.66112-12.55902-24.31418-11.98445-25.30913-11.62617-25.8969-11.2679-26.48466-10.69333-27.37488-10.33504-27.89738-9.97676-28.41989-9.4022-29.20555-9.04393-29.6628-8.68564-30.12004-8.11107-30.80095-7.75279-31.1929-7.3945-31.58484-6.81995-32.16101-6.46167-32.4877-6.1034-32.81438-5.52882-33.286-5.17055-33.54741-4.81227-33.80882-4.2377-34.1757-3.87941-34.37183-3.52113-34.56795-2.94658-34.8301-2.5883-34.96095-2.23001-35.09181-1.65544-35.2494-1.29716-35.31497-.93889-35.38054-.36432-35.4332-.00604-35.43349 .35222-35.43379 .92679-35.38211 1.28506-35.31714 1.64334-35.25218 2.2179-35.09554 2.57619-34.96527 2.93446-34.83502 3.50902-34.57382 3.8673-34.37833 4.22559-34.18283 4.80016-33.81706 5.15843-33.55627 5.51671-33.29549 6.09128-32.8248 6.44955-32.49872 6.80783-32.17264 7.3824-31.59744 7.74069-31.20609 8.09897-30.81474 8.67352-30.13477 9.03181-29.67815 9.39009-29.22154 9.96466-28.437 10.32294-27.91513 10.68123-27.39325 11.25578-26.50397 11.61406-25.9168 11.97234-25.32962 12.54692-24.33563 12.9052-23.68317 13.26347-23.0307 13.83803-21.93198 14.19632-21.21425 14.5546-20.49652 15.12915-19.29323 15.48743-18.51022 15.84572-17.72723 16.42029-16.41917 16.77856-15.57092 17.13684-14.72266 17.71141-13.31006 18.06969-12.39651 18.42796-11.48299 19.00255-9.96565 19.36082-8.98683 19.7191-8.008 20.29366-6.38596 20.65195-5.34183 21.01022-4.29771 21.5848-2.57092 21.94307-1.46153 22.30136-.35214 22.87592 1.47917 23.23419 2.65382 23.59247 3.82848 24.16705 5.76459 24.52533 7.0045 24.8836 8.24442 25.45816 10.2851 25.81645 11.59027 26.17473 12.89545 26.74928 15.04086 27.10757 16.41133 27.46585 17.78181 28.04042 20.03194 28.3987 21.46771 28.75699 22.90347 29.33154 25.25833 29.68982 26.75938 30.0481 28.2604 30.62268 30.71983 30.98096 32.28613 31.33923 33.85245 31.91379 36.4166 32.27208 38.04819 32.63036 39.67978 33.20493 42.3487 33.5632 44.04555 33.9215 45.74242 34.49605 48.51585 34.85432 50.27798 35.21262 52.0401 35.78717 54.91833 36.14545 56.74573 36.50372 58.5731 37.07831 61.55586 37.43658 63.44855 37.79486 65.34123 38.36942 68.42891 38.7277 70.38689 39.08598 72.34486 39.66055 75.53711 40.01883 77.56032 40.37712 79.58354 41.30995 84.96884 40.9903 83.12338"/>
<path transform="matrix(-.17061341,-.98531976,-.98531976,.17061341,17.303528,18.217019)" d="M1.27522 0C-.31879 .31879-1.91284 .9564-3.8257 2.07224-1.91284 .6376-1.91284-.6376-3.8257-2.07224-1.91284-.9564-.31879-.31879 1.27522 0Z" fill="#ff0000"/>
<path transform="matrix(-.17061341,-.98531976,-.98531976,.17061341,17.303528,18.217019)" stroke-width="1.19553" stroke-linecap="butt" stroke-linejoin="round" fill="none" stroke="#ff0000" d="M1.27522 0C-.31879 .31879-1.91284 .9564-3.8257 2.07224-1.91284 .6376-1.91284-.6376-3.8257-2.07224-1.91284-.9564-.31879-.31879 1.27522 0Z"/>
<path transform="matrix(.17067342,-.98531976,-.98531976,-.17067342,99.29799,18.287728)" d="M1.27522 0C-.31879 .31879-1.91284 .9564-3.8257 2.07224-1.91284 .6376-1.91284-.6376-3.8257-2.07224-1.91284-.9564-.31879-.31879 1.27522 0Z" fill="#ff0000"/>
<path transform="matrix(.17067342,-.98531976,-.98531976,-.17067342,99.29799,18.287728)" stroke-width="1.19553" stroke-linecap="butt" stroke-linejoin="round" fill="none" stroke="#ff0000" d="M1.27522 0C-.31879 .31879-1.91284 .9564-3.8257 2.07224-1.91284 .6376-1.91284-.6376-3.8257-2.07224-1.91284-.9564-.31879-.31879 1.27522 0Z"/>
<path transform="matrix(1.00002,0,0,-1.00002,58.30687,101.41277)" d="M14.37263-41.45323H67.193599V-29.413762H14.37263Z" fill="#ffffff"/>
<use data-text="y" xlink:href="#font_1_2" transform="matrix(9.962799,0,0,-9.962799,73.67618,139.93355)" fill="#ff0000"/>
<use data-text="=" xlink:href="#font_3_6" transform="matrix(9.962799,0,0,-9.962799,81.68535,139.93355)" fill="#ff0000"/>
<use data-text="2" xlink:href="#font_3_3" transform="matrix(9.962799,0,0,-9.962799,92.18613,139.93355)" fill="#ff0000"/>
<use data-text="x" xlink:href="#font_1_1" transform="matrix(9.962799,0,0,-9.962799,97.18265,139.93355)" fill="#ff0000"/>
<use data-text="2" xlink:href="#font_4_1" transform="matrix(6.97394,0,0,-6.97394,102.876758,136.31848)" fill="#ff0000"/>
<use data-text="&#x2212;" xlink:href="#font_2_1" transform="matrix(9.962799,0,0,-9.962799,109.55989,139.93355)" fill="#ff0000"/>
<use data-text="5" xlink:href="#font_3_5" transform="matrix(9.962799,0,0,-9.962799,119.52309,139.93355)" fill="#ff0000"/>
<path transform="matrix(1.00002,0,0,-1.00002,58.30687,101.41277)" stroke-width=".79701" stroke-linecap="butt" stroke-dasharray="2.98883,1.99255" stroke-miterlimit="10" stroke-linejoin="miter" fill="none" stroke="#000000" d="M-34.71744 42.5202V0"/>
<path transform="matrix(1.00002,0,0,-1.00002,58.30687,101.41277)" stroke-width=".79701" stroke-linecap="butt" stroke-dasharray="2.98883,1.99255" stroke-miterlimit="10" stroke-linejoin="miter" fill="none" stroke="#000000" d="M34.71744 42.5202V0"/>
<path transform="matrix(1.00002,0,0,-1.00002,58.30687,101.41277)" d="M36.84343 49.6069C36.84343 50.78108 35.8916 51.7329 34.71744 51.7329 33.54326 51.7329 32.59143 50.78108 32.59143 49.6069 32.59143 48.43274 33.54326 47.48091 34.71744 47.48091 35.8916 47.48091 36.84343 48.43274 36.84343 49.6069ZM34.71744 49.6069" fill="#ff0000"/>
<path transform="matrix(1.00002,0,0,-1.00002,58.30687,101.41277)" stroke-width=".3985" stroke-linecap="butt" stroke-miterlimit="10" stroke-linejoin="miter" fill="none" stroke="#ff0000" d="M36.84343 49.6069C36.84343 50.78108 35.8916 51.7329 34.71744 51.7329 33.54326 51.7329 32.59143 50.78108 32.59143 49.6069 32.59143 48.43274 33.54326 47.48091 34.71744 47.48091 35.8916 47.48091 36.84343 48.43274 36.84343 49.6069ZM34.71744 49.6069"/>
<path transform="matrix(1.00002,0,0,-1.00002,58.30687,101.41277)" d="M-32.59143 49.6069C-32.59143 50.78108-33.54326 51.7329-34.71744 51.7329-35.8916 51.7329-36.84343 50.78108-36.84343 49.6069-36.84343 48.43274-35.8916 47.48091-34.71744 47.48091-33.54326 47.48091-32.59143 48.43274-32.59143 49.6069ZM-34.71744 49.6069" fill="#ff0000"/>
<path transform="matrix(1.00002,0,0,-1.00002,58.30687,101.41277)" stroke-width=".3985" stroke-linecap="butt" stroke-miterlimit="10" stroke-linejoin="miter" fill="none" stroke="#ff0000" d="M-32.59143 49.6069C-32.59143 50.78108-33.54326 51.7329-34.71744 51.7329-35.8916 51.7329-36.84343 50.78108-36.84343 49.6069-36.84343 48.43274-35.8916 47.48091-34.71744 47.48091-33.54326 47.48091-32.59143 48.43274-32.59143 49.6069ZM-34.71744 49.6069"/>
<path transform="matrix(1.00002,0,0,-1.00002,58.30687,101.41277)" d="M36.84343 0C36.84343 1.17416 35.8916 2.12599 34.71744 2.12599 33.54326 2.12599 32.59143 1.17416 32.59143 0 32.59143-1.17416 33.54326-2.12599 34.71744-2.12599 35.8916-2.12599 36.84343-1.17416 36.84343 0ZM34.71744 0" fill="#ff0000"/>
<path transform="matrix(1.00002,0,0,-1.00002,58.30687,101.41277)" stroke-width=".3985" stroke-linecap="butt" stroke-miterlimit="10" stroke-linejoin="miter" fill="none" stroke="#ff0000" d="M36.84343 0C36.84343 1.17416 35.8916 2.12599 34.71744 2.12599 33.54326 2.12599 32.59143 1.17416 32.59143 0 32.59143-1.17416 33.54326-2.12599 34.71744-2.12599 35.8916-2.12599 36.84343-1.17416 36.84343 0ZM34.71744 0"/>
<path transform="matrix(1.00002,0,0,-1.00002,58.30687,101.41277)" d="M-32.59143 0C-32.59143 1.17416-33.54326 2.12599-34.71744 2.12599-35.8916 2.12599-36.84343 1.17416-36.84343 0-36.84343-1.17416-35.8916-2.12599-34.71744-2.12599-33.54326-2.12599-32.59143-1.17416-32.59143 0ZM-34.71744 0" fill="#ff0000"/>
<path transform="matrix(1.00002,0,0,-1.00002,58.30687,101.41277)" stroke-width=".3985" stroke-linecap="butt" stroke-miterlimit="10" stroke-linejoin="miter" fill="none" stroke="#ff0000" d="M-32.59143 0C-32.59143 1.17416-33.54326 2.12599-34.71744 2.12599-35.8916 2.12599-36.84343 1.17416-36.84343 0-36.84343-1.17416-35.8916-2.12599-34.71744-2.12599-33.54326-2.12599-32.59143-1.17416-32.59143 0ZM-34.71744 0"/>
</svg>
