<svg xmlns="http://www.w3.org/2000/svg" xmlns:xlink="http://www.w3.org/1999/xlink" version="1.1" width="134" height="150" viewBox="0 0 134 150">
<defs>
<path id="font_1_1" d="M.33399964 .30233766C.33999635 .32835389 .36299134 .42037965 .43299867 .42037965 .43798829 .42037965 .46199037 .42037965 .48298646 .40734864 .45498658 .402359 .43499757 .37734986 .43499757 .35334779 .43499757 .33735658 .44599916 .31835938 .47299195 .31835938 .49499513 .31835938 .5269928 .3363495 .5269928 .37635804 .5269928 .42837525 .46798707 .4423828 .43399049 .4423828 .37599183 .4423828 .34098817 .38935853 .32899476 .36634828 .3039856 .43237306 .25 .4423828 .22099304 .4423828 .116989139 .4423828 .05999756 .3133545 .05999756 .28834535 .05999756 .27833558 .069992069 .27833558 .07199097 .27833558 .07998657 .27833558 .08299255 .28033448 .084991458 .28933717 .11898804 .39535523 .18499756 .42037965 .21899414 .42037965 .23799134 .42037965 .272995 .4113617 .272995 .35334779 .272995 .32235719 .2559967 .25532533 .21899414 .11528015 .20298767 .053268434 .16799927 .011245728 .12399292 .011245728 .117996219 .011245728 .09498596 .011245728 .07398987 .024276734 .09899902 .029266358 .12098694 .05027771 .12098694 .07827759 .12098694 .105270389 .09899902 .11328125 .083999637 .11328125 .053985597 .11328125 .0289917 .08728027 .0289917 .055267335 .0289917 .009246826 .07899475-.0107421879 .12298584-.0107421879 .18899536-.0107421879 .22499085 .059280397 .22799683 .0652771 .23999024 .028274537 .27598573-.0107421879 .33599855-.0107421879 .43899537-.0107421879 .49598695 .118270877 .49598695 .14328003 .49598695 .1532898 .4869995 .1532898 .48399354 .1532898 .47499085 .1532898 .47299195 .14929199 .47099305 .14228821 .43798829 .03527832 .36999513 .011245728 .33799745 .011245728 .29899598 .011245728 .2829895 .043273927 .2829895 .07727051 .2829895 .09927368 .2889862 .121276859 .2999878 .16529846L.33399964 .30233766Z"/>
<path id="font_1_2" d="M.48599244 .38136292C.48999024 .39537049 .48999024 .39736939 .48999024 .40437318 .48999024 .42237855 .47599793 .43138124 .46099855 .43138124 .45098878 .43138124 .43499757 .42536927 .42599488 .41036988 .42399598 .405365 .41600038 .37435914 .4119873 .35635377 .40499879 .33035279 .397995 .30334474 .3919983 .27633668L.34700013 .09628296C.34298707 .08126831 .2999878 .011245728 .23399353 .011245728 .18299866 .011245728 .17199707 .055267335 .17199707 .0922699 .17199707 .1382904 .18899536 .20030213 .22299195 .28833009 .23899842 .3293457 .24299622 .3403473 .24299622 .36035157 .24299622 .405365 .21099854 .4423828 .16099549 .4423828 .06599426 .4423828 .0289917 .29733277 .0289917 .28833009 .0289917 .27833558 .038986207 .27833558 .040985109 .27833558 .050994874 .27833558 .051986696 .28033448 .056991579 .29634095 .083999637 .3903656 .12399292 .42037965 .1579895 .42037965 .1659851 .42037965 .18299866 .42037965 .18299866 .3883667 .18299866 .36335755 .17298889 .3373413 .1659851 .31834413 .12599182 .21231079 .10798645 .1552887 .10798645 .10827637 .10798645 .019256592 .17098999-.0107421879 .22999573-.0107421879 .2689972-.0107421879 .30299378 .0062561037 .33099366 .03425598 .31799317-.017745972 .30599977-.06674194 .2659912-.11973572 .23999024-.15385437 .20199585-.18309021 .1559906-.18309021 .14199829-.18309021 .09700012-.18005371 .07998657-.14074707 .09599304-.14074707 .10899353-.14074707 .12298584-.1287384 .1329956-.11973572 .14299011-.10673523 .14299011-.08773804 .14299011-.056747438 .115997318-.052734376 .10598755-.052734376 .08299255-.052734376 .049987794-.068740848 .049987794-.11773682 .049987794-.16796875 .09399414-.20507813 .1559906-.20507813 .25898744-.20507813 .3619995-.11373901 .3899994-.00074768069L.48599244 .38136292Z"/>
<path id="font_2_1" d="M.44898988 .20022583C.44898988 .3193512 .36698915 .41944886 .25898744 .41944886 .21099854 .41944886 .16799927 .40345765 .13198853 .36842347V.5637665C.1519928 .5577698 .18499756 .55078127 .21699524 .55078127 .33999635 .55078127 .4099884 .6417694 .4099884 .6547699 .4099884 .6607666 .40699769 .6657715 .3999939 .6657715 .39898683 .6657715 .39698792 .6657715 .3919983 .66278079 .37199403 .6537781 .32299806 .6337738 .2559967 .6337738 .21598816 .6337738 .16999817 .6407776 .12298584 .6617737 .114990238 .66477969 .11299133 .66477969 .11099243 .66477969 .100997928 .66477969 .100997928 .6567688 .100997928 .6407776V.34439088C.100997928 .32637025 .100997928 .31835938 .114990238 .31835938 .12199402 .31835938 .12399292 .32136537 .12799073 .32736207 .13899231 .3433838 .17599488 .39746095 .25698854 .39746095 .30899049 .39746095 .33399964 .35139466 .34199525 .33337403 .35798646 .29632569 .3600006 .25727845 .3600006 .20722962 .3600006 .17222595 .3600006 .11222839 .33599855 .07035828 .31199647 .031463624 .2749939 .0055389406 .22898865 .0055389406 .1559906 .0055389406 .09899902 .058380128 .08198547 .11723328 .084991458 .1162262 .08799744 .115234378 .09899902 .115234378 .13198853 .115234378 .14898682 .14022827 .14898682 .16423035 .14898682 .18823242 .13198853 .21322632 .09899902 .21322632 .084991458 .21322632 .049987794 .20622254 .049987794 .16023255 .049987794 .07434082 .11898804-.022460938 .23098755-.022460938 .34700013-.022460938 .44898988 .073349 .44898988 .20022583Z"/>
<path id="font_3_1" d="M.6589966 .23046875C.6759949 .23046875 .69400027 .23046875 .69400027 .25045777 .69400027 .27046205 .6759949 .27046205 .6589966 .27046205H.117996219C.100997928 .27046205 .08299255 .27046205 .08299255 .25045777 .08299255 .23046875 .100997928 .23046875 .117996219 .23046875H.6589966Z"/>
</defs>
<path transform="matrix(1.00009,0,0,-1,29.844063,79.867)" stroke-width=".3985" stroke-linecap="butt" stroke-miterlimit="10" stroke-linejoin="miter" fill="none" stroke="#00aeef" d="M-28.3468-68.0313H85.04042M-28.3468-56.69275H85.04042M-28.3468-45.35419H85.04042M-28.3468-34.01564H85.04042M-28.3468-22.6771H85.04042M-28.3468-11.33855H85.04042M-28.3468 0H85.04042M-28.3468 11.33855H85.04042M-28.3468 22.6771H85.04042M-28.3468 34.01564H85.04042M-28.3468 45.35419H85.04042M-28.3468 56.69275H85.04042M-28.3468 68.02731H85.04042M-28.3468-68.0313V68.0313M-14.17339-68.0313V68.0313M0-68.0313V68.0313M14.17339-68.0313V68.0313M28.3468-68.0313V68.0313M42.5202-68.0313V68.0313M56.69362-68.0313V68.0313M70.867-68.0313V68.0313M85.03543-68.0313V68.0313M85.04042 68.0313"/>
<path transform="matrix(1.00009,0,0,-1,29.844063,79.867)" stroke-width=".79701" stroke-linecap="butt" stroke-miterlimit="10" stroke-linejoin="miter" fill="none" stroke="#000000" d="M-28.3468 0H92.10994"/>
<path transform="matrix(1.00009,0,0,-1,121.962299,79.867)" d="M1.0361 0C-.25902 .25902-1.55415 .77707-3.1083 1.68365-1.55415 .51805-1.55415-.51805-3.1083-1.68365-1.55415-.77707-.25902-.25902 1.0361 0Z"/>
<path transform="matrix(1.00009,0,0,-1,121.962299,79.867)" stroke-width=".79701" stroke-linecap="butt" stroke-linejoin="round" fill="none" stroke="#000000" d="M1.0361 0C-.25902 .25902-1.55415 .77707-3.1083 1.68365-1.55415 .51805-1.55415-.51805-3.1083-1.68365-1.55415-.77707-.25902-.25902 1.0361 0Z"/>
<use data-text="x" xlink:href="#font_1_1" transform="matrix(9.963496,0,0,-9.9626,127.11681,82.01199)"/>
<path transform="matrix(1.00009,0,0,-1,29.844063,79.867)" stroke-width=".79701" stroke-linecap="butt" stroke-miterlimit="10" stroke-linejoin="miter" fill="none" stroke="#000000" d="M0-68.0313V73.39987"/>
<path transform="matrix(0,-1,-1.00009,-0,29.844063,6.467125)" d="M1.0361 0C-.25902 .25902-1.55415 .77707-3.1083 1.68365-1.55415 .51805-1.55415-.51805-3.1083-1.68365-1.55415-.77707-.25902-.25902 1.0361 0Z"/>
<path transform="matrix(0,-1,-1.00009,-0,29.844063,6.467125)" stroke-width=".79701" stroke-linecap="butt" stroke-linejoin="round" fill="none" stroke="#000000" d="M1.0361 0C-.25902 .25902-1.55415 .77707-3.1083 1.68365-1.55415 .51805-1.55415-.51805-3.1083-1.68365-1.55415-.77707-.25902-.25902 1.0361 0Z"/>
<use data-text="y" xlink:href="#font_1_2" transform="matrix(9.963496,0,0,-9.9626,20.882256,6.2089998)"/>
<path transform="matrix(1.00009,0,0,-1,29.844063,79.867)" stroke-width="1.19553" stroke-linecap="butt" stroke-miterlimit="10" stroke-linejoin="miter" fill="none" stroke="#00aeef" d="M70.867-68.0313V68.0313"/>
<path transform="matrix(1.00009,0,0,-1,29.844063,79.867)" stroke-width=".79701" stroke-linecap="butt" stroke-miterlimit="10" stroke-linejoin="miter" fill="none" stroke="#000000" d="M70.867 1.7007V-1.70087"/>
<path transform="matrix(1.00009,0,0,-1,29.844063,79.867)" d="M67.38004-12.50491H74.35398V-4.0919306H67.38004Z" fill="#ffffff"/>
<use data-text="5" xlink:href="#font_2_1" transform="matrix(9.963496,0,0,-9.9626,98.22622,91.37599)"/>
<path transform="matrix(1.00009,0,0,-1,29.844063,79.867)" stroke-width="1.19553" stroke-linecap="butt" stroke-miterlimit="10" stroke-linejoin="miter" fill="none" stroke="#00aeef" d="M-28.3468-56.69275H85.04042"/>
<path transform="matrix(1.00009,0,0,-1,29.844063,79.867)" stroke-width=".79701" stroke-linecap="butt" stroke-miterlimit="10" stroke-linejoin="miter" fill="none" stroke="#000000" d="M2.12592-56.69275H-2.12613"/>
<path transform="matrix(1.00009,0,0,-1,29.844063,79.867)" d="M-19.23996-61.31436H-4.5171797V-52.071134H-19.23996Z" fill="#ffffff"/>
<use data-text="&#x2212;" xlink:href="#font_3_1" transform="matrix(9.963496,0,0,-9.9626,11.598419,139.355)"/>
<use data-text="5" xlink:href="#font_2_1" transform="matrix(9.963496,0,0,-9.9626,19.348122,139.355)"/>
<path transform="matrix(1.00009,0,0,-1,29.844063,79.867)" stroke-width="1.19553" stroke-linecap="butt" stroke-miterlimit="10" stroke-linejoin="miter" fill="none" stroke="#00aeef" d="M-28.3468 56.69275H85.04042"/>
<path transform="matrix(1.00009,0,0,-1,29.844063,79.867)" stroke-width=".79701" stroke-linecap="butt" stroke-miterlimit="10" stroke-linejoin="miter" fill="none" stroke="#000000" d="M2.12592 56.69275H-2.12613"/>
<path transform="matrix(1.00009,0,0,-1,29.844063,79.867)" d="M-11.49112 52.48625H-4.5171806V60.89923H-11.49112Z" fill="#ffffff"/>
<use data-text="5" xlink:href="#font_2_1" transform="matrix(9.963496,0,0,-9.9626,19.348122,26.383996)"/>
<path transform="matrix(1.00009,0,0,-1,29.844063,79.867)" stroke-width="1.59404" stroke-linecap="butt" stroke-miterlimit="10" stroke-linejoin="miter" fill="none" stroke="#c64a86" d="M-16.02116-65.76456C-15.4615-62.96054-15.4615-62.96054-15.07285-61.05559-14.6842-59.15065-14.06094-56.14503-13.67229-54.30153-13.28365-52.45804-12.66039-49.55096-12.27174-47.76892-11.88309-45.98688-11.25983-43.17836-10.87119-41.45776-10.48253-39.73717-9.85927-37.02724-9.47063-35.36807-9.08197-33.70892-8.45871-31.09738-8.07007-29.49966-7.68141-27.90193-7.05815-25.38898-6.66951-23.8527-6.28085-22.31642-5.6576-19.90202-5.26895-18.4272-4.8803-16.95238-4.25703-14.63654-3.8684-13.22316-3.47974-11.80978-2.85648-9.59248-2.46783-8.24057-2.07918-6.88864-1.45592-4.7699-1.06728-3.47943-.67862-2.18896-.05537-.16881 .33325 1.06021 .72191 2.28925 1.34517 4.211 1.73381 5.37859 2.12247 6.54617 2.74573 8.36923 3.13437 9.47536 3.52303 10.5815 4.14629 12.30615 4.53493 13.35085 4.92358 14.39554 5.54684 16.02162 5.93549 17.00487 6.32414 17.98811 6.9474 19.51564 7.33604 20.43744 7.7247 21.35922 8.34796 22.78818 8.7366 23.64856 9.12526 24.50891 9.74852 25.83946 10.13716 26.63838 10.52582 27.4373 11.14908 28.66911 11.53772 29.40657 11.92638 30.14404 12.54964 31.27747 12.93828 31.9535 13.32693 32.62953 13.9502 33.66441 14.33884 34.27896 14.7275 34.89352 15.35075 35.82968 15.7394 36.3828 16.12805 36.93588 16.75131 37.77364 17.13995 38.26534 17.52861 38.75703 18.15187 39.49635 18.54051 39.9266 18.92917 40.35686 19.55243 40.99748 19.94107 41.36624 20.32973 41.73502 20.95299 42.27708 21.34163 42.58443 21.73027 42.89177 22.35355 43.33542 22.74219 43.58133 23.13083 43.82724 23.7541 44.17233 24.14275 44.35677 24.53139 44.5412 25.15466 44.7876 25.5433 44.91058 25.93195 45.03355 26.55522 45.18156 26.94386 45.24312 27.3325 45.30466 27.95578 45.35408 28.34442 45.35419 28.73306 45.35431 29.35632 45.30531 29.74498 45.24397 30.1336 45.18265 30.75688 45.03493 31.14554 44.91214 31.53416 44.78935 32.15744 44.54324 32.5461 44.35901 32.93472 44.17479 33.558 43.82996 33.94666 43.58426 34.33528 43.33858 34.95856 42.89536 35.34721 42.58823 35.73584 42.28111 36.35912 41.73932 36.74777 41.37074 37.1364 41.00218 37.75967 40.36182 38.14833 39.93181 38.53696 39.50177 39.16023 38.76285 39.54889 38.2714 39.93752 37.77995 40.56079 36.94263 40.94943 36.38971 41.33807 35.8368 41.96135 34.90076 42.34999 34.28639 42.73863 33.67204 43.36191 32.63762 43.75055 31.9618 44.13919 31.28598 44.76247 30.15285 45.15111 29.41557 45.53975 28.67831 46.16302 27.44676 46.55167 26.64807 46.9403 25.84938 47.56358 24.51924 47.95222 23.6591 48.34087 22.79895 48.96414 21.37027 49.35278 20.44867 49.74142 19.5271 50.3647 18 50.75334 17.01698 51.14198 16.03395 51.76526 14.40814 52.1539 13.36365 52.54254 12.31915 53.16582 10.59497 53.55446 9.48904 53.9431 8.38309 54.56638 6.56018 54.95502 5.39279 55.34366 4.2254 55.96693 2.30408 56.35558 1.07526 56.74422-.15355 57.3675-2.17342 57.75613-3.46368 58.14478-4.75397 58.76805-6.87242 59.1567-8.22414 59.54533-9.57584 60.1686-11.7927 60.55725-13.20586 60.94589-14.619 61.56915-16.93457 61.95781-18.40921 62.34645-19.88385 62.96971-22.29794 63.35837-23.83401 63.74701-25.37009 64.37027-27.88263 64.75893-29.4801 65.14757-31.0776 65.77083-33.6887 66.15948-35.34766 66.54813-37.0066 67.17139-39.71626 67.56004-41.43666 67.94868-43.15706 68.57195-45.96527 68.9606-47.74713 69.34924-49.52896 69.9725-52.43571 70.36116-54.27904 70.7498-56.12234 71.37306-59.12767 71.7617-61.03241 72.15036-62.93715 73.16226-68.00706 72.70996-65.74051"/>
<path transform="matrix(-.19567761,.98062,.9807083,.19566,13.82147,145.63153)" d="M1.51433 0C-.37857 .37857-2.27148 1.13573-4.54298 2.46077-2.27148 .75716-2.27148-.75716-4.54298-2.46077-2.27148-1.13573-.37857-.37857 1.51433 0Z" fill="#c64a86"/>
<path transform="matrix(-.19567761,.98062,.9807083,.19566,13.82147,145.63153)" stroke-width="1.59404" stroke-linecap="butt" stroke-linejoin="round" fill="none" stroke="#c64a86" d="M1.51433 0C-.37857 .37857-2.27148 1.13573-4.54298 2.46077-2.27148 .75716-2.27148-.75716-4.54298-2.46077-2.27148-1.13573-.37857-.37857 1.51433 0Z"/>
<path transform="matrix(.19571762,.98062,.9807083,-.1957,102.56056,145.6075)" d="M1.51433 0C-.37857 .37857-2.27148 1.13573-4.54298 2.46077-2.27148 .75716-2.27148-.75716-4.54298-2.46077-2.27148-1.13573-.37857-.37857 1.51433 0Z" fill="#c64a86"/>
<path transform="matrix(.19571762,.98062,.9807083,-.1957,102.56056,145.6075)" stroke-width="1.59404" stroke-linecap="butt" stroke-linejoin="round" fill="none" stroke="#c64a86" d="M1.51433 0C-.37857 .37857-2.27148 1.13573-4.54298 2.46077-2.27148 .75716-2.27148-.75716-4.54298-2.46077-2.27148-1.13573-.37857-.37857 1.51433 0Z"/>
</svg>
