<svg xmlns="http://www.w3.org/2000/svg" xmlns:xlink="http://www.w3.org/1999/xlink" version="1.1" width="270" height="201" viewBox="0 0 270 201">
<defs>
<path id="font_1_2" d="M.33399964 .30233766C.33999635 .32835389 .36299134 .42037965 .43299867 .42037965 .43798829 .42037965 .46199037 .42037965 .48298646 .40734864 .45498658 .402359 .43499757 .37734986 .43499757 .35334779 .43499757 .33735658 .44599916 .31835938 .47299195 .31835938 .49499513 .31835938 .5269928 .3363495 .5269928 .37635804 .5269928 .42837525 .46798707 .4423828 .43399049 .4423828 .37599183 .4423828 .34098817 .38935853 .32899476 .36634828 .3039856 .43237306 .25 .4423828 .22099304 .4423828 .116989139 .4423828 .05999756 .3133545 .05999756 .28834535 .05999756 .27833558 .069992069 .27833558 .07199097 .27833558 .07998657 .27833558 .08299255 .28033448 .084991458 .28933717 .11898804 .39535523 .18499756 .42037965 .21899414 .42037965 .23799134 .42037965 .272995 .4113617 .272995 .35334779 .272995 .32235719 .2559967 .25532533 .21899414 .11528015 .20298767 .053268434 .16799927 .011245728 .12399292 .011245728 .117996219 .011245728 .09498596 .011245728 .07398987 .024276734 .09899902 .029266358 .12098694 .05027771 .12098694 .07827759 .12098694 .105270389 .09899902 .11328125 .083999637 .11328125 .053985597 .11328125 .0289917 .08728027 .0289917 .055267335 .0289917 .009246826 .07899475-.0107421879 .12298584-.0107421879 .18899536-.0107421879 .22499085 .059280397 .22799683 .0652771 .23999024 .028274537 .27598573-.0107421879 .33599855-.0107421879 .43899537-.0107421879 .49598695 .118270877 .49598695 .14328003 .49598695 .1532898 .4869995 .1532898 .48399354 .1532898 .47499085 .1532898 .47299195 .14929199 .47099305 .14228821 .43798829 .03527832 .36999513 .011245728 .33799745 .011245728 .29899598 .011245728 .2829895 .043273927 .2829895 .07727051 .2829895 .09927368 .2889862 .121276859 .2999878 .16529846L.33399964 .30233766Z"/>
<path id="font_1_1" d="M.1789856 .114868167C.13899231 .047973634 .099990848 .033981325 .055999757 .0309906 .04399109 .02999878 .034988405 .02999878 .034988405 .010986328 .034988405 .004989624 .039993287 0 .04798889 0 .07499695 0 .10598755 .0029907227 .13398743 .0029907227 .16699219 .0029907227 .20199585 0 .23399353 0 .23999024 0 .25299073 0 .25299073 .018997193 .25299073 .02999878 .24398804 .0309906 .23699951 .0309906 .21398926 .032989503 .18998719 .04096985 .18998719 .06593323 .18998719 .077926639 .19599915 .088897708 .20399475 .102890018L.27999879 .23068238H.5309906C.5329895 .2097168 .5469971 .07392883 .5469971 .063949588 .5469971 .033981325 .49499513 .0309906 .47499085 .0309906 .46099855 .0309906 .45098878 .0309906 .45098878 .010986328 .45098878 0 .46299745 0 .46499635 0 .5059967 0 .548996 .0029907227 .58999636 .0029907227 .61499026 .0029907227 .6779938 0 .7029877 0 .70899966 0 .72099307 0 .72099307 .019989014 .72099307 .0309906 .71099856 .0309906 .69799807 .0309906 .6359863 .0309906 .6359863 .037979127 .6329956 .06694031L.57199099 .691803C.56999209 .71180728 .56999209 .7158203 .5529938 .7158203 .5369873 .7158203 .5329895 .7088165 .5269928 .69880679L.1789856 .114868167M.29899598 .26168824 .49598695 .5917816 .5279999 .26168824H.29899598Z"/>
<path id="font_2_4" d="M.44898988 .20022583C.44898988 .3193512 .36698915 .41944886 .25898744 .41944886 .21099854 .41944886 .16799927 .40345765 .13198853 .36842347V.5637665C.1519928 .5577698 .18499756 .55078127 .21699524 .55078127 .33999635 .55078127 .4099884 .6417694 .4099884 .6547699 .4099884 .6607666 .40699769 .6657715 .3999939 .6657715 .39898683 .6657715 .39698792 .6657715 .3919983 .66278079 .37199403 .6537781 .32299806 .6337738 .2559967 .6337738 .21598816 .6337738 .16999817 .6407776 .12298584 .6617737 .114990238 .66477969 .11299133 .66477969 .11099243 .66477969 .100997928 .66477969 .100997928 .6567688 .100997928 .6407776V.34439088C.100997928 .32637025 .100997928 .31835938 .114990238 .31835938 .12199402 .31835938 .12399292 .32136537 .12799073 .32736207 .13899231 .3433838 .17599488 .39746095 .25698854 .39746095 .30899049 .39746095 .33399964 .35139466 .34199525 .33337403 .35798646 .29632569 .3600006 .25727845 .3600006 .20722962 .3600006 .17222595 .3600006 .11222839 .33599855 .07035828 .31199647 .031463624 .2749939 .0055389406 .22898865 .0055389406 .1559906 .0055389406 .09899902 .058380128 .08198547 .11723328 .084991458 .1162262 .08799744 .115234378 .09899902 .115234378 .13198853 .115234378 .14898682 .14022827 .14898682 .16423035 .14898682 .18823242 .13198853 .21322632 .09899902 .21322632 .084991458 .21322632 .049987794 .20622254 .049987794 .16023255 .049987794 .07434082 .11898804-.022460938 .23098755-.022460938 .34700013-.022460938 .44898988 .073349 .44898988 .20022583Z"/>
<path id="font_2_1" d="M.45999146 .31976319C.45999146 .39982606 .45498658 .47988893 .41999818 .5539398 .37399293 .65000918 .2919922 .6660156 .25 .6660156 .18998719 .6660156 .116989139 .64001467 .07598877 .54693606 .04399109 .47789 .038986207 .39982606 .038986207 .31976319 .038986207 .24472046 .042999269 .15464783 .083999637 .07859802 .1269989-.0024719239 .19999695-.022460938 .24899292-.022460938 .30299378-.022460938 .3789978-.0014648438 .4229889 .09359741 .45498658 .16265869 .45999146 .2407074 .45999146 .31976319M.24899292-.00047302247C.20999146-.00047302247 .15098572 .024551392 .1329956 .12062073 .12199402 .18066406 .12199402 .2727356 .12199402 .3317871 .12199402 .39582826 .12199402 .46188355 .12998963 .5159149 .14898682 .63500979 .22399903 .64401248 .24899292 .64401248 .28199769 .64401248 .34799195 .6259918 .36698915 .52693179 .3769989 .47088624 .3769989 .39482118 .3769989 .3317871 .3769989 .25672914 .3769989 .18867493 .3659973 .12461853 .35099793 .029556275 .2939911-.00047302247 .24899292-.00047302247Z"/>
<path id="font_2_2" d="M.2939911 .64004519C.2939911 .66400149 .2939911 .6660156 .2709961 .6660156 .20899964 .60227969 .12098694 .60227969 .08898926 .60227969V.57128909C.10899353 .57128909 .16799927 .57128909 .21998596 .5972748V.07902527C.21998596 .042999269 .21699524 .0309906 .1269989 .0309906H.09498596V0C.12998963 .0029907227 .21699524 .0029907227 .25698854 .0029907227 .29699708 .0029907227 .38398744 .0029907227 .4189911 0V.0309906H.3869934C.29699708 .0309906 .2939911 .041992189 .2939911 .07902527V.64004519Z"/>
<path id="font_2_3" d="M.1269989 .07699585 .23298645 .18003845C.3889923 .31811524 .44898988 .3721466 .44898988 .47216798 .44898988 .5860901 .35899354 .6660156 .23699951 .6660156 .12399292 .6660156 .049987794 .57411196 .049987794 .48516847 .049987794 .4291687 .099990848 .4291687 .102996829 .4291687 .11999512 .4291687 .15499878 .44117738 .15499878 .48217774 .15499878 .5081787 .13699341 .5341797 .101989749 .5341797 .09399414 .5341797 .09199524 .5341797 .08898926 .5331726 .11199951 .59806826 .1659851 .63500979 .22399903 .63500979 .31498719 .63500979 .35798646 .5541382 .35798646 .47216798 .35798646 .39215089 .30799867 .31311036 .25299073 .25108338L.06098938 .036987306C.049987794 .025985718 .049987794 .023986817 .049987794 0H.42099L.44898988 .17404175H.42399598C.4189911 .14402771 .4119873 .1000061 .4019928 .084991458 .394989 .07699585 .32899476 .07699585 .30699159 .07699585H.1269989Z"/>
</defs>
<path transform="matrix(1.00008,0,0,-1.00006,21.295342,186.75043)" stroke-width=".3985" stroke-linecap="butt" stroke-miterlimit="10" stroke-linejoin="miter" fill="none" stroke="#00aeef" d="M0 0H226.77101M0 11.33855H226.77101M0 22.6771H226.77101M0 34.01564H226.77101M0 45.35419H226.77101M0 56.69275H226.77101M0 68.0313H226.77101M0 79.36984H226.77101M0 90.70839H226.77101M0 102.04694H226.77101M0 113.3855H226.77101M0 124.72404H226.77101M0 136.06259H226.77101M0 147.40114H226.77101M0 158.7397H226.77101M0 170.07427H226.77101M0 0V170.07825M11.33855 0V170.07825M22.6771 0V170.07825M34.01564 0V170.07825M45.35419 0V170.07825M56.69275 0V170.07825M68.0313 0V170.07825M79.36984 0V170.07825M90.70839 0V170.07825M102.04694 0V170.07825M113.3855 0V170.07825M124.72404 0V170.07825M136.06259 0V170.07825M147.40114 0V170.07825M158.7397 0V170.07825M170.07825 0V170.07825M181.4168 0V170.07825M192.75534 0V170.07825M204.09389 0V170.07825M215.43247 0V170.07825M226.76703 0V170.07825M226.77101 170.07825"/>
<path transform="matrix(1.00008,0,0,-1.00006,21.295342,186.75043)" stroke-width="1.19553" stroke-linecap="butt" stroke-miterlimit="10" stroke-linejoin="miter" fill="none" stroke="#000000" d="M0 0H236.23656"/>
<path transform="matrix(1.00008,0,0,-1.00006,257.55079,186.75043)" d="M1.27522 0C-.31879 .31879-1.91284 .9564-3.8257 2.07224-1.91284 .6376-1.91284-.6376-3.8257-2.07224-1.91284-.9564-.31879-.31879 1.27522 0Z"/>
<path transform="matrix(1.00008,0,0,-1.00006,257.55079,186.75043)" stroke-width="1.19553" stroke-linecap="butt" stroke-linejoin="round" fill="none" stroke="#000000" d="M1.27522 0C-.31879 .31879-1.91284 .9564-3.8257 2.07224-1.91284 .6376-1.91284-.6376-3.8257-2.07224-1.91284-.9564-.31879-.31879 1.27522 0Z"/>
<use data-text="x" xlink:href="#font_1_2" transform="matrix(9.963397,0,0,-9.963197,263.3427,188.89556)"/>
<path transform="matrix(1.00008,0,0,-1.00006,21.295342,186.75043)" stroke-width="1.19553" stroke-linecap="butt" stroke-miterlimit="10" stroke-linejoin="miter" fill="none" stroke="#000000" d="M0 0V179.54381"/>
<path transform="matrix(0,-1.00006,-1.00008,-0,21.295342,7.1958467)" d="M1.27522 0C-.31879 .31879-1.91284 .9564-3.8257 2.07224-1.91284 .6376-1.91284-.6376-3.8257-2.07224-1.91284-.9564-.31879-.31879 1.27522 0Z"/>
<path transform="matrix(0,-1.00006,-1.00008,-0,21.295342,7.1958467)" stroke-width="1.19553" stroke-linecap="butt" stroke-linejoin="round" fill="none" stroke="#000000" d="M1.27522 0C-.31879 .31879-1.91284 .9564-3.8257 2.07224-1.91284 .6376-1.91284-.6376-3.8257-2.07224-1.91284-.9564-.31879-.31879 1.27522 0Z"/>
<use data-text="A" xlink:href="#font_1_1" transform="matrix(9.963397,0,0,-9.963197,11.896591,8.726746)"/>
<path transform="matrix(1.00008,0,0,-1.00006,21.295342,186.75043)" stroke-width="1.19553" stroke-linecap="butt" stroke-miterlimit="10" stroke-linejoin="miter" fill="none" stroke="#00aeef" d="M56.69275 0V170.07825"/>
<path transform="matrix(1.00008,0,0,-1.00006,21.295342,186.75043)" stroke-width=".3985" stroke-linecap="butt" stroke-miterlimit="10" stroke-linejoin="miter" fill="none" stroke="#000000" d="M56.69275 2.26765V-2.26765"/>
<path transform="matrix(1.00008,0,0,-1.00006,21.295342,186.75043)" d="M48.22438-12.87245H65.1611V-4.45947H48.22438Z" fill="#ffffff"/>
<use data-text="5" xlink:href="#font_2_4" transform="matrix(9.963397,0,0,-9.963197,70.52028,198.62714)"/>
<use data-text="0" xlink:href="#font_2_1" transform="matrix(9.963397,0,0,-9.963197,75.50198,198.62714)"/>
<use data-text="0" xlink:href="#font_2_1" transform="matrix(9.963397,0,0,-9.963197,80.48368,198.62714)"/>
<path transform="matrix(1.00008,0,0,-1.00006,21.295342,186.75043)" stroke-width="1.19553" stroke-linecap="butt" stroke-miterlimit="10" stroke-linejoin="miter" fill="none" stroke="#00aeef" d="M113.3855 0V170.07825"/>
<path transform="matrix(1.00008,0,0,-1.00006,21.295342,186.75043)" stroke-width=".3985" stroke-linecap="butt" stroke-miterlimit="10" stroke-linejoin="miter" fill="none" stroke="#000000" d="M113.3855 2.26765V-2.26765"/>
<path transform="matrix(1.00008,0,0,-1.00006,21.295342,186.75043)" d="M102.42642-12.87245H124.34456V-4.45947H102.42642Z" fill="#ffffff"/>
<use data-text="1" xlink:href="#font_2_2" transform="matrix(9.963397,0,0,-9.963197,124.72661,198.62714)"/>
<use data-text="0" xlink:href="#font_2_1" transform="matrix(9.963397,0,0,-9.963197,129.70832,198.62714)"/>
<use data-text="0" xlink:href="#font_2_1" transform="matrix(9.963397,0,0,-9.963197,134.69,198.62714)"/>
<use data-text="0" xlink:href="#font_2_1" transform="matrix(9.963397,0,0,-9.963197,139.6717,198.62714)"/>
<path transform="matrix(1.00008,0,0,-1.00006,21.295342,186.75043)" stroke-width="1.19553" stroke-linecap="butt" stroke-miterlimit="10" stroke-linejoin="miter" fill="none" stroke="#00aeef" d="M170.07825 0V170.07825"/>
<path transform="matrix(1.00008,0,0,-1.00006,21.295342,186.75043)" stroke-width=".3985" stroke-linecap="butt" stroke-miterlimit="10" stroke-linejoin="miter" fill="none" stroke="#000000" d="M170.07825 2.26765V-2.26765"/>
<path transform="matrix(1.00008,0,0,-1.00006,21.295342,186.75043)" d="M159.11917-12.87245H181.03731V-4.45947H159.11917Z" fill="#ffffff"/>
<use data-text="1" xlink:href="#font_2_2" transform="matrix(9.963397,0,0,-9.963197,181.42316,198.62714)"/>
<use data-text="5" xlink:href="#font_2_4" transform="matrix(9.963397,0,0,-9.963197,186.40485,198.62714)"/>
<use data-text="0" xlink:href="#font_2_1" transform="matrix(9.963397,0,0,-9.963197,191.38655,198.62714)"/>
<use data-text="0" xlink:href="#font_2_1" transform="matrix(9.963397,0,0,-9.963197,196.36826,198.62714)"/>
<path transform="matrix(1.00008,0,0,-1.00006,21.295342,186.75043)" stroke-width="1.19553" stroke-linecap="butt" stroke-miterlimit="10" stroke-linejoin="miter" fill="none" stroke="#00aeef" d="M226.77101 0V170.07825"/>
<path transform="matrix(1.00008,0,0,-1.00006,21.295342,186.75043)" stroke-width=".3985" stroke-linecap="butt" stroke-miterlimit="10" stroke-linejoin="miter" fill="none" stroke="#000000" d="M226.77101 2.26765V-2.26765"/>
<path transform="matrix(1.00008,0,0,-1.00006,21.295342,186.75043)" d="M215.81194-12.87245H237.73007V-4.45947H215.81194Z" fill="#ffffff"/>
<use data-text="2" xlink:href="#font_2_3" transform="matrix(9.963397,0,0,-9.963197,238.1207,198.62714)"/>
<use data-text="0" xlink:href="#font_2_1" transform="matrix(9.963397,0,0,-9.963197,243.10239,198.62714)"/>
<use data-text="0" xlink:href="#font_2_1" transform="matrix(9.963397,0,0,-9.963197,248.08409,198.62714)"/>
<use data-text="0" xlink:href="#font_2_1" transform="matrix(9.963397,0,0,-9.963197,253.0658,198.62714)"/>
<path transform="matrix(1.00008,0,0,-1.00006,21.295342,186.75043)" stroke-width="1.19553" stroke-linecap="butt" stroke-miterlimit="10" stroke-linejoin="miter" fill="none" stroke="#00aeef" d="M0 56.69275H226.77101"/>
<path transform="matrix(1.00008,0,0,-1.00006,21.295342,186.75043)" stroke-width=".3985" stroke-linecap="butt" stroke-miterlimit="10" stroke-linejoin="miter" fill="none" stroke="#000000" d="M2.26765 56.69275H-2.26765"/>
<path transform="matrix(1.00008,0,0,-1.00006,21.295342,186.75043)" d="M-16.41481 52.48625H-4.45947V60.89923H-16.41481Z" fill="#ffffff"/>
<use data-text="5" xlink:href="#font_2_4" transform="matrix(9.963397,0,0,-9.963197,5.875107,133.26422)"/>
<use data-text="0" xlink:href="#font_2_1" transform="matrix(9.963397,0,0,-9.963197,10.856812,133.26422)"/>
<path transform="matrix(1.00008,0,0,-1.00006,21.295342,186.75043)" stroke-width="1.19553" stroke-linecap="butt" stroke-miterlimit="10" stroke-linejoin="miter" fill="none" stroke="#00aeef" d="M0 113.3855H226.77101"/>
<path transform="matrix(1.00008,0,0,-1.00006,21.295342,186.75043)" stroke-width=".3985" stroke-linecap="butt" stroke-miterlimit="10" stroke-linejoin="miter" fill="none" stroke="#000000" d="M2.26765 113.3855H-2.26765"/>
<path transform="matrix(1.00008,0,0,-1.00006,21.295342,186.75043)" d="M-21.3962 109.179H-4.4594805V117.59198H-21.3962Z" fill="#ffffff"/>
<use data-text="1" xlink:href="#font_2_2" transform="matrix(9.963397,0,0,-9.963197,.8937073,76.56882)"/>
<use data-text="0" xlink:href="#font_2_1" transform="matrix(9.963397,0,0,-9.963197,5.875412,76.56882)"/>
<use data-text="0" xlink:href="#font_2_1" transform="matrix(9.963397,0,0,-9.963197,10.857109,76.56882)"/>
<path transform="matrix(1.00008,0,0,-1.00006,21.295342,186.75043)" stroke-width="1.19553" stroke-linecap="butt" stroke-miterlimit="10" stroke-linejoin="miter" fill="none" stroke="#00aeef" d="M0 170.07825H226.77101"/>
<path transform="matrix(1.00008,0,0,-1.00006,21.295342,186.75043)" stroke-width=".3985" stroke-linecap="butt" stroke-miterlimit="10" stroke-linejoin="miter" fill="none" stroke="#000000" d="M2.26765 170.07825H-2.26765"/>
<path transform="matrix(1.00008,0,0,-1.00006,21.295342,186.75043)" d="M-21.3962 165.87177H-4.4594805V174.28475H-21.3962Z" fill="#ffffff"/>
<use data-text="1" xlink:href="#font_2_2" transform="matrix(9.963397,0,0,-9.963197,.8937073,19.872422)"/>
<use data-text="5" xlink:href="#font_2_4" transform="matrix(9.963397,0,0,-9.963197,5.875412,19.872422)"/>
<use data-text="0" xlink:href="#font_2_1" transform="matrix(9.963397,0,0,-9.963197,10.857109,19.872422)"/>
<path transform="matrix(1.00008,0,0,-1.00006,21.295342,186.75043)" stroke-width="1.19553" stroke-linecap="butt" stroke-miterlimit="10" stroke-linejoin="miter" fill="none" stroke="#ff0000" d="M5.80522 168.21027C8.1653 135.79076 8.1653 135.79076 9.12398 127.14915 10.08264 118.50757 11.62003 112.00862 12.57869 107.79562 13.53735 103.58263 15.07474 99.29875 16.0334 96.78476 16.99207 94.27077 18.52945 91.35185 19.48813 89.67654 20.4468 88.00122 21.98416 85.90802 22.94284 84.71022 23.9015 83.5124 25.43887 81.94316 26.39754 81.04356 27.35622 80.14397 28.89359 78.9274 29.85226 78.22658 30.81094 77.52574 32.34831 76.55408 33.30698 75.99246 34.26564 75.43083 35.80302 74.63881 36.76169 74.17876 37.72035 73.71873 39.25774 73.06065 40.2164 72.67685 41.17508 72.29303 42.71245 71.73766 43.67111 71.41248 44.62979 71.08727 46.16718 70.61206 47.12584 70.33305 48.0845 70.05403 49.62189 69.64351 50.58055 69.40154 51.53922 69.15958 53.07658 68.80101 54.03526 68.58908 54.99393 68.37714 56.53131 68.06119 57.48999 67.87401 58.44865 67.68686 59.98602 67.40652 60.94469 67.24011 61.90337 67.07367 63.44073 66.82352 64.3994 66.67451 65.3581 66.52553 66.89546 66.30045 67.85413 66.16621 68.81277 66.03197 70.35016 65.82849 71.30884 65.70703 72.2675 65.58557 73.80489 65.40123 74.76355 65.29077 75.72221 65.1803 77.25961 65.01176 78.21826 64.91083 79.17693 64.80989 80.71431 64.65576 81.67299 64.56325 82.63165 64.47073 84.16904 64.32922 85.1277 64.24403 86.08636 64.15887 87.62373 64.02806 88.58241 63.94942 89.54108 63.87074 91.07845 63.74995 92.03714 63.67708 92.9958 63.6042 94.53317 63.4918 95.49184 63.42413 96.45052 63.35648 97.98788 63.25233 98.94655 63.18936 99.90523 63.12637 101.4426 63.029 102.40128 62.97014 103.35994 62.9113 104.89732 62.82019 105.85599 62.76514 106.81464 62.71007 108.35204 62.62486 109.3107 62.57327 110.26936 62.52165 111.80675 62.44164 112.76541 62.39316 113.72409 62.34467 115.26146 62.26942 116.22012 62.22377 117.1788 62.17812 118.71619 62.10715 119.67485 62.06407 120.63351 62.02103 122.17088 61.95407 123.12956 61.91339 124.08823 61.8727 125.6256 61.80931 126.58427 61.77083 127.54294 61.73236 129.08032 61.6725 130.03899 61.63605 130.99767 61.5996 132.53504 61.54263 133.4937 61.50801 134.45238 61.4734 135.98975 61.41945 136.94841 61.38657 137.90709 61.35368 139.44448 61.30229 140.40314 61.271 141.36179 61.2397 142.89917 61.19077 143.85785 61.16095 144.81652 61.13115 146.3539 61.08449 147.31256 61.0561 148.27123 61.02774 149.80863 60.98357 150.76728 60.95647 151.72594 60.92935 153.2633 60.88673 154.22199 60.86078 155.18067 60.83484 156.71804 60.79422 157.67671 60.76942 158.63538 60.74463 160.17275 60.7058 161.13143 60.68207 162.09009 60.65833 163.62746 60.62108 164.58614 60.59831 165.54482 60.57558 167.08219 60.53987 168.04085 60.51805 168.99953 60.49623 170.5369 60.462 171.49556 60.44106 172.45423 60.4201 173.99161 60.38716 174.95027 60.367 175.90895 60.34685 177.44632 60.3151 178.405 60.29572 179.36367 60.27635 180.90105 60.24602 181.85971 60.22739 182.81838 60.20876 184.35576 60.17941 185.31443 60.16147 186.27309 60.14352 187.81046 60.11525 188.76914 60.09798 189.72782 60.08069 191.26519 60.05359 192.22386 60.0369 193.18253 60.02022 194.7199 59.9938 195.67858 59.97772 196.63724 59.96164 198.1746 59.93651 199.13327 59.92097 200.09195 59.90544 201.62934 59.88084 202.588 59.8658 203.54668 59.85074 205.08405 59.82701 206.04271 59.8125 207.00138 59.79797 208.53876 59.77516 209.49742 59.76111 210.4561 59.74709 211.99349 59.7249 212.95215 59.71129 213.9108 59.69768 215.44818 59.6762 216.40686 59.66301 217.36553 59.64984 218.90291 59.62906 219.86157 59.6163 220.82024 59.60356 222.3576 59.58348 223.31629 59.57115 224.27497 59.5588 226.77101 59.52737 224.89826 59.55093"/>
<path transform="matrix(-.0726058,-.9973898,-.99740979,.07260435,27.101046,18.530076)" d="M1.27522 0C-.31879 .31879-1.91284 .9564-3.8257 2.07224-1.91284 .6376-1.91284-.6376-3.8257-2.07224-1.91284-.9564-.31879-.31879 1.27522 0Z" fill="#ff0000"/>
<path transform="matrix(-.0726058,-.9973898,-.99740979,.07260435,27.101046,18.530076)" stroke-width="1.19553" stroke-linecap="butt" stroke-linejoin="round" fill="none" stroke="#ff0000" d="M1.27522 0C-.31879 .31879-1.91284 .9564-3.8257 2.07224-1.91284 .6376-1.91284-.6376-3.8257-2.07224-1.91284-.9564-.31879-.31879 1.27522 0Z"/>
<path transform="matrix(.99996,.012590756,.012591007,-.99994,246.21158,127.19591)" d="M1.27522 0C-.31879 .31879-1.91284 .9564-3.8257 2.07224-1.91284 .6376-1.91284-.6376-3.8257-2.07224-1.91284-.9564-.31879-.31879 1.27522 0Z" fill="#ff0000"/>
<path transform="matrix(.99996,.012590756,.012591007,-.99994,246.21158,127.19591)" stroke-width="1.19553" stroke-linecap="butt" stroke-linejoin="round" fill="none" stroke="#ff0000" d="M1.27522 0C-.31879 .31879-1.91284 .9564-3.8257 2.07224-1.91284 .6376-1.91284-.6376-3.8257-2.07224-1.91284-.9564-.31879-.31879 1.27522 0Z"/>
</svg>
