<svg xmlns="http://www.w3.org/2000/svg" xmlns:xlink="http://www.w3.org/1999/xlink" version="1.1" width="153" height="199" viewBox="0 0 153 199">
<defs>
<path id="font_1_3" d="M.20599365 .3996582H.2999878C.31999208 .3996582 .32998658 .3996582 .32998658 .41966249 .32998658 .43066407 .31999208 .43066407 .3019867 .43066407H.21398926C.25 .5724945 .25498963 .59246829 .25498963 .59846499 .25498963 .61546328 .24299622 .62545779 .22599793 .62545779 .22299195 .62545779 .19499207 .62446597 .18598938 .58947756L.14698792 .43066407H.052993776C.032989503 .43066407 .022994996 .43066407 .022994996 .4116516 .022994996 .3996582 .0309906 .3996582 .050994874 .3996582H.13899231C.066986087 .11608887 .06298828 .099121097 .06298828 .08114624 .06298828 .02722168 .100997928-.0107421879 .15499878-.0107421879 .25698854-.0107421879 .31399537 .13505554 .31399537 .14305115 .31399537 .1530304 .30599977 .1530304 .3019867 .1530304 .29299928 .1530304 .2919922 .15003968 .2869873 .13905335 .24398804 .035217287 .19099427 .011245728 .15699768 .011245728 .13598633 .011245728 .12599182 .024230957 .12599182 .057174684 .12599182 .08114624 .12799073 .088134769 .13198853 .10510254L.20599365 .3996582Z"/>
<path id="font_1_2" d="M.2869873 .68333438C.2869873 .6843262 .2869873 .69433596 .27398683 .69433596 .25099183 .69433596 .17799378 .6863251 .1519928 .6843262 .14399719 .68333438 .1329956 .6823273 .1329956 .6643219 .1329956 .6523285 .14199829 .6523285 .15699768 .6523285 .20498657 .6523285 .20698548 .6453247 .20698548 .6353302L.20399475 .6153412 .05899048 .039260866C.054992677 .025253296 .054992677 .023254395 .054992677 .01725769 .054992677-.0057525637 .07499695-.0107421879 .083999637-.0107421879 .099990848-.0107421879 .115997318 .0012512207 .12098694 .015258789L.13999939 .091278079 .1619873 .18130493C.16799927 .2033081 .17399597 .22531128 .1789856 .24832154 .18099976 .25431825 .18899536 .28733827 .18998719 .29333497 .19299317 .30233766 .22399903 .35835267 .2579956 .38536073 .27999879 .4013672 .31098939 .42037965 .35398866 .42037965 .39698792 .42037965 .4079895 .3863678 .4079895 .35035707 .4079895 .29634095 .36999513 .18730164 .34599305 .12628174 .33799745 .103271488 .33299256 .091278079 .33299256 .0712738 .33299256 .024261475 .36799623-.0107421879 .4149933-.0107421879 .5089874-.0107421879 .54599 .13528443 .54599 .14329529 .54599 .1532898 .5369873 .1532898 .5339966 .1532898 .5239868 .1532898 .5239868 .15029907 .5189972 .13528443 .5039978 .08227539 .47200013 .011245728 .4169922 .011245728 .3999939 .011245728 .3929901 .021255494 .3929901 .044265748 .3929901 .0692749 .4019928 .09327698 .41099549 .11528015 .4269867 .15829468 .47200013 .2773285 .47200013 .3353424 .47200013 .4003601 .43199159 .4423828 .35699464 .4423828 .2939911 .4423828 .24598694 .41137696 .20899964 .36535646L.2869873 .68333438Z"/>
<path id="font_2_1" d="M.45999146 .31976319C.45999146 .39982606 .45498658 .47988893 .41999818 .5539398 .37399293 .65000918 .2919922 .6660156 .25 .6660156 .18998719 .6660156 .116989139 .64001467 .07598877 .54693606 .04399109 .47789 .038986207 .39982606 .038986207 .31976319 .038986207 .24472046 .042999269 .15464783 .083999637 .07859802 .1269989-.0024719239 .19999695-.022460938 .24899292-.022460938 .30299378-.022460938 .3789978-.0014648438 .4229889 .09359741 .45498658 .16265869 .45999146 .2407074 .45999146 .31976319M.24899292-.00047302247C.20999146-.00047302247 .15098572 .024551392 .1329956 .12062073 .12199402 .18066406 .12199402 .2727356 .12199402 .3317871 .12199402 .39582826 .12199402 .46188355 .12998963 .5159149 .14898682 .63500979 .22399903 .64401248 .24899292 .64401248 .28199769 .64401248 .34799195 .6259918 .36698915 .52693179 .3769989 .47088624 .3769989 .39482118 .3769989 .3317871 .3769989 .25672914 .3769989 .18867493 .3659973 .12461853 .35099793 .029556275 .2939911-.00047302247 .24899292-.00047302247Z"/>
<path id="font_1_1" d="M.19198609 .052993776C.19198609 .08198547 .16799927 .10598755 .13899231 .10598755 .10998535 .10598755 .085998538 .08198547 .085998538 .052993776 .085998538 .023986817 .10998535 0 .13899231 0 .16799927 0 .19198609 .023986817 .19198609 .052993776Z"/>
<path id="font_2_4" d="M.44898988 .20022583C.44898988 .3193512 .36698915 .41944886 .25898744 .41944886 .21099854 .41944886 .16799927 .40345765 .13198853 .36842347V.5637665C.1519928 .5577698 .18499756 .55078127 .21699524 .55078127 .33999635 .55078127 .4099884 .6417694 .4099884 .6547699 .4099884 .6607666 .40699769 .6657715 .3999939 .6657715 .39898683 .6657715 .39698792 .6657715 .3919983 .66278079 .37199403 .6537781 .32299806 .6337738 .2559967 .6337738 .21598816 .6337738 .16999817 .6407776 .12298584 .6617737 .114990238 .66477969 .11299133 .66477969 .11099243 .66477969 .100997928 .66477969 .100997928 .6567688 .100997928 .6407776V.34439088C.100997928 .32637025 .100997928 .31835938 .114990238 .31835938 .12199402 .31835938 .12399292 .32136537 .12799073 .32736207 .13899231 .3433838 .17599488 .39746095 .25698854 .39746095 .30899049 .39746095 .33399964 .35139466 .34199525 .33337403 .35798646 .29632569 .3600006 .25727845 .3600006 .20722962 .3600006 .17222595 .3600006 .11222839 .33599855 .07035828 .31199647 .031463624 .2749939 .0055389406 .22898865 .0055389406 .1559906 .0055389406 .09899902 .058380128 .08198547 .11723328 .084991458 .1162262 .08799744 .115234378 .09899902 .115234378 .13198853 .115234378 .14898682 .14022827 .14898682 .16423035 .14898682 .18823242 .13198853 .21322632 .09899902 .21322632 .084991458 .21322632 .049987794 .20622254 .049987794 .16023255 .049987794 .07434082 .11898804-.022460938 .23098755-.022460938 .34700013-.022460938 .44898988 .073349 .44898988 .20022583Z"/>
<path id="font_2_2" d="M.2939911 .64004519C.2939911 .66400149 .2939911 .6660156 .2709961 .6660156 .20899964 .60227969 .12098694 .60227969 .08898926 .60227969V.57128909C.10899353 .57128909 .16799927 .57128909 .21998596 .5972748V.07902527C.21998596 .042999269 .21699524 .0309906 .1269989 .0309906H.09498596V0C.12998963 .0029907227 .21699524 .0029907227 .25698854 .0029907227 .29699708 .0029907227 .38398744 .0029907227 .4189911 0V.0309906H.3869934C.29699708 .0309906 .2939911 .041992189 .2939911 .07902527V.64004519Z"/>
<path id="font_2_3" d="M.1269989 .07699585 .23298645 .18003845C.3889923 .31811524 .44898988 .3721466 .44898988 .47216798 .44898988 .5860901 .35899354 .6660156 .23699951 .6660156 .12399292 .6660156 .049987794 .57411196 .049987794 .48516847 .049987794 .4291687 .099990848 .4291687 .102996829 .4291687 .11999512 .4291687 .15499878 .44117738 .15499878 .48217774 .15499878 .5081787 .13699341 .5341797 .101989749 .5341797 .09399414 .5341797 .09199524 .5341797 .08898926 .5331726 .11199951 .59806826 .1659851 .63500979 .22399903 .63500979 .31498719 .63500979 .35798646 .5541382 .35798646 .47216798 .35798646 .39215089 .30799867 .31311036 .25299073 .25108338L.06098938 .036987306C.049987794 .025985718 .049987794 .023986817 .049987794 0H.42099L.44898988 .17404175H.42399598C.4189911 .14402771 .4119873 .1000061 .4019928 .084991458 .394989 .07699585 .32899476 .07699585 .30699159 .07699585H.1269989Z"/>
<path id="font_2_6" d="M.68699648 .32714845C.70199587 .32714845 .72099307 .32714845 .72099307 .34713746 .72099307 .36714173 .70199587 .36714173 .6879883 .36714173H.08898926C.07499695 .36714173 .055999757 .36714173 .055999757 .34713746 .055999757 .32714845 .07499695 .32714845 .08999634 .32714845H.68699648M.6879883 .13284302C.70199587 .13284302 .72099307 .13284302 .72099307 .15284729 .72099307 .17285156 .70199587 .17285156 .68699648 .17285156H.08999634C.07499695 .17285156 .055999757 .17285156 .055999757 .15284729 .055999757 .13284302 .07499695 .13284302 .08898926 .13284302H.6879883Z"/>
<path id="font_3_1" d="M.6589966 .23046875C.6759949 .23046875 .69400027 .23046875 .69400027 .25045777 .69400027 .27046205 .6759949 .27046205 .6589966 .27046205H.117996219C.100997928 .27046205 .08299255 .27046205 .08299255 .25045777 .08299255 .23046875 .100997928 .23046875 .117996219 .23046875H.6589966Z"/>
<path id="font_2_5" d="M.13198853 .327713V.35173036C.13198853 .6047821 .2559967 .64100649 .30699159 .64100649 .33099366 .64100649 .37298585 .634964 .394989 .6007538 .37998963 .6007538 .33999635 .6007538 .33999635 .5557556 .33999635 .524765 .3639984 .5097656 .38598634 .5097656 .4019928 .5097656 .43199159 .51875308 .43199159 .5577545 .43199159 .6178589 .3880005 .6660156 .30499269 .6660156 .1769867 .6660156 .041992189 .5367584 .041992189 .31570436 .041992189 .048553468 .1579895-.022460938 .25099183-.022460938 .3619995-.022460938 .45700074 .07156372 .45700074 .2036438 .45700074 .33070375 .36799623 .4267578 .25698854 .4267578 .18899536 .4267578 .1519928 .37573243 .13198853 .327713M.25099183 .0055389406C.18798828 .0055389406 .1579895 .06556702 .1519928 .080566409 .13398743 .127594 .13398743 .2076416 .13398743 .22564698 .13398743 .30369569 .1659851 .40374757 .2559967 .40374757 .27198792 .40374757 .31799317 .40374757 .34899903 .34172059 .36698915 .30470277 .36698915 .2536621 .36698915 .20463562 .36698915 .15661621 .36698915 .10658264 .34999085 .0705719 .31999208 .010528564 .27398683 .0055389406 .25099183 .0055389406Z"/>
<path id="font_4_1" d="M.5049896 .18203736H.47099305C.46798707 .16001892 .45799256 .100997928 .44499208 .09098816 .43699647 .084991458 .3600006 .084991458 .34599305 .084991458H.1619873C.2669983 .17803955 .3019867 .20603943 .3619995 .25306703 .43598939 .312088 .5049896 .374115 .5049896 .46914674 .5049896 .5900879 .39898683 .6640625 .2709961 .6640625 .14698792 .6640625 .06298828 .57710269 .06298828 .4851532 .06298828 .43414308 .10598755 .42915345 .115997318 .42915345 .13999939 .42915345 .16899109 .44615174 .16899109 .48214723 .16899109 .5001526 .1619873 .53515627 .10998535 .53515627 .14099121 .6060791 .20899964 .62805178 .2559967 .62805178 .35598756 .62805178 .4079895 .5501404 .4079895 .46914674 .4079895 .38212586 .34599305 .3130951 .31399537 .27708436L.07299805 .038986207C.06298828 .02999878 .06298828 .027999878 .06298828 0H.47499085L.5049896 .18203736Z"/>
<path id="font_5_28" d="M.48298646 .08912659V.14511109H.45799256V.08912659C.45799256 .03112793 .43299867 .025131226 .42199708 .025131226 .3889923 .025131226 .3849945 .070129398 .3849945 .07511902V.27508546C.3849945 .31707765 .3849945 .3560791 .34899903 .39312745 .30999757 .43223573 .2599945 .4482422 .21199036 .4482422 .12998963 .4482422 .06098938 .40115357 .06098938 .335083 .06098938 .30508424 .08099365 .28808595 .10699463 .28808595 .1349945 .28808595 .15299988 .30807496 .15299988 .33407594 .15299988 .3460846 .147995 .37908937 .101989749 .38008119 .1289978 .41519166 .17799378 .426239 .20999146 .426239 .25898744 .426239 .31599427 .38710023 .31599427 .29808045V.26107789C.2649994 .25808717 .19499207 .25508119 .13198853 .22509766 .056991579 .19110108 .03199768 .13911438 .03199768 .09512329 .03199768 .014251709 .1289978-.0107421879 .19198609-.0107421879 .2579956-.0107421879 .3039856 .029251099 .32299806 .07624817 .32699586 .036132814 .35398866-.005859375 .40098573-.005859375 .42199708-.005859375 .48298646 .008132935 .48298646 .08912659M.31599427 .14013672C.31599427 .04525757 .24398804 .011245728 .19898987 .011245728 .1499939 .011245728 .10899353 .04624939 .10899353 .09625244 .10899353 .15124512 .15098572 .23425293 .31599427 .24024964V.14013672Z"/>
<path id="font_5_35" d="M.5209961 .2163086C.5209961 .34335328 .4229889 .4423828 .30899049 .4423828 .23098755 .4423828 .18798828 .39537049 .17199707 .3773651V.69433596L.027999878 .68333438V.6523285C.09799194 .6523285 .10598755 .6453247 .10598755 .596344V.00024414063H.1309967L.16699219 .06227112C.18199158 .039260866 .22399903-.0107421879 .2979889-.0107421879 .4169922-.0107421879 .5209961 .08728027 .5209961 .2163086M.43798829 .21731568C.43798829 .18029785 .43598939 .120285037 .40699769 .07527161 .38598634 .044265748 .34799195 .011245728 .2939911 .011245728 .24899292 .011260986 .21299744 .03526306 .18899536 .072265628 .1749878 .09326172 .1749878 .09625244 .1749878 .11425781V.32034303C.1749878 .3393402 .1749878 .3403473 .18598938 .35635377 .22499085 .41236878 .27999879 .42037965 .3039856 .42037965 .34899903 .42037965 .3849945 .3943634 .40899659 .35635377 .43499757 .31533814 .43798829 .25831605 .43798829 .21730042V.21731568Z"/>
</defs>
<path transform="matrix(1.00008,0,0,-1,17.398278,185.797)" stroke-width=".3985" stroke-linecap="butt" stroke-miterlimit="10" stroke-linejoin="miter" fill="none" stroke="#00aeef" d="M0 0H106.3005M0 14.17339H106.3005M0 28.3468H106.3005M0 42.5202H106.3005M0 56.69362H106.3005M0 70.867H106.3005M0 85.04042H106.3005M0 99.21382H106.3005M0 113.38724H106.3005M0 127.56062H106.3005M0 141.73404H106.3005M0 155.90744H106.3005M0 170.07836H106.3005M0 0V170.08086M17.7167 0V170.08086M35.43344 0V170.08086M53.15016 0V170.08086M70.8669 0V170.08086M88.58362 0V170.08086M106.30035 0V170.08086M106.3005 170.08086"/>
<path transform="matrix(1.00008,0,0,-1,17.398278,185.797)" stroke-width=".79701" stroke-linecap="butt" stroke-miterlimit="10" stroke-linejoin="miter" fill="none" stroke="#000000" d="M0 0H126.1262"/>
<path transform="matrix(1.00008,0,0,-1,143.53456,185.797)" d="M1.0361 0C-.25902 .25902-1.55415 .77707-3.1083 1.68365-1.55415 .51805-1.55415-.51805-3.1083-1.68365-1.55415-.77707-.25902-.25902 1.0361 0Z"/>
<path transform="matrix(1.00008,0,0,-1,143.53456,185.797)" stroke-width=".79701" stroke-linecap="butt" stroke-linejoin="round" fill="none" stroke="#000000" d="M1.0361 0C-.25902 .25902-1.55415 .77707-3.1083 1.68365-1.55415 .51805-1.55415-.51805-3.1083-1.68365-1.55415-.77707-.25902-.25902 1.0361 0Z"/>
<use data-text="t" xlink:href="#font_1_3" transform="matrix(9.963397,0,0,-9.9626,148.68878,188.861)"/>
<path transform="matrix(1.00008,0,0,-1,17.398278,185.797)" stroke-width=".79701" stroke-linecap="butt" stroke-miterlimit="10" stroke-linejoin="miter" fill="none" stroke="#000000" d="M0 0V179.985"/>
<path transform="matrix(0,-1,-1.00008,-0,17.398278,5.8119966)" d="M1.0361 0C-.25902 .25902-1.55415 .77707-3.1083 1.68365-1.55415 .51805-1.55415-.51805-3.1083-1.68365-1.55415-.77707-.25902-.25902 1.0361 0Z"/>
<path transform="matrix(0,-1,-1.00008,-0,17.398278,5.8119966)" stroke-width=".79701" stroke-linecap="butt" stroke-linejoin="round" fill="none" stroke="#000000" d="M1.0361 0C-.25902 .25902-1.55415 .77707-3.1083 1.68365-1.55415 .51805-1.55415-.51805-3.1083-1.68365-1.55415-.77707-.25902-.25902 1.0361 0Z"/>
<use data-text="h" xlink:href="#font_1_2" transform="matrix(9.963397,0,0,-9.9626,7.9385225,7.8369905)"/>
<path transform="matrix(1.00008,0,0,-1,17.398278,185.797)" stroke-width=".79701" stroke-linecap="butt" stroke-miterlimit="10" stroke-linejoin="miter" fill="none" stroke="#000000" d="M35.43347 1.06294V-1.06305"/>
<path transform="matrix(1.00008,0,0,-1,17.398278,185.797)" d="M28.07208-11.8671H42.79486V-3.4541198H28.07208Z" fill="#ffffff"/>
<use data-text="0" xlink:href="#font_2_1" transform="matrix(9.963397,0,0,-9.9626,46.468606,196.668)"/>
<use data-text="." xlink:href="#font_1_1" transform="matrix(9.963397,0,0,-9.9626,51.450006,196.668)"/>
<use data-text="5" xlink:href="#font_2_4" transform="matrix(9.963397,0,0,-9.9626,54.217226,196.668)"/>
<path transform="matrix(1.00008,0,0,-1,17.398278,185.797)" stroke-width=".79701" stroke-linecap="butt" stroke-miterlimit="10" stroke-linejoin="miter" fill="none" stroke="#000000" d="M70.867 1.06294V-1.06305"/>
<path transform="matrix(1.00008,0,0,-1,17.398278,185.797)" d="M67.38004-11.8671H74.35398V-3.4541198H67.38004Z" fill="#ffffff"/>
<use data-text="1" xlink:href="#font_2_2" transform="matrix(9.963397,0,0,-9.9626,85.77975,196.668)"/>
<path transform="matrix(1.00008,0,0,-1,17.398278,185.797)" stroke-width=".79701" stroke-linecap="butt" stroke-miterlimit="10" stroke-linejoin="miter" fill="none" stroke="#000000" d="M106.3005 1.06294V-1.06305"/>
<path transform="matrix(1.00008,0,0,-1,17.398278,185.797)" d="M98.93912-11.8671H113.661899V-3.4541198H98.93912Z" fill="#ffffff"/>
<use data-text="1" xlink:href="#font_2_2" transform="matrix(9.963397,0,0,-9.9626,117.34127,196.668)"/>
<use data-text="." xlink:href="#font_1_1" transform="matrix(9.963397,0,0,-9.9626,122.32267,196.668)"/>
<use data-text="5" xlink:href="#font_2_4" transform="matrix(9.963397,0,0,-9.9626,125.08989,196.668)"/>
<path transform="matrix(1.00008,0,0,-1,17.398278,185.797)" stroke-width="1.19553" stroke-linecap="butt" stroke-miterlimit="10" stroke-linejoin="miter" fill="none" stroke="#00aeef" d="M70.867 0V170.08086"/>
<path transform="matrix(1.00008,0,0,-1,17.398278,185.797)" stroke-width="1.19553" stroke-linecap="butt" stroke-miterlimit="10" stroke-linejoin="miter" fill="none" stroke="#00aeef" d="M0 70.867H106.3005"/>
<path transform="matrix(1.00008,0,0,-1,17.398278,185.797)" stroke-width=".79701" stroke-linecap="butt" stroke-miterlimit="10" stroke-linejoin="miter" fill="none" stroke="#000000" d="M2.83417 70.867H-2.83527"/>
<path transform="matrix(1.00008,0,0,-1,17.398278,185.797)" d="M-17.18169 66.66052H-5.22635V75.0735H-17.18169Z" fill="#ffffff"/>
<use data-text="1" xlink:href="#font_2_2" transform="matrix(9.963397,0,0,-9.9626,1.2119827,118.14)"/>
<use data-text="0" xlink:href="#font_2_1" transform="matrix(9.963397,0,0,-9.9626,6.19368,118.14)"/>
<path transform="matrix(1.00008,0,0,-1,17.398278,185.797)" stroke-width="1.19553" stroke-linecap="butt" stroke-miterlimit="10" stroke-linejoin="miter" fill="none" stroke="#00aeef" d="M0 141.73404H106.3005"/>
<path transform="matrix(1.00008,0,0,-1,17.398278,185.797)" stroke-width=".79701" stroke-linecap="butt" stroke-miterlimit="10" stroke-linejoin="miter" fill="none" stroke="#000000" d="M2.83417 141.73404H-2.83527"/>
<path transform="matrix(1.00008,0,0,-1,17.398278,185.797)" d="M-17.18169 137.52754H-5.22635V145.94052H-17.18169Z" fill="#ffffff"/>
<use data-text="2" xlink:href="#font_2_3" transform="matrix(9.963397,0,0,-9.9626,1.2119827,47.272996)"/>
<use data-text="0" xlink:href="#font_2_1" transform="matrix(9.963397,0,0,-9.9626,6.19368,47.272996)"/>
<path transform="matrix(1.00008,0,0,-1,17.398278,185.797)" stroke-width="1.59404" stroke-linecap="butt" stroke-miterlimit="10" stroke-linejoin="miter" fill="none" stroke="#c64a86" d="M0 141.73404C0 141.73404 .89375 141.72014 1.23701 141.70116 1.58026 141.6822 2.13081 141.63576 2.47408 141.59735 2.81734 141.55895 3.36787 141.48195 3.71114 141.42433 4.0544 141.36673 4.60493 141.25894 4.9482 141.18212 5.29146 141.1053 5.842 140.96646 6.18526 140.8707 6.52852 140.7749 7.07906 140.60677 7.42232 140.49178 7.76558 140.3768 8.31612 140.17638 8.65938 140.04195 9.00264 139.90752 9.55318 139.67629 9.89644 139.5229 10.2397 139.3695 10.79024 139.10874 11.1335 138.93637 11.47676 138.76403 12.0273 138.47246 12.37056 138.28066 12.71382 138.08885 13.26436 137.76499 13.60762 137.55399 13.95088 137.34299 14.50142 136.98983 14.84468 136.75984 15.18794 136.52988 15.73848 136.14592 16.08174 135.8965 16.425 135.6471 16.97554 135.23084 17.3188 134.96222 17.66206 134.69359 18.2126 134.24805 18.55586 133.96047 18.89912 133.67287 19.44966 133.19629 19.79292 132.8895 20.13618 132.5827 20.68669 132.07534 21.02995 131.74933 21.37321 131.42333 21.92375 130.88515 22.26701 130.53995 22.61028 130.19475 23.16081 129.62554 23.50407 129.26137 23.84734 128.8972 24.39787 128.29868 24.74113 127.91531 25.0844 127.53194 25.63493 126.90112 25.9782 126.49832 26.32146 126.0955 26.872 125.43388 27.21526 125.01212 27.55852 124.59035 28.10905 123.89941 28.45232 123.45844 28.79558 123.01746 29.34612 122.29425 29.68938 121.83383 30.03264 121.3734 30.58318 120.61938 30.92644 120.14001 31.2697 119.66061 31.82024 118.87706 32.1635 118.37871 32.50676 117.88036 33.0573 117.06601 33.40056 116.5482 33.74382 116.03041 34.29436 115.18378 34.63762 114.64677 34.98088 114.10977 35.53142 113.23383 35.87468 112.67786 36.21794 112.1219 36.76848 111.21492 37.11174 110.63976 37.455 110.06456 38.00554 109.12703 38.3488 108.53242 38.69206 107.9378 39.24261 106.96799 39.58586 106.35416 39.92912 105.74033 40.47963 104.7412 40.82288 104.10841 41.16614 103.47563 41.71669 102.44522 42.05995 101.79347 42.4032 101.14174 42.95375 100.082 43.29701 99.41106 43.64026 98.7401 44.19081 97.64809 44.53407 96.95769 44.87733 96.26729 45.42787 95.14473 45.77113 94.43513 46.1144 93.72554 46.66493 92.57195 47.0082 91.84337 47.35146 91.1148 47.902 89.9319 48.24525 89.18413 48.58852 88.43636 49.13905 87.22116 49.48232 86.45395 49.82558 85.68674 50.37611 84.44073 50.71938 83.65457 51.06264 82.86838 51.61317 81.59308 51.95644 80.7877 52.2997 79.98232 52.85023 78.67448 53.1935 77.8499 53.53676 77.02531 54.0873 75.68819 54.43056 74.84462 54.77382 74.00108 55.32436 72.6329 55.66762 71.77014 56.01088 70.90738 56.56142 69.50867 56.90468 68.62646 57.24794 67.74426 57.79848 66.31325 58.14174 65.41183 58.485 64.51044 59.03554 63.05011 59.3788 62.12975 59.72206 61.20938 60.27257 59.71802 60.61583 58.77844 60.95909 57.83887 61.50963 56.31671 61.85289 55.35793 62.19615 54.39915 62.74669 52.84619 63.08995 51.86821 63.43321 50.89023 63.98375 49.30624 64.32701 48.3093 64.67027 47.31233 65.22081 45.69904 65.56407 44.68289 65.90733 43.66673 66.45787 42.02115 66.80113 40.98557 67.1444 39.94995 67.69493 38.27382 68.0382 37.21901 68.38145 36.1642 68.93199 34.45703 69.27525 33.38327 69.61852 32.30951 70.16905 30.57301 70.51231 29.48004 70.85558 28.38707 71.40611 26.61806 71.74937 25.50589 72.09264 24.3937 72.64317 22.59564 72.98643 21.46425 73.3297 20.33287 73.88023 18.50226 74.2235 17.35168 74.56676 16.2011 75.1173 14.34117 75.46056 13.17163 75.80382 12.00208 76.35435 10.11113 76.69762 8.92238 77.04088 7.73361 77.59142 5.81212 77.93468 4.60393 78.27794 3.39572 79.17174 .21452 79.17174 .21452"/>
<path transform="matrix(1.00008,0,0,-1,17.398278,185.797)" d="M17.91597 143.35448H79.10155V154.28697H17.91597Z" fill="#ffffff"/>
<use data-text="h" xlink:href="#font_1_2" transform="matrix(9.963397,0,0,-9.9626,36.31179,40.615999)" fill="#ff0000"/>
<use data-text="=" xlink:href="#font_2_6" transform="matrix(9.963397,0,0,-9.9626,44.819467,40.615999)" fill="#ff0000"/>
<use data-text="2" xlink:href="#font_2_3" transform="matrix(9.963397,0,0,-9.9626,55.320886,40.615999)" fill="#ff0000"/>
<use data-text="0" xlink:href="#font_2_1" transform="matrix(9.963397,0,0,-9.9626,60.30259,40.615999)" fill="#ff0000"/>
<use data-text="&#x2212;" xlink:href="#font_3_1" transform="matrix(9.963397,0,0,-9.9626,67.5143,40.615999)" fill="#ff0000"/>
<use data-text="1" xlink:href="#font_2_2" transform="matrix(9.963397,0,0,-9.9626,77.4771,40.615999)" fill="#ff0000"/>
<use data-text="6" xlink:href="#font_2_5" transform="matrix(9.963397,0,0,-9.9626,82.458789,40.615999)" fill="#ff0000"/>
<use data-text="t" xlink:href="#font_1_3" transform="matrix(9.963397,0,0,-9.9626,87.44089,40.615999)" fill="#ff0000"/>
<use data-text="2" xlink:href="#font_4_1" transform="matrix(6.974358,0,0,-6.9738,91.039188,37.00099)" fill="#ff0000"/>
<path transform="matrix(1.00008,0,0,-1,17.398278,185.797)" d="M38.26811 113.38724C38.26811 114.95279 36.99902 116.2219 35.43347 116.2219 33.86794 116.2219 32.59885 114.95279 32.59885 113.38724 32.59885 111.82167 33.86794 110.55257 35.43347 110.55257 36.99902 110.55257 38.26811 111.82167 38.26811 113.38724ZM35.43347 113.38724" fill="#ff0000"/>
<path transform="matrix(1.00008,0,0,-1,17.398278,185.797)" stroke-width=".3985" stroke-linecap="butt" stroke-miterlimit="10" stroke-linejoin="miter" fill="none" stroke="#ff0000" d="M38.26811 113.38724C38.26811 114.95279 36.99902 116.2219 35.43347 116.2219 33.86794 116.2219 32.59885 114.95279 32.59885 113.38724 32.59885 111.82167 33.86794 110.55257 35.43347 110.55257 36.99902 110.55257 38.26811 111.82167 38.26811 113.38724ZM35.43347 113.38724"/>
<path transform="matrix(1.00008,0,0,-1,17.398278,185.797)" d="M37.62529 115.57904H44.599229V122.14447H37.62529Z" fill="#ffffff"/>
<use data-text="a" xlink:href="#font_5_28" transform="matrix(9.963397,0,0,-9.9626,56.02337,69.112)"/>
<path transform="matrix(1.00008,0,0,-1,17.398278,185.797)" d="M82.06583 0C82.06583 1.56555 80.79672 2.83466 79.23119 2.83466 77.66563 2.83466 76.39655 1.56555 76.39655 0 76.39655-1.56555 77.66563-2.83466 79.23119-2.83466 80.79672-2.83466 82.06583-1.56555 82.06583 0ZM79.23119 0" fill="#ff0000"/>
<path transform="matrix(1.00008,0,0,-1,17.398278,185.797)" stroke-width=".3985" stroke-linecap="butt" stroke-miterlimit="10" stroke-linejoin="miter" fill="none" stroke="#ff0000" d="M82.06583 0C82.06583 1.56555 80.79672 2.83466 79.23119 2.83466 77.66563 2.83466 76.39655 1.56555 76.39655 0 76.39655-1.56555 77.66563-2.83466 79.23119-2.83466 80.79672-2.83466 82.06583-1.56555 82.06583 0ZM79.23119 0"/>
<path transform="matrix(1.00008,0,0,-1,17.398278,185.797)" d="M81.42299 2.1918H88.95484V11.20808H81.42299Z" fill="#ffffff"/>
<use data-text="b" xlink:href="#font_5_35" transform="matrix(9.963397,0,0,-9.9626,99.82387,182.499)"/>
</svg>
