<svg xmlns="http://www.w3.org/2000/svg" xmlns:xlink="http://www.w3.org/1999/xlink" version="1.1" width="451" height="161" viewBox="0 0 451 161">
<defs>
<path id="font_1_1" d="M.33399964 .30233766C.33999635 .32835389 .36299134 .42037965 .43299867 .42037965 .43798829 .42037965 .46199037 .42037965 .48298646 .40734864 .45498658 .402359 .43499757 .37734986 .43499757 .35334779 .43499757 .33735658 .44599916 .31835938 .47299195 .31835938 .49499513 .31835938 .5269928 .3363495 .5269928 .37635804 .5269928 .42837525 .46798707 .4423828 .43399049 .4423828 .37599183 .4423828 .34098817 .38935853 .32899476 .36634828 .3039856 .43237306 .25 .4423828 .22099304 .4423828 .116989139 .4423828 .05999756 .3133545 .05999756 .28834535 .05999756 .27833558 .069992069 .27833558 .07199097 .27833558 .07998657 .27833558 .08299255 .28033448 .084991458 .28933717 .11898804 .39535523 .18499756 .42037965 .21899414 .42037965 .23799134 .42037965 .272995 .4113617 .272995 .35334779 .272995 .32235719 .2559967 .25532533 .21899414 .11528015 .20298767 .053268434 .16799927 .011245728 .12399292 .011245728 .117996219 .011245728 .09498596 .011245728 .07398987 .024276734 .09899902 .029266358 .12098694 .05027771 .12098694 .07827759 .12098694 .105270389 .09899902 .11328125 .083999637 .11328125 .053985597 .11328125 .0289917 .08728027 .0289917 .055267335 .0289917 .009246826 .07899475-.0107421879 .12298584-.0107421879 .18899536-.0107421879 .22499085 .059280397 .22799683 .0652771 .23999024 .028274537 .27598573-.0107421879 .33599855-.0107421879 .43899537-.0107421879 .49598695 .118270877 .49598695 .14328003 .49598695 .1532898 .4869995 .1532898 .48399354 .1532898 .47499085 .1532898 .47299195 .14929199 .47099305 .14228821 .43798829 .03527832 .36999513 .011245728 .33799745 .011245728 .29899598 .011245728 .2829895 .043273927 .2829895 .07727051 .2829895 .09927368 .2889862 .121276859 .2999878 .16529846L.33399964 .30233766Z"/>
<path id="font_1_2" d="M.48599244 .38136292C.48999024 .39537049 .48999024 .39736939 .48999024 .40437318 .48999024 .42237855 .47599793 .43138124 .46099855 .43138124 .45098878 .43138124 .43499757 .42536927 .42599488 .41036988 .42399598 .405365 .41600038 .37435914 .4119873 .35635377 .40499879 .33035279 .397995 .30334474 .3919983 .27633668L.34700013 .09628296C.34298707 .08126831 .2999878 .011245728 .23399353 .011245728 .18299866 .011245728 .17199707 .055267335 .17199707 .0922699 .17199707 .1382904 .18899536 .20030213 .22299195 .28833009 .23899842 .3293457 .24299622 .3403473 .24299622 .36035157 .24299622 .405365 .21099854 .4423828 .16099549 .4423828 .06599426 .4423828 .0289917 .29733277 .0289917 .28833009 .0289917 .27833558 .038986207 .27833558 .040985109 .27833558 .050994874 .27833558 .051986696 .28033448 .056991579 .29634095 .083999637 .3903656 .12399292 .42037965 .1579895 .42037965 .1659851 .42037965 .18299866 .42037965 .18299866 .3883667 .18299866 .36335755 .17298889 .3373413 .1659851 .31834413 .12599182 .21231079 .10798645 .1552887 .10798645 .10827637 .10798645 .019256592 .17098999-.0107421879 .22999573-.0107421879 .2689972-.0107421879 .30299378 .0062561037 .33099366 .03425598 .31799317-.017745972 .30599977-.06674194 .2659912-.11973572 .23999024-.15385437 .20199585-.18309021 .1559906-.18309021 .14199829-.18309021 .09700012-.18005371 .07998657-.14074707 .09599304-.14074707 .10899353-.14074707 .12298584-.1287384 .1329956-.11973572 .14299011-.10673523 .14299011-.08773804 .14299011-.056747438 .115997318-.052734376 .10598755-.052734376 .08299255-.052734376 .049987794-.068740848 .049987794-.11773682 .049987794-.16796875 .09399414-.20507813 .1559906-.20507813 .25898744-.20507813 .3619995-.11373901 .3899994-.00074768069L.48599244 .38136292Z"/>
<path id="font_2_1" d="M.6589966 .23046875C.6759949 .23046875 .69400027 .23046875 .69400027 .25045777 .69400027 .27046205 .6759949 .27046205 .6589966 .27046205H.117996219C.100997928 .27046205 .08299255 .27046205 .08299255 .25045777 .08299255 .23046875 .100997928 .23046875 .117996219 .23046875H.6589966Z"/>
<path id="font_3_1" d="M.44898988 .20022583C.44898988 .3193512 .36698915 .41944886 .25898744 .41944886 .21099854 .41944886 .16799927 .40345765 .13198853 .36842347V.5637665C.1519928 .5577698 .18499756 .55078127 .21699524 .55078127 .33999635 .55078127 .4099884 .6417694 .4099884 .6547699 .4099884 .6607666 .40699769 .6657715 .3999939 .6657715 .39898683 .6657715 .39698792 .6657715 .3919983 .66278079 .37199403 .6537781 .32299806 .6337738 .2559967 .6337738 .21598816 .6337738 .16999817 .6407776 .12298584 .6617737 .114990238 .66477969 .11299133 .66477969 .11099243 .66477969 .100997928 .66477969 .100997928 .6567688 .100997928 .6407776V.34439088C.100997928 .32637025 .100997928 .31835938 .114990238 .31835938 .12199402 .31835938 .12399292 .32136537 .12799073 .32736207 .13899231 .3433838 .17599488 .39746095 .25698854 .39746095 .30899049 .39746095 .33399964 .35139466 .34199525 .33337403 .35798646 .29632569 .3600006 .25727845 .3600006 .20722962 .3600006 .17222595 .3600006 .11222839 .33599855 .07035828 .31199647 .031463624 .2749939 .0055389406 .22898865 .0055389406 .1559906 .0055389406 .09899902 .058380128 .08198547 .11723328 .084991458 .1162262 .08799744 .115234378 .09899902 .115234378 .13198853 .115234378 .14898682 .14022827 .14898682 .16423035 .14898682 .18823242 .13198853 .21322632 .09899902 .21322632 .084991458 .21322632 .049987794 .20622254 .049987794 .16023255 .049987794 .07434082 .11898804-.022460938 .23098755-.022460938 .34700013-.022460938 .44898988 .073349 .44898988 .20022583Z"/>
<path id="font_4_42" d="M.6649933 .23271179C.6649933 .24272156 .6649933 .24972534 .6519928 .24972534 .6409912 .24972534 .6409912 .24372864 .6399994 .23371887 .6319885 .09059143 .5249939 .008529663 .41600038 .008529663 .35499574 .008529663 .15899658 .042556764 .15899658 .34080506 .15899658 .64004519 .35398866 .67407229 .4149933 .67407229 .5239868 .67407229 .61299136 .58299258 .6329956 .4368744 .6349945 .42286683 .6349945 .41986085 .6489868 .41986085 .6649933 .41986085 .6649933 .42286683 .6649933 .44387818V.68107607C.6649933 .69807437 .6649933 .7050781 .6539917 .7050781 .6499939 .7050781 .6459961 .7050781 .6380005 .69306948L.58799746 .61901858C.5509949 .6550598 .5 .7050781 .4039917 .7050781 .21699524 .7050781 .055999757 .5459595 .055999757 .34179688 .055999757 .1346283 .21798706-.022460938 .4039917-.022460938 .5669861-.022460938 .6649933 .116622928 .6649933 .23271179Z"/>
<path id="font_4_81" d="M.47099305 .21424866C.47099305 .34223939 .37098695 .4482422 .25 .4482422 .125 .4482422 .027999878 .3392334 .027999878 .21424866 .027999878 .085250858 .13198853-.0107421879 .24899292-.0107421879 .36999513-.0107421879 .47099305 .087249759 .47099305 .21424866M.3880005 .22224427C.3880005 .18624878 .3880005 .13224793 .3659973 .08824158 .34399415 .04324341 .2999878 .014251709 .25 .014251709 .20698548 .014251709 .16299439 .035247804 .13598633 .08125305 .11099243 .12524414 .11099243 .18624878 .11099243 .22224427 .11099243 .26124574 .11099243 .31523133 .1349945 .35923768 .1619873 .40522767 .20899964 .426239 .24899292 .426239 .29299928 .426239 .33599855 .40423585 .3619995 .36123658 .3880005 .3182373 .3880005 .26023866 .3880005 .22224427Z"/>
<path id="font_4_77" d="M.5349884 0V.0309906C.48298646 .0309906 .45799256 .0309906 .45700074 .061019899V.25221253C.45700074 .3383026 .45700074 .36932374 .42599488 .405365 .4119873 .42237855 .3789978 .4423828 .32099916 .4423828 .24798584 .4423828 .20098877 .39935304 .17298889 .33729554V.4423828L.03199768 .43066407V.3996582C.101989749 .3996582 .10998535 .39266969 .10998535 .34370423V.07595825C.10998535 .0309906 .09899902 .0309906 .03199768 .0309906V0L.14498902 .0029907227 .25698854 0V.0309906C.18998719 .0309906 .1789856 .0309906 .1789856 .07595825V.25978089C.1789856 .36431886 .25 .42037965 .31399537 .42037965 .3769989 .42037965 .3880005 .36631776 .3880005 .30926515V.076034549C.3880005 .0309906 .3769989 .0309906 .30999757 .0309906V0L.4229889 .0029907227 .5349884 0Z"/>
<path id="font_4_98" d="M.3600006 .12823487C.3600006 .18122864 .32998658 .21122742 .31799317 .22323609 .2849884 .25523377 .24598694 .26322938 .20399475 .27124024 .147995 .28224183 .08099365 .29522706 .08099365 .35324098 .08099365 .38822938 .10699463 .42922975 .19299317 .42922975 .30299378 .42922975 .30799867 .3392334 .30999757 .30822755 .31098939 .2992401 .32199098 .2992401 .32199098 .2992401 .33499146 .2992401 .33499146 .30422975 .33499146 .32322694V.4242401C.33499146 .4412384 .33499146 .4482422 .32398988 .4482422 .31900025 .4482422 .31698609 .4482422 .3039856 .43623353 .30099488 .43223573 .29100038 .42323304 .2869873 .42022706 .24899292 .4482422 .20799256 .4482422 .19299317 .4482422 .070999149 .4482422 .032989503 .38124085 .032989503 .3252411 .032989503 .29023744 .04899597 .26223756 .07598877 .24023438 .10798645 .2142334 .13598633 .2082367 .20799256 .19422913 .22999573 .19021607 .31199647 .17422486 .31199647 .10221863 .31199647 .051223756 .2769928 .011245728 .19898987 .011245728 .114990238 .011245728 .07899475 .068222049 .05999756 .1532135 .056991579 .16621399 .055999757 .17021179 .04598999 .17021179 .032989503 .17021179 .032989503 .16322327 .032989503 .1452179V.013214111C.032989503-.003753662 .032989503-.0107421879 .04399109-.0107421879 .04899597-.0107421879 .049987794-.009750366 .068984989 .009246826 .070999149 .011245728 .070999149 .013214111 .08898926 .032226564 .1329956-.009750366 .17799378-.0107421879 .19898987-.0107421879 .31399537-.0107421879 .3600006 .05621338 .3600006 .1282196V.12823487Z"/>
<path id="font_4_66" d="M.24699402 0V.0309906C.18099976 .0309906 .1769867 .035995485 .1769867 .075042728V.4423828L.036987306 .43066407V.3996582C.101989749 .3996582 .11099243 .3936615 .11099243 .3447113V.07595825C.11099243 .0309906 .099990848 .0309906 .032989503 .0309906V0L.14299011 .0029907227C.17799378 .0029907227 .21299744 .0009918213 .24699402 0M.19198609 .603775C.19198609 .6307678 .16899109 .6567688 .13899231 .6567688 .10499573 .6567688 .084991458 .6287689 .084991458 .603775 .084991458 .57676699 .10798645 .55078127 .13798523 .55078127 .17199707 .55078127 .19198609 .5787811 .19198609 .603775Z"/>
<path id="font_4_105" d="M.33198548 .12385559V.18066406H.30699159V.12585449C.30699159 .052108766 .2769928 .014251709 .23999024 .014251709 .17298889 .014251709 .17298889 .10491943 .17298889 .12187195V.3996582H.31599427V.43066407H.17298889V.6142578H.147995C.14698792 .5324249 .116989139 .42565919 .018997193 .42166139V.3996582H.10398865V.12408447C.10398865 .0012512207 .19699097-.0107421879 .23298645-.0107421879 .3039856-.0107421879 .33198548 .060180665 .33198548 .12408447V.12385559Z"/>
<path id="font_4_50" d="M.4149933 .11933899C.4149933 .12934876 .40699769 .13134766 .4019928 .13134766 .3929901 .13134766 .3909912 .12535095 .3889923 .11734009 .35398866 .014251709 .2639923 .014251709 .2539978 .014251709 .20399475 .014251709 .1639862 .044281007 .14099121 .08131409 .11099243 .12934876 .11099243 .19540406 .11099243 .23144531H.3899994C.4119873 .23144531 .4149933 .23144531 .4149933 .2524414 .4149933 .35131837 .36099244 .4482422 .23599243 .4482422 .11999512 .4482422 .027999878 .34532167 .027999878 .22042847 .027999878 .08631897 .1329956-.0107421879 .24798584-.0107421879 .36999513-.0107421879 .4149933 .10032654 .4149933 .11933899M.34899903 .2524414H.11199951C.117996219 .40126039 .20199585 .426239 .23599243 .426239 .33898927 .426239 .34899903 .2913971 .34899903 .2524414Z"/>
<path id="font_4_28" d="M.48298646 .08912659V.14511109H.45799256V.08912659C.45799256 .03112793 .43299867 .025131226 .42199708 .025131226 .3889923 .025131226 .3849945 .070129398 .3849945 .07511902V.27508546C.3849945 .31707765 .3849945 .3560791 .34899903 .39312745 .30999757 .43223573 .2599945 .4482422 .21199036 .4482422 .12998963 .4482422 .06098938 .40115357 .06098938 .335083 .06098938 .30508424 .08099365 .28808595 .10699463 .28808595 .1349945 .28808595 .15299988 .30807496 .15299988 .33407594 .15299988 .3460846 .147995 .37908937 .101989749 .38008119 .1289978 .41519166 .17799378 .426239 .20999146 .426239 .25898744 .426239 .31599427 .38710023 .31599427 .29808045V.26107789C.2649994 .25808717 .19499207 .25508119 .13198853 .22509766 .056991579 .19110108 .03199768 .13911438 .03199768 .09512329 .03199768 .014251709 .1289978-.0107421879 .19198609-.0107421879 .2579956-.0107421879 .3039856 .029251099 .32299806 .07624817 .32699586 .036132814 .35398866-.005859375 .40098573-.005859375 .42199708-.005859375 .48298646 .008132935 .48298646 .08912659M.31599427 .14013672C.31599427 .04525757 .24398804 .011245728 .19898987 .011245728 .1499939 .011245728 .10899353 .04624939 .10899353 .09625244 .10899353 .15124512 .15098572 .23425293 .31599427 .24024964V.14013672Z"/>
<path id="font_4_47" d="M.5269928 0V.0309906C.45700074 .0309906 .44898988 .038009645 .44898988 .0871582V.69433596L.30499269 .6826172V.6516113C.375 .6516113 .3829956 .64463809 .3829956 .59580996V.38035584C.35398866 .41636659 .31098939 .4423828 .25698854 .4423828 .13899231 .4423828 .033996583 .3443451 .033996583 .21531677 .033996583 .088272098 .13198853-.0107421879 .24598694-.0107421879 .30999757-.0107421879 .35499574 .023254395 .37998963 .055267335V-.0107421879L.5269928 0M.37998963 .117996219C.37998963 .099990848 .37998963 .09799194 .36898805 .08099365 .33898927 .033218385 .2939911 .011245728 .25099183 .011245728 .20599365 .011245728 .16999817 .037216188 .1459961 .075164798 .11999512 .1161499 .116989139 .17320252 .116989139 .21421814 .116989139 .25125123 .11898804 .31129457 .147995 .35632325 .16899109 .38734437 .20698548 .42037965 .26098634 .42037965 .29599 .42037965 .33799745 .405365 .36898805 .3603363 .37998963 .34332276 .37998963 .34132386 .37998963 .32330323V.117996219Z"/>
<path id="font_4_84" d="M.5209961 .21636963C.5209961 .34336854 .42399598 .4423828 .31199647 .4423828 .23399353 .4423828 .19198609 .39837647 .17199707 .3763733V.4423828L.027999878 .43066407V.3996582C.09899902 .3996582 .10598755 .3936615 .10598755 .34973146V-.117996219C.10598755-.16308594 .09498596-.16308594 .027999878-.16308594V-.1940918L.13999939-.19110108 .25299073-.1940918V-.16308594C.18598938-.16308594 .1749878-.16308594 .1749878-.117996219V.050186159 .059173585C.17999268 .04319763 .22200012-.0107421879 .2979889-.0107421879 .4169922-.0107421879 .5209961 .087127689 .5209961 .21594239V.21636963M.43798829 .21594239C.43798829 .09512329 .36799623 .011245728 .2939911 .011245728 .2539978 .011245728 .21598816 .031219483 .18899536 .07215881 .1749878 .09312439 .1749878 .09411621 .1749878 .114089969V.33674623C.20399475 .38838197 .25299073 .41737367 .3039856 .41737367 .3769989 .41737367 .43798829 .32937623 .43798829 .21636963V.21594239Z"/>
<path id="font_4_99" d="M.19198609 .37765504C.19198609 .406662 .16799927 .43066407 .13899231 .43066407 .10998535 .43066407 .085998538 .406662 .085998538 .37765504 .085998538 .34866334 .10998535 .32466126 .13899231 .32466126 .16799927 .32466126 .19198609 .34866334 .19198609 .37765504M.19499207 .0029907227C.19499207 .03199768 .19299317 .10598755 .13899231 .10598755 .10398865 .10598755 .085998538 .07899475 .085998538 .052993776 .085998538 .026992798 .102996829 0 .13899231 0 .14399719 0 .14698792 .0009918213 .14698792 .0009918213 .1539917 .0019989014 .16499329 .0039978029 .17298889 .010986328 .17298889-.017044068 .17298889-.095184329 .10899353-.16932678 .101989749-.17733765 .101989749-.17933655 .101989749-.18234253 .101989749-.18936157 .10699463-.19335938 .11199951-.19335938 .12298584-.19335938 .19499207-.113220218 .19499207 .0029907227Z"/>
<path id="font_4_72" d="M.25498963 0V.0309906C.18798828 .0309906 .1769867 .0309906 .1769867 .07601929V.69433596L.032989503 .6826172V.6516113C.102996829 .6516113 .11099243 .64460757 .11099243 .5956421V.07595825C.11099243 .0309906 .099990848 .0309906 .032989503 .0309906V0L.14399719 .0029907227 .25498963 0Z"/>
<path id="font_4_109" d="M.5349884 0V.0309906C.46499635 .0309906 .45700074 .037994386 .45700074 .08705139V.4423828L.30999757 .43066407V.3996582C.37998963 .3996582 .3880005 .39266969 .3880005 .34373475V.16601563C.3880005 .07910156 .33999635 .011245728 .2669983 .011245728 .18299866 .011245728 .1789856 .058135988 .1789856 .11009216V.4423828L.03199768 .43066407V.3996582C.10998535 .3996582 .10998535 .39666749 .10998535 .3078003V.15802002C.10998535 .080093387 .10998535-.0107421879 .2619934-.0107421879 .31799317-.0107421879 .3619995 .017242432 .3909912 .07910156V-.0107421879L.5349884 0Z"/>
<path id="font_4_65" d="M.33299256 0V.0309906H.30699159C.22799683 .0309906 .22499085 .041992189 .22499085 .07795715V.6046295C.22499085 .64060977 .22799683 .6516113 .30699159 .6516113H.33299256V.6826172C.2979889 .6796112 .21899414 .6796112 .18099976 .6796112 .14199829 .6796112 .06298828 .6796112 .027999878 .6826172V.6516113H.053985597C.1329956 .6516113 .13598633 .64060977 .13598633 .6046295V.07795715C.13598633 .041992189 .1329956 .0309906 .053985597 .0309906H.027999878V0C.06298828 .0029907227 .14199829 .0029907227 .17999268 .0029907227 .21899414 .0029907227 .2979889 .0029907227 .33299256 0Z"/>
<path id="font_4_43" d="M.4149933 .119140628C.4149933 .12911988 .40499879 .12911988 .4019928 .12911988 .3929901 .12911988 .3909912 .12512207 .3889923 .119140628 .3600006 .026229859 .29499818 .014251709 .2579956 .014251709 .20498657 .014251709 .116989139 .0572052 .116989139 .21801758 .116989139 .38093568 .19898987 .42323304 .2519989 .42323304 .26098634 .42323304 .32398988 .42222596 .35899354 .38594056 .31799317 .38293458 .31199647 .3529358 .31199647 .3399353 .31199647 .31393434 .32998658 .2939453 .35798646 .2939453 .38398744 .2939453 .4039917 .3109436 .4039917 .34094239 .4039917 .40911866 .32798768 .4482422 .25099183 .4482422 .12599182 .4482422 .033996583 .3399353 .033996583 .21601868 .033996583 .08816528 .1329956-.0107421879 .24899292-.0107421879 .3829956-.0107421879 .4149933 .10914612 .4149933 .119140628Z"/>
<path id="font_4_46" d="M.70700076 .33580018C.70700076 .52568057 .57199099 .6826172 .40098573 .6826172H.034988405V.6516113H.05899048C.13598633 .6516113 .13798523 .64060977 .13798523 .6046295V.07795715C.13798523 .041992189 .13598633 .0309906 .05899048 .0309906H.034988405V0H.40098573C.56900027 0 .70700076 .1479187 .70700076 .33580018M.6069946 .33580018C.6069946 .22486878 .58799746 .16490174 .5519867 .11593628 .5319977 .08895874 .47499085 .0309906 .37399293 .0309906H.272995C.22599793 .0309906 .22399903 .037994386 .22399903 .07096863V.6116333C.22399903 .64460757 .22599793 .6516113 .272995 .6516113H.37298585C.43499757 .6516113 .5039978 .6296234 .5549927 .55867007 .59799197 .49969483 .6069946 .41375733 .6069946 .33580018Z"/>
<path id="font_4_125" d="M.5269928 0V.0309906C.45999146 .0309906 .44898988 .0309906 .44898988 .07595825V.44265748L.32299806 .4336548C.30699159 .43266297 .30499269 .43165589 .30499269 .43165589 .30299378 .43066407 .30099488 .43066407 .2869873 .43066407H.16899109V.5436554C.16899109 .64260867 .25498963 .68307498 .31698609 .68307498 .34700013 .68307498 .3829956 .6729431 .40299989 .64964297 .3619995 .6476288 .35598756 .61961367 .35598756 .6036072 .35598756 .5706024 .38198854 .5576172 .40098573 .5576172 .42399598 .5576172 .44699098 .5736084 .44699098 .6036072 .44699098 .6628113 .3919983 .7050781 .31799317 .7050781 .22499085 .7050781 .10598755 .6537018 .10598755 .5446167V.43066407H.026992798V.3996582H.10598755V.07595825C.10598755 .0309906 .09498596 .0309906 .027999878 .0309906V0L.13899231 .0029907227 .25 0V.0309906C.18299866 .0309906 .17199707 .0309906 .17199707 .07595825V.3996582H.32998658C.37599183 .3996582 .3829956 .38667298 .3829956 .34570313V.07595825C.3829956 .0309906 .37199403 .0309906 .30499269 .0309906V0L.41600038 .0029907227 .5269928 0Z"/>
<path id="font_4_118" d="M.5079956 .3996582V.43066407C.4850006 .4286499 .45599366 .42765809 .43299867 .42765809L.34599305 .43066407V.3996582C.3769989 .39866639 .3929901 .3816681 .3929901 .35668946 .3929901 .34669496 .3919983 .34469605 .3869934 .33270265L.28599549 .08685303 .1749878 .35568238C.17098999 .36567689 .16899109 .36967469 .16899109 .3736725 .16899109 .3996582 .20599365 .3996582 .22499085 .3996582V.43066407L.115997318 .42765809C.08898926 .42765809 .04899597 .4286499 .018997193 .43066407V.3996582C.066986087 .3996582 .085998538 .3996582 .099990848 .36468507L.25-.000091552738 .22499085-.059066774C.20298767-.11407471 .1749878-.18309021 .11099243-.18309021 .10598755-.18309021 .08299255-.18309021 .06399536-.16503906 .09498596-.16104126 .102996829-.13905335 .102996829-.123046878 .102996829-.0970459 .083999637-.08103943 .06098938-.08103943 .040985109-.08103943 .018997193-.09403992 .018997193-.124053958 .018997193-.16905213 .06098938-.20507813 .11099243-.20507813 .17399597-.20507813 .21499634-.14804077 .23899842-.091049198L.4149933 .33569337C.44099427 .39865113 .49198915 .3996582 .5079956 .3996582Z"/>
<path id="font_4_75" d="M.8129883 0V.0309906C.7609863 .0309906 .73599246 .0309906 .7350006 .061019899V.25221253C.7350006 .3383026 .7350006 .36932374 .70399478 .405365 .6899872 .42237855 .6569977 .4423828 .598999 .4423828 .5149994 .4423828 .47099305 .38233949 .45399476 .34429933 .43998719 .43138124 .3659973 .4423828 .32099916 .4423828 .24798584 .4423828 .20098877 .39935304 .17298889 .33729554V.4423828L.03199768 .43066407V.3996582C.101989749 .3996582 .10998535 .39266969 .10998535 .34370423V.07595825C.10998535 .0309906 .09899902 .0309906 .03199768 .0309906V0L.14498902 .0029907227 .25698854 0V.0309906C.18998719 .0309906 .1789856 .0309906 .1789856 .07595825V.25978089C.1789856 .36431886 .25 .42037965 .31399537 .42037965 .3769989 .42037965 .3880005 .36631776 .3880005 .30926515V.076034549C.3880005 .0309906 .3769989 .0309906 .30999757 .0309906V0L.4229889 .0029907227 .5349884 0V.0309906C.46798707 .0309906 .45700074 .0309906 .45700074 .076034549V.2602234C.45700074 .36431886 .5279999 .42037965 .59199526 .42037965 .6549988 .42037965 .66600039 .36631776 .66600039 .30926515V.076034549C.66600039 .0309906 .6549988 .0309906 .58799746 .0309906V0L.70098879 .0029907227 .8129883 0Z"/>
</defs>
<path transform="matrix(1.00002,0,0,-1,63.728044,73.063999)" stroke-width=".3985" stroke-linecap="butt" stroke-miterlimit="10" stroke-linejoin="miter" fill="none" stroke="#00aeef" d="M-56.69275-56.69275H56.69275M-56.69275-45.35419H56.69275M-56.69275-34.01564H56.69275M-56.69275-22.6771H56.69275M-56.69275-11.33855H56.69275M-56.69275 0H56.69275M-56.69275 11.33855H56.69275M-56.69275 22.6771H56.69275M-56.69275 34.01564H56.69275M-56.69275 45.35419H56.69275M-56.69275 56.68877H56.69275M-56.69275-56.69275V56.69275M-45.35419-56.69275V56.69275M-34.01564-56.69275V56.69275M-22.6771-56.69275V56.69275M-11.33855-56.69275V56.69275M0-56.69275V56.69275M11.33855-56.69275V56.69275M22.6771-56.69275V56.69275M34.01564-56.69275V56.69275M45.35419-56.69275V56.69275M56.68877-56.69275V56.69275M56.69275 56.69275"/>
<path transform="matrix(1.00002,0,0,-1,63.728044,73.063999)" stroke-width=".79701" stroke-linecap="butt" stroke-miterlimit="10" stroke-linejoin="miter" fill="none" stroke="#000000" d="M-56.69275 0H66.59668"/>
<path transform="matrix(1.00002,0,0,-1,130.32605,73.063999)" d="M1.0361 0C-.25902 .25902-1.55415 .77707-3.1083 1.68365-1.55415 .51805-1.55415-.51805-3.1083-1.68365-1.55415-.77707-.25902-.25902 1.0361 0Z"/>
<path transform="matrix(1.00002,0,0,-1,130.32605,73.063999)" stroke-width=".79701" stroke-linecap="butt" stroke-linejoin="round" fill="none" stroke="#000000" d="M1.0361 0C-.25902 .25902-1.55415 .77707-3.1083 1.68365-1.55415 .51805-1.55415-.51805-3.1083-1.68365-1.55415-.77707-.25902-.25902 1.0361 0Z"/>
<use data-text="x" xlink:href="#font_1_1" transform="matrix(9.962799,0,0,-9.9626,135.47948,75.209)"/>
<path transform="matrix(1.00002,0,0,-1,63.728044,73.063999)" stroke-width=".79701" stroke-linecap="butt" stroke-miterlimit="10" stroke-linejoin="miter" fill="none" stroke="#000000" d="M0-56.69275V66.59668"/>
<path transform="matrix(0,-1,-1.00002,-0,63.728044,6.4673159)" d="M1.0361 0C-.25902 .25902-1.55415 .77707-3.1083 1.68365-1.55415 .51805-1.55415-.51805-3.1083-1.68365-1.55415-.77707-.25902-.25902 1.0361 0Z"/>
<path transform="matrix(0,-1,-1.00002,-0,63.728044,6.4673159)" stroke-width=".79701" stroke-linecap="butt" stroke-linejoin="round" fill="none" stroke="#000000" d="M1.0361 0C-.25902 .25902-1.55415 .77707-3.1083 1.68365-1.55415 .51805-1.55415-.51805-3.1083-1.68365-1.55415-.77707-.25902-.25902 1.0361 0Z"/>
<use data-text="y" xlink:href="#font_1_2" transform="matrix(9.962799,0,0,-9.9626,56.758905,6.208992)"/>
<path transform="matrix(1.00002,0,0,-1,63.728044,73.063999)" stroke-width=".79701" stroke-linecap="butt" stroke-miterlimit="10" stroke-linejoin="miter" fill="none" stroke="#00aeef" d="M-56.69275-56.69275V56.69275"/>
<path transform="matrix(1.00002,0,0,-1,63.728044,73.063999)" stroke-width=".79701" stroke-linecap="butt" stroke-miterlimit="10" stroke-linejoin="miter" fill="none" stroke="#00aeef" d="M-56.69275-56.69275H56.69275"/>
<path transform="matrix(1.00002,0,0,-1,63.728044,73.063999)" stroke-width=".3985" stroke-linecap="butt" stroke-miterlimit="10" stroke-linejoin="miter" fill="none" stroke="#000000" d="M-56.69275 1.7007V-1.70087"/>
<path transform="matrix(1.00002,0,0,-1,63.728044,73.063999)" d="M-64.05414-13.1359H-49.33136V-3.8926697H-64.05414Z" fill="#ffffff"/>
<use data-text="&#x2212;" xlink:href="#font_2_1" transform="matrix(9.962799,0,0,-9.9626,.66877749,84.37299)"/>
<use data-text="5" xlink:href="#font_3_1" transform="matrix(9.962799,0,0,-9.9626,8.416931,84.37299)"/>
<path transform="matrix(1.00002,0,0,-1,63.728044,73.063999)" stroke-width=".3985" stroke-linecap="butt" stroke-miterlimit="10" stroke-linejoin="miter" fill="none" stroke="#000000" d="M1.7007-56.69275H-1.70087"/>
<path transform="matrix(1.00002,0,0,-1,63.728044,73.063999)" d="M-18.61545-61.31436H-3.8926697V-52.071134H-18.61545Z" fill="#ffffff"/>
<use data-text="&#x2212;" xlink:href="#font_2_1" transform="matrix(9.962799,0,0,-9.9626,46.10869,132.55199)"/>
<use data-text="5" xlink:href="#font_3_1" transform="matrix(9.962799,0,0,-9.9626,53.856843,132.55199)"/>
<path transform="matrix(1.00002,0,0,-1,63.728044,73.063999)" stroke-width=".79701" stroke-linecap="butt" stroke-miterlimit="10" stroke-linejoin="miter" fill="none" stroke="#00aeef" d="M56.69275-56.69275V56.69275"/>
<path transform="matrix(1.00002,0,0,-1,63.728044,73.063999)" stroke-width=".79701" stroke-linecap="butt" stroke-miterlimit="10" stroke-linejoin="miter" fill="none" stroke="#00aeef" d="M-56.69275 56.69275H56.69275"/>
<path transform="matrix(1.00002,0,0,-1,63.728044,73.063999)" stroke-width=".3985" stroke-linecap="butt" stroke-miterlimit="10" stroke-linejoin="miter" fill="none" stroke="#000000" d="M56.69275 1.7007V-1.70087"/>
<path transform="matrix(1.00002,0,0,-1,63.728044,73.063999)" d="M53.20578-12.30566H60.179719V-3.8926802H53.20578Z" fill="#ffffff"/>
<use data-text="5" xlink:href="#font_3_1" transform="matrix(9.962799,0,0,-9.9626,117.93113,84.37299)"/>
<path transform="matrix(1.00002,0,0,-1,63.728044,73.063999)" stroke-width=".3985" stroke-linecap="butt" stroke-miterlimit="10" stroke-linejoin="miter" fill="none" stroke="#000000" d="M1.7007 56.69275H-1.70087"/>
<path transform="matrix(1.00002,0,0,-1,63.728044,73.063999)" d="M-10.86661 52.48625H-3.8926697V60.89923H-10.86661Z" fill="#ffffff"/>
<use data-text="5" xlink:href="#font_3_1" transform="matrix(9.962799,0,0,-9.9626,53.85785,19.580994)"/>
<path transform="matrix(1.00002,0,0,-1,63.728044,73.063999)" stroke-width="1.19553" stroke-linecap="butt" stroke-miterlimit="10" stroke-linejoin="miter" fill="none" stroke="#ff0000" d="M-44.02979-55.36835 55.36835 44.02979"/>
<path transform="matrix(-.70711418,.7071,.70711418,.7071,19.697392,128.43233)" d="M1.27522 0C-.31879 .31879-1.91284 .9564-3.8257 2.07224-1.91284 .6376-1.91284-.6376-3.8257-2.07224-1.91284-.9564-.31879-.31879 1.27522 0Z" fill="#ff0000"/>
<path transform="matrix(-.70711418,.7071,.70711418,.7071,19.697392,128.43233)" stroke-width="1.19553" stroke-linecap="butt" stroke-linejoin="round" fill="none" stroke="#ff0000" d="M1.27522 0C-.31879 .31879-1.91284 .9564-3.8257 2.07224-1.91284 .6376-1.91284-.6376-3.8257-2.07224-1.91284-.9564-.31879-.31879 1.27522 0Z"/>
<path transform="matrix(.70711418,-.7071,-.70711418,-.7071,119.09748,29.034226)" d="M1.27522 0C-.31879 .31879-1.91284 .9564-3.8257 2.07224-1.91284 .6376-1.91284-.6376-3.8257-2.07224-1.91284-.9564-.31879-.31879 1.27522 0Z" fill="#ff0000"/>
<path transform="matrix(.70711418,-.7071,-.70711418,-.7071,119.09748,29.034226)" stroke-width="1.19553" stroke-linecap="butt" stroke-linejoin="round" fill="none" stroke="#ff0000" d="M1.27522 0C-.31879 .31879-1.91284 .9564-3.8257 2.07224-1.91284 .6376-1.91284-.6376-3.8257-2.07224-1.91284-.9564-.31879-.31879 1.27522 0Z"/>
<path transform="matrix(1.00002,0,0,-1,63.728044,73.063999)" stroke-width="1.19553" stroke-linecap="butt" stroke-miterlimit="10" stroke-linejoin="miter" fill="none" stroke="#ff0000" d="M-32.5173 55.56897 55.19441-10.21477"/>
<path transform="matrix(-.799986,-.59999,-.60000208,.79997,31.21009,17.495026)" d="M1.27522 0C-.31879 .31879-1.91284 .9564-3.8257 2.07224-1.91284 .6376-1.91284-.6376-3.8257-2.07224-1.91284-.9564-.31879-.31879 1.27522 0Z" fill="#ff0000"/>
<path transform="matrix(-.799986,-.59999,-.60000208,.79997,31.21009,17.495026)" stroke-width="1.19553" stroke-linecap="butt" stroke-linejoin="round" fill="none" stroke="#ff0000" d="M1.27522 0C-.31879 .31879-1.91284 .9564-3.8257 2.07224-1.91284 .6376-1.91284-.6376-3.8257-2.07224-1.91284-.9564-.31879-.31879 1.27522 0Z"/>
<path transform="matrix(.799986,.59999,.60000208,-.79997,118.92355,83.27876)" d="M1.27522 0C-.31879 .31879-1.91284 .9564-3.8257 2.07224-1.91284 .6376-1.91284-.6376-3.8257-2.07224-1.91284-.9564-.31879-.31879 1.27522 0Z" fill="#ff0000"/>
<path transform="matrix(.799986,.59999,.60000208,-.79997,118.92355,83.27876)" stroke-width="1.19553" stroke-linecap="butt" stroke-linejoin="round" fill="none" stroke="#ff0000" d="M1.27522 0C-.31879 .31879-1.91284 .9564-3.8257 2.07224-1.91284 .6376-1.91284-.6376-3.8257-2.07224-1.91284-.9564-.31879-.31879 1.27522 0Z"/>
<use data-text="C" xlink:href="#font_4_42" transform="matrix(9.962799,0,0,-9.9626,1.5337982,147.07901)" fill="#0000ff"/>
<use data-text="o" xlink:href="#font_4_81" transform="matrix(9.962799,0,0,-9.9626,8.726944,147.07901)" fill="#0000ff"/>
<use data-text="n" xlink:href="#font_4_77" transform="matrix(9.962799,0,0,-9.9626,13.708328,147.07901)" fill="#0000ff"/>
<use data-text="s" xlink:href="#font_4_98" transform="matrix(9.962799,0,0,-9.9626,19.247635,147.07901)" fill="#0000ff"/>
<use data-text="i" xlink:href="#font_4_66" transform="matrix(9.962799,0,0,-9.9626,23.172989,147.07901)" fill="#0000ff"/>
<use data-text="s" xlink:href="#font_4_98" transform="matrix(9.962799,0,0,-9.9626,25.942643,147.07901)" fill="#0000ff"/>
<use data-text="t" xlink:href="#font_4_105" transform="matrix(9.962799,0,0,-9.9626,29.867981,147.07901)" fill="#0000ff"/>
<use data-text="e" xlink:href="#font_4_50" transform="matrix(9.962799,0,0,-9.9626,33.743516,147.07901)" fill="#0000ff"/>
<use data-text="n" xlink:href="#font_4_77" transform="matrix(9.962799,0,0,-9.9626,38.167009,147.07901)" fill="#0000ff"/>
<use data-text="t" xlink:href="#font_4_105" transform="matrix(9.962799,0,0,-9.9626,43.42737,147.07901)" fill="#0000ff"/>
<use data-text="a" xlink:href="#font_4_28" transform="matrix(9.962799,0,0,-9.9626,50.610567,147.07901)" fill="#0000ff"/>
<use data-text="n" xlink:href="#font_4_77" transform="matrix(9.962799,0,0,-9.9626,55.59195,147.07901)" fill="#0000ff"/>
<use data-text="d" xlink:href="#font_4_47" transform="matrix(9.962799,0,0,-9.9626,61.131258,147.07901)" fill="#0000ff"/>
<use data-text="i" xlink:href="#font_4_66" transform="matrix(9.962799,0,0,-9.9626,69.98819,147.07901)" fill="#0000ff"/>
<use data-text="n" xlink:href="#font_4_77" transform="matrix(9.962799,0,0,-9.9626,72.75786,147.07901)" fill="#0000ff"/>
<use data-text="d" xlink:href="#font_4_47" transform="matrix(9.962799,0,0,-9.9626,78.297168,147.07901)" fill="#0000ff"/>
<use data-text="e" xlink:href="#font_4_50" transform="matrix(9.962799,0,0,-9.9626,83.83647,147.07901)" fill="#0000ff"/>
<use data-text="p" xlink:href="#font_4_84" transform="matrix(9.962799,0,0,-9.9626,88.259967,147.07901)" fill="#0000ff"/>
<use data-text="e" xlink:href="#font_4_50" transform="matrix(9.962799,0,0,-9.9626,94.07823,147.07901)" fill="#0000ff"/>
<use data-text="n" xlink:href="#font_4_77" transform="matrix(9.962799,0,0,-9.9626,98.50171,147.07901)" fill="#0000ff"/>
<use data-text="d" xlink:href="#font_4_47" transform="matrix(9.962799,0,0,-9.9626,104.04103,147.07901)" fill="#0000ff"/>
<use data-text="e" xlink:href="#font_4_50" transform="matrix(9.962799,0,0,-9.9626,109.58034,147.07901)" fill="#0000ff"/>
<use data-text="n" xlink:href="#font_4_77" transform="matrix(9.962799,0,0,-9.9626,114.00383,147.07901)" fill="#0000ff"/>
<use data-text="t" xlink:href="#font_4_105" transform="matrix(9.962799,0,0,-9.9626,119.274188,147.07901)" fill="#0000ff"/>
<use data-text=";" xlink:href="#font_4_99" transform="matrix(9.962799,0,0,-9.9626,123.149707,147.07901)" fill="#0000ff"/>
<use data-text="o" xlink:href="#font_4_81" transform="matrix(9.962799,0,0,-9.9626,37.40451,159.034)" fill="#0000ff"/>
<use data-text="n" xlink:href="#font_4_77" transform="matrix(9.962799,0,0,-9.9626,42.38591,159.034)" fill="#0000ff"/>
<use data-text="e" xlink:href="#font_4_50" transform="matrix(9.962799,0,0,-9.9626,47.925218,159.034)" fill="#0000ff"/>
<use data-text="s" xlink:href="#font_4_98" transform="matrix(9.962799,0,0,-9.9626,55.66632,159.034)" fill="#0000ff"/>
<use data-text="o" xlink:href="#font_4_81" transform="matrix(9.962799,0,0,-9.9626,59.59166,159.034)" fill="#0000ff"/>
<use data-text="l" xlink:href="#font_4_72" transform="matrix(9.962799,0,0,-9.9626,64.57306,159.034)" fill="#0000ff"/>
<use data-text="u" xlink:href="#font_4_109" transform="matrix(9.962799,0,0,-9.9626,67.34273,159.034)" fill="#0000ff"/>
<use data-text="t" xlink:href="#font_4_105" transform="matrix(9.962799,0,0,-9.9626,72.882038,159.034)" fill="#0000ff"/>
<use data-text="i" xlink:href="#font_4_66" transform="matrix(9.962799,0,0,-9.9626,76.75757,159.034)" fill="#0000ff"/>
<use data-text="o" xlink:href="#font_4_81" transform="matrix(9.962799,0,0,-9.9626,79.52724,159.034)" fill="#0000ff"/>
<use data-text="n" xlink:href="#font_4_77" transform="matrix(9.962799,0,0,-9.9626,84.50862,159.034)" fill="#0000ff"/>
<path transform="matrix(1.00002,0,0,-1,63.728044,73.063999)" stroke-width=".3985" stroke-linecap="butt" stroke-miterlimit="10" stroke-linejoin="miter" fill="none" stroke="#00aeef" d="M102.04694-56.69275H215.43247M102.04694-45.35419H215.43247M102.04694-34.01564H215.43247M102.04694-22.6771H215.43247M102.04694-11.33855H215.43247M102.04694 0H215.43247M102.04694 11.33855H215.43247M102.04694 22.6771H215.43247M102.04694 34.01564H215.43247M102.04694 45.35419H215.43247M102.04694 56.68877H215.43247M102.04694-56.69275V56.69275M113.3855-56.69275V56.69275M124.72404-56.69275V56.69275M136.06259-56.69275V56.69275M147.40114-56.69275V56.69275M158.7397-56.69275V56.69275M170.07825-56.69275V56.69275M181.4168-56.69275V56.69275M192.75534-56.69275V56.69275M204.09389-56.69275V56.69275M215.42848-56.69275V56.69275M215.43247 56.69275"/>
<path transform="matrix(1.00002,0,0,-1,63.728044,73.063999)" stroke-width=".79701" stroke-linecap="butt" stroke-miterlimit="10" stroke-linejoin="miter" fill="none" stroke="#000000" d="M102.04694 0H225.3364"/>
<path transform="matrix(1.00002,0,0,-1,289.06898,73.063999)" d="M1.0361 0C-.25902 .25902-1.55415 .77707-3.1083 1.68365-1.55415 .51805-1.55415-.51805-3.1083-1.68365-1.55415-.77707-.25902-.25902 1.0361 0Z"/>
<path transform="matrix(1.00002,0,0,-1,289.06898,73.063999)" stroke-width=".79701" stroke-linecap="butt" stroke-linejoin="round" fill="none" stroke="#000000" d="M1.0361 0C-.25902 .25902-1.55415 .77707-3.1083 1.68365-1.55415 .51805-1.55415-.51805-3.1083-1.68365-1.55415-.77707-.25902-.25902 1.0361 0Z"/>
<use data-text="x" xlink:href="#font_1_1" transform="matrix(9.962799,0,0,-9.9626,294.22267,75.209)"/>
<path transform="matrix(1.00002,0,0,-1,63.728044,73.063999)" stroke-width=".79701" stroke-linecap="butt" stroke-miterlimit="10" stroke-linejoin="miter" fill="none" stroke="#000000" d="M158.7397-56.69275V66.59668"/>
<path transform="matrix(0,-1,-1.00002,-0,222.47092,6.4673159)" d="M1.0361 0C-.25902 .25902-1.55415 .77707-3.1083 1.68365-1.55415 .51805-1.55415-.51805-3.1083-1.68365-1.55415-.77707-.25902-.25902 1.0361 0Z"/>
<path transform="matrix(0,-1,-1.00002,-0,222.47092,6.4673159)" stroke-width=".79701" stroke-linecap="butt" stroke-linejoin="round" fill="none" stroke="#000000" d="M1.0361 0C-.25902 .25902-1.55415 .77707-3.1083 1.68365-1.55415 .51805-1.55415-.51805-3.1083-1.68365-1.55415-.77707-.25902-.25902 1.0361 0Z"/>
<use data-text="y" xlink:href="#font_1_2" transform="matrix(9.962799,0,0,-9.9626,215.50208,6.208992)"/>
<path transform="matrix(1.00002,0,0,-1,63.728044,73.063999)" stroke-width=".79701" stroke-linecap="butt" stroke-miterlimit="10" stroke-linejoin="miter" fill="none" stroke="#00aeef" d="M102.04694-56.69275V56.69275"/>
<path transform="matrix(1.00002,0,0,-1,63.728044,73.063999)" stroke-width=".79701" stroke-linecap="butt" stroke-miterlimit="10" stroke-linejoin="miter" fill="none" stroke="#00aeef" d="M102.04694-56.69275H215.43247"/>
<path transform="matrix(1.00002,0,0,-1,63.728044,73.063999)" stroke-width=".3985" stroke-linecap="butt" stroke-miterlimit="10" stroke-linejoin="miter" fill="none" stroke="#000000" d="M102.04694 1.7007V-1.70087"/>
<path transform="matrix(1.00002,0,0,-1,63.728044,73.063999)" d="M94.68555-13.1359H109.408329V-3.8926697H94.68555Z" fill="#ffffff"/>
<use data-text="&#x2212;" xlink:href="#font_2_1" transform="matrix(9.962799,0,0,-9.9626,159.41196,84.37299)"/>
<use data-text="5" xlink:href="#font_3_1" transform="matrix(9.962799,0,0,-9.9626,167.16011,84.37299)"/>
<path transform="matrix(1.00002,0,0,-1,63.728044,73.063999)" stroke-width=".3985" stroke-linecap="butt" stroke-miterlimit="10" stroke-linejoin="miter" fill="none" stroke="#000000" d="M160.44042-56.69275H157.03882"/>
<path transform="matrix(1.00002,0,0,-1,63.728044,73.063999)" d="M140.12422-61.31436H154.847V-52.071134H140.12422Z" fill="#ffffff"/>
<use data-text="&#x2212;" xlink:href="#font_2_1" transform="matrix(9.962799,0,0,-9.9626,204.85086,132.55199)"/>
<use data-text="5" xlink:href="#font_3_1" transform="matrix(9.962799,0,0,-9.9626,212.59902,132.55199)"/>
<path transform="matrix(1.00002,0,0,-1,63.728044,73.063999)" stroke-width=".79701" stroke-linecap="butt" stroke-miterlimit="10" stroke-linejoin="miter" fill="none" stroke="#00aeef" d="M215.43247-56.69275V56.69275"/>
<path transform="matrix(1.00002,0,0,-1,63.728044,73.063999)" stroke-width=".79701" stroke-linecap="butt" stroke-miterlimit="10" stroke-linejoin="miter" fill="none" stroke="#00aeef" d="M102.04694 56.69275H215.43247"/>
<path transform="matrix(1.00002,0,0,-1,63.728044,73.063999)" stroke-width=".3985" stroke-linecap="butt" stroke-miterlimit="10" stroke-linejoin="miter" fill="none" stroke="#000000" d="M215.43247 1.7007V-1.70087"/>
<path transform="matrix(1.00002,0,0,-1,63.728044,73.063999)" d="M211.9455-12.30566H218.91944V-3.8926802H211.9455Z" fill="#ffffff"/>
<use data-text="5" xlink:href="#font_3_1" transform="matrix(9.962799,0,0,-9.9626,276.67433,84.37299)"/>
<path transform="matrix(1.00002,0,0,-1,63.728044,73.063999)" stroke-width=".3985" stroke-linecap="butt" stroke-miterlimit="10" stroke-linejoin="miter" fill="none" stroke="#000000" d="M160.44042 56.69275H157.03882"/>
<path transform="matrix(1.00002,0,0,-1,63.728044,73.063999)" d="M147.87308 52.48625H154.84702V60.89923H147.87308Z" fill="#ffffff"/>
<use data-text="5" xlink:href="#font_3_1" transform="matrix(9.962799,0,0,-9.9626,212.60002,19.580994)"/>
<path transform="matrix(1.00002,0,0,-1,63.728044,73.063999)" stroke-width="1.19553" stroke-linecap="butt" stroke-miterlimit="10" stroke-linejoin="miter" fill="none" stroke="#ff0000" d="M125.41962-54.95381 169.38269 54.95381"/>
<path transform="matrix(-.37137745,.92844,.9284586,.37137,189.15018,128.01779)" d="M1.27522 0C-.31879 .31879-1.91284 .9564-3.8257 2.07224-1.91284 .6376-1.91284-.6376-3.8257-2.07224-1.91284-.9564-.31879-.31879 1.27522 0Z" fill="#ff0000"/>
<path transform="matrix(-.37137745,.92844,.9284586,.37137,189.15018,128.01779)" stroke-width="1.19553" stroke-linecap="butt" stroke-linejoin="round" fill="none" stroke="#ff0000" d="M1.27522 0C-.31879 .31879-1.91284 .9564-3.8257 2.07224-1.91284 .6376-1.91284-.6376-3.8257-2.07224-1.91284-.9564-.31879-.31879 1.27522 0Z"/>
<path transform="matrix(.37137745,-.92844,-.9284586,-.37137,233.11412,18.110196)" d="M1.27522 0C-.31879 .31879-1.91284 .9564-3.8257 2.07224-1.91284 .6376-1.91284-.6376-3.8257-2.07224-1.91284-.9564-.31879-.31879 1.27522 0Z" fill="#ff0000"/>
<path transform="matrix(.37137745,-.92844,-.9284586,-.37137,233.11412,18.110196)" stroke-width="1.19553" stroke-linecap="butt" stroke-linejoin="round" fill="none" stroke="#ff0000" d="M1.27522 0C-.31879 .31879-1.91284 .9564-3.8257 2.07224-1.91284 .6376-1.91284-.6376-3.8257-2.07224-1.91284-.9564-.31879-.31879 1.27522 0Z"/>
<path transform="matrix(1.00002,0,0,-1,63.728044,73.063999)" stroke-width="1.19553" stroke-linecap="butt" stroke-miterlimit="10" stroke-linejoin="miter" fill="none" stroke="#ff0000" d="M148.09671-54.95381 192.05979 54.95381"/>
<path transform="matrix(-.37137745,.92844,.9284586,.37137,211.82772,128.01779)" d="M1.27522 0C-.31879 .31879-1.91284 .9564-3.8257 2.07224-1.91284 .6376-1.91284-.6376-3.8257-2.07224-1.91284-.9564-.31879-.31879 1.27522 0Z" fill="#ff0000"/>
<path transform="matrix(-.37137745,.92844,.9284586,.37137,211.82772,128.01779)" stroke-width="1.19553" stroke-linecap="butt" stroke-linejoin="round" fill="none" stroke="#ff0000" d="M1.27522 0C-.31879 .31879-1.91284 .9564-3.8257 2.07224-1.91284 .6376-1.91284-.6376-3.8257-2.07224-1.91284-.9564-.31879-.31879 1.27522 0Z"/>
<path transform="matrix(.37137745,-.92844,-.9284586,-.37137,255.79167,18.110196)" d="M1.27522 0C-.31879 .31879-1.91284 .9564-3.8257 2.07224-1.91284 .6376-1.91284-.6376-3.8257-2.07224-1.91284-.9564-.31879-.31879 1.27522 0Z" fill="#ff0000"/>
<path transform="matrix(.37137745,-.92844,-.9284586,-.37137,255.79167,18.110196)" stroke-width="1.19553" stroke-linecap="butt" stroke-linejoin="round" fill="none" stroke="#ff0000" d="M1.27522 0C-.31879 .31879-1.91284 .9564-3.8257 2.07224-1.91284 .6376-1.91284-.6376-3.8257-2.07224-1.91284-.9564-.31879-.31879 1.27522 0Z"/>
<use data-text="I" xlink:href="#font_4_65" transform="matrix(9.962799,0,0,-9.9626,195.01767,146.969)" fill="#0000ff"/>
<use data-text="n" xlink:href="#font_4_77" transform="matrix(9.962799,0,0,-9.9626,198.61425,146.969)" fill="#0000ff"/>
<use data-text="c" xlink:href="#font_4_43" transform="matrix(9.962799,0,0,-9.9626,204.15355,146.969)" fill="#0000ff"/>
<use data-text="o" xlink:href="#font_4_81" transform="matrix(9.962799,0,0,-9.9626,208.57704,146.969)" fill="#0000ff"/>
<use data-text="n" xlink:href="#font_4_77" transform="matrix(9.962799,0,0,-9.9626,213.55843,146.969)" fill="#0000ff"/>
<use data-text="s" xlink:href="#font_4_98" transform="matrix(9.962799,0,0,-9.9626,219.09775,146.969)" fill="#0000ff"/>
<use data-text="i" xlink:href="#font_4_66" transform="matrix(9.962799,0,0,-9.9626,223.02309,146.969)" fill="#0000ff"/>
<use data-text="s" xlink:href="#font_4_98" transform="matrix(9.962799,0,0,-9.9626,225.79276,146.969)" fill="#0000ff"/>
<use data-text="t" xlink:href="#font_4_105" transform="matrix(9.962799,0,0,-9.9626,229.7181,146.969)" fill="#0000ff"/>
<use data-text="e" xlink:href="#font_4_50" transform="matrix(9.962799,0,0,-9.9626,233.59363,146.969)" fill="#0000ff"/>
<use data-text="n" xlink:href="#font_4_77" transform="matrix(9.962799,0,0,-9.9626,238.01712,146.969)" fill="#0000ff"/>
<use data-text="t" xlink:href="#font_4_105" transform="matrix(9.962799,0,0,-9.9626,243.27747,146.969)" fill="#0000ff"/>
<use data-text=";" xlink:href="#font_4_99" transform="matrix(9.962799,0,0,-9.9626,247.15302,146.969)" fill="#0000ff"/>
<use data-text="n" xlink:href="#font_4_77" transform="matrix(9.962799,0,0,-9.9626,198.35974,158.92401)" fill="#0000ff"/>
<use data-text="o" xlink:href="#font_4_81" transform="matrix(9.962799,0,0,-9.9626,203.89905,158.92401)" fill="#0000ff"/>
<use data-text="s" xlink:href="#font_4_98" transform="matrix(9.962799,0,0,-9.9626,212.1881,158.92401)" fill="#0000ff"/>
<use data-text="o" xlink:href="#font_4_81" transform="matrix(9.962799,0,0,-9.9626,216.1234,158.92401)" fill="#0000ff"/>
<use data-text="l" xlink:href="#font_4_72" transform="matrix(9.962799,0,0,-9.9626,221.10478,158.92401)" fill="#0000ff"/>
<use data-text="u" xlink:href="#font_4_109" transform="matrix(9.962799,0,0,-9.9626,223.87445,158.92401)" fill="#0000ff"/>
<use data-text="t" xlink:href="#font_4_105" transform="matrix(9.962799,0,0,-9.9626,229.41376,158.92401)" fill="#0000ff"/>
<use data-text="i" xlink:href="#font_4_66" transform="matrix(9.962799,0,0,-9.9626,233.28929,158.92401)" fill="#0000ff"/>
<use data-text="o" xlink:href="#font_4_81" transform="matrix(9.962799,0,0,-9.9626,236.05896,158.92401)" fill="#0000ff"/>
<use data-text="n" xlink:href="#font_4_77" transform="matrix(9.962799,0,0,-9.9626,241.04036,158.92401)" fill="#0000ff"/>
<path transform="matrix(1.00002,0,0,-1,63.728044,73.063999)" stroke-width=".3985" stroke-linecap="butt" stroke-miterlimit="10" stroke-linejoin="miter" fill="none" stroke="#00aeef" d="M260.78669-56.69275H374.17216M260.78669-45.35419H374.17216M260.78669-34.01564H374.17216M260.78669-22.6771H374.17216M260.78669-11.33855H374.17216M260.78669 0H374.17216M260.78669 11.33855H374.17216M260.78669 22.6771H374.17216M260.78669 34.01564H374.17216M260.78669 45.35419H374.17216M260.78669 56.68877H374.17216M260.78669-56.69275V56.69275M272.1252-56.69275V56.69275M283.46376-56.69275V56.69275M294.8023-56.69275V56.69275M306.14085-56.69275V56.69275M317.47944-56.69275V56.69275M328.81797-56.69275V56.69275M340.15653-56.69275V56.69275M351.49507-56.69275V56.69275M362.83363-56.69275V56.69275M374.16819-56.69275V56.69275M374.17216 56.69275"/>
<path transform="matrix(1.00002,0,0,-1,63.728044,73.063999)" stroke-width=".79701" stroke-linecap="butt" stroke-miterlimit="10" stroke-linejoin="miter" fill="none" stroke="#000000" d="M260.78669 0H384.0761"/>
<path transform="matrix(1.00002,0,0,-1,447.81184,73.063999)" d="M1.0361 0C-.25902 .25902-1.55415 .77707-3.1083 1.68365-1.55415 .51805-1.55415-.51805-3.1083-1.68365-1.55415-.77707-.25902-.25902 1.0361 0Z"/>
<path transform="matrix(1.00002,0,0,-1,447.81184,73.063999)" stroke-width=".79701" stroke-linecap="butt" stroke-linejoin="round" fill="none" stroke="#000000" d="M1.0361 0C-.25902 .25902-1.55415 .77707-3.1083 1.68365-1.55415 .51805-1.55415-.51805-3.1083-1.68365-1.55415-.77707-.25902-.25902 1.0361 0Z"/>
<use data-text="x" xlink:href="#font_1_1" transform="matrix(9.962799,0,0,-9.9626,452.96583,75.209)"/>
<path transform="matrix(1.00002,0,0,-1,63.728044,73.063999)" stroke-width=".79701" stroke-linecap="butt" stroke-miterlimit="10" stroke-linejoin="miter" fill="none" stroke="#000000" d="M317.47944-56.69275V66.59668"/>
<path transform="matrix(0,-1,-1.00002,-0,381.2138,6.4673159)" d="M1.0361 0C-.25902 .25902-1.55415 .77707-3.1083 1.68365-1.55415 .51805-1.55415-.51805-3.1083-1.68365-1.55415-.77707-.25902-.25902 1.0361 0Z"/>
<path transform="matrix(0,-1,-1.00002,-0,381.2138,6.4673159)" stroke-width=".79701" stroke-linecap="butt" stroke-linejoin="round" fill="none" stroke="#000000" d="M1.0361 0C-.25902 .25902-1.55415 .77707-3.1083 1.68365-1.55415 .51805-1.55415-.51805-3.1083-1.68365-1.55415-.77707-.25902-.25902 1.0361 0Z"/>
<use data-text="y" xlink:href="#font_1_2" transform="matrix(9.962799,0,0,-9.9626,374.24525,6.208992)"/>
<path transform="matrix(1.00002,0,0,-1,63.728044,73.063999)" stroke-width=".79701" stroke-linecap="butt" stroke-miterlimit="10" stroke-linejoin="miter" fill="none" stroke="#00aeef" d="M260.78669-56.69275V56.69275"/>
<path transform="matrix(1.00002,0,0,-1,63.728044,73.063999)" stroke-width=".79701" stroke-linecap="butt" stroke-miterlimit="10" stroke-linejoin="miter" fill="none" stroke="#00aeef" d="M260.78669-56.69275H374.17216"/>
<path transform="matrix(1.00002,0,0,-1,63.728044,73.063999)" stroke-width=".3985" stroke-linecap="butt" stroke-miterlimit="10" stroke-linejoin="miter" fill="none" stroke="#000000" d="M260.78669 1.7007V-1.70087"/>
<path transform="matrix(1.00002,0,0,-1,63.728044,73.063999)" d="M253.42528-13.1359H268.14808V-3.8926697H253.42528Z" fill="#ffffff"/>
<use data-text="&#x2212;" xlink:href="#font_2_1" transform="matrix(9.962799,0,0,-9.9626,318.15516,84.37299)"/>
<use data-text="5" xlink:href="#font_3_1" transform="matrix(9.962799,0,0,-9.9626,325.9033,84.37299)"/>
<path transform="matrix(1.00002,0,0,-1,63.728044,73.063999)" stroke-width=".3985" stroke-linecap="butt" stroke-miterlimit="10" stroke-linejoin="miter" fill="none" stroke="#000000" d="M319.1801-56.69275H315.77854"/>
<path transform="matrix(1.00002,0,0,-1,63.728044,73.063999)" d="M298.86396-61.31436H313.58674V-52.071134H298.86396Z" fill="#ffffff"/>
<use data-text="&#x2212;" xlink:href="#font_2_1" transform="matrix(9.962799,0,0,-9.9626,363.59407,132.55199)"/>
<use data-text="5" xlink:href="#font_3_1" transform="matrix(9.962799,0,0,-9.9626,371.3422,132.55199)"/>
<path transform="matrix(1.00002,0,0,-1,63.728044,73.063999)" stroke-width=".79701" stroke-linecap="butt" stroke-miterlimit="10" stroke-linejoin="miter" fill="none" stroke="#00aeef" d="M374.17216-56.69275V56.69275"/>
<path transform="matrix(1.00002,0,0,-1,63.728044,73.063999)" stroke-width=".79701" stroke-linecap="butt" stroke-miterlimit="10" stroke-linejoin="miter" fill="none" stroke="#00aeef" d="M260.78669 56.69275H374.17216"/>
<path transform="matrix(1.00002,0,0,-1,63.728044,73.063999)" stroke-width=".3985" stroke-linecap="butt" stroke-miterlimit="10" stroke-linejoin="miter" fill="none" stroke="#000000" d="M374.17216 1.7007V-1.70087"/>
<path transform="matrix(1.00002,0,0,-1,63.728044,73.063999)" d="M370.6852-12.30566H377.65916V-3.8926802H370.6852Z" fill="#ffffff"/>
<use data-text="5" xlink:href="#font_3_1" transform="matrix(9.962799,0,0,-9.9626,435.4165,84.37299)"/>
<path transform="matrix(1.00002,0,0,-1,63.728044,73.063999)" stroke-width=".3985" stroke-linecap="butt" stroke-miterlimit="10" stroke-linejoin="miter" fill="none" stroke="#000000" d="M319.1801 56.69275H315.77854"/>
<path transform="matrix(1.00002,0,0,-1,63.728044,73.063999)" d="M306.6128 52.48625H313.58674V60.89923H306.6128Z" fill="#ffffff"/>
<use data-text="5" xlink:href="#font_3_1" transform="matrix(9.962799,0,0,-9.9626,371.3432,19.580994)"/>
<path transform="matrix(1.00002,0,0,-1,63.728044,73.063999)" stroke-width="1.19553" stroke-linecap="butt" stroke-miterlimit="10" stroke-linejoin="miter" fill="none" stroke="#ff0000" d="M273.68357 55.65385 372.61384-10.29965"/>
<path transform="matrix(-.8320367,-.55467,-.55468109,.83202,337.4171,17.410157)" d="M1.27522 0C-.31879 .31879-1.91284 .9564-3.8257 2.07224-1.91284 .6376-1.91284-.6376-3.8257-2.07224-1.91284-.9564-.31879-.31879 1.27522 0Z" fill="#ff0000"/>
<path transform="matrix(-.8320367,-.55467,-.55468109,.83202,337.4171,17.410157)" stroke-width="1.19553" stroke-linecap="butt" stroke-linejoin="round" fill="none" stroke="#ff0000" d="M1.27522 0C-.31879 .31879-1.91284 .9564-3.8257 2.07224-1.91284 .6376-1.91284-.6376-3.8257-2.07224-1.91284-.9564-.31879-.31879 1.27522 0Z"/>
<path transform="matrix(.8320367,.55467,.55468109,-.83202,436.34938,83.36363)" d="M1.27522 0C-.31879 .31879-1.91284 .9564-3.8257 2.07224-1.91284 .6376-1.91284-.6376-3.8257-2.07224-1.91284-.9564-.31879-.31879 1.27522 0Z" fill="#ff0000"/>
<path transform="matrix(.8320367,.55467,.55468109,-.83202,436.34938,83.36363)" stroke-width="1.19553" stroke-linecap="butt" stroke-linejoin="round" fill="none" stroke="#ff0000" d="M1.27522 0C-.31879 .31879-1.91284 .9564-3.8257 2.07224-1.91284 .6376-1.91284-.6376-3.8257-2.07224-1.91284-.9564-.31879-.31879 1.27522 0Z"/>
<use data-text="D" xlink:href="#font_4_46" transform="matrix(9.962799,0,0,-9.9626,356.37089,146.05799)" fill="#0000ff"/>
<use data-text="e" xlink:href="#font_4_50" transform="matrix(9.962799,0,0,-9.9626,363.98246,146.05799)" fill="#0000ff"/>
<use data-text="p" xlink:href="#font_4_84" transform="matrix(9.962799,0,0,-9.9626,368.40596,146.05799)" fill="#0000ff"/>
<use data-text="e" xlink:href="#font_4_50" transform="matrix(9.962799,0,0,-9.9626,374.21424,146.05799)" fill="#0000ff"/>
<use data-text="n" xlink:href="#font_4_77" transform="matrix(9.962799,0,0,-9.9626,378.63777,146.05799)" fill="#0000ff"/>
<use data-text="d" xlink:href="#font_4_47" transform="matrix(9.962799,0,0,-9.9626,384.17707,146.05799)" fill="#0000ff"/>
<use data-text="e" xlink:href="#font_4_50" transform="matrix(9.962799,0,0,-9.9626,389.71638,146.05799)" fill="#0000ff"/>
<use data-text="n" xlink:href="#font_4_77" transform="matrix(9.962799,0,0,-9.9626,394.13984,146.05799)" fill="#0000ff"/>
<use data-text="t" xlink:href="#font_4_105" transform="matrix(9.962799,0,0,-9.9626,399.41017,146.05799)" fill="#0000ff"/>
<use data-text=";" xlink:href="#font_4_99" transform="matrix(9.962799,0,0,-9.9626,403.2857,146.05799)" fill="#0000ff"/>
<use data-text="i" xlink:href="#font_4_66" transform="matrix(9.962799,0,0,-9.9626,327.5983,158.013)" fill="#0000ff"/>
<use data-text="n" xlink:href="#font_4_77" transform="matrix(9.962799,0,0,-9.9626,330.36799,158.013)" fill="#0000ff"/>
<use data-text="f" xlink:href="#font_4_125" transform="matrix(9.962799,0,0,-9.9626,335.9073,158.013)" fill="#0000ff"/>
<use data-text="n" xlink:href="#font_4_77" transform="matrix(9.962799,0,0,-9.9626,341.4466,158.013)" fill="#0000ff"/>
<use data-text="i" xlink:href="#font_4_66" transform="matrix(9.962799,0,0,-9.9626,346.9859,158.013)" fill="#0000ff"/>
<use data-text="t" xlink:href="#font_4_105" transform="matrix(9.962799,0,0,-9.9626,349.75556,158.013)" fill="#0000ff"/>
<use data-text="e" xlink:href="#font_4_50" transform="matrix(9.962799,0,0,-9.9626,353.6311,158.013)" fill="#0000ff"/>
<use data-text="l" xlink:href="#font_4_72" transform="matrix(9.962799,0,0,-9.9626,358.05458,158.013)" fill="#0000ff"/>
<use data-text="y" xlink:href="#font_4_118" transform="matrix(9.962799,0,0,-9.9626,360.82426,158.013)" fill="#0000ff"/>
<use data-text="m" xlink:href="#font_4_75" transform="matrix(9.962799,0,0,-9.9626,369.39228,158.013)" fill="#0000ff"/>
<use data-text="a" xlink:href="#font_4_28" transform="matrix(9.962799,0,0,-9.9626,377.69129,158.013)" fill="#0000ff"/>
<use data-text="n" xlink:href="#font_4_77" transform="matrix(9.962799,0,0,-9.9626,382.67268,158.013)" fill="#0000ff"/>
<use data-text="y" xlink:href="#font_4_118" transform="matrix(9.962799,0,0,-9.9626,387.94297,158.013)" fill="#0000ff"/>
<use data-text="s" xlink:href="#font_4_98" transform="matrix(9.962799,0,0,-9.9626,396.511,158.013)" fill="#0000ff"/>
<use data-text="o" xlink:href="#font_4_81" transform="matrix(9.962799,0,0,-9.9626,400.43635,158.013)" fill="#0000ff"/>
<use data-text="l" xlink:href="#font_4_72" transform="matrix(9.962799,0,0,-9.9626,405.41773,158.013)" fill="#0000ff"/>
<use data-text="u" xlink:href="#font_4_109" transform="matrix(9.962799,0,0,-9.9626,408.18739,158.013)" fill="#0000ff"/>
<use data-text="t" xlink:href="#font_4_105" transform="matrix(9.962799,0,0,-9.9626,413.72669,158.013)" fill="#0000ff"/>
<use data-text="i" xlink:href="#font_4_66" transform="matrix(9.962799,0,0,-9.9626,417.60224,158.013)" fill="#0000ff"/>
<use data-text="o" xlink:href="#font_4_81" transform="matrix(9.962799,0,0,-9.9626,420.3719,158.013)" fill="#0000ff"/>
<use data-text="n" xlink:href="#font_4_77" transform="matrix(9.962799,0,0,-9.9626,425.35328,158.013)" fill="#0000ff"/>
<use data-text="s" xlink:href="#font_4_98" transform="matrix(9.962799,0,0,-9.9626,430.89259,158.013)" fill="#0000ff"/>
</svg>
