<svg xmlns="http://www.w3.org/2000/svg" xmlns:xlink="http://www.w3.org/1999/xlink" version="1.1" width="338" height="35" viewBox="0 0 338 35">
<defs>
<path id="font_1_1" d="M.6589966 .23046875C.6759949 .23046875 .69400027 .23046875 .69400027 .25045777 .69400027 .27046205 .6759949 .27046205 .6589966 .27046205H.117996219C.100997928 .27046205 .08299255 .27046205 .08299255 .25045777 .08299255 .23046875 .100997928 .23046875 .117996219 .23046875H.6589966Z"/>
<path id="font_2_2" d="M.2939911 .64004519C.2939911 .66400149 .2939911 .6660156 .2709961 .6660156 .20899964 .60227969 .12098694 .60227969 .08898926 .60227969V.57128909C.10899353 .57128909 .16799927 .57128909 .21998596 .5972748V.07902527C.21998596 .042999269 .21699524 .0309906 .1269989 .0309906H.09498596V0C.12998963 .0029907227 .21699524 .0029907227 .25698854 .0029907227 .29699708 .0029907227 .38398744 .0029907227 .4189911 0V.0309906H.3869934C.29699708 .0309906 .2939911 .041992189 .2939911 .07902527V.64004519Z"/>
<path id="font_2_1" d="M.45999146 .31976319C.45999146 .39982606 .45498658 .47988893 .41999818 .5539398 .37399293 .65000918 .2919922 .6660156 .25 .6660156 .18998719 .6660156 .116989139 .64001467 .07598877 .54693606 .04399109 .47789 .038986207 .39982606 .038986207 .31976319 .038986207 .24472046 .042999269 .15464783 .083999637 .07859802 .1269989-.0024719239 .19999695-.022460938 .24899292-.022460938 .30299378-.022460938 .3789978-.0014648438 .4229889 .09359741 .45498658 .16265869 .45999146 .2407074 .45999146 .31976319M.24899292-.00047302247C.20999146-.00047302247 .15098572 .024551392 .1329956 .12062073 .12199402 .18066406 .12199402 .2727356 .12199402 .3317871 .12199402 .39582826 .12199402 .46188355 .12998963 .5159149 .14898682 .63500979 .22399903 .64401248 .24899292 .64401248 .28199769 .64401248 .34799195 .6259918 .36698915 .52693179 .3769989 .47088624 .3769989 .39482118 .3769989 .3317871 .3769989 .25672914 .3769989 .18867493 .3659973 .12461853 .35099793 .029556275 .2939911-.00047302247 .24899292-.00047302247Z"/>
<path id="font_2_4" d="M.44898988 .20022583C.44898988 .3193512 .36698915 .41944886 .25898744 .41944886 .21099854 .41944886 .16799927 .40345765 .13198853 .36842347V.5637665C.1519928 .5577698 .18499756 .55078127 .21699524 .55078127 .33999635 .55078127 .4099884 .6417694 .4099884 .6547699 .4099884 .6607666 .40699769 .6657715 .3999939 .6657715 .39898683 .6657715 .39698792 .6657715 .3919983 .66278079 .37199403 .6537781 .32299806 .6337738 .2559967 .6337738 .21598816 .6337738 .16999817 .6407776 .12298584 .6617737 .114990238 .66477969 .11299133 .66477969 .11099243 .66477969 .100997928 .66477969 .100997928 .6567688 .100997928 .6407776V.34439088C.100997928 .32637025 .100997928 .31835938 .114990238 .31835938 .12199402 .31835938 .12399292 .32136537 .12799073 .32736207 .13899231 .3433838 .17599488 .39746095 .25698854 .39746095 .30899049 .39746095 .33399964 .35139466 .34199525 .33337403 .35798646 .29632569 .3600006 .25727845 .3600006 .20722962 .3600006 .17222595 .3600006 .11222839 .33599855 .07035828 .31199647 .031463624 .2749939 .0055389406 .22898865 .0055389406 .1559906 .0055389406 .09899902 .058380128 .08198547 .11723328 .084991458 .1162262 .08799744 .115234378 .09899902 .115234378 .13198853 .115234378 .14898682 .14022827 .14898682 .16423035 .14898682 .18823242 .13198853 .21322632 .09899902 .21322632 .084991458 .21322632 .049987794 .20622254 .049987794 .16023255 .049987794 .07434082 .11898804-.022460938 .23098755-.022460938 .34700013-.022460938 .44898988 .073349 .44898988 .20022583Z"/>
<path id="font_2_3" d="M.2939911 .16503906V.07800293C.2939911 .041992189 .2919922 .0309906 .21798706 .0309906H.19699097V0C.23799134 .0029907227 .2899933 .0029907227 .33198548 .0029907227 .37399293 .0029907227 .4269867 .0029907227 .46798707 0V.0309906H.44699098C.37298585 .0309906 .37098695 .041992189 .37098695 .07800293V.16503906H.47099305V.19602967H.37098695V.65075686C.37098695 .67074587 .37098695 .6767578 .35499574 .6767578 .34599305 .6767578 .34298707 .6767578 .33499146 .66474917L.027999878 .19602967V.16503906H.2939911M.2999878 .19602967H.055999757L.2999878 .5688019V.19602967Z"/>
<path id="font_2_5" d="M.36698915 .31781007V.28579713C.36698915 .05178833 .2630005 .0055389406 .20498657 .0055389406 .18798828 .0055389406 .13398743 .007537842 .10699463 .041778566 .15098572 .041778566 .15899658 .07078552 .15899658 .08778381 .15899658 .118774417 .1349945 .13378906 .11299133 .13378906 .09700012 .13378906 .066986087 .12478638 .066986087 .08578491 .066986087 .018615723 .12098694-.022460938 .20599365-.022460938 .33499146-.022460938 .45700074 .11378479 .45700074 .32881166 .45700074 .5979767 .34199525 .6660156 .25299073 .6660156 .19799805 .6660156 .14898682 .64801028 .10598755 .60298159 .06498718 .5579529 .041992189 .5159302 .041992189 .44088746 .041992189 .31581117 .12998963 .21777344 .24198914 .21777344 .30299378 .21777344 .34399415 .25978089 .36698915 .31781007M.24299622 .24076844C.22698975 .24076844 .18099976 .24076844 .1499939 .3038025 .13198853 .3408203 .13198853 .39085389 .13198853 .43988038 .13198853 .49391175 .13198853 .54093936 .15299988 .5779724 .17999268 .6279907 .21798706 .64100649 .25299073 .64100649 .29899598 .64100649 .33198548 .60697939 .34899903 .5619507 .36099244 .52993777 .36499024 .4669037 .36499024 .42086793 .36499024 .3378296 .33099366 .24076844 .24299622 .24076844Z"/>
</defs>
<path transform="matrix(1,0,0,-1,168.857,21.628)" stroke-width=".79701" stroke-linecap="butt" stroke-miterlimit="10" stroke-linejoin="miter" fill="none" stroke="#000000" d="M-167.2462 0H165.81159"/>
<path transform="matrix(1,0,0,-1,334.66859,21.628)" d="M1.0361 0C-.25902 .25902-1.55415 .77707-3.1083 1.68365-1.55415 .51805-1.55415-.51805-3.1083-1.68365-1.55415-.77707-.25902-.25902 1.0361 0Z"/>
<path transform="matrix(1,0,0,-1,334.66859,21.628)" stroke-width=".79701" stroke-linecap="butt" stroke-linejoin="round" fill="none" stroke="#000000" d="M1.0361 0C-.25902 .25902-1.55415 .77707-3.1083 1.68365-1.55415 .51805-1.55415-.51805-3.1083-1.68365-1.55415-.77707-.25902-.25902 1.0361 0Z"/>
<path transform="matrix(1,0,0,-1,168.857,21.628)" stroke-width=".3985" stroke-linecap="butt" stroke-miterlimit="10" stroke-linejoin="miter" fill="none" stroke="#000000" d="M-155.90744 4.25204V0"/>
<path transform="matrix(1,0,0,-1,168.857,21.628)" stroke-width=".3985" stroke-linecap="butt" stroke-miterlimit="10" stroke-linejoin="miter" fill="none" stroke="#000000" d="M-141.73404 4.25204V0"/>
<path transform="matrix(1,0,0,-1,168.857,21.628)" stroke-width=".3985" stroke-linecap="butt" stroke-miterlimit="10" stroke-linejoin="miter" fill="none" stroke="#000000" d="M-127.56062 4.25204V0"/>
<path transform="matrix(1,0,0,-1,168.857,21.628)" stroke-width=".3985" stroke-linecap="butt" stroke-miterlimit="10" stroke-linejoin="miter" fill="none" stroke="#000000" d="M-113.38724 4.25204V0"/>
<path transform="matrix(1,0,0,-1,168.857,21.628)" stroke-width=".3985" stroke-linecap="butt" stroke-miterlimit="10" stroke-linejoin="miter" fill="none" stroke="#000000" d="M-99.21382 4.25204V0"/>
<path transform="matrix(1,0,0,-1,168.857,21.628)" stroke-width=".3985" stroke-linecap="butt" stroke-miterlimit="10" stroke-linejoin="miter" fill="none" stroke="#000000" d="M-85.04042 4.25204V0"/>
<path transform="matrix(1,0,0,-1,168.857,21.628)" stroke-width=".3985" stroke-linecap="butt" stroke-miterlimit="10" stroke-linejoin="miter" fill="none" stroke="#000000" d="M-70.867 4.25204V0"/>
<path transform="matrix(1,0,0,-1,168.857,21.628)" stroke-width=".3985" stroke-linecap="butt" stroke-miterlimit="10" stroke-linejoin="miter" fill="none" stroke="#000000" d="M-56.69362 4.25204V0"/>
<path transform="matrix(1,0,0,-1,168.857,21.628)" stroke-width=".3985" stroke-linecap="butt" stroke-miterlimit="10" stroke-linejoin="miter" fill="none" stroke="#000000" d="M-42.5202 4.25204V0"/>
<path transform="matrix(1,0,0,-1,168.857,21.628)" stroke-width=".3985" stroke-linecap="butt" stroke-miterlimit="10" stroke-linejoin="miter" fill="none" stroke="#000000" d="M-28.3468 4.25204V0"/>
<path transform="matrix(1,0,0,-1,168.857,21.628)" stroke-width=".3985" stroke-linecap="butt" stroke-miterlimit="10" stroke-linejoin="miter" fill="none" stroke="#000000" d="M-14.17339 4.25204V0"/>
<path transform="matrix(1,0,0,-1,168.857,21.628)" stroke-width=".3985" stroke-linecap="butt" stroke-miterlimit="10" stroke-linejoin="miter" fill="none" stroke="#000000" d="M0 4.25204V0"/>
<path transform="matrix(1,0,0,-1,168.857,21.628)" stroke-width=".3985" stroke-linecap="butt" stroke-miterlimit="10" stroke-linejoin="miter" fill="none" stroke="#000000" d="M14.17339 4.25204V0"/>
<path transform="matrix(1,0,0,-1,168.857,21.628)" stroke-width=".3985" stroke-linecap="butt" stroke-miterlimit="10" stroke-linejoin="miter" fill="none" stroke="#000000" d="M28.3468 4.25204V0"/>
<path transform="matrix(1,0,0,-1,168.857,21.628)" stroke-width=".3985" stroke-linecap="butt" stroke-miterlimit="10" stroke-linejoin="miter" fill="none" stroke="#000000" d="M42.5202 4.25204V0"/>
<path transform="matrix(1,0,0,-1,168.857,21.628)" stroke-width=".3985" stroke-linecap="butt" stroke-miterlimit="10" stroke-linejoin="miter" fill="none" stroke="#000000" d="M56.69362 4.25204V0"/>
<path transform="matrix(1,0,0,-1,168.857,21.628)" stroke-width=".3985" stroke-linecap="butt" stroke-miterlimit="10" stroke-linejoin="miter" fill="none" stroke="#000000" d="M70.867 4.25204V0"/>
<path transform="matrix(1,0,0,-1,168.857,21.628)" stroke-width=".3985" stroke-linecap="butt" stroke-miterlimit="10" stroke-linejoin="miter" fill="none" stroke="#000000" d="M85.04042 4.25204V0"/>
<path transform="matrix(1,0,0,-1,168.857,21.628)" stroke-width=".3985" stroke-linecap="butt" stroke-miterlimit="10" stroke-linejoin="miter" fill="none" stroke="#000000" d="M99.21382 4.25204V0"/>
<path transform="matrix(1,0,0,-1,168.857,21.628)" stroke-width=".3985" stroke-linecap="butt" stroke-miterlimit="10" stroke-linejoin="miter" fill="none" stroke="#000000" d="M113.38724 4.25204V0"/>
<path transform="matrix(1,0,0,-1,168.857,21.628)" stroke-width=".3985" stroke-linecap="butt" stroke-miterlimit="10" stroke-linejoin="miter" fill="none" stroke="#000000" d="M127.56062 4.25204V0"/>
<path transform="matrix(1,0,0,-1,168.857,21.628)" stroke-width=".3985" stroke-linecap="butt" stroke-miterlimit="10" stroke-linejoin="miter" fill="none" stroke="#000000" d="M141.73404 4.25204V0"/>
<path transform="matrix(1,0,0,-1,168.857,21.628)" stroke-width=".3985" stroke-linecap="butt" stroke-miterlimit="10" stroke-linejoin="miter" fill="none" stroke="#000000" d="M155.90744 4.25204V0"/>
<path transform="matrix(1,0,0,-1,168.857,21.628)" stroke-width=".79701" stroke-linecap="butt" stroke-miterlimit="10" stroke-linejoin="miter" fill="none" stroke="#000000" d="M-141.73404 6.37796V0"/>
<use data-text="&#x2212;" xlink:href="#font_1_1" transform="matrix(8.966339,0,0,-8.966339,19.152283,32.7462)"/>
<use data-text="1" xlink:href="#font_2_2" transform="matrix(8.966339,0,0,-8.966339,26.126389,32.7462)"/>
<use data-text="0" xlink:href="#font_2_1" transform="matrix(8.966339,0,0,-8.966339,30.609543,32.7462)"/>
<path transform="matrix(1,0,0,-1,168.857,21.628)" stroke-width=".79701" stroke-linecap="butt" stroke-miterlimit="10" stroke-linejoin="miter" fill="none" stroke="#000000" d="M-70.867 6.37796V0"/>
<use data-text="&#x2212;" xlink:href="#font_1_1" transform="matrix(8.966339,0,0,-8.966339,92.26129,32.7462)"/>
<use data-text="5" xlink:href="#font_2_4" transform="matrix(8.966339,0,0,-8.966339,99.2354,32.7462)"/>
<path transform="matrix(1,0,0,-1,168.857,21.628)" stroke-width=".79701" stroke-linecap="butt" stroke-miterlimit="10" stroke-linejoin="miter" fill="none" stroke="#000000" d="M0 6.37796V0"/>
<use data-text="0" xlink:href="#font_2_1" transform="matrix(8.966339,0,0,-8.966339,166.61528,32.7462)"/>
<path transform="matrix(1,0,0,-1,168.857,21.628)" stroke-width=".79701" stroke-linecap="butt" stroke-miterlimit="10" stroke-linejoin="miter" fill="none" stroke="#000000" d="M70.867 6.37796V0"/>
<use data-text="5" xlink:href="#font_2_4" transform="matrix(8.966339,0,0,-8.966339,237.48229,32.7462)"/>
<path transform="matrix(1,0,0,-1,168.857,21.628)" stroke-width=".79701" stroke-linecap="butt" stroke-miterlimit="10" stroke-linejoin="miter" fill="none" stroke="#000000" d="M141.73404 6.37796V0"/>
<use data-text="1" xlink:href="#font_2_2" transform="matrix(8.966339,0,0,-8.966339,306.1073,32.7462)"/>
<use data-text="0" xlink:href="#font_2_1" transform="matrix(8.966339,0,0,-8.966339,310.59046,32.7462)"/>
<path transform="matrix(1,0,0,-1,168.857,21.628)" d="M59.52824 0C59.52824 1.56554 58.25916 2.83463 56.69362 2.83463 55.12807 2.83463 53.85898 1.56554 53.85898 0 53.85898-1.56554 55.12807-2.83463 56.69362-2.83463 58.25916-2.83463 59.52824-1.56554 59.52824 0ZM56.69362 0" fill="#ff0000"/>
<path transform="matrix(1,0,0,-1,168.857,21.628)" stroke-width=".3985" stroke-linecap="butt" stroke-miterlimit="10" stroke-linejoin="miter" fill="none" stroke="#ff0000" d="M59.52824 0C59.52824 1.56554 58.25916 2.83463 56.69362 2.83463 55.12807 2.83463 53.85898 1.56554 53.85898 0 53.85898-1.56554 55.12807-2.83463 56.69362-2.83463 58.25916-2.83463 59.52824-1.56554 59.52824 0ZM56.69362 0"/>
<use data-text="4" xlink:href="#font_2_3" transform="matrix(7.97008,0,0,-7.97008,223.5576,32.5694)" fill="#ff0000"/>
<path transform="matrix(1,0,0,-1,168.857,21.628)" d="M130.39527 0C130.39527 1.56554 129.12618 2.83463 127.56062 2.83463 125.99509 2.83463 124.726 1.56554 124.726 0 124.726-1.56554 125.99509-2.83463 127.56062-2.83463 129.12618-2.83463 130.39527-1.56554 130.39527 0ZM127.56062 0" fill="#ff0000"/>
<path transform="matrix(1,0,0,-1,168.857,21.628)" stroke-width=".3985" stroke-linecap="butt" stroke-miterlimit="10" stroke-linejoin="miter" fill="none" stroke="#ff0000" d="M130.39527 0C130.39527 1.56554 129.12618 2.83463 127.56062 2.83463 125.99509 2.83463 124.726 1.56554 124.726 0 124.726-1.56554 125.99509-2.83463 127.56062-2.83463 129.12618-2.83463 130.39527-1.56554 130.39527 0ZM127.56062 0"/>
<use data-text="9" xlink:href="#font_2_5" transform="matrix(7.97008,0,0,-7.97008,294.42463,32.5694)" fill="#ff0000"/>
<path transform="matrix(1,0,0,-1,168.857,21.628)" stroke-width=".3985" stroke-linecap="butt" stroke-miterlimit="10" stroke-linejoin="miter" fill="none" stroke="#00aeef" d="M127.56062 6.09445V10.34651H57.68988"/>
<path transform="matrix(-1,-0,0,1,226.54688,11.28149)" d="M.797 0C-.19925 .19925-1.19551 .59775-2.39102 1.29512-1.19551 .3985-1.19551-.3985-2.39102-1.29512-1.19551-.59775-.19925-.19925 .797 0Z" fill="#00aeef"/>
<path transform="matrix(-1,-0,0,1,226.54688,11.28149)" stroke-width=".3985" stroke-linecap="butt" stroke-linejoin="round" fill="none" stroke="#00aeef" d="M.797 0C-.19925 .19925-1.19551 .59775-2.39102 1.29512-1.19551 .3985-1.19551-.3985-2.39102-1.29512-1.19551-.59775-.19925-.19925 .797 0Z"/>
<use data-text="&#x2212;" xlink:href="#font_1_1" transform="matrix(8.966339,0,0,-8.966339,255.25528,7.3662)" fill="#00aeef"/>
<use data-text="5" xlink:href="#font_2_4" transform="matrix(8.966339,0,0,-8.966339,262.22938,7.3662)" fill="#00aeef"/>
</svg>
