<svg xmlns="http://www.w3.org/2000/svg" xmlns:xlink="http://www.w3.org/1999/xlink" version="1.1" width="330" height="71" viewBox="0 0 330 71">
<defs>
<path id="font_1_2" d="M.48599244 .38136292C.48999024 .39537049 .48999024 .39736939 .48999024 .40437318 .48999024 .42237855 .47599793 .43138124 .46099855 .43138124 .45098878 .43138124 .43499757 .42536927 .42599488 .41036988 .42399598 .405365 .41600038 .37435914 .4119873 .35635377 .40499879 .33035279 .397995 .30334474 .3919983 .27633668L.34700013 .09628296C.34298707 .08126831 .2999878 .011245728 .23399353 .011245728 .18299866 .011245728 .17199707 .055267335 .17199707 .0922699 .17199707 .1382904 .18899536 .20030213 .22299195 .28833009 .23899842 .3293457 .24299622 .3403473 .24299622 .36035157 .24299622 .405365 .21099854 .4423828 .16099549 .4423828 .06599426 .4423828 .0289917 .29733277 .0289917 .28833009 .0289917 .27833558 .038986207 .27833558 .040985109 .27833558 .050994874 .27833558 .051986696 .28033448 .056991579 .29634095 .083999637 .3903656 .12399292 .42037965 .1579895 .42037965 .1659851 .42037965 .18299866 .42037965 .18299866 .3883667 .18299866 .36335755 .17298889 .3373413 .1659851 .31834413 .12599182 .21231079 .10798645 .1552887 .10798645 .10827637 .10798645 .019256592 .17098999-.0107421879 .22999573-.0107421879 .2689972-.0107421879 .30299378 .0062561037 .33099366 .03425598 .31799317-.017745972 .30599977-.06674194 .2659912-.11973572 .23999024-.15385437 .20199585-.18309021 .1559906-.18309021 .14199829-.18309021 .09700012-.18005371 .07998657-.14074707 .09599304-.14074707 .10899353-.14074707 .12298584-.1287384 .1329956-.11973572 .14299011-.10673523 .14299011-.08773804 .14299011-.056747438 .115997318-.052734376 .10598755-.052734376 .08299255-.052734376 .049987794-.068740848 .049987794-.11773682 .049987794-.16796875 .09399414-.20507813 .1559906-.20507813 .25898744-.20507813 .3619995-.11373901 .3899994-.00074768069L.48599244 .38136292Z"/>
<path id="font_2_5" d="M.68699648 .32714845C.70199587 .32714845 .72099307 .32714845 .72099307 .34713746 .72099307 .36714173 .70199587 .36714173 .6879883 .36714173H.08898926C.07499695 .36714173 .055999757 .36714173 .055999757 .34713746 .055999757 .32714845 .07499695 .32714845 .08999634 .32714845H.68699648M.6879883 .13284302C.70199587 .13284302 .72099307 .13284302 .72099307 .15284729 .72099307 .17285156 .70199587 .17285156 .68699648 .17285156H.08999634C.07499695 .17285156 .055999757 .17285156 .055999757 .15284729 .055999757 .13284302 .07499695 .13284302 .08898926 .13284302H.6879883Z"/>
<path id="font_3_4" d="M.18399048 .34199525V.36097718C.18399048 .47483827 .20498657 .5178375 .21199036 .5328369 .23599243 .579834 .2899933 .616272 .35099793 .616272 .36898805 .616272 .40299989 .6132202 .42599488 .58984377 .3899994 .58483889 .37199403 .5578308 .37199403 .52783206 .37199403 .49383546 .394989 .46583558 .43399049 .46583558 .47299195 .46583558 .49699403 .49183656 .49699403 .52983096 .49699403 .59187319 .45498658 .65527346 .34899903 .65527346 .21299744 .65527346 .04798889 .5688324 .04798889 .3170166 .04798889 .23808289 .056991579 .15814209 .09799194 .08920288 .14498902 .013244629 .22099304-.0107421879 .29100038-.0107421879 .42999269-.0107421879 .526001 .07121277 .526001 .20510865 .526001 .34498597 .4249878 .41796876 .3039856 .41796876 .28199769 .41796876 .22599793 .41796876 .18399048 .34199525M.2889862 .03225708C.23699951 .03225708 .20999146 .07121277 .20199585 .08720398 .18598938 .11917114 .18598938 .19212342 .18598938 .21009827 .18598938 .33499146 .23999024 .381958 .29499818 .381958 .3899994 .381958 .3899994 .3070221 .3899994 .20710755 .3899994 .10618591 .3899994 .03225708 .2889862 .03225708Z"/>
<path id="font_4_1" d="M.5359955 .4011383C.5 .3911438 .48199464 .35714723 .48199464 .33215333 .48199464 .31015016 .49899293 .28614808 .5319977 .28614808 .5669861 .28614808 .60398867 .31515504 .60398867 .364151 .60398867 .41714479 .5509949 .45214845 .48999024 .45214845 .43299867 .45214845 .3959961 .4091339 .3829956 .3911438 .35798646 .433136 .3019867 .45214845 .24499512 .45214845 .11898804 .45214845 .050994874 .32914735 .050994874 .29615785 .050994874 .28215028 .06599426 .28215028 .07499695 .28215028 .08699036 .28215028 .09399414 .28215028 .09799194 .29515077 .1269989 .38613893 .19898987 .4161377 .23999024 .4161377 .27799989 .4161377 .29599 .39814759 .29599 .3661499 .29599 .3471527 .28199769 .29216004 .272995 .2561493L.23899842 .11917114C.22399903 .058181764 .18798828 .028182984 .1539917 .028182984 .14898682 .028182984 .12599182 .028182984 .10598755 .043182374 .14199829 .05317688 .1599884 .08717346 .1599884 .11216736 .1599884 .13417053 .14299011 .1581726 .10998535 .1581726 .07499695 .1581726 .037994386 .12916565 .037994386 .08016968 .037994386 .027175904 .09098816-.0078125 .1519928-.0078125 .20899964-.0078125 .24598694 .035186769 .25898744 .05317688 .28399659 .011184692 .33999635-.0078125 .39698792-.0078125 .522995-.0078125 .59098818 .11517334 .59098818 .14816284 .59098818 .16217041 .57598879 .16217041 .5669861 .16217041 .5549927 .16217041 .5479889 .16217041 .5439911 .14916992 .5149994 .058181764 .44299317 .028182984 .4019928 .028182984 .3639984 .028182984 .34599305 .046173097 .34599305 .07817078 .34599305 .09916687 .35899354 .15216065 .36799623 .18916321 .375 .21516419 .397995 .30915834 .40299989 .32514955 .41799928 .3851471 .45298768 .4161377 .48799134 .4161377 .49299623 .4161377 .5159912 .4161377 .5359955 .4011383Z"/>
<path id="font_3_1" d="M.47698976 .22024536H.7859955C.798996 .22024536 .82899478 .22024536 .82899478 .25024415 .82899478 .28125 .7999878 .28125 .7859955 .28125H.47698976V.5908356C.47698976 .6028137 .47698976 .6328125 .44699098 .6328125 .41600038 .6328125 .41600038 .6038208 .41600038 .5908356V.28125H.10699463C.09298706 .28125 .06399536 .28125 .06399536 .25024415 .06399536 .22024536 .09399414 .22024536 .10699463 .22024536H.41600038V-.08984375C.41600038-.10183716 .41600038-.13183594 .44599916-.13183594 .47698976-.13183594 .47698976-.10284424 .47698976-.08984375V.22024536Z"/>
<path id="font_3_3" d="M.35398866 .62316897C.35398866 .6452637 .35398866 .65527346 .32798768 .65527346 .31698609 .65527346 .31498719 .65527346 .30599977 .64826968 .22898865 .5909424 .12599182 .5909424 .10499573 .5909424H.084991458V.5439453H.10499573C.12098694 .5439453 .17599488 .54493716 .23498535 .5639343V.04699707H.09599304V0C.13999939 .0029907227 .24598694 .0029907227 .29499818 .0029907227 .34399415 .0029907227 .44999696 .0029907227 .49398805 0V.04699707H.35398866V.62316897Z"/>
<path id="font_3_2" d="M.5289917 .31925965C.5289917 .41625978 .5279999 .65527346 .2869873 .65527346 .04598999 .65527346 .04499817 .41726686 .04499817 .31925965 .04499817 .22026062 .04598999-.0107421879 .2869873-.0107421879 .5269928-.0107421879 .5289917 .21925354 .5289917 .31925965M.2869873 .025253296C.25099183 .025253296 .19499207 .04725647 .18199158 .12025452 .17298889 .17225647 .17298889 .27626039 .17298889 .33125306 .17298889 .40325929 .17298889 .46826173 .18099976 .5202637 .19299317 .6092682 .2630005 .6192627 .2869873 .6192627 .32398988 .6192627 .36499024 .6002655 .38398744 .5562744 .40098573 .51927188 .40098573 .41326905 .40098573 .33125306 .40098573 .2752533 .40098573 .18424988 .3939972 .13224793 .37998963 .039245607 .31698609 .025253296 .2869873 .025253296Z"/>
<path id="font_5_97" d="M.49899293 .18579102C.49899293 .2858429 .43299867 .36791993 .34899903 .38793946L.22099304 .4189453C.15899658 .43388368 .11999512 .48773194 .11999512 .5458069 .11999512 .61595156 .17399597 .677063 .2519989 .677063 .4189911 .677063 .44099427 .5127411 .44699098 .46777345 .44799806 .461792 .44799806 .45581056 .45899964 .45581056 .47200013 .45581056 .47200013 .46080018 .47200013 .47973634V.68107607C.47200013 .69807437 .47200013 .7050781 .46099855 .7050781 .45399476 .7050781 .45298768 .70407107 .44599916 .69207766L.41099549 .63497927C.3809967 .66404727 .33999635 .7050781 .25099183 .7050781 .13999939 .7050781 .055999757 .61694338 .055999757 .5107422 .055999757 .42790223 .10899353 .35490418 .18699646 .32788087 .19799805 .32388307 .24899292 .3118744 .31900025 .29486085 .34599305 .28785707 .37599183 .280838 .4039917 .24382019 .4249878 .2177887 .43499757 .18478394 .43499757 .1517334 .43499757 .0806427 .3849945 .008529663 .30099488 .008529663 .27198792 .008529663 .19599915 .013534546 .14299011 .06260681 .084991458 .11668396 .08198547 .18078614 .08099365 .21679688 .07998657 .22679138 .07199097 .22679138 .068984989 .22679138 .055999757 .22679138 .055999757 .2197876 .055999757 .20178223V.0015258789C.055999757-.015472412 .055999757-.022460938 .066986087-.022460938 .07398987-.022460938 .07499695-.020462037 .08198547-.009475708 .08198547-.009475708 .084991458-.0054626467 .117996219 .047592164 .14898682 .013534546 .21299744-.022460938 .3019867-.022460938 .4189911-.022460938 .49899293 .07562256 .49899293 .18579102Z"/>
<path id="font_5_109" d="M.5349884 0V.0309906C.46499635 .0309906 .45700074 .037994386 .45700074 .08705139V.4423828L.30999757 .43066407V.3996582C.37998963 .3996582 .3880005 .39266969 .3880005 .34373475V.16601563C.3880005 .07910156 .33999635 .011245728 .2669983 .011245728 .18299866 .011245728 .1789856 .058135988 .1789856 .11009216V.4423828L.03199768 .43066407V.3996582C.10998535 .3996582 .10998535 .39666749 .10998535 .3078003V.15802002C.10998535 .080093387 .10998535-.0107421879 .2619934-.0107421879 .31799317-.0107421879 .3619995 .017242432 .3909912 .07910156V-.0107421879L.5349884 0Z"/>
<path id="font_5_35" d="M.5209961 .2163086C.5209961 .34335328 .4229889 .4423828 .30899049 .4423828 .23098755 .4423828 .18798828 .39537049 .17199707 .3773651V.69433596L.027999878 .68333438V.6523285C.09799194 .6523285 .10598755 .6453247 .10598755 .596344V.00024414063H.1309967L.16699219 .06227112C.18199158 .039260866 .22399903-.0107421879 .2979889-.0107421879 .4169922-.0107421879 .5209961 .08728027 .5209961 .2163086M.43798829 .21731568C.43798829 .18029785 .43598939 .120285037 .40699769 .07527161 .38598634 .044265748 .34799195 .011245728 .2939911 .011245728 .24899292 .011260986 .21299744 .03526306 .18899536 .072265628 .1749878 .09326172 .1749878 .09625244 .1749878 .11425781V.32034303C.1749878 .3393402 .1749878 .3403473 .18598938 .35635377 .22499085 .41236878 .27999879 .42037965 .3039856 .42037965 .34899903 .42037965 .3849945 .3943634 .40899659 .35635377 .43499757 .31533814 .43798829 .25831605 .43798829 .21730042V.21731568Z"/>
<path id="font_5_98" d="M.3600006 .12823487C.3600006 .18122864 .32998658 .21122742 .31799317 .22323609 .2849884 .25523377 .24598694 .26322938 .20399475 .27124024 .147995 .28224183 .08099365 .29522706 .08099365 .35324098 .08099365 .38822938 .10699463 .42922975 .19299317 .42922975 .30299378 .42922975 .30799867 .3392334 .30999757 .30822755 .31098939 .2992401 .32199098 .2992401 .32199098 .2992401 .33499146 .2992401 .33499146 .30422975 .33499146 .32322694V.4242401C.33499146 .4412384 .33499146 .4482422 .32398988 .4482422 .31900025 .4482422 .31698609 .4482422 .3039856 .43623353 .30099488 .43223573 .29100038 .42323304 .2869873 .42022706 .24899292 .4482422 .20799256 .4482422 .19299317 .4482422 .070999149 .4482422 .032989503 .38124085 .032989503 .3252411 .032989503 .29023744 .04899597 .26223756 .07598877 .24023438 .10798645 .2142334 .13598633 .2082367 .20799256 .19422913 .22999573 .19021607 .31199647 .17422486 .31199647 .10221863 .31199647 .051223756 .2769928 .011245728 .19898987 .011245728 .114990238 .011245728 .07899475 .068222049 .05999756 .1532135 .056991579 .16621399 .055999757 .17021179 .04598999 .17021179 .032989503 .17021179 .032989503 .16322327 .032989503 .1452179V.013214111C.032989503-.003753662 .032989503-.0107421879 .04399109-.0107421879 .04899597-.0107421879 .049987794-.009750366 .068984989 .009246826 .070999149 .011245728 .070999149 .013214111 .08898926 .032226564 .1329956-.009750366 .17799378-.0107421879 .19898987-.0107421879 .31399537-.0107421879 .3600006 .05621338 .3600006 .1282196V.12823487Z"/>
<path id="font_5_105" d="M.33198548 .12385559V.18066406H.30699159V.12585449C.30699159 .052108766 .2769928 .014251709 .23999024 .014251709 .17298889 .014251709 .17298889 .10491943 .17298889 .12187195V.3996582H.31599427V.43066407H.17298889V.6142578H.147995C.14698792 .5324249 .116989139 .42565919 .018997193 .42166139V.3996582H.10398865V.12408447C.10398865 .0012512207 .19699097-.0107421879 .23298645-.0107421879 .3039856-.0107421879 .33198548 .060180665 .33198548 .12408447V.12385559Z"/>
<path id="font_5_66" d="M.24699402 0V.0309906C.18099976 .0309906 .1769867 .035995485 .1769867 .075042728V.4423828L.036987306 .43066407V.3996582C.101989749 .3996582 .11099243 .3936615 .11099243 .3447113V.07595825C.11099243 .0309906 .099990848 .0309906 .032989503 .0309906V0L.14299011 .0029907227C.17799378 .0029907227 .21299744 .0009918213 .24699402 0M.19198609 .603775C.19198609 .6307678 .16899109 .6567688 .13899231 .6567688 .10499573 .6567688 .084991458 .6287689 .084991458 .603775 .084991458 .57676699 .10798645 .55078127 .13798523 .55078127 .17199707 .55078127 .19198609 .5787811 .19198609 .603775Z"/>
<path id="font_5_50" d="M.4149933 .11933899C.4149933 .12934876 .40699769 .13134766 .4019928 .13134766 .3929901 .13134766 .3909912 .12535095 .3889923 .11734009 .35398866 .014251709 .2639923 .014251709 .2539978 .014251709 .20399475 .014251709 .1639862 .044281007 .14099121 .08131409 .11099243 .12934876 .11099243 .19540406 .11099243 .23144531H.3899994C.4119873 .23144531 .4149933 .23144531 .4149933 .2524414 .4149933 .35131837 .36099244 .4482422 .23599243 .4482422 .11999512 .4482422 .027999878 .34532167 .027999878 .22042847 .027999878 .08631897 .1329956-.0107421879 .24798584-.0107421879 .36999513-.0107421879 .4149933 .10032654 .4149933 .11933899M.34899903 .2524414H.11199951C.117996219 .40126039 .20199585 .426239 .23599243 .426239 .33898927 .426239 .34899903 .2913971 .34899903 .2524414Z"/>
<path id="font_5_77" d="M.5349884 0V.0309906C.48298646 .0309906 .45799256 .0309906 .45700074 .061019899V.25221253C.45700074 .3383026 .45700074 .36932374 .42599488 .405365 .4119873 .42237855 .3789978 .4423828 .32099916 .4423828 .24798584 .4423828 .20098877 .39935304 .17298889 .33729554V.4423828L.03199768 .43066407V.3996582C.101989749 .3996582 .10998535 .39266969 .10998535 .34370423V.07595825C.10998535 .0309906 .09899902 .0309906 .03199768 .0309906V0L.14498902 .0029907227 .25698854 0V.0309906C.18998719 .0309906 .1789856 .0309906 .1789856 .07595825V.25978089C.1789856 .36431886 .25 .42037965 .31399537 .42037965 .3769989 .42037965 .3880005 .36631776 .3880005 .30926515V.076034549C.3880005 .0309906 .3769989 .0309906 .30999757 .0309906V0L.4229889 .0029907227 .5349884 0Z"/>
<path id="font_5_81" d="M.47099305 .21424866C.47099305 .34223939 .37098695 .4482422 .25 .4482422 .125 .4482422 .027999878 .3392334 .027999878 .21424866 .027999878 .085250858 .13198853-.0107421879 .24899292-.0107421879 .36999513-.0107421879 .47099305 .087249759 .47099305 .21424866M.3880005 .22224427C.3880005 .18624878 .3880005 .13224793 .3659973 .08824158 .34399415 .04324341 .2999878 .014251709 .25 .014251709 .20698548 .014251709 .16299439 .035247804 .13598633 .08125305 .11099243 .12524414 .11099243 .18624878 .11099243 .22224427 .11099243 .26124574 .11099243 .31523133 .1349945 .35923768 .1619873 .40522767 .20899964 .426239 .24899292 .426239 .29299928 .426239 .33599855 .40423585 .3619995 .36123658 .3880005 .3182373 .3880005 .26023866 .3880005 .22224427Z"/>
<path id="font_5_63" d="M.5349884 0V.0309906C.48298646 .0309906 .45799256 .0309906 .45700074 .061019899V.25221253C.45700074 .3383026 .45700074 .36932374 .42599488 .405365 .4119873 .42237855 .3789978 .4423828 .32099916 .4423828 .23699951 .4423828 .19299317 .38233949 .1769867 .34629823H.17599488V.69433596L.03199768 .6826172V.6516113C.101989749 .6516113 .10998535 .64463809 .10998535 .59580996V.076034549C.10998535 .0309906 .09899902 .0309906 .03199768 .0309906V0L.14498902 .0029907227 .25698854 0V.0309906C.18998719 .0309906 .1789856 .0309906 .1789856 .076034549V.2602234C.1789856 .36431886 .25 .42037965 .31399537 .42037965 .3769989 .42037965 .3880005 .36631776 .3880005 .30926515V.076034549C.3880005 .0309906 .3769989 .0309906 .30999757 .0309906V0L.4229889 .0029907227 .5349884 0Z"/>
<path id="font_5_43" d="M.4149933 .119140628C.4149933 .12911988 .40499879 .12911988 .4019928 .12911988 .3929901 .12911988 .3909912 .12512207 .3889923 .119140628 .3600006 .026229859 .29499818 .014251709 .2579956 .014251709 .20498657 .014251709 .116989139 .0572052 .116989139 .21801758 .116989139 .38093568 .19898987 .42323304 .2519989 .42323304 .26098634 .42323304 .32398988 .42222596 .35899354 .38594056 .31799317 .38293458 .31199647 .3529358 .31199647 .3399353 .31199647 .31393434 .32998658 .2939453 .35798646 .2939453 .38398744 .2939453 .4039917 .3109436 .4039917 .34094239 .4039917 .40911866 .32798768 .4482422 .25099183 .4482422 .12599182 .4482422 .033996583 .3399353 .033996583 .21601868 .033996583 .08816528 .1329956-.0107421879 .24899292-.0107421879 .3829956-.0107421879 .4149933 .10914612 .4149933 .119140628Z"/>
<path id="font_5_47" d="M.5269928 0V.0309906C.45700074 .0309906 .44898988 .038009645 .44898988 .0871582V.69433596L.30499269 .6826172V.6516113C.375 .6516113 .3829956 .64463809 .3829956 .59580996V.38035584C.35398866 .41636659 .31098939 .4423828 .25698854 .4423828 .13899231 .4423828 .033996583 .3443451 .033996583 .21531677 .033996583 .088272098 .13198853-.0107421879 .24598694-.0107421879 .30999757-.0107421879 .35499574 .023254395 .37998963 .055267335V-.0107421879L.5269928 0M.37998963 .117996219C.37998963 .099990848 .37998963 .09799194 .36898805 .08099365 .33898927 .033218385 .2939911 .011245728 .25099183 .011245728 .20599365 .011245728 .16999817 .037216188 .1459961 .075164798 .11999512 .1161499 .116989139 .17320252 .116989139 .21421814 .116989139 .25125123 .11898804 .31129457 .147995 .35632325 .16899109 .38734437 .20698548 .42037965 .26098634 .42037965 .29599 .42037965 .33799745 .405365 .36898805 .3603363 .37998963 .34332276 .37998963 .34132386 .37998963 .32330323V.117996219Z"/>
<path id="font_5_91" d="M.5269928-.1940918V-.16308594C.45999146-.16308594 .44898988-.16308594 .44898988-.117996219V.4423828H.4269867L.3889923 .35136415C.37599183 .379364 .33499146 .4423828 .25498963 .4423828 .13899231 .4423828 .033996583 .34535218 .033996583 .21531677 .033996583 .090270999 .1309967-.0107421879 .24699402-.0107421879 .31698609-.0107421879 .35798646 .03225708 .37998963 .061264039V-.117996219C.37998963-.16308594 .36898805-.16308594 .3019867-.16308594V-.1940918L.4139862-.19110108 .5269928-.1940918M.3829956 .1362915C.3829956 .104278568 .36499024 .07626343 .34298707 .052261354 .32998658 .038253786 .2979889 .011245728 .25099183 .011245728 .17799378 .011245728 .116989139 .10028076 .116989139 .21531677 .116989139 .3343506 .18699646 .41737367 .26098634 .41737367 .34098817 .41737367 .3829956 .33035279 .3829956 .2773285V.1362915Z"/>
<path id="font_5_28" d="M.48298646 .08912659V.14511109H.45799256V.08912659C.45799256 .03112793 .43299867 .025131226 .42199708 .025131226 .3889923 .025131226 .3849945 .070129398 .3849945 .07511902V.27508546C.3849945 .31707765 .3849945 .3560791 .34899903 .39312745 .30999757 .43223573 .2599945 .4482422 .21199036 .4482422 .12998963 .4482422 .06098938 .40115357 .06098938 .335083 .06098938 .30508424 .08099365 .28808595 .10699463 .28808595 .1349945 .28808595 .15299988 .30807496 .15299988 .33407594 .15299988 .3460846 .147995 .37908937 .101989749 .38008119 .1289978 .41519166 .17799378 .426239 .20999146 .426239 .25898744 .426239 .31599427 .38710023 .31599427 .29808045V.26107789C.2649994 .25808717 .19499207 .25508119 .13198853 .22509766 .056991579 .19110108 .03199768 .13911438 .03199768 .09512329 .03199768 .014251709 .1289978-.0107421879 .19198609-.0107421879 .2579956-.0107421879 .3039856 .029251099 .32299806 .07624817 .32699586 .036132814 .35398866-.005859375 .40098573-.005859375 .42199708-.005859375 .48298646 .008132935 .48298646 .08912659M.31599427 .14013672C.31599427 .04525757 .24398804 .011245728 .19898987 .011245728 .1499939 .011245728 .10899353 .04624939 .10899353 .09625244 .10899353 .15124512 .15098572 .23425293 .31599427 .24024964V.14013672Z"/>
<path id="font_5_88" d="M.19198609 .052993776C.19198609 .08198547 .16799927 .10598755 .13899231 .10598755 .10998535 .10598755 .085998538 .08198547 .085998538 .052993776 .085998538 .023986817 .10998535 0 .13899231 0 .16799927 0 .19198609 .023986817 .19198609 .052993776Z"/>
<path id="font_4_2" d="M.57699587 .3771515C.58200076 .3951416 .58200076 .3971405 .58200076 .40014649 .58200076 .4221344 .56599429 .44413758 .5349884 .44413758 .48298646 .44413758 .47099305 .3971405 .46398927 .3701477L.43798829 .26615907C.42599488 .2181549 .40699769 .14117432 .3959961 .10017395 .3909912 .07817078 .3600006 .05418396 .35699464 .05218506 .34599305 .045181276 .32199098 .028182984 .2889862 .028182984 .22999573 .028182984 .22898865 .07817078 .22898865 .10116577 .22898865 .16217041 .2599945 .24015808 .28799439 .31214906 .2979889 .33815003 .30099488 .3451538 .30099488 .3621521 .30099488 .4201355 .24299622 .45214845 .18798828 .45214845 .08198547 .45214845 .03199768 .31614686 .03199768 .29615785 .03199768 .28215028 .04699707 .28215028 .055999757 .28215028 .067993167 .28215028 .07499695 .28215028 .07899475 .29515077 .11199951 .4061432 .16699219 .4161377 .18199158 .4161377 .18899536 .4161377 .19898987 .4161377 .19898987 .3951416 .19898987 .3721466 .18798828 .34614564 .18199158 .33015443 .14299011 .23016358 .12199402 .173172 .12199402 .122177127 .12199402 .008178711 .22200012-.0078125 .2809906-.0078125 .30599977-.0078125 .33999635-.0038146973 .3769989 .02218628 .34899903-.10101318 .27398683-.16615296 .20498657-.16615296 .19198609-.16615296 .1639862-.16415406 .14399719-.15213013 .17599488-.13909912 .19198609-.11204529 .19198609-.0849762 .19198609-.04890442 .16299439-.038879396 .14299011-.038879396 .10598755-.038879396 .070999149-.07095337 .070999149-.11505127 .070999149-.16615296 .12399292-.20214844 .20498657-.20214844 .31999208-.20214844 .45199586-.12506104 .48298646-.0008239746L.57699587 .3771515Z"/>
<path id="font_2_4" d="M.1269989 .07699585 .23298645 .18003845C.3889923 .31811524 .44898988 .3721466 .44898988 .47216798 .44898988 .5860901 .35899354 .6660156 .23699951 .6660156 .12399292 .6660156 .049987794 .57411196 .049987794 .48516847 .049987794 .4291687 .099990848 .4291687 .102996829 .4291687 .11999512 .4291687 .15499878 .44117738 .15499878 .48217774 .15499878 .5081787 .13699341 .5341797 .101989749 .5341797 .09399414 .5341797 .09199524 .5341797 .08898926 .5331726 .11199951 .59806826 .1659851 .63500979 .22399903 .63500979 .31498719 .63500979 .35798646 .5541382 .35798646 .47216798 .35798646 .39215089 .30799867 .31311036 .25299073 .25108338L.06098938 .036987306C.049987794 .025985718 .049987794 .023986817 .049987794 0H.42099L.44898988 .17404175H.42399598C.4189911 .14402771 .4119873 .1000061 .4019928 .084991458 .394989 .07699585 .32899476 .07699585 .30699159 .07699585H.1269989Z"/>
<path id="font_1_1" d="M.33399964 .30233766C.33999635 .32835389 .36299134 .42037965 .43299867 .42037965 .43798829 .42037965 .46199037 .42037965 .48298646 .40734864 .45498658 .402359 .43499757 .37734986 .43499757 .35334779 .43499757 .33735658 .44599916 .31835938 .47299195 .31835938 .49499513 .31835938 .5269928 .3363495 .5269928 .37635804 .5269928 .42837525 .46798707 .4423828 .43399049 .4423828 .37599183 .4423828 .34098817 .38935853 .32899476 .36634828 .3039856 .43237306 .25 .4423828 .22099304 .4423828 .116989139 .4423828 .05999756 .3133545 .05999756 .28834535 .05999756 .27833558 .069992069 .27833558 .07199097 .27833558 .07998657 .27833558 .08299255 .28033448 .084991458 .28933717 .11898804 .39535523 .18499756 .42037965 .21899414 .42037965 .23799134 .42037965 .272995 .4113617 .272995 .35334779 .272995 .32235719 .2559967 .25532533 .21899414 .11528015 .20298767 .053268434 .16799927 .011245728 .12399292 .011245728 .117996219 .011245728 .09498596 .011245728 .07398987 .024276734 .09899902 .029266358 .12098694 .05027771 .12098694 .07827759 .12098694 .105270389 .09899902 .11328125 .083999637 .11328125 .053985597 .11328125 .0289917 .08728027 .0289917 .055267335 .0289917 .009246826 .07899475-.0107421879 .12298584-.0107421879 .18899536-.0107421879 .22499085 .059280397 .22799683 .0652771 .23999024 .028274537 .27598573-.0107421879 .33599855-.0107421879 .43899537-.0107421879 .49598695 .118270877 .49598695 .14328003 .49598695 .1532898 .4869995 .1532898 .48399354 .1532898 .47499085 .1532898 .47299195 .14929199 .47099305 .14228821 .43798829 .03527832 .36999513 .011245728 .33799745 .011245728 .29899598 .011245728 .2829895 .043273927 .2829895 .07727051 .2829895 .09927368 .2889862 .121276859 .2999878 .16529846L.33399964 .30233766Z"/>
<path id="font_2_1" d="M.40899659 .23046875H.6879883C.70199587 .23046875 .72099307 .23046875 .72099307 .25045777 .72099307 .27046205 .70199587 .27046205 .6879883 .27046205H.40899659V.5500183C.40899659 .56399539 .40899659 .5830078 .3889923 .5830078 .36898805 .5830078 .36898805 .56399539 .36898805 .5500183V.27046205H.08898926C.07499695 .27046205 .055999757 .27046205 .055999757 .25045777 .055999757 .23046875 .07499695 .23046875 .08898926 .23046875H.36898805V-.05000305C.36898805-.06401062 .36898805-.08300781 .3889923-.08300781 .40899659-.08300781 .40899659-.06401062 .40899659-.05000305V.23046875Z"/>
<path id="font_2_3" d="M.2939911 .64004519C.2939911 .66400149 .2939911 .6660156 .2709961 .6660156 .20899964 .60227969 .12098694 .60227969 .08898926 .60227969V.57128909C.10899353 .57128909 .16799927 .57128909 .21998596 .5972748V.07902527C.21998596 .042999269 .21699524 .0309906 .1269989 .0309906H.09498596V0C.12998963 .0029907227 .21699524 .0029907227 .25698854 .0029907227 .29699708 .0029907227 .38398744 .0029907227 .4189911 0V.0309906H.3869934C.29699708 .0309906 .2939911 .041992189 .2939911 .07902527V.64004519Z"/>
<path id="font_2_2" d="M.45999146 .31976319C.45999146 .39982606 .45498658 .47988893 .41999818 .5539398 .37399293 .65000918 .2919922 .6660156 .25 .6660156 .18998719 .6660156 .116989139 .64001467 .07598877 .54693606 .04399109 .47789 .038986207 .39982606 .038986207 .31976319 .038986207 .24472046 .042999269 .15464783 .083999637 .07859802 .1269989-.0024719239 .19999695-.022460938 .24899292-.022460938 .30299378-.022460938 .3789978-.0014648438 .4229889 .09359741 .45498658 .16265869 .45999146 .2407074 .45999146 .31976319M.24899292-.00047302247C.20999146-.00047302247 .15098572 .024551392 .1329956 .12062073 .12199402 .18066406 .12199402 .2727356 .12199402 .3317871 .12199402 .39582826 .12199402 .46188355 .12998963 .5159149 .14898682 .63500979 .22399903 .64401248 .24899292 .64401248 .28199769 .64401248 .34799195 .6259918 .36698915 .52693179 .3769989 .47088624 .3769989 .39482118 .3769989 .3317871 .3769989 .25672914 .3769989 .18867493 .3659973 .12461853 .35099793 .029556275 .2939911-.00047302247 .24899292-.00047302247Z"/>
<path id="font_5_59" d="M.4850006 .40411378C.4850006 .42111207 .47299195 .453125 .43399049 .453125 .4139862 .453125 .36999513 .44711305 .32798768 .40611268 .28599549 .43937684 .24398804 .4423828 .22200012 .4423828 .1289978 .4423828 .05999756 .37338258 .05999756 .29638673 .05999756 .25239564 .08198547 .21440125 .10699463 .19340515 .09399414 .17840576 .07598877 .14538574 .07598877 .11035156 .07598877 .07899475 .08898926 .04083252 .11999512 .020828248 .05999756 .003829956 .027999878-.039138795 .027999878-.07911682 .027999878-.15107727 .1269989-.20605469 .24899292-.20605469 .36698915-.20605469 .47099305-.15507508 .47099305-.07711792 .47099305-.042144777 .45700074 .008834839 .4059906 .036834718 .35299684 .064834598 .29499818 .064834598 .23399353 .064834598 .20899964 .064834598 .1659851 .064834598 .15899658 .065841678 .1269989 .069885257 .10598755 .101242069 .10598755 .13334656 .10598755 .13735962 .10598755 .16040039 .12298584 .18040467 .1619873 .15240479 .20298767 .14941406 .22200012 .14941406 .31498719 .14941406 .38398744 .21839905 .38398744 .2953949 .38398744 .3323822 .36799623 .36938478 .34298707 .39237977 .3789978 .42637635 .4149933 .43138124 .43299867 .43138124 .43299867 .43112184 .43998719 .43112184 .44299317 .43011476 .43199159 .42611695 .4269867 .41513063 .4269867 .40315248 .4269867 .38616944 .43998719 .37417604 .45599366 .37417604 .46598817 .37417604 .4850006 .3811798 .4850006 .4041443V.40411378M.30899049 .29626466C.30899049 .26930238 .30799867 .2373352 .29299928 .21235657 .2849884 .20037842 .2619934 .17240906 .22200012 .17240906 .1349945 .17240906 .1349945 .2722931 .1349945 .29527284 .1349945 .3222351 .13598633 .35420228 .15098572 .3791809 .15899658 .3913269 .18199158 .41937257 .22200012 .41937257 .30899049 .41937257 .30899049 .31922914 .30899049 .29618836V.29626466M.4189911-.07911682C.4189911-.13308716 .34799195-.18305969 .25-.18305969 .14898682-.18305969 .07998657-.13209534 .07998657-.07911682 .07998657-.03314209 .117996219 .003829956 .1619873 .0068359377H.22099304C.30699159 .0068359377 .4189911 .0068359377 .4189911-.07911682Z"/>
</defs>
<use data-text="y" xlink:href="#font_1_2" transform="matrix(9.962899,0,0,-9.9626,91.48539,8.341001)"/>
<use data-text="=" xlink:href="#font_2_5" transform="matrix(9.962899,0,0,-9.9626,99.49563,8.341001)"/>
<use data-text="6" xlink:href="#font_3_4" transform="matrix(9.962899,0,0,-9.9626,110.011959,8.341001)" fill="#ec008c"/>
<use data-text="x" xlink:href="#font_4_1" transform="matrix(9.962899,0,0,-9.9626,115.74012,8.341001)" fill="#ec008c"/>
<use data-text="+" xlink:href="#font_3_1" transform="matrix(9.962899,0,0,-9.9626,124.852397,8.341001)" fill="#ec008c"/>
<use data-text="1" xlink:href="#font_3_3" transform="matrix(9.962899,0,0,-9.9626,136.29978,8.341001)" fill="#ec008c"/>
<use data-text="0" xlink:href="#font_3_2" transform="matrix(9.962899,0,0,-9.9626,142.02845,8.341001)" fill="#ec008c"/>
<use data-text="0" xlink:href="#font_3_2" transform="matrix(9.962899,0,0,-9.9626,147.75711,8.341001)" fill="#ec008c"/>
<use data-text="0" xlink:href="#font_3_2" transform="matrix(9.962899,0,0,-9.9626,153.48578,8.341001)" fill="#ec008c"/>
<path transform="matrix(1.00003,0,0,-1,87.96529,6.099)" stroke-width=".3985" stroke-linecap="butt" stroke-miterlimit="10" stroke-linejoin="miter" fill="none" stroke="#0000ff" d="M83.62299-4.25183C82.87581-5.74626 81.1323-6.74252 78.6416-6.74252H59.54886C57.05817-6.74252 55.31465-7.73878 54.56747-9.23322 53.8203-7.73878 52.07678-6.74252 49.58609-6.74252H30.49333C28.00264-6.74252 26.25912-5.74626 25.51195-4.25183"/>
<use data-text="S" xlink:href="#font_5_97" transform="matrix(8.966609,0,0,-8.966339,187.51508,19.8401)" fill="#0000ff"/>
<use data-text="u" xlink:href="#font_5_109" transform="matrix(8.966609,0,0,-8.966339,192.5005,19.8401)" fill="#0000ff"/>
<use data-text="b" xlink:href="#font_5_35" transform="matrix(8.966609,0,0,-8.966339,197.48593,19.8401)" fill="#0000ff"/>
<use data-text="s" xlink:href="#font_5_98" transform="matrix(8.966609,0,0,-8.966339,202.47138,19.8401)" fill="#0000ff"/>
<use data-text="t" xlink:href="#font_5_105" transform="matrix(8.966609,0,0,-8.966339,206.00421,19.8401)" fill="#0000ff"/>
<use data-text="i" xlink:href="#font_5_66" transform="matrix(8.966609,0,0,-8.966339,209.49224,19.8401)" fill="#0000ff"/>
<use data-text="t" xlink:href="#font_5_105" transform="matrix(8.966609,0,0,-8.966339,211.98496,19.8401)" fill="#0000ff"/>
<use data-text="u" xlink:href="#font_5_109" transform="matrix(8.966609,0,0,-8.966339,215.47296,19.8401)" fill="#0000ff"/>
<use data-text="t" xlink:href="#font_5_105" transform="matrix(8.966609,0,0,-8.966339,220.45839,19.8401)" fill="#0000ff"/>
<use data-text="e" xlink:href="#font_5_50" transform="matrix(8.966609,0,0,-8.966339,223.94641,19.8401)" fill="#0000ff"/>
<use data-text="i" xlink:href="#font_5_66" transform="matrix(8.966609,0,0,-8.966339,230.91349,19.8401)" fill="#0000ff"/>
<use data-text="n" xlink:href="#font_5_77" transform="matrix(8.966609,0,0,-8.966339,233.4062,19.8401)" fill="#0000ff"/>
<use data-text="t" xlink:href="#font_5_105" transform="matrix(8.966609,0,0,-8.966339,238.14952,19.8401)" fill="#0000ff"/>
<use data-text="o" xlink:href="#font_5_81" transform="matrix(8.966609,0,0,-8.966339,241.63755,19.8401)" fill="#0000ff"/>
<use data-text="t" xlink:href="#font_5_105" transform="matrix(8.966609,0,0,-8.966339,249.09777,19.8401)" fill="#0000ff"/>
<use data-text="h" xlink:href="#font_5_63" transform="matrix(8.966609,0,0,-8.966339,252.58577,19.8401)" fill="#0000ff"/>
<use data-text="e" xlink:href="#font_5_50" transform="matrix(8.966609,0,0,-8.966339,257.5712,19.8401)" fill="#0000ff"/>
<use data-text="s" xlink:href="#font_5_98" transform="matrix(8.966609,0,0,-8.966339,264.53828,19.8401)" fill="#0000ff"/>
<use data-text="e" xlink:href="#font_5_50" transform="matrix(8.966609,0,0,-8.966339,268.0711,19.8401)" fill="#0000ff"/>
<use data-text="c" xlink:href="#font_5_43" transform="matrix(8.966609,0,0,-8.966339,272.05229,19.8401)" fill="#0000ff"/>
<use data-text="o" xlink:href="#font_5_81" transform="matrix(8.966609,0,0,-8.966339,276.03346,19.8401)" fill="#0000ff"/>
<use data-text="n" xlink:href="#font_5_77" transform="matrix(8.966609,0,0,-8.966339,280.51676,19.8401)" fill="#0000ff"/>
<use data-text="d" xlink:href="#font_5_47" transform="matrix(8.966609,0,0,-8.966339,285.5022,19.8401)" fill="#0000ff"/>
<use data-text="e" xlink:href="#font_5_50" transform="matrix(8.966609,0,0,-8.966339,293.4735,19.8401)" fill="#0000ff"/>
<use data-text="q" xlink:href="#font_5_91" transform="matrix(8.966609,0,0,-8.966339,297.4547,19.8401)" fill="#0000ff"/>
<use data-text="u" xlink:href="#font_5_109" transform="matrix(8.966609,0,0,-8.966339,302.1891,19.8401)" fill="#0000ff"/>
<use data-text="a" xlink:href="#font_5_28" transform="matrix(8.966609,0,0,-8.966339,307.1745,19.8401)" fill="#0000ff"/>
<use data-text="t" xlink:href="#font_5_105" transform="matrix(8.966609,0,0,-8.966339,311.65779,19.8401)" fill="#0000ff"/>
<use data-text="i" xlink:href="#font_5_66" transform="matrix(8.966609,0,0,-8.966339,315.1458,19.8401)" fill="#0000ff"/>
<use data-text="o" xlink:href="#font_5_81" transform="matrix(8.966609,0,0,-8.966339,317.63856,19.8401)" fill="#0000ff"/>
<use data-text="n" xlink:href="#font_5_77" transform="matrix(8.966609,0,0,-8.966339,322.12184,19.8401)" fill="#0000ff"/>
<use data-text="." xlink:href="#font_5_88" transform="matrix(8.966609,0,0,-8.966339,327.1073,19.8401)" fill="#0000ff"/>
<use data-text="y" xlink:href="#font_4_2" transform="matrix(9.962899,0,0,-9.9626,90.06735,36.686998)" fill="#ec008c"/>
<use data-text="=" xlink:href="#font_2_5" transform="matrix(9.962899,0,0,-9.9626,99.084629,36.686998)"/>
<use data-text="2" xlink:href="#font_2_4" transform="matrix(9.962899,0,0,-9.9626,109.585529,36.686998)"/>
<use data-text="x" xlink:href="#font_1_1" transform="matrix(9.962899,0,0,-9.9626,114.5831,36.686998)"/>
<use data-text="+" xlink:href="#font_2_1" transform="matrix(9.962899,0,0,-9.9626,122.49133,36.686998)"/>
<use data-text="1" xlink:href="#font_2_3" transform="matrix(9.962899,0,0,-9.9626,132.44428,36.686998)"/>
<use data-text="2" xlink:href="#font_2_4" transform="matrix(9.962899,0,0,-9.9626,137.42572,36.686998)"/>
<use data-text="0" xlink:href="#font_2_2" transform="matrix(9.962899,0,0,-9.9626,142.40715,36.686998)"/>
<use data-text="0" xlink:href="#font_2_2" transform="matrix(9.962899,0,0,-9.9626,147.3886,36.686998)"/>
<path transform="matrix(1.00003,0,0,-1,87.96529,6.099)" stroke-width=".3985" stroke-linecap="butt" stroke-miterlimit="10" stroke-linejoin="miter" fill="none" stroke="#0000ff" d="M53.85875-11.33855C53.85875-30.4693 6.51964-4.9642 6.51964-23.0987"/>
<path transform="matrix(0,1,1.00003,0,94.48512,29.1977)" d="M.797 0C-.19925 .19925-1.19551 .59775-2.39102 1.29512-1.19551 .3985-1.19551-.3985-2.39102-1.29512-1.19551-.59775-.19925-.19925 .797 0Z" fill="#0000ff"/>
<path transform="matrix(0,1,1.00003,0,94.48512,29.1977)" stroke-width=".3985" stroke-linecap="butt" stroke-linejoin="round" fill="none" stroke="#0000ff" d="M.797 0C-.19925 .19925-1.19551 .59775-2.39102 1.29512-1.19551 .3985-1.19551-.3985-2.39102-1.29512-1.19551-.59775-.19925-.19925 .797 0Z"/>
<use data-text="6" xlink:href="#font_3_4" transform="matrix(9.962899,0,0,-9.9626,37.62477,68.173999)" fill="#ec008c"/>
<use data-text="x" xlink:href="#font_4_1" transform="matrix(9.962899,0,0,-9.9626,43.35396,68.173999)" fill="#ec008c"/>
<use data-text="+" xlink:href="#font_3_1" transform="matrix(9.962899,0,0,-9.9626,52.466234,68.173999)" fill="#ec008c"/>
<use data-text="1" xlink:href="#font_3_3" transform="matrix(9.962899,0,0,-9.9626,63.913606,68.173999)" fill="#ec008c"/>
<use data-text="0" xlink:href="#font_3_2" transform="matrix(9.962899,0,0,-9.9626,69.64227,68.173999)" fill="#ec008c"/>
<use data-text="0" xlink:href="#font_3_2" transform="matrix(9.962899,0,0,-9.9626,75.37096,68.173999)" fill="#ec008c"/>
<use data-text="0" xlink:href="#font_3_2" transform="matrix(9.962899,0,0,-9.9626,81.099628,68.173999)" fill="#ec008c"/>
<use data-text="=" xlink:href="#font_2_5" transform="matrix(9.962899,0,0,-9.9626,89.60533,68.173999)"/>
<use data-text="2" xlink:href="#font_2_4" transform="matrix(9.962899,0,0,-9.9626,100.10622,68.173999)"/>
<use data-text="x" xlink:href="#font_1_1" transform="matrix(9.962899,0,0,-9.9626,105.10278,68.173999)"/>
<use data-text="+" xlink:href="#font_2_1" transform="matrix(9.962899,0,0,-9.9626,113.01103,68.173999)"/>
<use data-text="1" xlink:href="#font_2_3" transform="matrix(9.962899,0,0,-9.9626,122.963977,68.173999)"/>
<use data-text="2" xlink:href="#font_2_4" transform="matrix(9.962899,0,0,-9.9626,127.94542,68.173999)"/>
<use data-text="0" xlink:href="#font_2_2" transform="matrix(9.962899,0,0,-9.9626,132.92687,68.173999)"/>
<use data-text="0" xlink:href="#font_2_2" transform="matrix(9.962899,0,0,-9.9626,137.90831,68.173999)"/>
<path transform="matrix(1.00003,0,0,-1,87.96529,6.099)" stroke-width=".3985" stroke-linecap="butt" stroke-miterlimit="10" stroke-linejoin="miter" fill="none" stroke="#0000ff" d="M-49.6069-53.85919C-48.85973-52.36476-47.11621-51.3685-44.62552-51.3685H-26.24149C-23.7508-51.3685-22.00728-50.37224-21.2601-48.8778-20.51292-50.37224-18.76941-51.3685-16.27872-51.3685H2.10532C4.59601-51.3685 6.33952-52.36476 7.0867-53.85919"/>
<path transform="matrix(1.00003,0,0,-1,87.96529,6.099)" stroke-width=".3985" stroke-linecap="butt" stroke-miterlimit="10" stroke-linejoin="miter" fill="none" stroke="#0000ff" d="M4.8189-34.29982C4.8189-45.09297-19.84267-35.97935-19.84267-45.77623"/>
<path transform="matrix(0,1,1.00003,0,68.12202,51.87523)" d="M.797 0C-.19925 .19925-1.19551 .59775-2.39102 1.29512-1.19551 .3985-1.19551-.3985-2.39102-1.29512-1.19551-.59775-.19925-.19925 .797 0Z" fill="#0000ff"/>
<path transform="matrix(0,1,1.00003,0,68.12202,51.87523)" stroke-width=".3985" stroke-linecap="butt" stroke-linejoin="round" fill="none" stroke="#0000ff" d="M.797 0C-.19925 .19925-1.19551 .59775-2.39102 1.29512-1.19551 .3985-1.19551-.3985-2.39102-1.29512-1.19551-.59775-.19925-.19925 .797 0Z"/>
<use data-text="t" xlink:href="#font_5_105" transform="matrix(9.962899,0,0,-9.9626,1.5336914,44.987)"/>
<use data-text="o" xlink:href="#font_5_81" transform="matrix(9.962899,0,0,-9.9626,5.4092714,44.987)"/>
<use data-text="g" xlink:href="#font_5_59" transform="matrix(9.962899,0,0,-9.9626,13.708359,44.987)"/>
<use data-text="e" xlink:href="#font_5_50" transform="matrix(9.962899,0,0,-9.9626,18.689805,44.987)"/>
<use data-text="t" xlink:href="#font_5_105" transform="matrix(9.962899,0,0,-9.9626,23.113343,44.987)"/>
</svg>
