<svg xmlns="http://www.w3.org/2000/svg" xmlns:xlink="http://www.w3.org/1999/xlink" version="1.1" width="177" height="163" viewBox="0 0 177 163">
<defs>
<path id="font_1_1" d="M.33399964 .30233766C.33999635 .32835389 .36299134 .42037965 .43299867 .42037965 .43798829 .42037965 .46199037 .42037965 .48298646 .40734864 .45498658 .402359 .43499757 .37734986 .43499757 .35334779 .43499757 .33735658 .44599916 .31835938 .47299195 .31835938 .49499513 .31835938 .5269928 .3363495 .5269928 .37635804 .5269928 .42837525 .46798707 .4423828 .43399049 .4423828 .37599183 .4423828 .34098817 .38935853 .32899476 .36634828 .3039856 .43237306 .25 .4423828 .22099304 .4423828 .116989139 .4423828 .05999756 .3133545 .05999756 .28834535 .05999756 .27833558 .069992069 .27833558 .07199097 .27833558 .07998657 .27833558 .08299255 .28033448 .084991458 .28933717 .11898804 .39535523 .18499756 .42037965 .21899414 .42037965 .23799134 .42037965 .272995 .4113617 .272995 .35334779 .272995 .32235719 .2559967 .25532533 .21899414 .11528015 .20298767 .053268434 .16799927 .011245728 .12399292 .011245728 .117996219 .011245728 .09498596 .011245728 .07398987 .024276734 .09899902 .029266358 .12098694 .05027771 .12098694 .07827759 .12098694 .105270389 .09899902 .11328125 .083999637 .11328125 .053985597 .11328125 .0289917 .08728027 .0289917 .055267335 .0289917 .009246826 .07899475-.0107421879 .12298584-.0107421879 .18899536-.0107421879 .22499085 .059280397 .22799683 .0652771 .23999024 .028274537 .27598573-.0107421879 .33599855-.0107421879 .43899537-.0107421879 .49598695 .118270877 .49598695 .14328003 .49598695 .1532898 .4869995 .1532898 .48399354 .1532898 .47499085 .1532898 .47299195 .14929199 .47099305 .14228821 .43798829 .03527832 .36999513 .011245728 .33799745 .011245728 .29899598 .011245728 .2829895 .043273927 .2829895 .07727051 .2829895 .09927368 .2889862 .121276859 .2999878 .16529846L.33399964 .30233766Z"/>
<path id="font_1_2" d="M.48599244 .38136292C.48999024 .39537049 .48999024 .39736939 .48999024 .40437318 .48999024 .42237855 .47599793 .43138124 .46099855 .43138124 .45098878 .43138124 .43499757 .42536927 .42599488 .41036988 .42399598 .405365 .41600038 .37435914 .4119873 .35635377 .40499879 .33035279 .397995 .30334474 .3919983 .27633668L.34700013 .09628296C.34298707 .08126831 .2999878 .011245728 .23399353 .011245728 .18299866 .011245728 .17199707 .055267335 .17199707 .0922699 .17199707 .1382904 .18899536 .20030213 .22299195 .28833009 .23899842 .3293457 .24299622 .3403473 .24299622 .36035157 .24299622 .405365 .21099854 .4423828 .16099549 .4423828 .06599426 .4423828 .0289917 .29733277 .0289917 .28833009 .0289917 .27833558 .038986207 .27833558 .040985109 .27833558 .050994874 .27833558 .051986696 .28033448 .056991579 .29634095 .083999637 .3903656 .12399292 .42037965 .1579895 .42037965 .1659851 .42037965 .18299866 .42037965 .18299866 .3883667 .18299866 .36335755 .17298889 .3373413 .1659851 .31834413 .12599182 .21231079 .10798645 .1552887 .10798645 .10827637 .10798645 .019256592 .17098999-.0107421879 .22999573-.0107421879 .2689972-.0107421879 .30299378 .0062561037 .33099366 .03425598 .31799317-.017745972 .30599977-.06674194 .2659912-.11973572 .23999024-.15385437 .20199585-.18309021 .1559906-.18309021 .14199829-.18309021 .09700012-.18005371 .07998657-.14074707 .09599304-.14074707 .10899353-.14074707 .12298584-.1287384 .1329956-.11973572 .14299011-.10673523 .14299011-.08773804 .14299011-.056747438 .115997318-.052734376 .10598755-.052734376 .08299255-.052734376 .049987794-.068740848 .049987794-.11773682 .049987794-.16796875 .09399414-.20507813 .1559906-.20507813 .25898744-.20507813 .3619995-.11373901 .3899994-.00074768069L.48599244 .38136292Z"/>
<path id="font_2_1" d="M.6589966 .23046875C.6759949 .23046875 .69400027 .23046875 .69400027 .25045777 .69400027 .27046205 .6759949 .27046205 .6589966 .27046205H.117996219C.100997928 .27046205 .08299255 .27046205 .08299255 .25045777 .08299255 .23046875 .100997928 .23046875 .117996219 .23046875H.6589966Z"/>
<path id="font_3_4" d="M.2939911 .16503906V.07800293C.2939911 .041992189 .2919922 .0309906 .21798706 .0309906H.19699097V0C.23799134 .0029907227 .2899933 .0029907227 .33198548 .0029907227 .37399293 .0029907227 .4269867 .0029907227 .46798707 0V.0309906H.44699098C.37298585 .0309906 .37098695 .041992189 .37098695 .07800293V.16503906H.47099305V.19602967H.37098695V.65075686C.37098695 .67074587 .37098695 .6767578 .35499574 .6767578 .34599305 .6767578 .34298707 .6767578 .33499146 .66474917L.027999878 .19602967V.16503906H.2939911M.2999878 .19602967H.055999757L.2999878 .5688019V.19602967Z"/>
<path id="font_3_3" d="M.1269989 .07699585 .23298645 .18003845C.3889923 .31811524 .44898988 .3721466 .44898988 .47216798 .44898988 .5860901 .35899354 .6660156 .23699951 .6660156 .12399292 .6660156 .049987794 .57411196 .049987794 .48516847 .049987794 .4291687 .099990848 .4291687 .102996829 .4291687 .11999512 .4291687 .15499878 .44117738 .15499878 .48217774 .15499878 .5081787 .13699341 .5341797 .101989749 .5341797 .09399414 .5341797 .09199524 .5341797 .08898926 .5331726 .11199951 .59806826 .1659851 .63500979 .22399903 .63500979 .31498719 .63500979 .35798646 .5541382 .35798646 .47216798 .35798646 .39215089 .30799867 .31311036 .25299073 .25108338L.06098938 .036987306C.049987794 .025985718 .049987794 .023986817 .049987794 0H.42099L.44898988 .17404175H.42399598C.4189911 .14402771 .4119873 .1000061 .4019928 .084991458 .394989 .07699585 .32899476 .07699585 .30699159 .07699585H.1269989Z"/>
<path id="font_3_2" d="M.2939911 .64004519C.2939911 .66400149 .2939911 .6660156 .2709961 .6660156 .20899964 .60227969 .12098694 .60227969 .08898926 .60227969V.57128909C.10899353 .57128909 .16799927 .57128909 .21998596 .5972748V.07902527C.21998596 .042999269 .21699524 .0309906 .1269989 .0309906H.09498596V0C.12998963 .0029907227 .21699524 .0029907227 .25698854 .0029907227 .29699708 .0029907227 .38398744 .0029907227 .4189911 0V.0309906H.3869934C.29699708 .0309906 .2939911 .041992189 .2939911 .07902527V.64004519Z"/>
<path id="font_3_1" d="M.45999146 .31976319C.45999146 .39982606 .45498658 .47988893 .41999818 .5539398 .37399293 .65000918 .2919922 .6660156 .25 .6660156 .18998719 .6660156 .116989139 .64001467 .07598877 .54693606 .04399109 .47789 .038986207 .39982606 .038986207 .31976319 .038986207 .24472046 .042999269 .15464783 .083999637 .07859802 .1269989-.0024719239 .19999695-.022460938 .24899292-.022460938 .30299378-.022460938 .3789978-.0014648438 .4229889 .09359741 .45498658 .16265869 .45999146 .2407074 .45999146 .31976319M.24899292-.00047302247C.20999146-.00047302247 .15098572 .024551392 .1329956 .12062073 .12199402 .18066406 .12199402 .2727356 .12199402 .3317871 .12199402 .39582826 .12199402 .46188355 .12998963 .5159149 .14898682 .63500979 .22399903 .64401248 .24899292 .64401248 .28199769 .64401248 .34799195 .6259918 .36698915 .52693179 .3769989 .47088624 .3769989 .39482118 .3769989 .3317871 .3769989 .25672914 .3769989 .18867493 .3659973 .12461853 .35099793 .029556275 .2939911-.00047302247 .24899292-.00047302247Z"/>
<path id="font_3_6" d="M.68699648 .32714845C.70199587 .32714845 .72099307 .32714845 .72099307 .34713746 .72099307 .36714173 .70199587 .36714173 .6879883 .36714173H.08898926C.07499695 .36714173 .055999757 .36714173 .055999757 .34713746 .055999757 .32714845 .07499695 .32714845 .08999634 .32714845H.68699648M.6879883 .13284302C.70199587 .13284302 .72099307 .13284302 .72099307 .15284729 .72099307 .17285156 .70199587 .17285156 .68699648 .17285156H.08999634C.07499695 .17285156 .055999757 .17285156 .055999757 .15284729 .055999757 .13284302 .07499695 .13284302 .08898926 .13284302H.6879883Z"/>
<path id="font_4_1" d="M.5049896 .18203736H.47099305C.46798707 .16001892 .45799256 .100997928 .44499208 .09098816 .43699647 .084991458 .3600006 .084991458 .34599305 .084991458H.1619873C.2669983 .17803955 .3019867 .20603943 .3619995 .25306703 .43598939 .312088 .5049896 .374115 .5049896 .46914674 .5049896 .5900879 .39898683 .6640625 .2709961 .6640625 .14698792 .6640625 .06298828 .57710269 .06298828 .4851532 .06298828 .43414308 .10598755 .42915345 .115997318 .42915345 .13999939 .42915345 .16899109 .44615174 .16899109 .48214723 .16899109 .5001526 .1619873 .53515627 .10998535 .53515627 .14099121 .6060791 .20899964 .62805178 .2559967 .62805178 .35598756 .62805178 .4079895 .5501404 .4079895 .46914674 .4079895 .38212586 .34599305 .3130951 .31399537 .27708436L.07299805 .038986207C.06298828 .02999878 .06298828 .027999878 .06298828 0H.47499085L.5049896 .18203736Z"/>
<path id="font_3_5" d="M.13198853 .327713V.35173036C.13198853 .6047821 .2559967 .64100649 .30699159 .64100649 .33099366 .64100649 .37298585 .634964 .394989 .6007538 .37998963 .6007538 .33999635 .6007538 .33999635 .5557556 .33999635 .524765 .3639984 .5097656 .38598634 .5097656 .4019928 .5097656 .43199159 .51875308 .43199159 .5577545 .43199159 .6178589 .3880005 .6660156 .30499269 .6660156 .1769867 .6660156 .041992189 .5367584 .041992189 .31570436 .041992189 .048553468 .1579895-.022460938 .25099183-.022460938 .3619995-.022460938 .45700074 .07156372 .45700074 .2036438 .45700074 .33070375 .36799623 .4267578 .25698854 .4267578 .18899536 .4267578 .1519928 .37573243 .13198853 .327713M.25099183 .0055389406C.18798828 .0055389406 .1579895 .06556702 .1519928 .080566409 .13398743 .127594 .13398743 .2076416 .13398743 .22564698 .13398743 .30369569 .1659851 .40374757 .2559967 .40374757 .27198792 .40374757 .31799317 .40374757 .34899903 .34172059 .36698915 .30470277 .36698915 .2536621 .36698915 .20463562 .36698915 .15661621 .36698915 .10658264 .34999085 .0705719 .31999208 .010528564 .27398683 .0055389406 .25099183 .0055389406Z"/>
</defs>
<path transform="matrix(1.00005,0,0,-1.00002,72.36371,146.76868)" stroke-width=".3985" stroke-linecap="butt" stroke-miterlimit="10" stroke-linejoin="miter" fill="none" stroke="#00aeef" d="M-70.867-14.17339H70.867M-70.867 0H70.867M-70.867 14.17339H70.867M-70.867 28.3468H70.867M-70.867 42.5202H70.867M-70.867 56.69362H70.867M-70.867 70.867H70.867M-70.867 85.04042H70.867M-70.867 99.21382H70.867M-70.867 113.38724H70.867M-70.867 127.55814H70.867M-70.867-14.17339V127.56062M-56.69362-14.17339V127.56062M-42.5202-14.17339V127.56062M-28.3468-14.17339V127.56062M-14.17339-14.17339V127.56062M0-14.17339V127.56062M14.17339-14.17339V127.56062M28.3468-14.17339V127.56062M42.5202-14.17339V127.56062M56.69362-14.17339V127.56062M70.86205-14.17339V127.56062M70.867 127.56062"/>
<path transform="matrix(1.00005,0,0,-1.00002,72.36371,146.76868)" stroke-width=".79701" stroke-linecap="butt" stroke-miterlimit="10" stroke-linejoin="miter" fill="none" stroke="#000000" d="M-70.867 0H83.6058"/>
<path transform="matrix(1.00005,0,0,-1.00002,155.97368,146.76868)" d="M1.0361 0C-.25902 .25902-1.55415 .77707-3.1083 1.68365-1.55415 .51805-1.55415-.51805-3.1083-1.68365-1.55415-.77707-.25902-.25902 1.0361 0Z"/>
<path transform="matrix(1.00005,0,0,-1.00002,155.97368,146.76868)" stroke-width=".79701" stroke-linecap="butt" stroke-linejoin="round" fill="none" stroke="#000000" d="M1.0361 0C-.25902 .25902-1.55415 .77707-3.1083 1.68365-1.55415 .51805-1.55415-.51805-3.1083-1.68365-1.55415-.77707-.25902-.25902 1.0361 0Z"/>
<use data-text="x" xlink:href="#font_1_1" transform="matrix(9.963098,0,0,-9.962799,161.12714,148.91373)"/>
<path transform="matrix(1.00005,0,0,-1.00002,72.36371,146.76868)" stroke-width=".79701" stroke-linecap="butt" stroke-miterlimit="10" stroke-linejoin="miter" fill="none" stroke="#000000" d="M0-14.17339V140.29944"/>
<path transform="matrix(0,-1.00002,-1.00005,-0,72.36371,6.4664309)" d="M1.0361 0C-.25902 .25902-1.55415 .77707-3.1083 1.68365-1.55415 .51805-1.55415-.51805-3.1083-1.68365-1.55415-.77707-.25902-.25902 1.0361 0Z"/>
<path transform="matrix(0,-1.00002,-1.00005,-0,72.36371,6.4664309)" stroke-width=".79701" stroke-linecap="butt" stroke-linejoin="round" fill="none" stroke="#000000" d="M1.0361 0C-.25902 .25902-1.55415 .77707-3.1083 1.68365-1.55415 .51805-1.55415-.51805-3.1083-1.68365-1.55415-.77707-.25902-.25902 1.0361 0Z"/>
<use data-text="y" xlink:href="#font_1_2" transform="matrix(9.963098,0,0,-9.962799,65.39436,6.2078707)"/>
<path transform="matrix(1.00005,0,0,-1.00002,72.36371,146.76868)" stroke-width=".79701" stroke-linecap="butt" stroke-miterlimit="10" stroke-linejoin="miter" fill="none" stroke="#000000" d="M-56.69362 1.06294V-1.06305"/>
<path transform="matrix(1.00005,0,0,-1.00002,72.36371,146.76868)" d="M-64.05501-12.69734H-49.33223V-3.4541102H-64.05501Z" fill="#ffffff"/>
<use data-text="&#x2212;" xlink:href="#font_2_1" transform="matrix(9.963098,0,0,-9.962799,9.301559,157.6399)"/>
<use data-text="4" xlink:href="#font_3_4" transform="matrix(9.963098,0,0,-9.962799,17.05095,157.6399)"/>
<path transform="matrix(1.00005,0,0,-1.00002,72.36371,146.76868)" stroke-width=".79701" stroke-linecap="butt" stroke-miterlimit="10" stroke-linejoin="miter" fill="none" stroke="#000000" d="M-28.3468 1.06294V-1.06305"/>
<path transform="matrix(1.00005,0,0,-1.00002,72.36371,146.76868)" d="M-35.70819-12.69734H-20.98541V-3.4541102H-35.70819Z" fill="#ffffff"/>
<use data-text="&#x2212;" xlink:href="#font_2_1" transform="matrix(9.963098,0,0,-9.962799,37.64997,157.6399)"/>
<use data-text="2" xlink:href="#font_3_3" transform="matrix(9.963098,0,0,-9.962799,45.39936,157.6399)"/>
<path transform="matrix(1.00005,0,0,-1.00002,72.36371,146.76868)" stroke-width=".79701" stroke-linecap="butt" stroke-miterlimit="10" stroke-linejoin="miter" fill="none" stroke="#000000" d="M28.3468 1.06294V-1.06305"/>
<path transform="matrix(1.00005,0,0,-1.00002,72.36371,146.76868)" d="M24.85983-11.8671H31.83377V-3.4541198H24.85983Z" fill="#ffffff"/>
<use data-text="2" xlink:href="#font_3_3" transform="matrix(9.963098,0,0,-9.962799,98.221,157.6399)"/>
<path transform="matrix(1.00005,0,0,-1.00002,72.36371,146.76868)" stroke-width=".79701" stroke-linecap="butt" stroke-miterlimit="10" stroke-linejoin="miter" fill="none" stroke="#000000" d="M56.69362 1.06294V-1.06305"/>
<path transform="matrix(1.00005,0,0,-1.00002,72.36371,146.76868)" d="M53.20665-11.8671H60.180589V-3.4541198H53.20665Z" fill="#ffffff"/>
<use data-text="4" xlink:href="#font_3_4" transform="matrix(9.963098,0,0,-9.962799,126.56941,157.6399)"/>
<path transform="matrix(1.00005,0,0,-1.00002,72.36371,146.76868)" stroke-width=".79701" stroke-linecap="butt" stroke-miterlimit="10" stroke-linejoin="miter" fill="none" stroke="#000000" d="M2.12592 70.867H-2.12613"/>
<path transform="matrix(1.00005,0,0,-1.00002,72.36371,146.76868)" d="M-16.47253 66.66052H-4.51719V75.0735H-16.47253Z" fill="#ffffff"/>
<use data-text="1" xlink:href="#font_3_2" transform="matrix(9.963098,0,0,-9.962799,56.886934,79.11032)"/>
<use data-text="0" xlink:href="#font_3_1" transform="matrix(9.963098,0,0,-9.962799,61.868486,79.11032)"/>
<path transform="matrix(1.00005,0,0,-1.00002,72.36371,146.76868)" stroke-width="1.19553" stroke-linecap="butt" stroke-miterlimit="10" stroke-linejoin="miter" fill="none" stroke="#ff0000" d="M-59.69913 125.73885C-58.77518 121.85672-58.77518 121.85672-58.25377 119.71375-57.73238 117.57076-56.89622 114.18954-56.37483 112.11568-55.85342 110.0418-55.01727 106.7714-54.49588 104.76663-53.97449 102.76187-53.13832 99.60237-52.61693 97.66675-52.09554 95.73111-51.25938 92.68248-50.73799 90.816-50.2166 88.9495-49.38045 86.01164-48.85904 84.21426-48.33765 82.41689-47.5015 79.58995-46.9801 77.86168-46.4587 76.13344-45.62256 73.41731-45.10117 71.75815-44.57976 70.09898-43.7436 67.49367-43.22221 65.90364-42.70082 64.3136-41.86465 61.81917-41.34326 60.29828-40.82187 58.77736-39.98572 56.39381-39.46431 54.94205-38.94292 53.49026-38.10678 51.21751-37.58537 49.83484-37.06398 48.4522-36.22783 46.29033-35.70644 44.97679-35.18503 43.66327-34.34888 41.6122-33.82748 40.36778-33.30608 39.12337-32.46992 37.1832-31.94853 36.0079-31.42714 34.83261-30.59099 33.00327-30.0696 31.89708-29.5482 30.79088-28.71205 29.07231-28.19064 28.03525-27.66925 26.9982-26.8331 25.39064-26.31169 24.4227-25.7903 23.45477-24.95416 21.95789-24.43277 21.05907-23.91136 20.16026-23.07521 18.77437-22.55382 17.94469-22.03241 17.115-21.19626 15.83981-20.67487 15.07922-20.15347 14.31865-19.3173 13.15437-18.79591 12.46292-18.27452 11.77148-17.43839 10.71808-16.91698 10.09575-16.39558 9.47342-15.55943 8.5308-15.03804 7.97762-14.51663 7.4244-13.68048 6.5927-13.15909 6.1086-12.63768 5.62453-11.80154 4.90363-11.28015 4.48865-10.75876 4.07368-9.92259 3.46367-9.4012 3.11783-8.8798 2.77199-8.04366 2.27277-7.52225 1.99605-7.00085 1.71931-6.1647 1.33101-5.6433 1.12338-5.1219 .91579-4.28577 .63826-3.76437 .49979-3.24297 .3613-2.40681 .19466-1.88542 .12532-1.36401 .05597-.52786 .00021-.00647 0 .5149-.00021 1.35104 .0547 1.87244 .12358 2.39383 .19246 3.22998 .35843 3.75139 .49643 4.27278 .63443 5.10893 .91107 5.63034 1.11821 6.15173 1.32532 6.98788 1.71297 7.50928 1.98923 8.03069 2.26549 8.86682 2.76393 9.38821 3.10928 9.90962 3.45464 10.74577 4.06389 11.26717 4.47838 11.78856 4.89285 12.62473 5.613 13.14612 6.0966 13.66751 6.58022 14.50365 7.41115 15.02505 7.96387 15.54645 8.5166 16.3826 9.45844 16.904 10.08029 17.4254 10.70212 18.26155 11.75476 18.78294 12.44572 19.30435 13.13669 20.1405 14.3002 20.6619 15.0603 21.18329 15.82042 22.01944 17.09482 22.54083 17.92404 23.06223 18.75327 23.89839 20.13846 24.41978 21.03679 24.94118 21.93512 25.77733 23.43114 26.29874 24.39859 26.82013 25.36604 27.65627 26.97296 28.17766 28.00952 28.69907 29.0461 29.53522 30.7638 30.05661 31.86949 30.57802 32.97517 31.41417 34.80379 31.93556 35.9786 32.45695 37.15343 33.29312 39.0929 33.81451 40.33687 34.3359 41.58081 35.17204 43.63109 35.69345 44.94414 36.21484 46.2572 37.051 48.41827 37.5724 49.80046 38.0938 51.18263 38.92995 53.45464 39.45134 54.90591 39.97275 56.35722 40.8089 58.73999 41.33029 60.26042 41.8517 61.78084 42.68784 64.2745 43.20923 65.86406 43.73062 67.45361 44.56679 70.05815 45.08818 71.71684 45.60957 73.37552 46.44572 76.09087 46.96713 77.81865 47.48853 79.54643 48.32466 82.37259 48.84607 84.1695 49.36746 85.9664 50.20361 88.90344 50.725 90.76949 51.24641 92.63553 52.08257 95.68346 52.60396 97.61862 53.12535 99.55379 53.96152 102.71252 54.48291 104.71678 55.0043 106.72105 55.84045 109.99059 56.36185 112.06398 56.88324 114.13737 57.71939 117.5178 58.2408 119.66032 58.76219 121.80286 60.11974 127.50581 59.68607 125.6838"/>
<path transform="matrix(-.23150157,-.9727995,-.97282859,.23149464,12.661594,21.027306)" d="M1.27522 0C-.31879 .31879-1.91284 .9564-3.8257 2.07224-1.91284 .6376-1.91284-.6376-3.8257-2.07224-1.91284-.9564-.31879-.31879 1.27522 0Z" fill="#ff0000"/>
<path transform="matrix(-.23150157,-.9727995,-.97282859,.23149464,12.661594,21.027306)" stroke-width="1.19553" stroke-linecap="butt" stroke-linejoin="round" fill="none" stroke="#ff0000" d="M1.27522 0C-.31879 .31879-1.91284 .9564-3.8257 2.07224-1.91284 .6376-1.91284-.6376-3.8257-2.07224-1.91284-.9564-.31879-.31879 1.27522 0Z"/>
<path transform="matrix(.23156156,-.9727995,-.97282859,-.23155463,132.05274,21.08236)" d="M1.27522 0C-.31879 .31879-1.91284 .9564-3.8257 2.07224-1.91284 .6376-1.91284-.6376-3.8257-2.07224-1.91284-.9564-.31879-.31879 1.27522 0Z" fill="#ff0000"/>
<path transform="matrix(.23156156,-.9727995,-.97282859,-.23155463,132.05274,21.08236)" stroke-width="1.19553" stroke-linecap="butt" stroke-linejoin="round" fill="none" stroke="#ff0000" d="M1.27522 0C-.31879 .31879-1.91284 .9564-3.8257 2.07224-1.91284 .6376-1.91284-.6376-3.8257-2.07224-1.91284-.9564-.31879-.31879 1.27522 0Z"/>
<use data-text="y" xlink:href="#font_1_2" transform="matrix(9.963098,0,0,-9.962799,118.14099,13.405014)" fill="#ff0000"/>
<use data-text="=" xlink:href="#font_3_6" transform="matrix(9.963098,0,0,-9.962799,126.1514,13.405014)" fill="#ff0000"/>
<use data-text="x" xlink:href="#font_1_1" transform="matrix(9.963098,0,0,-9.962799,136.66793,13.405014)" fill="#ff0000"/>
<use data-text="2" xlink:href="#font_4_1" transform="matrix(6.9741489,0,0,-6.97394,142.36222,9.78894)" fill="#ff0000"/>
<path transform="matrix(1.00005,0,0,-1.00002,72.36371,146.76868)" stroke-width="1.19553" stroke-linecap="butt" stroke-miterlimit="10" stroke-linejoin="miter" fill="none" stroke="#00cc00" d="M-68.99402 113.38724H68.99402"/>
<path transform="matrix(-1.00005,-0,0,1.00002,3.3662415,33.379167)" d="M1.27522 0C-.31879 .31879-1.91284 .9564-3.8257 2.07224-1.91284 .6376-1.91284-.6376-3.8257-2.07224-1.91284-.9564-.31879-.31879 1.27522 0Z" fill="#00cc00"/>
<path transform="matrix(-1.00005,-0,0,1.00002,3.3662415,33.379167)" stroke-width="1.19553" stroke-linecap="butt" stroke-linejoin="round" fill="none" stroke="#00cc00" d="M1.27522 0C-.31879 .31879-1.91284 .9564-3.8257 2.07224-1.91284 .6376-1.91284-.6376-3.8257-2.07224-1.91284-.9564-.31879-.31879 1.27522 0Z"/>
<path transform="matrix(1.00005,0,0,-1.00002,141.36118,33.379167)" d="M1.27522 0C-.31879 .31879-1.91284 .9564-3.8257 2.07224-1.91284 .6376-1.91284-.6376-3.8257-2.07224-1.91284-.9564-.31879-.31879 1.27522 0Z" fill="#00cc00"/>
<path transform="matrix(1.00005,0,0,-1.00002,141.36118,33.379167)" stroke-width="1.19553" stroke-linecap="butt" stroke-linejoin="round" fill="none" stroke="#00cc00" d="M1.27522 0C-.31879 .31879-1.91284 .9564-3.8257 2.07224-1.91284 .6376-1.91284-.6376-3.8257-2.07224-1.91284-.9564-.31879-.31879 1.27522 0Z"/>
<use data-text="y" xlink:href="#font_1_2" transform="matrix(9.963098,0,0,-9.962799,147.15245,35.620447)" fill="#00cc00"/>
<use data-text="=" xlink:href="#font_3_6" transform="matrix(9.963098,0,0,-9.962799,155.16286,35.620447)" fill="#00cc00"/>
<use data-text="1" xlink:href="#font_3_2" transform="matrix(9.963098,0,0,-9.962799,165.66396,35.620447)" fill="#00cc00"/>
<use data-text="6" xlink:href="#font_3_5" transform="matrix(9.963098,0,0,-9.962799,170.6455,35.620447)" fill="#00cc00"/>
</svg>
