<svg xmlns="http://www.w3.org/2000/svg" xmlns:xlink="http://www.w3.org/1999/xlink" version="1.1" width="63" height="68" viewBox="0 0 63 68">
<defs>
<path id="font_1_1" d="M.23899842 .68333438C.23899842 .6843262 .23899842 .69433596 .22599793 .69433596 .20298767 .69433596 .12998963 .6863251 .10398865 .6843262 .09599304 .68333438 .084991458 .6823273 .084991458 .6643219 .084991458 .6523285 .09399414 .6523285 .10899353 .6523285 .15699768 .6523285 .15899658 .6453247 .15899658 .6353302 .15899658 .6283264 .1499939 .5943451 .14498902 .573349L.06298828 .24731446C.050994874 .1973114 .04699707 .18130493 .04699707 .14628601 .04699707 .05126953 .099990848-.0107421879 .17399597-.0107421879 .2919922-.0107421879 .4149933 .1382904 .4149933 .28233338 .4149933 .37335206 .3619995 .4423828 .28199769 .4423828 .23599243 .4423828 .19499207 .41337586 .16499329 .38235475L.23899842 .68333438M.14498902 .30534364C.15098572 .3273468 .15098572 .3293457 .1599884 .3403473 .20899964 .405365 .2539978 .42037965 .27999879 .42037965 .31599427 .42037965 .34298707 .3903656 .34298707 .32633973 .34298707 .26733399 .30999757 .15229798 .2919922 .11428833 .25898744 .04725647 .21299744 .011245728 .17399597 .011245728 .13999939 .011245728 .10699463 .038253786 .10699463 .11227417 .10699463 .13128662 .10699463 .15029907 .12298584 .21331787L.14498902 .30534364Z"/>
</defs>
<path transform="matrix(1.00003,0,0,-1.00002,10.031975,53.42175)" stroke-width=".3985" stroke-linecap="butt" stroke-miterlimit="10" stroke-linejoin="miter" fill="none" stroke="#0000ff" d="M0 0V6.80318H6.80318V0ZM6.80318 6.80318"/>
<path transform="matrix(1.00003,0,0,-1.00002,10.031975,53.42175)" stroke-width=".3985" stroke-linecap="butt" stroke-miterlimit="10" stroke-linejoin="miter" fill="none" stroke="#0000ff" d="M0 51.02477V44.22156H6.80318V51.02477ZM6.80318 44.22156"/>
<path transform="matrix(1.00003,0,0,-1.00002,10.031975,53.42175)" stroke-width=".3985" stroke-linecap="butt" stroke-miterlimit="10" stroke-linejoin="miter" fill="none" stroke="#0000ff" d="M51.02477 0V6.80318H44.22156V0ZM44.22156 6.80318"/>
<path transform="matrix(1.00003,0,0,-1.00002,10.031975,53.42175)" stroke-width=".3985" stroke-linecap="butt" stroke-miterlimit="10" stroke-linejoin="miter" fill="none" stroke="#0000ff" d="M51.02477 51.02477V44.22156H44.22156V51.02477ZM44.22156 44.22156"/>
<path transform="matrix(1.00003,0,0,-1.00002,10.031975,53.42175)" stroke-width="1.59404" stroke-linecap="butt" stroke-miterlimit="10" stroke-linejoin="miter" fill="none" stroke="#c64a86" d="M0 0V51.02477H51.02477V0ZM51.02477 51.02477"/>
<use data-text="b" xlink:href="#font_1_1" transform="matrix(9.962899,0,0,-9.962799,.5356903,31.368308)"/>
<use data-text="b" xlink:href="#font_1_1" transform="matrix(9.962899,0,0,-9.962799,33.407678,65.56099)"/>
</svg>
