<svg xmlns="http://www.w3.org/2000/svg" xmlns:xlink="http://www.w3.org/1999/xlink" version="1.1" width="185" height="163" viewBox="0 0 185 163">
<defs>
<path id="font_1_1" d="M.33399964 .30233766C.33999635 .32835389 .36299134 .42037965 .43299867 .42037965 .43798829 .42037965 .46199037 .42037965 .48298646 .40734864 .45498658 .402359 .43499757 .37734986 .43499757 .35334779 .43499757 .33735658 .44599916 .31835938 .47299195 .31835938 .49499513 .31835938 .5269928 .3363495 .5269928 .37635804 .5269928 .42837525 .46798707 .4423828 .43399049 .4423828 .37599183 .4423828 .34098817 .38935853 .32899476 .36634828 .3039856 .43237306 .25 .4423828 .22099304 .4423828 .116989139 .4423828 .05999756 .3133545 .05999756 .28834535 .05999756 .27833558 .069992069 .27833558 .07199097 .27833558 .07998657 .27833558 .08299255 .28033448 .084991458 .28933717 .11898804 .39535523 .18499756 .42037965 .21899414 .42037965 .23799134 .42037965 .272995 .4113617 .272995 .35334779 .272995 .32235719 .2559967 .25532533 .21899414 .11528015 .20298767 .053268434 .16799927 .011245728 .12399292 .011245728 .117996219 .011245728 .09498596 .011245728 .07398987 .024276734 .09899902 .029266358 .12098694 .05027771 .12098694 .07827759 .12098694 .105270389 .09899902 .11328125 .083999637 .11328125 .053985597 .11328125 .0289917 .08728027 .0289917 .055267335 .0289917 .009246826 .07899475-.0107421879 .12298584-.0107421879 .18899536-.0107421879 .22499085 .059280397 .22799683 .0652771 .23999024 .028274537 .27598573-.0107421879 .33599855-.0107421879 .43899537-.0107421879 .49598695 .118270877 .49598695 .14328003 .49598695 .1532898 .4869995 .1532898 .48399354 .1532898 .47499085 .1532898 .47299195 .14929199 .47099305 .14228821 .43798829 .03527832 .36999513 .011245728 .33799745 .011245728 .29899598 .011245728 .2829895 .043273927 .2829895 .07727051 .2829895 .09927368 .2889862 .121276859 .2999878 .16529846L.33399964 .30233766Z"/>
<path id="font_1_2" d="M.48599244 .38136292C.48999024 .39537049 .48999024 .39736939 .48999024 .40437318 .48999024 .42237855 .47599793 .43138124 .46099855 .43138124 .45098878 .43138124 .43499757 .42536927 .42599488 .41036988 .42399598 .405365 .41600038 .37435914 .4119873 .35635377 .40499879 .33035279 .397995 .30334474 .3919983 .27633668L.34700013 .09628296C.34298707 .08126831 .2999878 .011245728 .23399353 .011245728 .18299866 .011245728 .17199707 .055267335 .17199707 .0922699 .17199707 .1382904 .18899536 .20030213 .22299195 .28833009 .23899842 .3293457 .24299622 .3403473 .24299622 .36035157 .24299622 .405365 .21099854 .4423828 .16099549 .4423828 .06599426 .4423828 .0289917 .29733277 .0289917 .28833009 .0289917 .27833558 .038986207 .27833558 .040985109 .27833558 .050994874 .27833558 .051986696 .28033448 .056991579 .29634095 .083999637 .3903656 .12399292 .42037965 .1579895 .42037965 .1659851 .42037965 .18299866 .42037965 .18299866 .3883667 .18299866 .36335755 .17298889 .3373413 .1659851 .31834413 .12599182 .21231079 .10798645 .1552887 .10798645 .10827637 .10798645 .019256592 .17098999-.0107421879 .22999573-.0107421879 .2689972-.0107421879 .30299378 .0062561037 .33099366 .03425598 .31799317-.017745972 .30599977-.06674194 .2659912-.11973572 .23999024-.15385437 .20199585-.18309021 .1559906-.18309021 .14199829-.18309021 .09700012-.18005371 .07998657-.14074707 .09599304-.14074707 .10899353-.14074707 .12298584-.1287384 .1329956-.11973572 .14299011-.10673523 .14299011-.08773804 .14299011-.056747438 .115997318-.052734376 .10598755-.052734376 .08299255-.052734376 .049987794-.068740848 .049987794-.11773682 .049987794-.16796875 .09399414-.20507813 .1559906-.20507813 .25898744-.20507813 .3619995-.11373901 .3899994-.00074768069L.48599244 .38136292Z"/>
<path id="font_2_82" d="M.4189911 0V.0309906H.3869934C.29699708 .0309906 .2939911 .041992189 .2939911 .07902527V.64012148C.2939911 .6640167 .2939911 .6660156 .2709961 .6660156 .20899964 .60227969 .12098694 .60227969 .08898926 .60227969V.57128909C.10899353 .57128909 .16799927 .57128909 .21998596 .5972748V.07902527C.21998596 .042999269 .21699524 .0309906 .1269989 .0309906H.09498596V0C.12998963 .0029907227 .21699524 .0029907227 .25698854 .0029907227 .29699708 .0029907227 .38398744 .0029907227 .4189911 0Z"/>
<path id="font_2_107" d="M.44898988 .17396546H.42399598C.4189911 .14398194 .4119873 .099990848 .4019928 .084991458 .394989 .07699585 .32899476 .07699585 .30699159 .07699585H.1269989L.23298645 .17996216C.3889923 .31803895 .44898988 .37210084 .44898988 .47216798 .44898988 .5860901 .35899354 .6660156 .23699951 .6660156 .12399292 .6660156 .049987794 .57411196 .049987794 .48516847 .049987794 .4291687 .099990848 .4291687 .102996829 .4291687 .11999512 .4291687 .15499878 .44117738 .15499878 .48217774 .15499878 .5081787 .13699341 .5341797 .101989749 .5341797 .09399414 .5341797 .09199524 .5341797 .08898926 .5331726 .11199951 .59806826 .1659851 .63500979 .22399903 .63500979 .31498719 .63500979 .35798646 .5541382 .35798646 .47216798 .35798646 .39196778 .30799867 .31297303 .25299073 .25097657L.06098938 .036987306C.049987794 .025985718 .049987794 .023986817 .049987794 0H.42099L.44898988 .17396546Z"/>
<path id="font_2_106" d="M.45700074 .17037964C.45700074 .252594 .3939972 .33088685 .2899933 .35191346 .37199403 .37893678 .42999269 .4490509 .42999269 .52809146 .42999269 .6100464 .34199525 .6660156 .24598694 .6660156 .14498902 .6660156 .068984989 .60606387 .068984989 .53009036 .068984989 .49710084 .09098816 .47808839 .11999512 .47808839 .15098572 .47808839 .17098999 .50009158 .17098999 .5290985 .17098999 .57910159 .12399292 .57910159 .10899353 .57910159 .13999939 .62802127 .20599365 .64100649 .24198914 .64100649 .2829895 .64100649 .33799745 .6190338 .33799745 .5290985 .33799745 .51708987 .33599855 .45906068 .30999757 .4149933 .27999879 .36691285 .24598694 .36390687 .22099304 .36291505 .21299744 .36190797 .18899536 .35990907 .18199158 .35990907 .17399597 .35890199 .16699219 .35791017 .16699219 .3479004 .16699219 .33691407 .17399597 .33691407 .19099427 .33691407H.23498535C.31698609 .33691407 .35398866 .2686615 .35398866 .17037964 .35398866 .034469606 .2849884 .0055389406 .24099732 .0055389406 .19799805 .0055389406 .12298584 .022491456 .08799744 .08137512 .12298584 .07637024 .1539917 .09837341 .1539917 .1363678 .1539917 .17237854 .1269989 .19238281 .09799194 .19238281 .07398987 .19238281 .041992189 .17837525 .041992189 .1343689 .041992189 .043441774 .1349945-.022460938 .24398804-.022460938 .3659973-.022460938 .45700074 .06838989 .45700074 .17037964Z"/>
<path id="font_2_57" d="M.47099305 .16503906V.19602967H.37098695V.6507721C.37098695 .6707611 .37098695 .6767578 .35499574 .6767578 .34599305 .6767578 .34298707 .6767578 .33499146 .6647644L.027999878 .19602967V.16503906H.2939911V.07800293C.2939911 .041992189 .2919922 .0309906 .21798706 .0309906H.19699097V0C.23799134 .0029907227 .2899933 .0029907227 .33198548 .0029907227 .37399293 .0029907227 .4269867 .0029907227 .46798707 0V.0309906H.44699098C.37298585 .0309906 .37098695 .041992189 .37098695 .07800293V.16503906H.47099305M.2999878 .19602967H.055999757L.2999878 .56881716V.19602967Z"/>
<path id="font_2_56" d="M.44898988 .20091248C.44898988 .31991578 .36698915 .41992188 .25898744 .41992188 .21099854 .41992188 .16799927 .4039154 .13198853 .36891175V.5641022C.1519928 .55778506 .18499756 .55078127 .21699524 .55078127 .33999635 .55078127 .4099884 .6418457 .4099884 .65493777 .4099884 .6609802 .40699769 .6660156 .3999939 .6660156 .3999939 .66607668 .39698792 .66607668 .3919983 .66308596 .37199403 .65408328 .32299806 .63378909 .2559967 .63378909 .21598816 .63409426 .16999817 .641098 .12298584 .6621094 .114990238 .6651001 .11099243 .6651001 .11099243 .6651001 .100997928 .66508486 .100997928 .657074 .100997928 .64108279V.3447113C.100997928 .3266449 .100997928 .31861878 .114990238 .31861878 .12199402 .31861878 .12399292 .32164 .12799073 .32765199 .13899231 .34371949 .17599488 .3979187 .25698854 .3979187 .30899049 .3979187 .33399964 .3517456 .34199525 .3336792 .35798646 .2965393 .3600006 .2574005 .3600006 .20721436 .3600006 .17218018 .3600006 .112197879 .33599855 .07032776 .31199647 .031448366 .2749939 .0055389406 .22898865 .0055389406 .1559906 .0055389406 .09899902 .05836487 .08198547 .1171875 .084991458 .11685181 .08799744 .115859989 .09899902 .115859989 .13198853 .115859989 .14898682 .14085388 .14898682 .16485596 .14898682 .18885803 .13198853 .21386719 .09899902 .21386719 .084991458 .21386719 .049987794 .2068634 .049987794 .16085816 .049987794 .07432556 .11898804-.022460938 .23098755-.022460938 .34700013-.022460938 .44898988 .07331848 .44898988 .20019531V.20091248Z"/>
<path id="font_2_121" d="M.45999146 .31976319C.45999146 .39982606 .45498658 .47988893 .41999818 .5539398 .37399293 .65000918 .2919922 .6660156 .25 .6660156 .18998719 .6660156 .116989139 .64001467 .07598877 .54693606 .04399109 .47789 .038986207 .39982606 .038986207 .31976319 .038986207 .24472046 .042999269 .15464783 .083999637 .07859802 .1269989-.0024719239 .19999695-.022460938 .24899292-.022460938 .30299378-.022460938 .3789978-.0014648438 .4229889 .09359741 .45498658 .16265869 .45999146 .2407074 .45999146 .31976319M.3769989 .3317871C.3769989 .25672914 .3769989 .18867493 .3659973 .12461853 .35099793 .029556275 .2939911-.00047302247 .24899292-.00047302247 .20999146-.00047302247 .15098572 .024551392 .1329956 .12062073 .12199402 .18066406 .12199402 .2727356 .12199402 .3317871 .12199402 .39582826 .12199402 .46188355 .12998963 .5159149 .14898682 .63500979 .22399903 .64401248 .24899292 .64401248 .28199769 .64401248 .34799195 .6259918 .36698915 .52693179 .3769989 .47088624 .3769989 .39482118 .3769989 .3317871Z"/>
</defs>
<path transform="matrix(1.00003,0,0,-1,21.466317,149.595)" stroke-width=".3985" stroke-linecap="butt" stroke-miterlimit="10" stroke-linejoin="miter" fill="none" stroke="#00aeef" d="M0 0H141.73404M0 8.50368H141.73404M0 17.00737H141.73404M0 25.51108H141.73404M0 34.01477H141.73404M0 42.51846H141.73404M0 51.02217H141.73404M0 59.52586H141.73404M0 68.02956H141.73404M0 76.53326H141.73404M0 85.03696H141.73404M0 93.54065H141.73404M0 102.04436H141.73404M0 110.54805H141.73404M0 119.05174H141.73404M0 127.55515H141.73404M0 0V127.55545M28.3468 0V127.55545M56.69362 0V127.55545M85.04042 0V127.55545M113.38724 0V127.55545M141.72409 0V127.55545M141.73404 127.55545"/>
<path transform="matrix(1.00003,0,0,-1,21.466317,149.595)" stroke-width=".79701" stroke-linecap="butt" stroke-miterlimit="10" stroke-linejoin="miter" fill="none" stroke="#000000" d="M0 0H151.63799"/>
<path transform="matrix(1.00003,0,0,-1,173.10886,149.595)" d="M1.0361 0C-.25902 .25902-1.55415 .77707-3.1083 1.68365-1.55415 .51805-1.55415-.51805-3.1083-1.68365-1.55415-.77707-.25902-.25902 1.0361 0Z"/>
<path transform="matrix(1.00003,0,0,-1,173.10886,149.595)" stroke-width=".79701" stroke-linecap="butt" stroke-linejoin="round" fill="none" stroke="#000000" d="M1.0361 0C-.25902 .25902-1.55415 .77707-3.1083 1.68365-1.55415 .51805-1.55415-.51805-3.1083-1.68365-1.55415-.77707-.25902-.25902 1.0361 0Z"/>
<use data-text="x" xlink:href="#font_1_1" transform="matrix(9.962899,0,0,-9.9626,178.26303,151.74)"/>
<path transform="matrix(1.00003,0,0,-1,21.466317,149.595)" stroke-width=".79701" stroke-linecap="butt" stroke-miterlimit="10" stroke-linejoin="miter" fill="none" stroke="#000000" d="M0 0V143.12822"/>
<path transform="matrix(0,-1,-1.00003,-0,21.466317,6.4667818)" d="M1.0361 0C-.25902 .25902-1.55415 .77707-3.1083 1.68365-1.55415 .51805-1.55415-.51805-3.1083-1.68365-1.55415-.77707-.25902-.25902 1.0361 0Z"/>
<path transform="matrix(0,-1,-1.00003,-0,21.466317,6.4667818)" stroke-width=".79701" stroke-linecap="butt" stroke-linejoin="round" fill="none" stroke="#000000" d="M1.0361 0C-.25902 .25902-1.55415 .77707-3.1083 1.68365-1.55415 .51805-1.55415-.51805-3.1083-1.68365-1.55415-.77707-.25902-.25902 1.0361 0Z"/>
<use data-text="y" xlink:href="#font_1_2" transform="matrix(9.962899,0,0,-9.9626,12.505043,6.208008)"/>
<path transform="matrix(1.00003,0,0,-1,21.466317,149.595)" stroke-width="1.19553" stroke-linecap="butt" stroke-miterlimit="10" stroke-linejoin="miter" fill="none" stroke="#00aeef" d="M28.3468 0V127.55545"/>
<path transform="matrix(1.00003,0,0,-1,21.466317,149.595)" stroke-width=".79701" stroke-linecap="butt" stroke-miterlimit="10" stroke-linejoin="miter" fill="none" stroke="#000000" d="M28.3468 .85036V-.85036"/>
<use data-text="1" xlink:href="#font_2_82" transform="matrix(9.962899,0,0,-9.9626,47.323095,160.8)"/>
<path transform="matrix(1.00003,0,0,-1,21.466317,149.595)" stroke-width="1.19553" stroke-linecap="butt" stroke-miterlimit="10" stroke-linejoin="miter" fill="none" stroke="#00aeef" d="M56.69362 0V127.55545"/>
<path transform="matrix(1.00003,0,0,-1,21.466317,149.595)" stroke-width=".79701" stroke-linecap="butt" stroke-miterlimit="10" stroke-linejoin="miter" fill="none" stroke="#000000" d="M56.69362 .85036V-.85036"/>
<use data-text="2" xlink:href="#font_2_107" transform="matrix(9.962899,0,0,-9.9626,75.670948,160.8)"/>
<path transform="matrix(1.00003,0,0,-1,21.466317,149.595)" stroke-width="1.19553" stroke-linecap="butt" stroke-miterlimit="10" stroke-linejoin="miter" fill="none" stroke="#00aeef" d="M85.04042 0V127.55545"/>
<path transform="matrix(1.00003,0,0,-1,21.466317,149.595)" stroke-width=".79701" stroke-linecap="butt" stroke-miterlimit="10" stroke-linejoin="miter" fill="none" stroke="#000000" d="M85.04042 .85036V-.85036"/>
<use data-text="3" xlink:href="#font_2_106" transform="matrix(9.962899,0,0,-9.9626,104.0188,160.8)"/>
<path transform="matrix(1.00003,0,0,-1,21.466317,149.595)" stroke-width="1.19553" stroke-linecap="butt" stroke-miterlimit="10" stroke-linejoin="miter" fill="none" stroke="#00aeef" d="M113.38724 0V127.55545"/>
<path transform="matrix(1.00003,0,0,-1,21.466317,149.595)" stroke-width=".79701" stroke-linecap="butt" stroke-miterlimit="10" stroke-linejoin="miter" fill="none" stroke="#000000" d="M113.38724 .85036V-.85036"/>
<use data-text="4" xlink:href="#font_2_57" transform="matrix(9.962899,0,0,-9.9626,132.36666,160.909)"/>
<path transform="matrix(1.00003,0,0,-1,21.466317,149.595)" stroke-width="1.19553" stroke-linecap="butt" stroke-miterlimit="10" stroke-linejoin="miter" fill="none" stroke="#00aeef" d="M141.73404 0V127.55545"/>
<path transform="matrix(1.00003,0,0,-1,21.466317,149.595)" stroke-width=".79701" stroke-linecap="butt" stroke-miterlimit="10" stroke-linejoin="miter" fill="none" stroke="#000000" d="M141.73404 .85036V-.85036"/>
<use data-text="5" xlink:href="#font_2_56" transform="matrix(9.962899,0,0,-9.9626,160.7135,160.8)"/>
<path transform="matrix(1.00003,0,0,-1,21.466317,149.595)" stroke-width="1.19553" stroke-linecap="butt" stroke-miterlimit="10" stroke-linejoin="miter" fill="none" stroke="#00aeef" d="M0 42.51846H141.73404"/>
<path transform="matrix(1.00003,0,0,-1,21.466317,149.595)" stroke-width=".79701" stroke-linecap="butt" stroke-miterlimit="10" stroke-linejoin="miter" fill="none" stroke="#000000" d="M2.26778 42.51846H-2.26779"/>
<use data-text="5" xlink:href="#font_2_56" transform="matrix(9.962899,0,0,-9.9626,5.5158388,110.285)"/>
<use data-text="0" xlink:href="#font_2_121" transform="matrix(9.962899,0,0,-9.9626,10.497292,110.285)"/>
<path transform="matrix(1.00003,0,0,-1,21.466317,149.595)" stroke-width="1.19553" stroke-linecap="butt" stroke-miterlimit="10" stroke-linejoin="miter" fill="none" stroke="#00aeef" d="M0 85.03696H141.73404"/>
<path transform="matrix(1.00003,0,0,-1,21.466317,149.595)" stroke-width=".79701" stroke-linecap="butt" stroke-miterlimit="10" stroke-linejoin="miter" fill="none" stroke="#000000" d="M2.26778 85.03696H-2.26779"/>
<use data-text="1" xlink:href="#font_2_82" transform="matrix(9.962899,0,0,-9.9626,.53469088,67.766)"/>
<use data-text="0" xlink:href="#font_2_121" transform="matrix(9.962899,0,0,-9.9626,5.516144,67.766)"/>
<use data-text="0" xlink:href="#font_2_121" transform="matrix(9.962899,0,0,-9.9626,10.497589,67.766)"/>
<path transform="matrix(1.00003,0,0,-1,21.466317,149.595)" stroke-width="1.19553" stroke-linecap="butt" stroke-miterlimit="10" stroke-linejoin="miter" fill="none" stroke="#00aeef" d="M0 127.55545H141.73404"/>
<path transform="matrix(1.00003,0,0,-1,21.466317,149.595)" stroke-width=".79701" stroke-linecap="butt" stroke-miterlimit="10" stroke-linejoin="miter" fill="none" stroke="#000000" d="M2.26778 127.55545H-2.26779"/>
<use data-text="1" xlink:href="#font_2_82" transform="matrix(9.962899,0,0,-9.9626,.53469088,25.248002)"/>
<use data-text="5" xlink:href="#font_2_56" transform="matrix(9.962899,0,0,-9.9626,5.516144,25.248002)"/>
<use data-text="0" xlink:href="#font_2_121" transform="matrix(9.962899,0,0,-9.9626,10.497589,25.248002)"/>
<path transform="matrix(1.00003,0,0,-1,21.466317,149.595)" stroke-width="1.19553" stroke-linecap="butt" stroke-miterlimit="10" stroke-linejoin="miter" fill="none" stroke="#ff0000" d="M11.52441 125.69803C12.81047 112.8052 12.81047 112.8052 13.3758 108.12706 13.9411 103.44891 14.84773 97.34671 15.41306 93.8448 15.97836 90.34288 16.88498 85.61034 17.4503 82.88766 18.01561 80.16501 18.92223 76.39914 19.48755 74.22179 20.05286 72.04442 20.95949 68.97618 21.52481 67.19472 22.09012 65.41324 22.99673 62.86636 23.56206 61.38216 24.12737 59.89795 25.034 57.75378 25.59932 56.49762 26.16463 55.24144 27.07124 53.40486 27.63657 52.32855 28.20189 51.25224 29.1085 49.67267 29.67383 48.74036 30.23915 47.80806 31.14577 46.4256 31.71107 45.60915 32.2764 44.79268 33.18301 43.57643 33.74832 42.85591 34.31364 42.13538 35.22028 41.05664 35.78558 40.41609 36.3509 39.77554 37.25752 38.81245 37.82283 38.23924 38.38815 37.66603 39.29478 36.80074 39.86009 36.28476 40.42542 35.76877 41.33203 34.9873 41.89734 34.5204 42.46266 34.0535 43.36928 33.34418 43.93459 32.91966 44.49991 32.49516 45.40654 31.8485 45.97185 31.46086 46.53717 31.07323 47.44379 30.48125 48.00911 30.12585 48.57442 29.77048 49.48105 29.22647 50.04637 28.89946 50.61168 28.57246 51.5183 28.07094 52.08362 27.76907 52.64893 27.4672 53.55556 27.00334 54.12088 26.7238 54.68619 26.44424 55.5928 26.01389 56.15813 25.75427 56.72343 25.49467 57.63005 25.09444 58.19537 24.85272 58.76068 24.61101 59.66731 24.23775 60.23264 24.01213 60.79794 23.78651 61.70456 23.43765 62.26988 23.22656 62.83519 23.01547 63.74182 22.68863 64.30714 22.49069 64.87245 22.29279 65.77907 21.98605 66.34439 21.80011 66.90971 21.61418 67.81633 21.32565 68.38165 21.15062 68.94698 20.97562 69.85359 20.70375 70.4189 20.53873 70.98422 20.3737 71.89084 20.11711 72.45615 19.96124 73.02147 19.80537 73.9281 19.5628 74.49341 19.41534 75.05873 19.2679 75.96535 19.0382 76.53065 18.89848 77.09598 18.75877 78.00261 18.54103 78.56792 18.40848 79.13324 18.27594 80.03986 18.0691 80.60516 17.94318 81.17049 17.81726 82.0771 17.62065 82.64241 17.50085 83.20773 17.38109 84.11436 17.19391 84.67967 17.0798 85.245 16.96571 86.15161 16.78737 86.71692 16.67857 87.28224 16.56978 88.18887 16.39958 88.7542 16.29573 89.3195 16.19188 90.22612 16.02934 90.79144 15.93008 91.35675 15.83084 92.26338 15.67538 92.8287 15.58047 93.39401 15.48553 94.30063 15.33679 94.86595 15.24591 95.43126 15.15501 96.33788 15.0125 96.9032 14.92537 97.4685 14.83826 98.37514 14.70161 98.94046 14.61804 99.50577 14.53448 100.41238 14.40334 100.9777 14.32312 101.54301 14.24289 102.44965 14.11693 103.01497 14.03986 103.58028 13.96278 104.4869 13.8417 105.05222 13.76758 105.61754 13.69347 106.52415 13.57698 107.08948 13.50566 107.6548 13.43434 108.56142 13.32224 109.12672 13.25356 109.69205 13.18486 110.59866 13.07684 111.16397 13.01064 111.7293 12.94444 112.63593 12.84032 113.20123 12.77647 113.76656 12.71266 114.67317 12.61223 115.23848 12.55064 115.8038 12.48904 116.71043 12.39207 117.27574 12.3326 117.84106 12.27313 118.74768 12.17949 119.31299 12.12202 119.87831 12.06458 120.78494 11.97404 121.35025 11.9185 121.91557 11.86296 122.82219 11.77545 123.3875 11.72173 123.95282 11.668 124.85944 11.58331 125.42474 11.53131 125.99007 11.47932 126.8967 11.39735 127.46202 11.347 128.02733 11.29668 128.93395 11.21727 129.49927 11.1685 130.06458 11.11974 130.9712 11.04282 131.53653 10.99554 132.10184 10.94827 133.00846 10.87367 133.57378 10.82784 134.13909 10.782 135.0457 10.70966 135.61103 10.66516 136.17633 10.6207 137.08296 10.55049 137.64829 10.50732 138.2136 10.46417 139.12021 10.39601 139.68553 10.3541 140.25084 10.31218 141.7228 10.20523 139.8548 10.34084"/>
<path transform="matrix(-.09924298,-.99501,-.9950399,.09924,32.991094,23.896973)" d="M1.27522 0C-.31879 .31879-1.91284 .9564-3.8257 2.07224-1.91284 .6376-1.91284-.6376-3.8257-2.07224-1.91284-.9564-.31879-.31879 1.27522 0Z" fill="#ff0000"/>
<path transform="matrix(-.09924298,-.99501,-.9950399,.09924,32.991094,23.896973)" stroke-width="1.19553" stroke-linecap="butt" stroke-linejoin="round" fill="none" stroke="#ff0000" d="M1.27522 0C-.31879 .31879-1.91284 .9564-3.8257 2.07224-1.91284 .6376-1.91284-.6376-3.8257-2.07224-1.91284-.9564-.31879-.31879 1.27522 0Z"/>
<path transform="matrix(.99736,.0724,.07240218,-.99733,161.32532,139.25415)" d="M1.27522 0C-.31879 .31879-1.91284 .9564-3.8257 2.07224-1.91284 .6376-1.91284-.6376-3.8257-2.07224-1.91284-.9564-.31879-.31879 1.27522 0Z" fill="#ff0000"/>
<path transform="matrix(.99736,.0724,.07240218,-.99733,161.32532,139.25415)" stroke-width="1.19553" stroke-linecap="butt" stroke-linejoin="round" fill="none" stroke="#ff0000" d="M1.27522 0C-.31879 .31879-1.91284 .9564-3.8257 2.07224-1.91284 .6376-1.91284-.6376-3.8257-2.07224-1.91284-.9564-.31879-.31879 1.27522 0Z"/>
</svg>
