<svg xmlns="http://www.w3.org/2000/svg" xmlns:xlink="http://www.w3.org/1999/xlink" version="1.1" width="237" height="227" viewBox="0 0 237 227">
<defs>
<path id="font_1_1" d="M.33399964 .30233766C.33999635 .32835389 .36299134 .42037965 .43299867 .42037965 .43798829 .42037965 .46199037 .42037965 .48298646 .40734864 .45498658 .402359 .43499757 .37734986 .43499757 .35334779 .43499757 .33735658 .44599916 .31835938 .47299195 .31835938 .49499513 .31835938 .5269928 .3363495 .5269928 .37635804 .5269928 .42837525 .46798707 .4423828 .43399049 .4423828 .37599183 .4423828 .34098817 .38935853 .32899476 .36634828 .3039856 .43237306 .25 .4423828 .22099304 .4423828 .116989139 .4423828 .05999756 .3133545 .05999756 .28834535 .05999756 .27833558 .069992069 .27833558 .07199097 .27833558 .07998657 .27833558 .08299255 .28033448 .084991458 .28933717 .11898804 .39535523 .18499756 .42037965 .21899414 .42037965 .23799134 .42037965 .272995 .4113617 .272995 .35334779 .272995 .32235719 .2559967 .25532533 .21899414 .11528015 .20298767 .053268434 .16799927 .011245728 .12399292 .011245728 .117996219 .011245728 .09498596 .011245728 .07398987 .024276734 .09899902 .029266358 .12098694 .05027771 .12098694 .07827759 .12098694 .105270389 .09899902 .11328125 .083999637 .11328125 .053985597 .11328125 .0289917 .08728027 .0289917 .055267335 .0289917 .009246826 .07899475-.0107421879 .12298584-.0107421879 .18899536-.0107421879 .22499085 .059280397 .22799683 .0652771 .23999024 .028274537 .27598573-.0107421879 .33599855-.0107421879 .43899537-.0107421879 .49598695 .118270877 .49598695 .14328003 .49598695 .1532898 .4869995 .1532898 .48399354 .1532898 .47499085 .1532898 .47299195 .14929199 .47099305 .14228821 .43798829 .03527832 .36999513 .011245728 .33799745 .011245728 .29899598 .011245728 .2829895 .043273927 .2829895 .07727051 .2829895 .09927368 .2889862 .121276859 .2999878 .16529846L.33399964 .30233766Z"/>
<path id="font_1_2" d="M.48599244 .38136292C.48999024 .39537049 .48999024 .39736939 .48999024 .40437318 .48999024 .42237855 .47599793 .43138124 .46099855 .43138124 .45098878 .43138124 .43499757 .42536927 .42599488 .41036988 .42399598 .405365 .41600038 .37435914 .4119873 .35635377 .40499879 .33035279 .397995 .30334474 .3919983 .27633668L.34700013 .09628296C.34298707 .08126831 .2999878 .011245728 .23399353 .011245728 .18299866 .011245728 .17199707 .055267335 .17199707 .0922699 .17199707 .1382904 .18899536 .20030213 .22299195 .28833009 .23899842 .3293457 .24299622 .3403473 .24299622 .36035157 .24299622 .405365 .21099854 .4423828 .16099549 .4423828 .06599426 .4423828 .0289917 .29733277 .0289917 .28833009 .0289917 .27833558 .038986207 .27833558 .040985109 .27833558 .050994874 .27833558 .051986696 .28033448 .056991579 .29634095 .083999637 .3903656 .12399292 .42037965 .1579895 .42037965 .1659851 .42037965 .18299866 .42037965 .18299866 .3883667 .18299866 .36335755 .17298889 .3373413 .1659851 .31834413 .12599182 .21231079 .10798645 .1552887 .10798645 .10827637 .10798645 .019256592 .17098999-.0107421879 .22999573-.0107421879 .2689972-.0107421879 .30299378 .0062561037 .33099366 .03425598 .31799317-.017745972 .30599977-.06674194 .2659912-.11973572 .23999024-.15385437 .20199585-.18309021 .1559906-.18309021 .14199829-.18309021 .09700012-.18005371 .07998657-.14074707 .09599304-.14074707 .10899353-.14074707 .12298584-.1287384 .1329956-.11973572 .14299011-.10673523 .14299011-.08773804 .14299011-.056747438 .115997318-.052734376 .10598755-.052734376 .08299255-.052734376 .049987794-.068740848 .049987794-.11773682 .049987794-.16796875 .09399414-.20507813 .1559906-.20507813 .25898744-.20507813 .3619995-.11373901 .3899994-.00074768069L.48599244 .38136292Z"/>
<path id="font_2_121" d="M.45999146 .31976319C.45999146 .39982606 .45498658 .47988893 .41999818 .5539398 .37399293 .65000918 .2919922 .6660156 .25 .6660156 .18998719 .6660156 .116989139 .64001467 .07598877 .54693606 .04399109 .47789 .038986207 .39982606 .038986207 .31976319 .038986207 .24472046 .042999269 .15464783 .083999637 .07859802 .1269989-.0024719239 .19999695-.022460938 .24899292-.022460938 .30299378-.022460938 .3789978-.0014648438 .4229889 .09359741 .45498658 .16265869 .45999146 .2407074 .45999146 .31976319M.3769989 .3317871C.3769989 .25672914 .3769989 .18867493 .3659973 .12461853 .35099793 .029556275 .2939911-.00047302247 .24899292-.00047302247 .20999146-.00047302247 .15098572 .024551392 .1329956 .12062073 .12199402 .18066406 .12199402 .2727356 .12199402 .3317871 .12199402 .39582826 .12199402 .46188355 .12998963 .5159149 .14898682 .63500979 .22399903 .64401248 .24899292 .64401248 .28199769 .64401248 .34799195 .6259918 .36698915 .52693179 .3769989 .47088624 .3769989 .39482118 .3769989 .3317871Z"/>
<path id="font_2_88" d="M.19198609 .052993776C.19198609 .08198547 .16799927 .10598755 .13899231 .10598755 .10998535 .10598755 .085998538 .08198547 .085998538 .052993776 .085998538 .023986817 .10998535 0 .13899231 0 .16799927 0 .19198609 .023986817 .19198609 .052993776Z"/>
<path id="font_2_107" d="M.44898988 .17396546H.42399598C.4189911 .14398194 .4119873 .099990848 .4019928 .084991458 .394989 .07699585 .32899476 .07699585 .30699159 .07699585H.1269989L.23298645 .17996216C.3889923 .31803895 .44898988 .37210084 .44898988 .47216798 .44898988 .5860901 .35899354 .6660156 .23699951 .6660156 .12399292 .6660156 .049987794 .57411196 .049987794 .48516847 .049987794 .4291687 .099990848 .4291687 .102996829 .4291687 .11999512 .4291687 .15499878 .44117738 .15499878 .48217774 .15499878 .5081787 .13699341 .5341797 .101989749 .5341797 .09399414 .5341797 .09199524 .5341797 .08898926 .5331726 .11199951 .59806826 .1659851 .63500979 .22399903 .63500979 .31498719 .63500979 .35798646 .5541382 .35798646 .47216798 .35798646 .39196778 .30799867 .31297303 .25299073 .25097657L.06098938 .036987306C.049987794 .025985718 .049987794 .023986817 .049987794 0H.42099L.44898988 .17396546Z"/>
<path id="font_2_57" d="M.47099305 .16503906V.19602967H.37098695V.6507721C.37098695 .6707611 .37098695 .6767578 .35499574 .6767578 .34599305 .6767578 .34298707 .6767578 .33499146 .6647644L.027999878 .19602967V.16503906H.2939911V.07800293C.2939911 .041992189 .2919922 .0309906 .21798706 .0309906H.19699097V0C.23799134 .0029907227 .2899933 .0029907227 .33198548 .0029907227 .37399293 .0029907227 .4269867 .0029907227 .46798707 0V.0309906H.44699098C.37298585 .0309906 .37098695 .041992189 .37098695 .07800293V.16503906H.47099305M.2999878 .19602967H.055999757L.2999878 .56881716V.19602967Z"/>
<path id="font_2_101" d="M.45700074 .2036438C.45700074 .33070375 .36799623 .4267578 .25698854 .4267578 .18899536 .4267578 .1519928 .37573243 .13198853 .327713V.35173036C.13198853 .6047821 .2559967 .64100649 .30699159 .64100649 .33099366 .64100649 .37298585 .634964 .394989 .6007538 .37998963 .6007538 .33999635 .6007538 .33999635 .5557556 .33999635 .524765 .3639984 .5097656 .38598634 .5097656 .4019928 .5097656 .43199159 .51875308 .43199159 .5577545 .43199159 .6178589 .3880005 .6660156 .30499269 .6660156 .1769867 .6660156 .041992189 .5367584 .041992189 .31570436 .041992189 .048553468 .1579895-.022460938 .25099183-.022460938 .3619995-.022460938 .45700074 .07156372 .45700074 .2036438M.36698915 .20463562C.36698915 .15661621 .36698915 .10658264 .34999085 .0705719 .31999208 .010528564 .27398683 .0055389406 .25099183 .0055389406 .18798828 .0055389406 .1579895 .06556702 .1519928 .080566409 .13398743 .127594 .13398743 .2076416 .13398743 .22564698 .13398743 .30369569 .1659851 .40374757 .2559967 .40374757 .27198792 .40374757 .31799317 .40374757 .34899903 .34172059 .36698915 .30470277 .36698915 .2536621 .36698915 .20463562Z"/>
<path id="font_2_51" d="M.45700074 .16764832C.45700074 .20367432 .44599916 .24871826 .4079895 .29074098 .3889923 .31176759 .37298585 .32176209 .30899049 .36180116 .3809967 .39881898 .42999269 .4508667 .42999269 .51690676 .42999269 .6089783 .34098817 .6660156 .25 .6660156 .1499939 .6660156 .068984989 .5919647 .068984989 .49890138 .068984989 .48088075 .070999149 .43585206 .11299133 .38882447 .12399292 .3768158 .16099549 .35179139 .18598938 .33477784 .12799073 .30575563 .041992189 .24971009 .041992189 .15063477 .041992189 .044555665 .14399719-.022460938 .24899292-.022460938 .3619995-.022460938 .45700074 .060577394 .45700074 .16764832M.38598634 .51690676C.38598634 .45986939 .34700013 .41183473 .2869873 .3768158L.16299439 .4568634C.116989139 .4868927 .11299133 .5209198 .11299133 .53793337 .11299133 .5989685 .17799378 .64100649 .24899292 .64100649 .32199098 .64100649 .38598634 .588974 .38598634 .51690676M.40699769 .13162232C.40699769 .05757141 .33198548 .0055389406 .25 .0055389406 .1639862 .0055389406 .09199524 .06758118 .09199524 .15063477 .09199524 .2086792 .12399292 .2727356 .20899964 .31976319L.33198548 .24171448C.3600006 .22268677 .40699769 .19267273 .40699769 .13162232Z"/>
<path id="font_2_82" d="M.4189911 0V.0309906H.3869934C.29699708 .0309906 .2939911 .041992189 .2939911 .07902527V.64012148C.2939911 .6640167 .2939911 .6660156 .2709961 .6660156 .20899964 .60227969 .12098694 .60227969 .08898926 .60227969V.57128909C.10899353 .57128909 .16799927 .57128909 .21998596 .5972748V.07902527C.21998596 .042999269 .21699524 .0309906 .1269989 .0309906H.09498596V0C.12998963 .0029907227 .21699524 .0029907227 .25698854 .0029907227 .29699708 .0029907227 .38398744 .0029907227 .4189911 0Z"/>
</defs>
<path transform="matrix(1.00002,0,0,-1.00006,19.5951,212.25795)" stroke-width=".3985" stroke-linecap="butt" stroke-miterlimit="10" stroke-linejoin="miter" fill="none" stroke="#00aeef" d="M0 0H192.75795M0 19.27548H192.75795M0 38.55098H192.75795M0 57.82648H192.75795M0 77.10196H192.75795M0 96.37747H192.75795M0 115.65297H192.75795M0 134.92847H192.75795M0 154.20395H192.75795M0 173.47945H192.75795M0 192.75496H192.75795M0 0V192.75795M19.27548 0V192.75795M38.55098 0V192.75795M57.82648 0V192.75795M77.10196 0V192.75795M96.37747 0V192.75795M115.65297 0V192.75795M134.92847 0V192.75795M154.20395 0V192.75795M173.47945 0V192.75795M192.75496 0V192.75795M192.75795 192.75795"/>
<path transform="matrix(1.00002,0,0,-1.00006,19.5951,212.25795)" stroke-width=".79701" stroke-linecap="butt" stroke-miterlimit="10" stroke-linejoin="miter" fill="none" stroke="#000000" d="M0 0H205.77957"/>
<path transform="matrix(1.00002,0,0,-1.00006,225.37879,212.25795)" d="M1.0361 0C-.25902 .25902-1.55415 .77707-3.1083 1.68365-1.55415 .51805-1.55415-.51805-3.1083-1.68365-1.55415-.77707-.25902-.25902 1.0361 0Z"/>
<path transform="matrix(1.00002,0,0,-1.00006,225.37879,212.25795)" stroke-width=".79701" stroke-linecap="butt" stroke-linejoin="round" fill="none" stroke="#000000" d="M1.0361 0C-.25902 .25902-1.55415 .77707-3.1083 1.68365-1.55415 .51805-1.55415-.51805-3.1083-1.68365-1.55415-.77707-.25902-.25902 1.0361 0Z"/>
<use data-text="x" xlink:href="#font_1_1" transform="matrix(9.962799,0,0,-9.963197,230.53232,214.40308)"/>
<path transform="matrix(1.00002,0,0,-1.00006,19.5951,212.25795)" stroke-width=".79701" stroke-linecap="butt" stroke-miterlimit="10" stroke-linejoin="miter" fill="none" stroke="#000000" d="M0 0V205.77957"/>
<path transform="matrix(0,-1.00006,-1.00002,-0,19.5951,6.466034)" d="M1.0361 0C-.25902 .25902-1.55415 .77707-3.1083 1.68365-1.55415 .51805-1.55415-.51805-3.1083-1.68365-1.55415-.77707-.25902-.25902 1.0361 0Z"/>
<path transform="matrix(0,-1.00006,-1.00002,-0,19.5951,6.466034)" stroke-width=".79701" stroke-linecap="butt" stroke-linejoin="round" fill="none" stroke="#000000" d="M1.0361 0C-.25902 .25902-1.55415 .77707-3.1083 1.68365-1.55415 .51805-1.55415-.51805-3.1083-1.68365-1.55415-.77707-.25902-.25902 1.0361 0Z"/>
<use data-text="y" xlink:href="#font_1_2" transform="matrix(9.962799,0,0,-9.963197,10.633919,6.207596)"/>
<path transform="matrix(1.00002,0,0,-1.00006,19.5951,212.25795)" stroke-width=".79701" stroke-linecap="butt" stroke-miterlimit="10" stroke-linejoin="miter" fill="none" stroke="#000000" d="M19.27548 1.92795V-1.9265"/>
<use data-text="0" xlink:href="#font_2_121" transform="matrix(9.962799,0,0,-9.963197,32.504358,224.53969)"/>
<use data-text="." xlink:href="#font_2_88" transform="matrix(9.962799,0,0,-9.963197,37.485757,224.53969)"/>
<use data-text="2" xlink:href="#font_2_107" transform="matrix(9.962799,0,0,-9.963197,40.25541,224.53969)"/>
<path transform="matrix(1.00002,0,0,-1.00006,19.5951,212.25795)" stroke-width=".79701" stroke-linecap="butt" stroke-miterlimit="10" stroke-linejoin="miter" fill="none" stroke="#000000" d="M1.92795 19.27548H-1.9265"/>
<use data-text="0" xlink:href="#font_2_121" transform="matrix(9.962799,0,0,-9.963197,1.2167282,196.18999)"/>
<use data-text="." xlink:href="#font_2_88" transform="matrix(9.962799,0,0,-9.963197,6.1981279,196.18999)"/>
<use data-text="2" xlink:href="#font_2_107" transform="matrix(9.962799,0,0,-9.963197,8.967781,196.18999)"/>
<path transform="matrix(1.00002,0,0,-1.00006,19.5951,212.25795)" stroke-width=".79701" stroke-linecap="butt" stroke-miterlimit="10" stroke-linejoin="miter" fill="none" stroke="#000000" d="M38.55098 1.92795V-1.9265"/>
<use data-text="0" xlink:href="#font_2_121" transform="matrix(9.962799,0,0,-9.963197,51.780748,224.6487)"/>
<use data-text="." xlink:href="#font_2_88" transform="matrix(9.962799,0,0,-9.963197,56.762147,224.6487)"/>
<use data-text="4" xlink:href="#font_2_57" transform="matrix(9.962799,0,0,-9.963197,59.5318,224.6487)"/>
<path transform="matrix(1.00002,0,0,-1.00006,19.5951,212.25795)" stroke-width=".79701" stroke-linecap="butt" stroke-miterlimit="10" stroke-linejoin="miter" fill="none" stroke="#000000" d="M1.92795 38.55098H-1.9265"/>
<use data-text="0" xlink:href="#font_2_121" transform="matrix(9.962799,0,0,-9.963197,1.2167282,176.96784)"/>
<use data-text="." xlink:href="#font_2_88" transform="matrix(9.962799,0,0,-9.963197,6.1981279,176.96784)"/>
<use data-text="4" xlink:href="#font_2_57" transform="matrix(9.962799,0,0,-9.963197,8.967781,176.96784)"/>
<path transform="matrix(1.00002,0,0,-1.00006,19.5951,212.25795)" stroke-width=".79701" stroke-linecap="butt" stroke-miterlimit="10" stroke-linejoin="miter" fill="none" stroke="#000000" d="M57.82793 1.92795V-1.9265"/>
<use data-text="0" xlink:href="#font_2_121" transform="matrix(9.962799,0,0,-9.963197,71.058139,224.53969)"/>
<use data-text="." xlink:href="#font_2_88" transform="matrix(9.962799,0,0,-9.963197,76.039539,224.53969)"/>
<use data-text="6" xlink:href="#font_2_101" transform="matrix(9.962799,0,0,-9.963197,78.80919,224.53969)"/>
<path transform="matrix(1.00002,0,0,-1.00006,19.5951,212.25795)" stroke-width=".79701" stroke-linecap="butt" stroke-miterlimit="10" stroke-linejoin="miter" fill="none" stroke="#000000" d="M1.92795 57.82793H-1.9265"/>
<use data-text="0" xlink:href="#font_2_121" transform="matrix(9.962799,0,0,-9.963197,1.2167282,157.63468)"/>
<use data-text="." xlink:href="#font_2_88" transform="matrix(9.962799,0,0,-9.963197,6.1981279,157.63468)"/>
<use data-text="6" xlink:href="#font_2_101" transform="matrix(9.962799,0,0,-9.963197,8.967781,157.63468)"/>
<path transform="matrix(1.00002,0,0,-1.00006,19.5951,212.25795)" stroke-width=".79701" stroke-linecap="butt" stroke-miterlimit="10" stroke-linejoin="miter" fill="none" stroke="#000000" d="M77.10342 1.92795V-1.9265"/>
<use data-text="0" xlink:href="#font_2_121" transform="matrix(9.962799,0,0,-9.963197,90.33352,224.53969)"/>
<use data-text="." xlink:href="#font_2_88" transform="matrix(9.962799,0,0,-9.963197,95.31492,224.53969)"/>
<use data-text="8" xlink:href="#font_2_51" transform="matrix(9.962799,0,0,-9.963197,98.08457,224.53969)"/>
<path transform="matrix(1.00002,0,0,-1.00006,19.5951,212.25795)" stroke-width=".79701" stroke-linecap="butt" stroke-miterlimit="10" stroke-linejoin="miter" fill="none" stroke="#000000" d="M1.92795 77.10342H-1.9265"/>
<use data-text="0" xlink:href="#font_2_121" transform="matrix(9.962799,0,0,-9.963197,1.2167282,138.35852)"/>
<use data-text="." xlink:href="#font_2_88" transform="matrix(9.962799,0,0,-9.963197,6.1981279,138.35852)"/>
<use data-text="8" xlink:href="#font_2_51" transform="matrix(9.962799,0,0,-9.963197,8.967781,138.35852)"/>
<path transform="matrix(1.00002,0,0,-1.00006,19.5951,212.25795)" stroke-width=".79701" stroke-linecap="butt" stroke-miterlimit="10" stroke-linejoin="miter" fill="none" stroke="#000000" d="M96.37897 1.92795V-1.9265"/>
<use data-text="1" xlink:href="#font_2_82" transform="matrix(9.962799,0,0,-9.963197,113.48498,224.53969)"/>
<path transform="matrix(1.00002,0,0,-1.00006,19.5951,212.25795)" stroke-width=".79701" stroke-linecap="butt" stroke-miterlimit="10" stroke-linejoin="miter" fill="none" stroke="#000000" d="M1.92795 96.37897H-1.9265"/>
<use data-text="1" xlink:href="#font_2_82" transform="matrix(9.962799,0,0,-9.963197,8.967888,119.191379)"/>
<path transform="matrix(1.00002,0,0,-1.00006,19.5951,212.25795)" stroke-width=".79701" stroke-linecap="butt" stroke-miterlimit="10" stroke-linejoin="miter" fill="none" stroke="#000000" d="M115.65445 1.92795V-1.9265"/>
<use data-text="1" xlink:href="#font_2_82" transform="matrix(9.962799,0,0,-9.963197,128.88529,224.53969)"/>
<use data-text="." xlink:href="#font_2_88" transform="matrix(9.962799,0,0,-9.963197,133.8667,224.53969)"/>
<use data-text="2" xlink:href="#font_2_107" transform="matrix(9.962799,0,0,-9.963197,136.63636,224.53969)"/>
<path transform="matrix(1.00002,0,0,-1.00006,19.5951,212.25795)" stroke-width=".79701" stroke-linecap="butt" stroke-miterlimit="10" stroke-linejoin="miter" fill="none" stroke="#000000" d="M1.92795 115.65445H-1.9265"/>
<use data-text="1" xlink:href="#font_2_82" transform="matrix(9.962799,0,0,-9.963197,1.2167282,99.914218)"/>
<use data-text="." xlink:href="#font_2_88" transform="matrix(9.962799,0,0,-9.963197,6.1981279,99.914218)"/>
<use data-text="2" xlink:href="#font_2_107" transform="matrix(9.962799,0,0,-9.963197,8.967781,99.914218)"/>
<path transform="matrix(1.00002,0,0,-1.00006,19.5951,212.25795)" stroke-width=".79701" stroke-linecap="butt" stroke-miterlimit="10" stroke-linejoin="miter" fill="none" stroke="#000000" d="M134.92996 1.92795V-1.9265"/>
<use data-text="1" xlink:href="#font_2_82" transform="matrix(9.962799,0,0,-9.963197,148.16168,224.6487)"/>
<use data-text="." xlink:href="#font_2_88" transform="matrix(9.962799,0,0,-9.963197,153.14307,224.6487)"/>
<use data-text="4" xlink:href="#font_2_57" transform="matrix(9.962799,0,0,-9.963197,155.91272,224.6487)"/>
<path transform="matrix(1.00002,0,0,-1.00006,19.5951,212.25795)" stroke-width=".79701" stroke-linecap="butt" stroke-miterlimit="10" stroke-linejoin="miter" fill="none" stroke="#000000" d="M1.92795 134.92996H-1.9265"/>
<use data-text="1" xlink:href="#font_2_82" transform="matrix(9.962799,0,0,-9.963197,1.2167282,80.69206)"/>
<use data-text="." xlink:href="#font_2_88" transform="matrix(9.962799,0,0,-9.963197,6.1981279,80.69206)"/>
<use data-text="4" xlink:href="#font_2_57" transform="matrix(9.962799,0,0,-9.963197,8.967781,80.69206)"/>
<path transform="matrix(1.00002,0,0,-1.00006,19.5951,212.25795)" stroke-width=".79701" stroke-linecap="butt" stroke-miterlimit="10" stroke-linejoin="miter" fill="none" stroke="#000000" d="M154.2069 1.92795V-1.9265"/>
<use data-text="1" xlink:href="#font_2_82" transform="matrix(9.962799,0,0,-9.963197,167.43906,224.53969)"/>
<use data-text="." xlink:href="#font_2_88" transform="matrix(9.962799,0,0,-9.963197,172.42047,224.53969)"/>
<use data-text="6" xlink:href="#font_2_101" transform="matrix(9.962799,0,0,-9.963197,175.19013,224.53969)"/>
<path transform="matrix(1.00002,0,0,-1.00006,19.5951,212.25795)" stroke-width=".79701" stroke-linecap="butt" stroke-miterlimit="10" stroke-linejoin="miter" fill="none" stroke="#000000" d="M1.92795 154.2069H-1.9265"/>
<use data-text="1" xlink:href="#font_2_82" transform="matrix(9.962799,0,0,-9.963197,1.2167282,61.24991)"/>
<use data-text="." xlink:href="#font_2_88" transform="matrix(9.962799,0,0,-9.963197,6.1981279,61.24991)"/>
<use data-text="6" xlink:href="#font_2_101" transform="matrix(9.962799,0,0,-9.963197,8.967781,61.24991)"/>
<path transform="matrix(1.00002,0,0,-1.00006,19.5951,212.25795)" stroke-width=".79701" stroke-linecap="butt" stroke-miterlimit="10" stroke-linejoin="miter" fill="none" stroke="#000000" d="M173.4824 1.92795V-1.9265"/>
<use data-text="1" xlink:href="#font_2_82" transform="matrix(9.962799,0,0,-9.963197,186.71445,224.53969)"/>
<use data-text="." xlink:href="#font_2_88" transform="matrix(9.962799,0,0,-9.963197,191.69583,224.53969)"/>
<use data-text="8" xlink:href="#font_2_51" transform="matrix(9.962799,0,0,-9.963197,194.46549,224.53969)"/>
<path transform="matrix(1.00002,0,0,-1.00006,19.5951,212.25795)" stroke-width=".79701" stroke-linecap="butt" stroke-miterlimit="10" stroke-linejoin="miter" fill="none" stroke="#000000" d="M1.92795 173.4824H-1.9265"/>
<use data-text="1" xlink:href="#font_2_82" transform="matrix(9.962799,0,0,-9.963197,1.2167282,41.97374)"/>
<use data-text="." xlink:href="#font_2_88" transform="matrix(9.962799,0,0,-9.963197,6.1981279,41.97374)"/>
<use data-text="8" xlink:href="#font_2_51" transform="matrix(9.962799,0,0,-9.963197,8.967781,41.97374)"/>
<path transform="matrix(1.00002,0,0,-1.00006,19.5951,212.25795)" stroke-width=".79701" stroke-linecap="butt" stroke-miterlimit="10" stroke-linejoin="miter" fill="none" stroke="#000000" d="M192.75795 1.92795V-1.9265"/>
<use data-text="2" xlink:href="#font_2_107" transform="matrix(9.962799,0,0,-9.963197,209.8659,224.53969)"/>
<path transform="matrix(1.00002,0,0,-1.00006,19.5951,212.25795)" stroke-width=".79701" stroke-linecap="butt" stroke-miterlimit="10" stroke-linejoin="miter" fill="none" stroke="#000000" d="M1.92795 192.75795H-1.9265"/>
<use data-text="2" xlink:href="#font_2_107" transform="matrix(9.962799,0,0,-9.963197,8.967888,22.806595)"/>
<path transform="matrix(1.00002,0,0,-1.00006,19.5951,212.25795)" stroke-width="1.19553" stroke-linecap="butt" stroke-miterlimit="10" stroke-linejoin="miter" fill="none" stroke="#00aeef" d="M96.37897 0V192.75795"/>
<path transform="matrix(1.00002,0,0,-1.00006,19.5951,212.25795)" stroke-width="1.19553" stroke-linecap="butt" stroke-miterlimit="10" stroke-linejoin="miter" fill="none" stroke="#00aeef" d="M0 96.37897H192.75795"/>
<path transform="matrix(1.00002,0,0,-1.00006,19.5951,212.25795)" stroke-width="1.19553" stroke-linecap="butt" stroke-miterlimit="10" stroke-linejoin="miter" fill="none" stroke="#00aeef" d="M192.75795 0V192.75795"/>
<path transform="matrix(1.00002,0,0,-1.00006,19.5951,212.25795)" stroke-width="1.19553" stroke-linecap="butt" stroke-miterlimit="10" stroke-linejoin="miter" fill="none" stroke="#00aeef" d="M0 192.75795H192.75795"/>
<use data-text="0" xlink:href="#font_2_121" transform="matrix(9.962799,0,0,-9.963197,11.093925,222.41356)"/>
<path transform="matrix(1.00002,0,0,-1.00006,19.5951,212.25795)" stroke-width="1.19553" stroke-linecap="butt" stroke-miterlimit="10" stroke-linejoin="miter" fill="none" stroke="#ff0000" d="M0 192.75795 192.75795 0"/>
<path transform="matrix(1.00002,0,0,-1.00006,19.5951,212.25795)" d="M2.40941 192.75795C2.40941 194.08864 1.33069 195.16738 0 195.16738-1.33069 195.16738-2.40941 194.08864-2.40941 192.75795-2.40941 191.42726-1.33069 190.34853 0 190.34853 1.33069 190.34853 2.40941 191.42726 2.40941 192.75795ZM0 192.75795" fill="#0000ff"/>
<path transform="matrix(1.00002,0,0,-1.00006,19.5951,212.25795)" stroke-width=".3985" stroke-linecap="butt" stroke-miterlimit="10" stroke-linejoin="miter" fill="none" stroke="#0000ff" d="M2.40941 192.75795C2.40941 194.08864 1.33069 195.16738 0 195.16738-1.33069 195.16738-2.40941 194.08864-2.40941 192.75795-2.40941 191.42726-1.33069 190.34853 0 190.34853 1.33069 190.34853 2.40941 191.42726 2.40941 192.75795ZM0 192.75795"/>
<path transform="matrix(1.00002,0,0,-1.00006,19.5951,212.25795)" d="M21.6849 173.4824C21.6849 174.8131 20.60617 175.89183 19.27548 175.89183 17.9448 175.89183 16.86606 174.8131 16.86606 173.4824 16.86606 172.15172 17.9448 171.07299 19.27548 171.07299 20.60617 171.07299 21.6849 172.15172 21.6849 173.4824ZM19.27548 173.4824" fill="#0000ff"/>
<path transform="matrix(1.00002,0,0,-1.00006,19.5951,212.25795)" stroke-width=".3985" stroke-linecap="butt" stroke-miterlimit="10" stroke-linejoin="miter" fill="none" stroke="#0000ff" d="M21.6849 173.4824C21.6849 174.8131 20.60617 175.89183 19.27548 175.89183 17.9448 175.89183 16.86606 174.8131 16.86606 173.4824 16.86606 172.15172 17.9448 171.07299 19.27548 171.07299 20.60617 171.07299 21.6849 172.15172 21.6849 173.4824ZM19.27548 173.4824"/>
<path transform="matrix(1.00002,0,0,-1.00006,19.5951,212.25795)" d="M31.32338 163.84392C31.32338 165.1746 30.24464 166.25334 28.91396 166.25334 27.58327 166.25334 26.50453 165.1746 26.50453 163.84392 26.50453 162.51323 27.58327 161.4345 28.91396 161.4345 30.24464 161.4345 31.32338 162.51323 31.32338 163.84392ZM28.91396 163.84392" fill="#0000ff"/>
<path transform="matrix(1.00002,0,0,-1.00006,19.5951,212.25795)" stroke-width=".3985" stroke-linecap="butt" stroke-miterlimit="10" stroke-linejoin="miter" fill="none" stroke="#0000ff" d="M31.32338 163.84392C31.32338 165.1746 30.24464 166.25334 28.91396 166.25334 27.58327 166.25334 26.50453 165.1746 26.50453 163.84392 26.50453 162.51323 27.58327 161.4345 28.91396 161.4345 30.24464 161.4345 31.32338 162.51323 31.32338 163.84392ZM28.91396 163.84392"/>
<path transform="matrix(1.00002,0,0,-1.00006,19.5951,212.25795)" d="M50.59886 144.56844C50.59886 145.89913 49.52013 146.97786 48.18944 146.97786 46.85875 146.97786 45.78001 145.89913 45.78001 144.56844 45.78001 143.23775 46.85875 142.15901 48.18944 142.15901 49.52013 142.15901 50.59886 143.23775 50.59886 144.56844ZM48.18944 144.56844" fill="#0000ff"/>
<path transform="matrix(1.00002,0,0,-1.00006,19.5951,212.25795)" stroke-width=".3985" stroke-linecap="butt" stroke-miterlimit="10" stroke-linejoin="miter" fill="none" stroke="#0000ff" d="M50.59886 144.56844C50.59886 145.89913 49.52013 146.97786 48.18944 146.97786 46.85875 146.97786 45.78001 145.89913 45.78001 144.56844 45.78001 143.23775 46.85875 142.15901 48.18944 142.15901 49.52013 142.15901 50.59886 143.23775 50.59886 144.56844ZM48.18944 144.56844"/>
<path transform="matrix(1.00002,0,0,-1.00006,19.5951,212.25795)" d="M60.23735 134.92996C60.23735 136.26065 59.15862 137.33937 57.82793 137.33937 56.49724 137.33937 55.4185 136.26065 55.4185 134.92996 55.4185 133.59926 56.49724 132.52054 57.82793 132.52054 59.15862 132.52054 60.23735 133.59926 60.23735 134.92996ZM57.82793 134.92996" fill="#0000ff"/>
<path transform="matrix(1.00002,0,0,-1.00006,19.5951,212.25795)" stroke-width=".3985" stroke-linecap="butt" stroke-miterlimit="10" stroke-linejoin="miter" fill="none" stroke="#0000ff" d="M60.23735 134.92996C60.23735 136.26065 59.15862 137.33937 57.82793 137.33937 56.49724 137.33937 55.4185 136.26065 55.4185 134.92996 55.4185 133.59926 56.49724 132.52054 57.82793 132.52054 59.15862 132.52054 60.23735 133.59926 60.23735 134.92996ZM57.82793 134.92996"/>
<path transform="matrix(1.00002,0,0,-1.00006,19.5951,212.25795)" d="M69.87436 125.29294C69.87436 126.62363 68.79564 127.70236 67.46495 127.70236 66.13425 127.70236 65.05553 126.62363 65.05553 125.29294 65.05553 123.96225 66.13425 122.88351 67.46495 122.88351 68.79564 122.88351 69.87436 123.96225 69.87436 125.29294ZM67.46495 125.29294" fill="#0000ff"/>
<path transform="matrix(1.00002,0,0,-1.00006,19.5951,212.25795)" stroke-width=".3985" stroke-linecap="butt" stroke-miterlimit="10" stroke-linejoin="miter" fill="none" stroke="#0000ff" d="M69.87436 125.29294C69.87436 126.62363 68.79564 127.70236 67.46495 127.70236 66.13425 127.70236 65.05553 126.62363 65.05553 125.29294 65.05553 123.96225 66.13425 122.88351 67.46495 122.88351 68.79564 122.88351 69.87436 123.96225 69.87436 125.29294ZM67.46495 125.29294"/>
</svg>
