<svg xmlns="http://www.w3.org/2000/svg" xmlns:xlink="http://www.w3.org/1999/xlink" version="1.1" width="207" height="200" viewBox="0 0 207 200">
<defs>
<path id="font_1_2" d="M.46199037 .33935548C.46699525 .36135865 .47698976 .3983612 .47698976 .40437318 .47698976 .42237855 .46299745 .43138124 .44799806 .43138124 .43598939 .43138124 .41799928 .42337037 .41099549 .4033661 .4079895 .3963623 .36099244 .205307 .35398866 .17930603 .34700013 .14929199 .34498597 .13128662 .34498597 .11328125 .34498597 .10227966 .34498597 .10028076 .34599305 .09527588 .32299806 .042266847 .29299928 .011245728 .2539978 .011245728 .17399597 .011245728 .17399597 .08526611 .17399597 .10227966 .17399597 .1342926 .1789856 .17329407 .22599793 .29634095 .23699951 .32633973 .24299622 .3403473 .24299622 .36035157 .24299622 .405365 .20999146 .4423828 .16099549 .4423828 .06599426 .4423828 .0289917 .29733277 .0289917 .28833009 .0289917 .27833558 .038986207 .27833558 .040985109 .27833558 .050994874 .27833558 .051986696 .28033448 .056991579 .29634095 .083999637 .38935853 .12298584 .42037965 .1579895 .42037965 .16699219 .42037965 .18299866 .41937257 .18299866 .38735963 .18299866 .36235047 .17199707 .3343506 .16499329 .31733705 .12098694 .1993103 .10899353 .1532898 .10899353 .11528015 .10899353 .024261475 .17599488-.0107421879 .25099183-.0107421879 .2679901-.0107421879 .31498719-.0107421879 .35499574 .059265138 .3809967-.0047454836 .44999696-.0107421879 .47999574-.0107421879 .5549927-.0107421879 .598999 .052261354 .625 .11227417 .6589966 .19030762 .69099429 .32434083 .69099429 .37236024 .69099429 .42736817 .6639862 .4423828 .6469879 .4423828 .621994 .4423828 .5970001 .41636659 .5970001 .3943634 .5970001 .38136292 .6029968 .3753662 .6119995 .36735536 .6230011 .35635377 .647995 .33035279 .647995 .28233338 .647995 .24832154 .61898806 .15029907 .59298709 .09927368 .5669861 .04626465 .5319977 .011245728 .48298646 .011245728 .43598939 .011245728 .40899659 .041259767 .40899659 .09828186 .40899659 .12628174 .41600038 .1572876 .41999818 .17129517L.46199037 .33935548Z"/>
<path id="font_1_1" d="M.43798829 .0055236818C.59298709 .0644989 .73999026 .24256897 .73999026 .43579103 .73999026 .5969696 .6339874 .7050781 .4850006 .7050781 .2689972 .7050781 .04899597 .47784425 .04899597 .24456787 .04899597 .07847595 .16099549-.022460938 .30499269-.022460938 .32998658-.022460938 .3639984-.018463135 .40299989-.007461548 .39898683-.06939697 .39898683-.071380618 .39898683-.084365848 .39898683-.11634827 .39898683-.19433594 .48199464-.19433594 .6009979-.19433594 .6489868-.011474609 .6489868-.00047302247 .6489868 .0065307619 .6419983 .009521484 .6380005 .009521484 .6299896 .009521484 .6279907 .0045318605 .6259918-.0014648438 .60198977-.072387699 .5439911-.097335819 .5089874-.097335819 .46299745-.097335819 .44799806-.070388797 .43798829 .0055236818M.24899292 .013519287C.17098999 .044509889 .13699341 .12245178 .13699341 .21252442 .13699341 .2816162 .16299439 .4237671 .23899842 .5319061 .31199647 .63401797 .4059906 .68006899 .47898866 .68006899 .57899478 .68006899 .6519928 .6019745 .6519928 .4678192 .6519928 .3677063 .6009979 .13345337 .43299867 .039505006 .42799378 .07447815 .41799928 .14746094 .34498597 .14746094 .2919922 .14746094 .24299622 .097473148 .24299622 .04550171 .24299622 .025512696 .24899292 .014526367 .24899292 .013519287M.31098939 .002532959C.29699708 .002532959 .2649994 .002532959 .2649994 .04550171 .2649994 .08547974 .30299378 .12545777 .34498597 .12545777 .3869934 .12545777 .4059906 .10147095 .4059906 .040512086 .4059906 .025512696 .40499879 .024520874 .394989 .020523072 .36898805 .009521484 .33898927 .002532959 .31098939 .002532959Z"/>
<path id="font_2_56" d="M.44898988 .20091248C.44898988 .31991578 .36698915 .41992188 .25898744 .41992188 .21099854 .41992188 .16799927 .4039154 .13198853 .36891175V.5641022C.1519928 .55778506 .18499756 .55078127 .21699524 .55078127 .33999635 .55078127 .4099884 .6418457 .4099884 .65493777 .4099884 .6609802 .40699769 .6660156 .3999939 .6660156 .3999939 .66607668 .39698792 .66607668 .3919983 .66308596 .37199403 .65408328 .32299806 .63378909 .2559967 .63378909 .21598816 .63409426 .16999817 .641098 .12298584 .6621094 .114990238 .6651001 .11099243 .6651001 .11099243 .6651001 .100997928 .66508486 .100997928 .657074 .100997928 .64108279V.3447113C.100997928 .3266449 .100997928 .31861878 .114990238 .31861878 .12199402 .31861878 .12399292 .32164 .12799073 .32765199 .13899231 .34371949 .17599488 .3979187 .25698854 .3979187 .30899049 .3979187 .33399964 .3517456 .34199525 .3336792 .35798646 .2965393 .3600006 .2574005 .3600006 .20721436 .3600006 .17218018 .3600006 .112197879 .33599855 .07032776 .31199647 .031448366 .2749939 .0055389406 .22898865 .0055389406 .1559906 .0055389406 .09899902 .05836487 .08198547 .1171875 .084991458 .11685181 .08799744 .115859989 .09899902 .115859989 .13198853 .115859989 .14898682 .14085388 .14898682 .16485596 .14898682 .18885803 .13198853 .21386719 .09899902 .21386719 .084991458 .21386719 .049987794 .2068634 .049987794 .16085816 .049987794 .07432556 .11898804-.022460938 .23098755-.022460938 .34700013-.022460938 .44898988 .07331848 .44898988 .20019531V.20091248Z"/>
<path id="font_2_82" d="M.4189911 0V.0309906H.3869934C.29699708 .0309906 .2939911 .041992189 .2939911 .07902527V.64012148C.2939911 .6640167 .2939911 .6660156 .2709961 .6660156 .20899964 .60227969 .12098694 .60227969 .08898926 .60227969V.57128909C.10899353 .57128909 .16799927 .57128909 .21998596 .5972748V.07902527C.21998596 .042999269 .21699524 .0309906 .1269989 .0309906H.09498596V0C.12998963 .0029907227 .21699524 .0029907227 .25698854 .0029907227 .29699708 .0029907227 .38398744 .0029907227 .4189911 0Z"/>
<path id="font_2_121" d="M.45999146 .31976319C.45999146 .39982606 .45498658 .47988893 .41999818 .5539398 .37399293 .65000918 .2919922 .6660156 .25 .6660156 .18998719 .6660156 .116989139 .64001467 .07598877 .54693606 .04399109 .47789 .038986207 .39982606 .038986207 .31976319 .038986207 .24472046 .042999269 .15464783 .083999637 .07859802 .1269989-.0024719239 .19999695-.022460938 .24899292-.022460938 .30299378-.022460938 .3789978-.0014648438 .4229889 .09359741 .45498658 .16265869 .45999146 .2407074 .45999146 .31976319M.3769989 .3317871C.3769989 .25672914 .3769989 .18867493 .3659973 .12461853 .35099793 .029556275 .2939911-.00047302247 .24899292-.00047302247 .20999146-.00047302247 .15098572 .024551392 .1329956 .12062073 .12199402 .18066406 .12199402 .2727356 .12199402 .3317871 .12199402 .39582826 .12199402 .46188355 .12998963 .5159149 .14898682 .63500979 .22399903 .64401248 .24899292 .64401248 .28199769 .64401248 .34799195 .6259918 .36698915 .52693179 .3769989 .47088624 .3769989 .39482118 .3769989 .3317871Z"/>
</defs>
<path transform="matrix(1.00002,0,0,-1,15.067085,186.71)" stroke-width=".3985" stroke-linecap="butt" stroke-miterlimit="10" stroke-linejoin="miter" fill="none" stroke="#00aeef" d="M0 0H170.08257M0 28.3468H170.08257M0 56.69362H170.08257M0 85.04042H170.08257M0 113.38724H170.08257M0 141.73404H170.08257M0 170.07587H170.08257M0 0V170.08086M17.00824 0V170.08086M34.0165 0V170.08086M51.02477 0V170.08086M68.03302 0V170.08086M85.04128 0V170.08086M102.04953 0V170.08086M119.0578 0V170.08086M136.06606 0V170.08086M153.07433 0V170.08086M170.0766 0V170.08086M170.08257 170.08086"/>
<path transform="matrix(1.00002,0,0,-1,15.067085,186.71)" stroke-width=".79701" stroke-linecap="butt" stroke-miterlimit="10" stroke-linejoin="miter" fill="none" stroke="#000000" d="M0 0H178.85301"/>
<path transform="matrix(1.00002,0,0,-1,193.92368,186.71)" d="M1.0361 0C-.25902 .25902-1.55415 .77707-3.1083 1.68365-1.55415 .51805-1.55415-.51805-3.1083-1.68365-1.55415-.77707-.25902-.25902 1.0361 0Z"/>
<path transform="matrix(1.00002,0,0,-1,193.92368,186.71)" stroke-width=".79701" stroke-linecap="butt" stroke-linejoin="round" fill="none" stroke="#000000" d="M1.0361 0C-.25902 .25902-1.55415 .77707-3.1083 1.68365-1.55415 .51805-1.55415-.51805-3.1083-1.68365-1.55415-.77707-.25902-.25902 1.0361 0Z"/>
<use data-text="w" xlink:href="#font_1_2" transform="matrix(9.962799,0,0,-9.9626,199.07779,188.85501)"/>
<path transform="matrix(1.00002,0,0,-1,15.067085,186.71)" stroke-width=".79701" stroke-linecap="butt" stroke-miterlimit="10" stroke-linejoin="miter" fill="none" stroke="#000000" d="M0 0V179.985"/>
<path transform="matrix(0,-1,-1.00002,-0,15.067085,6.725006)" d="M1.0361 0C-.25902 .25902-1.55415 .77707-3.1083 1.68365-1.55415 .51805-1.55415-.51805-3.1083-1.68365-1.55415-.77707-.25902-.25902 1.0361 0Z"/>
<path transform="matrix(0,-1,-1.00002,-0,15.067085,6.725006)" stroke-width=".79701" stroke-linecap="butt" stroke-linejoin="round" fill="none" stroke="#000000" d="M1.0361 0C-.25902 .25902-1.55415 .77707-3.1083 1.68365-1.55415 .51805-1.55415-.51805-3.1083-1.68365-1.55415-.77707-.25902-.25902 1.0361 0Z"/>
<use data-text="Q" xlink:href="#font_1_1" transform="matrix(9.962799,0,0,-9.9626,3.4718552,7.726013)"/>
<path transform="matrix(1.00002,0,0,-1,15.067085,186.71)" stroke-width="1.19553" stroke-linecap="butt" stroke-miterlimit="10" stroke-linejoin="miter" fill="none" stroke="#00aeef" d="M85.04128 0V170.08086"/>
<path transform="matrix(1.00002,0,0,-1,15.067085,186.71)" stroke-width=".79701" stroke-linecap="butt" stroke-miterlimit="10" stroke-linejoin="miter" fill="none" stroke="#000000" d="M85.04128 1.4174V-1.41719"/>
<use data-text="5" xlink:href="#font_2_56" transform="matrix(9.962799,0,0,-9.9626,97.61974,198.481)"/>
<path transform="matrix(1.00002,0,0,-1,15.067085,186.71)" stroke-width="1.19553" stroke-linecap="butt" stroke-miterlimit="10" stroke-linejoin="miter" fill="none" stroke="#00aeef" d="M170.08257 0V170.08086"/>
<path transform="matrix(1.00002,0,0,-1,15.067085,186.71)" stroke-width=".79701" stroke-linecap="butt" stroke-miterlimit="10" stroke-linejoin="miter" fill="none" stroke="#000000" d="M170.08257 1.4174V-1.41719"/>
<use data-text="1" xlink:href="#font_2_82" transform="matrix(9.962799,0,0,-9.9626,180.17139,198.481)"/>
<use data-text="0" xlink:href="#font_2_121" transform="matrix(9.962799,0,0,-9.9626,185.1528,198.481)"/>
<path transform="matrix(1.00002,0,0,-1,15.067085,186.71)" stroke-width="1.19553" stroke-linecap="butt" stroke-miterlimit="10" stroke-linejoin="miter" fill="none" stroke="#00aeef" d="M0 70.867H170.08257"/>
<path transform="matrix(1.00002,0,0,-1,15.067085,186.71)" stroke-width=".79701" stroke-linecap="butt" stroke-miterlimit="10" stroke-linejoin="miter" fill="none" stroke="#000000" d="M.85043 70.867H-.85045"/>
<use data-text="5" xlink:href="#font_2_56" transform="matrix(9.962799,0,0,-9.9626,5.515892,119.05101)"/>
<path transform="matrix(1.00002,0,0,-1,15.067085,186.71)" stroke-width="1.19553" stroke-linecap="butt" stroke-miterlimit="10" stroke-linejoin="miter" fill="none" stroke="#00aeef" d="M0 141.73404H170.08257"/>
<path transform="matrix(1.00002,0,0,-1,15.067085,186.71)" stroke-width=".79701" stroke-linecap="butt" stroke-miterlimit="10" stroke-linejoin="miter" fill="none" stroke="#000000" d="M.85043 141.73404H-.85045"/>
<use data-text="1" xlink:href="#font_2_82" transform="matrix(9.962799,0,0,-9.9626,.53479769,48.184007)"/>
<use data-text="0" xlink:href="#font_2_121" transform="matrix(9.962799,0,0,-9.9626,5.516197,48.184007)"/>
<path transform="matrix(1.00002,0,0,-1,15.067085,186.71)" stroke-width="1.19553" stroke-linecap="butt" stroke-miterlimit="10" stroke-linejoin="miter" fill="none" stroke="#ff0000" d="M0 170.08086C0 170.08086 1.92006 160.94475 2.65753 157.75568 3.39497 154.5666 4.5776 149.8668 5.31506 147.0962 6.05252 144.3256 7.23515 140.21672 7.97261 137.78713 8.71005 135.35753 9.8927 131.73337 10.63014 129.58535 11.3676 127.4373 12.55023 124.2182 13.28767 122.3055 14.02515 120.3928 15.20776 117.51404 15.94522 115.79993 16.68268 114.08582 17.86531 111.49629 18.60275 109.95135 19.34023 108.40642 20.52284 106.0646 21.26031 104.6651 21.99776 103.26558 23.18037 101.13843 23.91785 99.86456 24.65529 98.59071 25.83792 96.64842 26.57538 95.48404 27.31284 94.31964 28.49548 92.5409 29.23293 91.47247 29.97038 90.40404 31.15302 88.76743 31.89047 87.78357 32.62793 86.7997 33.81056 85.29034 34.548 84.38144 35.28548 83.47253 36.4681 82.07509 37.20554 81.23279 37.94301 80.39046 39.12563 79.09326 39.8631 78.31055 40.60054 77.52786 41.78317 76.32082 42.52063 75.59161 43.25809 74.86243 44.4407 73.73607 45.17818 73.055 45.91562 72.37393 47.09825 71.32045 47.83571 70.68295 48.57315 70.04547 49.7558 69.0584 50.49324 68.46037 51.2307 67.86234 52.41333 66.93477 53.15079 66.37273 53.88824 65.81067 55.07088 64.93869 55.80832 64.40944 56.54579 63.88017 57.72842 63.05745 58.46588 62.55817 59.20334 62.0589 60.38596 61.28265 61.12341 60.81093 61.86087 60.33923 63.04349 59.60486 63.78096 59.15842 64.5184 58.71198 65.70105 58.01636 66.43849 57.59328 67.17595 57.17023 68.35858 56.51079 69.09604 56.10925 69.83348 55.70769 71.01611 55.08083 71.75357 54.69917 72.49103 54.3175 73.67366 53.72159 74.4111 53.35852 75.14857 52.99544 76.33119 52.42822 77.06865 52.08232 77.8061 51.7364 78.98874 51.19539 79.7262 50.86537 80.46365 50.53537 81.64627 50.01889 82.38373 49.70378 83.12119 49.3887 84.30382 48.89543 85.04128 48.59433 85.77873 48.29321 86.96136 47.82166 87.69882 47.53354 88.43626 47.24542 89.61891 46.79366 90.35635 46.51772 91.09383 46.24178 92.27644 45.80922 93.0139 45.54472 93.75136 45.28021 94.93398 44.86511 95.67143 44.61131 96.40889 44.35751 97.59152 43.9592 98.32898 43.71552 99.06644 43.47185 100.24905 43.08914 100.98653 42.85498 101.72397 42.6208 102.9066 42.25298 103.64406 42.02776 104.38152 41.80254 105.56415 41.44843 106.30159 41.23166 107.03905 41.0149 108.22168 40.67421 108.95914 40.46542 109.6966 40.25664 110.87923 39.92813 111.61667 39.72687 112.35414 39.52562 113.53677 39.209 114.27422 39.01491 115.01169 38.82083 116.1943 38.51538 116.93178 38.32805 117.66922 38.14072 118.85184 37.84563 119.58931 37.66475 120.32675 37.48386 121.50938 37.1991 122.24684 37.02437 122.9843 36.84966 124.16693 36.5744 124.90439 36.40541 125.64183 36.23642 126.82448 35.96982 127.56192 35.80635 128.29938 35.64287 129.48201 35.38536 130.21945 35.22717 130.95693 35.06898 132.13954 34.8194 132.877 34.66617 133.61446 34.51297 134.79709 34.27138 135.53453 34.1229 136.272 33.97444 137.45462 33.74 138.1921 33.59607 138.92954 33.45213 140.11215 33.22502 140.84963 33.08546 141.58707 32.94592 142.76972 32.72563 143.50717 32.59021 144.24462 32.45479 145.42726 32.24089 146.1647 32.10945 146.90216 31.97798 148.0848 31.77036 148.82225 31.64273 149.55971 31.51512 150.74234 31.31363 151.47978 31.18965 152.21726 31.06566 153.39987 30.86964 154.13732 30.74911 154.87479 30.62857 156.0574 30.43811 156.79488 30.3209 157.53232 30.20369 158.71495 30.01839 159.45241 29.90437 160.18987 29.79033 161.37248 29.61005 162.10996 29.49908 162.8474 29.38812 164.03003 29.2126 164.76749 29.1046 165.50493 28.99661 166.68758 28.82587 167.42502 28.72072 168.16249 28.61559 170.08257 28.3468 170.08257 28.3468"/>
<path transform="matrix(1.00002,0,0,-1,15.067085,186.71)" d="M2.55122 170.08086C2.55122 171.48987 1.409 172.63207 0 172.63207-1.409 172.63207-2.55122 171.48987-2.55122 170.08086-2.55122 168.67185-1.409 167.52965 0 167.52965 1.409 167.52965 2.55122 168.67185 2.55122 170.08086ZM0 170.08086" fill="#0000ff"/>
<path transform="matrix(1.00002,0,0,-1,15.067085,186.71)" stroke-width=".3985" stroke-linecap="butt" stroke-miterlimit="10" stroke-linejoin="miter" fill="none" stroke="#0000ff" d="M2.55122 170.08086C2.55122 171.48987 1.409 172.63207 0 172.63207-1.409 172.63207-2.55122 171.48987-2.55122 170.08086-2.55122 168.67185-1.409 167.52965 0 167.52965 1.409 167.52965 2.55122 168.67185 2.55122 170.08086ZM0 170.08086"/>
<path transform="matrix(1.00002,0,0,-1,15.067085,186.71)" d="M19.55946 113.38724C19.55946 114.79625 18.41725 115.93845 17.00824 115.93845 15.59923 115.93845 14.45702 114.79625 14.45702 113.38724 14.45702 111.97823 15.59923 110.83601 17.00824 110.83601 18.41725 110.83601 19.55946 111.97823 19.55946 113.38724ZM17.00824 113.38724" fill="#0000ff"/>
<path transform="matrix(1.00002,0,0,-1,15.067085,186.71)" stroke-width=".3985" stroke-linecap="butt" stroke-miterlimit="10" stroke-linejoin="miter" fill="none" stroke="#0000ff" d="M19.55946 113.38724C19.55946 114.79625 18.41725 115.93845 17.00824 115.93845 15.59923 115.93845 14.45702 114.79625 14.45702 113.38724 14.45702 111.97823 15.59923 110.83601 17.00824 110.83601 18.41725 110.83601 19.55946 111.97823 19.55946 113.38724ZM17.00824 113.38724"/>
<path transform="matrix(1.00002,0,0,-1,15.067085,186.71)" d="M36.56773 85.04042C36.56773 86.44943 35.4255 87.59163 34.0165 87.59163 32.6075 87.59163 31.46527 86.44943 31.46527 85.04042 31.46527 83.63141 32.6075 82.48921 34.0165 82.48921 35.4255 82.48921 36.56773 83.63141 36.56773 85.04042ZM34.0165 85.04042" fill="#0000ff"/>
<path transform="matrix(1.00002,0,0,-1,15.067085,186.71)" stroke-width=".3985" stroke-linecap="butt" stroke-miterlimit="10" stroke-linejoin="miter" fill="none" stroke="#0000ff" d="M36.56773 85.04042C36.56773 86.44943 35.4255 87.59163 34.0165 87.59163 32.6075 87.59163 31.46527 86.44943 31.46527 85.04042 31.46527 83.63141 32.6075 82.48921 34.0165 82.48921 35.4255 82.48921 36.56773 83.63141 36.56773 85.04042ZM34.0165 85.04042"/>
<path transform="matrix(1.00002,0,0,-1,15.067085,186.71)" d="M70.58426 56.69362C70.58426 58.10262 69.44203 59.24483 68.03302 59.24483 66.62401 59.24483 65.4818 58.10262 65.4818 56.69362 65.4818 55.2846 66.62401 54.1424 68.03302 54.1424 69.44203 54.1424 70.58426 55.2846 70.58426 56.69362ZM68.03302 56.69362" fill="#0000ff"/>
<path transform="matrix(1.00002,0,0,-1,15.067085,186.71)" stroke-width=".3985" stroke-linecap="butt" stroke-miterlimit="10" stroke-linejoin="miter" fill="none" stroke="#0000ff" d="M70.58426 56.69362C70.58426 58.10262 69.44203 59.24483 68.03302 59.24483 66.62401 59.24483 65.4818 58.10262 65.4818 56.69362 65.4818 55.2846 66.62401 54.1424 68.03302 54.1424 69.44203 54.1424 70.58426 55.2846 70.58426 56.69362ZM68.03302 56.69362"/>
<path transform="matrix(1.00002,0,0,-1,15.067085,186.71)" d="M104.60077 42.5202C104.60077 43.92921 103.45854 45.07141 102.04953 45.07141 100.64052 45.07141 99.4983 43.92921 99.4983 42.5202 99.4983 41.11119 100.64052 39.969 102.04953 39.969 103.45854 39.969 104.60077 41.11119 104.60077 42.5202ZM102.04953 42.5202" fill="#0000ff"/>
<path transform="matrix(1.00002,0,0,-1,15.067085,186.71)" stroke-width=".3985" stroke-linecap="butt" stroke-miterlimit="10" stroke-linejoin="miter" fill="none" stroke="#0000ff" d="M104.60077 42.5202C104.60077 43.92921 103.45854 45.07141 102.04953 45.07141 100.64052 45.07141 99.4983 43.92921 99.4983 42.5202 99.4983 41.11119 100.64052 39.969 102.04953 39.969 103.45854 39.969 104.60077 41.11119 104.60077 42.5202ZM102.04953 42.5202"/>
<path transform="matrix(1.00002,0,0,-1,15.067085,186.71)" d="M172.63379 28.3468C172.63379 29.75581 171.49158 30.89801 170.08257 30.89801 168.67356 30.89801 167.53134 29.75581 167.53134 28.3468 167.53134 26.93779 168.67356 25.7956 170.08257 25.7956 171.49158 25.7956 172.63379 26.93779 172.63379 28.3468ZM170.08257 28.3468" fill="#0000ff"/>
<path transform="matrix(1.00002,0,0,-1,15.067085,186.71)" stroke-width=".3985" stroke-linecap="butt" stroke-miterlimit="10" stroke-linejoin="miter" fill="none" stroke="#0000ff" d="M172.63379 28.3468C172.63379 29.75581 171.49158 30.89801 170.08257 30.89801 168.67356 30.89801 167.53134 29.75581 167.53134 28.3468 167.53134 26.93779 168.67356 25.7956 170.08257 25.7956 171.49158 25.7956 172.63379 26.93779 172.63379 28.3468ZM170.08257 28.3468"/>
<use data-text="0" xlink:href="#font_2_121" transform="matrix(9.962799,0,0,-9.9626,6.5659105,196.865)"/>
</svg>
