<svg xmlns="http://www.w3.org/2000/svg" xmlns:xlink="http://www.w3.org/1999/xlink" version="1.1" width="181" height="176" viewBox="0 0 181 176">
<defs>
<path id="font_1_1" d="M.7599945 .69506838C.7599945 .69807437 .7579956 .7050781 .7489929 .7050781 .74598696 .7050781 .7449951 .70407107 .73399356 .69306948L.6639862 .61602786C.6549988 .6300354 .60899356 .7050781 .49798585 .7050781 .2749939 .7050781 .049987794 .48391725 .049987794 .25172425 .049987794 .08659363 .16799927-.022460938 .32099916-.022460938 .4079895-.022460938 .48399354 .017532349 .5369873 .063583377 .6299896 .14564514 .6469879 .2367096 .6469879 .23971558 .6469879 .24972534 .6369934 .24972534 .6349945 .24972534 .6289978 .24972534 .6239929 .24772644 .621994 .23971558 .61299136 .21069336 .58999636 .13963318 .5209961 .081588748 .45199586 .025543213 .3889923 .008529663 .33699037 .008529663 .24699402 .008529663 .14099121 .060577394 .14099121 .21670532 .14099121 .27374269 .1619873 .43588258 .2619934 .55296328 .32299806 .62402346 .4169922 .67407229 .5059967 .67407229 .60798647 .67407229 .6669922 .5970001 .6669922 .48091126 .6669922 .44088746 .6639862 .43988038 .6639862 .4298706 .6639862 .41986085 .6749878 .41986085 .67900088 .41986085 .69200137 .41986085 .69200137 .42185975 .69699099 .43988038L.7599945 .69506838Z"/>
<path id="font_1_2" d="M.30299378 .3244629H.3999939C.47499085 .3244629 .48298646 .30848695 .48298646 .27954103 .48298646 .2725525 .48298646 .26057435 .47599793 .2306366 .47399903 .22564698 .47299195 .22164917 .47299195 .21965027 .47299195 .21166992 .47898866 .20767212 .4850006 .20767212 .49499513 .20767212 .49499513 .21066284 .5 .2286377L.5549927 .44551087C.55799868 .45651246 .55799868 .45851136 .55799868 .46151734 .55799868 .46351625 .55599978 .47251893 .54599 .47251893 .5359955 .47251893 .5349884 .46751405 .5309906 .45150758 .5099945 .37347413 .4869995 .35546876 .4019928 .35546876H.31098939L.375 .6095886C.38398744 .64460757 .3849945 .64860537 .42900086 .64860537H.5609894C.6839905 .64860537 .70700076 .6156006 .70700076 .53855898 .70700076 .5155487 .70700076 .51153567 .70399478 .4845276 .70199587 .4715271 .70199587 .46951295 .70199587 .46652223 .70199587 .46151734 .7049866 .45451356 .71398928 .45451356 .72499087 .45451356 .7259979 .46051026 .7279968 .4795227L.7480011 .65260317C.7509918 .6796112 .74598696 .6796112 .72099307 .6796112H.23098755C.21099854 .6796112 .20098877 .6796112 .20098877 .65960696 .20098877 .64860537 .20999146 .64860537 .22898865 .64860537 .2659912 .64860537 .2939911 .64860537 .2939911 .6306 .2939911 .6266022 .2939911 .6246033 .2889862 .60658267L.15699768 .07791138C.14698792 .038970949 .14498902 .0309906 .06599426 .0309906 .04899597 .0309906 .037994386 .0309906 .037994386 .011993408 .037994386 0 .049987794 0 .052993776 0 .08198547 0 .1559906 .0029907227 .18499756 .0029907227 .21798706 .0029907227 .30099488 0 .33399964 0 .34298707 0 .35499574 0 .35499574 .018997193 .35499574 .026992798 .34899903 .0289917 .34899903 .02999878 .34599305 .0309906 .34399415 .0309906 .32099916 .0309906 .29899598 .0309906 .2939911 .0309906 .2689972 .032989503 .23999024 .035980226 .23699951 .039978029 .23699951 .052947999 .23699951 .0549469 .23699951 .060943605 .24099732 .075912479L.30299378 .3244629Z"/>
<path id="font_2_82" d="M.4189911 0V.0309906H.3869934C.29699708 .0309906 .2939911 .041992189 .2939911 .07902527V.64012148C.2939911 .6640167 .2939911 .6660156 .2709961 .6660156 .20899964 .60227969 .12098694 .60227969 .08898926 .60227969V.57128909C.10899353 .57128909 .16799927 .57128909 .21998596 .5972748V.07902527C.21998596 .042999269 .21699524 .0309906 .1269989 .0309906H.09498596V0C.12998963 .0029907227 .21699524 .0029907227 .25698854 .0029907227 .29699708 .0029907227 .38398744 .0029907227 .4189911 0Z"/>
<path id="font_2_121" d="M.45999146 .31976319C.45999146 .39982606 .45498658 .47988893 .41999818 .5539398 .37399293 .65000918 .2919922 .6660156 .25 .6660156 .18998719 .6660156 .116989139 .64001467 .07598877 .54693606 .04399109 .47789 .038986207 .39982606 .038986207 .31976319 .038986207 .24472046 .042999269 .15464783 .083999637 .07859802 .1269989-.0024719239 .19999695-.022460938 .24899292-.022460938 .30299378-.022460938 .3789978-.0014648438 .4229889 .09359741 .45498658 .16265869 .45999146 .2407074 .45999146 .31976319M.3769989 .3317871C.3769989 .25672914 .3769989 .18867493 .3659973 .12461853 .35099793 .029556275 .2939911-.00047302247 .24899292-.00047302247 .20999146-.00047302247 .15098572 .024551392 .1329956 .12062073 .12199402 .18066406 .12199402 .2727356 .12199402 .3317871 .12199402 .39582826 .12199402 .46188355 .12998963 .5159149 .14898682 .63500979 .22399903 .64401248 .24899292 .64401248 .28199769 .64401248 .34799195 .6259918 .36698915 .52693179 .3769989 .47088624 .3769989 .39482118 .3769989 .3317871Z"/>
<path id="font_2_107" d="M.44898988 .17396546H.42399598C.4189911 .14398194 .4119873 .099990848 .4019928 .084991458 .394989 .07699585 .32899476 .07699585 .30699159 .07699585H.1269989L.23298645 .17996216C.3889923 .31803895 .44898988 .37210084 .44898988 .47216798 .44898988 .5860901 .35899354 .6660156 .23699951 .6660156 .12399292 .6660156 .049987794 .57411196 .049987794 .48516847 .049987794 .4291687 .099990848 .4291687 .102996829 .4291687 .11999512 .4291687 .15499878 .44117738 .15499878 .48217774 .15499878 .5081787 .13699341 .5341797 .101989749 .5341797 .09399414 .5341797 .09199524 .5341797 .08898926 .5331726 .11199951 .59806826 .1659851 .63500979 .22399903 .63500979 .31498719 .63500979 .35798646 .5541382 .35798646 .47216798 .35798646 .39196778 .30799867 .31297303 .25299073 .25097657L.06098938 .036987306C.049987794 .025985718 .049987794 .023986817 .049987794 0H.42099L.44898988 .17396546Z"/>
<path id="font_2_106" d="M.45700074 .17037964C.45700074 .252594 .3939972 .33088685 .2899933 .35191346 .37199403 .37893678 .42999269 .4490509 .42999269 .52809146 .42999269 .6100464 .34199525 .6660156 .24598694 .6660156 .14498902 .6660156 .068984989 .60606387 .068984989 .53009036 .068984989 .49710084 .09098816 .47808839 .11999512 .47808839 .15098572 .47808839 .17098999 .50009158 .17098999 .5290985 .17098999 .57910159 .12399292 .57910159 .10899353 .57910159 .13999939 .62802127 .20599365 .64100649 .24198914 .64100649 .2829895 .64100649 .33799745 .6190338 .33799745 .5290985 .33799745 .51708987 .33599855 .45906068 .30999757 .4149933 .27999879 .36691285 .24598694 .36390687 .22099304 .36291505 .21299744 .36190797 .18899536 .35990907 .18199158 .35990907 .17399597 .35890199 .16699219 .35791017 .16699219 .3479004 .16699219 .33691407 .17399597 .33691407 .19099427 .33691407H.23498535C.31698609 .33691407 .35398866 .2686615 .35398866 .17037964 .35398866 .034469606 .2849884 .0055389406 .24099732 .0055389406 .19799805 .0055389406 .12298584 .022491456 .08799744 .08137512 .12298584 .07637024 .1539917 .09837341 .1539917 .1363678 .1539917 .17237854 .1269989 .19238281 .09799194 .19238281 .07398987 .19238281 .041992189 .17837525 .041992189 .1343689 .041992189 .043441774 .1349945-.022460938 .24398804-.022460938 .3659973-.022460938 .45700074 .06838989 .45700074 .17037964Z"/>
<path id="font_2_57" d="M.47099305 .16503906V.19602967H.37098695V.6507721C.37098695 .6707611 .37098695 .6767578 .35499574 .6767578 .34599305 .6767578 .34298707 .6767578 .33499146 .6647644L.027999878 .19602967V.16503906H.2939911V.07800293C.2939911 .041992189 .2919922 .0309906 .21798706 .0309906H.19699097V0C.23799134 .0029907227 .2899933 .0029907227 .33198548 .0029907227 .37399293 .0029907227 .4269867 .0029907227 .46798707 0V.0309906H.44699098C.37298585 .0309906 .37098695 .041992189 .37098695 .07800293V.16503906H.47099305M.2999878 .19602967H.055999757L.2999878 .56881716V.19602967Z"/>
<path id="font_2_101" d="M.45700074 .2036438C.45700074 .33070375 .36799623 .4267578 .25698854 .4267578 .18899536 .4267578 .1519928 .37573243 .13198853 .327713V.35173036C.13198853 .6047821 .2559967 .64100649 .30699159 .64100649 .33099366 .64100649 .37298585 .634964 .394989 .6007538 .37998963 .6007538 .33999635 .6007538 .33999635 .5557556 .33999635 .524765 .3639984 .5097656 .38598634 .5097656 .4019928 .5097656 .43199159 .51875308 .43199159 .5577545 .43199159 .6178589 .3880005 .6660156 .30499269 .6660156 .1769867 .6660156 .041992189 .5367584 .041992189 .31570436 .041992189 .048553468 .1579895-.022460938 .25099183-.022460938 .3619995-.022460938 .45700074 .07156372 .45700074 .2036438M.36698915 .20463562C.36698915 .15661621 .36698915 .10658264 .34999085 .0705719 .31999208 .010528564 .27398683 .0055389406 .25099183 .0055389406 .18798828 .0055389406 .1579895 .06556702 .1519928 .080566409 .13398743 .127594 .13398743 .2076416 .13398743 .22564698 .13398743 .30369569 .1659851 .40374757 .2559967 .40374757 .27198792 .40374757 .31799317 .40374757 .34899903 .34172059 .36698915 .30470277 .36698915 .2536621 .36698915 .20463562Z"/>
<path id="font_2_51" d="M.45700074 .16764832C.45700074 .20367432 .44599916 .24871826 .4079895 .29074098 .3889923 .31176759 .37298585 .32176209 .30899049 .36180116 .3809967 .39881898 .42999269 .4508667 .42999269 .51690676 .42999269 .6089783 .34098817 .6660156 .25 .6660156 .1499939 .6660156 .068984989 .5919647 .068984989 .49890138 .068984989 .48088075 .070999149 .43585206 .11299133 .38882447 .12399292 .3768158 .16099549 .35179139 .18598938 .33477784 .12799073 .30575563 .041992189 .24971009 .041992189 .15063477 .041992189 .044555665 .14399719-.022460938 .24899292-.022460938 .3619995-.022460938 .45700074 .060577394 .45700074 .16764832M.38598634 .51690676C.38598634 .45986939 .34700013 .41183473 .2869873 .3768158L.16299439 .4568634C.116989139 .4868927 .11299133 .5209198 .11299133 .53793337 .11299133 .5989685 .17799378 .64100649 .24899292 .64100649 .32199098 .64100649 .38598634 .588974 .38598634 .51690676M.40699769 .13162232C.40699769 .05757141 .33198548 .0055389406 .25 .0055389406 .1639862 .0055389406 .09199524 .06758118 .09199524 .15063477 .09199524 .2086792 .12399292 .2727356 .20899964 .31976319L.33198548 .24171448C.3600006 .22268677 .40699769 .19267273 .40699769 .13162232Z"/>
</defs>
<path transform="matrix(1.00005,0,0,-1.00006,27.369812,160.2399)" stroke-width=".3985" stroke-linecap="butt" stroke-miterlimit="10" stroke-linejoin="miter" fill="none" stroke="#00aeef" d="M0 0H127.56062M0 7.08669H127.56062M0 14.17339H127.56062M0 21.26009H127.56062M0 28.34679H127.56062M0 35.43347H127.56062M0 42.52019H127.56062M0 49.60687H127.56062M0 56.69359H127.56062M0 63.78027H127.56062M0 70.86697H127.56062M0 77.95367H127.56062M0 85.04037H127.56062M0 92.12706H127.56062M0 99.21378H127.56062M0 106.30046H127.56062M0 113.38718H127.56062M0 120.47386H127.56062M0 127.56056H127.56062M0 134.64727H127.56062M0 141.73397H127.56062M0 0V141.73404M8.5039 0V141.73404M17.00781 0V141.73404M25.51172 0V141.73404M34.01564 0V141.73404M42.51955 0V141.73404M51.02345 0V141.73404M59.52737 0V141.73404M68.03128 0V141.73404M76.53519 0V141.73404M85.0391 0V141.73404M93.54301 0V141.73404M102.04692 0V141.73404M110.55083 0V141.73404M119.05475 0V141.73404M127.55865 0V141.73404M127.56062 141.73404"/>
<path transform="matrix(1.00005,0,0,-1.00006,27.369812,160.2399)" stroke-width=".79701" stroke-linecap="butt" stroke-miterlimit="10" stroke-linejoin="miter" fill="none" stroke="#000000" d="M0 0H138.88222"/>
<path transform="matrix(1.00005,0,0,-1.00006,166.25897,160.2399)" d="M1.0361 0C-.25902 .25902-1.55415 .77707-3.1083 1.68365-1.55415 .51805-1.55415-.51805-3.1083-1.68365-1.55415-.77707-.25902-.25902 1.0361 0Z"/>
<path transform="matrix(1.00005,0,0,-1.00006,166.25897,160.2399)" stroke-width=".79701" stroke-linecap="butt" stroke-linejoin="round" fill="none" stroke="#000000" d="M1.0361 0C-.25902 .25902-1.55415 .77707-3.1083 1.68365-1.55415 .51805-1.55415-.51805-3.1083-1.68365-1.55415-.77707-.25902-.25902 1.0361 0Z"/>
<use data-text="C" xlink:href="#font_1_1" transform="matrix(9.963098,0,0,-9.963197,171.413,163.6441)"/>
<path transform="matrix(1.00005,0,0,-1.00006,27.369812,160.2399)" stroke-width=".79701" stroke-linecap="butt" stroke-miterlimit="10" stroke-linejoin="miter" fill="none" stroke="#000000" d="M0 0V154.47283"/>
<path transform="matrix(0,-1.00006,-1.00005,-0,27.369812,5.7578127)" d="M1.0361 0C-.25902 .25902-1.55415 .77707-3.1083 1.68365-1.55415 .51805-1.55415-.51805-3.1083-1.68365-1.55415-.77707-.25902-.25902 1.0361 0Z"/>
<path transform="matrix(0,-1.00006,-1.00005,-0,27.369812,5.7578127)" stroke-width=".79701" stroke-linecap="butt" stroke-linejoin="round" fill="none" stroke="#000000" d="M1.0361 0C-.25902 .25902-1.55415 .77707-3.1083 1.68365-1.55415 .51805-1.55415-.51805-3.1083-1.68365-1.55415-.77707-.25902-.25902 1.0361 0Z"/>
<use data-text="F" xlink:href="#font_1_2" transform="matrix(9.963098,0,0,-9.963197,15.860237,7.726761)"/>
<path transform="matrix(1.00005,0,0,-1.00006,27.369812,160.2399)" stroke-width=".79701" stroke-linecap="butt" stroke-miterlimit="10" stroke-linejoin="miter" fill="none" stroke="#000000" d="M42.5202 3.18909V-3.18887"/>
<use data-text="1" xlink:href="#font_2_82" transform="matrix(9.963098,0,0,-9.963197,59.928438,173.7837)"/>
<use data-text="0" xlink:href="#font_2_121" transform="matrix(9.963098,0,0,-9.963197,64.90998,173.7837)"/>
<use data-text="0" xlink:href="#font_2_121" transform="matrix(9.963098,0,0,-9.963197,69.89153,173.7837)"/>
<use data-text="0" xlink:href="#font_2_121" transform="matrix(9.963098,0,0,-9.963197,74.87308,173.7837)"/>
<path transform="matrix(1.00005,0,0,-1.00006,27.369812,160.2399)" stroke-width=".79701" stroke-linecap="butt" stroke-miterlimit="10" stroke-linejoin="miter" fill="none" stroke="#000000" d="M85.04042 3.18909V-3.18887"/>
<use data-text="2" xlink:href="#font_2_107" transform="matrix(9.963098,0,0,-9.963197,102.45157,173.7837)"/>
<use data-text="0" xlink:href="#font_2_121" transform="matrix(9.963098,0,0,-9.963197,107.43311,173.7837)"/>
<use data-text="0" xlink:href="#font_2_121" transform="matrix(9.963098,0,0,-9.963197,112.414669,173.7837)"/>
<use data-text="0" xlink:href="#font_2_121" transform="matrix(9.963098,0,0,-9.963197,117.39621,173.7837)"/>
<path transform="matrix(1.00005,0,0,-1.00006,27.369812,160.2399)" stroke-width=".79701" stroke-linecap="butt" stroke-miterlimit="10" stroke-linejoin="miter" fill="none" stroke="#000000" d="M127.56062 3.18909V-3.18887"/>
<use data-text="3" xlink:href="#font_2_106" transform="matrix(9.963098,0,0,-9.963197,144.9737,173.7837)"/>
<use data-text="0" xlink:href="#font_2_121" transform="matrix(9.963098,0,0,-9.963197,149.95523,173.7837)"/>
<use data-text="0" xlink:href="#font_2_121" transform="matrix(9.963098,0,0,-9.963197,154.93679,173.7837)"/>
<use data-text="0" xlink:href="#font_2_121" transform="matrix(9.963098,0,0,-9.963197,159.91834,173.7837)"/>
<path transform="matrix(1.00005,0,0,-1.00006,27.369812,160.2399)" stroke-width=".79701" stroke-linecap="butt" stroke-miterlimit="10" stroke-linejoin="miter" fill="none" stroke="#000000" d="M3.18887 28.3468H-3.18887"/>
<use data-text="2" xlink:href="#font_2_107" transform="matrix(9.963098,0,0,-9.963197,5.5167238,135.0994)"/>
<use data-text="0" xlink:href="#font_2_121" transform="matrix(9.963098,0,0,-9.963197,10.498268,135.0994)"/>
<use data-text="0" xlink:href="#font_2_121" transform="matrix(9.963098,0,0,-9.963197,15.47982,135.0994)"/>
<path transform="matrix(1.00005,0,0,-1.00006,27.369812,160.2399)" stroke-width=".79701" stroke-linecap="butt" stroke-miterlimit="10" stroke-linejoin="miter" fill="none" stroke="#000000" d="M3.18887 56.69362H-3.18887"/>
<use data-text="4" xlink:href="#font_2_57" transform="matrix(9.963098,0,0,-9.963197,5.5167238,106.805698)"/>
<use data-text="0" xlink:href="#font_2_121" transform="matrix(9.963098,0,0,-9.963197,10.498268,106.805698)"/>
<use data-text="0" xlink:href="#font_2_121" transform="matrix(9.963098,0,0,-9.963197,15.47982,106.805698)"/>
<path transform="matrix(1.00005,0,0,-1.00006,27.369812,160.2399)" stroke-width=".79701" stroke-linecap="butt" stroke-miterlimit="10" stroke-linejoin="miter" fill="none" stroke="#000000" d="M3.18887 85.04042H-3.18887"/>
<use data-text="6" xlink:href="#font_2_101" transform="matrix(9.963098,0,0,-9.963197,5.5167238,78.40299)"/>
<use data-text="0" xlink:href="#font_2_121" transform="matrix(9.963098,0,0,-9.963197,10.498268,78.40299)"/>
<use data-text="0" xlink:href="#font_2_121" transform="matrix(9.963098,0,0,-9.963197,15.47982,78.40299)"/>
<path transform="matrix(1.00005,0,0,-1.00006,27.369812,160.2399)" stroke-width=".79701" stroke-linecap="butt" stroke-miterlimit="10" stroke-linejoin="miter" fill="none" stroke="#000000" d="M3.18887 113.38724H-3.18887"/>
<use data-text="8" xlink:href="#font_2_51" transform="matrix(9.963098,0,0,-9.963197,5.5167238,50.05429)"/>
<use data-text="0" xlink:href="#font_2_121" transform="matrix(9.963098,0,0,-9.963197,10.498268,50.05429)"/>
<use data-text="0" xlink:href="#font_2_121" transform="matrix(9.963098,0,0,-9.963197,15.47982,50.05429)"/>
<path transform="matrix(1.00005,0,0,-1.00006,27.369812,160.2399)" stroke-width=".79701" stroke-linecap="butt" stroke-miterlimit="10" stroke-linejoin="miter" fill="none" stroke="#000000" d="M3.18887 141.73404H-3.18887"/>
<use data-text="1" xlink:href="#font_2_82" transform="matrix(9.963098,0,0,-9.963197,.53546908,21.705597)"/>
<use data-text="0" xlink:href="#font_2_121" transform="matrix(9.963098,0,0,-9.963197,5.5170137,21.705597)"/>
<use data-text="0" xlink:href="#font_2_121" transform="matrix(9.963098,0,0,-9.963197,10.498566,21.705597)"/>
<use data-text="0" xlink:href="#font_2_121" transform="matrix(9.963098,0,0,-9.963197,15.48011,21.705597)"/>
</svg>
