<svg xmlns="http://www.w3.org/2000/svg" xmlns:xlink="http://www.w3.org/1999/xlink" version="1.1" width="184" height="174" viewBox="0 0 184 174">
<defs>
<path id="font_1_2" d="M.08799744 .059265138C.084991458 .044265748 .07899475 .021255494 .07899475 .01625061 .07899475-.0017547608 .09298706-.0107421879 .10798645-.0107421879 .11999512-.0107421879 .13798523-.002746582 .14498902 .01725769 .1459961 .019256592 .1579895 .06626892 .1639862 .091278079L.18598938 .18130493C.19198609 .2033081 .19799805 .22531128 .20298767 .24832154 .20698548 .26531983 .21499634 .29434205 .21598816 .29833985 .23098755 .3293457 .28399659 .42037965 .3789978 .42037965 .42399598 .42037965 .43299867 .38336183 .43299867 .35035707 .43299867 .3253479 .42599488 .29733277 .41799928 .26733399L.3899994 .1512909 .36999513 .07527161C.3659973 .055267335 .35699464 .021255494 .35699464 .01625061 .35699464-.0017547608 .37098695-.0107421879 .38598634-.0107421879 .4169922-.0107421879 .4229889 .014251709 .43099977 .04626465 .44499208 .10227966 .48199464 .24832154 .4909973 .28733827 .49398805 .30033876 .5469971 .42037965 .6559906 .42037965 .69898989 .42037965 .70999148 .3863678 .70999148 .35035707 .70999148 .29333497 .66799929 .17930603 .647995 .12628174 .6389923 .10227966 .6349945 .091278079 .6349945 .0712738 .6349945 .024261475 .66999819-.0107421879 .71699526-.0107421879 .8109894-.0107421879 .84799197 .13528443 .84799197 .14329529 .84799197 .1532898 .83898928 .1532898 .83599856 .1532898 .82598879 .1532898 .82598879 .15029907 .82099917 .13528443 .80599978 .08227539 .7739868 .011245728 .71899417 .011245728 .70199587 .011245728 .69499209 .021255494 .69499209 .044265748 .69499209 .0692749 .70399478 .09327698 .71299746 .11528015 .7319946 .16729737 .7739868 .27833558 .7739868 .3353424 .7739868 .4003601 .73399356 .4423828 .6589966 .4423828 .58399966 .4423828 .5329895 .3983612 .49598695 .34535218 .49499513 .35835267 .49198915 .3923645 .46398927 .41636659 .43899537 .43737794 .40699769 .4423828 .38198854 .4423828 .2919922 .4423828 .24299622 .37835694 .22599793 .35534669 .22099304 .41236878 .1789856 .4423828 .13398743 .4423828 .08799744 .4423828 .068984989 .4033661 .05999756 .38536073 .041992189 .35035707 .0289917 .29133607 .0289917 .28833009 .0289917 .27833558 .038986207 .27833558 .040985109 .27833558 .050994874 .27833558 .051986696 .2793274 .057998659 .30133058 .07499695 .37236024 .09498596 .42037965 .1309967 .42037965 .14698792 .42037965 .1619873 .41236878 .1619873 .37435914 .1619873 .35334779 .15899658 .3423462 .1459961 .29032899L.08799744 .059265138Z"/>
<path id="font_1_1" d="M.644989 .69506838C.644989 .69807437 .6429901 .7050781 .6339874 .7050781 .6289978 .7050781 .6279907 .70407107 .6159973 .6900635L.56799319 .6330414C.5419922 .68006899 .48999024 .7050781 .4249878 .7050781 .2979889 .7050781 .17799378 .58999636 .17799378 .4689026 .17799378 .38783265 .23098755 .34179688 .28199769 .32678224L.3889923 .2987671C.42599488 .2897644 .48098756 .27474977 .48098756 .19267273 .48098756 .1026001 .39898683 .008529663 .30099488 .008529663 .23699951 .008529663 .12599182 .030548096 .12599182 .15464783 .12599182 .17866516 .1309967 .2026825 .13198853 .20869446 .1329956 .21269226 .13398743 .21369934 .13398743 .21569824 .13398743 .22570801 .1269989 .22669983 .12199402 .22669983 .116989139 .22669983 .114990238 .22570801 .11199951 .22270203 .10798645 .21870423 .051986696-.009475708 .051986696-.012466431 .051986696-.018463135 .056991579-.022460938 .06298828-.022460938 .067993167-.022460938 .068984989-.021469117 .08099365-.007461548L.12998963 .049560548C.17298889-.008468628 .24099732-.022460938 .29899598-.022460938 .43499757-.022460938 .5529938 .11061096 .5529938 .2347107 .5529938 .30377198 .5189972 .33779908 .5039978 .35180665 .48098756 .37483216 .46598817 .37882997 .3769989 .40185548 .35499574 .40785218 .31900025 .41786195 .30999757 .41986085 .2829895 .42886354 .24899292 .457901 .24899292 .51094058 .24899292 .59199526 .32899476 .677063 .42399598 .677063 .5069885 .677063 .56799319 .6340332 .56799319 .52194216 .56799319 .48991395 .56399539 .47190858 .56399539 .4658966 .56399539 .4649048 .56399539 .45588685 .57598879 .45588685 .58599856 .45588685 .58699038 .45889283 .59098818 .47590638L.644989 .69506838Z"/>
<path id="font_2_107" d="M.44898988 .17396546H.42399598C.4189911 .14398194 .4119873 .099990848 .4019928 .084991458 .394989 .07699585 .32899476 .07699585 .30699159 .07699585H.1269989L.23298645 .17996216C.3889923 .31803895 .44898988 .37210084 .44898988 .47216798 .44898988 .5860901 .35899354 .6660156 .23699951 .6660156 .12399292 .6660156 .049987794 .57411196 .049987794 .48516847 .049987794 .4291687 .099990848 .4291687 .102996829 .4291687 .11999512 .4291687 .15499878 .44117738 .15499878 .48217774 .15499878 .5081787 .13699341 .5341797 .101989749 .5341797 .09399414 .5341797 .09199524 .5341797 .08898926 .5331726 .11199951 .59806826 .1659851 .63500979 .22399903 .63500979 .31498719 .63500979 .35798646 .5541382 .35798646 .47216798 .35798646 .39196778 .30799867 .31297303 .25299073 .25097657L.06098938 .036987306C.049987794 .025985718 .049987794 .023986817 .049987794 0H.42099L.44898988 .17396546Z"/>
<path id="font_2_121" d="M.45999146 .31976319C.45999146 .39982606 .45498658 .47988893 .41999818 .5539398 .37399293 .65000918 .2919922 .6660156 .25 .6660156 .18998719 .6660156 .116989139 .64001467 .07598877 .54693606 .04399109 .47789 .038986207 .39982606 .038986207 .31976319 .038986207 .24472046 .042999269 .15464783 .083999637 .07859802 .1269989-.0024719239 .19999695-.022460938 .24899292-.022460938 .30299378-.022460938 .3789978-.0014648438 .4229889 .09359741 .45498658 .16265869 .45999146 .2407074 .45999146 .31976319M.3769989 .3317871C.3769989 .25672914 .3769989 .18867493 .3659973 .12461853 .35099793 .029556275 .2939911-.00047302247 .24899292-.00047302247 .20999146-.00047302247 .15098572 .024551392 .1329956 .12062073 .12199402 .18066406 .12199402 .2727356 .12199402 .3317871 .12199402 .39582826 .12199402 .46188355 .12998963 .5159149 .14898682 .63500979 .22399903 .64401248 .24899292 .64401248 .28199769 .64401248 .34799195 .6259918 .36698915 .52693179 .3769989 .47088624 .3769989 .39482118 .3769989 .3317871Z"/>
<path id="font_2_57" d="M.47099305 .16503906V.19602967H.37098695V.6507721C.37098695 .6707611 .37098695 .6767578 .35499574 .6767578 .34599305 .6767578 .34298707 .6767578 .33499146 .6647644L.027999878 .19602967V.16503906H.2939911V.07800293C.2939911 .041992189 .2919922 .0309906 .21798706 .0309906H.19699097V0C.23799134 .0029907227 .2899933 .0029907227 .33198548 .0029907227 .37399293 .0029907227 .4269867 .0029907227 .46798707 0V.0309906H.44699098C.37298585 .0309906 .37098695 .041992189 .37098695 .07800293V.16503906H.47099305M.2999878 .19602967H.055999757L.2999878 .56881716V.19602967Z"/>
<path id="font_2_101" d="M.45700074 .2036438C.45700074 .33070375 .36799623 .4267578 .25698854 .4267578 .18899536 .4267578 .1519928 .37573243 .13198853 .327713V.35173036C.13198853 .6047821 .2559967 .64100649 .30699159 .64100649 .33099366 .64100649 .37298585 .634964 .394989 .6007538 .37998963 .6007538 .33999635 .6007538 .33999635 .5557556 .33999635 .524765 .3639984 .5097656 .38598634 .5097656 .4019928 .5097656 .43199159 .51875308 .43199159 .5577545 .43199159 .6178589 .3880005 .6660156 .30499269 .6660156 .1769867 .6660156 .041992189 .5367584 .041992189 .31570436 .041992189 .048553468 .1579895-.022460938 .25099183-.022460938 .3619995-.022460938 .45700074 .07156372 .45700074 .2036438M.36698915 .20463562C.36698915 .15661621 .36698915 .10658264 .34999085 .0705719 .31999208 .010528564 .27398683 .0055389406 .25099183 .0055389406 .18798828 .0055389406 .1579895 .06556702 .1519928 .080566409 .13398743 .127594 .13398743 .2076416 .13398743 .22564698 .13398743 .30369569 .1659851 .40374757 .2559967 .40374757 .27198792 .40374757 .31799317 .40374757 .34899903 .34172059 .36698915 .30470277 .36698915 .2536621 .36698915 .20463562Z"/>
<path id="font_2_51" d="M.45700074 .16764832C.45700074 .20367432 .44599916 .24871826 .4079895 .29074098 .3889923 .31176759 .37298585 .32176209 .30899049 .36180116 .3809967 .39881898 .42999269 .4508667 .42999269 .51690676 .42999269 .6089783 .34098817 .6660156 .25 .6660156 .1499939 .6660156 .068984989 .5919647 .068984989 .49890138 .068984989 .48088075 .070999149 .43585206 .11299133 .38882447 .12399292 .3768158 .16099549 .35179139 .18598938 .33477784 .12799073 .30575563 .041992189 .24971009 .041992189 .15063477 .041992189 .044555665 .14399719-.022460938 .24899292-.022460938 .3619995-.022460938 .45700074 .060577394 .45700074 .16764832M.38598634 .51690676C.38598634 .45986939 .34700013 .41183473 .2869873 .3768158L.16299439 .4568634C.116989139 .4868927 .11299133 .5209198 .11299133 .53793337 .11299133 .5989685 .17799378 .64100649 .24899292 .64100649 .32199098 .64100649 .38598634 .588974 .38598634 .51690676M.40699769 .13162232C.40699769 .05757141 .33198548 .0055389406 .25 .0055389406 .1639862 .0055389406 .09199524 .06758118 .09199524 .15063477 .09199524 .2086792 .12399292 .2727356 .20899964 .31976319L.33198548 .24171448C.3600006 .22268677 .40699769 .19267273 .40699769 .13162232Z"/>
<path id="font_2_82" d="M.4189911 0V.0309906H.3869934C.29699708 .0309906 .2939911 .041992189 .2939911 .07902527V.64012148C.2939911 .6640167 .2939911 .6660156 .2709961 .6660156 .20899964 .60227969 .12098694 .60227969 .08898926 .60227969V.57128909C.10899353 .57128909 .16799927 .57128909 .21998596 .5972748V.07902527C.21998596 .042999269 .21699524 .0309906 .1269989 .0309906H.09498596V0C.12998963 .0029907227 .21699524 .0029907227 .25698854 .0029907227 .29699708 .0029907227 .38398744 .0029907227 .4189911 0Z"/>
</defs>
<path transform="matrix(1.00005,0,0,-1.00002,21.157303,160.26897)" stroke-width=".3985" stroke-linecap="butt" stroke-miterlimit="10" stroke-linejoin="miter" fill="none" stroke="#00aeef" d="M0 0H141.73404M0 14.17339H141.73404M0 28.3468H141.73404M0 42.5202H141.73404M0 56.69362H141.73404M0 70.867H141.73404M0 85.04042H141.73404M0 99.21382H141.73404M0 113.38724H141.73404M0 127.56062H141.73404M0 141.72905H141.73404M0 0V141.73404M14.17339 0V141.73404M28.3468 0V141.73404M42.5202 0V141.73404M56.69362 0V141.73404M70.867 0V141.73404M85.04042 0V141.73404M99.21382 0V141.73404M113.38724 0V141.73404M127.56062 0V141.73404M141.72905 0V141.73404M141.73404 141.73404"/>
<path transform="matrix(1.00005,0,0,-1.00002,21.157303,160.26897)" stroke-width=".79701" stroke-linecap="butt" stroke-miterlimit="10" stroke-linejoin="miter" fill="none" stroke="#000000" d="M0 0H147.38613"/>
<path transform="matrix(1.00005,0,0,-1.00002,168.55078,160.26897)" d="M1.0361 0C-.25902 .25902-1.55415 .77707-3.1083 1.68365-1.55415 .51805-1.55415-.51805-3.1083-1.68365-1.55415-.77707-.25902-.25902 1.0361 0Z"/>
<path transform="matrix(1.00005,0,0,-1.00002,168.55078,160.26897)" stroke-width=".79701" stroke-linecap="butt" stroke-linejoin="round" fill="none" stroke="#000000" d="M1.0361 0C-.25902 .25902-1.55415 .77707-3.1083 1.68365-1.55415 .51805-1.55415-.51805-3.1083-1.68365-1.55415-.77707-.25902-.25902 1.0361 0Z"/>
<use data-text="m" xlink:href="#font_1_2" transform="matrix(9.963098,0,0,-9.962799,173.70491,162.414)"/>
<path transform="matrix(1.00005,0,0,-1.00002,21.157303,160.26897)" stroke-width=".79701" stroke-linecap="butt" stroke-miterlimit="10" stroke-linejoin="miter" fill="none" stroke="#000000" d="M0 0V147.38613"/>
<path transform="matrix(0,-1.00002,-1.00005,-0,21.157303,12.879898)" d="M1.0361 0C-.25902 .25902-1.55415 .77707-3.1083 1.68365-1.55415 .51805-1.55415-.51805-3.1083-1.68365-1.55415-.77707-.25902-.25902 1.0361 0Z"/>
<path transform="matrix(0,-1.00002,-1.00005,-0,21.157303,12.879898)" stroke-width=".79701" stroke-linecap="butt" stroke-linejoin="round" fill="none" stroke="#000000" d="M1.0361 0C-.25902 .25902-1.55415 .77707-3.1083 1.68365-1.55415 .51805-1.55415-.51805-3.1083-1.68365-1.55415-.77707-.25902-.25902 1.0361 0Z"/>
<use data-text="S" xlink:href="#font_1_1" transform="matrix(9.963098,0,0,-9.962799,17.81514,7.7259218)"/>
<path transform="matrix(1.00005,0,0,-1.00002,21.157303,160.26897)" stroke-width=".79701" stroke-linecap="butt" stroke-miterlimit="10" stroke-linejoin="miter" fill="none" stroke="#000000" d="M28.3468 1.27554V-1.27554"/>
<use data-text="2" xlink:href="#font_2_107" transform="matrix(9.963098,0,0,-9.962799,44.523469,171.8992)"/>
<use data-text="0" xlink:href="#font_2_121" transform="matrix(9.963098,0,0,-9.962799,49.50502,171.8992)"/>
<path transform="matrix(1.00005,0,0,-1.00002,21.157303,160.26897)" stroke-width=".79701" stroke-linecap="butt" stroke-miterlimit="10" stroke-linejoin="miter" fill="none" stroke="#000000" d="M56.69362 1.27554V-1.27554"/>
<use data-text="4" xlink:href="#font_2_57" transform="matrix(9.963098,0,0,-9.962799,72.87189,172.00821)"/>
<use data-text="0" xlink:href="#font_2_121" transform="matrix(9.963098,0,0,-9.962799,77.85344,172.00821)"/>
<path transform="matrix(1.00005,0,0,-1.00002,21.157303,160.26897)" stroke-width=".79701" stroke-linecap="butt" stroke-miterlimit="10" stroke-linejoin="miter" fill="none" stroke="#000000" d="M85.04042 1.27554V-1.27554"/>
<use data-text="6" xlink:href="#font_2_101" transform="matrix(9.963098,0,0,-9.962799,101.2203,171.8992)"/>
<use data-text="0" xlink:href="#font_2_121" transform="matrix(9.963098,0,0,-9.962799,106.20185,171.8992)"/>
<path transform="matrix(1.00005,0,0,-1.00002,21.157303,160.26897)" stroke-width=".79701" stroke-linecap="butt" stroke-miterlimit="10" stroke-linejoin="miter" fill="none" stroke="#000000" d="M113.38724 1.27554V-1.27554"/>
<use data-text="8" xlink:href="#font_2_51" transform="matrix(9.963098,0,0,-9.962799,129.56873,171.8992)"/>
<use data-text="0" xlink:href="#font_2_121" transform="matrix(9.963098,0,0,-9.962799,134.55027,171.8992)"/>
<path transform="matrix(1.00005,0,0,-1.00002,21.157303,160.26897)" stroke-width=".79701" stroke-linecap="butt" stroke-miterlimit="10" stroke-linejoin="miter" fill="none" stroke="#000000" d="M141.73404 1.27554V-1.27554"/>
<use data-text="1" xlink:href="#font_2_82" transform="matrix(9.963098,0,0,-9.962799,155.426,171.8992)"/>
<use data-text="0" xlink:href="#font_2_121" transform="matrix(9.963098,0,0,-9.962799,160.40755,171.8992)"/>
<use data-text="0" xlink:href="#font_2_121" transform="matrix(9.963098,0,0,-9.962799,165.3891,171.8992)"/>
<path transform="matrix(1.00005,0,0,-1.00002,21.157303,160.26897)" stroke-width=".79701" stroke-linecap="butt" stroke-miterlimit="10" stroke-linejoin="miter" fill="none" stroke="#000000" d="M1.27554 70.867H-1.27554"/>
<use data-text="2" xlink:href="#font_2_107" transform="matrix(9.963098,0,0,-9.962799,1.217308,92.60861)"/>
<use data-text="0" xlink:href="#font_2_121" transform="matrix(9.963098,0,0,-9.962799,6.19886,92.60861)"/>
<use data-text="0" xlink:href="#font_2_121" transform="matrix(9.963098,0,0,-9.962799,11.180405,92.60861)"/>
<path transform="matrix(1.00005,0,0,-1.00002,21.157303,160.26897)" stroke-width=".79701" stroke-linecap="butt" stroke-miterlimit="10" stroke-linejoin="miter" fill="none" stroke="#000000" d="M1.27554 141.73404H-1.27554"/>
<use data-text="4" xlink:href="#font_2_57" transform="matrix(9.963098,0,0,-9.962799,1.217308,21.795197)"/>
<use data-text="0" xlink:href="#font_2_121" transform="matrix(9.963098,0,0,-9.962799,6.19886,21.795197)"/>
<use data-text="0" xlink:href="#font_2_121" transform="matrix(9.963098,0,0,-9.962799,11.180405,21.795197)"/>
<path transform="matrix(1.00005,0,0,-1.00002,21.157303,160.26897)" stroke-width="1.19553" stroke-linecap="butt" stroke-miterlimit="10" stroke-linejoin="miter" fill="none" stroke="#ff0000" d="M12.94157 139.87079C14.21196 127.11891 14.21196 127.11891 14.77116 122.3972 15.33037 117.67549 16.22714 111.34412 16.78635 107.70367 17.34555 104.06323 18.24234 99.0528 18.80154 96.15945 19.36075 93.2661 20.25754 89.20567 20.81674 86.85037 21.37595 84.49509 22.27274 81.1386 22.83194 79.18407 23.39114 77.22954 24.28792 74.41164 24.84712 72.76347 25.40633 71.11533 26.30313 68.71431 26.86234 67.30528 27.42154 65.89624 28.31831 63.82658 28.87752 62.60812 29.43672 61.38966 30.3335 59.5874 30.89272 58.52345 31.45192 57.4595 32.34871 55.87694 32.90791 54.93988 33.46712 54.00284 34.36389 52.60155 34.9231 51.7698 35.4823 50.93808 36.37909 49.68854 36.9383 48.94533 37.4975 48.20212 38.39429 47.0813 38.95349 46.41325 39.5127 45.74521 40.40948 44.73438 40.96869 44.13054 41.5279 43.52672 42.42467 42.60971 42.98387 42.06128 43.54308 41.51285 44.43988 40.67807 44.99908 40.17778 45.55829 39.67752 46.45506 38.91391 47.01427 38.45564 47.57347 37.99738 48.47026 37.29616 49.02946 36.87492 49.58867 36.4537 50.48546 35.80821 51.04466 35.41966 51.60387 35.0311 52.50064 34.43414 53.05986 34.07446 53.61906 33.71477 54.51584 33.16106 55.07504 32.82724 55.63425 32.49341 56.53104 31.97906 57.09024 31.66847 57.64944 31.35788 58.54623 30.87839 59.10544 30.58864 59.66464 30.2989 60.56142 29.85107 61.12062 29.58017 61.67982 29.30927 62.57663 28.88998 63.13583 28.63615 63.69504 28.38232 64.59181 27.98923 65.15102 27.75076 65.71022 27.5123 66.60701 27.14186 67.16621 26.91747 67.72542 26.69308 68.62221 26.34483 69.18141 26.1335 69.74062 25.92216 70.6374 25.59386 71.19661 25.39429 71.75581 25.19472 72.65259 24.88387 73.21179 24.69508 73.771 24.50633 74.66779 24.21259 75.227 24.03374 75.78621 23.8549 76.68298 23.57576 77.24219 23.40613 77.80139 23.23651 78.69817 22.97218 79.25737 22.81117 79.81657 22.65016 80.71338 22.39876 81.27258 22.24562 81.83179 22.09251 82.72856 21.85332 83.28777 21.70755 83.84697 21.56178 84.74376 21.33403 85.30296 21.195 85.86217 21.05598 86.75896 20.8383 87.31816 20.70557 87.87737 20.57286 88.77415 20.36519 89.33336 20.23843 89.89256 20.1117 90.78934 19.91325 91.34854 19.79205 91.90775 19.67087 92.80455 19.48096 93.36375 19.36493 93.92296 19.24889 94.81973 19.06699 95.37894 18.95575 95.93814 18.84451 96.83492 18.66992 97.39413 18.56322 97.95334 18.45651 98.85013 18.28903 99.40933 18.18669 99.96854 18.08434 100.86531 17.9238 101.42451 17.82553 101.98372 17.72726 102.88051 17.57294 103.43971 17.47841 103.99892 17.3839 104.8957 17.23521 105.45491 17.14429 106.01411 17.05333 106.9109 16.91046 107.47011 16.82289 108.02931 16.73535 108.92609 16.5976 109.48529 16.5132 110.0445 16.42883 110.9413 16.29607 111.5005 16.21475 112.05971 16.13344 112.95648 16.00558 113.51569 15.92712 114.07489 15.84865 114.97168 15.72498 115.53088 15.64922 116.09009 15.57344 116.98688 15.45422 117.54608 15.38104 118.10529 15.30785 119.00206 15.19249 119.56128 15.12173 120.12048 15.05098 121.01726 14.93951 121.57646 14.87106 122.13567 14.80263 123.03246 14.69464 123.59166 14.62842 124.15086 14.5622 125.04765 14.45787 125.60686 14.39377 126.16606 14.32968 127.06284 14.22855 127.62204 14.16647 128.18125 14.10439 129.07805 14.00647 129.63726 13.9463 130.19646 13.88615 131.09323 13.79118 131.65244 13.73285 132.21164 13.67451 133.10843 13.5825 133.66764 13.52588 134.22684 13.46927 135.12363 13.3797 135.68283 13.32475 136.24204 13.26982 137.13883 13.18321 137.69803 13.1299 138.25724 13.07657 139.154 12.99226 139.71321 12.94043 140.27242 12.88863 141.72843 12.7564 139.86318 12.92555"/>
<path transform="matrix(-.09910495,-.9950499,-.9950797,.09910198,34.09954,20.39537)" d="M1.27522 0C-.31879 .31879-1.91284 .9564-3.8257 2.07224-1.91284 .6376-1.91284-.6376-3.8257-2.07224-1.91284-.9564-.31879-.31879 1.27522 0Z" fill="#ff0000"/>
<path transform="matrix(-.09910495,-.9950499,-.9950797,.09910198,34.09954,20.39537)" stroke-width="1.19553" stroke-linecap="butt" stroke-linejoin="round" fill="none" stroke="#ff0000" d="M1.27522 0C-.31879 .31879-1.91284 .9564-3.8257 2.07224-1.91284 .6376-1.91284-.6376-3.8257-2.07224-1.91284-.9564-.31879-.31879 1.27522 0Z"/>
<path transform="matrix(.99590978,.09032181,.09032451,-.99587997,161.02745,147.34316)" d="M1.27522 0C-.31879 .31879-1.91284 .9564-3.8257 2.07224-1.91284 .6376-1.91284-.6376-3.8257-2.07224-1.91284-.9564-.31879-.31879 1.27522 0Z" fill="#ff0000"/>
<path transform="matrix(.99590978,.09032181,.09032451,-.99587997,161.02745,147.34316)" stroke-width="1.19553" stroke-linecap="butt" stroke-linejoin="round" fill="none" stroke="#ff0000" d="M1.27522 0C-.31879 .31879-1.91284 .9564-3.8257 2.07224-1.91284 .6376-1.91284-.6376-3.8257-2.07224-1.91284-.9564-.31879-.31879 1.27522 0Z"/>
<path transform="matrix(1.00005,0,0,-1.00002,21.157303,160.26897)" d="M30.47272 63.7803C30.47272 64.95442 29.52092 65.90622 28.3468 65.90622 27.17268 65.90622 26.22089 64.95442 26.22089 63.7803 26.22089 62.60619 27.17268 61.65439 28.3468 61.65439 29.52092 61.65439 30.47272 62.60619 30.47272 63.7803ZM28.3468 63.7803" fill="#0000ff"/>
<path transform="matrix(1.00005,0,0,-1.00002,21.157303,160.26897)" stroke-width=".3985" stroke-linecap="butt" stroke-miterlimit="10" stroke-linejoin="miter" fill="none" stroke="#0000ff" d="M30.47272 63.7803C30.47272 64.95442 29.52092 65.90622 28.3468 65.90622 27.17268 65.90622 26.22089 64.95442 26.22089 63.7803 26.22089 62.60619 27.17268 61.65439 28.3468 61.65439 29.52092 61.65439 30.47272 62.60619 30.47272 63.7803ZM28.3468 63.7803"/>
<path transform="matrix(1.00005,0,0,-1.00002,21.157303,160.26897)" d="M58.81953 31.89014C58.81953 33.06427 57.86774 34.01607 56.69362 34.01607 55.51949 34.01607 54.56769 33.06427 54.56769 31.89014 54.56769 30.71602 55.51949 29.76422 56.69362 29.76422 57.86774 29.76422 58.81953 30.71602 58.81953 31.89014ZM56.69362 31.89014" fill="#0000ff"/>
<path transform="matrix(1.00005,0,0,-1.00002,21.157303,160.26897)" stroke-width=".3985" stroke-linecap="butt" stroke-miterlimit="10" stroke-linejoin="miter" fill="none" stroke="#0000ff" d="M58.81953 31.89014C58.81953 33.06427 57.86774 34.01607 56.69362 34.01607 55.51949 34.01607 54.56769 33.06427 54.56769 31.89014 54.56769 30.71602 55.51949 29.76422 56.69362 29.76422 57.86774 29.76422 58.81953 30.71602 58.81953 31.89014ZM56.69362 31.89014"/>
<path transform="matrix(1.00005,0,0,-1.00002,21.157303,160.26897)" d="M87.16634 21.2601C87.16634 22.43422 86.21455 23.38602 85.04042 23.38602 83.8663 23.38602 82.9145 22.43422 82.9145 21.2601 82.9145 20.08597 83.8663 19.13417 85.04042 19.13417 86.21455 19.13417 87.16634 20.08597 87.16634 21.2601ZM85.04042 21.2601" fill="#0000ff"/>
<path transform="matrix(1.00005,0,0,-1.00002,21.157303,160.26897)" stroke-width=".3985" stroke-linecap="butt" stroke-miterlimit="10" stroke-linejoin="miter" fill="none" stroke="#0000ff" d="M87.16634 21.2601C87.16634 22.43422 86.21455 23.38602 85.04042 23.38602 83.8663 23.38602 82.9145 22.43422 82.9145 21.2601 82.9145 20.08597 83.8663 19.13417 85.04042 19.13417 86.21455 19.13417 87.16634 20.08597 87.16634 21.2601ZM85.04042 21.2601"/>
<path transform="matrix(1.00005,0,0,-1.00002,21.157303,160.26897)" d="M143.85996 12.75595C143.85996 13.93008 142.90818 14.88188 141.73404 14.88188 140.55992 14.88188 139.60813 13.93008 139.60813 12.75595 139.60813 11.58183 140.55992 10.63004 141.73404 10.63004 142.90818 10.63004 143.85996 11.58183 143.85996 12.75595ZM141.73404 12.75595" fill="#0000ff"/>
<path transform="matrix(1.00005,0,0,-1.00002,21.157303,160.26897)" stroke-width=".3985" stroke-linecap="butt" stroke-miterlimit="10" stroke-linejoin="miter" fill="none" stroke="#0000ff" d="M143.85996 12.75595C143.85996 13.93008 142.90818 14.88188 141.73404 14.88188 140.55992 14.88188 139.60813 13.93008 139.60813 12.75595 139.60813 11.58183 140.55992 10.63004 141.73404 10.63004 142.90818 10.63004 143.85996 11.58183 143.85996 12.75595ZM141.73404 12.75595"/>
</svg>
