<svg xmlns="http://www.w3.org/2000/svg" xmlns:xlink="http://www.w3.org/1999/xlink" version="1.1" width="123" height="114" viewBox="0 0 123 114">
<defs>
<path id="font_1_2" d="M.08799744 .059265138C.084991458 .044265748 .07899475 .021255494 .07899475 .01625061 .07899475-.0017547608 .09298706-.0107421879 .10798645-.0107421879 .11999512-.0107421879 .13798523-.002746582 .14498902 .01725769 .1459961 .019256592 .1579895 .06626892 .1639862 .091278079L.18598938 .18130493C.19198609 .2033081 .19799805 .22531128 .20298767 .24832154 .20698548 .26531983 .21499634 .29434205 .21598816 .29833985 .23098755 .3293457 .28399659 .42037965 .3789978 .42037965 .42399598 .42037965 .43299867 .38336183 .43299867 .35035707 .43299867 .28833009 .38398744 .16029358 .36799623 .11727905 .35899354 .0942688 .35798646 .08227539 .35798646 .0712738 .35798646 .024261475 .3929901-.0107421879 .43998719-.0107421879 .5339966-.0107421879 .57099917 .13528443 .57099917 .14329529 .57099917 .1532898 .56199648 .1532898 .5589905 .1532898 .548996 .1532898 .548996 .15029907 .5439911 .13528443 .5239868 .06726074 .4909973 .011245728 .44198609 .011245728 .4249878 .011245728 .41799928 .021255494 .41799928 .044265748 .41799928 .0692749 .4269867 .09327698 .43598939 .11528015 .45498658 .16830445 .49699403 .27833558 .49699403 .3353424 .49699403 .40237428 .45399476 .4423828 .38198854 .4423828 .2919922 .4423828 .24299622 .37835694 .22599793 .35534669 .22099304 .41137696 .17999268 .4423828 .13398743 .4423828 .08799744 .4423828 .068984989 .4033661 .05899048 .38536073 .042999269 .35134889 .0289917 .29232789 .0289917 .28833009 .0289917 .27833558 .038986207 .27833558 .040985109 .27833558 .050994874 .27833558 .051986696 .2793274 .057998659 .30133058 .07499695 .37236024 .09498596 .42037965 .1309967 .42037965 .15098572 .42037965 .1619873 .4073639 .1619873 .37435914 .1619873 .35334779 .15899658 .3423462 .1459961 .29032899L.08799744 .059265138Z"/>
<path id="font_1_1" d="M.644989 .69506838C.644989 .69807437 .6429901 .7050781 .6339874 .7050781 .6289978 .7050781 .6279907 .70407107 .6159973 .6900635L.56799319 .6330414C.5419922 .68006899 .48999024 .7050781 .4249878 .7050781 .2979889 .7050781 .17799378 .58999636 .17799378 .4689026 .17799378 .38783265 .23098755 .34179688 .28199769 .32678224L.3889923 .2987671C.42599488 .2897644 .48098756 .27474977 .48098756 .19267273 .48098756 .1026001 .39898683 .008529663 .30099488 .008529663 .23699951 .008529663 .12599182 .030548096 .12599182 .15464783 .12599182 .17866516 .1309967 .2026825 .13198853 .20869446 .1329956 .21269226 .13398743 .21369934 .13398743 .21569824 .13398743 .22570801 .1269989 .22669983 .12199402 .22669983 .116989139 .22669983 .114990238 .22570801 .11199951 .22270203 .10798645 .21870423 .051986696-.009475708 .051986696-.012466431 .051986696-.018463135 .056991579-.022460938 .06298828-.022460938 .067993167-.022460938 .068984989-.021469117 .08099365-.007461548L.12998963 .049560548C.17298889-.008468628 .24099732-.022460938 .29899598-.022460938 .43499757-.022460938 .5529938 .11061096 .5529938 .2347107 .5529938 .30377198 .5189972 .33779908 .5039978 .35180665 .48098756 .37483216 .46598817 .37882997 .3769989 .40185548 .35499574 .40785218 .31900025 .41786195 .30999757 .41986085 .2829895 .42886354 .24899292 .457901 .24899292 .51094058 .24899292 .59199526 .32899476 .677063 .42399598 .677063 .5069885 .677063 .56799319 .6340332 .56799319 .52194216 .56799319 .48991395 .56399539 .47190858 .56399539 .4658966 .56399539 .4649048 .56399539 .45588685 .57598879 .45588685 .58599856 .45588685 .58699038 .45889283 .59098818 .47590638L.644989 .69506838Z"/>
<path id="font_2_107" d="M.44898988 .17396546H.42399598C.4189911 .14398194 .4119873 .099990848 .4019928 .084991458 .394989 .07699585 .32899476 .07699585 .30699159 .07699585H.1269989L.23298645 .17996216C.3889923 .31803895 .44898988 .37210084 .44898988 .47216798 .44898988 .5860901 .35899354 .6660156 .23699951 .6660156 .12399292 .6660156 .049987794 .57411196 .049987794 .48516847 .049987794 .4291687 .099990848 .4291687 .102996829 .4291687 .11999512 .4291687 .15499878 .44117738 .15499878 .48217774 .15499878 .5081787 .13699341 .5341797 .101989749 .5341797 .09399414 .5341797 .09199524 .5341797 .08898926 .5331726 .11199951 .59806826 .1659851 .63500979 .22399903 .63500979 .31498719 .63500979 .35798646 .5541382 .35798646 .47216798 .35798646 .39196778 .30799867 .31297303 .25299073 .25097657L.06098938 .036987306C.049987794 .025985718 .049987794 .023986817 .049987794 0H.42099L.44898988 .17396546Z"/>
<path id="font_2_121" d="M.45999146 .31976319C.45999146 .39982606 .45498658 .47988893 .41999818 .5539398 .37399293 .65000918 .2919922 .6660156 .25 .6660156 .18998719 .6660156 .116989139 .64001467 .07598877 .54693606 .04399109 .47789 .038986207 .39982606 .038986207 .31976319 .038986207 .24472046 .042999269 .15464783 .083999637 .07859802 .1269989-.0024719239 .19999695-.022460938 .24899292-.022460938 .30299378-.022460938 .3789978-.0014648438 .4229889 .09359741 .45498658 .16265869 .45999146 .2407074 .45999146 .31976319M.3769989 .3317871C.3769989 .25672914 .3769989 .18867493 .3659973 .12461853 .35099793 .029556275 .2939911-.00047302247 .24899292-.00047302247 .20999146-.00047302247 .15098572 .024551392 .1329956 .12062073 .12199402 .18066406 .12199402 .2727356 .12199402 .3317871 .12199402 .39582826 .12199402 .46188355 .12998963 .5159149 .14898682 .63500979 .22399903 .64401248 .24899292 .64401248 .28199769 .64401248 .34799195 .6259918 .36698915 .52693179 .3769989 .47088624 .3769989 .39482118 .3769989 .3317871Z"/>
<path id="font_2_57" d="M.47099305 .16503906V.19602967H.37098695V.6507721C.37098695 .6707611 .37098695 .6767578 .35499574 .6767578 .34599305 .6767578 .34298707 .6767578 .33499146 .6647644L.027999878 .19602967V.16503906H.2939911V.07800293C.2939911 .041992189 .2919922 .0309906 .21798706 .0309906H.19699097V0C.23799134 .0029907227 .2899933 .0029907227 .33198548 .0029907227 .37399293 .0029907227 .4269867 .0029907227 .46798707 0V.0309906H.44699098C.37298585 .0309906 .37098695 .041992189 .37098695 .07800293V.16503906H.47099305M.2999878 .19602967H.055999757L.2999878 .56881716V.19602967Z"/>
</defs>
<path transform="matrix(1.00008,0,0,-1,15.389275,99.861)" stroke-width=".3985" stroke-linecap="butt" stroke-miterlimit="10" stroke-linejoin="miter" fill="none" stroke="#00aeef" d="M0 0H85.04128M0 17.00824H85.04128M0 34.0165H85.04128M0 51.02477H85.04128M0 68.03302H85.04128M0 85.0353H85.04128M0 0V85.04128M17.00824 0V85.04128M34.0165 0V85.04128M51.02477 0V85.04128M68.03302 0V85.04128M85.0353 0V85.04128M85.04128 85.04128"/>
<path transform="matrix(1.00008,0,0,-1,15.389275,99.861)" stroke-width=".79701" stroke-linecap="butt" stroke-miterlimit="10" stroke-linejoin="miter" fill="none" stroke="#000000" d="M0 0H95.51239"/>
<path transform="matrix(1.00008,0,0,-1,110.9093,99.861)" d="M1.0361 0C-.25902 .25902-1.55415 .77707-3.1083 1.68365-1.55415 .51805-1.55415-.51805-3.1083-1.68365-1.55415-.77707-.25902-.25902 1.0361 0Z"/>
<path transform="matrix(1.00008,0,0,-1,110.9093,99.861)" stroke-width=".79701" stroke-linecap="butt" stroke-linejoin="round" fill="none" stroke="#000000" d="M1.0361 0C-.25902 .25902-1.55415 .77707-3.1083 1.68365-1.55415 .51805-1.55415-.51805-3.1083-1.68365-1.55415-.77707-.25902-.25902 1.0361 0Z"/>
<use data-text="n" xlink:href="#font_1_2" transform="matrix(9.963397,0,0,-9.9626,116.063327,102.006)"/>
<path transform="matrix(1.00008,0,0,-1,15.389275,99.861)" stroke-width=".79701" stroke-linecap="butt" stroke-miterlimit="10" stroke-linejoin="miter" fill="none" stroke="#000000" d="M0 0V92.11078"/>
<path transform="matrix(0,-1,-1.00008,-0,15.389275,7.7502214)" d="M1.0361 0C-.25902 .25902-1.55415 .77707-3.1083 1.68365-1.55415 .51805-1.55415-.51805-3.1083-1.68365-1.55415-.77707-.25902-.25902 1.0361 0Z"/>
<path transform="matrix(0,-1,-1.00008,-0,15.389275,7.7502214)" stroke-width=".79701" stroke-linecap="butt" stroke-linejoin="round" fill="none" stroke="#000000" d="M1.0361 0C-.25902 .25902-1.55415 .77707-3.1083 1.68365-1.55415 .51805-1.55415-.51805-3.1083-1.68365-1.55415-.77707-.25902-.25902 1.0361 0Z"/>
<use data-text="S" xlink:href="#font_1_1" transform="matrix(9.963397,0,0,-9.9626,5.982521,7.7269976)"/>
<path transform="matrix(1.00008,0,0,-1,15.389275,99.861)" stroke-width="1.19553" stroke-linecap="butt" stroke-miterlimit="10" stroke-linejoin="miter" fill="none" stroke="#00aeef" d="M34.0165 0V85.04128"/>
<path transform="matrix(1.00008,0,0,-1,15.389275,99.861)" stroke-width=".79701" stroke-linecap="butt" stroke-miterlimit="10" stroke-linejoin="miter" fill="none" stroke="#000000" d="M34.0165 1.70091V-1.70065"/>
<use data-text="2" xlink:href="#font_2_107" transform="matrix(9.963397,0,0,-9.9626,44.426599,111.916)"/>
<use data-text="0" xlink:href="#font_2_121" transform="matrix(9.963397,0,0,-9.9626,49.408296,111.916)"/>
<path transform="matrix(1.00008,0,0,-1,15.389275,99.861)" stroke-width="1.19553" stroke-linecap="butt" stroke-miterlimit="10" stroke-linejoin="miter" fill="none" stroke="#00aeef" d="M68.03302 0V85.04128"/>
<path transform="matrix(1.00008,0,0,-1,15.389275,99.861)" stroke-width=".79701" stroke-linecap="butt" stroke-miterlimit="10" stroke-linejoin="miter" fill="none" stroke="#000000" d="M68.03302 1.70091V-1.70065"/>
<use data-text="4" xlink:href="#font_2_57" transform="matrix(9.963397,0,0,-9.9626,78.44632,112.026)"/>
<use data-text="0" xlink:href="#font_2_121" transform="matrix(9.963397,0,0,-9.9626,83.42801,112.026)"/>
<path transform="matrix(1.00008,0,0,-1,15.389275,99.861)" stroke-width="1.19553" stroke-linecap="butt" stroke-miterlimit="10" stroke-linejoin="miter" fill="none" stroke="#00aeef" d="M0 34.0165H85.04128"/>
<path transform="matrix(1.00008,0,0,-1,15.389275,99.861)" stroke-width=".79701" stroke-linecap="butt" stroke-miterlimit="10" stroke-linejoin="miter" fill="none" stroke="#000000" d="M.16997 34.0165H-.17024"/>
<use data-text="2" xlink:href="#font_2_107" transform="matrix(9.963397,0,0,-9.9626,1.5361633,69.053)"/>
<use data-text="0" xlink:href="#font_2_121" transform="matrix(9.963397,0,0,-9.9626,6.5178606,69.053)"/>
<path transform="matrix(1.00008,0,0,-1,15.389275,99.861)" stroke-width="1.19553" stroke-linecap="butt" stroke-miterlimit="10" stroke-linejoin="miter" fill="none" stroke="#00aeef" d="M0 68.03302H85.04128"/>
<path transform="matrix(1.00008,0,0,-1,15.389275,99.861)" stroke-width=".79701" stroke-linecap="butt" stroke-miterlimit="10" stroke-linejoin="miter" fill="none" stroke="#000000" d="M.16997 68.03302H-.17024"/>
<use data-text="4" xlink:href="#font_2_57" transform="matrix(9.963397,0,0,-9.9626,1.5361633,35.091005)"/>
<use data-text="0" xlink:href="#font_2_121" transform="matrix(9.963397,0,0,-9.9626,6.5178606,35.091005)"/>
<path transform="matrix(1.00008,0,0,-1,15.389275,99.861)" stroke-width="1.19553" stroke-linecap="butt" stroke-miterlimit="10" stroke-linejoin="miter" fill="none" stroke="#ff0000" d="M18.36893 85.03944C18.36893 85.03944 19.1216 81.6799 19.41068 80.47803 19.69974 79.27618 20.16333 77.45976 20.4524 76.37727 20.74149 75.29478 21.20506 73.656 21.49413 72.6762 21.78322 71.69637 22.2468 70.20665 22.53586 69.31532 22.82494 68.42401 23.28854 67.06606 23.5776 66.25217 23.86667 65.43825 24.33028 64.1957 24.61934 63.44928 24.90842 62.70285 25.37201 61.55916 25.66107 60.87245 25.95015 60.18573 26.41374 59.13394 26.70282 58.49986 26.99188 57.86578 27.45547 56.89005 27.74455 56.30246 28.03362 55.71487 28.49721 54.81053 28.78627 54.26492 29.07536 53.71933 29.53894 52.87822 29.82802 52.37013 30.11708 51.86208 30.58069 51.07758 30.86975 50.60303 31.15881 50.12846 31.62242 49.39377 31.91148 48.94984 32.20055 48.50594 32.66415 47.81964 32.95323 47.4036 33.2423 46.98756 33.70589 46.34253 33.99496 45.9513 34.28403 45.56006 34.74762 44.95226 35.0367 44.58385 35.32576 44.21545 35.78935 43.64325 36.07843 43.2961 36.36751 42.94894 36.83109 42.40962 37.12016 42.08176 37.40924 41.7539 37.87282 41.24336 38.1619 40.9331 38.45096 40.62286 38.91457 40.13963 39.20363 39.8457 39.49269 39.55177 39.9563 39.09357 40.24538 38.8146 40.53444 38.53566 40.99803 38.10017 41.28711 37.83514 41.57617 37.57013 42.03975 37.1567 42.32884 36.9045 42.6179 36.6523 43.0815 36.25766 43.37059 36.01743 43.65965 35.77722 44.12323 35.40218 44.41231 35.1732 44.70139 34.94423 45.16496 34.58589 45.45404 34.36713 45.7431 34.14833 46.20671 33.80536 46.49577 33.59633 46.78485 33.38731 47.24844 33.06053 47.53752 32.86058 47.82658 32.66063 48.29018 32.34659 48.57925 32.15517 48.86832 31.96376 49.33192 31.66432 49.62099 31.48093 49.91006 31.29755 50.37364 31.00943 50.66272 30.83342 50.9518 30.65741 51.41537 30.38129 51.70444 30.21237 51.99353 30.04346 52.45712 29.7783 52.74619 29.61598 53.03528 29.45366 53.49886 29.19862 53.78792 29.04243 54.077 28.88623 54.54059 28.6404 54.82965 28.49017 55.11873 28.33994 55.58232 28.1044 55.87138 27.95969 56.16046 27.81497 56.62407 27.58658 56.91313 27.44713 57.20221 27.30768 57.66579 27.08893 57.95486 26.95456 58.24394 26.82018 58.70752 26.6084 58.9966 26.47859 59.28568 26.34877 59.74927 26.14433 60.03833 26.01897 60.32741 25.89359 60.791 25.69604 61.08006 25.57492 61.36914 25.4538 61.83273 25.26294 62.1218 25.14592 62.41087 25.0289 62.87448 24.84467 63.16354 24.73145 63.4526 24.61826 63.91621 24.4395 64.20528 24.32997 64.49434 24.22044 64.95795 24.04799 65.24701 23.94199 65.53609 23.83597 65.99966 23.6688 66.28876 23.56592 66.57782 23.46306 67.04141 23.30022 67.33047 23.20052 67.61955 23.10081 68.08315 22.94391 68.37221 22.8473 68.66129 22.7507 69.12488 22.598 69.41396 22.50421 69.70302 22.4104 70.16661 22.26225 70.45569 22.17123 70.74475 22.08022 71.20836 21.9365 71.49742 21.84814 71.78648 21.75977 72.25009 21.62016 72.53915 21.53435 72.82822 21.44855 73.29181 21.31308 73.5809 21.22968 73.86996 21.1463 74.33354 21.01439 74.62263 20.9333 74.9117 20.85222 75.37529 20.72415 75.66435 20.64522 75.95343 20.5663 76.41702 20.44118 76.7061 20.36443 76.99516 20.28766 77.45876 20.16655 77.74783 20.09192 78.0369 20.01727 78.50049 19.89915 78.78957 19.82643 79.07863 19.75371 79.54224 19.63853 79.83131 19.56767 80.12038 19.49681 80.58397 19.38474 80.87305 19.31569 81.16211 19.24663 81.62569 19.13725 81.91478 19.0699 82.20384 19.00258 82.66743 18.89601 82.9565 18.83037 83.24559 18.76472 83.70917 18.66078 83.99825 18.5968 84.28732 18.53282 85.03998 18.3692 85.03998 18.3692"/>
<path transform="matrix(1.00008,0,0,-1,15.389275,99.861)" d="M36.56773 45.92223C36.56773 47.33124 35.4255 48.47345 34.0165 48.47345 32.6075 48.47345 31.46527 47.33124 31.46527 45.92223 31.46527 44.51321 32.6075 43.37099 34.0165 43.37099 35.4255 43.37099 36.56773 44.51321 36.56773 45.92223ZM34.0165 45.92223" fill="#0000ff"/>
<path transform="matrix(1.00008,0,0,-1,15.389275,99.861)" stroke-width=".3985" stroke-linecap="butt" stroke-miterlimit="10" stroke-linejoin="miter" fill="none" stroke="#0000ff" d="M36.56773 45.92223C36.56773 47.33124 35.4255 48.47345 34.0165 48.47345 32.6075 48.47345 31.46527 47.33124 31.46527 45.92223 31.46527 44.51321 32.6075 43.37099 34.0165 43.37099 35.4255 43.37099 36.56773 44.51321 36.56773 45.92223ZM34.0165 45.92223"/>
<path transform="matrix(1.00008,0,0,-1,15.389275,99.861)" d="M45.07185 36.73788C45.07185 38.1469 43.92964 39.28911 42.52063 39.28911 41.11162 39.28911 39.9694 38.1469 39.9694 36.73788 39.9694 35.32887 41.11162 34.18666 42.52063 34.18666 43.92964 34.18666 45.07185 35.32887 45.07185 36.73788ZM42.52063 36.73788" fill="#0000ff"/>
<path transform="matrix(1.00008,0,0,-1,15.389275,99.861)" stroke-width=".3985" stroke-linecap="butt" stroke-miterlimit="10" stroke-linejoin="miter" fill="none" stroke="#0000ff" d="M45.07185 36.73788C45.07185 38.1469 43.92964 39.28911 42.52063 39.28911 41.11162 39.28911 39.9694 38.1469 39.9694 36.73788 39.9694 35.32887 41.11162 34.18666 42.52063 34.18666 43.92964 34.18666 45.07185 35.32887 45.07185 36.73788ZM42.52063 36.73788"/>
<path transform="matrix(1.00008,0,0,-1,15.389275,99.861)" d="M53.57599 30.6149C53.57599 32.0239 52.43378 33.16612 51.02477 33.16612 49.61575 33.16612 48.47354 32.0239 48.47354 30.6149 48.47354 29.20589 49.61575 28.06366 51.02477 28.06366 52.43378 28.06366 53.57599 29.20589 53.57599 30.6149ZM51.02477 30.6149" fill="#0000ff"/>
<path transform="matrix(1.00008,0,0,-1,15.389275,99.861)" stroke-width=".3985" stroke-linecap="butt" stroke-miterlimit="10" stroke-linejoin="miter" fill="none" stroke="#0000ff" d="M53.57599 30.6149C53.57599 32.0239 52.43378 33.16612 51.02477 33.16612 49.61575 33.16612 48.47354 32.0239 48.47354 30.6149 48.47354 29.20589 49.61575 28.06366 51.02477 28.06366 52.43378 28.06366 53.57599 29.20589 53.57599 30.6149ZM51.02477 30.6149"/>
</svg>
