<svg xmlns="http://www.w3.org/2000/svg" xmlns:xlink="http://www.w3.org/1999/xlink" version="1.1" width="209" height="168" viewBox="0 0 209 168">
<defs>
<path id="font_1_2" d="M.20599365 .3996582H.2999878C.31999208 .3996582 .32998658 .3996582 .32998658 .41966249 .32998658 .43066407 .31999208 .43066407 .3019867 .43066407H.21398926C.25 .5724945 .25498963 .59246829 .25498963 .59846499 .25498963 .61546328 .24299622 .62545779 .22599793 .62545779 .22299195 .62545779 .19499207 .62446597 .18598938 .58947756L.14698792 .43066407H.052993776C.032989503 .43066407 .022994996 .43066407 .022994996 .4116516 .022994996 .3996582 .0309906 .3996582 .050994874 .3996582H.13899231C.066986087 .11608887 .06298828 .099121097 .06298828 .08114624 .06298828 .02722168 .100997928-.0107421879 .15499878-.0107421879 .25698854-.0107421879 .31399537 .13505554 .31399537 .14305115 .31399537 .1530304 .30599977 .1530304 .3019867 .1530304 .29299928 .1530304 .2919922 .15003968 .2869873 .13905335 .24398804 .035217287 .19099427 .011245728 .15699768 .011245728 .13598633 .011245728 .12599182 .024230957 .12599182 .057174684 .12599182 .08114624 .12799073 .088134769 .13198853 .10510254L.20599365 .3996582Z"/>
<path id="font_1_1" d="M.9169922 .5666046C.94200137 .61061099 .96598818 .64660647 1.0289917 .6516113 1.0379944 .65260317 1.0479889 .65260317 1.0479889 .6716156 1.0479889 .6756134 1.0439911 .6826172 1.0359955 .6826172 1.0119934 .6826172 .98399356 .6796112 .95899966 .6796112 .9249878 .6796112 .8880005 .6826172 .8549957 .6826172 .848999 .6826172 .83599856 .6826172 .83599856 .66360476 .83599856 .65260317 .8450012 .6516113 .8509979 .6516113 .875 .65060427 .9099884 .64260867 .9099884 .61260989 .9099884 .6016083 .9049988 .5935974 .8969879 .5796051L.6269989 .108551029 .58999636 .604599C.58898928 .6246033 .58699038 .65060427 .6599884 .6516113 .6769867 .6516113 .68699648 .6516113 .68699648 .6716156 .68699648 .6816101 .6759949 .6826172 .6719971 .6826172 .6319885 .6826172 .58999636 .6796112 .5499878 .6796112 .5269928 .6796112 .46798707 .6826172 .44499208 .6826172 .43899537 .6826172 .42599488 .6826172 .42599488 .6626129 .42599488 .6516113 .43598939 .6516113 .44999696 .6516113 .49398805 .6516113 .5009918 .6456146 .5029907 .6266022L.5089874 .54959109 .2559967 .108551029 .21798706 .6156006C.21798706 .62760928 .21798706 .65060427 .2939911 .6516113 .3039856 .6516113 .31498719 .6516113 .31498719 .6716156 .31498719 .6826172 .30299378 .6826172 .30099488 .6826172 .26098634 .6826172 .21899414 .6796112 .17799378 .6796112 .14299011 .6796112 .10699463 .6826172 .07299805 .6826172 .067993167 .6826172 .054992677 .6826172 .054992677 .66360476 .054992677 .6516113 .06399536 .6516113 .07998657 .6516113 .12998963 .6516113 .1309967 .64260867 .1329956 .61460879L.17799378 .0035247803C.1789856-.014465332 .17999268-.022460938 .19400025-.022460938 .20599365-.022460938 .20899964-.016464234 .21798706-.0014648438L.5119934 .5085907 .548996 .0035247803C.5509949-.017471314 .5529938-.022460938 .5649872-.022460938 .5779877-.022460938 .58399966-.012466431 .58898928-.0034637452L.9169922 .5666046Z"/>
<path id="font_2_3" d="M.1269989 .07699585 .23298645 .18003845C.3889923 .31811524 .44898988 .3721466 .44898988 .47216798 .44898988 .5860901 .35899354 .6660156 .23699951 .6660156 .12399292 .6660156 .049987794 .57411196 .049987794 .48516847 .049987794 .4291687 .099990848 .4291687 .102996829 .4291687 .11999512 .4291687 .15499878 .44117738 .15499878 .48217774 .15499878 .5081787 .13699341 .5341797 .101989749 .5341797 .09399414 .5341797 .09199524 .5341797 .08898926 .5331726 .11199951 .59806826 .1659851 .63500979 .22399903 .63500979 .31498719 .63500979 .35798646 .5541382 .35798646 .47216798 .35798646 .39215089 .30799867 .31311036 .25299073 .25108338L.06098938 .036987306C.049987794 .025985718 .049987794 .023986817 .049987794 0H.42099L.44898988 .17404175H.42399598C.4189911 .14402771 .4119873 .1000061 .4019928 .084991458 .394989 .07699585 .32899476 .07699585 .30699159 .07699585H.1269989Z"/>
<path id="font_2_1" d="M.45999146 .31976319C.45999146 .39982606 .45498658 .47988893 .41999818 .5539398 .37399293 .65000918 .2919922 .6660156 .25 .6660156 .18998719 .6660156 .116989139 .64001467 .07598877 .54693606 .04399109 .47789 .038986207 .39982606 .038986207 .31976319 .038986207 .24472046 .042999269 .15464783 .083999637 .07859802 .1269989-.0024719239 .19999695-.022460938 .24899292-.022460938 .30299378-.022460938 .3789978-.0014648438 .4229889 .09359741 .45498658 .16265869 .45999146 .2407074 .45999146 .31976319M.24899292-.00047302247C.20999146-.00047302247 .15098572 .024551392 .1329956 .12062073 .12199402 .18066406 .12199402 .2727356 .12199402 .3317871 .12199402 .39582826 .12199402 .46188355 .12998963 .5159149 .14898682 .63500979 .22399903 .64401248 .24899292 .64401248 .28199769 .64401248 .34799195 .6259918 .36698915 .52693179 .3769989 .47088624 .3769989 .39482118 .3769989 .3317871 .3769989 .25672914 .3769989 .18867493 .3659973 .12461853 .35099793 .029556275 .2939911-.00047302247 .24899292-.00047302247Z"/>
<path id="font_2_5" d="M.2939911 .16503906V.07800293C.2939911 .041992189 .2919922 .0309906 .21798706 .0309906H.19699097V0C.23799134 .0029907227 .2899933 .0029907227 .33198548 .0029907227 .37399293 .0029907227 .4269867 .0029907227 .46798707 0V.0309906H.44699098C.37298585 .0309906 .37098695 .041992189 .37098695 .07800293V.16503906H.47099305V.19602967H.37098695V.65075686C.37098695 .67074587 .37098695 .6767578 .35499574 .6767578 .34599305 .6767578 .34298707 .6767578 .33499146 .66474917L.027999878 .19602967V.16503906H.2939911M.2999878 .19602967H.055999757L.2999878 .5688019V.19602967Z"/>
<path id="font_2_6" d="M.13198853 .327713V.35173036C.13198853 .6047821 .2559967 .64100649 .30699159 .64100649 .33099366 .64100649 .37298585 .634964 .394989 .6007538 .37998963 .6007538 .33999635 .6007538 .33999635 .5557556 .33999635 .524765 .3639984 .5097656 .38598634 .5097656 .4019928 .5097656 .43199159 .51875308 .43199159 .5577545 .43199159 .6178589 .3880005 .6660156 .30499269 .6660156 .1769867 .6660156 .041992189 .5367584 .041992189 .31570436 .041992189 .048553468 .1579895-.022460938 .25099183-.022460938 .3619995-.022460938 .45700074 .07156372 .45700074 .2036438 .45700074 .33070375 .36799623 .4267578 .25698854 .4267578 .18899536 .4267578 .1519928 .37573243 .13198853 .327713M.25099183 .0055389406C.18798828 .0055389406 .1579895 .06556702 .1519928 .080566409 .13398743 .127594 .13398743 .2076416 .13398743 .22564698 .13398743 .30369569 .1659851 .40374757 .2559967 .40374757 .27198792 .40374757 .31799317 .40374757 .34899903 .34172059 .36698915 .30470277 .36698915 .2536621 .36698915 .20463562 .36698915 .15661621 .36698915 .10658264 .34999085 .0705719 .31999208 .010528564 .27398683 .0055389406 .25099183 .0055389406Z"/>
<path id="font_2_2" d="M.2939911 .64004519C.2939911 .66400149 .2939911 .6660156 .2709961 .6660156 .20899964 .60227969 .12098694 .60227969 .08898926 .60227969V.57128909C.10899353 .57128909 .16799927 .57128909 .21998596 .5972748V.07902527C.21998596 .042999269 .21699524 .0309906 .1269989 .0309906H.09498596V0C.12998963 .0029907227 .21699524 .0029907227 .25698854 .0029907227 .29699708 .0029907227 .38398744 .0029907227 .4189911 0V.0309906H.3869934C.29699708 .0309906 .2939911 .041992189 .2939911 .07902527V.64004519Z"/>
<path id="font_2_4" d="M.2899933 .35191346C.37199403 .37893678 .42999269 .4490509 .42999269 .52809146 .42999269 .6100464 .34199525 .6660156 .24598694 .6660156 .14498902 .6660156 .068984989 .60606387 .068984989 .53009036 .068984989 .49710084 .09098816 .47808839 .11999512 .47808839 .15098572 .47808839 .17098999 .50009158 .17098999 .5290985 .17098999 .57910159 .12399292 .57910159 .10899353 .57910159 .13999939 .62802127 .20599365 .64100649 .24198914 .64100649 .2829895 .64100649 .33799745 .6190338 .33799745 .5290985 .33799745 .51708987 .33599855 .45906068 .30999757 .4149933 .27999879 .36691285 .24598694 .36390687 .22099304 .36291505 .21299744 .36190797 .18899536 .35990907 .18199158 .35990907 .17399597 .35890199 .16699219 .35791017 .16699219 .3479004 .16699219 .33691407 .17399597 .33691407 .19099427 .33691407H.23498535C.31698609 .33691407 .35398866 .2686615 .35398866 .17037964 .35398866 .034469606 .2849884 .0055389406 .24099732 .0055389406 .19799805 .0055389406 .12298584 .022491456 .08799744 .08137512 .12298584 .07637024 .1539917 .09837341 .1539917 .1363678 .1539917 .17237854 .1269989 .19238281 .09799194 .19238281 .07398987 .19238281 .041992189 .17837525 .041992189 .1343689 .041992189 .043441774 .1349945-.022460938 .24398804-.022460938 .3659973-.022460938 .45700074 .06838989 .45700074 .17037964 .45700074 .252594 .3939972 .33088685 .2899933 .35191346Z"/>
</defs>
<path transform="matrix(1.00003,0,0,-1.00003,16.719147,153.99227)" stroke-width=".3985" stroke-linecap="butt" stroke-miterlimit="10" stroke-linejoin="miter" fill="none" stroke="#00aeef" d="M0 0H170.09122M0 6.80293H170.09122M0 13.6059H170.09122M0 20.40886H170.09122M0 27.21182H170.09122M0 34.01477H170.09122M0 40.81773H170.09122M0 47.6207H170.09122M0 54.42366H170.09122M0 61.2266H170.09122M0 68.02956H170.09122M0 74.83252H170.09122M0 81.63548H170.09122M0 88.43843H170.09122M0 95.2414H170.09122M0 102.04436H170.09122M0 108.84732H170.09122M0 115.65025H170.09122M0 122.45322H170.09122M0 129.25618H170.09122M0 136.05794H170.09122M0 0V136.05915M11.3394 0V136.05915M22.67882 0V136.05915M34.01823 0V136.05915M45.35765 0V136.05915M56.69707 0V136.05915M68.03648 0V136.05915M79.37589 0V136.05915M90.7153 0V136.05915M102.05473 0V136.05915M113.39415 0V136.05915M124.73357 0V136.05915M136.07299 0V136.05915M147.41239 0V136.05915M158.7518 0V136.05915M170.09023 0V136.05915M170.09122 136.05915"/>
<path transform="matrix(1.00003,0,0,-1.00003,16.719147,153.99227)" stroke-width=".79701" stroke-linecap="butt" stroke-miterlimit="10" stroke-linejoin="miter" fill="none" stroke="#000000" d="M0 0H182.83089"/>
<path transform="matrix(1.00003,0,0,-1.00003,199.55553,153.99227)" d="M1.0361 0C-.25902 .25902-1.55415 .77707-3.1083 1.68365-1.55415 .51805-1.55415-.51805-3.1083-1.68365-1.55415-.77707-.25902-.25902 1.0361 0Z"/>
<path transform="matrix(1.00003,0,0,-1.00003,199.55553,153.99227)" stroke-width=".79701" stroke-linecap="butt" stroke-linejoin="round" fill="none" stroke="#000000" d="M1.0361 0C-.25902 .25902-1.55415 .77707-3.1083 1.68365-1.55415 .51805-1.55415-.51805-3.1083-1.68365-1.55415-.77707-.25902-.25902 1.0361 0Z"/>
<use data-text="t" xlink:href="#font_1_2" transform="matrix(9.962899,0,0,-9.962899,204.7098,157.05635)"/>
<path transform="matrix(1.00003,0,0,-1.00003,16.719147,153.99227)" stroke-width=".79701" stroke-linecap="butt" stroke-miterlimit="10" stroke-linejoin="miter" fill="none" stroke="#000000" d="M0 0V148.23044"/>
<path transform="matrix(0,-1.00003,-1.00003,-0,16.719147,5.75737)" d="M1.0361 0C-.25902 .25902-1.55415 .77707-3.1083 1.68365-1.55415 .51805-1.55415-.51805-3.1083-1.68365-1.55415-.77707-.25902-.25902 1.0361 0Z"/>
<path transform="matrix(0,-1.00003,-1.00003,-0,16.719147,5.75737)" stroke-width=".79701" stroke-linecap="butt" stroke-linejoin="round" fill="none" stroke="#000000" d="M1.0361 0C-.25902 .25902-1.55415 .77707-3.1083 1.68365-1.55415 .51805-1.55415-.51805-3.1083-1.68365-1.55415-.77707-.25902-.25902 1.0361 0Z"/>
<use data-text="W" xlink:href="#font_1_1" transform="matrix(9.962899,0,0,-9.962899,4.1987688,7.7268679)"/>
<path transform="matrix(1.00003,0,0,-1.00003,16.719147,153.99227)" stroke-width="1.19553" stroke-linecap="butt" stroke-miterlimit="10" stroke-linejoin="miter" fill="none" stroke="#00aeef" d="M56.69707 0V136.05915"/>
<path transform="matrix(1.00003,0,0,-1.00003,16.719147,153.99227)" stroke-width=".3985" stroke-linecap="butt" stroke-miterlimit="10" stroke-linejoin="miter" fill="none" stroke="#000000" d="M56.69707 1.70073V-1.70073"/>
<use data-text="2" xlink:href="#font_2_3" transform="matrix(9.962899,0,0,-9.962899,68.4367,165.6336)"/>
<use data-text="0" xlink:href="#font_2_1" transform="matrix(9.962899,0,0,-9.962899,73.41815,165.6336)"/>
<path transform="matrix(1.00003,0,0,-1.00003,16.719147,153.99227)" stroke-width="1.19553" stroke-linecap="butt" stroke-miterlimit="10" stroke-linejoin="miter" fill="none" stroke="#00aeef" d="M113.39415 0V136.05915"/>
<path transform="matrix(1.00003,0,0,-1.00003,16.719147,153.99227)" stroke-width=".3985" stroke-linecap="butt" stroke-miterlimit="10" stroke-linejoin="miter" fill="none" stroke="#000000" d="M113.39415 1.70073V-1.70073"/>
<use data-text="4" xlink:href="#font_2_5" transform="matrix(9.962899,0,0,-9.962899,125.13541,165.6336)"/>
<use data-text="0" xlink:href="#font_2_1" transform="matrix(9.962899,0,0,-9.962899,130.11685,165.6336)"/>
<path transform="matrix(1.00003,0,0,-1.00003,16.719147,153.99227)" stroke-width="1.19553" stroke-linecap="butt" stroke-miterlimit="10" stroke-linejoin="miter" fill="none" stroke="#00aeef" d="M170.09122 0V136.05915"/>
<path transform="matrix(1.00003,0,0,-1.00003,16.719147,153.99227)" stroke-width=".3985" stroke-linecap="butt" stroke-miterlimit="10" stroke-linejoin="miter" fill="none" stroke="#000000" d="M170.09122 1.70073V-1.70073"/>
<use data-text="6" xlink:href="#font_2_6" transform="matrix(9.962899,0,0,-9.962899,181.8341,165.6336)"/>
<use data-text="0" xlink:href="#font_2_1" transform="matrix(9.962899,0,0,-9.962899,186.81555,165.6336)"/>
<path transform="matrix(1.00003,0,0,-1.00003,16.719147,153.99227)" stroke-width="1.19553" stroke-linecap="butt" stroke-miterlimit="10" stroke-linejoin="miter" fill="none" stroke="#00aeef" d="M0 34.01477H170.09122"/>
<path transform="matrix(1.00003,0,0,-1.00003,16.719147,153.99227)" stroke-width=".3985" stroke-linecap="butt" stroke-miterlimit="10" stroke-linejoin="miter" fill="none" stroke="#000000" d="M1.70091 34.01477H-1.70087"/>
<use data-text="1" xlink:href="#font_2_2" transform="matrix(9.962899,0,0,-9.962899,1.5356903,123.18634)"/>
<use data-text="0" xlink:href="#font_2_1" transform="matrix(9.962899,0,0,-9.962899,6.5171434,123.18634)"/>
<path transform="matrix(1.00003,0,0,-1.00003,16.719147,153.99227)" stroke-width="1.19553" stroke-linecap="butt" stroke-miterlimit="10" stroke-linejoin="miter" fill="none" stroke="#00aeef" d="M0 68.02956H170.09122"/>
<path transform="matrix(1.00003,0,0,-1.00003,16.719147,153.99227)" stroke-width=".3985" stroke-linecap="butt" stroke-miterlimit="10" stroke-linejoin="miter" fill="none" stroke="#000000" d="M1.70091 68.02956H-1.70087"/>
<use data-text="2" xlink:href="#font_2_3" transform="matrix(9.962899,0,0,-9.962899,1.5356903,89.17132)"/>
<use data-text="0" xlink:href="#font_2_1" transform="matrix(9.962899,0,0,-9.962899,6.5171434,89.17132)"/>
<path transform="matrix(1.00003,0,0,-1.00003,16.719147,153.99227)" stroke-width="1.19553" stroke-linecap="butt" stroke-miterlimit="10" stroke-linejoin="miter" fill="none" stroke="#00aeef" d="M0 102.04436H170.09122"/>
<path transform="matrix(1.00003,0,0,-1.00003,16.719147,153.99227)" stroke-width=".3985" stroke-linecap="butt" stroke-miterlimit="10" stroke-linejoin="miter" fill="none" stroke="#000000" d="M1.70091 102.04436H-1.70087"/>
<use data-text="3" xlink:href="#font_2_4" transform="matrix(9.962899,0,0,-9.962899,1.5356903,55.155298)"/>
<use data-text="0" xlink:href="#font_2_1" transform="matrix(9.962899,0,0,-9.962899,6.5171434,55.155298)"/>
<path transform="matrix(1.00003,0,0,-1.00003,16.719147,153.99227)" stroke-width="1.19553" stroke-linecap="butt" stroke-miterlimit="10" stroke-linejoin="miter" fill="none" stroke="#00aeef" d="M0 136.05915H170.09122"/>
<path transform="matrix(1.00003,0,0,-1.00003,16.719147,153.99227)" stroke-width=".3985" stroke-linecap="butt" stroke-miterlimit="10" stroke-linejoin="miter" fill="none" stroke="#000000" d="M1.70091 136.05915H-1.70087"/>
<use data-text="4" xlink:href="#font_2_5" transform="matrix(9.962899,0,0,-9.962899,1.5356903,21.139267)"/>
<use data-text="0" xlink:href="#font_2_1" transform="matrix(9.962899,0,0,-9.962899,6.5171434,21.139267)"/>
<path transform="matrix(1.00003,0,0,-1.00003,16.719147,153.99227)" stroke-width="1.19553" stroke-linecap="butt" stroke-miterlimit="10" stroke-linejoin="miter" fill="none" stroke="#ff0000" d="M0 12.92561 168.57128 134.28583"/>
<path transform="matrix(.8115344,-.58425757,-.58425757,-.8115344,185.29547,19.702424)" d="M1.27522 0C-.31879 .31879-1.91284 .9564-3.8257 2.07224-1.91284 .6376-1.91284-.6376-3.8257-2.07224-1.91284-.9564-.31879-.31879 1.27522 0Z" fill="#ff0000"/>
<path transform="matrix(.8115344,-.58425757,-.58425757,-.8115344,185.29547,19.702424)" stroke-width="1.19553" stroke-linecap="butt" stroke-linejoin="round" fill="none" stroke="#ff0000" d="M1.27522 0C-.31879 .31879-1.91284 .9564-3.8257 2.07224-1.91284 .6376-1.91284-.6376-3.8257-2.07224-1.91284-.9564-.31879-.31879 1.27522 0Z"/>
</svg>
