<svg xmlns="http://www.w3.org/2000/svg" xmlns:xlink="http://www.w3.org/1999/xlink" version="1.1" width="179" height="106" viewBox="0 0 179 106">
<defs>
<path id="font_1_57" d="M.47099305 .16503906V.19602967H.37098695V.6507721C.37098695 .6707611 .37098695 .6767578 .35499574 .6767578 .34599305 .6767578 .34298707 .6767578 .33499146 .6647644L.027999878 .19602967V.16503906H.2939911V.07800293C.2939911 .041992189 .2919922 .0309906 .21798706 .0309906H.19699097V0C.23799134 .0029907227 .2899933 .0029907227 .33198548 .0029907227 .37399293 .0029907227 .4269867 .0029907227 .46798707 0V.0309906H.44699098C.37298585 .0309906 .37098695 .041992189 .37098695 .07800293V.16503906H.47099305M.2999878 .19602967H.055999757L.2999878 .56881716V.19602967Z"/>
<path id="font_1_101" d="M.45700074 .2036438C.45700074 .33070375 .36799623 .4267578 .25698854 .4267578 .18899536 .4267578 .1519928 .37573243 .13198853 .327713V.35173036C.13198853 .6047821 .2559967 .64100649 .30699159 .64100649 .33099366 .64100649 .37298585 .634964 .394989 .6007538 .37998963 .6007538 .33999635 .6007538 .33999635 .5557556 .33999635 .524765 .3639984 .5097656 .38598634 .5097656 .4019928 .5097656 .43199159 .51875308 .43199159 .5577545 .43199159 .6178589 .3880005 .6660156 .30499269 .6660156 .1769867 .6660156 .041992189 .5367584 .041992189 .31570436 .041992189 .048553468 .1579895-.022460938 .25099183-.022460938 .3619995-.022460938 .45700074 .07156372 .45700074 .2036438M.36698915 .20463562C.36698915 .15661621 .36698915 .10658264 .34999085 .0705719 .31999208 .010528564 .27398683 .0055389406 .25099183 .0055389406 .18798828 .0055389406 .1579895 .06556702 .1519928 .080566409 .13398743 .127594 .13398743 .2076416 .13398743 .22564698 .13398743 .30369569 .1659851 .40374757 .2559967 .40374757 .27198792 .40374757 .31799317 .40374757 .34899903 .34172059 .36698915 .30470277 .36698915 .2536621 .36698915 .20463562Z"/>
<path id="font_1_28" d="M.48298646 .08912659V.14511109H.45799256V.08912659C.45799256 .03112793 .43299867 .025131226 .42199708 .025131226 .3889923 .025131226 .3849945 .070129398 .3849945 .07511902V.27508546C.3849945 .31707765 .3849945 .3560791 .34899903 .39312745 .30999757 .43223573 .2599945 .4482422 .21199036 .4482422 .12998963 .4482422 .06098938 .40115357 .06098938 .335083 .06098938 .30508424 .08099365 .28808595 .10699463 .28808595 .1349945 .28808595 .15299988 .30807496 .15299988 .33407594 .15299988 .3460846 .147995 .37908937 .101989749 .38008119 .1289978 .41519166 .17799378 .426239 .20999146 .426239 .25898744 .426239 .31599427 .38710023 .31599427 .29808045V.26107789C.2649994 .25808717 .19499207 .25508119 .13198853 .22509766 .056991579 .19110108 .03199768 .13911438 .03199768 .09512329 .03199768 .014251709 .1289978-.0107421879 .19198609-.0107421879 .2579956-.0107421879 .3039856 .029251099 .32299806 .07624817 .32699586 .036132814 .35398866-.005859375 .40098573-.005859375 .42199708-.005859375 .48298646 .008132935 .48298646 .08912659M.31599427 .14013672C.31599427 .04525757 .24398804 .011245728 .19898987 .011245728 .1499939 .011245728 .10899353 .04624939 .10899353 .09625244 .10899353 .15124512 .15098572 .23425293 .31599427 .24024964V.14013672Z"/>
<path id="font_1_88" d="M.19198609 .052993776C.19198609 .08198547 .16799927 .10598755 .13899231 .10598755 .10998535 .10598755 .085998538 .08198547 .085998538 .052993776 .085998538 .023986817 .10998535 0 .13899231 0 .16799927 0 .19198609 .023986817 .19198609 .052993776Z"/>
<path id="font_1_51" d="M.45700074 .16764832C.45700074 .20367432 .44599916 .24871826 .4079895 .29074098 .3889923 .31176759 .37298585 .32176209 .30899049 .36180116 .3809967 .39881898 .42999269 .4508667 .42999269 .51690676 .42999269 .6089783 .34098817 .6660156 .25 .6660156 .1499939 .6660156 .068984989 .5919647 .068984989 .49890138 .068984989 .48088075 .070999149 .43585206 .11299133 .38882447 .12399292 .3768158 .16099549 .35179139 .18598938 .33477784 .12799073 .30575563 .041992189 .24971009 .041992189 .15063477 .041992189 .044555665 .14399719-.022460938 .24899292-.022460938 .3619995-.022460938 .45700074 .060577394 .45700074 .16764832M.38598634 .51690676C.38598634 .45986939 .34700013 .41183473 .2869873 .3768158L.16299439 .4568634C.116989139 .4868927 .11299133 .5209198 .11299133 .53793337 .11299133 .5989685 .17799378 .64100649 .24899292 .64100649 .32199098 .64100649 .38598634 .588974 .38598634 .51690676M.40699769 .13162232C.40699769 .05757141 .33198548 .0055389406 .25 .0055389406 .1639862 .0055389406 .09199524 .06758118 .09199524 .15063477 .09199524 .2086792 .12399292 .2727356 .20899964 .31976319L.33198548 .24171448C.3600006 .22268677 .40699769 .19267273 .40699769 .13162232Z"/>
<path id="font_1_35" d="M.5209961 .2163086C.5209961 .34335328 .4229889 .4423828 .30899049 .4423828 .23098755 .4423828 .18798828 .39537049 .17199707 .3773651V.69433596L.027999878 .68333438V.6523285C.09799194 .6523285 .10598755 .6453247 .10598755 .596344V.00024414063H.1309967L.16699219 .06227112C.18199158 .039260866 .22399903-.0107421879 .2979889-.0107421879 .4169922-.0107421879 .5209961 .08728027 .5209961 .2163086M.43798829 .21731568C.43798829 .18029785 .43598939 .120285037 .40699769 .07527161 .38598634 .044265748 .34799195 .011245728 .2939911 .011245728 .24899292 .011260986 .21299744 .03526306 .18899536 .072265628 .1749878 .09326172 .1749878 .09625244 .1749878 .11425781V.32034303C.1749878 .3393402 .1749878 .3403473 .18598938 .35635377 .22499085 .41236878 .27999879 .42037965 .3039856 .42037965 .34899903 .42037965 .3849945 .3943634 .40899659 .35635377 .43499757 .31533814 .43798829 .25831605 .43798829 .21730042V.21731568Z"/>
</defs>
<path transform="matrix(1.00005,0,0,-1,16.750237,94.21)" stroke-width="1.19553" stroke-linecap="butt" stroke-miterlimit="10" stroke-linejoin="miter" fill="none" stroke="#cbcbcb" d="M0 0H45.35419"/>
<use data-text="4" xlink:href="#font_1_57" transform="matrix(9.963098,0,0,-9.9626,36.93725,104.873)"/>
<path transform="matrix(1.00005,0,0,-1,16.750237,94.21)" stroke-width="1.19553" stroke-linecap="butt" stroke-miterlimit="10" stroke-linejoin="miter" fill="none" stroke="#cbcbcb" d="M45.3557 68.03355V.00226"/>
<use data-text="6" xlink:href="#font_1_101" transform="matrix(9.963098,0,0,-9.9626,66.026699,63.4)"/>
<path transform="matrix(1.00005,0,0,-1,16.750237,94.21)" d="M1.70076 0C1.70076 .9393 .9393 1.70076 0 1.70076-.9393 1.70076-1.70076 .9393-1.70076 0-1.70076-.9393-.9393-1.70076 0-1.70076 .9393-1.70076 1.70076-.9393 1.70076 0ZM0 0" fill="#ff0000"/>
<path transform="matrix(1.00005,0,0,-1,16.750237,94.21)" stroke-width=".3985" stroke-linecap="butt" stroke-miterlimit="10" stroke-linejoin="miter" fill="none" stroke="#ff0000" d="M1.70076 0C1.70076 .9393 .9393 1.70076 0 1.70076-.9393 1.70076-1.70076 .9393-1.70076 0-1.70076-.9393-.9393-1.70076 0-1.70076 .9393-1.70076 1.70076-.9393 1.70076 0ZM0 0"/>
<path transform="matrix(1.00005,0,0,-1,16.750237,94.21)" d="M47.05647 68.03355C47.05647 68.97287 46.29501 69.73433 45.3557 69.73433 44.41638 69.73433 43.65494 68.97287 43.65494 68.03355 43.65494 67.09424 44.41638 66.3328 45.3557 66.3328 46.29501 66.3328 47.05647 67.09424 47.05647 68.03355ZM45.3557 68.03355" fill="#ff0000"/>
<path transform="matrix(1.00005,0,0,-1,16.750237,94.21)" stroke-width=".3985" stroke-linecap="butt" stroke-miterlimit="10" stroke-linejoin="miter" fill="none" stroke="#ff0000" d="M47.05647 68.03355C47.05647 68.97287 46.29501 69.73433 45.3557 69.73433 44.41638 69.73433 43.65494 68.97287 43.65494 68.03355 43.65494 67.09424 44.41638 66.3328 45.3557 66.3328 46.29501 66.3328 47.05647 67.09424 47.05647 68.03355ZM45.3557 68.03355"/>
<path transform="matrix(1.00005,0,0,-1,16.750237,94.21)" stroke-width="1.59404" stroke-linecap="butt" stroke-miterlimit="10" stroke-linejoin="miter" fill="none" stroke="#ff0000" d="M0 0 45.3557 68.03355"/>
<use data-text="a" xlink:href="#font_1_28" transform="matrix(9.963098,0,0,-9.9626,1.5354767,68.177)"/>
<use data-text="." xlink:href="#font_1_88" transform="matrix(9.963098,0,0,-9.9626,6.517021,68.177)"/>
<path transform="matrix(1.00005,0,0,-1,16.750237,94.21)" stroke-width="1.19553" stroke-linecap="butt" stroke-miterlimit="10" stroke-linejoin="miter" fill="none" stroke="#cbcbcb" d="M158.74503 0H113.39082"/>
<use data-text="4" xlink:href="#font_1_57" transform="matrix(9.963098,0,0,-9.9626,150.3339,104.873)"/>
<path transform="matrix(1.00005,0,0,-1,16.750237,94.21)" stroke-width="1.19553" stroke-linecap="butt" stroke-miterlimit="10" stroke-linejoin="miter" fill="none" stroke="#cbcbcb" d="M113.39462 90.71141V.00302"/>
<use data-text="8" xlink:href="#font_1_51" transform="matrix(9.963098,0,0,-9.9626,121.25046,52.061)"/>
<path transform="matrix(1.00005,0,0,-1,16.750237,94.21)" d="M160.44579 0C160.44579 .9393 159.68434 1.70076 158.74503 1.70076 157.80571 1.70076 157.04425 .9393 157.04425 0 157.04425-.9393 157.80571-1.70076 158.74503-1.70076 159.68434-1.70076 160.44579-.9393 160.44579 0ZM158.74503 0" fill="#ff0000"/>
<path transform="matrix(1.00005,0,0,-1,16.750237,94.21)" stroke-width=".3985" stroke-linecap="butt" stroke-miterlimit="10" stroke-linejoin="miter" fill="none" stroke="#ff0000" d="M160.44579 0C160.44579 .9393 159.68434 1.70076 158.74503 1.70076 157.80571 1.70076 157.04425 .9393 157.04425 0 157.04425-.9393 157.80571-1.70076 158.74503-1.70076 159.68434-1.70076 160.44579-.9393 160.44579 0ZM158.74503 0"/>
<path transform="matrix(1.00005,0,0,-1,16.750237,94.21)" d="M115.09538 90.71141C115.09538 91.65073 114.33394 92.41219 113.39462 92.41219 112.4553 92.41219 111.69385 91.65073 111.69385 90.71141 111.69385 89.7721 112.4553 89.01065 113.39462 89.01065 114.33394 89.01065 115.09538 89.7721 115.09538 90.71141ZM113.39462 90.71141" fill="#ff0000"/>
<path transform="matrix(1.00005,0,0,-1,16.750237,94.21)" stroke-width=".3985" stroke-linecap="butt" stroke-miterlimit="10" stroke-linejoin="miter" fill="none" stroke="#ff0000" d="M115.09538 90.71141C115.09538 91.65073 114.33394 92.41219 113.39462 92.41219 112.4553 92.41219 111.69385 91.65073 111.69385 90.71141 111.69385 89.7721 112.4553 89.01065 113.39462 89.01065 114.33394 89.01065 115.09538 89.7721 115.09538 90.71141ZM113.39462 90.71141"/>
<path transform="matrix(1.00005,0,0,-1,16.750237,94.21)" stroke-width="1.59404" stroke-linecap="butt" stroke-miterlimit="10" stroke-linejoin="miter" fill="none" stroke="#ff0000" d="M158.74503 0 113.39462 90.71141"/>
<use data-text="b" xlink:href="#font_1_35" transform="matrix(9.963098,0,0,-9.9626,108.98384,70.628)"/>
<use data-text="." xlink:href="#font_1_88" transform="matrix(9.963098,0,0,-9.9626,114.52332,70.628)"/>
</svg>
