<svg xmlns="http://www.w3.org/2000/svg" xmlns:xlink="http://www.w3.org/1999/xlink" version="1.1" width="185" height="106" viewBox="0 0 185 106">
<defs>
<path id="font_1_28" d="M.48298646 .08912659V.14511109H.45799256V.08912659C.45799256 .03112793 .43299867 .025131226 .42199708 .025131226 .3889923 .025131226 .3849945 .070129398 .3849945 .07511902V.27508546C.3849945 .31707765 .3849945 .3560791 .34899903 .39312745 .30999757 .43223573 .2599945 .4482422 .21199036 .4482422 .12998963 .4482422 .06098938 .40115357 .06098938 .335083 .06098938 .30508424 .08099365 .28808595 .10699463 .28808595 .1349945 .28808595 .15299988 .30807496 .15299988 .33407594 .15299988 .3460846 .147995 .37908937 .101989749 .38008119 .1289978 .41519166 .17799378 .426239 .20999146 .426239 .25898744 .426239 .31599427 .38710023 .31599427 .29808045V.26107789C.2649994 .25808717 .19499207 .25508119 .13198853 .22509766 .056991579 .19110108 .03199768 .13911438 .03199768 .09512329 .03199768 .014251709 .1289978-.0107421879 .19198609-.0107421879 .2579956-.0107421879 .3039856 .029251099 .32299806 .07624817 .32699586 .036132814 .35398866-.005859375 .40098573-.005859375 .42199708-.005859375 .48298646 .008132935 .48298646 .08912659M.31599427 .14013672C.31599427 .04525757 .24398804 .011245728 .19898987 .011245728 .1499939 .011245728 .10899353 .04624939 .10899353 .09625244 .10899353 .15124512 .15098572 .23425293 .31599427 .24024964V.14013672Z"/>
<path id="font_1_88" d="M.19198609 .052993776C.19198609 .08198547 .16799927 .10598755 .13899231 .10598755 .10998535 .10598755 .085998538 .08198547 .085998538 .052993776 .085998538 .023986817 .10998535 0 .13899231 0 .16799927 0 .19198609 .023986817 .19198609 .052993776Z"/>
<path id="font_1_35" d="M.5209961 .2163086C.5209961 .34335328 .4229889 .4423828 .30899049 .4423828 .23098755 .4423828 .18798828 .39537049 .17199707 .3773651V.69433596L.027999878 .68333438V.6523285C.09799194 .6523285 .10598755 .6453247 .10598755 .596344V.00024414063H.1309967L.16699219 .06227112C.18199158 .039260866 .22399903-.0107421879 .2979889-.0107421879 .4169922-.0107421879 .5209961 .08728027 .5209961 .2163086M.43798829 .21731568C.43798829 .18029785 .43598939 .120285037 .40699769 .07527161 .38598634 .044265748 .34799195 .011245728 .2939911 .011245728 .24899292 .011260986 .21299744 .03526306 .18899536 .072265628 .1749878 .09326172 .1749878 .09625244 .1749878 .11425781V.32034303C.1749878 .3393402 .1749878 .3403473 .18598938 .35635377 .22499085 .41236878 .27999879 .42037965 .3039856 .42037965 .34899903 .42037965 .3849945 .3943634 .40899659 .35635377 .43499757 .31533814 .43798829 .25831605 .43798829 .21730042V.21731568Z"/>
</defs>
<path transform="matrix(1,0,0,-1.00003,14.764999,76.635829)" stroke-width=".3985" stroke-linecap="butt" stroke-miterlimit="10" stroke-linejoin="miter" fill="none" stroke="#00aeef" d="M0 0H93.54497M0 9.35448H93.54497M0 18.70897H93.54497M0 28.06348H93.54497M0 37.41469H93.54497M0 0V37.41797M9.35448 0V37.41797M18.70897 0V37.41797M28.06348 0V37.41797M37.41797 0V37.41797M46.77248 0V37.41797M56.12697 0V37.41797M65.48148 0V37.41797M74.83597 0V37.41797M84.19048 0V37.41797M93.54169 0V37.41797M93.54497 37.41797"/>
<path transform="matrix(1,0,0,-1.00003,14.764999,76.635829)" d="M85.59412 9.35452C85.59412 10.12949 84.96591 10.75769 84.19096 10.75769 83.41602 10.75769 82.78781 10.12949 82.78781 9.35452 82.78781 8.57957 83.41602 7.95137 84.19096 7.95137 84.96591 7.95137 85.59412 8.57957 85.59412 9.35452ZM84.19096 9.35452" fill="#ff0000"/>
<path transform="matrix(1,0,0,-1.00003,14.764999,76.635829)" stroke-width=".3985" stroke-linecap="butt" stroke-miterlimit="10" stroke-linejoin="miter" fill="none" stroke="#ff0000" d="M85.59412 9.35452C85.59412 10.12949 84.96591 10.75769 84.19096 10.75769 83.41602 10.75769 82.78781 10.12949 82.78781 9.35452 82.78781 8.57957 83.41602 7.95137 84.19096 7.95137 84.96591 7.95137 85.59412 8.57957 85.59412 9.35452ZM84.19096 9.35452"/>
<path transform="matrix(1,0,0,-1.00003,14.764999,76.635829)" d="M10.75769 28.06363C10.75769 28.8386 10.12949 29.4668 9.35452 29.4668 8.57957 29.4668 7.95137 28.8386 7.95137 28.06363 7.95137 27.28868 8.57957 26.66048 9.35452 26.66048 10.12949 26.66048 10.75769 27.28868 10.75769 28.06363ZM9.35452 28.06363" fill="#ff0000"/>
<path transform="matrix(1,0,0,-1.00003,14.764999,76.635829)" stroke-width=".3985" stroke-linecap="butt" stroke-miterlimit="10" stroke-linejoin="miter" fill="none" stroke="#ff0000" d="M10.75769 28.06363C10.75769 28.8386 10.12949 29.4668 9.35452 29.4668 8.57957 29.4668 7.95137 28.8386 7.95137 28.06363 7.95137 27.28868 8.57957 26.66048 9.35452 26.66048 10.12949 26.66048 10.75769 27.28868 10.75769 28.06363ZM9.35452 28.06363"/>
<path transform="matrix(1,0,0,-1.00003,14.764999,76.635829)" stroke-width="1.59404" stroke-linecap="butt" stroke-miterlimit="10" stroke-linejoin="miter" fill="none" stroke="#ff0000" d="M84.19096 9.35452 9.35452 28.06363"/>
<use data-text="a" xlink:href="#font_1_28" transform="matrix(9.9626,0,0,-9.962899,1.5350037,65.9095)"/>
<use data-text="." xlink:href="#font_1_88" transform="matrix(9.9626,0,0,-9.962899,6.516304,65.9095)"/>
<path transform="matrix(1,0,0,-1.00003,14.764999,76.635829)" stroke-width=".3985" stroke-linecap="butt" stroke-miterlimit="10" stroke-linejoin="miter" fill="none" stroke="#00aeef" d="M121.60847-28.06348H168.38097M121.60847-18.70897H168.38097M121.60847-9.35448H168.38097M121.60847 0H168.38097M121.60847 9.35448H168.38097M121.60847 18.70897H168.38097M121.60847 28.06348H168.38097M121.60847 37.41797H168.38097M121.60847 46.77248H168.38097M121.60847 56.12697H168.38097M121.60847 65.48148H168.38097M121.60847 74.83269H168.38097M121.60847-28.06348V74.83597M130.96297-28.06348V74.83597M140.31748-28.06348V74.83597M149.67197-28.06348V74.83597M159.02648-28.06348V74.83597M168.37769-28.06348V74.83597M168.38097 74.83597"/>
<path transform="matrix(1,0,0,-1.00003,14.764999,76.635829)" d="M160.43126 65.48195C160.43126 66.2569 159.80306 66.88512 159.0281 66.88512 158.25315 66.88512 157.62494 66.2569 157.62494 65.48195 157.62494 64.707 158.25315 64.0788 159.0281 64.0788 159.80306 64.0788 160.43126 64.707 160.43126 65.48195ZM159.0281 65.48195" fill="#ff0000"/>
<path transform="matrix(1,0,0,-1.00003,14.764999,76.635829)" stroke-width=".3985" stroke-linecap="butt" stroke-miterlimit="10" stroke-linejoin="miter" fill="none" stroke="#ff0000" d="M160.43126 65.48195C160.43126 66.2569 159.80306 66.88512 159.0281 66.88512 158.25315 66.88512 157.62494 66.2569 157.62494 65.48195 157.62494 64.707 158.25315 64.0788 159.0281 64.0788 159.80306 64.0788 160.43126 64.707 160.43126 65.48195ZM159.0281 65.48195"/>
<path transform="matrix(1,0,0,-1.00003,14.764999,76.635829)" d="M132.3676-18.70898C132.3676-17.93404 131.7394-17.30583 130.96445-17.30583 130.1895-17.30583 129.56128-17.93404 129.56128-18.70898 129.56128-19.48395 130.1895-20.11215 130.96445-20.11215 131.7394-20.11215 132.3676-19.48395 132.3676-18.70898ZM130.96445-18.70898" fill="#ff0000"/>
<path transform="matrix(1,0,0,-1.00003,14.764999,76.635829)" stroke-width=".3985" stroke-linecap="butt" stroke-miterlimit="10" stroke-linejoin="miter" fill="none" stroke="#ff0000" d="M132.3676-18.70898C132.3676-17.93404 131.7394-17.30583 130.96445-17.30583 130.1895-17.30583 129.56128-17.93404 129.56128-18.70898 129.56128-19.48395 130.1895-20.11215 130.96445-20.11215 131.7394-20.11215 132.3676-19.48395 132.3676-18.70898ZM130.96445-18.70898"/>
<path transform="matrix(1,0,0,-1.00003,14.764999,76.635829)" stroke-width="1.59404" stroke-linecap="butt" stroke-miterlimit="10" stroke-linejoin="miter" fill="none" stroke="#ff0000" d="M159.0281 65.48195 130.96445-18.70898"/>
<use data-text="b" xlink:href="#font_1_35" transform="matrix(9.9626,0,0,-9.962899,120.993999,66.48952)"/>
<use data-text="." xlink:href="#font_1_88" transform="matrix(9.9626,0,0,-9.962899,126.5332,66.48952)"/>
</svg>
