<svg xmlns="http://www.w3.org/2000/svg" xmlns:xlink="http://www.w3.org/1999/xlink" version="1.1" width="201" height="258" viewBox="0 0 201 258">
<defs>
<path id="font_1_1" d="M.5159912 .68333438C.5159912 .6843262 .5159912 .69433596 .5029907 .69433596 .48799134 .69433596 .3929901 .68533328 .37599183 .68333438 .36799623 .6823273 .3619995 .6773224 .3619995 .6643219 .3619995 .6523285 .37098695 .6523285 .38598634 .6523285 .43399049 .6523285 .43598939 .6453247 .43598939 .6353302L.43299867 .6153412 .37298585 .37835694C.35499574 .41537477 .32598878 .4423828 .2809906 .4423828 .1639862 .4423828 .039993287 .29533387 .039993287 .14929199 .039993287 .055267335 .09498596-.0107421879 .17298889-.0107421879 .19299317-.0107421879 .24299622-.0067443849 .30299378 .06427002 .31098939 .022247315 .34599305-.0107421879 .3939972-.0107421879 .42900086-.0107421879 .45199586 .012252808 .46798707 .044265748 .4850006 .08027649 .49798585 .14129639 .49798585 .14329529 .49798585 .1532898 .4889984 .1532898 .48599244 .1532898 .47599793 .1532898 .47499085 .14929199 .47200013 .13528443 .45498658 .07026672 .43699647 .011245728 .3959961 .011245728 .36898805 .011245728 .3659973 .037261964 .3659973 .057266237 .3659973 .08126831 .36799623 .088272098 .37199403 .105285648L.5159912 .68333438M.30799867 .119277957C.30299378 .10127258 .30299378 .09927368 .28799439 .08227539 .24398804 .027252198 .20298767 .011245728 .1749878 .011245728 .125 .011245728 .11099243 .06626892 .11099243 .105285648 .11099243 .1552887 .14299011 .27833558 .1659851 .32434083 .19699097 .38336183 .24198914 .42037965 .28199769 .42037965 .34700013 .42037965 .36099244 .3383484 .36099244 .33235169 .36099244 .32633973 .35899354 .32034303 .35798646 .31533814L.30799867 .119277957Z"/>
<path id="font_1_2" d="M.2869873 .68333438C.2869873 .6843262 .2869873 .69433596 .27398683 .69433596 .25099183 .69433596 .17799378 .6863251 .1519928 .6843262 .14399719 .68333438 .1329956 .6823273 .1329956 .6643219 .1329956 .6523285 .14199829 .6523285 .15699768 .6523285 .20498657 .6523285 .20698548 .6453247 .20698548 .6353302L.20399475 .6153412 .05899048 .039260866C.054992677 .025253296 .054992677 .023254395 .054992677 .01725769 .054992677-.0057525637 .07499695-.0107421879 .083999637-.0107421879 .099990848-.0107421879 .115997318 .0012512207 .12098694 .015258789L.13999939 .091278079 .1619873 .18130493C.16799927 .2033081 .17399597 .22531128 .1789856 .24832154 .18099976 .25431825 .18899536 .28733827 .18998719 .29333497 .19299317 .30233766 .22399903 .35835267 .2579956 .38536073 .27999879 .4013672 .31098939 .42037965 .35398866 .42037965 .39698792 .42037965 .4079895 .3863678 .4079895 .35035707 .4079895 .29634095 .36999513 .18730164 .34599305 .12628174 .33799745 .103271488 .33299256 .091278079 .33299256 .0712738 .33299256 .024261475 .36799623-.0107421879 .4149933-.0107421879 .5089874-.0107421879 .54599 .13528443 .54599 .14329529 .54599 .1532898 .5369873 .1532898 .5339966 .1532898 .5239868 .1532898 .5239868 .15029907 .5189972 .13528443 .5039978 .08227539 .47200013 .011245728 .4169922 .011245728 .3999939 .011245728 .3929901 .021255494 .3929901 .044265748 .3929901 .0692749 .4019928 .09327698 .41099549 .11528015 .4269867 .15829468 .47200013 .2773285 .47200013 .3353424 .47200013 .4003601 .43199159 .4423828 .35699464 .4423828 .2939911 .4423828 .24598694 .41137696 .20899964 .36535646L.2869873 .68333438Z"/>
<path id="font_2_1" d="M.6589966 .23046875C.6759949 .23046875 .69400027 .23046875 .69400027 .25045777 .69400027 .27046205 .6759949 .27046205 .6589966 .27046205H.117996219C.100997928 .27046205 .08299255 .27046205 .08299255 .25045777 .08299255 .23046875 .100997928 .23046875 .117996219 .23046875H.6589966Z"/>
<path id="font_3_6" d="M.13198853 .327713V.35173036C.13198853 .6047821 .2559967 .64100649 .30699159 .64100649 .33099366 .64100649 .37298585 .634964 .394989 .6007538 .37998963 .6007538 .33999635 .6007538 .33999635 .5557556 .33999635 .524765 .3639984 .5097656 .38598634 .5097656 .4019928 .5097656 .43199159 .51875308 .43199159 .5577545 .43199159 .6178589 .3880005 .6660156 .30499269 .6660156 .1769867 .6660156 .041992189 .5367584 .041992189 .31570436 .041992189 .048553468 .1579895-.022460938 .25099183-.022460938 .3619995-.022460938 .45700074 .07156372 .45700074 .2036438 .45700074 .33070375 .36799623 .4267578 .25698854 .4267578 .18899536 .4267578 .1519928 .37573243 .13198853 .327713M.25099183 .0055389406C.18798828 .0055389406 .1579895 .06556702 .1519928 .080566409 .13398743 .127594 .13398743 .2076416 .13398743 .22564698 .13398743 .30369569 .1659851 .40374757 .2559967 .40374757 .27198792 .40374757 .31799317 .40374757 .34899903 .34172059 .36698915 .30470277 .36698915 .2536621 .36698915 .20463562 .36698915 .15661621 .36698915 .10658264 .34999085 .0705719 .31999208 .010528564 .27398683 .0055389406 .25099183 .0055389406Z"/>
<path id="font_3_5" d="M.2939911 .16503906V.07800293C.2939911 .041992189 .2919922 .0309906 .21798706 .0309906H.19699097V0C.23799134 .0029907227 .2899933 .0029907227 .33198548 .0029907227 .37399293 .0029907227 .4269867 .0029907227 .46798707 0V.0309906H.44699098C.37298585 .0309906 .37098695 .041992189 .37098695 .07800293V.16503906H.47099305V.19602967H.37098695V.65075686C.37098695 .67074587 .37098695 .6767578 .35499574 .6767578 .34599305 .6767578 .34298707 .6767578 .33499146 .66474917L.027999878 .19602967V.16503906H.2939911M.2999878 .19602967H.055999757L.2999878 .5688019V.19602967Z"/>
<path id="font_3_3" d="M.1269989 .07699585 .23298645 .18003845C.3889923 .31811524 .44898988 .3721466 .44898988 .47216798 .44898988 .5860901 .35899354 .6660156 .23699951 .6660156 .12399292 .6660156 .049987794 .57411196 .049987794 .48516847 .049987794 .4291687 .099990848 .4291687 .102996829 .4291687 .11999512 .4291687 .15499878 .44117738 .15499878 .48217774 .15499878 .5081787 .13699341 .5341797 .101989749 .5341797 .09399414 .5341797 .09199524 .5341797 .08898926 .5331726 .11199951 .59806826 .1659851 .63500979 .22399903 .63500979 .31498719 .63500979 .35798646 .5541382 .35798646 .47216798 .35798646 .39215089 .30799867 .31311036 .25299073 .25108338L.06098938 .036987306C.049987794 .025985718 .049987794 .023986817 .049987794 0H.42099L.44898988 .17404175H.42399598C.4189911 .14402771 .4119873 .1000061 .4019928 .084991458 .394989 .07699585 .32899476 .07699585 .30699159 .07699585H.1269989Z"/>
<path id="font_3_7" d="M.16299439 .4569702C.116989139 .486969 .11299133 .52098086 .11299133 .5379791 .11299133 .598999 .17799378 .64100649 .24899292 .64100649 .32199098 .64100649 .38598634 .58898928 .38598634 .51698306 .38598634 .45996095 .34700013 .4119568 .2869873 .37695313L.16299439 .4569702M.30899049 .36193849C.3809967 .3989563 .42999269 .45095826 .42999269 .51698306 .42999269 .6090088 .34098817 .6660156 .25 .6660156 .1499939 .6660156 .068984989 .59199526 .068984989 .49897767 .068984989 .4809723 .070999149 .43595887 .11299133 .38894654 .12399292 .37695313 .16099549 .35194398 .18598938 .33494569 .12799073 .30592347 .041992189 .24984741 .041992189 .15072632 .041992189 .04458618 .14399719-.022460938 .24899292-.022460938 .3619995-.022460938 .45700074 .06060791 .45700074 .16773987 .45700074 .20379639 .44599916 .24885559 .4079895 .2909088 .3889923 .31193543 .37298585 .3219452 .30899049 .36193849M.20899964 .3199463 .33198548 .24183655C.3600006 .2228241 .40699769 .19277954 .40699769 .13169861 .40699769 .05760193 .33198548 .0055389406 .25 .0055389406 .1639862 .0055389406 .09199524 .067611698 .09199524 .15072632 .09199524 .20880127 .12399292 .27288819 .20899964 .3199463Z"/>
<path id="font_3_2" d="M.2939911 .64004519C.2939911 .66400149 .2939911 .6660156 .2709961 .6660156 .20899964 .60227969 .12098694 .60227969 .08898926 .60227969V.57128909C.10899353 .57128909 .16799927 .57128909 .21998596 .5972748V.07902527C.21998596 .042999269 .21699524 .0309906 .1269989 .0309906H.09498596V0C.12998963 .0029907227 .21699524 .0029907227 .25698854 .0029907227 .29699708 .0029907227 .38398744 .0029907227 .4189911 0V.0309906H.3869934C.29699708 .0309906 .2939911 .041992189 .2939911 .07902527V.64004519Z"/>
<path id="font_3_1" d="M.45999146 .31976319C.45999146 .39982606 .45498658 .47988893 .41999818 .5539398 .37399293 .65000918 .2919922 .6660156 .25 .6660156 .18998719 .6660156 .116989139 .64001467 .07598877 .54693606 .04399109 .47789 .038986207 .39982606 .038986207 .31976319 .038986207 .24472046 .042999269 .15464783 .083999637 .07859802 .1269989-.0024719239 .19999695-.022460938 .24899292-.022460938 .30299378-.022460938 .3789978-.0014648438 .4229889 .09359741 .45498658 .16265869 .45999146 .2407074 .45999146 .31976319M.24899292-.00047302247C.20999146-.00047302247 .15098572 .024551392 .1329956 .12062073 .12199402 .18066406 .12199402 .2727356 .12199402 .3317871 .12199402 .39582826 .12199402 .46188355 .12998963 .5159149 .14898682 .63500979 .22399903 .64401248 .24899292 .64401248 .28199769 .64401248 .34799195 .6259918 .36698915 .52693179 .3769989 .47088624 .3769989 .39482118 .3769989 .3317871 .3769989 .25672914 .3769989 .18867493 .3659973 .12461853 .35099793 .029556275 .2939911-.00047302247 .24899292-.00047302247Z"/>
<path id="font_3_4" d="M.2899933 .35191346C.37199403 .37893678 .42999269 .4490509 .42999269 .52809146 .42999269 .6100464 .34199525 .6660156 .24598694 .6660156 .14498902 .6660156 .068984989 .60606387 .068984989 .53009036 .068984989 .49710084 .09098816 .47808839 .11999512 .47808839 .15098572 .47808839 .17098999 .50009158 .17098999 .5290985 .17098999 .57910159 .12399292 .57910159 .10899353 .57910159 .13999939 .62802127 .20599365 .64100649 .24198914 .64100649 .2829895 .64100649 .33799745 .6190338 .33799745 .5290985 .33799745 .51708987 .33599855 .45906068 .30999757 .4149933 .27999879 .36691285 .24598694 .36390687 .22099304 .36291505 .21299744 .36190797 .18899536 .35990907 .18199158 .35990907 .17399597 .35890199 .16699219 .35791017 .16699219 .3479004 .16699219 .33691407 .17399597 .33691407 .19099427 .33691407H.23498535C.31698609 .33691407 .35398866 .2686615 .35398866 .17037964 .35398866 .034469606 .2849884 .0055389406 .24099732 .0055389406 .19799805 .0055389406 .12298584 .022491456 .08799744 .08137512 .12298584 .07637024 .1539917 .09837341 .1539917 .1363678 .1539917 .17237854 .1269989 .19238281 .09799194 .19238281 .07398987 .19238281 .041992189 .17837525 .041992189 .1343689 .041992189 .043441774 .1349945-.022460938 .24398804-.022460938 .3659973-.022460938 .45700074 .06838989 .45700074 .17037964 .45700074 .252594 .3939972 .33088685 .2899933 .35191346Z"/>
</defs>
<path transform="matrix(1.00006,0,0,-1.00008,91.62072,245.34265)" stroke-width=".3985" stroke-linecap="butt" stroke-miterlimit="10" stroke-linejoin="miter" fill="none" stroke="#00aeef" d="M-85.04042 0H85.04042M-85.04042 14.17339H85.04042M-85.04042 28.3468H85.04042M-85.04042 42.5202H85.04042M-85.04042 56.69362H85.04042M-85.04042 70.867H85.04042M-85.04042 85.04042H85.04042M-85.04042 99.21382H85.04042M-85.04042 113.38724H85.04042M-85.04042 127.56062H85.04042M-85.04042 141.73404H85.04042M-85.04042 155.90744H85.04042M-85.04042 170.08086H85.04042M-85.04042 184.25424H85.04042M-85.04042 198.42766H85.04042M-85.04042 212.60106H85.04042M-85.04042 226.76949H85.04042M-85.04042 0V226.77448M-70.867 0V226.77448M-56.69362 0V226.77448M-42.5202 0V226.77448M-28.3468 0V226.77448M-14.17339 0V226.77448M0 0V226.77448M14.17339 0V226.77448M28.3468 0V226.77448M42.5202 0V226.77448M56.69362 0V226.77448M70.867 0V226.77448M85.03543 0V226.77448M85.04042 226.77448"/>
<path transform="matrix(1.00006,0,0,-1.00008,91.62072,245.34265)" stroke-width=".79701" stroke-linecap="butt" stroke-miterlimit="10" stroke-linejoin="miter" fill="none" stroke="#000000" d="M-85.04042 0H97.7792"/>
<path transform="matrix(1.00006,0,0,-1.00008,189.40578,245.34265)" d="M1.0361 0C-.25902 .25902-1.55415 .77707-3.1083 1.68365-1.55415 .51805-1.55415-.51805-3.1083-1.68365-1.55415-.77707-.25902-.25902 1.0361 0Z"/>
<path transform="matrix(1.00006,0,0,-1.00008,189.40578,245.34265)" stroke-width=".79701" stroke-linecap="butt" stroke-linejoin="round" fill="none" stroke="#000000" d="M1.0361 0C-.25902 .25902-1.55415 .77707-3.1083 1.68365-1.55415 .51805-1.55415-.51805-3.1083-1.68365-1.55415-.77707-.25902-.25902 1.0361 0Z"/>
<use data-text="d" xlink:href="#font_1_1" transform="matrix(9.963197,0,0,-9.963397,194.55989,248.80193)"/>
<path transform="matrix(1.00006,0,0,-1.00008,91.62072,245.34265)" stroke-width=".79701" stroke-linecap="butt" stroke-miterlimit="10" stroke-linejoin="miter" fill="none" stroke="#000000" d="M0 0V239.51326"/>
<path transform="matrix(0,-1.00008,-1.00006,-0,91.62072,5.8102266)" d="M1.0361 0C-.25902 .25902-1.55415 .77707-3.1083 1.68365-1.55415 .51805-1.55415-.51805-3.1083-1.68365-1.55415-.77707-.25902-.25902 1.0361 0Z"/>
<path transform="matrix(0,-1.00008,-1.00006,-0,91.62072,5.8102266)" stroke-width=".79701" stroke-linecap="butt" stroke-linejoin="round" fill="none" stroke="#000000" d="M1.0361 0C-.25902 .25902-1.55415 .77707-3.1083 1.68365-1.55415 .51805-1.55415-.51805-3.1083-1.68365-1.55415-.77707-.25902-.25902 1.0361 0Z"/>
<use data-text="h" xlink:href="#font_1_2" transform="matrix(9.963197,0,0,-9.963397,84.153278,7.834656)"/>
<path transform="matrix(1.00006,0,0,-1.00008,91.62072,245.34265)" stroke-width="1.19553" stroke-linecap="butt" stroke-miterlimit="10" stroke-linejoin="miter" fill="none" stroke="#00aeef" d="M-85.04042 0V226.77448"/>
<path transform="matrix(1.00006,0,0,-1.00008,91.62072,245.34265)" stroke-width=".3985" stroke-linecap="butt" stroke-miterlimit="10" stroke-linejoin="miter" fill="none" stroke="#000000" d="M-85.04042 1.4174V-1.41719"/>
<path transform="matrix(1.00006,0,0,-1.00008,91.62072,245.34265)" d="M-92.40181-12.85223H-77.67903V-3.6090003H-92.40181Z" fill="#ffffff"/>
<use data-text="&#x2212;" xlink:href="#font_2_1" transform="matrix(9.963197,0,0,-9.963397,.20924378,256.36955)"/>
<use data-text="6" xlink:href="#font_3_6" transform="matrix(9.963197,0,0,-9.963397,7.9586946,256.36955)"/>
<path transform="matrix(1.00006,0,0,-1.00008,91.62072,245.34265)" stroke-width="1.19553" stroke-linecap="butt" stroke-miterlimit="10" stroke-linejoin="miter" fill="none" stroke="#00aeef" d="M-56.69362 0V226.77448"/>
<path transform="matrix(1.00006,0,0,-1.00008,91.62072,245.34265)" stroke-width=".3985" stroke-linecap="butt" stroke-miterlimit="10" stroke-linejoin="miter" fill="none" stroke="#000000" d="M-56.69362 1.4174V-1.41719"/>
<path transform="matrix(1.00006,0,0,-1.00008,91.62072,245.34265)" d="M-64.05501-12.85223H-49.33223V-3.6090003H-64.05501Z" fill="#ffffff"/>
<use data-text="&#x2212;" xlink:href="#font_2_1" transform="matrix(9.963197,0,0,-9.963397,28.557938,256.36955)"/>
<use data-text="4" xlink:href="#font_3_5" transform="matrix(9.963197,0,0,-9.963397,36.30739,256.36955)"/>
<path transform="matrix(1.00006,0,0,-1.00008,91.62072,245.34265)" stroke-width="1.19553" stroke-linecap="butt" stroke-miterlimit="10" stroke-linejoin="miter" fill="none" stroke="#00aeef" d="M-28.3468 0V226.77448"/>
<path transform="matrix(1.00006,0,0,-1.00008,91.62072,245.34265)" stroke-width=".3985" stroke-linecap="butt" stroke-miterlimit="10" stroke-linejoin="miter" fill="none" stroke="#000000" d="M-28.3468 1.4174V-1.41719"/>
<path transform="matrix(1.00006,0,0,-1.00008,91.62072,245.34265)" d="M-35.70819-12.85223H-20.98541V-3.6090003H-35.70819Z" fill="#ffffff"/>
<use data-text="&#x2212;" xlink:href="#font_2_1" transform="matrix(9.963197,0,0,-9.963397,56.90663,256.36955)"/>
<use data-text="2" xlink:href="#font_3_3" transform="matrix(9.963197,0,0,-9.963397,64.65608,256.36955)"/>
<path transform="matrix(1.00006,0,0,-1.00008,91.62072,245.34265)" stroke-width="1.19553" stroke-linecap="butt" stroke-miterlimit="10" stroke-linejoin="miter" fill="none" stroke="#00aeef" d="M28.3468 0V226.77448"/>
<path transform="matrix(1.00006,0,0,-1.00008,91.62072,245.34265)" stroke-width=".3985" stroke-linecap="butt" stroke-miterlimit="10" stroke-linejoin="miter" fill="none" stroke="#000000" d="M28.3468 1.4174V-1.41719"/>
<path transform="matrix(1.00006,0,0,-1.00008,91.62072,245.34265)" d="M24.85983-12.02199H31.83377V-3.6090098H24.85983Z" fill="#ffffff"/>
<use data-text="2" xlink:href="#font_3_3" transform="matrix(9.963197,0,0,-9.963397,117.47827,256.36955)"/>
<path transform="matrix(1.00006,0,0,-1.00008,91.62072,245.34265)" stroke-width="1.19553" stroke-linecap="butt" stroke-miterlimit="10" stroke-linejoin="miter" fill="none" stroke="#00aeef" d="M56.69362 0V226.77448"/>
<path transform="matrix(1.00006,0,0,-1.00008,91.62072,245.34265)" stroke-width=".3985" stroke-linecap="butt" stroke-miterlimit="10" stroke-linejoin="miter" fill="none" stroke="#000000" d="M56.69362 1.4174V-1.41719"/>
<path transform="matrix(1.00006,0,0,-1.00008,91.62072,245.34265)" d="M53.20665-12.02199H60.180589V-3.6090098H53.20665Z" fill="#ffffff"/>
<use data-text="4" xlink:href="#font_3_5" transform="matrix(9.963197,0,0,-9.963397,145.82697,256.36955)"/>
<path transform="matrix(1.00006,0,0,-1.00008,91.62072,245.34265)" stroke-width="1.19553" stroke-linecap="butt" stroke-miterlimit="10" stroke-linejoin="miter" fill="none" stroke="#00aeef" d="M85.04042 0V226.77448"/>
<path transform="matrix(1.00006,0,0,-1.00008,91.62072,245.34265)" stroke-width=".3985" stroke-linecap="butt" stroke-miterlimit="10" stroke-linejoin="miter" fill="none" stroke="#000000" d="M85.04042 1.4174V-1.41719"/>
<path transform="matrix(1.00006,0,0,-1.00008,91.62072,245.34265)" d="M81.55345-12.02199H88.52739V-3.6090098H81.55345Z" fill="#ffffff"/>
<use data-text="6" xlink:href="#font_3_6" transform="matrix(9.963197,0,0,-9.963397,174.17568,256.36955)"/>
<path transform="matrix(1.00006,0,0,-1.00008,91.62072,245.34265)" stroke-width="1.19553" stroke-linecap="butt" stroke-miterlimit="10" stroke-linejoin="miter" fill="none" stroke="#00aeef" d="M-85.04042 28.3468H85.04042"/>
<path transform="matrix(1.00006,0,0,-1.00008,91.62072,245.34265)" stroke-width=".3985" stroke-linecap="butt" stroke-miterlimit="10" stroke-linejoin="miter" fill="none" stroke="#000000" d="M1.4174 28.3468H-1.41719"/>
<path transform="matrix(1.00006,0,0,-1.00008,91.62072,245.34265)" d="M-10.58295 24.1403H-3.6090098V32.55328H-10.58295Z" fill="#ffffff"/>
<use data-text="4" xlink:href="#font_3_5" transform="matrix(9.963197,0,0,-9.963397,82.03314,220.20365)"/>
<path transform="matrix(1.00006,0,0,-1.00008,91.62072,245.34265)" stroke-width="1.19553" stroke-linecap="butt" stroke-miterlimit="10" stroke-linejoin="miter" fill="none" stroke="#00aeef" d="M-85.04042 56.69362H85.04042"/>
<path transform="matrix(1.00006,0,0,-1.00008,91.62072,245.34265)" stroke-width=".3985" stroke-linecap="butt" stroke-miterlimit="10" stroke-linejoin="miter" fill="none" stroke="#000000" d="M1.4174 56.69362H-1.41719"/>
<path transform="matrix(1.00006,0,0,-1.00008,91.62072,245.34265)" d="M-10.58295 52.48712H-3.6090098V60.9001H-10.58295Z" fill="#ffffff"/>
<use data-text="8" xlink:href="#font_3_7" transform="matrix(9.963197,0,0,-9.963397,82.03314,191.85538)"/>
<path transform="matrix(1.00006,0,0,-1.00008,91.62072,245.34265)" stroke-width="1.19553" stroke-linecap="butt" stroke-miterlimit="10" stroke-linejoin="miter" fill="none" stroke="#00aeef" d="M-85.04042 85.04042H85.04042"/>
<path transform="matrix(1.00006,0,0,-1.00008,91.62072,245.34265)" stroke-width=".3985" stroke-linecap="butt" stroke-miterlimit="10" stroke-linejoin="miter" fill="none" stroke="#000000" d="M1.4174 85.04042H-1.41719"/>
<path transform="matrix(1.00006,0,0,-1.00008,91.62072,245.34265)" d="M-15.56436 80.83392H-3.6090193V89.2469H-15.56436Z" fill="#ffffff"/>
<use data-text="1" xlink:href="#font_3_2" transform="matrix(9.963197,0,0,-9.963397,77.05185,163.5061)"/>
<use data-text="2" xlink:href="#font_3_3" transform="matrix(9.963197,0,0,-9.963397,82.03343,163.5061)"/>
<path transform="matrix(1.00006,0,0,-1.00008,91.62072,245.34265)" stroke-width="1.19553" stroke-linecap="butt" stroke-miterlimit="10" stroke-linejoin="miter" fill="none" stroke="#00aeef" d="M-85.04042 113.38724H85.04042"/>
<path transform="matrix(1.00006,0,0,-1.00008,91.62072,245.34265)" stroke-width=".3985" stroke-linecap="butt" stroke-miterlimit="10" stroke-linejoin="miter" fill="none" stroke="#000000" d="M1.4174 113.38724H-1.41719"/>
<path transform="matrix(1.00006,0,0,-1.00008,91.62072,245.34265)" d="M-15.56436 109.18074H-3.6090193V117.59372H-15.56436Z" fill="#ffffff"/>
<use data-text="1" xlink:href="#font_3_2" transform="matrix(9.963197,0,0,-9.963397,77.05185,135.15683)"/>
<use data-text="6" xlink:href="#font_3_6" transform="matrix(9.963197,0,0,-9.963397,82.03343,135.15683)"/>
<path transform="matrix(1.00006,0,0,-1.00008,91.62072,245.34265)" stroke-width="1.19553" stroke-linecap="butt" stroke-miterlimit="10" stroke-linejoin="miter" fill="none" stroke="#00aeef" d="M-85.04042 141.73404H85.04042"/>
<path transform="matrix(1.00006,0,0,-1.00008,91.62072,245.34265)" stroke-width=".3985" stroke-linecap="butt" stroke-miterlimit="10" stroke-linejoin="miter" fill="none" stroke="#000000" d="M1.4174 141.73404H-1.41719"/>
<path transform="matrix(1.00006,0,0,-1.00008,91.62072,245.34265)" d="M-15.56436 137.52754H-3.6090193V145.94052H-15.56436Z" fill="#ffffff"/>
<use data-text="2" xlink:href="#font_3_3" transform="matrix(9.963197,0,0,-9.963397,77.05185,106.80757)"/>
<use data-text="0" xlink:href="#font_3_1" transform="matrix(9.963197,0,0,-9.963397,82.03343,106.80757)"/>
<path transform="matrix(1.00006,0,0,-1.00008,91.62072,245.34265)" stroke-width="1.19553" stroke-linecap="butt" stroke-miterlimit="10" stroke-linejoin="miter" fill="none" stroke="#00aeef" d="M-85.04042 170.08086H85.04042"/>
<path transform="matrix(1.00006,0,0,-1.00008,91.62072,245.34265)" stroke-width=".3985" stroke-linecap="butt" stroke-miterlimit="10" stroke-linejoin="miter" fill="none" stroke="#000000" d="M1.4174 170.08086H-1.41719"/>
<path transform="matrix(1.00006,0,0,-1.00008,91.62072,245.34265)" d="M-15.56436 165.87436H-3.6090193V174.28734H-15.56436Z" fill="#ffffff"/>
<use data-text="2" xlink:href="#font_3_3" transform="matrix(9.963197,0,0,-9.963397,77.05185,78.4583)"/>
<use data-text="4" xlink:href="#font_3_5" transform="matrix(9.963197,0,0,-9.963397,82.03343,78.4583)"/>
<path transform="matrix(1.00006,0,0,-1.00008,91.62072,245.34265)" stroke-width="1.19553" stroke-linecap="butt" stroke-miterlimit="10" stroke-linejoin="miter" fill="none" stroke="#00aeef" d="M-85.04042 198.42766H85.04042"/>
<path transform="matrix(1.00006,0,0,-1.00008,91.62072,245.34265)" stroke-width=".3985" stroke-linecap="butt" stroke-miterlimit="10" stroke-linejoin="miter" fill="none" stroke="#000000" d="M1.4174 198.42766H-1.41719"/>
<path transform="matrix(1.00006,0,0,-1.00008,91.62072,245.34265)" d="M-15.56436 194.22116H-3.6090193V202.63414H-15.56436Z" fill="#ffffff"/>
<use data-text="2" xlink:href="#font_3_3" transform="matrix(9.963197,0,0,-9.963397,77.05185,50.110048)"/>
<use data-text="8" xlink:href="#font_3_7" transform="matrix(9.963197,0,0,-9.963397,82.03343,50.110048)"/>
<path transform="matrix(1.00006,0,0,-1.00008,91.62072,245.34265)" stroke-width="1.19553" stroke-linecap="butt" stroke-miterlimit="10" stroke-linejoin="miter" fill="none" stroke="#00aeef" d="M-85.04042 226.77448H85.04042"/>
<path transform="matrix(1.00006,0,0,-1.00008,91.62072,245.34265)" stroke-width=".3985" stroke-linecap="butt" stroke-miterlimit="10" stroke-linejoin="miter" fill="none" stroke="#000000" d="M1.4174 226.77448H-1.41719"/>
<path transform="matrix(1.00006,0,0,-1.00008,91.62072,245.34265)" d="M-15.56436 222.56798H-3.6090193V230.98096H-15.56436Z" fill="#ffffff"/>
<use data-text="3" xlink:href="#font_3_4" transform="matrix(9.963197,0,0,-9.963397,77.05185,21.760773)"/>
<use data-text="2" xlink:href="#font_3_3" transform="matrix(9.963197,0,0,-9.963397,82.03343,21.760773)"/>
<path transform="matrix(1.00006,0,0,-1.00008,91.62072,245.34265)" stroke-width="1.19553" stroke-linecap="butt" stroke-miterlimit="10" stroke-linejoin="miter" fill="none" stroke="#ff0000" d="M-85.04042 0 66.1424 226.77448"/>
<path transform="matrix(1.00006,0,0,-1.00008,91.62072,245.34265)" d="M2.83466 127.56062C2.83466 129.12619 1.56555 130.3953 0 130.3953-1.56555 130.3953-2.83466 129.12619-2.83466 127.56062-2.83466 125.99507-1.56555 124.72597 0 124.72597 1.56555 124.72597 2.83466 125.99507 2.83466 127.56062ZM0 127.56062" fill="#0000ff"/>
<path transform="matrix(1.00006,0,0,-1.00008,91.62072,245.34265)" stroke-width=".3985" stroke-linecap="butt" stroke-miterlimit="10" stroke-linejoin="miter" fill="none" stroke="#0000ff" d="M2.83466 127.56062C2.83466 129.12619 1.56555 130.3953 0 130.3953-1.56555 130.3953-2.83466 129.12619-2.83466 127.56062-2.83466 125.99507-1.56555 124.72597 0 124.72597 1.56555 124.72597 2.83466 125.99507 2.83466 127.56062ZM0 127.56062"/>
</svg>
