<svg xmlns="http://www.w3.org/2000/svg" xmlns:xlink="http://www.w3.org/1999/xlink" version="1.1" width="118" height="72" viewBox="0 0 118 72">
<defs>
<path id="font_1_57" d="M.47099305 .16503906V.19602967H.37098695V.6507721C.37098695 .6707611 .37098695 .6767578 .35499574 .6767578 .34599305 .6767578 .34298707 .6767578 .33499146 .6647644L.027999878 .19602967V.16503906H.2939911V.07800293C.2939911 .041992189 .2919922 .0309906 .21798706 .0309906H.19699097V0C.23799134 .0029907227 .2899933 .0029907227 .33198548 .0029907227 .37399293 .0029907227 .4269867 .0029907227 .46798707 0V.0309906H.44699098C.37298585 .0309906 .37098695 .041992189 .37098695 .07800293V.16503906H.47099305M.2999878 .19602967H.055999757L.2999878 .56881716V.19602967Z"/>
<path id="font_1_121" d="M.45999146 .31976319C.45999146 .39982606 .45498658 .47988893 .41999818 .5539398 .37399293 .65000918 .2919922 .6660156 .25 .6660156 .18998719 .6660156 .116989139 .64001467 .07598877 .54693606 .04399109 .47789 .038986207 .39982606 .038986207 .31976319 .038986207 .24472046 .042999269 .15464783 .083999637 .07859802 .1269989-.0024719239 .19999695-.022460938 .24899292-.022460938 .30299378-.022460938 .3789978-.0014648438 .4229889 .09359741 .45498658 .16265869 .45999146 .2407074 .45999146 .31976319M.3769989 .3317871C.3769989 .25672914 .3769989 .18867493 .3659973 .12461853 .35099793 .029556275 .2939911-.00047302247 .24899292-.00047302247 .20999146-.00047302247 .15098572 .024551392 .1329956 .12062073 .12199402 .18066406 .12199402 .2727356 .12199402 .3317871 .12199402 .39582826 .12199402 .46188355 .12998963 .5159149 .14898682 .63500979 .22399903 .64401248 .24899292 .64401248 .28199769 .64401248 .34799195 .6259918 .36698915 .52693179 .3769989 .47088624 .3769989 .39482118 .3769989 .3317871Z"/>
<path id="font_1_55" d="M.35699464 .63479617C.35699464 .6717987 .31999208 .7050781 .2669983 .7050781 .19699097 .7050781 .11199951 .65179446 .11199951 .5457611V.43066407H.032989503V.3996582H.11199951V.07595825C.11199951 .0309906 .100997928 .0309906 .033996583 .0309906V0L.147995 .0029907227C.18798828 .0029907227 .23498535 .0029907227 .2749939 0V.0309906H.2539978C.17999268 .0309906 .17799378 .04197693 .17799378 .07795715V.3996582H.2919922V.43066407H.1749878V.5467529C.1749878 .63479617 .22299195 .68307498 .2669983 .68307498 .269989 .68307498 .2849884 .68307498 .2999878 .675827 .28799439 .6717987 .269989 .6587982 .269989 .6338043 .269989 .61079409 .28599549 .5907898 .31298829 .5907898 .34199525 .5907898 .35699464 .61079409 .35699464 .63479617Z"/>
<path id="font_1_105" d="M.33198548 .12385559V.18066406H.30699159V.12585449C.30699159 .052108766 .2769928 .014251709 .23999024 .014251709 .17298889 .014251709 .17298889 .10491943 .17298889 .12187195V.3996582H.31599427V.43066407H.17298889V.6142578H.147995C.14698792 .5324249 .116989139 .42565919 .018997193 .42166139V.3996582H.10398865V.12408447C.10398865 .0012512207 .19699097-.0107421879 .23298645-.0107421879 .3039856-.0107421879 .33198548 .060180665 .33198548 .12408447V.12385559Z"/>
</defs>
<path transform="matrix(1.00002,0,0,-1.00002,58.70488,59.090864)" stroke-width="1.59404" stroke-linecap="butt" stroke-miterlimit="10" stroke-linejoin="miter" fill="none" stroke="#c64a86" d="M56.69362 0C56.69362 31.31142 31.31142 56.69362 0 56.69362-31.31142 56.69362-56.69362 31.31142-56.69362 0"/>
<path transform="matrix(1.00002,0,0,-1.00002,58.70488,59.090864)" stroke-width=".79701" stroke-linecap="butt" stroke-dasharray="2.98883,2.98883" stroke-miterlimit="10" stroke-linejoin="miter" fill="none" stroke="#d73589" d="M56.69362 0C56.69362 0 56.66095 .40163 56.62267 .55579 56.58438 .70996 56.4934 .95755 56.41765 1.11118 56.34192 1.26482 56.18987 1.51042 56.07681 1.66309 55.96375 1.81577 55.75302 2.06007 55.60275 2.21155 55.45248 2.36302 55.18132 2.60503 54.99373 2.75482 54.80614 2.9046 54.47482 3.14348 54.25063 3.29115 54.02643 3.43884 53.63786 3.67395 53.37778 3.81929 53.11768 3.96465 52.67151 4.19614 52.376 4.33878 52.0805 4.48141 51.578 4.7079 51.24794 4.84743 50.91788 4.98695 50.36073 5.20827 49.99706 5.34444 49.63338 5.48059 49.02357 5.69649 48.62677 5.82887 48.22997 5.96126 47.56609 6.17029 47.13712 6.2986 46.70815 6.4269 45.99493 6.62965 45.53499 6.75363 45.07506 6.87762 44.31197 7.07286 43.82214 7.19223 43.33232 7.3116 42.52264 7.49945 42.00461 7.61395 41.48657 7.72845 40.63423 7.90836 40.08847 8.01752 39.54272 8.12668 38.64339 8.29716 38.0711 8.40074 37.49884 8.50432 36.56055 8.66614 35.96379 8.76407 35.36702 8.862 34.3899 9.01466 33.76996 9.10664 33.15002 9.19864 32.1372 9.34134 31.49567 9.42715 30.85413 9.51297 29.80818 9.64583 29.14612 9.72517 28.48405 9.8045 27.40495 9.92624 26.7239 9.99898 26.04288 10.0717 24.9355 10.1834 24.23767 10.2494 23.53984 10.31541 22.40744 10.41573 21.69435 10.47476 20.98128 10.53381 19.82503 10.623 19.09827 10.67502 18.3715 10.72704 17.19498 10.80489 16.45633 10.84976 15.71768 10.89464 14.52345 10.96106 13.7746 10.99857 13.02574 11.03607 11.81625 11.0901 11.05911 11.1201 10.30197 11.1501 9.08118 11.1922 8.31769 11.21483 7.5542 11.23744 6.32466 11.268 5.55637 11.28317 4.78807 11.29834 3.55127 11.31659 2.78035 11.32426 2.00941 11.33194 .77153 11.33855 0 11.33855-.77153 11.33855-2.00941 11.33194-2.78035 11.32426-3.55127 11.31659-4.78807 11.29834-5.55637 11.28317-6.32466 11.268-7.5542 11.23744-8.31769 11.21483-9.08118 11.1922-10.30197 11.1501-11.05911 11.1201-11.81625 11.0901-13.02574 11.03607-13.7746 10.99857-14.52345 10.96106-15.71768 10.89464-16.45633 10.84976-17.19498 10.80489-18.3715 10.72704-19.09827 10.67502-19.82503 10.623-20.98128 10.53381-21.69435 10.47476-22.40744 10.41573-23.53984 10.31541-24.23767 10.2494-24.9355 10.1834-26.04288 10.0717-26.7239 9.99898-27.40495 9.92624-28.48405 9.8045-29.14612 9.72517-29.80818 9.64583-30.85413 9.51297-31.49567 9.42715-32.1372 9.34134-33.15002 9.19864-33.76996 9.10664-34.3899 9.01466-35.36702 8.862-35.96379 8.76407-36.56055 8.66614-37.49884 8.50432-38.0711 8.40074-38.64339 8.29716-39.54272 8.12668-40.08847 8.01752-40.63423 7.90836-41.48657 7.72845-42.00461 7.61395-42.52264 7.49945-43.33232 7.3116-43.82214 7.19223-44.31197 7.07286-45.07506 6.87762-45.53499 6.75363-45.99493 6.62965-46.70815 6.4269-47.13712 6.2986-47.56609 6.17029-48.22997 5.96126-48.62677 5.82887-49.02357 5.69649-49.63338 5.48059-49.99706 5.34444-50.36073 5.20827-50.91788 4.98695-51.24794 4.84743-51.578 4.7079-52.0805 4.48141-52.376 4.33878-52.67151 4.19614-53.11768 3.96465-53.37778 3.81929-53.63786 3.67395-54.02643 3.43884-54.25063 3.29115-54.47482 3.14348-54.80614 2.9046-54.99373 2.75482-55.18132 2.60503-55.45248 2.36302-55.60275 2.21155-55.75302 2.06007-55.96375 1.81577-56.07681 1.66309-56.18987 1.51042-56.34192 1.26482-56.41765 1.11118-56.4934 .95755-56.58438 .70996-56.62267 .55579-56.66095 .40163-56.69362 0-56.69362 0"/>
<path transform="matrix(1.00002,0,0,-1.00002,58.70488,59.090864)" stroke-width=".79701" stroke-linecap="butt" stroke-miterlimit="10" stroke-linejoin="miter" fill="none" stroke="#c64a86" d="M56.69362 0C56.69362 0 56.66095-.40163 56.62267-.55579 56.58438-.70996 56.4934-.95755 56.41765-1.11118 56.34192-1.26482 56.18987-1.51042 56.07681-1.66309 55.96375-1.81577 55.75302-2.06007 55.60275-2.21155 55.45248-2.36302 55.18132-2.60503 54.99373-2.75482 54.80614-2.9046 54.47482-3.14348 54.25063-3.29115 54.02643-3.43884 53.63786-3.67395 53.37778-3.81929 53.11768-3.96465 52.67151-4.19614 52.376-4.33878 52.0805-4.48141 51.578-4.7079 51.24794-4.84743 50.91788-4.98695 50.36073-5.20827 49.99706-5.34444 49.63338-5.48059 49.02357-5.69649 48.62677-5.82887 48.22997-5.96126 47.56609-6.17029 47.13712-6.2986 46.70815-6.4269 45.99493-6.62965 45.53499-6.75363 45.07506-6.87762 44.31197-7.07286 43.82214-7.19223 43.33232-7.3116 42.52264-7.49945 42.00461-7.61395 41.48657-7.72845 40.63423-7.90836 40.08847-8.01752 39.54272-8.12668 38.64339-8.29716 38.0711-8.40074 37.49884-8.50432 36.56055-8.66614 35.96379-8.76407 35.36702-8.862 34.3899-9.01466 33.76996-9.10664 33.15002-9.19864 32.1372-9.34134 31.49567-9.42715 30.85413-9.51297 29.80818-9.64583 29.14612-9.72517 28.48405-9.8045 27.40495-9.92624 26.7239-9.99898 26.04288-10.0717 24.9355-10.1834 24.23767-10.2494 23.53984-10.31541 22.40744-10.41573 21.69435-10.47476 20.98128-10.53381 19.82503-10.623 19.09827-10.67502 18.3715-10.72704 17.19498-10.80489 16.45633-10.84976 15.71768-10.89464 14.52345-10.96106 13.7746-10.99857 13.02574-11.03607 11.81625-11.0901 11.05911-11.1201 10.30197-11.1501 9.08118-11.1922 8.31769-11.21483 7.5542-11.23744 6.32466-11.268 5.55637-11.28317 4.78807-11.29834 3.55127-11.31659 2.78035-11.32426 2.00941-11.33194 .77153-11.33855 0-11.33855-.77153-11.33855-2.00941-11.33194-2.78035-11.32426-3.55127-11.31659-4.78807-11.29834-5.55637-11.28317-6.32466-11.268-7.5542-11.23744-8.31769-11.21483-9.08118-11.1922-10.30197-11.1501-11.05911-11.1201-11.81625-11.0901-13.02574-11.03607-13.7746-10.99857-14.52345-10.96106-15.71768-10.89464-16.45633-10.84976-17.19498-10.80489-18.3715-10.72704-19.09827-10.67502-19.82503-10.623-20.98128-10.53381-21.69435-10.47476-22.40744-10.41573-23.53984-10.31541-24.23767-10.2494-24.9355-10.1834-26.04288-10.0717-26.7239-9.99898-27.40495-9.92624-28.48405-9.8045-29.14612-9.72517-29.80818-9.64583-30.85413-9.51297-31.49567-9.42715-32.1372-9.34134-33.15002-9.19864-33.76996-9.10664-34.3899-9.01466-35.36702-8.862-35.96379-8.76407-36.56055-8.66614-37.49884-8.50432-38.0711-8.40074-38.64339-8.29716-39.54272-8.12668-40.08847-8.01752-40.63423-7.90836-41.48657-7.72845-42.00461-7.61395-42.52264-7.49945-43.33232-7.3116-43.82214-7.19223-44.31197-7.07286-45.07506-6.87762-45.53499-6.75363-45.99493-6.62965-46.70815-6.4269-47.13712-6.2986-47.56609-6.17029-48.22997-5.96126-48.62677-5.82887-49.02357-5.69649-49.63338-5.48059-49.99706-5.34444-50.36073-5.20827-50.91788-4.98695-51.24794-4.84743-51.578-4.7079-52.0805-4.48141-52.376-4.33878-52.67151-4.19614-53.11768-3.96465-53.37778-3.81929-53.63786-3.67395-54.02643-3.43884-54.25063-3.29115-54.47482-3.14348-54.80614-2.9046-54.99373-2.75482-55.18132-2.60503-55.45248-2.36302-55.60275-2.21155-55.75302-2.06007-55.96375-1.81577-56.07681-1.66309-56.18987-1.51042-56.34192-1.26482-56.41765-1.11118-56.4934-.95755-56.58438-.70996-56.62267-.55579-56.66095-.40163-56.69362 0-56.69362 0"/>
<path transform="matrix(1.00002,0,0,-1.00002,58.70488,59.090864)" d="M1.41731 0C1.41731 .78276 .78276 1.41731 0 1.41731-.78276 1.41731-1.41731 .78276-1.41731 0-1.41731-.78276-.78276-1.41731 0-1.41731 .78276-1.41731 1.41731-.78276 1.41731 0ZM0 0"/>
<path transform="matrix(1.00002,0,0,-1.00002,58.70488,59.090864)" stroke-width=".3985" stroke-linecap="butt" stroke-miterlimit="10" stroke-linejoin="miter" fill="none" stroke="#000000" d="M1.41731 0C1.41731 .78276 .78276 1.41731 0 1.41731-.78276 1.41731-1.41731 .78276-1.41731 0-1.41731-.78276-.78276-1.41731 0-1.41731 .78276-1.41731 1.41731-.78276 1.41731 0ZM0 0"/>
<path transform="matrix(1.00002,0,0,-1.00002,58.70488,59.090864)" stroke-width=".79701" stroke-linecap="butt" stroke-miterlimit="10" stroke-linejoin="miter" fill="none" stroke="#000000" d="M0 0H56.69362"/>
<path transform="matrix(1.00002,0,0,-1.00002,58.70488,59.090864)" d="M17.24828 2.39105H39.44532V11.62652H17.24828Z" fill="#ffffff"/>
<use data-text="4" xlink:href="#font_1_57" transform="matrix(9.962799,0,0,-9.962799,76.95025,55.48479)"/>
<use data-text="0" xlink:href="#font_1_121" transform="matrix(9.962799,0,0,-9.962799,81.93163,55.48479)"/>
<use data-text="f" xlink:href="#font_1_55" transform="matrix(9.962799,0,0,-9.962799,90.230648,55.48479)"/>
<use data-text="t" xlink:href="#font_1_105" transform="matrix(9.962799,0,0,-9.962799,93.27926,55.48479)"/>
</svg>
