<svg xmlns="http://www.w3.org/2000/svg" xmlns:xlink="http://www.w3.org/1999/xlink" version="1.1" width="168" height="163" viewBox="0 0 168 163">
<defs>
<path id="font_1_1" d="M.33399964 .30233766C.33999635 .32835389 .36299134 .42037965 .43299867 .42037965 .43798829 .42037965 .46199037 .42037965 .48298646 .40734864 .45498658 .402359 .43499757 .37734986 .43499757 .35334779 .43499757 .33735658 .44599916 .31835938 .47299195 .31835938 .49499513 .31835938 .5269928 .3363495 .5269928 .37635804 .5269928 .42837525 .46798707 .4423828 .43399049 .4423828 .37599183 .4423828 .34098817 .38935853 .32899476 .36634828 .3039856 .43237306 .25 .4423828 .22099304 .4423828 .116989139 .4423828 .05999756 .3133545 .05999756 .28834535 .05999756 .27833558 .069992069 .27833558 .07199097 .27833558 .07998657 .27833558 .08299255 .28033448 .084991458 .28933717 .11898804 .39535523 .18499756 .42037965 .21899414 .42037965 .23799134 .42037965 .272995 .4113617 .272995 .35334779 .272995 .32235719 .2559967 .25532533 .21899414 .11528015 .20298767 .053268434 .16799927 .011245728 .12399292 .011245728 .117996219 .011245728 .09498596 .011245728 .07398987 .024276734 .09899902 .029266358 .12098694 .05027771 .12098694 .07827759 .12098694 .105270389 .09899902 .11328125 .083999637 .11328125 .053985597 .11328125 .0289917 .08728027 .0289917 .055267335 .0289917 .009246826 .07899475-.0107421879 .12298584-.0107421879 .18899536-.0107421879 .22499085 .059280397 .22799683 .0652771 .23999024 .028274537 .27598573-.0107421879 .33599855-.0107421879 .43899537-.0107421879 .49598695 .118270877 .49598695 .14328003 .49598695 .1532898 .4869995 .1532898 .48399354 .1532898 .47499085 .1532898 .47299195 .14929199 .47099305 .14228821 .43798829 .03527832 .36999513 .011245728 .33799745 .011245728 .29899598 .011245728 .2829895 .043273927 .2829895 .07727051 .2829895 .09927368 .2889862 .121276859 .2999878 .16529846L.33399964 .30233766Z"/>
<path id="font_1_2" d="M.48599244 .38136292C.48999024 .39537049 .48999024 .39736939 .48999024 .40437318 .48999024 .42237855 .47599793 .43138124 .46099855 .43138124 .45098878 .43138124 .43499757 .42536927 .42599488 .41036988 .42399598 .405365 .41600038 .37435914 .4119873 .35635377 .40499879 .33035279 .397995 .30334474 .3919983 .27633668L.34700013 .09628296C.34298707 .08126831 .2999878 .011245728 .23399353 .011245728 .18299866 .011245728 .17199707 .055267335 .17199707 .0922699 .17199707 .1382904 .18899536 .20030213 .22299195 .28833009 .23899842 .3293457 .24299622 .3403473 .24299622 .36035157 .24299622 .405365 .21099854 .4423828 .16099549 .4423828 .06599426 .4423828 .0289917 .29733277 .0289917 .28833009 .0289917 .27833558 .038986207 .27833558 .040985109 .27833558 .050994874 .27833558 .051986696 .28033448 .056991579 .29634095 .083999637 .3903656 .12399292 .42037965 .1579895 .42037965 .1659851 .42037965 .18299866 .42037965 .18299866 .3883667 .18299866 .36335755 .17298889 .3373413 .1659851 .31834413 .12599182 .21231079 .10798645 .1552887 .10798645 .10827637 .10798645 .019256592 .17098999-.0107421879 .22999573-.0107421879 .2689972-.0107421879 .30299378 .0062561037 .33099366 .03425598 .31799317-.017745972 .30599977-.06674194 .2659912-.11973572 .23999024-.15385437 .20199585-.18309021 .1559906-.18309021 .14199829-.18309021 .09700012-.18005371 .07998657-.14074707 .09599304-.14074707 .10899353-.14074707 .12298584-.1287384 .1329956-.11973572 .14299011-.10673523 .14299011-.08773804 .14299011-.056747438 .115997318-.052734376 .10598755-.052734376 .08299255-.052734376 .049987794-.068740848 .049987794-.11773682 .049987794-.16796875 .09399414-.20507813 .1559906-.20507813 .25898744-.20507813 .3619995-.11373901 .3899994-.00074768069L.48599244 .38136292Z"/>
<path id="font_2_1" d="M.6589966 .23046875C.6759949 .23046875 .69400027 .23046875 .69400027 .25045777 .69400027 .27046205 .6759949 .27046205 .6589966 .27046205H.117996219C.100997928 .27046205 .08299255 .27046205 .08299255 .25045777 .08299255 .23046875 .100997928 .23046875 .117996219 .23046875H.6589966Z"/>
<path id="font_3_1" d="M.2899933 .35191346C.37199403 .37893678 .42999269 .4490509 .42999269 .52809146 .42999269 .6100464 .34199525 .6660156 .24598694 .6660156 .14498902 .6660156 .068984989 .60606387 .068984989 .53009036 .068984989 .49710084 .09098816 .47808839 .11999512 .47808839 .15098572 .47808839 .17098999 .50009158 .17098999 .5290985 .17098999 .57910159 .12399292 .57910159 .10899353 .57910159 .13999939 .62802127 .20599365 .64100649 .24198914 .64100649 .2829895 .64100649 .33799745 .6190338 .33799745 .5290985 .33799745 .51708987 .33599855 .45906068 .30999757 .4149933 .27999879 .36691285 .24598694 .36390687 .22099304 .36291505 .21299744 .36190797 .18899536 .35990907 .18199158 .35990907 .17399597 .35890199 .16699219 .35791017 .16699219 .3479004 .16699219 .33691407 .17399597 .33691407 .19099427 .33691407H.23498535C.31698609 .33691407 .35398866 .2686615 .35398866 .17037964 .35398866 .034469606 .2849884 .0055389406 .24099732 .0055389406 .19799805 .0055389406 .12298584 .022491456 .08799744 .08137512 .12298584 .07637024 .1539917 .09837341 .1539917 .1363678 .1539917 .17237854 .1269989 .19238281 .09799194 .19238281 .07398987 .19238281 .041992189 .17837525 .041992189 .1343689 .041992189 .043441774 .1349945-.022460938 .24398804-.022460938 .3659973-.022460938 .45700074 .06838989 .45700074 .17037964 .45700074 .252594 .3939972 .33088685 .2899933 .35191346Z"/>
</defs>
<path transform="matrix(1,0,0,-1,72.36,90.073)" stroke-width=".3985" stroke-linecap="butt" stroke-miterlimit="10" stroke-linejoin="miter" fill="none" stroke="#00aeef" d="M-70.867-70.867H70.867M-70.867-56.69362H70.867M-70.867-42.5202H70.867M-70.867-28.3468H70.867M-70.867-14.17339H70.867M-70.867 0H70.867M-70.867 14.17339H70.867M-70.867 28.3468H70.867M-70.867 42.5202H70.867M-70.867 56.69362H70.867M-70.867 70.86205H70.867M-70.867-70.867V70.867M-56.69362-70.867V70.867M-42.5202-70.867V70.867M-28.3468-70.867V70.867M-14.17339-70.867V70.867M0-70.867V70.867M14.17339-70.867V70.867M28.3468-70.867V70.867M42.5202-70.867V70.867M56.69362-70.867V70.867M70.86205-70.867V70.867M70.867 70.867"/>
<path transform="matrix(1,0,0,-1,72.36,90.073)" stroke-width=".79701" stroke-linecap="butt" stroke-miterlimit="10" stroke-linejoin="miter" fill="none" stroke="#000000" d="M-70.867 0H83.6058"/>
<path transform="matrix(1,0,0,-1,155.96579,90.073)" d="M1.0361 0C-.25902 .25902-1.55415 .77707-3.1083 1.68365-1.55415 .51805-1.55415-.51805-3.1083-1.68365-1.55415-.77707-.25902-.25902 1.0361 0Z"/>
<path transform="matrix(1,0,0,-1,155.96579,90.073)" stroke-width=".79701" stroke-linecap="butt" stroke-linejoin="round" fill="none" stroke="#000000" d="M1.0361 0C-.25902 .25902-1.55415 .77707-3.1083 1.68365-1.55415 .51805-1.55415-.51805-3.1083-1.68365-1.55415-.77707-.25902-.25902 1.0361 0Z"/>
<use data-text="x" xlink:href="#font_1_1" transform="matrix(9.9626,0,0,-9.9626,161.119,92.218)"/>
<path transform="matrix(1,0,0,-1,72.36,90.073)" stroke-width=".79701" stroke-linecap="butt" stroke-miterlimit="10" stroke-linejoin="miter" fill="none" stroke="#000000" d="M0-70.867V83.6058"/>
<path transform="matrix(0,-1,-1,-0,72.36,6.467201)" d="M1.0361 0C-.25902 .25902-1.55415 .77707-3.1083 1.68365-1.55415 .51805-1.55415-.51805-3.1083-1.68365-1.55415-.77707-.25902-.25902 1.0361 0Z"/>
<path transform="matrix(0,-1,-1,-0,72.36,6.467201)" stroke-width=".79701" stroke-linecap="butt" stroke-linejoin="round" fill="none" stroke="#000000" d="M1.0361 0C-.25902 .25902-1.55415 .77707-3.1083 1.68365-1.55415 .51805-1.55415-.51805-3.1083-1.68365-1.55415-.77707-.25902-.25902 1.0361 0Z"/>
<use data-text="y" xlink:href="#font_1_2" transform="matrix(9.9626,0,0,-9.9626,65.391,6.2089998)"/>
<path transform="matrix(1,0,0,-1,72.36,90.073)" stroke-width="1.19553" stroke-linecap="butt" stroke-miterlimit="10" stroke-linejoin="miter" fill="none" stroke="#00aeef" d="M-42.5202-70.867V70.867"/>
<path transform="matrix(1,0,0,-1,72.36,90.073)" stroke-width=".79701" stroke-linecap="butt" stroke-miterlimit="10" stroke-linejoin="miter" fill="none" stroke="#000000" d="M-42.5202 2.12592V-2.12613"/>
<path transform="matrix(1,0,0,-1,72.36,90.073)" d="M-49.88159-13.7604H-35.158815V-4.51717H-49.88159Z" fill="#ffffff"/>
<use data-text="&#x2212;" xlink:href="#font_2_1" transform="matrix(9.9626,0,0,-9.9626,23.475007,102.006999)"/>
<use data-text="3" xlink:href="#font_3_1" transform="matrix(9.9626,0,0,-9.9626,31.223999,102.006999)"/>
<path transform="matrix(1,0,0,-1,72.36,90.073)" stroke-width="1.19553" stroke-linecap="butt" stroke-miterlimit="10" stroke-linejoin="miter" fill="none" stroke="#00aeef" d="M42.5202-70.867V70.867"/>
<path transform="matrix(1,0,0,-1,72.36,90.073)" stroke-width=".79701" stroke-linecap="butt" stroke-miterlimit="10" stroke-linejoin="miter" fill="none" stroke="#000000" d="M42.5202 2.12592V-2.12613"/>
<path transform="matrix(1,0,0,-1,72.36,90.073)" d="M39.03323-12.93018H46.00717V-4.5171997H39.03323Z" fill="#ffffff"/>
<use data-text="3" xlink:href="#font_3_1" transform="matrix(9.9626,0,0,-9.9626,112.39,102.006999)"/>
<path transform="matrix(1,0,0,-1,72.36,90.073)" stroke-width="1.19553" stroke-linecap="butt" stroke-miterlimit="10" stroke-linejoin="miter" fill="none" stroke="#00aeef" d="M-70.867-42.5202H70.867"/>
<path transform="matrix(1,0,0,-1,72.36,90.073)" stroke-width=".79701" stroke-linecap="butt" stroke-miterlimit="10" stroke-linejoin="miter" fill="none" stroke="#000000" d="M2.12592-42.5202H-2.12613"/>
<path transform="matrix(1,0,0,-1,72.36,90.073)" d="M-19.23996-47.14182H-4.5171797V-37.89859H-19.23996Z" fill="#ffffff"/>
<use data-text="&#x2212;" xlink:href="#font_2_1" transform="matrix(9.9626,0,0,-9.9626,54.115999,135.388)"/>
<use data-text="3" xlink:href="#font_3_1" transform="matrix(9.9626,0,0,-9.9626,61.86499,135.388)"/>
<path transform="matrix(1,0,0,-1,72.36,90.073)" stroke-width="1.19553" stroke-linecap="butt" stroke-miterlimit="10" stroke-linejoin="miter" fill="none" stroke="#00aeef" d="M-70.867 42.5202H70.867"/>
<path transform="matrix(1,0,0,-1,72.36,90.073)" stroke-width=".79701" stroke-linecap="butt" stroke-miterlimit="10" stroke-linejoin="miter" fill="none" stroke="#000000" d="M2.12592 42.5202H-2.12613"/>
<path transform="matrix(1,0,0,-1,72.36,90.073)" d="M-11.49112 38.3137H-4.5171806V46.72668H-11.49112Z" fill="#ffffff"/>
<use data-text="3" xlink:href="#font_3_1" transform="matrix(9.9626,0,0,-9.9626,61.864999,50.762998)"/>
<path transform="matrix(1,0,0,-1,72.36,90.073)" stroke-width="1.59404" stroke-linecap="butt" stroke-miterlimit="10" stroke-linejoin="miter" fill="none" stroke="#ff0000" d="M-25.5087 68.59059C-25.00981 65.79568-25.00981 65.79568-24.66222 63.89082-24.31464 61.98595-23.75719 58.9804-23.40959 57.13696-23.062 55.29352-22.50456 52.38654-22.15697 50.60455-21.80937 48.82256-21.25192 46.01416-20.90433 44.2936-20.55673 42.57304-19.99928 39.86302-19.6517 38.2039-19.30411 36.5448-18.74666 33.93353-18.39906 32.33588-18.05147 30.73822-17.49403 28.22533-17.14644 26.68909-16.79884 25.15286-16.24141 22.73856-15.89381 21.26378-15.54622 19.789-14.98878 17.47325-14.64119 16.0599-14.2936 14.64655-13.73613 12.42917-13.38853 11.07729-13.04095 9.72539-12.4835 7.60678-12.13591 6.31635-11.78831 5.0259-11.23088 3.00565-10.88329 1.77663-10.53569 .5476-9.97826-1.37401-9.63066-2.54158-9.28307-3.70914-8.72562-5.53223-8.37804-6.63837-8.03044-7.7445-7.47299-9.46918-7.1254-10.51392-6.77782-11.55862-6.22037-13.18471-5.87277-14.16798-5.52518-15.15125-4.96773-16.6788-4.62013-17.6006-4.27254-18.52242-3.7151-19.9514-3.36751-20.81175-3.01991-21.67212-2.46246-23.00253-2.11488-23.80147-1.76729-24.6004-1.20984-25.83243-.86224-26.56993-.51465-27.30745 .04276-28.44087 .39035-29.11693 .73795-29.79298 1.29538-30.82787 1.64297-31.44247 1.99057-32.05707 2.548-32.99338 2.8956-33.54655 3.2432-34.09973 3.80066-34.93767 4.14825-35.42938 4.49583-35.92111 5.05328-36.66028 5.40088-37.09056 5.74847-37.52081 6.30591-38.16162 6.6535-38.53047 7.0011-38.8993 7.55853-39.44151 7.90613-39.74893 8.25372-40.05634 8.81117-40.5002 9.15875-40.74614 9.50635-40.99211 10.0638-41.33719 10.41139-41.52168 10.75897-41.70619 11.31642-41.95291 11.66402-42.07599 12.01161-42.19907 12.56906-42.34718 12.91666-42.40881 13.26425-42.47044 13.82169-42.52 14.16928-42.5202 14.51688-42.52042 15.07433-42.47156 15.4219-42.41034 15.7695-42.34914 16.32695-42.20168 16.67455-42.07901 17.02214-41.95634 17.57957-41.71034 17.92717-41.52623 18.27477-41.3421 18.8322-40.99756 19.1798-40.75198 19.52739-40.50641 20.08482-40.06328 20.43242-39.75629 20.78001-39.44928 21.33748-38.90779 21.68507-38.53934 22.03265-38.17088 22.5901-37.53062 22.9377-37.10071 23.2853-36.6708 23.84273-35.93214 24.19032-35.44086 24.53792-34.94955 25.09535-34.11249 25.44295-33.55974 25.79054-33.00699 26.34799-32.07117 26.69557-31.45695 27.04317-30.84276 27.60062-29.80856 27.94821-29.13292 28.2958-28.4573 28.85324-27.32452 29.20084-26.58745 29.54843-25.85036 30.10588-24.61903 30.45348-23.82051 30.80107-23.02196 31.3585-21.6921 31.7061-20.83209 32.0537-19.97209 32.61115-18.54364 32.95874-17.62224 33.30632-16.7008 33.86377-15.17397 34.21136-14.19113 34.55896-13.20828 35.1164-11.58286 35.46399-10.53854 35.81158-9.49425 36.36902-7.77025 36.71661-6.66452 37.06421-5.5588 37.62166-3.73643 37.96924-2.56926 38.31683-1.40208 38.8743 .51901 39.2219 1.74765 39.56947 2.97629 40.12692 4.99579 40.47452 6.28584 40.82211 7.5759 41.37955 9.694 41.72714 11.04549 42.07474 12.39696 42.63217 14.61345 42.97977 16.02638 43.32736 17.43932 43.88481 19.75456 44.23239 21.22894 44.57999 22.70334 45.13744 25.11694 45.48503 26.65276 45.83263 28.18857 46.39006 30.70078 46.73766 32.29802 47.08525 33.8953 47.6427 36.50604 47.9903 38.16475 48.33789 39.82347 48.89532 42.5328 49.24292 44.25294 49.59052 45.97308 50.14796 48.7808 50.49556 50.56238 50.84314 52.34395 51.40059 55.25024 51.74818 57.09328 52.09578 58.93628 52.65321 61.94115 53.00081 63.84563 53.3484 65.7501 54.25343 70.81943 53.84729 68.54408"/>
<path transform="matrix(-.17572,-.98442,-.98442,.17572,46.851305,21.482407)" d="M1.51433 0C-.37857 .37857-2.27148 1.13573-4.54298 2.46077-2.27148 .75716-2.27148-.75716-4.54298-2.46077-2.27148-1.13573-.37857-.37857 1.51433 0Z" fill="#ff0000"/>
<path transform="matrix(-.17572,-.98442,-.98442,.17572,46.851305,21.482407)" stroke-width="1.59404" stroke-linecap="butt" stroke-linejoin="round" fill="none" stroke="#ff0000" d="M1.51433 0C-.37857 .37857-2.27148 1.13573-4.54298 2.46077-2.27148 .75716-2.27148-.75716-4.54298-2.46077-2.27148-1.13573-.37857-.37857 1.51433 0Z"/>
<path transform="matrix(.17572,-.98442,-.98442,-.17572,126.20729,21.528916)" d="M1.51433 0C-.37857 .37857-2.27148 1.13573-4.54298 2.46077-2.27148 .75716-2.27148-.75716-4.54298-2.46077-2.27148-1.13573-.37857-.37857 1.51433 0Z" fill="#ff0000"/>
<path transform="matrix(.17572,-.98442,-.98442,-.17572,126.20729,21.528916)" stroke-width="1.59404" stroke-linecap="butt" stroke-linejoin="round" fill="none" stroke="#ff0000" d="M1.51433 0C-.37857 .37857-2.27148 1.13573-4.54298 2.46077-2.27148 .75716-2.27148-.75716-4.54298-2.46077-2.27148-1.13573-.37857-.37857 1.51433 0Z"/>
</svg>
