<svg xmlns="http://www.w3.org/2000/svg" xmlns:xlink="http://www.w3.org/1999/xlink" version="1.1" width="140" height="251" viewBox="0 0 140 251">
<defs>
<path id="font_1_1" d="M.33399964 .30233766C.33999635 .32835389 .36299134 .42037965 .43299867 .42037965 .43798829 .42037965 .46199037 .42037965 .48298646 .40734864 .45498658 .402359 .43499757 .37734986 .43499757 .35334779 .43499757 .33735658 .44599916 .31835938 .47299195 .31835938 .49499513 .31835938 .5269928 .3363495 .5269928 .37635804 .5269928 .42837525 .46798707 .4423828 .43399049 .4423828 .37599183 .4423828 .34098817 .38935853 .32899476 .36634828 .3039856 .43237306 .25 .4423828 .22099304 .4423828 .116989139 .4423828 .05999756 .3133545 .05999756 .28834535 .05999756 .27833558 .069992069 .27833558 .07199097 .27833558 .07998657 .27833558 .08299255 .28033448 .084991458 .28933717 .11898804 .39535523 .18499756 .42037965 .21899414 .42037965 .23799134 .42037965 .272995 .4113617 .272995 .35334779 .272995 .32235719 .2559967 .25532533 .21899414 .11528015 .20298767 .053268434 .16799927 .011245728 .12399292 .011245728 .117996219 .011245728 .09498596 .011245728 .07398987 .024276734 .09899902 .029266358 .12098694 .05027771 .12098694 .07827759 .12098694 .105270389 .09899902 .11328125 .083999637 .11328125 .053985597 .11328125 .0289917 .08728027 .0289917 .055267335 .0289917 .009246826 .07899475-.0107421879 .12298584-.0107421879 .18899536-.0107421879 .22499085 .059280397 .22799683 .0652771 .23999024 .028274537 .27598573-.0107421879 .33599855-.0107421879 .43899537-.0107421879 .49598695 .118270877 .49598695 .14328003 .49598695 .1532898 .4869995 .1532898 .48399354 .1532898 .47499085 .1532898 .47299195 .14929199 .47099305 .14228821 .43798829 .03527832 .36999513 .011245728 .33799745 .011245728 .29899598 .011245728 .2829895 .043273927 .2829895 .07727051 .2829895 .09927368 .2889862 .121276859 .2999878 .16529846L.33399964 .30233766Z"/>
<path id="font_1_2" d="M.48599244 .38136292C.48999024 .39537049 .48999024 .39736939 .48999024 .40437318 .48999024 .42237855 .47599793 .43138124 .46099855 .43138124 .45098878 .43138124 .43499757 .42536927 .42599488 .41036988 .42399598 .405365 .41600038 .37435914 .4119873 .35635377 .40499879 .33035279 .397995 .30334474 .3919983 .27633668L.34700013 .09628296C.34298707 .08126831 .2999878 .011245728 .23399353 .011245728 .18299866 .011245728 .17199707 .055267335 .17199707 .0922699 .17199707 .1382904 .18899536 .20030213 .22299195 .28833009 .23899842 .3293457 .24299622 .3403473 .24299622 .36035157 .24299622 .405365 .21099854 .4423828 .16099549 .4423828 .06599426 .4423828 .0289917 .29733277 .0289917 .28833009 .0289917 .27833558 .038986207 .27833558 .040985109 .27833558 .050994874 .27833558 .051986696 .28033448 .056991579 .29634095 .083999637 .3903656 .12399292 .42037965 .1579895 .42037965 .1659851 .42037965 .18299866 .42037965 .18299866 .3883667 .18299866 .36335755 .17298889 .3373413 .1659851 .31834413 .12599182 .21231079 .10798645 .1552887 .10798645 .10827637 .10798645 .019256592 .17098999-.0107421879 .22999573-.0107421879 .2689972-.0107421879 .30299378 .0062561037 .33099366 .03425598 .31799317-.017745972 .30599977-.06674194 .2659912-.11973572 .23999024-.15385437 .20199585-.18309021 .1559906-.18309021 .14199829-.18309021 .09700012-.18005371 .07998657-.14074707 .09599304-.14074707 .10899353-.14074707 .12298584-.1287384 .1329956-.11973572 .14299011-.10673523 .14299011-.08773804 .14299011-.056747438 .115997318-.052734376 .10598755-.052734376 .08299255-.052734376 .049987794-.068740848 .049987794-.11773682 .049987794-.16796875 .09399414-.20507813 .1559906-.20507813 .25898744-.20507813 .3619995-.11373901 .3899994-.00074768069L.48599244 .38136292Z"/>
<path id="font_2_1" d="M.6589966 .23046875C.6759949 .23046875 .69400027 .23046875 .69400027 .25045777 .69400027 .27046205 .6759949 .27046205 .6589966 .27046205H.117996219C.100997928 .27046205 .08299255 .27046205 .08299255 .25045777 .08299255 .23046875 .100997928 .23046875 .117996219 .23046875H.6589966Z"/>
<path id="font_3_3" d="M.2899933 .35191346C.37199403 .37893678 .42999269 .4490509 .42999269 .52809146 .42999269 .6100464 .34199525 .6660156 .24598694 .6660156 .14498902 .6660156 .068984989 .60606387 .068984989 .53009036 .068984989 .49710084 .09098816 .47808839 .11999512 .47808839 .15098572 .47808839 .17098999 .50009158 .17098999 .5290985 .17098999 .57910159 .12399292 .57910159 .10899353 .57910159 .13999939 .62802127 .20599365 .64100649 .24198914 .64100649 .2829895 .64100649 .33799745 .6190338 .33799745 .5290985 .33799745 .51708987 .33599855 .45906068 .30999757 .4149933 .27999879 .36691285 .24598694 .36390687 .22099304 .36291505 .21299744 .36190797 .18899536 .35990907 .18199158 .35990907 .17399597 .35890199 .16699219 .35791017 .16699219 .3479004 .16699219 .33691407 .17399597 .33691407 .19099427 .33691407H.23498535C.31698609 .33691407 .35398866 .2686615 .35398866 .17037964 .35398866 .034469606 .2849884 .0055389406 .24099732 .0055389406 .19799805 .0055389406 .12298584 .022491456 .08799744 .08137512 .12298584 .07637024 .1539917 .09837341 .1539917 .1363678 .1539917 .17237854 .1269989 .19238281 .09799194 .19238281 .07398987 .19238281 .041992189 .17837525 .041992189 .1343689 .041992189 .043441774 .1349945-.022460938 .24398804-.022460938 .3659973-.022460938 .45700074 .06838989 .45700074 .17037964 .45700074 .252594 .3939972 .33088685 .2899933 .35191346Z"/>
<path id="font_3_4" d="M.44898988 .20022583C.44898988 .3193512 .36698915 .41944886 .25898744 .41944886 .21099854 .41944886 .16799927 .40345765 .13198853 .36842347V.5637665C.1519928 .5577698 .18499756 .55078127 .21699524 .55078127 .33999635 .55078127 .4099884 .6417694 .4099884 .6547699 .4099884 .6607666 .40699769 .6657715 .3999939 .6657715 .39898683 .6657715 .39698792 .6657715 .3919983 .66278079 .37199403 .6537781 .32299806 .6337738 .2559967 .6337738 .21598816 .6337738 .16999817 .6407776 .12298584 .6617737 .114990238 .66477969 .11299133 .66477969 .11099243 .66477969 .100997928 .66477969 .100997928 .6567688 .100997928 .6407776V.34439088C.100997928 .32637025 .100997928 .31835938 .114990238 .31835938 .12199402 .31835938 .12399292 .32136537 .12799073 .32736207 .13899231 .3433838 .17599488 .39746095 .25698854 .39746095 .30899049 .39746095 .33399964 .35139466 .34199525 .33337403 .35798646 .29632569 .3600006 .25727845 .3600006 .20722962 .3600006 .17222595 .3600006 .11222839 .33599855 .07035828 .31199647 .031463624 .2749939 .0055389406 .22898865 .0055389406 .1559906 .0055389406 .09899902 .058380128 .08198547 .11723328 .084991458 .1162262 .08799744 .115234378 .09899902 .115234378 .13198853 .115234378 .14898682 .14022827 .14898682 .16423035 .14898682 .18823242 .13198853 .21322632 .09899902 .21322632 .084991458 .21322632 .049987794 .20622254 .049987794 .16023255 .049987794 .07434082 .11898804-.022460938 .23098755-.022460938 .34700013-.022460938 .44898988 .073349 .44898988 .20022583Z"/>
<path id="font_3_2" d="M.2939911 .64004519C.2939911 .66400149 .2939911 .6660156 .2709961 .6660156 .20899964 .60227969 .12098694 .60227969 .08898926 .60227969V.57128909C.10899353 .57128909 .16799927 .57128909 .21998596 .5972748V.07902527C.21998596 .042999269 .21699524 .0309906 .1269989 .0309906H.09498596V0C.12998963 .0029907227 .21699524 .0029907227 .25698854 .0029907227 .29699708 .0029907227 .38398744 .0029907227 .4189911 0V.0309906H.3869934C.29699708 .0309906 .2939911 .041992189 .2939911 .07902527V.64004519Z"/>
<path id="font_3_1" d="M.45999146 .31976319C.45999146 .39982606 .45498658 .47988893 .41999818 .5539398 .37399293 .65000918 .2919922 .6660156 .25 .6660156 .18998719 .6660156 .116989139 .64001467 .07598877 .54693606 .04399109 .47789 .038986207 .39982606 .038986207 .31976319 .038986207 .24472046 .042999269 .15464783 .083999637 .07859802 .1269989-.0024719239 .19999695-.022460938 .24899292-.022460938 .30299378-.022460938 .3789978-.0014648438 .4229889 .09359741 .45498658 .16265869 .45999146 .2407074 .45999146 .31976319M.24899292-.00047302247C.20999146-.00047302247 .15098572 .024551392 .1329956 .12062073 .12199402 .18066406 .12199402 .2727356 .12199402 .3317871 .12199402 .39582826 .12199402 .46188355 .12998963 .5159149 .14898682 .63500979 .22399903 .64401248 .24899292 .64401248 .28199769 .64401248 .34799195 .6259918 .36698915 .52693179 .3769989 .47088624 .3769989 .39482118 .3769989 .3317871 .3769989 .25672914 .3769989 .18867493 .3659973 .12461853 .35099793 .029556275 .2939911-.00047302247 .24899292-.00047302247Z"/>
<path id="font_4_85" d="M.33099366-.2400055C.33099366-.23701477 .33099366-.23500061 .31399537-.21800232 .18899536-.0920105 .15699768 .09700012 .15699768 .25 .15699768 .42399598 .19499207 .59799197 .31799317 .72299197 .33099366 .7350006 .33099366 .7369995 .33099366 .73999026 .33099366 .746994 .32699586 .75 .32099916 .75 .31098939 .75 .22099304 .6819916 .1619873 .5549927 .11099243 .44499208 .09899902 .33399964 .09899902 .25 .09899902 .17199707 .10998535 .050994874 .16499329-.06201172 .22499085-.18501282 .31098939-.25 .32099916-.25 .32699586-.25 .33099366-.24700928 .33099366-.2400055Z"/>
<path id="font_4_28" d="M.48298646 .08912659V.14511109H.45799256V.08912659C.45799256 .03112793 .43299867 .025131226 .42199708 .025131226 .3889923 .025131226 .3849945 .070129398 .3849945 .07511902V.27508546C.3849945 .31707765 .3849945 .3560791 .34899903 .39312745 .30999757 .43223573 .2599945 .4482422 .21199036 .4482422 .12998963 .4482422 .06098938 .40115357 .06098938 .335083 .06098938 .30508424 .08099365 .28808595 .10699463 .28808595 .1349945 .28808595 .15299988 .30807496 .15299988 .33407594 .15299988 .3460846 .147995 .37908937 .101989749 .38008119 .1289978 .41519166 .17799378 .426239 .20999146 .426239 .25898744 .426239 .31599427 .38710023 .31599427 .29808045V.26107789C.2649994 .25808717 .19499207 .25508119 .13198853 .22509766 .056991579 .19110108 .03199768 .13911438 .03199768 .09512329 .03199768 .014251709 .1289978-.0107421879 .19198609-.0107421879 .2579956-.0107421879 .3039856 .029251099 .32299806 .07624817 .32699586 .036132814 .35398866-.005859375 .40098573-.005859375 .42199708-.005859375 .48298646 .008132935 .48298646 .08912659M.31599427 .14013672C.31599427 .04525757 .24398804 .011245728 .19898987 .011245728 .1499939 .011245728 .10899353 .04624939 .10899353 .09625244 .10899353 .15124512 .15098572 .23425293 .31599427 .24024964V.14013672Z"/>
<path id="font_4_86" d="M.2889862 .25C.2889862 .32798768 .27799989 .44898988 .22299195 .56199648 .16299439 .68499758 .07699585 .75 .066986087 .75 .06098938 .75 .056991579 .74598696 .056991579 .73999026 .056991579 .7369995 .056991579 .7350006 .07598877 .71699526 .17399597 .6179962 .23098755 .45899964 .23098755 .25 .23098755 .07899475 .19400025-.09700012 .069992069-.2230072 .056991579-.23500061 .056991579-.23701477 .056991579-.2400055 .056991579-.2460022 .06098938-.25 .066986087-.25 .07699585-.25 .16699219-.18200684 .22599793-.055007936 .2769928 .054992677 .2889862 .16600037 .2889862 .25Z"/>
<path id="font_4_35" d="M.5209961 .2163086C.5209961 .34335328 .4229889 .4423828 .30899049 .4423828 .23098755 .4423828 .18798828 .39537049 .17199707 .3773651V.69433596L.027999878 .68333438V.6523285C.09799194 .6523285 .10598755 .6453247 .10598755 .596344V.00024414063H.1309967L.16699219 .06227112C.18199158 .039260866 .22399903-.0107421879 .2979889-.0107421879 .4169922-.0107421879 .5209961 .08728027 .5209961 .2163086M.43798829 .21731568C.43798829 .18029785 .43598939 .120285037 .40699769 .07527161 .38598634 .044265748 .34799195 .011245728 .2939911 .011245728 .24899292 .011260986 .21299744 .03526306 .18899536 .072265628 .1749878 .09326172 .1749878 .09625244 .1749878 .11425781V.32034303C.1749878 .3393402 .1749878 .3403473 .18598938 .35635377 .22499085 .41236878 .27999879 .42037965 .3039856 .42037965 .34899903 .42037965 .3849945 .3943634 .40899659 .35635377 .43499757 .31533814 .43798829 .25831605 .43798829 .21730042V.21731568Z"/>
</defs>
<path transform="matrix(1,0,0,-1.00002,58.505006,104.24683)" stroke-width=".3985" stroke-linecap="butt" stroke-miterlimit="10" stroke-linejoin="miter" fill="none" stroke="#00aeef" d="M-56.69362-141.73404H56.69362M-56.69362-127.56062H56.69362M-56.69362-113.38724H56.69362M-56.69362-99.21382H56.69362M-56.69362-85.04042H56.69362M-56.69362-70.867H56.69362M-56.69362-56.69362H56.69362M-56.69362-42.5202H56.69362M-56.69362-28.3468H56.69362M-56.69362-14.17339H56.69362M-56.69362 0H56.69362M-56.69362 14.17339H56.69362M-56.69362 28.3468H56.69362M-56.69362 42.5202H56.69362M-56.69362 56.69362H56.69362M-56.69362 70.867H56.69362M-56.69362 85.03543H56.69362M-56.69362-141.73404V85.04042M-42.5202-141.73404V85.04042M-28.3468-141.73404V85.04042M-14.17339-141.73404V85.04042M0-141.73404V85.04042M14.17339-141.73404V85.04042M28.3468-141.73404V85.04042M42.5202-141.73404V85.04042M56.68863-141.73404V85.04042M56.69362 85.04042"/>
<path transform="matrix(1,0,0,-1.00002,58.505006,104.24683)" stroke-width=".79701" stroke-linecap="butt" stroke-miterlimit="10" stroke-linejoin="miter" fill="none" stroke="#000000" d="M-56.69362 0H69.4324"/>
<path transform="matrix(1,0,0,-1.00002,127.93741,104.24683)" d="M1.0361 0C-.25902 .25902-1.55415 .77707-3.1083 1.68365-1.55415 .51805-1.55415-.51805-3.1083-1.68365-1.55415-.77707-.25902-.25902 1.0361 0Z"/>
<path transform="matrix(1,0,0,-1.00002,127.93741,104.24683)" stroke-width=".79701" stroke-linecap="butt" stroke-linejoin="round" fill="none" stroke="#000000" d="M1.0361 0C-.25902 .25902-1.55415 .77707-3.1083 1.68365-1.55415 .51805-1.55415-.51805-3.1083-1.68365-1.55415-.77707-.25902-.25902 1.0361 0Z"/>
<use data-text="x" xlink:href="#font_1_1" transform="matrix(9.9626,0,0,-9.962799,133.091,106.39188)"/>
<path transform="matrix(1,0,0,-1.00002,58.505006,104.24683)" stroke-width=".79701" stroke-linecap="butt" stroke-miterlimit="10" stroke-linejoin="miter" fill="none" stroke="#000000" d="M0-141.73404V97.7792"/>
<path transform="matrix(0,-1.00002,-1,-0,58.505006,6.4656755)" d="M1.0361 0C-.25902 .25902-1.55415 .77707-3.1083 1.68365-1.55415 .51805-1.55415-.51805-3.1083-1.68365-1.55415-.77707-.25902-.25902 1.0361 0Z"/>
<path transform="matrix(0,-1.00002,-1,-0,58.505006,6.4656755)" stroke-width=".79701" stroke-linecap="butt" stroke-linejoin="round" fill="none" stroke="#000000" d="M1.0361 0C-.25902 .25902-1.55415 .77707-3.1083 1.68365-1.55415 .51805-1.55415-.51805-3.1083-1.68365-1.55415-.77707-.25902-.25902 1.0361 0Z"/>
<use data-text="y" xlink:href="#font_1_2" transform="matrix(9.9626,0,0,-9.962799,51.536005,6.206871)"/>
<path transform="matrix(1,0,0,-1.00002,58.505006,104.24683)" stroke-width="1.19553" stroke-linecap="butt" stroke-miterlimit="10" stroke-linejoin="miter" fill="none" stroke="#00aeef" d="M-42.5202-141.73404V85.04042"/>
<path transform="matrix(1,0,0,-1.00002,58.505006,104.24683)" stroke-width=".79701" stroke-linecap="butt" stroke-miterlimit="10" stroke-linejoin="miter" fill="none" stroke="#000000" d="M-42.5202 2.12592V-2.12613"/>
<path transform="matrix(1,0,0,-1.00002,58.505006,104.24683)" d="M-49.88159-13.7604H-35.158815V-4.51717H-49.88159Z" fill="#ffffff"/>
<use data-text="&#x2212;" xlink:href="#font_2_1" transform="matrix(9.9626,0,0,-9.962799,9.62001,116.181079)"/>
<use data-text="3" xlink:href="#font_3_3" transform="matrix(9.9626,0,0,-9.962799,17.369004,116.181079)"/>
<path transform="matrix(1,0,0,-1.00002,58.505006,104.24683)" stroke-width="1.19553" stroke-linecap="butt" stroke-miterlimit="10" stroke-linejoin="miter" fill="none" stroke="#00aeef" d="M42.5202-141.73404V85.04042"/>
<path transform="matrix(1,0,0,-1.00002,58.505006,104.24683)" stroke-width=".79701" stroke-linecap="butt" stroke-miterlimit="10" stroke-linejoin="miter" fill="none" stroke="#000000" d="M42.5202 2.12592V-2.12613"/>
<path transform="matrix(1,0,0,-1.00002,58.505006,104.24683)" d="M39.03323-12.93018H46.00717V-4.5171997H39.03323Z" fill="#ffffff"/>
<use data-text="3" xlink:href="#font_3_3" transform="matrix(9.9626,0,0,-9.962799,98.535,116.181079)"/>
<path transform="matrix(1,0,0,-1.00002,58.505006,104.24683)" stroke-width="1.19553" stroke-linecap="butt" stroke-miterlimit="10" stroke-linejoin="miter" fill="none" stroke="#00aeef" d="M-56.69362-70.867H56.69362"/>
<path transform="matrix(1,0,0,-1.00002,58.505006,104.24683)" stroke-width=".79701" stroke-linecap="butt" stroke-miterlimit="10" stroke-linejoin="miter" fill="none" stroke="#000000" d="M2.12592-70.867H-2.12613"/>
<path transform="matrix(1,0,0,-1.00002,58.505006,104.24683)" d="M-19.23996-75.48862H-4.5171797V-66.245388H-19.23996Z" fill="#ffffff"/>
<use data-text="&#x2212;" xlink:href="#font_2_1" transform="matrix(9.9626,0,0,-9.962799,40.261,177.91031)"/>
<use data-text="5" xlink:href="#font_3_4" transform="matrix(9.9626,0,0,-9.962799,48.009996,177.91031)"/>
<path transform="matrix(1,0,0,-1.00002,58.505006,104.24683)" stroke-width="1.19553" stroke-linecap="butt" stroke-miterlimit="10" stroke-linejoin="miter" fill="none" stroke="#00aeef" d="M-56.69362-141.73404H56.69362"/>
<path transform="matrix(1,0,0,-1.00002,58.505006,104.24683)" stroke-width=".79701" stroke-linecap="butt" stroke-miterlimit="10" stroke-linejoin="miter" fill="none" stroke="#000000" d="M2.12592-141.73404H-2.12613"/>
<path transform="matrix(1,0,0,-1.00002,58.505006,104.24683)" d="M-24.22137-146.35565H-4.51717V-137.11243H-24.22137Z" fill="#ffffff"/>
<use data-text="&#x2212;" xlink:href="#font_2_1" transform="matrix(9.9626,0,0,-9.962799,35.280008,248.77875)"/>
<use data-text="1" xlink:href="#font_3_2" transform="matrix(9.9626,0,0,-9.962799,43.029,248.77875)"/>
<use data-text="0" xlink:href="#font_3_1" transform="matrix(9.9626,0,0,-9.962799,48.010293,248.77875)"/>
<path transform="matrix(1,0,0,-1.00002,58.505006,104.24683)" stroke-width="1.19553" stroke-linecap="butt" stroke-miterlimit="10" stroke-linejoin="miter" fill="none" stroke="#00aeef" d="M-56.69362 70.867H56.69362"/>
<path transform="matrix(1,0,0,-1.00002,58.505006,104.24683)" stroke-width=".79701" stroke-linecap="butt" stroke-miterlimit="10" stroke-linejoin="miter" fill="none" stroke="#000000" d="M2.12592 70.867H-2.12613"/>
<path transform="matrix(1,0,0,-1.00002,58.505006,104.24683)" d="M-11.49112 66.66052H-4.5171806V75.0735H-11.49112Z" fill="#ffffff"/>
<use data-text="5" xlink:href="#font_3_4" transform="matrix(9.9626,0,0,-9.962799,48.010004,36.588479)"/>
<path transform="matrix(1,0,0,-1.00002,58.505006,104.24683)" stroke-width="1.59404" stroke-linecap="butt" stroke-miterlimit="10" stroke-linejoin="miter" fill="none" stroke="#c64a86" d="M-37.06615-139.46372C-36.65271-137.29729-36.65271-137.29729-36.32755-135.6305-36.0024-133.9637-35.48097-131.33396-35.1558-129.72093-34.83066-128.10791-34.30922-125.56422-33.98405-124.00494-33.6589-122.44568-33.13748-119.98825-32.81232-118.48274-32.48717-116.97723-31.96573-114.60603-31.64056-113.15431-31.31541-111.70258-30.79399-109.41763-30.46883-108.01964-30.14368-106.62166-29.62224-104.42276-29.29707-103.07854-28.97192-101.73433-28.4505-99.62189-28.12534-98.33144-27.80019-97.041-27.27875-95.0146-26.95358-93.7779-26.62843-92.5412-26.10701-90.60106-25.78185-89.41814-25.4567-88.23521-24.93526-86.38133-24.61009-85.25214-24.28494-84.12296-23.76352-82.35513-23.43835-81.27971-23.1132-80.2043-22.59177-78.52292-22.2666-77.50128-21.94145-76.47964-21.42001-74.88426-21.09486-73.9164-20.76971-72.94853-20.24826-71.43962-19.92311-70.52553-19.59796-69.61143-19.07652-68.18855-18.75137-67.3282-18.42622-66.46785-17.90477-65.13127-17.57962-64.32466-17.25447-63.51805-16.73303-62.2675-16.40788-61.51468-16.08273-60.76183-15.56128-59.59775-15.23613-58.8987-14.91098-58.19962-14.38954-57.12155-14.06439-56.47626-13.73924-55.83096-13.21779-54.83934-12.89264-54.24782-12.56749-53.65628-12.04605-52.75072-11.7209-52.21295-11.39575-51.67517-10.8743-50.85588-10.54915-50.37184-10.224-49.8878-9.70256-49.15457-9.37741-48.7243-9.05225-48.29404-8.5308-47.64725-8.20566-47.27075-7.88051-46.89427-7.35907-46.33351-7.03392-46.01079-6.70877-45.68806-6.18733-45.21373-5.86218-44.9448-5.53702-44.67584-5.01558-44.28757-4.69043-44.07237-4.36526-43.85715-3.84384-43.55516-3.51869-43.3937-3.19353-43.23224-2.67209-43.01631-2.34694-42.90863-2.02177-42.80093-1.50035-42.67142-1.1752-42.61752-.85004-42.56363-.3286-42.52036-.00345-42.5202 .32169-42.52007 .84312-42.56285 1.16826-42.61644 1.49342-42.67003 2.01486-42.79909 2.34001-42.90645 2.66518-43.01382 3.1866-43.22911 3.51175-43.39026 3.83691-43.55138 4.35835-43.85294 4.6835-44.06783 5.00867-44.28268 5.53009-44.6703 5.85524-44.93895 6.1804-45.20761 6.70184-45.68167 7.02701-46.00409 7.35216-46.3265 7.87358-46.8866 8.19875-47.26276 8.5239-47.63893 9.04533-48.2853 9.3705-48.71523 9.69565-49.14516 10.21707-49.87776 10.54224-50.36147 10.86739-50.84518 11.38882-51.66403 11.71399-52.20149 12.03914-52.73894 12.56056-53.64383 12.88573-54.23506 13.21088-54.82628 13.73232-55.81763 14.05748-56.46263 14.38263-57.10762 14.90405-58.18501 15.22922-58.88376 15.55437-59.58249 16.0758-60.74615 16.40097-61.49867 16.72612-62.25117 17.24754-63.50107 17.57271-64.30736 17.89786-65.11363 18.4193-66.44977 18.74446-67.30983 19.06961-68.16988 19.59103-69.59227 19.9162-70.50606 20.24135-71.41986 20.76279-72.92831 21.08795-73.89586 21.4131-74.8634 21.93452-76.45808 22.25969-77.47943 22.58484-78.50078 23.10628-80.18188 23.43144-81.257 23.75659-82.3321 24.27805-84.0993 24.60318-85.22813 24.92833-86.35696 25.44978-88.21024 25.77492-89.39282 26.10007-90.57544 26.62152-92.5151 26.94667-93.75153 27.27182-94.98792 27.79326-97.01384 28.11841-98.30399 28.44356-99.59413 28.96501-101.7061 29.29016-103.04999 29.61531-104.39388 30.13675-106.59213 30.4619-107.9898 30.78705-109.38745 31.3085-111.67195 31.63365-113.12337 31.9588-114.57481 32.48024-116.94556 32.80539-118.45074 33.13054-119.9559 33.652-122.41269 33.97714-123.97163 34.30229-125.5306 34.82373-128.07384 35.14888-129.68656 35.47403-131.29927 35.99548-133.92856 36.32063-135.59503 36.6458-137.26149 37.49237-141.69727 37.0591-139.42697"/>
<path transform="matrix(-.18741,.98226967,.98225,.18741375,21.438855,243.71332)" d="M1.51433 0C-.37857 .37857-2.27148 1.13573-4.54298 2.46077-2.27148 .75716-2.27148-.75716-4.54298-2.46077-2.27148-1.13573-.37857-.37857 1.51433 0Z" fill="#c64a86"/>
<path transform="matrix(-.18741,.98226967,.98225,.18741375,21.438855,243.71332)" stroke-width="1.59404" stroke-linecap="butt" stroke-linejoin="round" fill="none" stroke="#c64a86" d="M1.51433 0C-.37857 .37857-2.27148 1.13573-4.54298 2.46077-2.27148 .75716-2.27148-.75716-4.54298-2.46077-2.27148-1.13573-.37857-.37857 1.51433 0Z"/>
<path transform="matrix(.18745,.9822597,.98224,-.18745376,95.5641,243.67658)" d="M1.51433 0C-.37857 .37857-2.27148 1.13573-4.54298 2.46077-2.27148 .75716-2.27148-.75716-4.54298-2.46077-2.27148-1.13573-.37857-.37857 1.51433 0Z" fill="#c64a86"/>
<path transform="matrix(.18745,.9822597,.98224,-.18745376,95.5641,243.67658)" stroke-width="1.59404" stroke-linecap="butt" stroke-linejoin="round" fill="none" stroke="#c64a86" d="M1.51433 0C-.37857 .37857-2.27148 1.13573-4.54298 2.46077-2.27148 .75716-2.27148-.75716-4.54298-2.46077-2.27148-1.13573-.37857-.37857 1.51433 0Z"/>
<path transform="matrix(1,0,0,-1.00002,58.505006,104.24683)" d="M9.64554-119.36488H24.3705V-107.40959H9.64554Z" fill="#ffffff"/>
<use data-text="(" xlink:href="#font_4_85" transform="matrix(9.9626,0,0,-9.962799,69.147,220.12715)" fill="#c64a86"/>
<use data-text="a" xlink:href="#font_4_28" transform="matrix(9.9626,0,0,-9.962799,73.02246,220.12715)" fill="#c64a86"/>
<use data-text=")" xlink:href="#font_4_86" transform="matrix(9.9626,0,0,-9.962799,78.00375,220.12715)" fill="#c64a86"/>
<path transform="matrix(1,0,0,-1.00002,58.505006,104.24683)" stroke-width="1.59404" stroke-linecap="butt" stroke-miterlimit="10" stroke-linejoin="miter" fill="none" stroke="#0000ff" d="M-46.66008-139.44846C-45.9465-134.76137-45.9465-134.76137-45.53888-132.14206-45.13127-129.52277-44.47758-125.39006-44.06998-122.85527-43.66237-120.32047-43.0087-116.3233-42.60109-113.87297-42.19348-111.42264-41.5398-107.56082-41.13219-105.19496-40.72458-102.82909-40.0709-99.10281-39.66328-96.82146-39.25568-94.5401-38.60199-90.94931-38.19438-88.75246-37.78677-86.55559-37.1331-83.10033-36.7255-80.98798-36.31789-78.87561-35.6642-75.55588-35.25659-73.52798-34.84898-71.50009-34.19531-68.3157-33.78769-66.37228-33.38008-64.42886-32.7264-61.38-32.31879-59.5211-31.91118-57.6622-31.2575-54.74907-30.8499-52.97464-30.44229-51.20021-29.7886-48.42221-29.381-46.73225-28.97339-45.0423-28.3197-42.40001-27.91208-40.79459-27.50447-39.18916-26.8508-36.68239-26.44319-35.16142-26.03558-33.64047-25.3819-31.26904-24.97429-29.83257-24.56668-28.39607-23.91301-26.1602-23.5054-24.80821-23.0978-23.45622-22.4441-21.35583-22.0365-20.08835-21.62888-18.82086-20.9752-16.85599-20.5676-15.673-20.15999-14.49002-19.5063-12.66068-19.0987-11.56216-18.69109-10.46364-18.03741-8.76965-17.6298-7.7556-17.2222-6.74155-16.56851-5.1831-16.1609-4.25357-15.75328-3.324-15.09961-1.90108-14.692-1.05603-14.2844-.21098-13.6307 1.07643-13.2231 1.83698-12.81549 2.59752-12.16182 3.7494-11.75421 4.4255-11.3466 5.10158-10.69292 6.11815-10.28531 6.70973-9.87769 7.30132-9.22401 8.18216-8.8164 8.68924-8.4088 9.19632-7.75511 9.94185-7.3475 10.36446-6.9399 10.78708-6.28622 11.39702-5.87862 11.73517-5.47101 12.07332-4.81732 12.54794-4.40971 12.80159-4.00209 13.05524-3.34842 13.39415-2.94081 13.5633-2.5332 13.73244-1.87952 13.93605-1.47191 14.0207-1.0643 14.10535-.41063 14.17325-.00302 14.17339 .40457 14.17354 1.05824 14.10608 1.46585 14.02177 1.87347 13.9375 2.52715 13.73468 2.93475 13.56589 3.34236 13.3971 3.99605 13.05855 4.40366 12.80527 4.81126 12.55197 5.46494 12.07814 5.87254 11.74036 6.28015 11.40259 6.93384 10.79301 7.34145 10.37074 7.74907 9.94846 8.40274 9.20355 8.81035 8.69682 9.21796 8.19006 9.87164 7.3096 10.27925 6.71838 10.68686 6.12717 11.34053 5.11139 11.74814 4.43565 12.15575 3.75995 12.80943 2.60844 13.21704 1.84822 13.62466 1.088 14.27835-.19879 14.68596-1.04349 15.09357-1.88817 15.74724-3.31053 16.15485-4.23972 16.56245-5.16891 17.21614-6.72678 17.62375-7.74048 18.03136-8.75417 18.68503-10.44754 19.09264-11.54573 19.50026-12.64392 20.15395-14.47282 20.56155-15.65547 20.96916-16.83815 21.62283-18.80241 22.03044-20.06953 22.43805-21.33667 23.09174-23.43646 23.49934-24.7881 23.90695-26.13972 24.56062-28.37502 24.96823-29.81114 25.37585-31.24728 26.02954-33.6181 26.43715-35.13873 26.84476-36.65935 27.49843-39.1657 27.90604-40.7708 28.31364-42.37589 28.96733-45.01758 29.37494-46.70717 29.78255-48.39677 30.43622-51.17416 30.84383-52.94826 31.25145-54.72235 31.90514-57.63507 32.31274-59.49364 32.72035-61.3522 33.37402-64.4005 33.78163-66.34352 34.18924-68.28656 34.84293-71.47018 35.25053-73.49771 35.65814-75.52524 36.31181-78.84457 36.71942-80.9566 37.12704-83.06863 37.78073-86.52327 38.18834-88.7198 38.59595-90.91634 39.24962-94.50668 39.65723-96.78772 40.06483-99.06874 40.71852-102.79445 41.12613-105.15993 41.53374-107.52539 42.18741-111.38644 42.59502-113.83643 43.00264-116.28639 43.65633-120.28316 44.06393-122.81763 44.47154-125.3521 45.12521-129.48416 45.53282-132.10315 45.94043-134.7221 47.00172-141.69338 46.65392-139.40848"/>
<path transform="matrix(-.15044,.98858979,.98857,.15044302,11.844944,243.69809)" d="M1.51433 0C-.37857 .37857-2.27148 1.13573-4.54298 2.46077-2.27148 .75716-2.27148-.75716-4.54298-2.46077-2.27148-1.13573-.37857-.37857 1.51433 0Z" fill="#0000ff"/>
<path transform="matrix(-.15044,.98858979,.98857,.15044302,11.844944,243.69809)" stroke-width="1.59404" stroke-linecap="butt" stroke-linejoin="round" fill="none" stroke="#0000ff" d="M1.51433 0C-.37857 .37857-2.27148 1.13573-4.54298 2.46077-2.27148 .75716-2.27148-.75716-4.54298-2.46077-2.27148-1.13573-.37857-.37857 1.51433 0Z"/>
<path transform="matrix(.15048,.9885798,.98856,-.15048301,105.15892,243.65811)" d="M1.51433 0C-.37857 .37857-2.27148 1.13573-4.54298 2.46077-2.27148 .75716-2.27148-.75716-4.54298-2.46077-2.27148-1.13573-.37857-.37857 1.51433 0Z" fill="#0000ff"/>
<path transform="matrix(.15048,.9885798,.98856,-.15048301,105.15892,243.65811)" stroke-width="1.59404" stroke-linecap="butt" stroke-linejoin="round" fill="none" stroke="#0000ff" d="M1.51433 0C-.37857 .37857-2.27148 1.13573-4.54298 2.46077-2.27148 .75716-2.27148-.75716-4.54298-2.46077-2.27148-1.13573-.37857-.37857 1.51433 0Z"/>
<path transform="matrix(1,0,0,-1.00002,58.505006,104.24683)" d="M9.3666 15.28246H24.649479V27.237751H9.3666Z" fill="#ffffff"/>
<use data-text="(" xlink:href="#font_4_85" transform="matrix(9.9626,0,0,-9.962799,68.868007,85.47746)" fill="#0000ff"/>
<use data-text="b" xlink:href="#font_4_35" transform="matrix(9.9626,0,0,-9.962799,72.74346,85.47746)" fill="#0000ff"/>
<use data-text=")" xlink:href="#font_4_86" transform="matrix(9.9626,0,0,-9.962799,78.28266,85.47746)" fill="#0000ff"/>
</svg>
