<svg xmlns="http://www.w3.org/2000/svg" xmlns:xlink="http://www.w3.org/1999/xlink" version="1.1" width="140" height="191" viewBox="0 0 140 191">
<defs>
<path id="font_1_1" d="M.33399964 .30233766C.33999635 .32835389 .36299134 .42037965 .43299867 .42037965 .43798829 .42037965 .46199037 .42037965 .48298646 .40734864 .45498658 .402359 .43499757 .37734986 .43499757 .35334779 .43499757 .33735658 .44599916 .31835938 .47299195 .31835938 .49499513 .31835938 .5269928 .3363495 .5269928 .37635804 .5269928 .42837525 .46798707 .4423828 .43399049 .4423828 .37599183 .4423828 .34098817 .38935853 .32899476 .36634828 .3039856 .43237306 .25 .4423828 .22099304 .4423828 .116989139 .4423828 .05999756 .3133545 .05999756 .28834535 .05999756 .27833558 .069992069 .27833558 .07199097 .27833558 .07998657 .27833558 .08299255 .28033448 .084991458 .28933717 .11898804 .39535523 .18499756 .42037965 .21899414 .42037965 .23799134 .42037965 .272995 .4113617 .272995 .35334779 .272995 .32235719 .2559967 .25532533 .21899414 .11528015 .20298767 .053268434 .16799927 .011245728 .12399292 .011245728 .117996219 .011245728 .09498596 .011245728 .07398987 .024276734 .09899902 .029266358 .12098694 .05027771 .12098694 .07827759 .12098694 .105270389 .09899902 .11328125 .083999637 .11328125 .053985597 .11328125 .0289917 .08728027 .0289917 .055267335 .0289917 .009246826 .07899475-.0107421879 .12298584-.0107421879 .18899536-.0107421879 .22499085 .059280397 .22799683 .0652771 .23999024 .028274537 .27598573-.0107421879 .33599855-.0107421879 .43899537-.0107421879 .49598695 .118270877 .49598695 .14328003 .49598695 .1532898 .4869995 .1532898 .48399354 .1532898 .47499085 .1532898 .47299195 .14929199 .47099305 .14228821 .43798829 .03527832 .36999513 .011245728 .33799745 .011245728 .29899598 .011245728 .2829895 .043273927 .2829895 .07727051 .2829895 .09927368 .2889862 .121276859 .2999878 .16529846L.33399964 .30233766Z"/>
<path id="font_1_2" d="M.48599244 .38136292C.48999024 .39537049 .48999024 .39736939 .48999024 .40437318 .48999024 .42237855 .47599793 .43138124 .46099855 .43138124 .45098878 .43138124 .43499757 .42536927 .42599488 .41036988 .42399598 .405365 .41600038 .37435914 .4119873 .35635377 .40499879 .33035279 .397995 .30334474 .3919983 .27633668L.34700013 .09628296C.34298707 .08126831 .2999878 .011245728 .23399353 .011245728 .18299866 .011245728 .17199707 .055267335 .17199707 .0922699 .17199707 .1382904 .18899536 .20030213 .22299195 .28833009 .23899842 .3293457 .24299622 .3403473 .24299622 .36035157 .24299622 .405365 .21099854 .4423828 .16099549 .4423828 .06599426 .4423828 .0289917 .29733277 .0289917 .28833009 .0289917 .27833558 .038986207 .27833558 .040985109 .27833558 .050994874 .27833558 .051986696 .28033448 .056991579 .29634095 .083999637 .3903656 .12399292 .42037965 .1579895 .42037965 .1659851 .42037965 .18299866 .42037965 .18299866 .3883667 .18299866 .36335755 .17298889 .3373413 .1659851 .31834413 .12599182 .21231079 .10798645 .1552887 .10798645 .10827637 .10798645 .019256592 .17098999-.0107421879 .22999573-.0107421879 .2689972-.0107421879 .30299378 .0062561037 .33099366 .03425598 .31799317-.017745972 .30599977-.06674194 .2659912-.11973572 .23999024-.15385437 .20199585-.18309021 .1559906-.18309021 .14199829-.18309021 .09700012-.18005371 .07998657-.14074707 .09599304-.14074707 .10899353-.14074707 .12298584-.1287384 .1329956-.11973572 .14299011-.10673523 .14299011-.08773804 .14299011-.056747438 .115997318-.052734376 .10598755-.052734376 .08299255-.052734376 .049987794-.068740848 .049987794-.11773682 .049987794-.16796875 .09399414-.20507813 .1559906-.20507813 .25898744-.20507813 .3619995-.11373901 .3899994-.00074768069L.48599244 .38136292Z"/>
<path id="font_2_1" d="M.6589966 .23046875C.6759949 .23046875 .69400027 .23046875 .69400027 .25045777 .69400027 .27046205 .6759949 .27046205 .6589966 .27046205H.117996219C.100997928 .27046205 .08299255 .27046205 .08299255 .25045777 .08299255 .23046875 .100997928 .23046875 .117996219 .23046875H.6589966Z"/>
<path id="font_3_1" d="M.2899933 .35191346C.37199403 .37893678 .42999269 .4490509 .42999269 .52809146 .42999269 .6100464 .34199525 .6660156 .24598694 .6660156 .14498902 .6660156 .068984989 .60606387 .068984989 .53009036 .068984989 .49710084 .09098816 .47808839 .11999512 .47808839 .15098572 .47808839 .17098999 .50009158 .17098999 .5290985 .17098999 .57910159 .12399292 .57910159 .10899353 .57910159 .13999939 .62802127 .20599365 .64100649 .24198914 .64100649 .2829895 .64100649 .33799745 .6190338 .33799745 .5290985 .33799745 .51708987 .33599855 .45906068 .30999757 .4149933 .27999879 .36691285 .24598694 .36390687 .22099304 .36291505 .21299744 .36190797 .18899536 .35990907 .18199158 .35990907 .17399597 .35890199 .16699219 .35791017 .16699219 .3479004 .16699219 .33691407 .17399597 .33691407 .19099427 .33691407H.23498535C.31698609 .33691407 .35398866 .2686615 .35398866 .17037964 .35398866 .034469606 .2849884 .0055389406 .24099732 .0055389406 .19799805 .0055389406 .12298584 .022491456 .08799744 .08137512 .12298584 .07637024 .1539917 .09837341 .1539917 .1363678 .1539917 .17237854 .1269989 .19238281 .09799194 .19238281 .07398987 .19238281 .041992189 .17837525 .041992189 .1343689 .041992189 .043441774 .1349945-.022460938 .24398804-.022460938 .3659973-.022460938 .45700074 .06838989 .45700074 .17037964 .45700074 .252594 .3939972 .33088685 .2899933 .35191346Z"/>
<path id="font_3_2" d="M.44898988 .20022583C.44898988 .3193512 .36698915 .41944886 .25898744 .41944886 .21099854 .41944886 .16799927 .40345765 .13198853 .36842347V.5637665C.1519928 .5577698 .18499756 .55078127 .21699524 .55078127 .33999635 .55078127 .4099884 .6417694 .4099884 .6547699 .4099884 .6607666 .40699769 .6657715 .3999939 .6657715 .39898683 .6657715 .39698792 .6657715 .3919983 .66278079 .37199403 .6537781 .32299806 .6337738 .2559967 .6337738 .21598816 .6337738 .16999817 .6407776 .12298584 .6617737 .114990238 .66477969 .11299133 .66477969 .11099243 .66477969 .100997928 .66477969 .100997928 .6567688 .100997928 .6407776V.34439088C.100997928 .32637025 .100997928 .31835938 .114990238 .31835938 .12199402 .31835938 .12399292 .32136537 .12799073 .32736207 .13899231 .3433838 .17599488 .39746095 .25698854 .39746095 .30899049 .39746095 .33399964 .35139466 .34199525 .33337403 .35798646 .29632569 .3600006 .25727845 .3600006 .20722962 .3600006 .17222595 .3600006 .11222839 .33599855 .07035828 .31199647 .031463624 .2749939 .0055389406 .22898865 .0055389406 .1559906 .0055389406 .09899902 .058380128 .08198547 .11723328 .084991458 .1162262 .08799744 .115234378 .09899902 .115234378 .13198853 .115234378 .14898682 .14022827 .14898682 .16423035 .14898682 .18823242 .13198853 .21322632 .09899902 .21322632 .084991458 .21322632 .049987794 .20622254 .049987794 .16023255 .049987794 .07434082 .11898804-.022460938 .23098755-.022460938 .34700013-.022460938 .44898988 .073349 .44898988 .20022583Z"/>
</defs>
<path transform="matrix(1,0,0,-1,58.505006,104.246)" stroke-width=".3985" stroke-linecap="butt" stroke-miterlimit="10" stroke-linejoin="miter" fill="none" stroke="#00aeef" d="M-56.69362-85.04042H56.69362M-56.69362-70.867H56.69362M-56.69362-56.69362H56.69362M-56.69362-42.5202H56.69362M-56.69362-28.3468H56.69362M-56.69362-14.17339H56.69362M-56.69362 0H56.69362M-56.69362 14.17339H56.69362M-56.69362 28.3468H56.69362M-56.69362 42.5202H56.69362M-56.69362 56.69362H56.69362M-56.69362 70.867H56.69362M-56.69362 85.03543H56.69362M-56.69362-85.04042V85.04042M-42.5202-85.04042V85.04042M-28.3468-85.04042V85.04042M-14.17339-85.04042V85.04042M0-85.04042V85.04042M14.17339-85.04042V85.04042M28.3468-85.04042V85.04042M42.5202-85.04042V85.04042M56.68863-85.04042V85.04042M56.69362 85.04042"/>
<path transform="matrix(1,0,0,-1,58.505006,104.246)" stroke-width=".79701" stroke-linecap="butt" stroke-miterlimit="10" stroke-linejoin="miter" fill="none" stroke="#000000" d="M-56.69362 0H69.4324"/>
<path transform="matrix(1,0,0,-1,127.93741,104.246)" d="M1.0361 0C-.25902 .25902-1.55415 .77707-3.1083 1.68365-1.55415 .51805-1.55415-.51805-3.1083-1.68365-1.55415-.77707-.25902-.25902 1.0361 0Z"/>
<path transform="matrix(1,0,0,-1,127.93741,104.246)" stroke-width=".79701" stroke-linecap="butt" stroke-linejoin="round" fill="none" stroke="#000000" d="M1.0361 0C-.25902 .25902-1.55415 .77707-3.1083 1.68365-1.55415 .51805-1.55415-.51805-3.1083-1.68365-1.55415-.77707-.25902-.25902 1.0361 0Z"/>
<use data-text="x" xlink:href="#font_1_1" transform="matrix(9.9626,0,0,-9.9626,133.091,106.39101)"/>
<path transform="matrix(1,0,0,-1,58.505006,104.246)" stroke-width=".79701" stroke-linecap="butt" stroke-miterlimit="10" stroke-linejoin="miter" fill="none" stroke="#000000" d="M0-85.04042V97.7792"/>
<path transform="matrix(0,-1,-1,-0,58.505006,6.4668047)" d="M1.0361 0C-.25902 .25902-1.55415 .77707-3.1083 1.68365-1.55415 .51805-1.55415-.51805-3.1083-1.68365-1.55415-.77707-.25902-.25902 1.0361 0Z"/>
<path transform="matrix(0,-1,-1,-0,58.505006,6.4668047)" stroke-width=".79701" stroke-linecap="butt" stroke-linejoin="round" fill="none" stroke="#000000" d="M1.0361 0C-.25902 .25902-1.55415 .77707-3.1083 1.68365-1.55415 .51805-1.55415-.51805-3.1083-1.68365-1.55415-.77707-.25902-.25902 1.0361 0Z"/>
<use data-text="y" xlink:href="#font_1_2" transform="matrix(9.9626,0,0,-9.9626,49.544008,6.208)"/>
<path transform="matrix(1,0,0,-1,58.505006,104.246)" stroke-width="1.19553" stroke-linecap="butt" stroke-miterlimit="10" stroke-linejoin="miter" fill="none" stroke="#00aeef" d="M-42.5202-85.04042V85.04042"/>
<path transform="matrix(1,0,0,-1,58.505006,104.246)" stroke-width=".79701" stroke-linecap="butt" stroke-miterlimit="10" stroke-linejoin="miter" fill="none" stroke="#000000" d="M-42.5202 2.12592V-2.12613"/>
<path transform="matrix(1,0,0,-1,58.505006,104.246)" d="M-49.88159-13.7604H-35.158815V-4.51717H-49.88159Z" fill="#ffffff"/>
<use data-text="&#x2212;" xlink:href="#font_2_1" transform="matrix(9.9626,0,0,-9.9626,9.62001,116.18)"/>
<use data-text="3" xlink:href="#font_3_1" transform="matrix(9.9626,0,0,-9.9626,17.369004,116.18)"/>
<path transform="matrix(1,0,0,-1,58.505006,104.246)" stroke-width="1.19553" stroke-linecap="butt" stroke-miterlimit="10" stroke-linejoin="miter" fill="none" stroke="#00aeef" d="M42.5202-85.04042V85.04042"/>
<path transform="matrix(1,0,0,-1,58.505006,104.246)" stroke-width=".79701" stroke-linecap="butt" stroke-miterlimit="10" stroke-linejoin="miter" fill="none" stroke="#000000" d="M42.5202 2.12592V-2.12613"/>
<path transform="matrix(1,0,0,-1,58.505006,104.246)" d="M39.03323-12.93018H46.00717V-4.5171997H39.03323Z" fill="#ffffff"/>
<use data-text="3" xlink:href="#font_3_1" transform="matrix(9.9626,0,0,-9.9626,98.535,116.18)"/>
<path transform="matrix(1,0,0,-1,58.505006,104.246)" stroke-width="1.19553" stroke-linecap="butt" stroke-miterlimit="10" stroke-linejoin="miter" fill="none" stroke="#00aeef" d="M-56.69362-70.867H56.69362"/>
<path transform="matrix(1,0,0,-1,58.505006,104.246)" stroke-width=".79701" stroke-linecap="butt" stroke-miterlimit="10" stroke-linejoin="miter" fill="none" stroke="#000000" d="M2.12592-70.867H-2.12613"/>
<path transform="matrix(1,0,0,-1,58.505006,104.246)" d="M-19.23996-75.48862H-4.5171797V-66.245388H-19.23996Z" fill="#ffffff"/>
<use data-text="&#x2212;" xlink:href="#font_2_1" transform="matrix(9.9626,0,0,-9.9626,40.261,177.908)"/>
<use data-text="5" xlink:href="#font_3_2" transform="matrix(9.9626,0,0,-9.9626,48.009996,177.908)"/>
<path transform="matrix(1,0,0,-1,58.505006,104.246)" stroke-width="1.19553" stroke-linecap="butt" stroke-miterlimit="10" stroke-linejoin="miter" fill="none" stroke="#00aeef" d="M-56.69362 70.867H56.69362"/>
<path transform="matrix(1,0,0,-1,58.505006,104.246)" stroke-width=".79701" stroke-linecap="butt" stroke-miterlimit="10" stroke-linejoin="miter" fill="none" stroke="#000000" d="M2.12592 70.867H-2.12613"/>
<path transform="matrix(1,0,0,-1,58.505006,104.246)" d="M-11.49112 66.66052H-4.5171806V75.0735H-11.49112Z" fill="#ffffff"/>
<use data-text="5" xlink:href="#font_3_2" transform="matrix(9.9626,0,0,-9.9626,48.010004,36.589006)"/>
<path transform="matrix(1,0,0,-1,58.505006,104.246)" stroke-width="1.59404" stroke-linecap="butt" stroke-miterlimit="10" stroke-linejoin="miter" fill="none" stroke="#c64a86" d="M-44.45587 82.7578C-43.8083 78.70187-43.8083 78.70187-43.41966 76.32066-43.03102 73.93944-42.40775 70.18236-42.0191 67.87794-41.63046 65.57355-41.00719 61.93967-40.61856 59.71207-40.2299 57.48448-39.60663 53.97379-39.218 51.823-38.82935 49.67224-38.20607 46.28476-37.81744 44.21078-37.42879 42.1368-36.80551 38.87234-36.41689 36.87514-36.02823 34.87794-35.40495 31.73672-35.01633 29.81635-34.62767 27.89595-34.0044 24.87793-33.61577 23.03436-33.22711 21.19081-32.60384 18.29596-32.21521 16.5292-31.82655 14.76247-31.20328 11.99081-30.81465 10.30089-30.426 8.61096-29.80272 5.96248-29.4141 4.34937-29.02544 2.73627-28.40216 .21101-28.01353-1.32529-27.62488-2.8616-27.0016-5.26384-26.61298-6.72336-26.22432-8.18285-25.60104-10.4617-25.21242-11.84439-24.82376-13.22708-24.2005-15.38292-23.81186-16.68881-23.4232-17.9947-22.79994-20.02734-22.4113-21.25642-22.02264-22.4855-21.39938-24.39493-21.01074-25.5472-20.62209-26.69945-19.99883-28.48567-19.61018-29.56116-19.22153-30.63661-18.59827-32.29984-18.20963-33.2985-17.82097-34.29715-17.19771-35.83696-16.80907-36.75879-16.42041-37.68063-15.79715-39.09743-15.40851-39.94249-15.01985-40.78754-14.39659-42.08116-14.00795-42.84937-13.6193-43.61757-12.99603-44.7878-12.60739-45.47919-12.21873-46.17058-11.59547-47.21777-11.20683-47.83241-10.81818-48.44704-10.19492-49.37122-9.80627-49.90903-9.41762-50.44682-8.79436-51.24763-8.40572-51.7086-8.01706-52.16957-7.3938-52.84718-7.00516-53.23137-6.6165-53.61552-5.99324-54.17012-5.6046-54.4775-5.21594-54.78488-4.59268-55.21626-4.20404-55.44681-3.81538-55.67734-3.19212-55.98537-2.80348-56.13908-2.41483-56.29282-1.79156-56.47781-1.40292-56.55476-1.01427-56.6317-.391-56.69347-.00237-56.69362 .38626-56.69376 1.0095-56.6325 1.39816-56.55583 1.7868-56.47917 2.41006-56.29451 2.79872-56.14104 3.18736-55.98755 3.81062-55.67993 4.19928-55.44962 4.58792-55.21933 5.21118-54.78828 5.59984-54.48117 5.98848-54.17406 6.61174-53.62001 7.0004-53.2361 7.38904-52.8522 8.0123-52.17494 8.40096-51.71423 8.7896-51.25351 9.41286-50.45306 9.80151-49.91553 10.19016-49.37798 10.81342-48.4543 11.20207-47.83998 11.59071-47.22565 12.21397-46.17899 12.60263-45.48784 12.99127-44.79669 13.61453-43.62663 14.00319-42.85866 14.39183-42.0907 15.01509-40.79765 15.40375-39.95288 15.79239-39.10808 16.41565-37.69164 16.8043-36.77003 17.19295-35.84845 17.81621-34.30899 18.20486-33.3106 18.5935-32.31221 19.21677-30.64954 19.60542-29.57433 19.99406-28.49913 20.61732-26.71324 21.00598-25.56125 21.39462-24.40926 22.01788-22.50037 22.40654-21.27156 22.79518-20.04276 23.41844-18.01045 23.8071-16.70482 24.19574-15.39919 24.819-13.24393 25.20766-11.86147 25.5963-10.47903 26.21956-8.20035 26.60822-6.7411 26.99686-5.28183 27.62012-2.88014 28.00877-1.34409 28.39742 .19193 29.02068 2.71681 29.40933 4.32968 29.79797 5.94255 30.42123 8.59068 30.80989 10.28033 31.19853 11.96999 31.8218 14.7411 32.21045 16.50758 32.59909 18.27405 33.22235 21.16855 33.61101 23.01187 33.99965 24.8552 34.62291 27.87288 35.01157 29.79298 35.4002 31.7131 36.02347 34.8538 36.41212 36.85071 36.80077 38.8476 37.42403 42.11154 37.81268 44.18526 38.20132 46.25897 38.82458 49.6461 39.21324 51.79663 39.60188 53.94716 40.22514 57.45746 40.6138 59.68481 41.00244 61.91216 41.6257 65.54567 42.01436 67.84984 42.403 70.154 43.02626 73.91074 43.4149 76.29169 43.80354 78.67265 44.81546 85.01015 44.45111 82.72774"/>
<path transform="matrix(-.15764,-.98747,-.98747,.15764,14.049145,21.488205)" d="M1.51433 0C-.37857 .37857-2.27148 1.13573-4.54298 2.46077-2.27148 .75716-2.27148-.75716-4.54298-2.46077-2.27148-1.13573-.37857-.37857 1.51433 0Z" fill="#c64a86"/>
<path transform="matrix(-.15764,-.98747,-.98747,.15764,14.049145,21.488205)" stroke-width="1.59404" stroke-linecap="butt" stroke-linejoin="round" fill="none" stroke="#c64a86" d="M1.51433 0C-.37857 .37857-2.27148 1.13573-4.54298 2.46077-2.27148 .75716-2.27148-.75716-4.54298-2.46077-2.27148-1.13573-.37857-.37857 1.51433 0Z"/>
<path transform="matrix(.15764,-.98747,-.98747,-.15764,102.9561,21.518265)" d="M1.51433 0C-.37857 .37857-2.27148 1.13573-4.54298 2.46077-2.27148 .75716-2.27148-.75716-4.54298-2.46077-2.27148-1.13573-.37857-.37857 1.51433 0Z" fill="#c64a86"/>
<path transform="matrix(.15764,-.98747,-.98747,-.15764,102.9561,21.518265)" stroke-width="1.59404" stroke-linecap="butt" stroke-linejoin="round" fill="none" stroke="#c64a86" d="M1.51433 0C-.37857 .37857-2.27148 1.13573-4.54298 2.46077-2.27148 .75716-2.27148-.75716-4.54298-2.46077-2.27148-1.13573-.37857-.37857 1.51433 0Z"/>
</svg>
