<svg xmlns="http://www.w3.org/2000/svg" xmlns:xlink="http://www.w3.org/1999/xlink" version="1.1" width="103" height="90" viewBox="0 0 103 90">
<defs>
<path id="font_1_1" d="M.2939911 .64004519C.2939911 .66400149 .2939911 .6660156 .2709961 .6660156 .20899964 .60227969 .12098694 .60227969 .08898926 .60227969V.57128909C.10899353 .57128909 .16799927 .57128909 .21998596 .5972748V.07902527C.21998596 .042999269 .21699524 .0309906 .1269989 .0309906H.09498596V0C.12998963 .0029907227 .21699524 .0029907227 .25698854 .0029907227 .29699708 .0029907227 .38398744 .0029907227 .4189911 0V.0309906H.3869934C.29699708 .0309906 .2939911 .041992189 .2939911 .07902527V.64004519Z"/>
<path id="font_1_2" d="M.1269989 .07699585 .23298645 .18003845C.3889923 .31811524 .44898988 .3721466 .44898988 .47216798 .44898988 .5860901 .35899354 .6660156 .23699951 .6660156 .12399292 .6660156 .049987794 .57411196 .049987794 .48516847 .049987794 .4291687 .099990848 .4291687 .102996829 .4291687 .11999512 .4291687 .15499878 .44117738 .15499878 .48217774 .15499878 .5081787 .13699341 .5341797 .101989749 .5341797 .09399414 .5341797 .09199524 .5341797 .08898926 .5331726 .11199951 .59806826 .1659851 .63500979 .22399903 .63500979 .31498719 .63500979 .35798646 .5541382 .35798646 .47216798 .35798646 .39215089 .30799867 .31311036 .25299073 .25108338L.06098938 .036987306C.049987794 .025985718 .049987794 .023986817 .049987794 0H.42099L.44898988 .17404175H.42399598C.4189911 .14402771 .4119873 .1000061 .4019928 .084991458 .394989 .07699585 .32899476 .07699585 .30699159 .07699585H.1269989Z"/>
<path id="font_2_1" d="M.46199037 .33935548C.46699525 .36135865 .47698976 .3983612 .47698976 .40437318 .47698976 .42237855 .46299745 .43138124 .44799806 .43138124 .43598939 .43138124 .41799928 .42337037 .41099549 .4033661 .4079895 .3963623 .36099244 .205307 .35398866 .17930603 .34700013 .14929199 .34498597 .13128662 .34498597 .11328125 .34498597 .10227966 .34498597 .10028076 .34599305 .09527588 .32299806 .042266847 .29299928 .011245728 .2539978 .011245728 .17399597 .011245728 .17399597 .08526611 .17399597 .10227966 .17399597 .1342926 .1789856 .17329407 .22599793 .29634095 .23699951 .32633973 .24299622 .3403473 .24299622 .36035157 .24299622 .405365 .20999146 .4423828 .16099549 .4423828 .06599426 .4423828 .0289917 .29733277 .0289917 .28833009 .0289917 .27833558 .038986207 .27833558 .040985109 .27833558 .050994874 .27833558 .051986696 .28033448 .056991579 .29634095 .083999637 .38935853 .12298584 .42037965 .1579895 .42037965 .16699219 .42037965 .18299866 .41937257 .18299866 .38735963 .18299866 .36235047 .17199707 .3343506 .16499329 .31733705 .12098694 .1993103 .10899353 .1532898 .10899353 .11528015 .10899353 .024261475 .17599488-.0107421879 .25099183-.0107421879 .2679901-.0107421879 .31498719-.0107421879 .35499574 .059265138 .3809967-.0047454836 .44999696-.0107421879 .47999574-.0107421879 .5549927-.0107421879 .598999 .052261354 .625 .11227417 .6589966 .19030762 .69099429 .32434083 .69099429 .37236024 .69099429 .42736817 .6639862 .4423828 .6469879 .4423828 .621994 .4423828 .5970001 .41636659 .5970001 .3943634 .5970001 .38136292 .6029968 .3753662 .6119995 .36735536 .6230011 .35635377 .647995 .33035279 .647995 .28233338 .647995 .24832154 .61898806 .15029907 .59298709 .09927368 .5669861 .04626465 .5319977 .011245728 .48298646 .011245728 .43598939 .011245728 .40899659 .041259767 .40899659 .09828186 .40899659 .12628174 .41600038 .1572876 .41999818 .17129517L.46199037 .33935548Z"/>
<path id="font_3_1" d="M.15499878 .5588074C.20599365 .5458069 .23599243 .5458069 .2519989 .5458069 .38398744 .5458069 .46199037 .6358032 .46199037 .6508026 .46199037 .6618042 .45498658 .6648102 .44999696 .6648102 .44799806 .6648102 .44599916 .6648102 .44198609 .6618042 .41799928 .6528015 .36499024 .6328125 .29100038 .6328125 .2630005 .6328125 .20999146 .6348114 .14498902 .6598053 .1349945 .6648102 .1329956 .6648102 .13198853 .6648102 .11898804 .6648102 .11898804 .6538086 .11898804 .6378021V.34251405C.11898804 .32548524 .11898804 .3134613 .1349945 .3134613 .14399719 .3134613 .14498902 .3154602 .15499878 .32748414 .19799805 .38259889 .25898744 .390625 .2939911 .390625 .35398866 .390625 .3809967 .34251405 .38598634 .33450318 .4039917 .30143739 .4099884 .26335145 .4099884 .20524597 .4099884 .17524719 .4099884 .116256717 .37998963 .07234192 .35499574 .03640747 .31199647 .012466431 .2630005 .012466431 .19799805 .012466431 .1309967 .04838562 .10598755 .11425781 .14399719 .11125183 .16299439 .13624573 .16299439 .16325379 .16299439 .20625305 .12599182 .21424866 .11299133 .21424866 .11099243 .21424866 .06298828 .21424866 .06298828 .1602478 .06298828 .07034302 .14498902-.01953125 .2649994-.01953125 .3929901-.01953125 .5049896 .07533264 .5049896 .20124817 .5049896 .31445313 .4189911 .41862489 .29499818 .41862489 .25099183 .41862489 .19898987 .4076233 .15499878 .36956788V.5588074Z"/>
</defs>
<path transform="matrix(1.00003,0,0,-1.00008,3.314537,76.723857)" stroke-width="2.83466" stroke-linecap="butt" stroke-miterlimit="10" stroke-linejoin="miter" fill="none" stroke="#d73589" d="M0 0V73.70186H73.70186V0ZM73.70186 73.70186"/>
<use data-text="1" xlink:href="#font_1_1" transform="matrix(9.962899,0,0,-9.963397,80.53886,43.92523)"/>
<use data-text="2" xlink:href="#font_1_2" transform="matrix(9.962899,0,0,-9.963397,85.52031,43.92523)"/>
<use data-text="w" xlink:href="#font_2_1" transform="matrix(9.962899,0,0,-9.963397,90.50215,43.92523)"/>
<use data-text="5" xlink:href="#font_3_1" transform="matrix(6.9740097,0,0,-6.974358,97.902378,40.30994)"/>
<use data-text="1" xlink:href="#font_1_1" transform="matrix(9.962899,0,0,-9.963397,29.250313,88.35478)"/>
<use data-text="2" xlink:href="#font_1_2" transform="matrix(9.962899,0,0,-9.963397,34.231767,88.35478)"/>
<use data-text="w" xlink:href="#font_2_1" transform="matrix(9.962899,0,0,-9.963397,39.213609,88.35478)"/>
<use data-text="5" xlink:href="#font_3_1" transform="matrix(6.9740097,0,0,-6.974358,46.61383,84.739498)"/>
</svg>
