<svg xmlns="http://www.w3.org/2000/svg" xmlns:xlink="http://www.w3.org/1999/xlink" version="1.1" width="173" height="166" viewBox="0 0 173 166">
<defs>
<path id="font_1_1" d="M.6589966 .23046875C.6759949 .23046875 .69400027 .23046875 .69400027 .25045777 .69400027 .27046205 .6759949 .27046205 .6589966 .27046205H.117996219C.100997928 .27046205 .08299255 .27046205 .08299255 .25045777 .08299255 .23046875 .100997928 .23046875 .117996219 .23046875H.6589966Z"/>
<path id="font_2_2" d="M.44898988 .20022583C.44898988 .3193512 .36698915 .41944886 .25898744 .41944886 .21099854 .41944886 .16799927 .40345765 .13198853 .36842347V.5637665C.1519928 .5577698 .18499756 .55078127 .21699524 .55078127 .33999635 .55078127 .4099884 .6417694 .4099884 .6547699 .4099884 .6607666 .40699769 .6657715 .3999939 .6657715 .39898683 .6657715 .39698792 .6657715 .3919983 .66278079 .37199403 .6537781 .32299806 .6337738 .2559967 .6337738 .21598816 .6337738 .16999817 .6407776 .12298584 .6617737 .114990238 .66477969 .11299133 .66477969 .11099243 .66477969 .100997928 .66477969 .100997928 .6567688 .100997928 .6407776V.34439088C.100997928 .32637025 .100997928 .31835938 .114990238 .31835938 .12199402 .31835938 .12399292 .32136537 .12799073 .32736207 .13899231 .3433838 .17599488 .39746095 .25698854 .39746095 .30899049 .39746095 .33399964 .35139466 .34199525 .33337403 .35798646 .29632569 .3600006 .25727845 .3600006 .20722962 .3600006 .17222595 .3600006 .11222839 .33599855 .07035828 .31199647 .031463624 .2749939 .0055389406 .22898865 .0055389406 .1559906 .0055389406 .09899902 .058380128 .08198547 .11723328 .084991458 .1162262 .08799744 .115234378 .09899902 .115234378 .13198853 .115234378 .14898682 .14022827 .14898682 .16423035 .14898682 .18823242 .13198853 .21322632 .09899902 .21322632 .084991458 .21322632 .049987794 .20622254 .049987794 .16023255 .049987794 .07434082 .11898804-.022460938 .23098755-.022460938 .34700013-.022460938 .44898988 .073349 .44898988 .20022583Z"/>
<path id="font_2_3" d="M.13198853 .327713V.35173036C.13198853 .6047821 .2559967 .64100649 .30699159 .64100649 .33099366 .64100649 .37298585 .634964 .394989 .6007538 .37998963 .6007538 .33999635 .6007538 .33999635 .5557556 .33999635 .524765 .3639984 .5097656 .38598634 .5097656 .4019928 .5097656 .43199159 .51875308 .43199159 .5577545 .43199159 .6178589 .3880005 .6660156 .30499269 .6660156 .1769867 .6660156 .041992189 .5367584 .041992189 .31570436 .041992189 .048553468 .1579895-.022460938 .25099183-.022460938 .3619995-.022460938 .45700074 .07156372 .45700074 .2036438 .45700074 .33070375 .36799623 .4267578 .25698854 .4267578 .18899536 .4267578 .1519928 .37573243 .13198853 .327713M.25099183 .0055389406C.18798828 .0055389406 .1579895 .06556702 .1519928 .080566409 .13398743 .127594 .13398743 .2076416 .13398743 .22564698 .13398743 .30369569 .1659851 .40374757 .2559967 .40374757 .27198792 .40374757 .31799317 .40374757 .34899903 .34172059 .36698915 .30470277 .36698915 .2536621 .36698915 .20463562 .36698915 .15661621 .36698915 .10658264 .34999085 .0705719 .31999208 .010528564 .27398683 .0055389406 .25099183 .0055389406Z"/>
<path id="font_2_1" d="M.2899933 .35191346C.37199403 .37893678 .42999269 .4490509 .42999269 .52809146 .42999269 .6100464 .34199525 .6660156 .24598694 .6660156 .14498902 .6660156 .068984989 .60606387 .068984989 .53009036 .068984989 .49710084 .09098816 .47808839 .11999512 .47808839 .15098572 .47808839 .17098999 .50009158 .17098999 .5290985 .17098999 .57910159 .12399292 .57910159 .10899353 .57910159 .13999939 .62802127 .20599365 .64100649 .24198914 .64100649 .2829895 .64100649 .33799745 .6190338 .33799745 .5290985 .33799745 .51708987 .33599855 .45906068 .30999757 .4149933 .27999879 .36691285 .24598694 .36390687 .22099304 .36291505 .21299744 .36190797 .18899536 .35990907 .18199158 .35990907 .17399597 .35890199 .16699219 .35791017 .16699219 .3479004 .16699219 .33691407 .17399597 .33691407 .19099427 .33691407H.23498535C.31698609 .33691407 .35398866 .2686615 .35398866 .17037964 .35398866 .034469606 .2849884 .0055389406 .24099732 .0055389406 .19799805 .0055389406 .12298584 .022491456 .08799744 .08137512 .12298584 .07637024 .1539917 .09837341 .1539917 .1363678 .1539917 .17237854 .1269989 .19238281 .09799194 .19238281 .07398987 .19238281 .041992189 .17837525 .041992189 .1343689 .041992189 .043441774 .1349945-.022460938 .24398804-.022460938 .3659973-.022460938 .45700074 .06838989 .45700074 .17037964 .45700074 .252594 .3939972 .33088685 .2899933 .35191346Z"/>
<path id="font_3_1" d="M.33399964 .30233766C.33999635 .32835389 .36299134 .42037965 .43299867 .42037965 .43798829 .42037965 .46199037 .42037965 .48298646 .40734864 .45498658 .402359 .43499757 .37734986 .43499757 .35334779 .43499757 .33735658 .44599916 .31835938 .47299195 .31835938 .49499513 .31835938 .5269928 .3363495 .5269928 .37635804 .5269928 .42837525 .46798707 .4423828 .43399049 .4423828 .37599183 .4423828 .34098817 .38935853 .32899476 .36634828 .3039856 .43237306 .25 .4423828 .22099304 .4423828 .116989139 .4423828 .05999756 .3133545 .05999756 .28834535 .05999756 .27833558 .069992069 .27833558 .07199097 .27833558 .07998657 .27833558 .08299255 .28033448 .084991458 .28933717 .11898804 .39535523 .18499756 .42037965 .21899414 .42037965 .23799134 .42037965 .272995 .4113617 .272995 .35334779 .272995 .32235719 .2559967 .25532533 .21899414 .11528015 .20298767 .053268434 .16799927 .011245728 .12399292 .011245728 .117996219 .011245728 .09498596 .011245728 .07398987 .024276734 .09899902 .029266358 .12098694 .05027771 .12098694 .07827759 .12098694 .105270389 .09899902 .11328125 .083999637 .11328125 .053985597 .11328125 .0289917 .08728027 .0289917 .055267335 .0289917 .009246826 .07899475-.0107421879 .12298584-.0107421879 .18899536-.0107421879 .22499085 .059280397 .22799683 .0652771 .23999024 .028274537 .27598573-.0107421879 .33599855-.0107421879 .43899537-.0107421879 .49598695 .118270877 .49598695 .14328003 .49598695 .1532898 .4869995 .1532898 .48399354 .1532898 .47499085 .1532898 .47299195 .14929199 .47099305 .14228821 .43798829 .03527832 .36999513 .011245728 .33799745 .011245728 .29899598 .011245728 .2829895 .043273927 .2829895 .07727051 .2829895 .09927368 .2889862 .121276859 .2999878 .16529846L.33399964 .30233766Z"/>
<path id="font_3_2" d="M.48599244 .38136292C.48999024 .39537049 .48999024 .39736939 .48999024 .40437318 .48999024 .42237855 .47599793 .43138124 .46099855 .43138124 .45098878 .43138124 .43499757 .42536927 .42599488 .41036988 .42399598 .405365 .41600038 .37435914 .4119873 .35635377 .40499879 .33035279 .397995 .30334474 .3919983 .27633668L.34700013 .09628296C.34298707 .08126831 .2999878 .011245728 .23399353 .011245728 .18299866 .011245728 .17199707 .055267335 .17199707 .0922699 .17199707 .1382904 .18899536 .20030213 .22299195 .28833009 .23899842 .3293457 .24299622 .3403473 .24299622 .36035157 .24299622 .405365 .21099854 .4423828 .16099549 .4423828 .06599426 .4423828 .0289917 .29733277 .0289917 .28833009 .0289917 .27833558 .038986207 .27833558 .040985109 .27833558 .050994874 .27833558 .051986696 .28033448 .056991579 .29634095 .083999637 .3903656 .12399292 .42037965 .1579895 .42037965 .1659851 .42037965 .18299866 .42037965 .18299866 .3883667 .18299866 .36335755 .17298889 .3373413 .1659851 .31834413 .12599182 .21231079 .10798645 .1552887 .10798645 .10827637 .10798645 .019256592 .17098999-.0107421879 .22999573-.0107421879 .2689972-.0107421879 .30299378 .0062561037 .33099366 .03425598 .31799317-.017745972 .30599977-.06674194 .2659912-.11973572 .23999024-.15385437 .20199585-.18309021 .1559906-.18309021 .14199829-.18309021 .09700012-.18005371 .07998657-.14074707 .09599304-.14074707 .10899353-.14074707 .12298584-.1287384 .1329956-.11973572 .14299011-.10673523 .14299011-.08773804 .14299011-.056747438 .115997318-.052734376 .10598755-.052734376 .08299255-.052734376 .049987794-.068740848 .049987794-.11773682 .049987794-.16796875 .09399414-.20507813 .1559906-.20507813 .25898744-.20507813 .3619995-.11373901 .3899994-.00074768069L.48599244 .38136292Z"/>
</defs>
<path transform="matrix(1.00005,0,0,-1.00005,77.44621,75.903148)" stroke-width=".3985" stroke-linecap="butt" stroke-miterlimit="10" stroke-linejoin="miter" fill="none" stroke="#00aeef" d="M-70.867-85.04042H70.867M-70.867-70.867H70.867M-70.867-56.69362H70.867M-70.867-42.5202H70.867M-70.867-28.3468H70.867M-70.867-14.17339H70.867M-70.867 0H70.867M-70.867 14.17339H70.867M-70.867 28.3468H70.867M-70.867 42.5202H70.867M-70.867 56.68863H70.867M-70.867-85.04042V56.69362M-56.69362-85.04042V56.69362M-42.5202-85.04042V56.69362M-28.3468-85.04042V56.69362M-14.17339-85.04042V56.69362M0-85.04042V56.69362M14.17339-85.04042V56.69362M28.3468-85.04042V56.69362M42.5202-85.04042V56.69362M56.69362-85.04042V56.69362M70.86205-85.04042V56.69362M70.867 56.69362"/>
<path transform="matrix(1.00005,0,0,-1.00005,77.44621,75.903148)" stroke-width="1.19553" stroke-linecap="butt" stroke-miterlimit="10" stroke-linejoin="miter" fill="none" stroke="#00aeef" d="M-70.867-85.04042V56.69362"/>
<path transform="matrix(1.00005,0,0,-1.00005,77.44621,75.903148)" stroke-width=".3985" stroke-linecap="butt" stroke-miterlimit="10" stroke-linejoin="miter" fill="none" stroke="#000000" d="M-70.867 1.4174V-1.41719"/>
<path transform="matrix(1.00005,0,0,-1.00005,77.44621,75.903148)" d="M-78.2284-13.84851H-63.505624V-4.60528H-78.2284Z" fill="#ffffff"/>
<use data-text="&#x2212;" xlink:href="#font_1_1" transform="matrix(9.963098,0,0,-9.963098,.2103424,87.92575)"/>
<use data-text="5" xlink:href="#font_2_2" transform="matrix(9.963098,0,0,-9.963098,7.95874,87.92575)"/>
<path transform="matrix(1.00005,0,0,-1.00005,77.44621,75.903148)" stroke-width="1.19553" stroke-linecap="butt" stroke-miterlimit="10" stroke-linejoin="miter" fill="none" stroke="#00aeef" d="M70.867-85.04042V56.69362"/>
<path transform="matrix(1.00005,0,0,-1.00005,77.44621,75.903148)" stroke-width=".3985" stroke-linecap="butt" stroke-miterlimit="10" stroke-linejoin="miter" fill="none" stroke="#000000" d="M70.867 1.4174V-1.41719"/>
<path transform="matrix(1.00005,0,0,-1.00005,77.44621,75.903148)" d="M67.38004-13.01826H74.35398V-4.60528H67.38004Z" fill="#ffffff"/>
<use data-text="5" xlink:href="#font_2_2" transform="matrix(9.963098,0,0,-9.963098,145.82563,87.92575)"/>
<path transform="matrix(1.00005,0,0,-1.00005,77.44621,75.903148)" stroke-width="1.19553" stroke-linecap="butt" stroke-miterlimit="10" stroke-linejoin="miter" fill="none" stroke="#00aeef" d="M-70.867-85.04042H70.867"/>
<path transform="matrix(1.00005,0,0,-1.00005,77.44621,75.903148)" stroke-width=".3985" stroke-linecap="butt" stroke-miterlimit="10" stroke-linejoin="miter" fill="none" stroke="#000000" d="M1.4174-85.04042H-1.41719"/>
<path transform="matrix(1.00005,0,0,-1.00005,77.44621,75.903148)" d="M-19.32806-89.66203H-4.60528V-80.4188H-19.32806Z" fill="#ffffff"/>
<use data-text="&#x2212;" xlink:href="#font_1_1" transform="matrix(9.963098,0,0,-9.963098,59.113298,163.74353)"/>
<use data-text="6" xlink:href="#font_2_3" transform="matrix(9.963098,0,0,-9.963098,66.861698,163.74353)"/>
<path transform="matrix(1.00005,0,0,-1.00005,77.44621,75.903148)" stroke-width="1.19553" stroke-linecap="butt" stroke-miterlimit="10" stroke-linejoin="miter" fill="none" stroke="#00aeef" d="M-70.867-42.5202H70.867"/>
<path transform="matrix(1.00005,0,0,-1.00005,77.44621,75.903148)" stroke-width=".3985" stroke-linecap="butt" stroke-miterlimit="10" stroke-linejoin="miter" fill="none" stroke="#000000" d="M1.4174-42.5202H-1.41719"/>
<path transform="matrix(1.00005,0,0,-1.00005,77.44621,75.903148)" d="M-19.32806-47.14182H-4.60528V-37.89859H-19.32806Z" fill="#ffffff"/>
<use data-text="&#x2212;" xlink:href="#font_1_1" transform="matrix(9.963098,0,0,-9.963098,59.113298,121.220409)"/>
<use data-text="3" xlink:href="#font_2_1" transform="matrix(9.963098,0,0,-9.963098,66.861698,121.220409)"/>
<path transform="matrix(1.00005,0,0,-1.00005,77.44621,75.903148)" stroke-width="1.19553" stroke-linecap="butt" stroke-miterlimit="10" stroke-linejoin="miter" fill="none" stroke="#00aeef" d="M-70.867 42.5202H70.867"/>
<path transform="matrix(1.00005,0,0,-1.00005,77.44621,75.903148)" stroke-width=".3985" stroke-linecap="butt" stroke-miterlimit="10" stroke-linejoin="miter" fill="none" stroke="#000000" d="M1.4174 42.5202H-1.41719"/>
<path transform="matrix(1.00005,0,0,-1.00005,77.44621,75.903148)" d="M-11.57922 38.3137H-4.60528V46.72668H-11.57922Z" fill="#ffffff"/>
<use data-text="3" xlink:href="#font_2_1" transform="matrix(9.963098,0,0,-9.963098,66.862689,36.59118)"/>
<path transform="matrix(1.00005,0,0,-1.00005,77.44621,75.903148)" stroke-width=".79701" stroke-linecap="butt" stroke-miterlimit="10" stroke-linejoin="miter" fill="none" stroke="#000000" d="M-70.867 0H83.6058"/>
<path transform="matrix(1.00005,0,0,-1.00005,161.05619,75.903148)" d="M1.0361 0C-.25902 .25902-1.55415 .77707-3.1083 1.68365-1.55415 .51805-1.55415-.51805-3.1083-1.68365-1.55415-.77707-.25902-.25902 1.0361 0Z"/>
<path transform="matrix(1.00005,0,0,-1.00005,161.05619,75.903148)" stroke-width=".79701" stroke-linecap="butt" stroke-linejoin="round" fill="none" stroke="#000000" d="M1.0361 0C-.25902 .25902-1.55415 .77707-3.1083 1.68365-1.55415 .51805-1.55415-.51805-3.1083-1.68365-1.55415-.77707-.25902-.25902 1.0361 0Z"/>
<use data-text="x" xlink:href="#font_3_1" transform="matrix(9.963098,0,0,-9.963098,166.20966,78.04825)"/>
<path transform="matrix(1.00005,0,0,-1.00005,77.44621,75.903148)" stroke-width=".79701" stroke-linecap="butt" stroke-miterlimit="10" stroke-linejoin="miter" fill="none" stroke="#000000" d="M0-85.04042V69.4324"/>
<path transform="matrix(0,-1.00005,-1.00005,-0,77.44621,6.46727)" d="M1.0361 0C-.25902 .25902-1.55415 .77707-3.1083 1.68365-1.55415 .51805-1.55415-.51805-3.1083-1.68365-1.55415-.77707-.25902-.25902 1.0361 0Z"/>
<path transform="matrix(0,-1.00005,-1.00005,-0,77.44621,6.46727)" stroke-width=".79701" stroke-linecap="butt" stroke-linejoin="round" fill="none" stroke="#000000" d="M1.0361 0C-.25902 .25902-1.55415 .77707-3.1083 1.68365-1.55415 .51805-1.55415-.51805-3.1083-1.68365-1.55415-.77707-.25902-.25902 1.0361 0Z"/>
<use data-text="y" xlink:href="#font_3_2" transform="matrix(9.963098,0,0,-9.963098,70.47687,6.208664)"/>
<path transform="matrix(1.00005,0,0,-1.00005,77.44621,75.903148)" stroke-width=".79701" stroke-linecap="butt" stroke-miterlimit="10" stroke-linejoin="miter" fill="none" stroke="#ff0000" d="M-70.867-81.49707 68.79488 23.24931"/>
<path transform="matrix(.8000099,-.60002,-.60002,-.8000099,146.24454,52.65267)" d="M2.59026 0-1.55415 2.0722 0 0-1.55415-2.0722" fill="#ff0000"/>
<path transform="matrix(1.00005,0,0,-1.00005,77.44621,75.903148)" stroke-width=".79701" stroke-linecap="butt" stroke-miterlimit="10" stroke-linejoin="miter" fill="none" stroke="#800080" d="M0-28.3468V-15.608"/>
<path transform="matrix(0,-1.00005,-1.00005,-0,77.44621,91.511928)" d="M1.0361 0C-.25902 .25902-1.55415 .77707-3.1083 1.68365-1.55415 .51805-1.55415-.51805-3.1083-1.68365-1.55415-.77707-.25902-.25902 1.0361 0Z" fill="#800080"/>
<path transform="matrix(0,-1.00005,-1.00005,-0,77.44621,91.511928)" stroke-width=".79701" stroke-linecap="butt" stroke-linejoin="round" fill="none" stroke="#800080" d="M1.0361 0C-.25902 .25902-1.55415 .77707-3.1083 1.68365-1.55415 .51805-1.55415-.51805-3.1083-1.68365-1.55415-.77707-.25902-.25902 1.0361 0Z"/>
<path transform="matrix(1.00005,0,0,-1.00005,77.44621,75.903148)" stroke-width=".79701" stroke-linecap="butt" stroke-miterlimit="10" stroke-linejoin="miter" fill="none" stroke="#800080" d="M0-14.17339V-1.4346"/>
<path transform="matrix(0,-1.00005,-1.00005,-0,77.44621,77.337818)" d="M1.0361 0C-.25902 .25902-1.55415 .77707-3.1083 1.68365-1.55415 .51805-1.55415-.51805-3.1083-1.68365-1.55415-.77707-.25902-.25902 1.0361 0Z" fill="#800080"/>
<path transform="matrix(0,-1.00005,-1.00005,-0,77.44621,77.337818)" stroke-width=".79701" stroke-linecap="butt" stroke-linejoin="round" fill="none" stroke="#800080" d="M1.0361 0C-.25902 .25902-1.55415 .77707-3.1083 1.68365-1.55415 .51805-1.55415-.51805-3.1083-1.68365-1.55415-.77707-.25902-.25902 1.0361 0Z"/>
<path transform="matrix(1.00005,0,0,-1.00005,77.44621,75.903148)" stroke-width=".79701" stroke-linecap="butt" stroke-miterlimit="10" stroke-linejoin="miter" fill="none" stroke="#800080" d="M0 0V12.73878"/>
<path transform="matrix(0,-1.00005,-1.00005,-0,77.44621,63.163728)" d="M1.0361 0C-.25902 .25902-1.55415 .77707-3.1083 1.68365-1.55415 .51805-1.55415-.51805-3.1083-1.68365-1.55415-.77707-.25902-.25902 1.0361 0Z" fill="#800080"/>
<path transform="matrix(0,-1.00005,-1.00005,-0,77.44621,63.163728)" stroke-width=".79701" stroke-linecap="butt" stroke-linejoin="round" fill="none" stroke="#800080" d="M1.0361 0C-.25902 .25902-1.55415 .77707-3.1083 1.68365-1.55415 .51805-1.55415-.51805-3.1083-1.68365-1.55415-.77707-.25902-.25902 1.0361 0Z"/>
<path transform="matrix(1.00005,0,0,-1.00005,77.44621,75.903148)" stroke-width=".79701" stroke-linecap="butt" stroke-miterlimit="10" stroke-linejoin="miter" fill="none" stroke="#800080" d="M0 14.17339H12.73878"/>
<path transform="matrix(1.00005,0,0,-1.00005,90.18563,61.729047)" d="M1.0361 0C-.25902 .25902-1.55415 .77707-3.1083 1.68365-1.55415 .51805-1.55415-.51805-3.1083-1.68365-1.55415-.77707-.25902-.25902 1.0361 0Z" fill="#800080"/>
<path transform="matrix(1.00005,0,0,-1.00005,90.18563,61.729047)" stroke-width=".79701" stroke-linecap="butt" stroke-linejoin="round" fill="none" stroke="#800080" d="M1.0361 0C-.25902 .25902-1.55415 .77707-3.1083 1.68365-1.55415 .51805-1.55415-.51805-3.1083-1.68365-1.55415-.77707-.25902-.25902 1.0361 0Z"/>
<path transform="matrix(1.00005,0,0,-1.00005,77.44621,75.903148)" stroke-width=".79701" stroke-linecap="butt" stroke-miterlimit="10" stroke-linejoin="miter" fill="none" stroke="#800080" d="M14.17339 14.17339H26.91219"/>
<path transform="matrix(1.00005,0,0,-1.00005,104.35975,61.729047)" d="M1.0361 0C-.25902 .25902-1.55415 .77707-3.1083 1.68365-1.55415 .51805-1.55415-.51805-3.1083-1.68365-1.55415-.77707-.25902-.25902 1.0361 0Z" fill="#800080"/>
<path transform="matrix(1.00005,0,0,-1.00005,104.35975,61.729047)" stroke-width=".79701" stroke-linecap="butt" stroke-linejoin="round" fill="none" stroke="#800080" d="M1.0361 0C-.25902 .25902-1.55415 .77707-3.1083 1.68365-1.55415 .51805-1.55415-.51805-3.1083-1.68365-1.55415-.77707-.25902-.25902 1.0361 0Z"/>
<path transform="matrix(1.00005,0,0,-1.00005,77.44621,75.903148)" stroke-width=".79701" stroke-linecap="butt" stroke-miterlimit="10" stroke-linejoin="miter" fill="none" stroke="#800080" d="M28.3468 14.17339H41.08559"/>
<path transform="matrix(1.00005,0,0,-1.00005,118.53386,61.729047)" d="M1.0361 0C-.25902 .25902-1.55415 .77707-3.1083 1.68365-1.55415 .51805-1.55415-.51805-3.1083-1.68365-1.55415-.77707-.25902-.25902 1.0361 0Z" fill="#800080"/>
<path transform="matrix(1.00005,0,0,-1.00005,118.53386,61.729047)" stroke-width=".79701" stroke-linecap="butt" stroke-linejoin="round" fill="none" stroke="#800080" d="M1.0361 0C-.25902 .25902-1.55415 .77707-3.1083 1.68365-1.55415 .51805-1.55415-.51805-3.1083-1.68365-1.55415-.77707-.25902-.25902 1.0361 0Z"/>
<path transform="matrix(1.00005,0,0,-1.00005,77.44621,75.903148)" stroke-width=".79701" stroke-linecap="butt" stroke-miterlimit="10" stroke-linejoin="miter" fill="none" stroke="#800080" d="M42.5202 14.17339H55.259"/>
<path transform="matrix(1.00005,0,0,-1.00005,132.70798,61.729047)" d="M1.0361 0C-.25902 .25902-1.55415 .77707-3.1083 1.68365-1.55415 .51805-1.55415-.51805-3.1083-1.68365-1.55415-.77707-.25902-.25902 1.0361 0Z" fill="#800080"/>
<path transform="matrix(1.00005,0,0,-1.00005,132.70798,61.729047)" stroke-width=".79701" stroke-linecap="butt" stroke-linejoin="round" fill="none" stroke="#800080" d="M1.0361 0C-.25902 .25902-1.55415 .77707-3.1083 1.68365-1.55415 .51805-1.55415-.51805-3.1083-1.68365-1.55415-.77707-.25902-.25902 1.0361 0Z"/>
<path transform="matrix(1.00005,0,0,-1.00005,77.44621,75.903148)" stroke-width="1.59404" stroke-linecap="butt" stroke-miterlimit="10" stroke-linejoin="miter" fill="none" stroke="#ff0000" d="M-70.867-81.49707 67.83846 22.532"/>
<path transform="matrix(.8000099,-.60002,-.60002,-.8000099,145.28806,53.370019)" d="M3.78581 0-2.27148 3.02866 0 0-2.27148-3.02866" fill="#ff0000"/>
<path transform="matrix(1.00005,0,0,-1.00005,77.44621,75.903148)" stroke-width=".79701" stroke-linecap="butt" stroke-miterlimit="10" stroke-linejoin="miter" fill="none" stroke="#ec008c" d="M0-28.3468V-41.08559"/>
<path transform="matrix(0,1.00005,1.00005,0,77.44621,116.99078)" d="M1.0361 0C-.25902 .25902-1.55415 .77707-3.1083 1.68365-1.55415 .51805-1.55415-.51805-3.1083-1.68365-1.55415-.77707-.25902-.25902 1.0361 0Z" fill="#ec008c"/>
<path transform="matrix(0,1.00005,1.00005,0,77.44621,116.99078)" stroke-width=".79701" stroke-linecap="butt" stroke-linejoin="round" fill="none" stroke="#ec008c" d="M1.0361 0C-.25902 .25902-1.55415 .77707-3.1083 1.68365-1.55415 .51805-1.55415-.51805-3.1083-1.68365-1.55415-.77707-.25902-.25902 1.0361 0Z"/>
<path transform="matrix(1.00005,0,0,-1.00005,77.44621,75.903148)" stroke-width=".79701" stroke-linecap="butt" stroke-miterlimit="10" stroke-linejoin="miter" fill="none" stroke="#ec008c" d="M0-42.5202V-55.259"/>
<path transform="matrix(0,1.00005,1.00005,0,77.44621,131.1649)" d="M1.0361 0C-.25902 .25902-1.55415 .77707-3.1083 1.68365-1.55415 .51805-1.55415-.51805-3.1083-1.68365-1.55415-.77707-.25902-.25902 1.0361 0Z" fill="#ec008c"/>
<path transform="matrix(0,1.00005,1.00005,0,77.44621,131.1649)" stroke-width=".79701" stroke-linecap="butt" stroke-linejoin="round" fill="none" stroke="#ec008c" d="M1.0361 0C-.25902 .25902-1.55415 .77707-3.1083 1.68365-1.55415 .51805-1.55415-.51805-3.1083-1.68365-1.55415-.77707-.25902-.25902 1.0361 0Z"/>
<path transform="matrix(1.00005,0,0,-1.00005,77.44621,75.903148)" stroke-width=".79701" stroke-linecap="butt" stroke-miterlimit="10" stroke-linejoin="miter" fill="none" stroke="#ec008c" d="M0-56.69362V-69.4324"/>
<path transform="matrix(0,1.00005,1.00005,0,77.44621,145.33902)" d="M1.0361 0C-.25902 .25902-1.55415 .77707-3.1083 1.68365-1.55415 .51805-1.55415-.51805-3.1083-1.68365-1.55415-.77707-.25902-.25902 1.0361 0Z" fill="#ec008c"/>
<path transform="matrix(0,1.00005,1.00005,0,77.44621,145.33902)" stroke-width=".79701" stroke-linecap="butt" stroke-linejoin="round" fill="none" stroke="#ec008c" d="M1.0361 0C-.25902 .25902-1.55415 .77707-3.1083 1.68365-1.55415 .51805-1.55415-.51805-3.1083-1.68365-1.55415-.77707-.25902-.25902 1.0361 0Z"/>
<path transform="matrix(1.00005,0,0,-1.00005,77.44621,75.903148)" stroke-width=".79701" stroke-linecap="butt" stroke-miterlimit="10" stroke-linejoin="miter" fill="none" stroke="#ec008c" d="M0-70.867H-12.73878"/>
<path transform="matrix(-1.00005,-0,0,1.00005,64.706798,146.77368)" d="M1.0361 0C-.25902 .25902-1.55415 .77707-3.1083 1.68365-1.55415 .51805-1.55415-.51805-3.1083-1.68365-1.55415-.77707-.25902-.25902 1.0361 0Z" fill="#ec008c"/>
<path transform="matrix(-1.00005,-0,0,1.00005,64.706798,146.77368)" stroke-width=".79701" stroke-linecap="butt" stroke-linejoin="round" fill="none" stroke="#ec008c" d="M1.0361 0C-.25902 .25902-1.55415 .77707-3.1083 1.68365-1.55415 .51805-1.55415-.51805-3.1083-1.68365-1.55415-.77707-.25902-.25902 1.0361 0Z"/>
<path transform="matrix(1.00005,0,0,-1.00005,77.44621,75.903148)" stroke-width=".79701" stroke-linecap="butt" stroke-miterlimit="10" stroke-linejoin="miter" fill="none" stroke="#ec008c" d="M-14.17339-70.867H-26.91219"/>
<path transform="matrix(-1.00005,-0,0,1.00005,50.532678,146.77368)" d="M1.0361 0C-.25902 .25902-1.55415 .77707-3.1083 1.68365-1.55415 .51805-1.55415-.51805-3.1083-1.68365-1.55415-.77707-.25902-.25902 1.0361 0Z" fill="#ec008c"/>
<path transform="matrix(-1.00005,-0,0,1.00005,50.532678,146.77368)" stroke-width=".79701" stroke-linecap="butt" stroke-linejoin="round" fill="none" stroke="#ec008c" d="M1.0361 0C-.25902 .25902-1.55415 .77707-3.1083 1.68365-1.55415 .51805-1.55415-.51805-3.1083-1.68365-1.55415-.77707-.25902-.25902 1.0361 0Z"/>
<path transform="matrix(1.00005,0,0,-1.00005,77.44621,75.903148)" stroke-width=".79701" stroke-linecap="butt" stroke-miterlimit="10" stroke-linejoin="miter" fill="none" stroke="#ec008c" d="M-28.3468-70.867H-41.08559"/>
<path transform="matrix(-1.00005,-0,0,1.00005,36.35857,146.77368)" d="M1.0361 0C-.25902 .25902-1.55415 .77707-3.1083 1.68365-1.55415 .51805-1.55415-.51805-3.1083-1.68365-1.55415-.77707-.25902-.25902 1.0361 0Z" fill="#ec008c"/>
<path transform="matrix(-1.00005,-0,0,1.00005,36.35857,146.77368)" stroke-width=".79701" stroke-linecap="butt" stroke-linejoin="round" fill="none" stroke="#ec008c" d="M1.0361 0C-.25902 .25902-1.55415 .77707-3.1083 1.68365-1.55415 .51805-1.55415-.51805-3.1083-1.68365-1.55415-.77707-.25902-.25902 1.0361 0Z"/>
<path transform="matrix(1.00005,0,0,-1.00005,77.44621,75.903148)" stroke-width=".79701" stroke-linecap="butt" stroke-miterlimit="10" stroke-linejoin="miter" fill="none" stroke="#ec008c" d="M-42.5202-70.867H-55.259"/>
<path transform="matrix(-1.00005,-0,0,1.00005,22.184453,146.77368)" d="M1.0361 0C-.25902 .25902-1.55415 .77707-3.1083 1.68365-1.55415 .51805-1.55415-.51805-3.1083-1.68365-1.55415-.77707-.25902-.25902 1.0361 0Z" fill="#ec008c"/>
<path transform="matrix(-1.00005,-0,0,1.00005,22.184453,146.77368)" stroke-width=".79701" stroke-linecap="butt" stroke-linejoin="round" fill="none" stroke="#ec008c" d="M1.0361 0C-.25902 .25902-1.55415 .77707-3.1083 1.68365-1.55415 .51805-1.55415-.51805-3.1083-1.68365-1.55415-.77707-.25902-.25902 1.0361 0Z"/>
<path transform="matrix(1.00005,0,0,-1.00005,77.44621,75.903148)" d="M2.12599-28.3468C2.12599-27.17264 1.17416-26.22081 0-26.22081-1.17416-26.22081-2.12599-27.17264-2.12599-28.3468-2.12599-29.52097-1.17416-30.4728 0-30.4728 1.17416-30.4728 2.12599-29.52097 2.12599-28.3468ZM0-28.3468" fill="#ff0000"/>
<path transform="matrix(1.00005,0,0,-1.00005,77.44621,75.903148)" stroke-width=".3985" stroke-linecap="butt" stroke-miterlimit="10" stroke-linejoin="miter" fill="none" stroke="#ff0000" d="M2.12599-28.3468C2.12599-27.17264 1.17416-26.22081 0-26.22081-1.17416-26.22081-2.12599-27.17264-2.12599-28.3468-2.12599-29.52097-1.17416-30.4728 0-30.4728 1.17416-30.4728 2.12599-29.52097 2.12599-28.3468ZM0-28.3468"/>
<path transform="matrix(1.00005,0,0,-1.00005,77.44621,75.903148)" d="M58.81961 14.17339C58.81961 15.34756 57.86778 16.2994 56.69362 16.2994 55.51944 16.2994 54.56761 15.34756 54.56761 14.17339 54.56761 12.99922 55.51944 12.0474 56.69362 12.0474 57.86778 12.0474 58.81961 12.99922 58.81961 14.17339ZM56.69362 14.17339" fill="#ff0000"/>
<path transform="matrix(1.00005,0,0,-1.00005,77.44621,75.903148)" stroke-width=".3985" stroke-linecap="butt" stroke-miterlimit="10" stroke-linejoin="miter" fill="none" stroke="#ff0000" d="M58.81961 14.17339C58.81961 15.34756 57.86778 16.2994 56.69362 16.2994 55.51944 16.2994 54.56761 15.34756 54.56761 14.17339 54.56761 12.99922 55.51944 12.0474 56.69362 12.0474 57.86778 12.0474 58.81961 12.99922 58.81961 14.17339ZM56.69362 14.17339"/>
<path transform="matrix(1.00005,0,0,-1.00005,77.44621,75.903148)" d="M-54.56761-70.867C-54.56761-69.69284-55.51944-68.74101-56.69362-68.74101-57.86778-68.74101-58.81961-69.69284-58.81961-70.867-58.81961-72.04118-57.86778-72.99301-56.69362-72.99301-55.51944-72.99301-54.56761-72.04118-54.56761-70.867ZM-56.69362-70.867" fill="#ff0000"/>
<path transform="matrix(1.00005,0,0,-1.00005,77.44621,75.903148)" stroke-width=".3985" stroke-linecap="butt" stroke-miterlimit="10" stroke-linejoin="miter" fill="none" stroke="#ff0000" d="M-54.56761-70.867C-54.56761-69.69284-55.51944-68.74101-56.69362-68.74101-57.86778-68.74101-58.81961-69.69284-58.81961-70.867-58.81961-72.04118-57.86778-72.99301-56.69362-72.99301-55.51944-72.99301-54.56761-72.04118-54.56761-70.867ZM-56.69362-70.867"/>
</svg>
