<svg xmlns="http://www.w3.org/2000/svg" xmlns:xlink="http://www.w3.org/1999/xlink" version="1.1" width="293" height="199" viewBox="0 0 293 199">
<defs>
<path id="font_1_1" d="M.08799744 .059265138C.084991458 .044265748 .07899475 .021255494 .07899475 .01625061 .07899475-.0017547608 .09298706-.0107421879 .10798645-.0107421879 .11999512-.0107421879 .13798523-.002746582 .14498902 .01725769 .14698792 .021255494 .18099976 .15730286 .18499756 .17530823 .19299317 .20831299 .21099854 .27833558 .21699524 .30534364 .22099304 .31835938 .24899292 .36535646 .272995 .38734437 .2809906 .39434815 .30999757 .42037965 .35299684 .42037965 .3789978 .42037965 .3939972 .4083557 .394989 .4083557 .36499024 .40335084 .34298707 .37934876 .34298707 .35334779 .34298707 .33735658 .35398866 .31835938 .3809967 .31835938 .4079895 .31835938 .43598939 .34135438 .43598939 .37734986 .43598939 .41235353 .4039917 .4423828 .35299684 .4423828 .28799439 .4423828 .24398804 .39335633 .22499085 .36535646 .21699524 .4103546 .18099976 .4423828 .13398743 .4423828 .08799744 .4423828 .068984989 .40335084 .05999756 .38534547 .041992189 .35134889 .0289917 .29133607 .0289917 .28834535 .0289917 .27833558 .038986207 .27833558 .040985109 .27833558 .050994874 .27833558 .051986696 .27934266 .057998659 .30134584 .07499695 .37234498 .09498596 .42037965 .1309967 .42037965 .147995 .42037965 .1619873 .41235353 .1619873 .37435914 .1619873 .35334779 .15899658 .3423462 .1459961 .29034425L.08799744 .059265138Z"/>
<path id="font_1_2" d="M.20599365 .3996582H.2999878C.31999208 .3996582 .32998658 .3996582 .32998658 .41966249 .32998658 .43066407 .31999208 .43066407 .3019867 .43066407H.21398926C.25 .5724945 .25498963 .59246829 .25498963 .59846499 .25498963 .61546328 .24299622 .62545779 .22599793 .62545779 .22299195 .62545779 .19499207 .62446597 .18598938 .58947756L.14698792 .43066407H.052993776C.032989503 .43066407 .022994996 .43066407 .022994996 .4116516 .022994996 .3996582 .0309906 .3996582 .050994874 .3996582H.13899231C.066986087 .11608887 .06298828 .099121097 .06298828 .08114624 .06298828 .02722168 .100997928-.0107421879 .15499878-.0107421879 .25698854-.0107421879 .31399537 .13505554 .31399537 .14305115 .31399537 .1530304 .30599977 .1530304 .3019867 .1530304 .29299928 .1530304 .2919922 .15003968 .2869873 .13905335 .24398804 .035217287 .19099427 .011245728 .15699768 .011245728 .13598633 .011245728 .12599182 .024230957 .12599182 .057174684 .12599182 .08114624 .12799073 .088134769 .13198853 .10510254L.20599365 .3996582Z"/>
<path id="font_2_2" d="M.2939911 .64004519C.2939911 .66400149 .2939911 .6660156 .2709961 .6660156 .20899964 .60227969 .12098694 .60227969 .08898926 .60227969V.57128909C.10899353 .57128909 .16799927 .57128909 .21998596 .5972748V.07902527C.21998596 .042999269 .21699524 .0309906 .1269989 .0309906H.09498596V0C.12998963 .0029907227 .21699524 .0029907227 .25698854 .0029907227 .29699708 .0029907227 .38398744 .0029907227 .4189911 0V.0309906H.3869934C.29699708 .0309906 .2939911 .041992189 .2939911 .07902527V.64004519Z"/>
<path id="font_2_1" d="M.45999146 .31976319C.45999146 .39982606 .45498658 .47988893 .41999818 .5539398 .37399293 .65000918 .2919922 .6660156 .25 .6660156 .18998719 .6660156 .116989139 .64001467 .07598877 .54693606 .04399109 .47789 .038986207 .39982606 .038986207 .31976319 .038986207 .24472046 .042999269 .15464783 .083999637 .07859802 .1269989-.0024719239 .19999695-.022460938 .24899292-.022460938 .30299378-.022460938 .3789978-.0014648438 .4229889 .09359741 .45498658 .16265869 .45999146 .2407074 .45999146 .31976319M.24899292-.00047302247C.20999146-.00047302247 .15098572 .024551392 .1329956 .12062073 .12199402 .18066406 .12199402 .2727356 .12199402 .3317871 .12199402 .39582826 .12199402 .46188355 .12998963 .5159149 .14898682 .63500979 .22399903 .64401248 .24899292 .64401248 .28199769 .64401248 .34799195 .6259918 .36698915 .52693179 .3769989 .47088624 .3769989 .39482118 .3769989 .3317871 .3769989 .25672914 .3769989 .18867493 .3659973 .12461853 .35099793 .029556275 .2939911-.00047302247 .24899292-.00047302247Z"/>
<path id="font_2_3" d="M.1269989 .07699585 .23298645 .18003845C.3889923 .31811524 .44898988 .3721466 .44898988 .47216798 .44898988 .5860901 .35899354 .6660156 .23699951 .6660156 .12399292 .6660156 .049987794 .57411196 .049987794 .48516847 .049987794 .4291687 .099990848 .4291687 .102996829 .4291687 .11999512 .4291687 .15499878 .44117738 .15499878 .48217774 .15499878 .5081787 .13699341 .5341797 .101989749 .5341797 .09399414 .5341797 .09199524 .5341797 .08898926 .5331726 .11199951 .59806826 .1659851 .63500979 .22399903 .63500979 .31498719 .63500979 .35798646 .5541382 .35798646 .47216798 .35798646 .39215089 .30799867 .31311036 .25299073 .25108338L.06098938 .036987306C.049987794 .025985718 .049987794 .023986817 .049987794 0H.42099L.44898988 .17404175H.42399598C.4189911 .14402771 .4119873 .1000061 .4019928 .084991458 .394989 .07699585 .32899476 .07699585 .30699159 .07699585H.1269989Z"/>
<path id="font_2_4" d="M.2899933 .35191346C.37199403 .37893678 .42999269 .4490509 .42999269 .52809146 .42999269 .6100464 .34199525 .6660156 .24598694 .6660156 .14498902 .6660156 .068984989 .60606387 .068984989 .53009036 .068984989 .49710084 .09098816 .47808839 .11999512 .47808839 .15098572 .47808839 .17098999 .50009158 .17098999 .5290985 .17098999 .57910159 .12399292 .57910159 .10899353 .57910159 .13999939 .62802127 .20599365 .64100649 .24198914 .64100649 .2829895 .64100649 .33799745 .6190338 .33799745 .5290985 .33799745 .51708987 .33599855 .45906068 .30999757 .4149933 .27999879 .36691285 .24598694 .36390687 .22099304 .36291505 .21299744 .36190797 .18899536 .35990907 .18199158 .35990907 .17399597 .35890199 .16699219 .35791017 .16699219 .3479004 .16699219 .33691407 .17399597 .33691407 .19099427 .33691407H.23498535C.31698609 .33691407 .35398866 .2686615 .35398866 .17037964 .35398866 .034469606 .2849884 .0055389406 .24099732 .0055389406 .19799805 .0055389406 .12298584 .022491456 .08799744 .08137512 .12298584 .07637024 .1539917 .09837341 .1539917 .1363678 .1539917 .17237854 .1269989 .19238281 .09799194 .19238281 .07398987 .19238281 .041992189 .17837525 .041992189 .1343689 .041992189 .043441774 .1349945-.022460938 .24398804-.022460938 .3659973-.022460938 .45700074 .06838989 .45700074 .17037964 .45700074 .252594 .3939972 .33088685 .2899933 .35191346Z"/>
<path id="font_2_5" d="M.2939911 .16503906V.07800293C.2939911 .041992189 .2919922 .0309906 .21798706 .0309906H.19699097V0C.23799134 .0029907227 .2899933 .0029907227 .33198548 .0029907227 .37399293 .0029907227 .4269867 .0029907227 .46798707 0V.0309906H.44699098C.37298585 .0309906 .37098695 .041992189 .37098695 .07800293V.16503906H.47099305V.19602967H.37098695V.65075686C.37098695 .67074587 .37098695 .6767578 .35499574 .6767578 .34599305 .6767578 .34298707 .6767578 .33499146 .66474917L.027999878 .19602967V.16503906H.2939911M.2999878 .19602967H.055999757L.2999878 .5688019V.19602967Z"/>
<path id="font_2_6" d="M.44898988 .20022583C.44898988 .3193512 .36698915 .41944886 .25898744 .41944886 .21099854 .41944886 .16799927 .40345765 .13198853 .36842347V.5637665C.1519928 .5577698 .18499756 .55078127 .21699524 .55078127 .33999635 .55078127 .4099884 .6417694 .4099884 .6547699 .4099884 .6607666 .40699769 .6657715 .3999939 .6657715 .39898683 .6657715 .39698792 .6657715 .3919983 .66278079 .37199403 .6537781 .32299806 .6337738 .2559967 .6337738 .21598816 .6337738 .16999817 .6407776 .12298584 .6617737 .114990238 .66477969 .11299133 .66477969 .11099243 .66477969 .100997928 .66477969 .100997928 .6567688 .100997928 .6407776V.34439088C.100997928 .32637025 .100997928 .31835938 .114990238 .31835938 .12199402 .31835938 .12399292 .32136537 .12799073 .32736207 .13899231 .3433838 .17599488 .39746095 .25698854 .39746095 .30899049 .39746095 .33399964 .35139466 .34199525 .33337403 .35798646 .29632569 .3600006 .25727845 .3600006 .20722962 .3600006 .17222595 .3600006 .11222839 .33599855 .07035828 .31199647 .031463624 .2749939 .0055389406 .22898865 .0055389406 .1559906 .0055389406 .09899902 .058380128 .08198547 .11723328 .084991458 .1162262 .08799744 .115234378 .09899902 .115234378 .13198853 .115234378 .14898682 .14022827 .14898682 .16423035 .14898682 .18823242 .13198853 .21322632 .09899902 .21322632 .084991458 .21322632 .049987794 .20622254 .049987794 .16023255 .049987794 .07434082 .11898804-.022460938 .23098755-.022460938 .34700013-.022460938 .44898988 .073349 .44898988 .20022583Z"/>
<path id="font_2_7" d="M.13198853 .327713V.35173036C.13198853 .6047821 .2559967 .64100649 .30699159 .64100649 .33099366 .64100649 .37298585 .634964 .394989 .6007538 .37998963 .6007538 .33999635 .6007538 .33999635 .5557556 .33999635 .524765 .3639984 .5097656 .38598634 .5097656 .4019928 .5097656 .43199159 .51875308 .43199159 .5577545 .43199159 .6178589 .3880005 .6660156 .30499269 .6660156 .1769867 .6660156 .041992189 .5367584 .041992189 .31570436 .041992189 .048553468 .1579895-.022460938 .25099183-.022460938 .3619995-.022460938 .45700074 .07156372 .45700074 .2036438 .45700074 .33070375 .36799623 .4267578 .25698854 .4267578 .18899536 .4267578 .1519928 .37573243 .13198853 .327713M.25099183 .0055389406C.18798828 .0055389406 .1579895 .06556702 .1519928 .080566409 .13398743 .127594 .13398743 .2076416 .13398743 .22564698 .13398743 .30369569 .1659851 .40374757 .2559967 .40374757 .27198792 .40374757 .31799317 .40374757 .34899903 .34172059 .36698915 .30470277 .36698915 .2536621 .36698915 .20463562 .36698915 .15661621 .36698915 .10658264 .34999085 .0705719 .31999208 .010528564 .27398683 .0055389406 .25099183 .0055389406Z"/>
<path id="font_2_8" d="M.47599793 .609375C.4850006 .6213684 .4850006 .62338259 .4850006 .64437869H.24198914C.11999512 .64437869 .117996219 .65737918 .11399841 .67637637H.08898926L.055999757 .4702301H.08099365C.083999637 .48625184 .09298706 .5493469 .10598755 .56137087 .11299133 .5673828 .19099427 .5673828 .20399475 .5673828H.41099549C.3999939 .5513611 .32099916 .4421997 .29899598 .40914918 .20899964 .27394105 .17599488 .1347351 .17599488 .032577516 .17599488 .022567749 .17599488-.022460938 .22200012-.022460938 .2679901-.022460938 .2679901 .022567749 .2679901 .032577516V.08366394C.2679901 .13873291 .2709961 .19381714 .2789917 .24790955 .2829895 .27093507 .29699708 .35707093 .34098817 .41915895L.47599793 .609375Z"/>
</defs>
<path transform="matrix(1,0,0,-1.00008,16.793999,185.00377)" stroke-width=".3985" stroke-linecap="butt" stroke-miterlimit="10" stroke-linejoin="miter" fill="none" stroke="#00aeef" d="M0 0H255.12387M0 11.33855H255.12387M0 22.6771H255.12387M0 34.01564H255.12387M0 45.35419H255.12387M0 56.69275H255.12387M0 68.0313H255.12387M0 79.36984H255.12387M0 90.70839H255.12387M0 102.04694H255.12387M0 113.3855H255.12387M0 124.72404H255.12387M0 136.06259H255.12387M0 147.40114H255.12387M0 158.7397H255.12387M0 170.07427H255.12387M0 0V170.07825M17.00824 0V170.07825M34.0165 0V170.07825M51.02477 0V170.07825M68.03302 0V170.07825M85.04128 0V170.07825M102.04953 0V170.07825M119.0578 0V170.07825M136.06606 0V170.07825M153.07433 0V170.07825M170.08257 0V170.07825M187.09084 0V170.07825M204.09909 0V170.07825M221.10736 0V170.07825M238.1156 0V170.07825M255.11789 0V170.07825M255.12387 170.07825"/>
<path transform="matrix(1,0,0,-1.00008,16.793999,185.00377)" stroke-width=".79701" stroke-linecap="butt" stroke-miterlimit="10" stroke-linejoin="miter" fill="none" stroke="#000000" d="M0 0H265.595"/>
<path transform="matrix(1,0,0,-1.00008,282.389,185.00377)" d="M1.0361 0C-.25902 .25902-1.55415 .77707-3.1083 1.68365-1.55415 .51805-1.55415-.51805-3.1083-1.68365-1.55415-.77707-.25902-.25902 1.0361 0Z"/>
<path transform="matrix(1,0,0,-1.00008,282.389,185.00377)" stroke-width=".79701" stroke-linecap="butt" stroke-linejoin="round" fill="none" stroke="#000000" d="M1.0361 0C-.25902 .25902-1.55415 .77707-3.1083 1.68365-1.55415 .51805-1.55415-.51805-3.1083-1.68365-1.55415-.77707-.25902-.25902 1.0361 0Z"/>
<use data-text="r" xlink:href="#font_1_1" transform="matrix(9.9626,0,0,-9.963397,287.543,187.14894)"/>
<path transform="matrix(1,0,0,-1.00008,16.793999,185.00377)" stroke-width=".79701" stroke-linecap="butt" stroke-miterlimit="10" stroke-linejoin="miter" fill="none" stroke="#000000" d="M0 0V176.58058"/>
<path transform="matrix(0,-1.00008,-1,-0,16.793999,8.409058)" d="M1.0361 0C-.25902 .25902-1.55415 .77707-3.1083 1.68365-1.55415 .51805-1.55415-.51805-3.1083-1.68365-1.55415-.77707-.25902-.25902 1.0361 0Z"/>
<path transform="matrix(0,-1.00008,-1,-0,16.793999,8.409058)" stroke-width=".79701" stroke-linecap="butt" stroke-linejoin="round" fill="none" stroke="#000000" d="M1.0361 0C-.25902 .25902-1.55415 .77707-3.1083 1.68365-1.55415 .51805-1.55415-.51805-3.1083-1.68365-1.55415-.77707-.25902-.25902 1.0361 0Z"/>
<use data-text="t" xlink:href="#font_1_2" transform="matrix(9.9626,0,0,-9.963397,9.476997,8.0456089)"/>
<path transform="matrix(1,0,0,-1.00008,16.793999,185.00377)" stroke-width="1.19553" stroke-linecap="butt" stroke-miterlimit="10" stroke-linejoin="miter" fill="none" stroke="#00aeef" d="M34.0165 0V170.07825"/>
<path transform="matrix(1,0,0,-1.00008,16.793999,185.00377)" stroke-width=".79701" stroke-linecap="butt" stroke-miterlimit="10" stroke-linejoin="miter" fill="none" stroke="#000000" d="M34.0165 1.7007V-1.70087"/>
<path transform="matrix(1,0,0,-1.00008,16.793999,185.00377)" d="M28.03882-12.50491H39.99416V-4.0919306H28.03882Z" fill="#ffffff"/>
<use data-text="1" xlink:href="#font_2_2" transform="matrix(9.9626,0,0,-9.963397,45.829,196.51369)"/>
<use data-text="0" xlink:href="#font_2_1" transform="matrix(9.9626,0,0,-9.963397,50.8103,196.51369)"/>
<path transform="matrix(1,0,0,-1.00008,16.793999,185.00377)" stroke-width="1.19553" stroke-linecap="butt" stroke-miterlimit="10" stroke-linejoin="miter" fill="none" stroke="#00aeef" d="M68.03302 0V170.07825"/>
<path transform="matrix(1,0,0,-1.00008,16.793999,185.00377)" stroke-width=".79701" stroke-linecap="butt" stroke-miterlimit="10" stroke-linejoin="miter" fill="none" stroke="#000000" d="M68.03302 1.7007V-1.70087"/>
<path transform="matrix(1,0,0,-1.00008,16.793999,185.00377)" d="M62.05534-12.50491H74.01068V-4.0919306H62.05534Z" fill="#ffffff"/>
<use data-text="2" xlink:href="#font_2_3" transform="matrix(9.9626,0,0,-9.963397,79.84599,196.51369)"/>
<use data-text="0" xlink:href="#font_2_1" transform="matrix(9.9626,0,0,-9.963397,84.8273,196.51369)"/>
<path transform="matrix(1,0,0,-1.00008,16.793999,185.00377)" stroke-width="1.19553" stroke-linecap="butt" stroke-miterlimit="10" stroke-linejoin="miter" fill="none" stroke="#00aeef" d="M102.04953 0V170.07825"/>
<path transform="matrix(1,0,0,-1.00008,16.793999,185.00377)" stroke-width=".79701" stroke-linecap="butt" stroke-miterlimit="10" stroke-linejoin="miter" fill="none" stroke="#000000" d="M102.04953 1.7007V-1.70087"/>
<path transform="matrix(1,0,0,-1.00008,16.793999,185.00377)" d="M96.07185-12.50491H108.02719V-4.0919306H96.07185Z" fill="#ffffff"/>
<use data-text="3" xlink:href="#font_2_4" transform="matrix(9.9626,0,0,-9.963397,113.862,196.51369)"/>
<use data-text="0" xlink:href="#font_2_1" transform="matrix(9.9626,0,0,-9.963397,118.8433,196.51369)"/>
<path transform="matrix(1,0,0,-1.00008,16.793999,185.00377)" stroke-width="1.19553" stroke-linecap="butt" stroke-miterlimit="10" stroke-linejoin="miter" fill="none" stroke="#00aeef" d="M136.06606 0V170.07825"/>
<path transform="matrix(1,0,0,-1.00008,16.793999,185.00377)" stroke-width=".79701" stroke-linecap="butt" stroke-miterlimit="10" stroke-linejoin="miter" fill="none" stroke="#000000" d="M136.06606 1.7007V-1.70087"/>
<path transform="matrix(1,0,0,-1.00008,16.793999,185.00377)" d="M130.08838-12.50491H142.04372V-4.0919306H130.08838Z" fill="#ffffff"/>
<use data-text="4" xlink:href="#font_2_5" transform="matrix(9.9626,0,0,-9.963397,147.879,196.51369)"/>
<use data-text="0" xlink:href="#font_2_1" transform="matrix(9.9626,0,0,-9.963397,152.8603,196.51369)"/>
<path transform="matrix(1,0,0,-1.00008,16.793999,185.00377)" stroke-width="1.19553" stroke-linecap="butt" stroke-miterlimit="10" stroke-linejoin="miter" fill="none" stroke="#00aeef" d="M170.08257 0V170.07825"/>
<path transform="matrix(1,0,0,-1.00008,16.793999,185.00377)" stroke-width=".79701" stroke-linecap="butt" stroke-miterlimit="10" stroke-linejoin="miter" fill="none" stroke="#000000" d="M170.08257 1.7007V-1.70087"/>
<path transform="matrix(1,0,0,-1.00008,16.793999,185.00377)" d="M164.10489-12.50491H176.06023V-4.0919306H164.10489Z" fill="#ffffff"/>
<use data-text="5" xlink:href="#font_2_6" transform="matrix(9.9626,0,0,-9.963397,181.89499,196.51369)"/>
<use data-text="0" xlink:href="#font_2_1" transform="matrix(9.9626,0,0,-9.963397,186.8763,196.51369)"/>
<path transform="matrix(1,0,0,-1.00008,16.793999,185.00377)" stroke-width="1.19553" stroke-linecap="butt" stroke-miterlimit="10" stroke-linejoin="miter" fill="none" stroke="#00aeef" d="M204.09909 0V170.07825"/>
<path transform="matrix(1,0,0,-1.00008,16.793999,185.00377)" stroke-width=".79701" stroke-linecap="butt" stroke-miterlimit="10" stroke-linejoin="miter" fill="none" stroke="#000000" d="M204.09909 1.7007V-1.70087"/>
<path transform="matrix(1,0,0,-1.00008,16.793999,185.00377)" d="M198.12142-12.50491H210.07675V-4.0919306H198.12142Z" fill="#ffffff"/>
<use data-text="6" xlink:href="#font_2_7" transform="matrix(9.9626,0,0,-9.963397,215.91199,196.51369)"/>
<use data-text="0" xlink:href="#font_2_1" transform="matrix(9.9626,0,0,-9.963397,220.8933,196.51369)"/>
<path transform="matrix(1,0,0,-1.00008,16.793999,185.00377)" stroke-width="1.19553" stroke-linecap="butt" stroke-miterlimit="10" stroke-linejoin="miter" fill="none" stroke="#00aeef" d="M238.1156 0V170.07825"/>
<path transform="matrix(1,0,0,-1.00008,16.793999,185.00377)" stroke-width=".79701" stroke-linecap="butt" stroke-miterlimit="10" stroke-linejoin="miter" fill="none" stroke="#000000" d="M238.1156 1.7007V-1.70087"/>
<path transform="matrix(1,0,0,-1.00008,16.793999,185.00377)" d="M232.13793-12.50491H244.09326V-4.0919306H232.13793Z" fill="#ffffff"/>
<use data-text="7" xlink:href="#font_2_8" transform="matrix(9.9626,0,0,-9.963397,249.92801,196.51369)"/>
<use data-text="0" xlink:href="#font_2_1" transform="matrix(9.9626,0,0,-9.963397,254.9093,196.51369)"/>
<path transform="matrix(1,0,0,-1.00008,16.793999,185.00377)" stroke-width="1.19553" stroke-linecap="butt" stroke-miterlimit="10" stroke-linejoin="miter" fill="none" stroke="#00aeef" d="M0 56.69275H255.12387"/>
<path transform="matrix(1,0,0,-1.00008,16.793999,185.00377)" stroke-width=".79701" stroke-linecap="butt" stroke-miterlimit="10" stroke-linejoin="miter" fill="none" stroke="#000000" d="M2.55112 56.69275H-2.55139"/>
<path transform="matrix(1,0,0,-1.00008,16.793999,185.00377)" d="M-16.8978 52.48625H-4.94246V60.89923H-16.8978Z" fill="#ffffff"/>
<use data-text="1" xlink:href="#font_2_2" transform="matrix(9.9626,0,0,-9.963397,.8919983,131.5165)"/>
<use data-text="0" xlink:href="#font_2_1" transform="matrix(9.9626,0,0,-9.963397,5.8732988,131.5165)"/>
<path transform="matrix(1,0,0,-1.00008,16.793999,185.00377)" stroke-width="1.19553" stroke-linecap="butt" stroke-miterlimit="10" stroke-linejoin="miter" fill="none" stroke="#00aeef" d="M0 113.3855H255.12387"/>
<path transform="matrix(1,0,0,-1.00008,16.793999,185.00377)" stroke-width=".79701" stroke-linecap="butt" stroke-miterlimit="10" stroke-linejoin="miter" fill="none" stroke="#000000" d="M2.55112 113.3855H-2.55139"/>
<path transform="matrix(1,0,0,-1.00008,16.793999,185.00377)" d="M-16.8978 109.179H-4.94246V117.59198H-16.8978Z" fill="#ffffff"/>
<use data-text="2" xlink:href="#font_2_3" transform="matrix(9.9626,0,0,-9.963397,.8919983,74.819957)"/>
<use data-text="0" xlink:href="#font_2_1" transform="matrix(9.9626,0,0,-9.963397,5.8732988,74.819957)"/>
<path transform="matrix(1,0,0,-1.00008,16.793999,185.00377)" stroke-width="1.19553" stroke-linecap="butt" stroke-miterlimit="10" stroke-linejoin="miter" fill="none" stroke="#00aeef" d="M0 170.07825H255.12387"/>
<path transform="matrix(1,0,0,-1.00008,16.793999,185.00377)" stroke-width=".79701" stroke-linecap="butt" stroke-miterlimit="10" stroke-linejoin="miter" fill="none" stroke="#000000" d="M2.55112 170.07825H-2.55139"/>
<path transform="matrix(1,0,0,-1.00008,16.793999,185.00377)" d="M-16.8978 165.87177H-4.94246V174.28475H-16.8978Z" fill="#ffffff"/>
<use data-text="3" xlink:href="#font_2_4" transform="matrix(9.9626,0,0,-9.963397,.8919983,18.122422)"/>
<use data-text="0" xlink:href="#font_2_1" transform="matrix(9.9626,0,0,-9.963397,5.8732988,18.122422)"/>
<path transform="matrix(1,0,0,-1.00008,16.793999,185.00377)" stroke-width="1.19553" stroke-linecap="butt" stroke-miterlimit="10" stroke-linejoin="miter" fill="none" stroke="#b45482" d="M27.53406 168.23305C29.78584 155.2926 29.78584 155.2926 30.77399 150.39789 31.76215 145.50319 33.34679 138.72225 34.33493 134.80063 35.32307 130.87905 36.90773 125.34677 37.89587 122.13371 38.88402 118.92062 40.46869 114.32388 41.45683 111.64308 42.44498 108.96228 44.02963 105.08327 45.01778 102.81235 46.00592 100.54141 47.59058 97.22424 48.57872 95.27574 49.56686 93.32726 51.15154 90.45917 52.13968 88.76892 53.12782 87.07866 54.7125 84.57372 55.70064 83.09358 56.68878 81.61345 58.27344 79.40813 59.26158 78.10115 60.24973 76.79416 61.83438 74.83641 62.82254 73.67375 63.81068 72.5111 65.39532 70.76225 66.38347 69.72145 67.37161 68.68063 68.95627 67.10951 69.94441 66.17227 70.93256 65.23505 72.51723 63.81502 73.50537 62.9665 74.49352 62.11801 76.07817 60.8285 77.06631 60.0568 78.05446 59.28508 79.63911 58.10934 80.62726 57.4045 81.61542 56.69968 83.20007 55.62321 84.18822 54.97679 85.17636 54.33038 86.76102 53.3406 87.74916 52.74562 88.7373 52.15067 90.32198 51.23811 91.31012 50.68867 92.29826 50.13925 93.88292 49.2946 94.87106 48.7857 95.8592 48.27684 97.44386 47.49362 98.432 47.021 99.42015 46.54836 101.0048 45.81949 101.99295 45.37927 102.9811 44.93906 104.56577 44.25923 105.55391 43.8483 106.54205 43.43735 108.12671 42.80197 109.11485 42.41748 110.103 42.03299 111.68765 41.43777 112.6758 41.07713 113.66396 40.71652 115.24861 40.15718 116.23676 39.81831 117.2249 39.47943 118.80956 38.95364 119.7977 38.63472 120.78584 38.31581 122.37051 37.82045 123.35866 37.51965 124.34679 37.21887 125.93144 36.75105 126.91959 36.46687 127.90773 36.18271 129.4924 35.74036 130.48055 35.47153 131.46869 35.20271 133.05335 34.784 134.04149 34.52931 135.02964 34.27461 136.6143 33.87755 137.60245 33.63588 138.59059 33.3942 140.17525 33.01707 141.16339 32.78741 142.15154 32.55777 143.73619 32.19919 144.72435 31.98065 145.7125 31.76215 147.29715 31.42061 148.2853 31.21248 149.27344 31.00436 150.8581 30.6791 151.84624 30.48064 152.83438 30.2822 154.41904 29.97163 155.40718 29.78218 156.39533 29.59274 157.97998 29.29628 158.96813 29.11523 159.95627 28.93416 161.54093 28.6504 162.52907 28.47716 163.51723 28.30392 165.10189 28.03247 166.09003 27.86661 167.07817 27.70071 168.66284 27.4406 169.65099 27.28165 170.63913 27.12268 172.22379 26.87341 173.21193 26.7209 174.20008 26.5684 175.78475 26.32892 176.77289 26.1825 177.76103 26.03607 179.34569 25.80621 180.33383 25.66554 181.32198 25.52484 182.90662 25.30376 183.89476 25.16846 184.8829 25.03319 186.46758 24.82063 187.45572 24.69044 188.44387 24.56023 190.02852 24.35542 191.01667 24.23004 192.0048 24.10466 193.58946 23.9076 194.57762 23.78679 195.56577 23.66595 197.15042 23.47585 198.13857 23.35928 199.12671 23.2427 200.71137 23.0591 201.69951 22.94664 202.68766 22.83417 204.27233 22.65726 205.26047 22.5487 206.24861 22.44017 207.83329 22.26918 208.82143 22.16428 209.80957 22.05939 211.39423 21.89406 212.38237 21.79263 213.37052 21.69122 214.95516 21.5314 215.9433 21.43329 216.93144 21.33519 218.51612 21.1805 219.50426 21.08554 220.4924 20.99059 222.07706 20.84079 223.0652 20.74886 224.05335 20.65692 225.638 20.51196 226.62616 20.42291 227.6143 20.33385 229.19896 20.19333 230.1871 20.10698 231.17525 20.02063 232.7599 19.88431 233.74805 19.80057 234.73619 19.71686 236.32086 19.58472 237.309 19.50352 238.29715 19.42232 239.8818 19.29408 240.86995 19.21527 241.8581 19.13647 243.44275 19.0121 244.4309 18.93552 245.41904 18.85892 247.0037 18.7376 247.99184 18.6632 248.98 18.58878 250.56465 18.47144 251.5528 18.39917 252.54094 18.32692 255.11374 18.14243 253.24562 18.27637"/>
<path transform="matrix(-.1714,-.9852488,-.98517,.1714137,44.328069,16.757264)" d="M1.27522 0C-.31879 .31879-1.91284 .9564-3.8257 2.07224-1.91284 .6376-1.91284-.6376-3.8257-2.07224-1.91284-.9564-.31879-.31879 1.27522 0Z" fill="#b45482"/>
<path transform="matrix(-.1714,-.9852488,-.98517,.1714137,44.328069,16.757264)" stroke-width="1.19553" stroke-linecap="butt" stroke-linejoin="round" fill="none" stroke="#b45482" d="M1.27522 0C-.31879 .31879-1.91284 .9564-3.8257 2.07224-1.91284 .6376-1.91284-.6376-3.8257-2.07224-1.91284-.9564-.31879-.31879 1.27522 0Z"/>
<path transform="matrix(.9974,.07152572,.07152,-.9974798,270.0396,166.72594)" d="M1.27522 0C-.31879 .31879-1.91284 .9564-3.8257 2.07224-1.91284 .6376-1.91284-.6376-3.8257-2.07224-1.91284-.9564-.31879-.31879 1.27522 0Z" fill="#b45482"/>
<path transform="matrix(.9974,.07152572,.07152,-.9974798,270.0396,166.72594)" stroke-width="1.19553" stroke-linecap="butt" stroke-linejoin="round" fill="none" stroke="#b45482" d="M1.27522 0C-.31879 .31879-1.91284 .9564-3.8257 2.07224-1.91284 .6376-1.91284-.6376-3.8257-2.07224-1.91284-.9564-.31879-.31879 1.27522 0Z"/>
</svg>
