<svg xmlns="http://www.w3.org/2000/svg" xmlns:xlink="http://www.w3.org/1999/xlink" version="1.1" width="317" height="25" viewBox="0 0 317 25">
<defs>
<path id="font_1_121" d="M.45999146 .31976319C.45999146 .39982606 .45498658 .47988893 .41999818 .5539398 .37399293 .65000918 .2919922 .6660156 .25 .6660156 .18998719 .6660156 .116989139 .64001467 .07598877 .54693606 .04399109 .47789 .038986207 .39982606 .038986207 .31976319 .038986207 .24472046 .042999269 .15464783 .083999637 .07859802 .1269989-.0024719239 .19999695-.022460938 .24899292-.022460938 .30299378-.022460938 .3789978-.0014648438 .4229889 .09359741 .45498658 .16265869 .45999146 .2407074 .45999146 .31976319M.3769989 .3317871C.3769989 .25672914 .3769989 .18867493 .3659973 .12461853 .35099793 .029556275 .2939911-.00047302247 .24899292-.00047302247 .20999146-.00047302247 .15098572 .024551392 .1329956 .12062073 .12199402 .18066406 .12199402 .2727356 .12199402 .3317871 .12199402 .39582826 .12199402 .46188355 .12998963 .5159149 .14898682 .63500979 .22399903 .64401248 .24899292 .64401248 .28199769 .64401248 .34799195 .6259918 .36698915 .52693179 .3769989 .47088624 .3769989 .39482118 .3769989 .3317871Z"/>
<path id="font_1_82" d="M.4189911 0V.0309906H.3869934C.29699708 .0309906 .2939911 .041992189 .2939911 .07902527V.64012148C.2939911 .6640167 .2939911 .6660156 .2709961 .6660156 .20899964 .60227969 .12098694 .60227969 .08898926 .60227969V.57128909C.10899353 .57128909 .16799927 .57128909 .21998596 .5972748V.07902527C.21998596 .042999269 .21699524 .0309906 .1269989 .0309906H.09498596V0C.12998963 .0029907227 .21699524 .0029907227 .25698854 .0029907227 .29699708 .0029907227 .38398744 .0029907227 .4189911 0Z"/>
<path id="font_1_45" d="M.20298767 .0009918213C.20298767 .06498718 .1789856 .10598755 .13899231 .10598755 .10398865 .10598755 .085998538 .07899475 .085998538 .052993776 .085998538 .026992798 .102996829 0 .13899231 0 .1539917 0 .16799927 .005996704 .1789856 .015991211 .18099976-.06312561 .15299988-.12423706 .10899353-.17132569 .102996829-.17733765 .101989749-.17834473 .101989749-.18234253 .101989749-.18936157 .10699463-.19335938 .11199951-.19335938 .12399292-.19335938 .20298767-.114227298 .20298767 .0009918213Z"/>
</defs>
<path transform="matrix(1.00005,0,0,-1.00003,4.0255968,10.502834)" stroke-width=".79701" stroke-linecap="butt" stroke-miterlimit="10" stroke-linejoin="miter" fill="none" stroke="#000000" d="M0 0H310.3803"/>
<path transform="matrix(1.00005,0,0,-1.00003,314.42143,10.502834)" d="M1.0361 0C-.25902 .25902-1.55415 .77707-3.1083 1.68365-1.55415 .51805-1.55415-.51805-3.1083-1.68365-1.55415-.77707-.25902-.25902 1.0361 0Z"/>
<path transform="matrix(1.00005,0,0,-1.00003,314.42143,10.502834)" stroke-width=".79701" stroke-linecap="butt" stroke-linejoin="round" fill="none" stroke="#000000" d="M1.0361 0C-.25902 .25902-1.55415 .77707-3.1083 1.68365-1.55415 .51805-1.55415-.51805-3.1083-1.68365-1.55415-.77707-.25902-.25902 1.0361 0Z"/>
<path transform="matrix(1.00005,0,0,-1.00003,4.0255968,10.502834)" stroke-width=".79701" stroke-linecap="butt" stroke-miterlimit="10" stroke-linejoin="miter" fill="none" stroke="#000000" d="M0 8.50412V-1.41742"/>
<use data-text="0" xlink:href="#font_1_121" transform="matrix(9.963098,0,0,-9.962899,1.5344696,22.275189)"/>
<path transform="matrix(1.00005,0,0,-1.00003,4.0255968,10.502834)" stroke-width=".79701" stroke-linecap="butt" stroke-miterlimit="10" stroke-linejoin="miter" fill="none" stroke="#000000" d="M283.4681 8.50412V-1.41742"/>
<use data-text="1" xlink:href="#font_1_82" transform="matrix(9.963098,0,0,-9.962899,273.66908,22.275189)"/>
<use data-text="0" xlink:href="#font_1_121" transform="matrix(9.963098,0,0,-9.962899,278.6506,22.275189)"/>
<use data-text="," xlink:href="#font_1_45" transform="matrix(9.963098,0,0,-9.962899,283.63218,22.275189)"/>
<use data-text="0" xlink:href="#font_1_121" transform="matrix(9.963098,0,0,-9.962899,286.40193,22.275189)"/>
<use data-text="0" xlink:href="#font_1_121" transform="matrix(9.963098,0,0,-9.962899,291.38346,22.275189)"/>
<use data-text="0" xlink:href="#font_1_121" transform="matrix(9.963098,0,0,-9.962899,296.365,22.275189)"/>
</svg>
