<svg xmlns="http://www.w3.org/2000/svg" xmlns:xlink="http://www.w3.org/1999/xlink" version="1.1" width="110" height="80" viewBox="0 0 110 80">
<defs>
<path id="font_1_2" d="M.46199037 .33935548C.46699525 .36135865 .47698976 .3983612 .47698976 .40437318 .47698976 .42237855 .46299745 .43138124 .44799806 .43138124 .43598939 .43138124 .41799928 .42337037 .41099549 .4033661 .4079895 .3963623 .36099244 .205307 .35398866 .17930603 .34700013 .14929199 .34498597 .13128662 .34498597 .11328125 .34498597 .10227966 .34498597 .10028076 .34599305 .09527588 .32299806 .042266847 .29299928 .011245728 .2539978 .011245728 .17399597 .011245728 .17399597 .08526611 .17399597 .10227966 .17399597 .1342926 .1789856 .17329407 .22599793 .29634095 .23699951 .32633973 .24299622 .3403473 .24299622 .36035157 .24299622 .405365 .20999146 .4423828 .16099549 .4423828 .06599426 .4423828 .0289917 .29733277 .0289917 .28833009 .0289917 .27833558 .038986207 .27833558 .040985109 .27833558 .050994874 .27833558 .051986696 .28033448 .056991579 .29634095 .083999637 .38935853 .12298584 .42037965 .1579895 .42037965 .16699219 .42037965 .18299866 .41937257 .18299866 .38735963 .18299866 .36235047 .17199707 .3343506 .16499329 .31733705 .12098694 .1993103 .10899353 .1532898 .10899353 .11528015 .10899353 .024261475 .17599488-.0107421879 .25099183-.0107421879 .2679901-.0107421879 .31498719-.0107421879 .35499574 .059265138 .3809967-.0047454836 .44999696-.0107421879 .47999574-.0107421879 .5549927-.0107421879 .598999 .052261354 .625 .11227417 .6589966 .19030762 .69099429 .32434083 .69099429 .37236024 .69099429 .42736817 .6639862 .4423828 .6469879 .4423828 .621994 .4423828 .5970001 .41636659 .5970001 .3943634 .5970001 .38136292 .6029968 .3753662 .6119995 .36735536 .6230011 .35635377 .647995 .33035279 .647995 .28233338 .647995 .24832154 .61898806 .15029907 .59298709 .09927368 .5669861 .04626465 .5319977 .011245728 .48298646 .011245728 .43598939 .011245728 .40899659 .041259767 .40899659 .09828186 .40899659 .12628174 .41600038 .1572876 .41999818 .17129517L.46199037 .33935548Z"/>
<path id="font_1_1" d="M.2579956 .68333438C.2579956 .6843262 .2579956 .69433596 .24499512 .69433596 .22200012 .69433596 .14898682 .6863251 .12298584 .6843262 .114990238 .68333438 .10398865 .6823273 .10398865 .6633301 .10398865 .6523285 .11399841 .6523285 .1289978 .6523285 .1769867 .6523285 .17799378 .6433258 .17799378 .6353302L.1749878 .6153259 .04899597 .11526489C.04598999 .104263309 .04399109 .09725952 .04399109 .08125305 .04399109 .024246216 .08799744-.0107421879 .1349945-.0107421879 .16799927-.0107421879 .19299317 .009246826 .20999146 .04525757 .22799683 .08325195 .23999024 .14126587 .23999024 .14326477 .23999024 .15327454 .23098755 .15327454 .22799683 .15327454 .21798706 .15327454 .21699524 .14926148 .21398926 .13526917 .19699097 .070251468 .17799378 .011245728 .13798523 .011245728 .10798645 .011245728 .10798645 .043258668 .10798645 .057250978 .10798645 .08125305 .10899353 .086257938 .11399841 .10525513L.2579956 .68333438Z"/>
</defs>
<path transform="matrix(1,0,0,-1.00002,2.4940034,63.42695)" stroke-width="1.19553" stroke-linecap="butt" stroke-miterlimit="10" stroke-linejoin="miter" fill="none" stroke="#c64a86" d="M79.37135 45.35506 95.24554 61.22925"/>
<path transform="matrix(1,0,0,-1.00002,2.4940034,63.42695)" stroke-width="1.19553" stroke-linecap="butt" stroke-miterlimit="10" stroke-linejoin="miter" fill="none" stroke="#c64a86" d="M0 0V45.35506H79.37135V0ZM79.37135 45.35506"/>
<path transform="matrix(1,0,0,-1.00002,2.4940034,63.42695)" stroke-width="1.19553" stroke-linecap="butt" stroke-miterlimit="10" stroke-linejoin="miter" fill="none" stroke="#c64a86" d="M0 45.35506 15.87419 61.22925H95.24554V15.87419L79.37135 0"/>
<use data-text="w" xlink:href="#font_1_2" transform="matrix(9.9626,0,0,-9.962799,101.658008,27.019219)"/>
<use data-text="w" xlink:href="#font_1_2" transform="matrix(9.9626,0,0,-9.962799,94.717,59.626874)"/>
<use data-text="l" xlink:href="#font_1_1" transform="matrix(9.9626,0,0,-9.962799,40.595006,78.22525)"/>
</svg>
