<svg xmlns="http://www.w3.org/2000/svg" xmlns:xlink="http://www.w3.org/1999/xlink" version="1.1" width="126" height="155" viewBox="0 0 126 155">
<defs>
<path id="font_1_1" d="M.33399964 .30233766C.33999635 .32835389 .36299134 .42037965 .43299867 .42037965 .43798829 .42037965 .46199037 .42037965 .48298646 .40734864 .45498658 .402359 .43499757 .37734986 .43499757 .35334779 .43499757 .33735658 .44599916 .31835938 .47299195 .31835938 .49499513 .31835938 .5269928 .3363495 .5269928 .37635804 .5269928 .42837525 .46798707 .4423828 .43399049 .4423828 .37599183 .4423828 .34098817 .38935853 .32899476 .36634828 .3039856 .43237306 .25 .4423828 .22099304 .4423828 .116989139 .4423828 .05999756 .3133545 .05999756 .28834535 .05999756 .27833558 .069992069 .27833558 .07199097 .27833558 .07998657 .27833558 .08299255 .28033448 .084991458 .28933717 .11898804 .39535523 .18499756 .42037965 .21899414 .42037965 .23799134 .42037965 .272995 .4113617 .272995 .35334779 .272995 .32235719 .2559967 .25532533 .21899414 .11528015 .20298767 .053268434 .16799927 .011245728 .12399292 .011245728 .117996219 .011245728 .09498596 .011245728 .07398987 .024276734 .09899902 .029266358 .12098694 .05027771 .12098694 .07827759 .12098694 .105270389 .09899902 .11328125 .083999637 .11328125 .053985597 .11328125 .0289917 .08728027 .0289917 .055267335 .0289917 .009246826 .07899475-.0107421879 .12298584-.0107421879 .18899536-.0107421879 .22499085 .059280397 .22799683 .0652771 .23999024 .028274537 .27598573-.0107421879 .33599855-.0107421879 .43899537-.0107421879 .49598695 .118270877 .49598695 .14328003 .49598695 .1532898 .4869995 .1532898 .48399354 .1532898 .47499085 .1532898 .47299195 .14929199 .47099305 .14228821 .43798829 .03527832 .36999513 .011245728 .33799745 .011245728 .29899598 .011245728 .2829895 .043273927 .2829895 .07727051 .2829895 .09927368 .2889862 .121276859 .2999878 .16529846L.33399964 .30233766Z"/>
<path id="font_1_2" d="M.48599244 .38136292C.48999024 .39537049 .48999024 .39736939 .48999024 .40437318 .48999024 .42237855 .47599793 .43138124 .46099855 .43138124 .45098878 .43138124 .43499757 .42536927 .42599488 .41036988 .42399598 .405365 .41600038 .37435914 .4119873 .35635377 .40499879 .33035279 .397995 .30334474 .3919983 .27633668L.34700013 .09628296C.34298707 .08126831 .2999878 .011245728 .23399353 .011245728 .18299866 .011245728 .17199707 .055267335 .17199707 .0922699 .17199707 .1382904 .18899536 .20030213 .22299195 .28833009 .23899842 .3293457 .24299622 .3403473 .24299622 .36035157 .24299622 .405365 .21099854 .4423828 .16099549 .4423828 .06599426 .4423828 .0289917 .29733277 .0289917 .28833009 .0289917 .27833558 .038986207 .27833558 .040985109 .27833558 .050994874 .27833558 .051986696 .28033448 .056991579 .29634095 .083999637 .3903656 .12399292 .42037965 .1579895 .42037965 .1659851 .42037965 .18299866 .42037965 .18299866 .3883667 .18299866 .36335755 .17298889 .3373413 .1659851 .31834413 .12599182 .21231079 .10798645 .1552887 .10798645 .10827637 .10798645 .019256592 .17098999-.0107421879 .22999573-.0107421879 .2689972-.0107421879 .30299378 .0062561037 .33099366 .03425598 .31799317-.017745972 .30599977-.06674194 .2659912-.11973572 .23999024-.15385437 .20199585-.18309021 .1559906-.18309021 .14199829-.18309021 .09700012-.18005371 .07998657-.14074707 .09599304-.14074707 .10899353-.14074707 .12298584-.1287384 .1329956-.11973572 .14299011-.10673523 .14299011-.08773804 .14299011-.056747438 .115997318-.052734376 .10598755-.052734376 .08299255-.052734376 .049987794-.068740848 .049987794-.11773682 .049987794-.16796875 .09399414-.20507813 .1559906-.20507813 .25898744-.20507813 .3619995-.11373901 .3899994-.00074768069L.48599244 .38136292Z"/>
<path id="font_2_2" d="M.44898988 .20022583C.44898988 .3193512 .36698915 .41944886 .25898744 .41944886 .21099854 .41944886 .16799927 .40345765 .13198853 .36842347V.5637665C.1519928 .5577698 .18499756 .55078127 .21699524 .55078127 .33999635 .55078127 .4099884 .6417694 .4099884 .6547699 .4099884 .6607666 .40699769 .6657715 .3999939 .6657715 .39898683 .6657715 .39698792 .6657715 .3919983 .66278079 .37199403 .6537781 .32299806 .6337738 .2559967 .6337738 .21598816 .6337738 .16999817 .6407776 .12298584 .6617737 .114990238 .66477969 .11299133 .66477969 .11099243 .66477969 .100997928 .66477969 .100997928 .6567688 .100997928 .6407776V.34439088C.100997928 .32637025 .100997928 .31835938 .114990238 .31835938 .12199402 .31835938 .12399292 .32136537 .12799073 .32736207 .13899231 .3433838 .17599488 .39746095 .25698854 .39746095 .30899049 .39746095 .33399964 .35139466 .34199525 .33337403 .35798646 .29632569 .3600006 .25727845 .3600006 .20722962 .3600006 .17222595 .3600006 .11222839 .33599855 .07035828 .31199647 .031463624 .2749939 .0055389406 .22898865 .0055389406 .1559906 .0055389406 .09899902 .058380128 .08198547 .11723328 .084991458 .1162262 .08799744 .115234378 .09899902 .115234378 .13198853 .115234378 .14898682 .14022827 .14898682 .16423035 .14898682 .18823242 .13198853 .21322632 .09899902 .21322632 .084991458 .21322632 .049987794 .20622254 .049987794 .16023255 .049987794 .07434082 .11898804-.022460938 .23098755-.022460938 .34700013-.022460938 .44898988 .073349 .44898988 .20022583Z"/>
<path id="font_2_1" d="M.2899933 .35191346C.37199403 .37893678 .42999269 .4490509 .42999269 .52809146 .42999269 .6100464 .34199525 .6660156 .24598694 .6660156 .14498902 .6660156 .068984989 .60606387 .068984989 .53009036 .068984989 .49710084 .09098816 .47808839 .11999512 .47808839 .15098572 .47808839 .17098999 .50009158 .17098999 .5290985 .17098999 .57910159 .12399292 .57910159 .10899353 .57910159 .13999939 .62802127 .20599365 .64100649 .24198914 .64100649 .2829895 .64100649 .33799745 .6190338 .33799745 .5290985 .33799745 .51708987 .33599855 .45906068 .30999757 .4149933 .27999879 .36691285 .24598694 .36390687 .22099304 .36291505 .21299744 .36190797 .18899536 .35990907 .18199158 .35990907 .17399597 .35890199 .16699219 .35791017 .16699219 .3479004 .16699219 .33691407 .17399597 .33691407 .19099427 .33691407H.23498535C.31698609 .33691407 .35398866 .2686615 .35398866 .17037964 .35398866 .034469606 .2849884 .0055389406 .24099732 .0055389406 .19799805 .0055389406 .12298584 .022491456 .08799744 .08137512 .12298584 .07637024 .1539917 .09837341 .1539917 .1363678 .1539917 .17237854 .1269989 .19238281 .09799194 .19238281 .07398987 .19238281 .041992189 .17837525 .041992189 .1343689 .041992189 .043441774 .1349945-.022460938 .24398804-.022460938 .3659973-.022460938 .45700074 .06838989 .45700074 .17037964 .45700074 .252594 .3939972 .33088685 .2899933 .35191346Z"/>
</defs>
<path transform="matrix(1.00002,0,0,-1.00002,18.820084,118.98912)" stroke-width=".3985" stroke-linecap="butt" stroke-miterlimit="10" stroke-linejoin="miter" fill="none" stroke="#00aeef" d="M-17.00824-34.0165H85.04128M-17.00824-17.00824H85.04128M-17.00824 0H85.04128M-17.00824 17.00824H85.04128M-17.00824 34.0165H85.04128M-17.00824 51.02477H85.04128M-17.00824 68.03302H85.04128M-17.00824 85.04128H85.04128M-17.00824 102.04356H85.04128M-17.00824-34.0165V102.04953M0-34.0165V102.04953M17.00824-34.0165V102.04953M34.0165-34.0165V102.04953M51.02477-34.0165V102.04953M68.03302-34.0165V102.04953M85.0353-34.0165V102.04953M85.04128 102.04953"/>
<path transform="matrix(1.00002,0,0,-1.00002,18.820084,118.98912)" stroke-width=".79701" stroke-linecap="butt" stroke-miterlimit="10" stroke-linejoin="miter" fill="none" stroke="#000000" d="M-17.00824 0H95.51239"/>
<path transform="matrix(1.00002,0,0,-1.00002,114.33439,118.98912)" d="M1.0361 0C-.25902 .25902-1.55415 .77707-3.1083 1.68365-1.55415 .51805-1.55415-.51805-3.1083-1.68365-1.55415-.77707-.25902-.25902 1.0361 0Z"/>
<path transform="matrix(1.00002,0,0,-1.00002,114.33439,118.98912)" stroke-width=".79701" stroke-linecap="butt" stroke-linejoin="round" fill="none" stroke="#000000" d="M1.0361 0C-.25902 .25902-1.55415 .77707-3.1083 1.68365-1.55415 .51805-1.55415-.51805-3.1083-1.68365-1.55415-.77707-.25902-.25902 1.0361 0Z"/>
<use data-text="x" xlink:href="#font_1_1" transform="matrix(9.962799,0,0,-9.962799,119.4881,121.13416)"/>
<path transform="matrix(1.00002,0,0,-1.00002,18.820084,118.98912)" stroke-width=".79701" stroke-linecap="butt" stroke-miterlimit="10" stroke-linejoin="miter" fill="none" stroke="#000000" d="M0-34.0165V112.52066"/>
<path transform="matrix(0,-1.00002,-1.00002,-0,18.820084,6.4662096)" d="M1.0361 0C-.25902 .25902-1.55415 .77707-3.1083 1.68365-1.55415 .51805-1.55415-.51805-3.1083-1.68365-1.55415-.77707-.25902-.25902 1.0361 0Z"/>
<path transform="matrix(0,-1.00002,-1.00002,-0,18.820084,6.4662096)" stroke-width=".79701" stroke-linecap="butt" stroke-linejoin="round" fill="none" stroke="#000000" d="M1.0361 0C-.25902 .25902-1.55415 .77707-3.1083 1.68365-1.55415 .51805-1.55415-.51805-3.1083-1.68365-1.55415-.77707-.25902-.25902 1.0361 0Z"/>
<use data-text="y" xlink:href="#font_1_2" transform="matrix(9.962799,0,0,-9.962799,11.8509449,6.207863)"/>
<path transform="matrix(1.00002,0,0,-1.00002,18.820084,118.98912)" stroke-width="1.19553" stroke-linecap="butt" stroke-miterlimit="10" stroke-linejoin="miter" fill="none" stroke="#00aeef" d="M85.04128-34.0165V102.04953"/>
<path transform="matrix(1.00002,0,0,-1.00002,18.820084,118.98912)" stroke-width=".79701" stroke-linecap="butt" stroke-miterlimit="10" stroke-linejoin="miter" fill="none" stroke="#000000" d="M85.04128 2.65337V-2.44914"/>
<path transform="matrix(1.00002,0,0,-1.00002,18.820084,118.98912)" d="M81.5543-13.25319H88.52824V-4.84021H81.5543Z" fill="#ffffff"/>
<use data-text="5" xlink:href="#font_2_2" transform="matrix(9.962799,0,0,-9.962799,101.37274,131.24637)"/>
<path transform="matrix(1.00002,0,0,-1.00002,18.820084,118.98912)" stroke-width="1.19553" stroke-linecap="butt" stroke-miterlimit="10" stroke-linejoin="miter" fill="none" stroke="#00aeef" d="M-17.00824 51.02477H85.04128"/>
<path transform="matrix(1.00002,0,0,-1.00002,18.820084,118.98912)" stroke-width=".79701" stroke-linecap="butt" stroke-miterlimit="10" stroke-linejoin="miter" fill="none" stroke="#000000" d="M2.55112 51.02477H-2.55139"/>
<path transform="matrix(1.00002,0,0,-1.00002,18.820084,118.98912)" d="M-11.91638 46.81827H-4.94244V55.23125H-11.91638Z" fill="#ffffff"/>
<use data-text="3" xlink:href="#font_2_1" transform="matrix(9.962799,0,0,-9.962799,7.899864,71.173168)"/>
<path transform="matrix(1.00002,0,0,-1.00002,18.820084,118.98912)" stroke-width="1.19553" stroke-linecap="butt" stroke-miterlimit="10" stroke-linejoin="miter" fill="none" stroke="#cc0000" d="M-10.63205 100.20982C-9.96718 96.72537-9.96718 96.72537-9.577 94.7252-9.18681 92.72504-8.56108 89.56932-8.17088 87.63368-7.7807 85.69803-7.15495 82.64557-6.76477 80.77441-6.37457 78.90326-5.74886 75.95432-5.35866 74.1477-4.96848 72.34106-4.34274 69.49559-3.95255 67.75351-3.56236 66.01143-2.93663 63.26945-2.54645 61.59186-2.15625 59.91426-1.53052 57.27556-1.14034 55.66248-.75015 54.0494-.12442 51.51443 .26573 49.96588 .65591 48.41734 1.28166 45.98564 1.67184 44.50159 2.06203 43.01753 2.68776 40.68933 3.07796 39.26982 3.46814 37.8503 4.09387 35.62561 4.48405 34.27057 4.87425 32.91554 5.49997 30.79413 5.89017 29.50362 6.28035 28.2131 6.90608 26.19542 7.29628 24.96944 7.68646 23.74345 8.3122 21.829 8.7024 20.66756 9.09259 19.50609 9.7183 17.69539 10.1085 16.59845 10.49869 15.50153 11.12442 13.79405 11.5146 12.76163 11.9048 11.72919 12.53053 10.12529 12.92072 9.15735 13.3109 8.1894 13.93663 6.68874 14.32683 5.78532 14.71701 4.88191 15.34274 3.485 15.73293 2.6461 16.12312 1.80722 16.74886 .51352 17.13904-.26082 17.52922-1.03517 18.15495-2.22513 18.54517-2.93497 18.93535-3.64479 19.56108-4.73149 19.95126-5.37683 20.34146-6.02217 20.96718-7.00533 21.35738-7.58618 21.74756-8.16702 22.37329-9.0469 22.76347-9.56323 23.15367-10.07956 23.77942-10.85571 24.16959-11.30751 24.55978-11.75931 25.1855-12.43224 25.5757-12.8195 25.96587-13.20677 26.59161-13.77597 26.9818-14.09871 27.372-14.42145 27.99773-14.88736 28.38791-15.14561 28.77809-15.40387 29.40382-15.76627 29.79402-15.96002 30.1842-16.15376 30.80994-16.4129 31.20012-16.54213 31.59032-16.67136 32.21603-16.82678 32.60623-16.89146 32.99641-16.95613 33.62215-17.00807 34.01233-17.00824 34.40254-17.00842 35.02827-16.95706 35.41846-16.89275 35.80865-16.82845 36.43437-16.67357 36.82457-16.54472 37.21475-16.4159 37.84048-16.15753 38.23067-15.96417 38.62086-15.7708 39.2466-15.40894 39.63678-15.15108 40.02696-14.89323 40.6527-14.42809 41.0429-14.10571 41.43307-13.78333 42.0588-13.21445 42.44899-12.82755 42.83919-12.44064 43.4649-11.76851 43.8551-11.31711 44.2453-10.86569 44.87103-10.09006 45.26122-9.57414 45.65141-9.05821 46.27715-8.17908 46.66733-7.59863 47.05753-7.01817 47.68324-6.03552 48.07344-5.39058 48.46362-4.74562 49.08936-3.65973 49.47954-2.95026 49.86974-2.2408 50.49547-1.05115 50.88565-.27716 51.27583 .49681 51.90157 1.78969 52.29176 2.62819 52.68195 3.46667 53.30768 4.86308 53.69786 5.76611 54.08806 6.66914 54.71379 8.16902 55.10399 9.13657 55.49417 10.10413 56.1199 11.70749 56.5101 12.73956 56.90028 13.77165 57.52602 15.47853 57.9162 16.57509 58.3064 17.67166 58.93211 19.48183 59.32231 20.6429 59.7125 21.80394 60.33823 23.7176 60.72841 24.94324 61.1186 26.16885 61.74434 28.1862 62.13452 29.47635 62.5247 30.7665 63.15045 32.88715 63.54063 34.24176 63.93082 35.59637 64.55655 37.82031 64.94673 39.23944 65.33691 40.65858 65.96265 42.98624 66.35284 44.46992 66.74303 45.95363 67.36876 48.38475 67.75896 49.93294 68.14914 51.48112 68.77487 54.01553 69.16505 55.6282 69.55525 57.2409 70.18097 59.87881 70.57118 61.55605 70.96136 63.23325 71.5871 65.97467 71.97728 67.7164 72.36748 69.45813 72.99321 72.30307 73.38339 74.10928 73.77357 75.91551 74.3993 78.8637 74.7895 80.73445 75.17969 82.60521 75.80542 85.65714 76.1956 87.5924 76.5858 89.5277 77.21152 92.68286 77.60172 94.68265 77.9919 96.68242 79.00783 102.00542 78.65674 100.16571"/>
<path transform="matrix(-.18744375,-.9822597,-.9822597,.18744375,8.187841,18.777306)" d="M1.27522 0C-.31879 .31879-1.91284 .9564-3.8257 2.07224-1.91284 .6376-1.91284-.6376-3.8257-2.07224-1.91284-.9564-.31879-.31879 1.27522 0Z" fill="#cc0000"/>
<path transform="matrix(-.18744375,-.9822597,-.9822597,.18744375,8.187841,18.777306)" stroke-width="1.19553" stroke-linecap="butt" stroke-linejoin="round" fill="none" stroke="#cc0000" d="M1.27522 0C-.31879 .31879-1.91284 .9564-3.8257 2.07224-1.91284 .6376-1.91284-.6376-3.8257-2.07224-1.91284-.9564-.31879-.31879 1.27522 0Z"/>
<path transform="matrix(.18745376,-.9822597,-.9822597,-.18745376,97.47839,18.821412)" d="M1.27522 0C-.31879 .31879-1.91284 .9564-3.8257 2.07224-1.91284 .6376-1.91284-.6376-3.8257-2.07224-1.91284-.9564-.31879-.31879 1.27522 0Z" fill="#cc0000"/>
<path transform="matrix(.18745376,-.9822597,-.9822597,-.18745376,97.47839,18.821412)" stroke-width="1.19553" stroke-linecap="butt" stroke-linejoin="round" fill="none" stroke="#cc0000" d="M1.27522 0C-.31879 .31879-1.91284 .9564-3.8257 2.07224-1.91284 .6376-1.91284-.6376-3.8257-2.07224-1.91284-.9564-.31879-.31879 1.27522 0Z"/>
<path transform="matrix(1.00002,0,0,-1.00002,18.820084,118.98912)" stroke-width="1.19553" stroke-linecap="butt" stroke-miterlimit="10" stroke-linejoin="miter" fill="none" stroke="#0000cc" d="M-7.26675 100.21419C-6.70428 97.48524-6.70428 97.48524-6.34305 95.77083-5.98181 94.05643-5.40248 91.35132-5.04126 89.69223-4.68002 88.03313-4.10071 85.41699-3.73949 83.8132-3.37825 82.20941-2.79893 79.68173-2.4377 78.13322-2.07648 76.58472-1.49716 74.14577-1.13591 72.65257-.77469 71.15938-.19539 68.80916 .16582 67.37122 .52704 65.9333 1.10637 63.67157 1.46759 62.28894 1.82884 60.90633 2.40816 58.73354 2.76938 57.40623 3.13062 56.07892 3.70993 53.99457 4.07115 52.72256 4.43239 51.45058 5.0117 49.45517 5.37294 48.2385 5.73416 47.0218 6.31349 45.11488 6.67473 43.95348 7.03595 42.79205 7.61526 40.9739 7.9765 39.86775 8.33772 38.76161 8.91705 37.03194 9.27827 35.98111 9.63951 34.93028 10.21883 33.28955 10.58005 32.29402 10.94128 31.29851 11.5206 29.74626 11.88182 28.80602 12.24306 27.86575 12.82237 26.40225 13.18361 25.5173 13.54483 24.63235 14.12416 23.25754 14.4854 22.42792 14.84662 21.59828 15.42595 20.31215 15.78717 19.53783 16.1484 18.7635 16.72772 17.56612 17.08894 16.84706 17.45018 16.12802 18.0295 15.01912 18.39072 14.35538 18.75195 13.69162 19.33128 12.67168 19.69252 12.06325 20.05374 11.4548 20.63306 10.52333 20.9943 9.97018 21.35551 9.417 21.93483 8.57426 22.29607 8.0764 22.65729 7.57855 23.23662 6.82451 23.59784 6.38196 23.95909 5.93942 24.5384 5.27412 24.89963 4.88686 25.26086 4.49957 25.84018 3.92278 26.2014 3.59077 26.56264 3.25877 27.14195 2.77066 27.50319 2.49402 27.86441 2.21736 28.44374 1.81818 28.80498 1.59683 29.1662 1.3755 29.74551 1.06482 30.10675 .89871 30.46799 .73262 31.0473 .51044 31.40852 .39966 31.76976 .28886 32.34908 .1556 32.7103 .10016 33.07153 .04471 33.65086 .00015 34.0121 0 34.37332-.00015 34.95264 .04378 35.31387 .09886 35.6751 .15395 36.25441 .28665 36.61565 .39705 36.97687 .50745 37.5562 .72885 37.91742 .89456 38.27867 1.06027 38.85799 1.3704 39.21921 1.5914 39.58044 1.81238 40.15976 2.21098 40.52098 2.48727 40.88222 2.76358 41.46153 3.25113 41.82277 3.58273 42.18399 3.91434 42.76332 4.49037 43.12456 4.87724 43.48578 5.26411 44.06508 5.92888 44.42632 6.37106 44.78754 6.81325 45.36687 7.56673 45.72809 8.06421 46.08934 8.56172 46.66866 9.40387 47.02988 9.95668 47.39111 10.50949 47.97043 11.44038 48.33167 12.04845 48.69289 12.65652 49.2722 13.67593 49.63344 14.33928 49.99466 15.00262 50.57399 16.11078 50.93523 16.82944 51.29645 17.5481 51.87578 18.74492 52.237 19.51889 52.59824 20.29286 53.17755 21.5784 53.53877 22.40767 53.90001 23.23694 54.47932 24.61118 54.84055 25.49576 55.20178 26.38034 55.78111 27.8433 56.14235 28.78317 56.50357 29.72302 57.08289 31.2745 57.44412 32.26962 57.80534 33.26477 58.38466 34.90497 58.7459 35.95541 59.10712 37.00584 59.68645 38.73476 60.04767 39.84052 60.40892 40.94626 60.98824 42.76387 61.34946 43.92493 61.7107 45.08597 62.29001 46.9923 62.65123 48.20865 63.01247 49.42502 63.59178 51.42004 63.95302 52.6917 64.31424 53.96332 64.89357 56.04686 65.2548 57.37378 65.61603 58.7007 66.19534 60.87299 66.55658 62.25519 66.91782 63.63742 67.49713 65.89839 67.85835 67.33592 68.21959 68.77345 68.7989 71.12314 69.16013 72.61597 69.52136 74.10881 70.1007 76.54718 70.46193 78.09534 70.82315 79.6435 71.40247 82.17058 71.7637 83.77402 72.12492 85.37746 72.70424 87.99304 73.06548 89.65175 73.4267 91.31042 74.00603 94.01479 74.36725 95.72879 74.7285 97.44281 75.66904 102.00516 75.29091 100.17084"/>
<path transform="matrix(-.20186404,-.9793696,-.9793696,.20186404,11.553188,18.772942)" d="M1.27522 0C-.31879 .31879-1.91284 .9564-3.8257 2.07224-1.91284 .6376-1.91284-.6376-3.8257-2.07224-1.91284-.9564-.31879-.31879 1.27522 0Z" fill="#0000cc"/>
<path transform="matrix(-.20186404,-.9793696,-.9793696,.20186404,11.553188,18.772942)" stroke-width="1.19553" stroke-linecap="butt" stroke-linejoin="round" fill="none" stroke="#0000cc" d="M1.27522 0C-.31879 .31879-1.91284 .9564-3.8257 2.07224-1.91284 .6376-1.91284-.6376-3.8257-2.07224-1.91284-.9564-.31879-.31879 1.27522 0Z"/>
<path transform="matrix(.20189405,-.9793696,-.9793696,-.20189405,94.1125,18.816292)" d="M1.27522 0C-.31879 .31879-1.91284 .9564-3.8257 2.07224-1.91284 .6376-1.91284-.6376-3.8257-2.07224-1.91284-.9564-.31879-.31879 1.27522 0Z" fill="#0000cc"/>
<path transform="matrix(.20189405,-.9793696,-.9793696,-.20189405,94.1125,18.816292)" stroke-width="1.19553" stroke-linecap="butt" stroke-linejoin="round" fill="none" stroke="#0000cc" d="M1.27522 0C-.31879 .31879-1.91284 .9564-3.8257 2.07224-1.91284 .6376-1.91284-.6376-3.8257-2.07224-1.91284-.9564-.31879-.31879 1.27522 0Z"/>
<path transform="matrix(1.00002,0,0,-1.00002,18.820084,118.98912)" stroke-width="1.19553" stroke-linecap="butt" stroke-miterlimit="10" stroke-linejoin="miter" fill="none" stroke="#00b300" d="M-3.60237 100.22134C-3.15623 98.24539-3.15623 98.24539-2.82646 96.81673-2.4967 95.38805-1.96786 93.1339-1.63809 91.75131-1.30833 90.36871-.77951 88.18848-.44974 86.85197-.11998 85.51549 .40883 83.40916 .7386 82.11876 1.06836 80.82835 1.59718 78.79597 1.92696 77.55164 2.25671 76.3073 2.78555 74.3486 3.11533 73.15034 3.44508 71.95209 3.97392 70.06757 4.30368 68.9154 4.63345 67.76323 5.1623 65.95241 5.49205 64.8463 5.82182 63.74019 6.35066 62.00331 6.68042 60.9433 7.0102 59.88327 7.53903 58.22032 7.86879 57.20639 8.19856 56.19246 8.7274 54.60341 9.05716 53.63559 9.38693 52.66776 9.91577 51.15266 10.24553 50.23087 10.57529 49.3091 11.10413 47.86768 11.43388 46.99199 11.76364 46.1163 12.2925 44.74907 12.62225 43.91946 12.95201 43.08986 13.48087 41.79633 13.81062 41.01279 14.14038 40.22925 14.66924 39.00966 14.999 38.2722 15.32875 37.53474 15.8576 36.38905 16.18736 35.69771 16.51712 35.00633 17.04597 33.93459 17.37573 33.28932 17.70549 32.64404 18.23434 31.64618 18.5641 31.04701 18.89386 30.44781 19.4227 29.52393 19.75247 28.9708 20.08223 28.41768 20.61107 27.56747 20.94083 27.06044 21.27058 26.5534 21.79944 25.77736 22.1292 25.31642 22.45895 24.85548 22.98781 24.15314 23.31757 23.73825 23.64732 23.32336 24.17616 22.69498 24.50594 22.32619 24.8357 21.95738 25.36452 21.4029 25.69429 21.0802 26.02406 20.75749 26.55289 20.27692 26.88266 20.0003 27.21242 19.7237 27.74127 19.31708 28.07104 19.08652 28.4008 18.85596 28.92963 18.52303 29.2594 18.33856 29.58916 18.15408 30.118 17.89536 30.44775 17.75697 30.77753 17.61859 31.30637 17.43353 31.63612 17.3412 31.9659 17.24889 32.49474 17.13774 32.8245 17.09155 33.15427 17.04536 33.6831 17.00838 34.01286 17.00824 34.34264 17.0081 34.87146 17.0446 35.20122 17.09052 35.53099 17.13643 36.05983 17.2471 36.38959 17.33914 36.71935 17.43117 37.2482 17.61572 37.57796 17.75385 37.90771 17.89198 38.43657 18.15048 38.76633 18.33467 39.09608 18.51884 39.62494 18.85109 39.9547 19.08133 40.28445 19.31157 40.81331 19.7177 41.14307 19.99408 41.47282 20.27045 42.00168 20.75073 42.33144 21.07318 42.6612 21.39563 43.19005 21.94963 43.5198 22.31815 43.84956 22.68663 44.3784 23.3146 44.70816 23.72917 45.03792 24.14372 45.56677 24.8454 45.89653 25.30605 46.22629 25.7667 46.75514 26.5425 47.0849 27.04929 47.41466 27.55606 47.94351 28.40578 48.27327 28.9586 48.60303 29.51144 49.13188 30.43488 49.46164 31.03377 49.7914 31.63266 50.32024 32.63005 50.65001 33.27504 50.97977 33.92001 51.5086 34.99133 51.83838 35.68239 52.16814 36.37346 52.69698 37.51869 53.02675 38.25584 53.3565 38.99301 53.88533 40.21214 54.2151 40.99539 54.54486 41.77864 55.0737 43.0717 55.40347 43.90105 55.73323 44.7304 56.26207 46.09738 56.59183 46.97278 56.9216 47.84819 57.45044 49.28886 57.7802 50.21036 58.10997 51.13187 58.63881 52.64673 58.96857 53.6143 59.29834 54.5819 59.82718 56.17044 60.15694 57.18407 60.48671 58.19771 61.01555 59.86021 61.3453 60.91994 61.67508 61.97968 62.20392 63.7161 62.53368 64.82191 62.86343 65.92773 63.39227 67.73807 63.72203 68.88997 64.05179 70.04187 64.58064 71.92616 64.9104 73.12413 65.24016 74.3221 65.76901 76.28008 66.09877 77.52412 66.42853 78.76817 66.95738 80.80032 67.28714 82.09048 67.6169 83.38063 68.14574 85.48645 68.47551 86.82266 68.80527 88.15886 69.33412 90.33864 69.66388 91.72093 69.99364 93.10323 70.52249 95.35692 70.85225 96.78532 71.182 98.21371 72.04062 102.01581 71.62808 100.18892"/>
<path transform="matrix(-.22021441,-.97540959,-.97540959,.22021441,15.217642,18.765778)" d="M1.27522 0C-.31879 .31879-1.91284 .9564-3.8257 2.07224-1.91284 .6376-1.91284-.6376-3.8257-2.07224-1.91284-.9564-.31879-.31879 1.27522 0Z" fill="#00b300"/>
<path transform="matrix(-.22021441,-.97540959,-.97540959,.22021441,15.217642,18.765778)" stroke-width="1.19553" stroke-linecap="butt" stroke-linejoin="round" fill="none" stroke="#00b300" d="M1.27522 0C-.31879 .31879-1.91284 .9564-3.8257 2.07224-1.91284 .6376-1.91284-.6376-3.8257-2.07224-1.91284-.9564-.31879-.31879 1.27522 0Z"/>
<path transform="matrix(.2202644,-.97540959,-.97540959,-.2202644,90.4496,18.798195)" d="M1.27522 0C-.31879 .31879-1.91284 .9564-3.8257 2.07224-1.91284 .6376-1.91284-.6376-3.8257-2.07224-1.91284-.9564-.31879-.31879 1.27522 0Z" fill="#00b300"/>
<path transform="matrix(.2202644,-.97540959,-.97540959,-.2202644,90.4496,18.798195)" stroke-width="1.19553" stroke-linecap="butt" stroke-linejoin="round" fill="none" stroke="#00b300" d="M1.27522 0C-.31879 .31879-1.91284 .9564-3.8257 2.07224-1.91284 .6376-1.91284-.6376-3.8257-2.07224-1.91284-.9564-.31879-.31879 1.27522 0Z"/>
</svg>
