<svg xmlns="http://www.w3.org/2000/svg" xmlns:xlink="http://www.w3.org/1999/xlink" version="1.1" width="203" height="194" viewBox="0 0 203 194">
<defs>
<path id="font_1_4" d="M.33399964 .30233766C.33999635 .32835389 .36299134 .42037965 .43299867 .42037965 .43798829 .42037965 .46199037 .42037965 .48298646 .40734864 .45498658 .402359 .43499757 .37734986 .43499757 .35334779 .43499757 .33735658 .44599916 .31835938 .47299195 .31835938 .49499513 .31835938 .5269928 .3363495 .5269928 .37635804 .5269928 .42837525 .46798707 .4423828 .43399049 .4423828 .37599183 .4423828 .34098817 .38935853 .32899476 .36634828 .3039856 .43237306 .25 .4423828 .22099304 .4423828 .116989139 .4423828 .05999756 .3133545 .05999756 .28834535 .05999756 .27833558 .069992069 .27833558 .07199097 .27833558 .07998657 .27833558 .08299255 .28033448 .084991458 .28933717 .11898804 .39535523 .18499756 .42037965 .21899414 .42037965 .23799134 .42037965 .272995 .4113617 .272995 .35334779 .272995 .32235719 .2559967 .25532533 .21899414 .11528015 .20298767 .053268434 .16799927 .011245728 .12399292 .011245728 .117996219 .011245728 .09498596 .011245728 .07398987 .024276734 .09899902 .029266358 .12098694 .05027771 .12098694 .07827759 .12098694 .105270389 .09899902 .11328125 .083999637 .11328125 .053985597 .11328125 .0289917 .08728027 .0289917 .055267335 .0289917 .009246826 .07899475-.0107421879 .12298584-.0107421879 .18899536-.0107421879 .22499085 .059280397 .22799683 .0652771 .23999024 .028274537 .27598573-.0107421879 .33599855-.0107421879 .43899537-.0107421879 .49598695 .118270877 .49598695 .14328003 .49598695 .1532898 .4869995 .1532898 .48399354 .1532898 .47499085 .1532898 .47299195 .14929199 .47099305 .14228821 .43798829 .03527832 .36999513 .011245728 .33799745 .011245728 .29899598 .011245728 .2829895 .043273927 .2829895 .07727051 .2829895 .09927368 .2889862 .121276859 .2999878 .16529846L.33399964 .30233766Z"/>
<path id="font_1_5" d="M.48599244 .38136292C.48999024 .39537049 .48999024 .39736939 .48999024 .40437318 .48999024 .42237855 .47599793 .43138124 .46099855 .43138124 .45098878 .43138124 .43499757 .42536927 .42599488 .41036988 .42399598 .405365 .41600038 .37435914 .4119873 .35635377 .40499879 .33035279 .397995 .30334474 .3919983 .27633668L.34700013 .09628296C.34298707 .08126831 .2999878 .011245728 .23399353 .011245728 .18299866 .011245728 .17199707 .055267335 .17199707 .0922699 .17199707 .1382904 .18899536 .20030213 .22299195 .28833009 .23899842 .3293457 .24299622 .3403473 .24299622 .36035157 .24299622 .405365 .21099854 .4423828 .16099549 .4423828 .06599426 .4423828 .0289917 .29733277 .0289917 .28833009 .0289917 .27833558 .038986207 .27833558 .040985109 .27833558 .050994874 .27833558 .051986696 .28033448 .056991579 .29634095 .083999637 .3903656 .12399292 .42037965 .1579895 .42037965 .1659851 .42037965 .18299866 .42037965 .18299866 .3883667 .18299866 .36335755 .17298889 .3373413 .1659851 .31834413 .12599182 .21231079 .10798645 .1552887 .10798645 .10827637 .10798645 .019256592 .17098999-.0107421879 .22999573-.0107421879 .2689972-.0107421879 .30299378 .0062561037 .33099366 .03425598 .31799317-.017745972 .30599977-.06674194 .2659912-.11973572 .23999024-.15385437 .20199585-.18309021 .1559906-.18309021 .14199829-.18309021 .09700012-.18005371 .07998657-.14074707 .09599304-.14074707 .10899353-.14074707 .12298584-.1287384 .1329956-.11973572 .14299011-.10673523 .14299011-.08773804 .14299011-.056747438 .115997318-.052734376 .10598755-.052734376 .08299255-.052734376 .049987794-.068740848 .049987794-.11773682 .049987794-.16796875 .09399414-.20507813 .1559906-.20507813 .25898744-.20507813 .3619995-.11373901 .3899994-.00074768069L.48599244 .38136292Z"/>
<path id="font_2_1" d="M.6589966 .23046875C.6759949 .23046875 .69400027 .23046875 .69400027 .25045777 .69400027 .27046205 .6759949 .27046205 .6589966 .27046205H.117996219C.100997928 .27046205 .08299255 .27046205 .08299255 .25045777 .08299255 .23046875 .100997928 .23046875 .117996219 .23046875H.6589966Z"/>
<path id="font_3_3" d="M.44898988 .20022583C.44898988 .3193512 .36698915 .41944886 .25898744 .41944886 .21099854 .41944886 .16799927 .40345765 .13198853 .36842347V.5637665C.1519928 .5577698 .18499756 .55078127 .21699524 .55078127 .33999635 .55078127 .4099884 .6417694 .4099884 .6547699 .4099884 .6607666 .40699769 .6657715 .3999939 .6657715 .39898683 .6657715 .39698792 .6657715 .3919983 .66278079 .37199403 .6537781 .32299806 .6337738 .2559967 .6337738 .21598816 .6337738 .16999817 .6407776 .12298584 .6617737 .114990238 .66477969 .11299133 .66477969 .11099243 .66477969 .100997928 .66477969 .100997928 .6567688 .100997928 .6407776V.34439088C.100997928 .32637025 .100997928 .31835938 .114990238 .31835938 .12199402 .31835938 .12399292 .32136537 .12799073 .32736207 .13899231 .3433838 .17599488 .39746095 .25698854 .39746095 .30899049 .39746095 .33399964 .35139466 .34199525 .33337403 .35798646 .29632569 .3600006 .25727845 .3600006 .20722962 .3600006 .17222595 .3600006 .11222839 .33599855 .07035828 .31199647 .031463624 .2749939 .0055389406 .22898865 .0055389406 .1559906 .0055389406 .09899902 .058380128 .08198547 .11723328 .084991458 .1162262 .08799744 .115234378 .09899902 .115234378 .13198853 .115234378 .14898682 .14022827 .14898682 .16423035 .14898682 .18823242 .13198853 .21322632 .09899902 .21322632 .084991458 .21322632 .049987794 .20622254 .049987794 .16023255 .049987794 .07434082 .11898804-.022460938 .23098755-.022460938 .34700013-.022460938 .44898988 .073349 .44898988 .20022583Z"/>
<path id="font_3_2" d="M.2939911 .64004519C.2939911 .66400149 .2939911 .6660156 .2709961 .6660156 .20899964 .60227969 .12098694 .60227969 .08898926 .60227969V.57128909C.10899353 .57128909 .16799927 .57128909 .21998596 .5972748V.07902527C.21998596 .042999269 .21699524 .0309906 .1269989 .0309906H.09498596V0C.12998963 .0029907227 .21699524 .0029907227 .25698854 .0029907227 .29699708 .0029907227 .38398744 .0029907227 .4189911 0V.0309906H.3869934C.29699708 .0309906 .2939911 .041992189 .2939911 .07902527V.64004519Z"/>
<path id="font_3_1" d="M.45999146 .31976319C.45999146 .39982606 .45498658 .47988893 .41999818 .5539398 .37399293 .65000918 .2919922 .6660156 .25 .6660156 .18998719 .6660156 .116989139 .64001467 .07598877 .54693606 .04399109 .47789 .038986207 .39982606 .038986207 .31976319 .038986207 .24472046 .042999269 .15464783 .083999637 .07859802 .1269989-.0024719239 .19999695-.022460938 .24899292-.022460938 .30299378-.022460938 .3789978-.0014648438 .4229889 .09359741 .45498658 .16265869 .45999146 .2407074 .45999146 .31976319M.24899292-.00047302247C.20999146-.00047302247 .15098572 .024551392 .1329956 .12062073 .12199402 .18066406 .12199402 .2727356 .12199402 .3317871 .12199402 .39582826 .12199402 .46188355 .12998963 .5159149 .14898682 .63500979 .22399903 .64401248 .24899292 .64401248 .28199769 .64401248 .34799195 .6259918 .36698915 .52693179 .3769989 .47088624 .3769989 .39482118 .3769989 .3317871 .3769989 .25672914 .3769989 .18867493 .3659973 .12461853 .35099793 .029556275 .2939911-.00047302247 .24899292-.00047302247Z"/>
<path id="font_1_1" d="M.1789856 .114868167C.13899231 .047973634 .099990848 .033981325 .055999757 .0309906 .04399109 .02999878 .034988405 .02999878 .034988405 .010986328 .034988405 .004989624 .039993287 0 .04798889 0 .07499695 0 .10598755 .0029907227 .13398743 .0029907227 .16699219 .0029907227 .20199585 0 .23399353 0 .23999024 0 .25299073 0 .25299073 .018997193 .25299073 .02999878 .24398804 .0309906 .23699951 .0309906 .21398926 .032989503 .18998719 .04096985 .18998719 .06593323 .18998719 .077926639 .19599915 .088897708 .20399475 .102890018L.27999879 .23068238H.5309906C.5329895 .2097168 .5469971 .07392883 .5469971 .063949588 .5469971 .033981325 .49499513 .0309906 .47499085 .0309906 .46099855 .0309906 .45098878 .0309906 .45098878 .010986328 .45098878 0 .46299745 0 .46499635 0 .5059967 0 .548996 .0029907227 .58999636 .0029907227 .61499026 .0029907227 .6779938 0 .7029877 0 .70899966 0 .72099307 0 .72099307 .019989014 .72099307 .0309906 .71099856 .0309906 .69799807 .0309906 .6359863 .0309906 .6359863 .037979127 .6329956 .06694031L.57199099 .691803C.56999209 .71180728 .56999209 .7158203 .5529938 .7158203 .5369873 .7158203 .5329895 .7088165 .5269928 .69880679L.1789856 .114868167M.29899598 .26168824 .49598695 .5917816 .5279999 .26168824H.29899598Z"/>
<path id="font_1_2" d="M.1599884 .07795715C.1499939 .038986207 .147995 .0309906 .068984989 .0309906 .051986696 .0309906 .041992189 .0309906 .041992189 .010986328 .041992189 0 .050994874 0 .068984989 0H.42599488C.58399966 0 .70199587 .11791992 .70199587 .21585083 .70199587 .28778077 .6439972 .3457489 .5469971 .35673524 .651001 .37573243 .7559967 .44970704 .7559967 .5446625 .7559967 .6186218 .6899872 .6826172 .56999209 .6826172H.23399353C.21499634 .6826172 .20498657 .6826172 .20498657 .6626129 .20498657 .6516113 .21398926 .6516113 .23298645 .6516113 .23498535 .6516113 .2539978 .6516113 .2709961 .6496124 .2889862 .6476135 .2979889 .64660647 .2979889 .6336212 .2979889 .6296234 .29699708 .62661746 .2939911 .614624L.1599884 .07795715M.31098939 .36573792 .37298585 .6136322C.38198854 .64860537 .38398744 .6516113 .4269867 .6516113H.55599978C.6439972 .6516113 .6649933 .5926361 .6649933 .5486603 .6649933 .46069337 .57899478 .36573792 .45700074 .36573792H.31098939M.2659912 .0309906C.2519989 .0309906 .25 .0309906 .24398804 .03199768 .23399353 .032989503 .23098755 .033996583 .23098755 .04197693 .23098755 .04498291 .23098755 .04698181 .23599243 .064971927L.30499269 .34375H.49398805C.58999636 .34375 .60899356 .2698059 .60899356 .22683716 .60899356 .12791443 .519989 .0309906 .4019928 .0309906H.2659912Z"/>
<path id="font_1_3" d="M.7599945 .69506838C.7599945 .69807437 .7579956 .7050781 .7489929 .7050781 .74598696 .7050781 .7449951 .70407107 .73399356 .69306948L.6639862 .61602786C.6549988 .6300354 .60899356 .7050781 .49798585 .7050781 .2749939 .7050781 .049987794 .48391725 .049987794 .25172425 .049987794 .08659363 .16799927-.022460938 .32099916-.022460938 .4079895-.022460938 .48399354 .017532349 .5369873 .063583377 .6299896 .14564514 .6469879 .2367096 .6469879 .23971558 .6469879 .24972534 .6369934 .24972534 .6349945 .24972534 .6289978 .24972534 .6239929 .24772644 .621994 .23971558 .61299136 .21069336 .58999636 .13963318 .5209961 .081588748 .45199586 .025543213 .3889923 .008529663 .33699037 .008529663 .24699402 .008529663 .14099121 .060577394 .14099121 .21670532 .14099121 .27374269 .1619873 .43588258 .2619934 .55296328 .32299806 .62402346 .4169922 .67407229 .5059967 .67407229 .60798647 .67407229 .6669922 .5970001 .6669922 .48091126 .6669922 .44088746 .6639862 .43988038 .6639862 .4298706 .6639862 .41986085 .6749878 .41986085 .67900088 .41986085 .69200137 .41986085 .69200137 .42185975 .69699099 .43988038L.7599945 .69506838Z"/>
</defs>
<path transform="matrix(1.00002,0,0,-1.00002,94.107639,103.68082)" stroke-width=".3985" stroke-linecap="butt" stroke-miterlimit="10" stroke-linejoin="miter" fill="none" stroke="#00aeef" d="M-85.04128-85.04128H85.04128M-85.04128-76.53716H85.04128M-85.04128-68.03302H85.04128M-85.04128-59.52888H85.04128M-85.04128-51.02477H85.04128M-85.04128-42.52063H85.04128M-85.04128-34.0165H85.04128M-85.04128-25.51237H85.04128M-85.04128-17.00824H85.04128M-85.04128-8.50412H85.04128M-85.04128 0H85.04128M-85.04128 8.50412H85.04128M-85.04128 17.00824H85.04128M-85.04128 25.51237H85.04128M-85.04128 34.0165H85.04128M-85.04128 42.52063H85.04128M-85.04128 51.02477H85.04128M-85.04128 59.52888H85.04128M-85.04128 68.03302H85.04128M-85.04128 76.53716H85.04128M-85.04128 85.0383H85.04128M-85.04128-85.04128V85.04128M-76.53716-85.04128V85.04128M-68.03302-85.04128V85.04128M-59.52888-85.04128V85.04128M-51.02477-85.04128V85.04128M-42.52063-85.04128V85.04128M-34.0165-85.04128V85.04128M-25.51237-85.04128V85.04128M-17.00824-85.04128V85.04128M-8.50412-85.04128V85.04128M0-85.04128V85.04128M8.50412-85.04128V85.04128M17.00824-85.04128V85.04128M25.51237-85.04128V85.04128M34.0165-85.04128V85.04128M42.52063-85.04128V85.04128M51.02477-85.04128V85.04128M59.52888-85.04128V85.04128M68.03302-85.04128V85.04128M76.53716-85.04128V85.04128M85.0383-85.04128V85.04128M85.04128 85.04128"/>
<path transform="matrix(1.00002,0,0,-1.00002,94.107639,103.68082)" stroke-width=".79701" stroke-linecap="butt" stroke-miterlimit="10" stroke-linejoin="miter" fill="none" stroke="#000000" d="M-85.04128 0H97.21333"/>
<path transform="matrix(1.00002,0,0,-1.00002,191.3229,103.68082)" d="M1.0361 0C-.25902 .25902-1.55415 .77707-3.1083 1.68365-1.55415 .51805-1.55415-.51805-3.1083-1.68365-1.55415-.77707-.25902-.25902 1.0361 0Z"/>
<path transform="matrix(1.00002,0,0,-1.00002,191.3229,103.68082)" stroke-width=".79701" stroke-linecap="butt" stroke-linejoin="round" fill="none" stroke="#000000" d="M1.0361 0C-.25902 .25902-1.55415 .77707-3.1083 1.68365-1.55415 .51805-1.55415-.51805-3.1083-1.68365-1.55415-.77707-.25902-.25902 1.0361 0Z"/>
<use data-text="x" xlink:href="#font_1_4" transform="matrix(9.962799,0,0,-9.962799,196.47669,105.82586)"/>
<path transform="matrix(1.00002,0,0,-1.00002,94.107639,103.68082)" stroke-width=".79701" stroke-linecap="butt" stroke-miterlimit="10" stroke-linejoin="miter" fill="none" stroke="#000000" d="M0-85.04128V97.21333"/>
<path transform="matrix(0,-1.00002,-1.00002,-0,94.107639,6.465538)" d="M1.0361 0C-.25902 .25902-1.55415 .77707-3.1083 1.68365-1.55415 .51805-1.55415-.51805-3.1083-1.68365-1.55415-.77707-.25902-.25902 1.0361 0Z"/>
<path transform="matrix(0,-1.00002,-1.00002,-0,94.107639,6.465538)" stroke-width=".79701" stroke-linecap="butt" stroke-linejoin="round" fill="none" stroke="#000000" d="M1.0361 0C-.25902 .25902-1.55415 .77707-3.1083 1.68365-1.55415 .51805-1.55415-.51805-3.1083-1.68365-1.55415-.77707-.25902-.25902 1.0361 0Z"/>
<use data-text="y" xlink:href="#font_1_5" transform="matrix(9.962799,0,0,-9.962799,87.1385,6.2068636)"/>
<path transform="matrix(1.00002,0,0,-1.00002,94.107639,103.68082)" stroke-width="1.19553" stroke-linecap="butt" stroke-miterlimit="10" stroke-linejoin="miter" fill="none" stroke="#00aeef" d="M-42.52063-85.04128V85.04128"/>
<path transform="matrix(1.00002,0,0,-1.00002,94.107639,103.68082)" stroke-width="1.19553" stroke-linecap="butt" stroke-miterlimit="10" stroke-linejoin="miter" fill="none" stroke="#00aeef" d="M-85.04128-42.52063H85.04128"/>
<path transform="matrix(1.00002,0,0,-1.00002,94.107639,103.68082)" stroke-width=".3985" stroke-linecap="butt" stroke-miterlimit="10" stroke-linejoin="miter" fill="none" stroke="#000000" d="M-42.52063 1.27554V-1.27568"/>
<path transform="matrix(1.00002,0,0,-1.00002,94.107639,103.68082)" d="M-49.88202-12.71071H-35.15924V-3.4674798H-49.88202Z" fill="#ffffff"/>
<use data-text="&#x2212;" xlink:href="#font_2_1" transform="matrix(9.962799,0,0,-9.962799,45.220659,114.56503)"/>
<use data-text="5" xlink:href="#font_3_3" transform="matrix(9.962799,0,0,-9.962799,52.969804,114.56503)"/>
<path transform="matrix(1.00002,0,0,-1.00002,94.107639,103.68082)" stroke-width=".3985" stroke-linecap="butt" stroke-miterlimit="10" stroke-linejoin="miter" fill="none" stroke="#000000" d="M1.27554-42.52063H-1.27568"/>
<path transform="matrix(1.00002,0,0,-1.00002,94.107639,103.68082)" d="M-18.19026-47.14224H-3.4674798V-37.89901H-18.19026Z" fill="#ffffff"/>
<use data-text="&#x2212;" xlink:href="#font_2_1" transform="matrix(9.962799,0,0,-9.962799,76.91329,148.99773)"/>
<use data-text="5" xlink:href="#font_3_3" transform="matrix(9.962799,0,0,-9.962799,84.66244,148.99773)"/>
<path transform="matrix(1.00002,0,0,-1.00002,94.107639,103.68082)" stroke-width="1.19553" stroke-linecap="butt" stroke-miterlimit="10" stroke-linejoin="miter" fill="none" stroke="#00aeef" d="M42.52063-85.04128V85.04128"/>
<path transform="matrix(1.00002,0,0,-1.00002,94.107639,103.68082)" stroke-width="1.19553" stroke-linecap="butt" stroke-miterlimit="10" stroke-linejoin="miter" fill="none" stroke="#00aeef" d="M-85.04128 42.52063H85.04128"/>
<path transform="matrix(1.00002,0,0,-1.00002,94.107639,103.68082)" stroke-width=".3985" stroke-linecap="butt" stroke-miterlimit="10" stroke-linejoin="miter" fill="none" stroke="#000000" d="M42.52063 1.27554V-1.27568"/>
<path transform="matrix(1.00002,0,0,-1.00002,94.107639,103.68082)" d="M39.03366-11.88048H46.0076V-3.4674998H39.03366Z" fill="#ffffff"/>
<use data-text="5" xlink:href="#font_3_3" transform="matrix(9.962799,0,0,-9.962799,134.13843,114.56503)"/>
<path transform="matrix(1.00002,0,0,-1.00002,94.107639,103.68082)" stroke-width=".3985" stroke-linecap="butt" stroke-miterlimit="10" stroke-linejoin="miter" fill="none" stroke="#000000" d="M1.27554 42.52063H-1.27568"/>
<path transform="matrix(1.00002,0,0,-1.00002,94.107639,103.68082)" d="M-10.44142 38.31413H-3.4674798V46.727109H-10.44142Z" fill="#ffffff"/>
<use data-text="5" xlink:href="#font_3_3" transform="matrix(9.962799,0,0,-9.962799,84.662448,64.370029)"/>
<path transform="matrix(1.00002,0,0,-1.00002,94.107639,103.68082)" stroke-width="1.19553" stroke-linecap="butt" stroke-miterlimit="10" stroke-linejoin="miter" fill="none" stroke="#00aeef" d="M-85.04128-85.04128V85.04128"/>
<path transform="matrix(1.00002,0,0,-1.00002,94.107639,103.68082)" stroke-width="1.19553" stroke-linecap="butt" stroke-miterlimit="10" stroke-linejoin="miter" fill="none" stroke="#00aeef" d="M-85.04128-85.04128H85.04128"/>
<path transform="matrix(1.00002,0,0,-1.00002,94.107639,103.68082)" stroke-width=".3985" stroke-linecap="butt" stroke-miterlimit="10" stroke-linejoin="miter" fill="none" stroke="#000000" d="M-85.04128 1.27554V-1.27568"/>
<path transform="matrix(1.00002,0,0,-1.00002,94.107639,103.68082)" d="M-94.89337-12.71071H-75.18917V-3.4674798H-94.89337Z" fill="#ffffff"/>
<use data-text="&#x2212;" xlink:href="#font_2_1" transform="matrix(9.962799,0,0,-9.962799,.2087555,114.56503)"/>
<use data-text="1" xlink:href="#font_3_2" transform="matrix(9.962799,0,0,-9.962799,7.957901,114.56503)"/>
<use data-text="0" xlink:href="#font_3_1" transform="matrix(9.962799,0,0,-9.962799,12.939285,114.56503)"/>
<path transform="matrix(1.00002,0,0,-1.00002,94.107639,103.68082)" stroke-width=".3985" stroke-linecap="butt" stroke-miterlimit="10" stroke-linejoin="miter" fill="none" stroke="#000000" d="M1.27554-85.04128H-1.27568"/>
<path transform="matrix(1.00002,0,0,-1.00002,94.107639,103.68082)" d="M-23.17168-89.66289H-3.4674798V-80.419658H-23.17168Z" fill="#ffffff"/>
<use data-text="&#x2212;" xlink:href="#font_2_1" transform="matrix(9.962799,0,0,-9.962799,71.93219,191.51859)"/>
<use data-text="1" xlink:href="#font_3_2" transform="matrix(9.962799,0,0,-9.962799,79.681339,191.51859)"/>
<use data-text="0" xlink:href="#font_3_1" transform="matrix(9.962799,0,0,-9.962799,84.66272,191.51859)"/>
<path transform="matrix(1.00002,0,0,-1.00002,94.107639,103.68082)" stroke-width="1.19553" stroke-linecap="butt" stroke-miterlimit="10" stroke-linejoin="miter" fill="none" stroke="#00aeef" d="M85.04128-85.04128V85.04128"/>
<path transform="matrix(1.00002,0,0,-1.00002,94.107639,103.68082)" stroke-width="1.19553" stroke-linecap="butt" stroke-miterlimit="10" stroke-linejoin="miter" fill="none" stroke="#00aeef" d="M-85.04128 85.04128H85.04128"/>
<path transform="matrix(1.00002,0,0,-1.00002,94.107639,103.68082)" stroke-width=".3985" stroke-linecap="butt" stroke-miterlimit="10" stroke-linejoin="miter" fill="none" stroke="#000000" d="M85.04128 1.27554V-1.27568"/>
<path transform="matrix(1.00002,0,0,-1.00002,94.107639,103.68082)" d="M79.0636-11.88048H91.018939V-3.4674998H79.0636Z" fill="#ffffff"/>
<use data-text="1" xlink:href="#font_3_2" transform="matrix(9.962799,0,0,-9.962799,174.16924,114.56503)"/>
<use data-text="0" xlink:href="#font_3_1" transform="matrix(9.962799,0,0,-9.962799,179.15062,114.56503)"/>
<path transform="matrix(1.00002,0,0,-1.00002,94.107639,103.68082)" stroke-width=".3985" stroke-linecap="butt" stroke-miterlimit="10" stroke-linejoin="miter" fill="none" stroke="#000000" d="M1.27554 85.04128H-1.27568"/>
<path transform="matrix(1.00002,0,0,-1.00002,94.107639,103.68082)" d="M-15.42284 80.83478H-3.4674998V89.24776H-15.42284Z" fill="#ffffff"/>
<use data-text="1" xlink:href="#font_3_2" transform="matrix(9.962799,0,0,-9.962799,79.68034,21.848176)"/>
<use data-text="0" xlink:href="#font_3_1" transform="matrix(9.962799,0,0,-9.962799,84.66173,21.848176)"/>
<path transform="matrix(1.00002,0,0,-1.00002,94.107639,103.68082)" stroke-width="1.19553" stroke-linecap="butt" stroke-miterlimit="10" stroke-linejoin="miter" fill="none" stroke="#0000cc" d="M8.5043 51.02591 59.53021 17.0086"/>
<path transform="matrix(1.00002,0,0,-1.00002,94.107639,103.68082)" d="M10.63033 51.02591C10.63033 52.20009 9.67848 53.15193 8.5043 53.15193 7.33011 53.15193 6.37827 52.20009 6.37827 51.02591 6.37827 49.85172 7.33011 48.89987 8.5043 48.89987 9.67848 48.89987 10.63033 49.85172 10.63033 51.02591ZM8.5043 51.02591" fill="#0000cc"/>
<path transform="matrix(1.00002,0,0,-1.00002,94.107639,103.68082)" stroke-width=".3985" stroke-linecap="butt" stroke-miterlimit="10" stroke-linejoin="miter" fill="none" stroke="#0000cc" d="M10.63033 51.02591C10.63033 52.20009 9.67848 53.15193 8.5043 53.15193 7.33011 53.15193 6.37827 52.20009 6.37827 51.02591 6.37827 49.85172 7.33011 48.89987 8.5043 48.89987 9.67848 48.89987 10.63033 49.85172 10.63033 51.02591ZM8.5043 51.02591"/>
<path transform="matrix(1.00002,0,0,-1.00002,94.107639,103.68082)" d="M5.76454 55.21027H15.22917V64.01069H5.76454Z" fill="#ffffff"/>
<use data-text="A" xlink:href="#font_1_1" transform="matrix(9.962799,0,0,-9.962799,100.868778,47.47269)"/>
<path transform="matrix(1.00002,0,0,-1.00002,94.107639,103.68082)" d="M10.63033 17.0086C10.63033 18.18279 9.67848 19.13463 8.5043 19.13463 7.33011 19.13463 6.37827 18.18279 6.37827 17.0086 6.37827 15.83441 7.33011 14.88258 8.5043 14.88258 9.67848 14.88258 10.63033 15.83441 10.63033 17.0086ZM8.5043 17.0086" fill="#c64a86"/>
<path transform="matrix(1.00002,0,0,-1.00002,94.107639,103.68082)" stroke-width=".3985" stroke-linecap="butt" stroke-miterlimit="10" stroke-linejoin="miter" fill="none" stroke="#c64a86" d="M10.63033 17.0086C10.63033 18.18279 9.67848 19.13463 8.5043 19.13463 7.33011 19.13463 6.37827 18.18279 6.37827 17.0086 6.37827 15.83441 7.33011 14.88258 8.5043 14.88258 9.67848 14.88258 10.63033 15.83441 10.63033 17.0086ZM8.5043 17.0086"/>
<path transform="matrix(1.00002,0,0,-1.00002,94.107639,103.68082)" d="M10.6961 6.01637H20.74532V14.81679H10.6961Z" fill="#ffffff"/>
<use data-text="B" xlink:href="#font_1_2" transform="matrix(9.962799,0,0,-9.962799,105.79987,96.66768)"/>
<path transform="matrix(1.00002,0,0,-1.00002,94.107639,103.68082)" d="M61.65623 17.0086C61.65623 18.18279 60.70439 19.13463 59.53021 19.13463 58.35602 19.13463 57.40419 18.18279 57.40419 17.0086 57.40419 15.83441 58.35602 14.88258 59.53021 14.88258 60.70439 14.88258 61.65623 15.83441 61.65623 17.0086ZM59.53021 17.0086" fill="#0000cc"/>
<path transform="matrix(1.00002,0,0,-1.00002,94.107639,103.68082)" stroke-width=".3985" stroke-linecap="butt" stroke-miterlimit="10" stroke-linejoin="miter" fill="none" stroke="#0000cc" d="M61.65623 17.0086C61.65623 18.18279 60.70439 19.13463 59.53021 19.13463 58.35602 19.13463 57.40419 18.18279 57.40419 17.0086 57.40419 15.83441 58.35602 14.88258 59.53021 14.88258 60.70439 14.88258 61.65623 15.83441 61.65623 17.0086ZM59.53021 17.0086"/>
<path transform="matrix(1.00002,0,0,-1.00002,94.107639,103.68082)" d="M61.72202 6.01637H71.547779V14.81679H61.72202Z" fill="#ffffff"/>
<use data-text="C" xlink:href="#font_1_3" transform="matrix(9.962799,0,0,-9.962799,156.82689,96.66768)"/>
</svg>
