<svg xmlns="http://www.w3.org/2000/svg" xmlns:xlink="http://www.w3.org/1999/xlink" version="1.1" width="221" height="22" viewBox="0 0 221 22">
<defs>
<path id="font_1_2" d="M.2939911 .64004519C.2939911 .66400149 .2939911 .6660156 .2709961 .6660156 .20899964 .60227969 .12098694 .60227969 .08898926 .60227969V.57128909C.10899353 .57128909 .16799927 .57128909 .21998596 .5972748V.07902527C.21998596 .042999269 .21699524 .0309906 .1269989 .0309906H.09498596V0C.12998963 .0029907227 .21699524 .0029907227 .25698854 .0029907227 .29699708 .0029907227 .38398744 .0029907227 .4189911 0V.0309906H.3869934C.29699708 .0309906 .2939911 .041992189 .2939911 .07902527V.64004519Z"/>
<path id="font_1_1" d="M.45999146 .31976319C.45999146 .39982606 .45498658 .47988893 .41999818 .5539398 .37399293 .65000918 .2919922 .6660156 .25 .6660156 .18998719 .6660156 .116989139 .64001467 .07598877 .54693606 .04399109 .47789 .038986207 .39982606 .038986207 .31976319 .038986207 .24472046 .042999269 .15464783 .083999637 .07859802 .1269989-.0024719239 .19999695-.022460938 .24899292-.022460938 .30299378-.022460938 .3789978-.0014648438 .4229889 .09359741 .45498658 .16265869 .45999146 .2407074 .45999146 .31976319M.24899292-.00047302247C.20999146-.00047302247 .15098572 .024551392 .1329956 .12062073 .12199402 .18066406 .12199402 .2727356 .12199402 .3317871 .12199402 .39582826 .12199402 .46188355 .12998963 .5159149 .14898682 .63500979 .22399903 .64401248 .24899292 .64401248 .28199769 .64401248 .34799195 .6259918 .36698915 .52693179 .3769989 .47088624 .3769989 .39482118 .3769989 .3317871 .3769989 .25672914 .3769989 .18867493 .3659973 .12461853 .35099793 .029556275 .2939911-.00047302247 .24899292-.00047302247Z"/>
<path id="font_1_4" d="M.44898988 .20022583C.44898988 .3193512 .36698915 .41944886 .25898744 .41944886 .21099854 .41944886 .16799927 .40345765 .13198853 .36842347V.5637665C.1519928 .5577698 .18499756 .55078127 .21699524 .55078127 .33999635 .55078127 .4099884 .6417694 .4099884 .6547699 .4099884 .6607666 .40699769 .6657715 .3999939 .6657715 .39898683 .6657715 .39698792 .6657715 .3919983 .66278079 .37199403 .6537781 .32299806 .6337738 .2559967 .6337738 .21598816 .6337738 .16999817 .6407776 .12298584 .6617737 .114990238 .66477969 .11299133 .66477969 .11099243 .66477969 .100997928 .66477969 .100997928 .6567688 .100997928 .6407776V.34439088C.100997928 .32637025 .100997928 .31835938 .114990238 .31835938 .12199402 .31835938 .12399292 .32136537 .12799073 .32736207 .13899231 .3433838 .17599488 .39746095 .25698854 .39746095 .30899049 .39746095 .33399964 .35139466 .34199525 .33337403 .35798646 .29632569 .3600006 .25727845 .3600006 .20722962 .3600006 .17222595 .3600006 .11222839 .33599855 .07035828 .31199647 .031463624 .2749939 .0055389406 .22898865 .0055389406 .1559906 .0055389406 .09899902 .058380128 .08198547 .11723328 .084991458 .1162262 .08799744 .115234378 .09899902 .115234378 .13198853 .115234378 .14898682 .14022827 .14898682 .16423035 .14898682 .18823242 .13198853 .21322632 .09899902 .21322632 .084991458 .21322632 .049987794 .20622254 .049987794 .16023255 .049987794 .07434082 .11898804-.022460938 .23098755-.022460938 .34700013-.022460938 .44898988 .073349 .44898988 .20022583Z"/>
<path id="font_1_5" d="M.47599793 .609375C.4850006 .6213684 .4850006 .62338259 .4850006 .64437869H.24198914C.11999512 .64437869 .117996219 .65737918 .11399841 .67637637H.08898926L.055999757 .4702301H.08099365C.083999637 .48625184 .09298706 .5493469 .10598755 .56137087 .11299133 .5673828 .19099427 .5673828 .20399475 .5673828H.41099549C.3999939 .5513611 .32099916 .4421997 .29899598 .40914918 .20899964 .27394105 .17599488 .1347351 .17599488 .032577516 .17599488 .022567749 .17599488-.022460938 .22200012-.022460938 .2679901-.022460938 .2679901 .022567749 .2679901 .032577516V.08366394C.2679901 .13873291 .2709961 .19381714 .2789917 .24790955 .2829895 .27093507 .29699708 .35707093 .34098817 .41915895L.47599793 .609375Z"/>
<path id="font_2_1" d="M.6749878 .22798157C.6859894 .23298645 .69400027 .23799134 .69400027 .24998474 .69400027 .2619934 .6859894 .2669983 .6749878 .27198792L.12098694 .53305056C.10798645 .5400543 .10598755 .5400543 .102996829 .5400543 .09199524 .5400543 .08299255 .53105166 .08299255 .52005007 .08299255 .51104739 .08799744 .50505068 .101989749 .49804688L.6269989 .24998474 .101989749 .0019378662C.08799744-.005065918 .08299255-.011062622 .08299255-.020065308 .08299255-.031066895 .09199524-.04006958 .102996829-.04006958 .10598755-.04006958 .10798645-.04006958 .12098694-.033065797L.6749878 .22798157Z"/>
<path id="font_2_2" d="M.08799744 .059265138C.084991458 .044265748 .07899475 .021255494 .07899475 .01625061 .07899475-.0017547608 .09298706-.0107421879 .10798645-.0107421879 .11999512-.0107421879 .13798523-.002746582 .14498902 .01725769 .1459961 .019256592 .1579895 .06626892 .1639862 .091278079L.18598938 .18130493C.19198609 .2033081 .19799805 .22531128 .20298767 .24832154 .20698548 .26531983 .21499634 .29434205 .21598816 .29833985 .23098755 .3293457 .28399659 .42037965 .3789978 .42037965 .42399598 .42037965 .43299867 .38336183 .43299867 .35035707 .43299867 .28833009 .38398744 .16029358 .36799623 .11727905 .35899354 .0942688 .35798646 .08227539 .35798646 .0712738 .35798646 .024261475 .3929901-.0107421879 .43998719-.0107421879 .5339966-.0107421879 .57099917 .13528443 .57099917 .14329529 .57099917 .1532898 .56199648 .1532898 .5589905 .1532898 .548996 .1532898 .548996 .15029907 .5439911 .13528443 .5239868 .06726074 .4909973 .011245728 .44198609 .011245728 .4249878 .011245728 .41799928 .021255494 .41799928 .044265748 .41799928 .0692749 .4269867 .09327698 .43598939 .11528015 .45498658 .16830445 .49699403 .27833558 .49699403 .3353424 .49699403 .40237428 .45399476 .4423828 .38198854 .4423828 .2919922 .4423828 .24299622 .37835694 .22599793 .35534669 .22099304 .41137696 .17999268 .4423828 .13398743 .4423828 .08799744 .4423828 .068984989 .4033661 .05899048 .38536073 .042999269 .35134889 .0289917 .29232789 .0289917 .28833009 .0289917 .27833558 .038986207 .27833558 .040985109 .27833558 .050994874 .27833558 .051986696 .2793274 .057998659 .30133058 .07499695 .37236024 .09498596 .42037965 .1309967 .42037965 .15098572 .42037965 .1619873 .4073639 .1619873 .37435914 .1619873 .35334779 .15899658 .3423462 .1459961 .29032899L.08799744 .059265138Z"/>
<path id="font_3_1" d="M.673996 .3241577C.6879883 .33015443 .69400027 .3371582 .69400027 .3461609 .69400027 .35617066 .6899872 .36216737 .673996 .36917115L.12298584 .62919619C.10899353 .63619998 .10499573 .63619998 .102996829 .63619998 .09098816 .63619998 .08299255 .62719729 .08299255 .61621096 .08299255 .6042023 .09098816 .5991974 .101989749 .59420779L.6269989 .34716798 .10398865 .100128177C.083999637 .09112549 .08299255 .083114627 .08299255 .07711792 .08299255 .06611633 .09199524 .057113649 .102996829 .057113649 .10598755 .057113649 .10798645 .057113649 .12098694 .06411743L.673996 .3241577M.6589966-.13671875C.6759949-.13671875 .69400027-.13671875 .69400027-.11672974 .69400027-.096725467 .6729889-.096725467 .6579895-.096725467H.11898804C.10398865-.096725467 .08299255-.096725467 .08299255-.11672974 .08299255-.13671875 .100997928-.13671875 .117996219-.13671875H.6589966Z"/>
<path id="font_1_3" d="M.2899933 .35191346C.37199403 .37893678 .42999269 .4490509 .42999269 .52809146 .42999269 .6100464 .34199525 .6660156 .24598694 .6660156 .14498902 .6660156 .068984989 .60606387 .068984989 .53009036 .068984989 .49710084 .09098816 .47808839 .11999512 .47808839 .15098572 .47808839 .17098999 .50009158 .17098999 .5290985 .17098999 .57910159 .12399292 .57910159 .10899353 .57910159 .13999939 .62802127 .20599365 .64100649 .24198914 .64100649 .2829895 .64100649 .33799745 .6190338 .33799745 .5290985 .33799745 .51708987 .33599855 .45906068 .30999757 .4149933 .27999879 .36691285 .24598694 .36390687 .22099304 .36291505 .21299744 .36190797 .18899536 .35990907 .18199158 .35990907 .17399597 .35890199 .16699219 .35791017 .16699219 .3479004 .16699219 .33691407 .17399597 .33691407 .19099427 .33691407H.23498535C.31698609 .33691407 .35398866 .2686615 .35398866 .17037964 .35398866 .034469606 .2849884 .0055389406 .24099732 .0055389406 .19799805 .0055389406 .12298584 .022491456 .08799744 .08137512 .12298584 .07637024 .1539917 .09837341 .1539917 .1363678 .1539917 .17237854 .1269989 .19238281 .09799194 .19238281 .07398987 .19238281 .041992189 .17837525 .041992189 .1343689 .041992189 .043441774 .1349945-.022460938 .24398804-.022460938 .3659973-.022460938 .45700074 .06838989 .45700074 .17037964 .45700074 .252594 .3939972 .33088685 .2899933 .35191346Z"/>
</defs>
<path transform="matrix(1.00002,0,0,-1.00002,86.24951,7.807856)" stroke-width=".79701" stroke-linecap="butt" stroke-miterlimit="10" stroke-linejoin="miter" fill="none" stroke="#000000" d="M-31.74796 0H132.3603"/>
<path transform="matrix(1.00002,0,0,-1.00002,218.61248,7.807856)" d="M1.0361 0C-.25902 .25902-1.55415 .77707-3.1083 1.68365-1.55415 .51805-1.55415-.51805-3.1083-1.68365-1.55415-.77707-.25902-.25902 1.0361 0Z"/>
<path transform="matrix(1.00002,0,0,-1.00002,218.61248,7.807856)" stroke-width=".79701" stroke-linecap="butt" stroke-linejoin="round" fill="none" stroke="#000000" d="M1.0361 0C-.25902 .25902-1.55415 .77707-3.1083 1.68365-1.55415 .51805-1.55415-.51805-3.1083-1.68365-1.55415-.77707-.25902-.25902 1.0361 0Z"/>
<path transform="matrix(1.00002,0,0,-1.00002,86.24951,7.807856)" stroke-width=".3985" stroke-linecap="butt" stroke-miterlimit="10" stroke-linejoin="miter" fill="none" stroke="#000000" d="M-22.6771 3.40158V0"/>
<path transform="matrix(1.00002,0,0,-1.00002,86.24951,7.807856)" stroke-width=".3985" stroke-linecap="butt" stroke-miterlimit="10" stroke-linejoin="miter" fill="none" stroke="#000000" d="M-11.33855 3.40158V0"/>
<path transform="matrix(1.00002,0,0,-1.00002,86.24951,7.807856)" stroke-width=".3985" stroke-linecap="butt" stroke-miterlimit="10" stroke-linejoin="miter" fill="none" stroke="#000000" d="M0 3.40158V0"/>
<path transform="matrix(1.00002,0,0,-1.00002,86.24951,7.807856)" stroke-width=".3985" stroke-linecap="butt" stroke-miterlimit="10" stroke-linejoin="miter" fill="none" stroke="#000000" d="M11.33855 3.40158V0"/>
<path transform="matrix(1.00002,0,0,-1.00002,86.24951,7.807856)" stroke-width=".3985" stroke-linecap="butt" stroke-miterlimit="10" stroke-linejoin="miter" fill="none" stroke="#000000" d="M22.6771 3.40158V0"/>
<path transform="matrix(1.00002,0,0,-1.00002,86.24951,7.807856)" stroke-width=".3985" stroke-linecap="butt" stroke-miterlimit="10" stroke-linejoin="miter" fill="none" stroke="#000000" d="M34.01564 3.40158V0"/>
<path transform="matrix(1.00002,0,0,-1.00002,86.24951,7.807856)" stroke-width=".3985" stroke-linecap="butt" stroke-miterlimit="10" stroke-linejoin="miter" fill="none" stroke="#000000" d="M45.35419 3.40158V0"/>
<path transform="matrix(1.00002,0,0,-1.00002,86.24951,7.807856)" stroke-width=".3985" stroke-linecap="butt" stroke-miterlimit="10" stroke-linejoin="miter" fill="none" stroke="#000000" d="M56.69275 3.40158V0"/>
<path transform="matrix(1.00002,0,0,-1.00002,86.24951,7.807856)" stroke-width=".3985" stroke-linecap="butt" stroke-miterlimit="10" stroke-linejoin="miter" fill="none" stroke="#000000" d="M68.0313 3.40158V0"/>
<path transform="matrix(1.00002,0,0,-1.00002,86.24951,7.807856)" stroke-width=".3985" stroke-linecap="butt" stroke-miterlimit="10" stroke-linejoin="miter" fill="none" stroke="#000000" d="M79.36984 3.40158V0"/>
<path transform="matrix(1.00002,0,0,-1.00002,86.24951,7.807856)" stroke-width=".3985" stroke-linecap="butt" stroke-miterlimit="10" stroke-linejoin="miter" fill="none" stroke="#000000" d="M90.70839 3.40158V0"/>
<path transform="matrix(1.00002,0,0,-1.00002,86.24951,7.807856)" stroke-width=".3985" stroke-linecap="butt" stroke-miterlimit="10" stroke-linejoin="miter" fill="none" stroke="#000000" d="M102.04694 3.40158V0"/>
<path transform="matrix(1.00002,0,0,-1.00002,86.24951,7.807856)" stroke-width=".3985" stroke-linecap="butt" stroke-miterlimit="10" stroke-linejoin="miter" fill="none" stroke="#000000" d="M113.3855 3.40158V0"/>
<path transform="matrix(1.00002,0,0,-1.00002,86.24951,7.807856)" stroke-width=".3985" stroke-linecap="butt" stroke-miterlimit="10" stroke-linejoin="miter" fill="none" stroke="#000000" d="M124.72404 3.40158V0"/>
<path transform="matrix(1.00002,0,0,-1.00002,86.24951,7.807856)" stroke-width=".3985" stroke-linecap="butt" stroke-miterlimit="10" stroke-linejoin="miter" fill="none" stroke="#000000" d="M113.3855 6.80318V0"/>
<use data-text="1" xlink:href="#font_1_2" transform="matrix(9.962799,0,0,-9.962799,194.65569,19.741095)"/>
<use data-text="0" xlink:href="#font_1_1" transform="matrix(9.962799,0,0,-9.962799,199.63709,19.741095)"/>
<path transform="matrix(1.00002,0,0,-1.00002,86.24951,7.807856)" stroke-width=".3985" stroke-linecap="butt" stroke-miterlimit="10" stroke-linejoin="miter" fill="none" stroke="#000000" d="M0 6.80318V0"/>
<use data-text="0" xlink:href="#font_1_1" transform="matrix(9.962799,0,0,-9.962799,83.75846,19.741095)"/>
<path transform="matrix(1.00002,0,0,-1.00002,86.24951,7.807856)" stroke-width=".3985" stroke-linecap="butt" stroke-miterlimit="10" stroke-linejoin="miter" fill="none" stroke="#000000" d="M56.69275 6.80318V0"/>
<use data-text="5" xlink:href="#font_1_4" transform="matrix(9.962799,0,0,-9.962799,140.4526,19.741095)"/>
<path transform="matrix(1.00002,0,0,-1.00002,86.24951,7.807856)" stroke-width="1.59404" stroke-linecap="butt" stroke-miterlimit="10" stroke-linejoin="miter" fill="none" stroke="#ff0000" d="M34.01564 0H79.36984"/>
<path transform="matrix(1.00002,0,0,-1.00002,86.24951,7.807856)" d="M82.7714 0C82.7714 1.87863 81.24849 3.40154 79.36984 3.40154 77.4912 3.40154 75.96829 1.87863 75.96829 0 75.96829-1.87863 77.4912-3.40154 79.36984-3.40154 81.24849-3.40154 82.7714-1.87863 82.7714 0ZM79.36984 0" fill="#ffffff"/>
<path transform="matrix(1.00002,0,0,-1.00002,86.24951,7.807856)" stroke-width=".3985" stroke-linecap="butt" stroke-miterlimit="10" stroke-linejoin="miter" fill="none" stroke="#ff0000" d="M82.7714 0C82.7714 1.87863 81.24849 3.40154 79.36984 3.40154 77.4912 3.40154 75.96829 1.87863 75.96829 0 75.96829-1.87863 77.4912-3.40154 79.36984-3.40154 81.24849-3.40154 82.7714-1.87863 82.7714 0ZM79.36984 0"/>
<path transform="matrix(1.00002,0,0,-1.00002,86.24951,7.807856)" d="M37.41719 0C37.41719 1.87863 35.89429 3.40154 34.01564 3.40154 32.137 3.40154 30.61409 1.87863 30.61409 0 30.61409-1.87863 32.137-3.40154 34.01564-3.40154 35.89429-3.40154 37.41719-1.87863 37.41719 0ZM34.01564 0" fill="#ff0000"/>
<path transform="matrix(1.00002,0,0,-1.00002,86.24951,7.807856)" stroke-width=".3985" stroke-linecap="butt" stroke-miterlimit="10" stroke-linejoin="miter" fill="none" stroke="#ff0000" d="M37.41719 0C37.41719 1.87863 35.89429 3.40154 34.01564 3.40154 32.137 3.40154 30.61409 1.87863 30.61409 0 30.61409-1.87863 32.137-3.40154 34.01564-3.40154 35.89429-3.40154 37.41719-1.87863 37.41719 0ZM34.01564 0"/>
<use data-text="7" xlink:href="#font_1_5" transform="matrix(9.962799,0,0,-9.962799,.53279116,10.340906)"/>
<use data-text="&#x003e;" xlink:href="#font_2_1" transform="matrix(9.962799,0,0,-9.962799,8.281937,10.340906)"/>
<use data-text="n" xlink:href="#font_2_2" transform="matrix(9.962799,0,0,-9.962799,18.78273,10.340906)"/>
<use data-text="&#x2265;" xlink:href="#font_3_1" transform="matrix(9.962799,0,0,-9.962799,27.545319,10.340906)"/>
<use data-text="3" xlink:href="#font_1_3" transform="matrix(9.962799,0,0,-9.962799,38.06154,10.340906)"/>
</svg>
