<svg xmlns="http://www.w3.org/2000/svg" xmlns:xlink="http://www.w3.org/1999/xlink" version="1.1" width="168" height="307" viewBox="0 0 168 307">
<defs>
<path id="font_1_1" d="M.33399964 .30233766C.33999635 .32835389 .36299134 .42037965 .43299867 .42037965 .43798829 .42037965 .46199037 .42037965 .48298646 .40734864 .45498658 .402359 .43499757 .37734986 .43499757 .35334779 .43499757 .33735658 .44599916 .31835938 .47299195 .31835938 .49499513 .31835938 .5269928 .3363495 .5269928 .37635804 .5269928 .42837525 .46798707 .4423828 .43399049 .4423828 .37599183 .4423828 .34098817 .38935853 .32899476 .36634828 .3039856 .43237306 .25 .4423828 .22099304 .4423828 .116989139 .4423828 .05999756 .3133545 .05999756 .28834535 .05999756 .27833558 .069992069 .27833558 .07199097 .27833558 .07998657 .27833558 .08299255 .28033448 .084991458 .28933717 .11898804 .39535523 .18499756 .42037965 .21899414 .42037965 .23799134 .42037965 .272995 .4113617 .272995 .35334779 .272995 .32235719 .2559967 .25532533 .21899414 .11528015 .20298767 .053268434 .16799927 .011245728 .12399292 .011245728 .117996219 .011245728 .09498596 .011245728 .07398987 .024276734 .09899902 .029266358 .12098694 .05027771 .12098694 .07827759 .12098694 .105270389 .09899902 .11328125 .083999637 .11328125 .053985597 .11328125 .0289917 .08728027 .0289917 .055267335 .0289917 .009246826 .07899475-.0107421879 .12298584-.0107421879 .18899536-.0107421879 .22499085 .059280397 .22799683 .0652771 .23999024 .028274537 .27598573-.0107421879 .33599855-.0107421879 .43899537-.0107421879 .49598695 .118270877 .49598695 .14328003 .49598695 .1532898 .4869995 .1532898 .48399354 .1532898 .47499085 .1532898 .47299195 .14929199 .47099305 .14228821 .43798829 .03527832 .36999513 .011245728 .33799745 .011245728 .29899598 .011245728 .2829895 .043273927 .2829895 .07727051 .2829895 .09927368 .2889862 .121276859 .2999878 .16529846L.33399964 .30233766Z"/>
<path id="font_1_2" d="M.48599244 .38136292C.48999024 .39537049 .48999024 .39736939 .48999024 .40437318 .48999024 .42237855 .47599793 .43138124 .46099855 .43138124 .45098878 .43138124 .43499757 .42536927 .42599488 .41036988 .42399598 .405365 .41600038 .37435914 .4119873 .35635377 .40499879 .33035279 .397995 .30334474 .3919983 .27633668L.34700013 .09628296C.34298707 .08126831 .2999878 .011245728 .23399353 .011245728 .18299866 .011245728 .17199707 .055267335 .17199707 .0922699 .17199707 .1382904 .18899536 .20030213 .22299195 .28833009 .23899842 .3293457 .24299622 .3403473 .24299622 .36035157 .24299622 .405365 .21099854 .4423828 .16099549 .4423828 .06599426 .4423828 .0289917 .29733277 .0289917 .28833009 .0289917 .27833558 .038986207 .27833558 .040985109 .27833558 .050994874 .27833558 .051986696 .28033448 .056991579 .29634095 .083999637 .3903656 .12399292 .42037965 .1579895 .42037965 .1659851 .42037965 .18299866 .42037965 .18299866 .3883667 .18299866 .36335755 .17298889 .3373413 .1659851 .31834413 .12599182 .21231079 .10798645 .1552887 .10798645 .10827637 .10798645 .019256592 .17098999-.0107421879 .22999573-.0107421879 .2689972-.0107421879 .30299378 .0062561037 .33099366 .03425598 .31799317-.017745972 .30599977-.06674194 .2659912-.11973572 .23999024-.15385437 .20199585-.18309021 .1559906-.18309021 .14199829-.18309021 .09700012-.18005371 .07998657-.14074707 .09599304-.14074707 .10899353-.14074707 .12298584-.1287384 .1329956-.11973572 .14299011-.10673523 .14299011-.08773804 .14299011-.056747438 .115997318-.052734376 .10598755-.052734376 .08299255-.052734376 .049987794-.068740848 .049987794-.11773682 .049987794-.16796875 .09399414-.20507813 .1559906-.20507813 .25898744-.20507813 .3619995-.11373901 .3899994-.00074768069L.48599244 .38136292Z"/>
<path id="font_2_1" d="M.6589966 .23046875C.6759949 .23046875 .69400027 .23046875 .69400027 .25045777 .69400027 .27046205 .6759949 .27046205 .6589966 .27046205H.117996219C.100997928 .27046205 .08299255 .27046205 .08299255 .25045777 .08299255 .23046875 .100997928 .23046875 .117996219 .23046875H.6589966Z"/>
<path id="font_3_3" d="M.2899933 .35191346C.37199403 .37893678 .42999269 .4490509 .42999269 .52809146 .42999269 .6100464 .34199525 .6660156 .24598694 .6660156 .14498902 .6660156 .068984989 .60606387 .068984989 .53009036 .068984989 .49710084 .09098816 .47808839 .11999512 .47808839 .15098572 .47808839 .17098999 .50009158 .17098999 .5290985 .17098999 .57910159 .12399292 .57910159 .10899353 .57910159 .13999939 .62802127 .20599365 .64100649 .24198914 .64100649 .2829895 .64100649 .33799745 .6190338 .33799745 .5290985 .33799745 .51708987 .33599855 .45906068 .30999757 .4149933 .27999879 .36691285 .24598694 .36390687 .22099304 .36291505 .21299744 .36190797 .18899536 .35990907 .18199158 .35990907 .17399597 .35890199 .16699219 .35791017 .16699219 .3479004 .16699219 .33691407 .17399597 .33691407 .19099427 .33691407H.23498535C.31698609 .33691407 .35398866 .2686615 .35398866 .17037964 .35398866 .034469606 .2849884 .0055389406 .24099732 .0055389406 .19799805 .0055389406 .12298584 .022491456 .08799744 .08137512 .12298584 .07637024 .1539917 .09837341 .1539917 .1363678 .1539917 .17237854 .1269989 .19238281 .09799194 .19238281 .07398987 .19238281 .041992189 .17837525 .041992189 .1343689 .041992189 .043441774 .1349945-.022460938 .24398804-.022460938 .3659973-.022460938 .45700074 .06838989 .45700074 .17037964 .45700074 .252594 .3939972 .33088685 .2899933 .35191346Z"/>
<path id="font_3_2" d="M.2939911 .64004519C.2939911 .66400149 .2939911 .6660156 .2709961 .6660156 .20899964 .60227969 .12098694 .60227969 .08898926 .60227969V.57128909C.10899353 .57128909 .16799927 .57128909 .21998596 .5972748V.07902527C.21998596 .042999269 .21699524 .0309906 .1269989 .0309906H.09498596V0C.12998963 .0029907227 .21699524 .0029907227 .25698854 .0029907227 .29699708 .0029907227 .38398744 .0029907227 .4189911 0V.0309906H.3869934C.29699708 .0309906 .2939911 .041992189 .2939911 .07902527V.64004519Z"/>
<path id="font_3_1" d="M.45999146 .31976319C.45999146 .39982606 .45498658 .47988893 .41999818 .5539398 .37399293 .65000918 .2919922 .6660156 .25 .6660156 .18998719 .6660156 .116989139 .64001467 .07598877 .54693606 .04399109 .47789 .038986207 .39982606 .038986207 .31976319 .038986207 .24472046 .042999269 .15464783 .083999637 .07859802 .1269989-.0024719239 .19999695-.022460938 .24899292-.022460938 .30299378-.022460938 .3789978-.0014648438 .4229889 .09359741 .45498658 .16265869 .45999146 .2407074 .45999146 .31976319M.24899292-.00047302247C.20999146-.00047302247 .15098572 .024551392 .1329956 .12062073 .12199402 .18066406 .12199402 .2727356 .12199402 .3317871 .12199402 .39582826 .12199402 .46188355 .12998963 .5159149 .14898682 .63500979 .22399903 .64401248 .24899292 .64401248 .28199769 .64401248 .34799195 .6259918 .36698915 .52693179 .3769989 .47088624 .3769989 .39482118 .3769989 .3317871 .3769989 .25672914 .3769989 .18867493 .3659973 .12461853 .35099793 .029556275 .2939911-.00047302247 .24899292-.00047302247Z"/>
<path id="font_3_4" d="M.44898988 .20022583C.44898988 .3193512 .36698915 .41944886 .25898744 .41944886 .21099854 .41944886 .16799927 .40345765 .13198853 .36842347V.5637665C.1519928 .5577698 .18499756 .55078127 .21699524 .55078127 .33999635 .55078127 .4099884 .6417694 .4099884 .6547699 .4099884 .6607666 .40699769 .6657715 .3999939 .6657715 .39898683 .6657715 .39698792 .6657715 .3919983 .66278079 .37199403 .6537781 .32299806 .6337738 .2559967 .6337738 .21598816 .6337738 .16999817 .6407776 .12298584 .6617737 .114990238 .66477969 .11299133 .66477969 .11099243 .66477969 .100997928 .66477969 .100997928 .6567688 .100997928 .6407776V.34439088C.100997928 .32637025 .100997928 .31835938 .114990238 .31835938 .12199402 .31835938 .12399292 .32136537 .12799073 .32736207 .13899231 .3433838 .17599488 .39746095 .25698854 .39746095 .30899049 .39746095 .33399964 .35139466 .34199525 .33337403 .35798646 .29632569 .3600006 .25727845 .3600006 .20722962 .3600006 .17222595 .3600006 .11222839 .33599855 .07035828 .31199647 .031463624 .2749939 .0055389406 .22898865 .0055389406 .1559906 .0055389406 .09899902 .058380128 .08198547 .11723328 .084991458 .1162262 .08799744 .115234378 .09899902 .115234378 .13198853 .115234378 .14898682 .14022827 .14898682 .16423035 .14898682 .18823242 .13198853 .21322632 .09899902 .21322632 .084991458 .21322632 .049987794 .20622254 .049987794 .16023255 .049987794 .07434082 .11898804-.022460938 .23098755-.022460938 .34700013-.022460938 .44898988 .073349 .44898988 .20022583Z"/>
</defs>
<path transform="matrix(1,0,0,-1.00002,72.67799,160.94097)" stroke-width=".3985" stroke-linecap="butt" stroke-miterlimit="10" stroke-linejoin="miter" fill="none" stroke="#00aeef" d="M-70.867-141.73404H70.867M-70.867-127.56062H70.867M-70.867-113.38724H70.867M-70.867-99.21382H70.867M-70.867-85.04042H70.867M-70.867-70.867H70.867M-70.867-56.69362H70.867M-70.867-42.5202H70.867M-70.867-28.3468H70.867M-70.867-14.17339H70.867M-70.867 0H70.867M-70.867 14.17339H70.867M-70.867 28.3468H70.867M-70.867 42.5202H70.867M-70.867 56.69362H70.867M-70.867 70.867H70.867M-70.867 85.04042H70.867M-70.867 99.21382H70.867M-70.867 113.38724H70.867M-70.867 127.56062H70.867M-70.867 141.72905H70.867M-70.867-141.73404V141.73404M-56.69362-141.73404V141.73404M-42.5202-141.73404V141.73404M-28.3468-141.73404V141.73404M-14.17339-141.73404V141.73404M0-141.73404V141.73404M14.17339-141.73404V141.73404M28.3468-141.73404V141.73404M42.5202-141.73404V141.73404M56.69362-141.73404V141.73404M70.86205-141.73404V141.73404M70.867 141.73404"/>
<path transform="matrix(1,0,0,-1.00002,72.67799,160.94097)" stroke-width=".79701" stroke-linecap="butt" stroke-miterlimit="10" stroke-linejoin="miter" fill="none" stroke="#000000" d="M-70.867 0H83.6058"/>
<path transform="matrix(1,0,0,-1.00002,156.28379,160.94097)" d="M1.0361 0C-.25902 .25902-1.55415 .77707-3.1083 1.68365-1.55415 .51805-1.55415-.51805-3.1083-1.68365-1.55415-.77707-.25902-.25902 1.0361 0Z"/>
<path transform="matrix(1,0,0,-1.00002,156.28379,160.94097)" stroke-width=".79701" stroke-linecap="butt" stroke-linejoin="round" fill="none" stroke="#000000" d="M1.0361 0C-.25902 .25902-1.55415 .77707-3.1083 1.68365-1.55415 .51805-1.55415-.51805-3.1083-1.68365-1.55415-.77707-.25902-.25902 1.0361 0Z"/>
<use data-text="x" xlink:href="#font_1_1" transform="matrix(9.9626,0,0,-9.962799,161.437,163.086)"/>
<path transform="matrix(1,0,0,-1.00002,72.67799,160.94097)" stroke-width=".79701" stroke-linecap="butt" stroke-miterlimit="10" stroke-linejoin="miter" fill="none" stroke="#000000" d="M0-141.73404V154.47283"/>
<path transform="matrix(0,-1.00002,-1,-0,72.67799,6.465042)" d="M1.0361 0C-.25902 .25902-1.55415 .77707-3.1083 1.68365-1.55415 .51805-1.55415-.51805-3.1083-1.68365-1.55415-.77707-.25902-.25902 1.0361 0Z"/>
<path transform="matrix(0,-1.00002,-1,-0,72.67799,6.465042)" stroke-width=".79701" stroke-linecap="butt" stroke-linejoin="round" fill="none" stroke="#000000" d="M1.0361 0C-.25902 .25902-1.55415 .77707-3.1083 1.68365-1.55415 .51805-1.55415-.51805-3.1083-1.68365-1.55415-.77707-.25902-.25902 1.0361 0Z"/>
<use data-text="y" xlink:href="#font_1_2" transform="matrix(9.9626,0,0,-9.962799,65.70899,6.2068636)"/>
<path transform="matrix(1,0,0,-1.00002,72.67799,160.94097)" stroke-width="1.19553" stroke-linecap="butt" stroke-miterlimit="10" stroke-linejoin="miter" fill="none" stroke="#00aeef" d="M-42.5202-141.73404V141.73404"/>
<path transform="matrix(1,0,0,-1.00002,72.67799,160.94097)" stroke-width=".79701" stroke-linecap="butt" stroke-miterlimit="10" stroke-linejoin="miter" fill="none" stroke="#000000" d="M-42.5202 2.12592V-2.12613"/>
<path transform="matrix(1,0,0,-1.00002,72.67799,160.94097)" d="M-49.88159-13.7604H-35.158815V-4.51717H-49.88159Z" fill="#ffffff"/>
<use data-text="&#x2212;" xlink:href="#font_2_1" transform="matrix(9.9626,0,0,-9.962799,23.793,172.8752)"/>
<use data-text="3" xlink:href="#font_3_3" transform="matrix(9.9626,0,0,-9.962799,31.541993,172.8752)"/>
<path transform="matrix(1,0,0,-1.00002,72.67799,160.94097)" stroke-width="1.19553" stroke-linecap="butt" stroke-miterlimit="10" stroke-linejoin="miter" fill="none" stroke="#00aeef" d="M42.5202-141.73404V141.73404"/>
<path transform="matrix(1,0,0,-1.00002,72.67799,160.94097)" stroke-width=".79701" stroke-linecap="butt" stroke-miterlimit="10" stroke-linejoin="miter" fill="none" stroke="#000000" d="M42.5202 2.12592V-2.12613"/>
<path transform="matrix(1,0,0,-1.00002,72.67799,160.94097)" d="M39.03323-12.93018H46.00717V-4.5171997H39.03323Z" fill="#ffffff"/>
<use data-text="3" xlink:href="#font_3_3" transform="matrix(9.9626,0,0,-9.962799,112.70799,172.8752)"/>
<path transform="matrix(1,0,0,-1.00002,72.67799,160.94097)" stroke-width="1.19553" stroke-linecap="butt" stroke-miterlimit="10" stroke-linejoin="miter" fill="none" stroke="#00aeef" d="M-70.867-141.73404H70.867"/>
<path transform="matrix(1,0,0,-1.00002,72.67799,160.94097)" stroke-width=".79701" stroke-linecap="butt" stroke-miterlimit="10" stroke-linejoin="miter" fill="none" stroke="#000000" d="M2.12592-141.73404H-2.12613"/>
<path transform="matrix(1,0,0,-1.00002,72.67799,160.94097)" d="M-24.22137-146.35565H-4.51717V-137.11243H-24.22137Z" fill="#ffffff"/>
<use data-text="&#x2212;" xlink:href="#font_2_1" transform="matrix(9.9626,0,0,-9.962799,49.452997,305.47288)"/>
<use data-text="1" xlink:href="#font_3_2" transform="matrix(9.9626,0,0,-9.962799,57.20199,305.47288)"/>
<use data-text="0" xlink:href="#font_3_1" transform="matrix(9.9626,0,0,-9.962799,62.18328,305.47288)"/>
<path transform="matrix(1,0,0,-1.00002,72.67799,160.94097)" stroke-width="1.19553" stroke-linecap="butt" stroke-miterlimit="10" stroke-linejoin="miter" fill="none" stroke="#00aeef" d="M-70.867-70.867H70.867"/>
<path transform="matrix(1,0,0,-1.00002,72.67799,160.94097)" stroke-width=".79701" stroke-linecap="butt" stroke-miterlimit="10" stroke-linejoin="miter" fill="none" stroke="#000000" d="M2.12592-70.867H-2.12613"/>
<path transform="matrix(1,0,0,-1.00002,72.67799,160.94097)" d="M-19.23996-75.48862H-4.5171797V-66.245388H-19.23996Z" fill="#ffffff"/>
<use data-text="&#x2212;" xlink:href="#font_2_1" transform="matrix(9.9626,0,0,-9.962799,54.43399,234.60443)"/>
<use data-text="5" xlink:href="#font_3_4" transform="matrix(9.9626,0,0,-9.962799,62.182985,234.60443)"/>
<path transform="matrix(1,0,0,-1.00002,72.67799,160.94097)" stroke-width="1.19553" stroke-linecap="butt" stroke-miterlimit="10" stroke-linejoin="miter" fill="none" stroke="#00aeef" d="M-70.867 70.867H70.867"/>
<path transform="matrix(1,0,0,-1.00002,72.67799,160.94097)" stroke-width=".79701" stroke-linecap="butt" stroke-miterlimit="10" stroke-linejoin="miter" fill="none" stroke="#000000" d="M2.12592 70.867H-2.12613"/>
<path transform="matrix(1,0,0,-1.00002,72.67799,160.94097)" d="M-11.49112 66.66052H-4.5171806V75.0735H-11.49112Z" fill="#ffffff"/>
<use data-text="5" xlink:href="#font_3_4" transform="matrix(9.9626,0,0,-9.962799,62.18299,93.28261)"/>
<path transform="matrix(1,0,0,-1.00002,72.67799,160.94097)" stroke-width="1.19553" stroke-linecap="butt" stroke-miterlimit="10" stroke-linejoin="miter" fill="none" stroke="#00aeef" d="M-70.867 141.73404H70.867"/>
<path transform="matrix(1,0,0,-1.00002,72.67799,160.94097)" stroke-width=".79701" stroke-linecap="butt" stroke-miterlimit="10" stroke-linejoin="miter" fill="none" stroke="#000000" d="M2.12592 141.73404H-2.12613"/>
<path transform="matrix(1,0,0,-1.00002,72.67799,160.94097)" d="M-16.47253 137.52754H-4.51719V145.94052H-16.47253Z" fill="#ffffff"/>
<use data-text="1" xlink:href="#font_3_2" transform="matrix(9.9626,0,0,-9.962799,57.201997,22.414185)"/>
<use data-text="0" xlink:href="#font_3_1" transform="matrix(9.9626,0,0,-9.962799,62.18329,22.414185)"/>
<path transform="matrix(1,0,0,-1.00002,72.67799,160.94097)" stroke-width="1.59404" stroke-linecap="butt" stroke-miterlimit="10" stroke-linejoin="miter" fill="none" stroke="#ff0000" d="M-62.87645 139.47954C-61.9544 135.39604-61.9544 135.39604-61.40482 133.01494-60.8552 130.63384-59.97382 126.87697-59.42422 124.57265-58.8746 122.26834-57.99323 118.63449-57.44363 116.40698-56.89401 114.17949-56.01263 110.66904-55.46303 108.51836-54.91344 106.36768-54.03204 102.98026-53.48244 100.90634-52.93285 98.83241-52.05145 95.56804-51.50185 93.57094-50.95226 91.57382-50.07088 88.43285-49.52126 86.51256-48.97166 84.59227-48.09027 81.5743-47.54066 79.73079-46.99106 77.8873-46.10968 74.99254-45.56007 73.22586-45.01047 71.45917-44.12909 68.68764-43.57948 66.99774-43.02988 65.30785-42.1485 62.65933-41.59889 61.04623-41.04929 59.43314-40.16791 56.90784-39.61832 55.37155-39.0687 53.83527-38.18732 51.43317-37.63771 49.9737-37.0881 48.51422-36.20673 46.23535-35.65712 44.85266-35.10751 43.46997-34.22614 41.31413-33.67653 40.00824-33.12692 38.70235-32.24554 36.66972-31.69594 35.44064-31.14633 34.21156-30.26494 32.30212-29.71535 31.14987-29.16573 29.9976-28.28435 28.21138-27.73476 27.13591-27.18515 26.06044-26.30376 24.39725-25.75417 23.39856-25.20456 22.39989-24.32317 20.85991-23.77357 19.93803-23.22397 19.01616-22.34259 17.59943-21.79298 16.75435-21.24338 15.90927-20.362 14.61552-19.81238 13.84726-19.26279 13.079-18.38141 11.90866-17.83179 11.21721-17.2822 10.52577-16.40082 9.47845-15.8512 8.86377-15.3016 8.24907-14.42023 7.32481-13.8706 6.78693-13.32101 6.24907-12.43962 5.4482-11.89001 4.98715-11.34041 4.5261-10.45903 3.84824-9.90944 3.46396-9.35982 3.0797-8.47844 2.52505-7.92885 2.2176-7.37923 1.91017-6.49785 1.47873-5.94826 1.24808-5.39864 1.01741-4.51726 .709-3.96767 .55516-3.41805 .4013-2.53667 .2163-1.98706 .13925-1.43745 .06224-.55608 .00024-.00647 0 .5431-.00024 1.42448 .06078 1.97409 .13731 2.52368 .21385 3.40508 .39832 3.95468 .55168 4.50427 .70505 5.38567 1.01253 5.93527 1.24266 6.48488 1.47282 7.36626 1.90353 7.91586 2.21046 8.46547 2.51741 9.34685 3.07112 9.89645 3.45488 10.44606 3.83862 11.32744 4.51576 11.87704 4.97633 12.42665 5.4369 13.30803 6.23703 13.85764 6.77438 14.40724 7.31175 15.28862 8.23514 15.83824 8.84927 16.38783 9.46344 17.26921 10.50981 17.81882 11.20078 18.36842 11.89174 19.2498 13.06152 19.79941 13.82932 20.34901 14.59708 21.2304 15.88991 21.78 16.73445 22.3296 17.57898 23.211 18.99483 23.76059 19.9162 24.31021 20.83755 25.19159 22.3768 25.74118 23.37498 26.2908 24.37315 27.17218 26.03542 27.72177 27.11038 28.2714 28.18535 29.15277 29.97081 29.70236 31.1226 30.25197 32.27438 31.13336 34.18306 31.68297 35.41165 32.23256 36.64026 33.11395 38.67213 33.66356 39.97754 34.21315 41.28291 35.09453 43.43784 35.64415 44.82 36.19374 46.20218 37.07512 48.48035 37.62474 49.93932 38.17433 51.39827 39.05571 53.79944 39.60533 55.33522 40.15492 56.871 41.03632 59.39558 41.58592 61.00818 42.13553 62.62077 43.0169 65.26836 43.56651 66.95773 44.11612 68.64713 44.9975 71.41791 45.54709 73.18411 46.09671 74.95032 46.97809 77.84433 47.52768 79.68732 48.0773 81.53032 48.95868 84.54736 49.50829 86.46715 50.05789 88.38692 50.93927 91.52718 51.48888 93.52377 52.03848 95.52037 52.91986 98.78383 53.46947 100.85724 54.01907 102.93066 54.90045 106.31732 55.45006 108.46754 55.99966 110.61774 56.88104 114.12744 57.43065 116.35443 57.98024 118.58144 58.86165 122.21436 59.41124 124.51816 59.96085 126.82196 60.84224 130.57808 61.39183 132.9587 61.94144 135.33933 63.37242 141.67607 62.86337 139.42162"/>
<path transform="matrix(-.2202,-.9754195,-.9754,.22020442,9.801563,21.458634)" d="M1.51433 0C-.37857 .37857-2.27148 1.13573-4.54298 2.46077-2.27148 .75716-2.27148-.75716-4.54298-2.46077-2.27148-1.13573-.37857-.37857 1.51433 0Z" fill="#ff0000"/>
<path transform="matrix(-.2202,-.9754195,-.9754,.22020442,9.801563,21.458634)" stroke-width="1.59404" stroke-linecap="butt" stroke-linejoin="round" fill="none" stroke="#ff0000" d="M1.51433 0C-.37857 .37857-2.27148 1.13573-4.54298 2.46077-2.27148 .75716-2.27148-.75716-4.54298-2.46077-2.27148-1.13573-.37857-.37857 1.51433 0Z"/>
<path transform="matrix(.22025,-.97540959,-.97539,-.2202544,135.54135,21.516571)" d="M1.51433 0C-.37857 .37857-2.27148 1.13573-4.54298 2.46077-2.27148 .75716-2.27148-.75716-4.54298-2.46077-2.27148-1.13573-.37857-.37857 1.51433 0Z" fill="#ff0000"/>
<path transform="matrix(.22025,-.97540959,-.97539,-.2202544,135.54135,21.516571)" stroke-width="1.59404" stroke-linecap="butt" stroke-linejoin="round" fill="none" stroke="#ff0000" d="M1.51433 0C-.37857 .37857-2.27148 1.13573-4.54298 2.46077-2.27148 .75716-2.27148-.75716-4.54298-2.46077-2.27148-1.13573-.37857-.37857 1.51433 0Z"/>
</svg>
