<svg xmlns="http://www.w3.org/2000/svg" xmlns:xlink="http://www.w3.org/1999/xlink" version="1.1" width="147" height="178" viewBox="0 0 147 178">
<defs>
<path id="font_1_1" d="M.33399964 .30233766C.33999635 .32835389 .36299134 .42037965 .43299867 .42037965 .43798829 .42037965 .46199037 .42037965 .48298646 .40734864 .45498658 .402359 .43499757 .37734986 .43499757 .35334779 .43499757 .33735658 .44599916 .31835938 .47299195 .31835938 .49499513 .31835938 .5269928 .3363495 .5269928 .37635804 .5269928 .42837525 .46798707 .4423828 .43399049 .4423828 .37599183 .4423828 .34098817 .38935853 .32899476 .36634828 .3039856 .43237306 .25 .4423828 .22099304 .4423828 .116989139 .4423828 .05999756 .3133545 .05999756 .28834535 .05999756 .27833558 .069992069 .27833558 .07199097 .27833558 .07998657 .27833558 .08299255 .28033448 .084991458 .28933717 .11898804 .39535523 .18499756 .42037965 .21899414 .42037965 .23799134 .42037965 .272995 .4113617 .272995 .35334779 .272995 .32235719 .2559967 .25532533 .21899414 .11528015 .20298767 .053268434 .16799927 .011245728 .12399292 .011245728 .117996219 .011245728 .09498596 .011245728 .07398987 .024276734 .09899902 .029266358 .12098694 .05027771 .12098694 .07827759 .12098694 .105270389 .09899902 .11328125 .083999637 .11328125 .053985597 .11328125 .0289917 .08728027 .0289917 .055267335 .0289917 .009246826 .07899475-.0107421879 .12298584-.0107421879 .18899536-.0107421879 .22499085 .059280397 .22799683 .0652771 .23999024 .028274537 .27598573-.0107421879 .33599855-.0107421879 .43899537-.0107421879 .49598695 .118270877 .49598695 .14328003 .49598695 .1532898 .4869995 .1532898 .48399354 .1532898 .47499085 .1532898 .47299195 .14929199 .47099305 .14228821 .43798829 .03527832 .36999513 .011245728 .33799745 .011245728 .29899598 .011245728 .2829895 .043273927 .2829895 .07727051 .2829895 .09927368 .2889862 .121276859 .2999878 .16529846L.33399964 .30233766Z"/>
<path id="font_1_2" d="M.48599244 .38136292C.48999024 .39537049 .48999024 .39736939 .48999024 .40437318 .48999024 .42237855 .47599793 .43138124 .46099855 .43138124 .45098878 .43138124 .43499757 .42536927 .42599488 .41036988 .42399598 .405365 .41600038 .37435914 .4119873 .35635377 .40499879 .33035279 .397995 .30334474 .3919983 .27633668L.34700013 .09628296C.34298707 .08126831 .2999878 .011245728 .23399353 .011245728 .18299866 .011245728 .17199707 .055267335 .17199707 .0922699 .17199707 .1382904 .18899536 .20030213 .22299195 .28833009 .23899842 .3293457 .24299622 .3403473 .24299622 .36035157 .24299622 .405365 .21099854 .4423828 .16099549 .4423828 .06599426 .4423828 .0289917 .29733277 .0289917 .28833009 .0289917 .27833558 .038986207 .27833558 .040985109 .27833558 .050994874 .27833558 .051986696 .28033448 .056991579 .29634095 .083999637 .3903656 .12399292 .42037965 .1579895 .42037965 .1659851 .42037965 .18299866 .42037965 .18299866 .3883667 .18299866 .36335755 .17298889 .3373413 .1659851 .31834413 .12599182 .21231079 .10798645 .1552887 .10798645 .10827637 .10798645 .019256592 .17098999-.0107421879 .22999573-.0107421879 .2689972-.0107421879 .30299378 .0062561037 .33099366 .03425598 .31799317-.017745972 .30599977-.06674194 .2659912-.11973572 .23999024-.15385437 .20199585-.18309021 .1559906-.18309021 .14199829-.18309021 .09700012-.18005371 .07998657-.14074707 .09599304-.14074707 .10899353-.14074707 .12298584-.1287384 .1329956-.11973572 .14299011-.10673523 .14299011-.08773804 .14299011-.056747438 .115997318-.052734376 .10598755-.052734376 .08299255-.052734376 .049987794-.068740848 .049987794-.11773682 .049987794-.16796875 .09399414-.20507813 .1559906-.20507813 .25898744-.20507813 .3619995-.11373901 .3899994-.00074768069L.48599244 .38136292Z"/>
<path id="font_2_1" d="M.6589966 .23046875C.6759949 .23046875 .69400027 .23046875 .69400027 .25045777 .69400027 .27046205 .6759949 .27046205 .6589966 .27046205H.117996219C.100997928 .27046205 .08299255 .27046205 .08299255 .25045777 .08299255 .23046875 .100997928 .23046875 .117996219 .23046875H.6589966Z"/>
<path id="font_3_3" d="M.1269989 .07699585 .23298645 .18003845C.3889923 .31811524 .44898988 .3721466 .44898988 .47216798 .44898988 .5860901 .35899354 .6660156 .23699951 .6660156 .12399292 .6660156 .049987794 .57411196 .049987794 .48516847 .049987794 .4291687 .099990848 .4291687 .102996829 .4291687 .11999512 .4291687 .15499878 .44117738 .15499878 .48217774 .15499878 .5081787 .13699341 .5341797 .101989749 .5341797 .09399414 .5341797 .09199524 .5341797 .08898926 .5331726 .11199951 .59806826 .1659851 .63500979 .22399903 .63500979 .31498719 .63500979 .35798646 .5541382 .35798646 .47216798 .35798646 .39215089 .30799867 .31311036 .25299073 .25108338L.06098938 .036987306C.049987794 .025985718 .049987794 .023986817 .049987794 0H.42099L.44898988 .17404175H.42399598C.4189911 .14402771 .4119873 .1000061 .4019928 .084991458 .394989 .07699585 .32899476 .07699585 .30699159 .07699585H.1269989Z"/>
<path id="font_3_4" d="M.44898988 .20022583C.44898988 .3193512 .36698915 .41944886 .25898744 .41944886 .21099854 .41944886 .16799927 .40345765 .13198853 .36842347V.5637665C.1519928 .5577698 .18499756 .55078127 .21699524 .55078127 .33999635 .55078127 .4099884 .6417694 .4099884 .6547699 .4099884 .6607666 .40699769 .6657715 .3999939 .6657715 .39898683 .6657715 .39698792 .6657715 .3919983 .66278079 .37199403 .6537781 .32299806 .6337738 .2559967 .6337738 .21598816 .6337738 .16999817 .6407776 .12298584 .6617737 .114990238 .66477969 .11299133 .66477969 .11099243 .66477969 .100997928 .66477969 .100997928 .6567688 .100997928 .6407776V.34439088C.100997928 .32637025 .100997928 .31835938 .114990238 .31835938 .12199402 .31835938 .12399292 .32136537 .12799073 .32736207 .13899231 .3433838 .17599488 .39746095 .25698854 .39746095 .30899049 .39746095 .33399964 .35139466 .34199525 .33337403 .35798646 .29632569 .3600006 .25727845 .3600006 .20722962 .3600006 .17222595 .3600006 .11222839 .33599855 .07035828 .31199647 .031463624 .2749939 .0055389406 .22898865 .0055389406 .1559906 .0055389406 .09899902 .058380128 .08198547 .11723328 .084991458 .1162262 .08799744 .115234378 .09899902 .115234378 .13198853 .115234378 .14898682 .14022827 .14898682 .16423035 .14898682 .18823242 .13198853 .21322632 .09899902 .21322632 .084991458 .21322632 .049987794 .20622254 .049987794 .16023255 .049987794 .07434082 .11898804-.022460938 .23098755-.022460938 .34700013-.022460938 .44898988 .073349 .44898988 .20022583Z"/>
<path id="font_3_2" d="M.2939911 .64004519C.2939911 .66400149 .2939911 .6660156 .2709961 .6660156 .20899964 .60227969 .12098694 .60227969 .08898926 .60227969V.57128909C.10899353 .57128909 .16799927 .57128909 .21998596 .5972748V.07902527C.21998596 .042999269 .21699524 .0309906 .1269989 .0309906H.09498596V0C.12998963 .0029907227 .21699524 .0029907227 .25698854 .0029907227 .29699708 .0029907227 .38398744 .0029907227 .4189911 0V.0309906H.3869934C.29699708 .0309906 .2939911 .041992189 .2939911 .07902527V.64004519Z"/>
<path id="font_3_1" d="M.45999146 .31976319C.45999146 .39982606 .45498658 .47988893 .41999818 .5539398 .37399293 .65000918 .2919922 .6660156 .25 .6660156 .18998719 .6660156 .116989139 .64001467 .07598877 .54693606 .04399109 .47789 .038986207 .39982606 .038986207 .31976319 .038986207 .24472046 .042999269 .15464783 .083999637 .07859802 .1269989-.0024719239 .19999695-.022460938 .24899292-.022460938 .30299378-.022460938 .3789978-.0014648438 .4229889 .09359741 .45498658 .16265869 .45999146 .2407074 .45999146 .31976319M.24899292-.00047302247C.20999146-.00047302247 .15098572 .024551392 .1329956 .12062073 .12199402 .18066406 .12199402 .2727356 .12199402 .3317871 .12199402 .39582826 .12199402 .46188355 .12998963 .5159149 .14898682 .63500979 .22399903 .64401248 .24899292 .64401248 .28199769 .64401248 .34799195 .6259918 .36698915 .52693179 .3769989 .47088624 .3769989 .39482118 .3769989 .3317871 .3769989 .25672914 .3769989 .18867493 .3659973 .12461853 .35099793 .029556275 .2939911-.00047302247 .24899292-.00047302247Z"/>
</defs>
<path transform="matrix(1.00002,0,0,-1.00005,63.65892,165.65364)" stroke-width=".3985" stroke-linecap="butt" stroke-miterlimit="10" stroke-linejoin="miter" fill="none" stroke="#00aeef" d="M-62.36331 0H62.36331M-62.36331 35.43349H62.36331M-62.36331 70.867H62.36331M-62.36331 106.30052H62.36331M-62.36331 141.73155H62.36331M-62.36331-7.08669V141.73404M-46.77248-7.08669V141.73404M-31.18166-7.08669V141.73404M-15.59082-7.08669V141.73404M0-7.08669V141.73404M15.59082-7.08669V141.73404M31.18166-7.08669V141.73404M46.77248-7.08669V141.73404M62.35783-7.08669V141.73404M62.36331 141.73404"/>
<path transform="matrix(1.00002,0,0,-1.00005,63.65892,165.65364)" stroke-width=".79701" stroke-linecap="butt" stroke-miterlimit="10" stroke-linejoin="miter" fill="none" stroke="#000000" d="M-62.36331 0H71.84222"/>
<path transform="matrix(1.00002,0,0,-1.00005,135.50258,165.65364)" d="M1.0361 0C-.25902 .25902-1.55415 .77707-3.1083 1.68365-1.55415 .51805-1.55415-.51805-3.1083-1.68365-1.55415-.77707-.25902-.25902 1.0361 0Z"/>
<path transform="matrix(1.00002,0,0,-1.00005,135.50258,165.65364)" stroke-width=".79701" stroke-linecap="butt" stroke-linejoin="round" fill="none" stroke="#000000" d="M1.0361 0C-.25902 .25902-1.55415 .77707-3.1083 1.68365-1.55415 .51805-1.55415-.51805-3.1083-1.68365-1.55415-.77707-.25902-.25902 1.0361 0Z"/>
<use data-text="x" xlink:href="#font_1_1" transform="matrix(9.962799,0,0,-9.963098,140.65647,167.79875)"/>
<path transform="matrix(1.00002,0,0,-1.00005,63.65892,165.65364)" stroke-width=".79701" stroke-linecap="butt" stroke-miterlimit="10" stroke-linejoin="miter" fill="none" stroke="#000000" d="M0-7.08669V152.3468"/>
<path transform="matrix(0,-1.00005,-1.00002,-0,63.65892,13.299225)" d="M1.0361 0C-.25902 .25902-1.55415 .77707-3.1083 1.68365-1.55415 .51805-1.55415-.51805-3.1083-1.68365-1.55415-.77707-.25902-.25902 1.0361 0Z"/>
<path transform="matrix(0,-1.00005,-1.00002,-0,63.65892,13.299225)" stroke-width=".79701" stroke-linecap="butt" stroke-linejoin="round" fill="none" stroke="#000000" d="M1.0361 0C-.25902 .25902-1.55415 .77707-3.1083 1.68365-1.55415 .51805-1.55415-.51805-3.1083-1.68365-1.55415-.77707-.25902-.25902 1.0361 0Z"/>
<use data-text="y" xlink:href="#font_1_2" transform="matrix(9.962799,0,0,-9.963098,61.037866,6.207672)"/>
<path transform="matrix(1.00002,0,0,-1.00005,63.65892,165.65364)" stroke-width=".79701" stroke-linecap="butt" stroke-miterlimit="10" stroke-linejoin="miter" fill="none" stroke="#000000" d="M-31.18166 1.10556V-1.02046"/>
<use data-text="&#x2212;" xlink:href="#font_2_1" transform="matrix(9.962799,0,0,-9.963098,26.111168,176.8142)"/>
<use data-text="2" xlink:href="#font_3_3" transform="matrix(9.962799,0,0,-9.963098,33.85932,176.8142)"/>
<path transform="matrix(1.00002,0,0,-1.00005,63.65892,165.65364)" stroke-width=".79701" stroke-linecap="butt" stroke-miterlimit="10" stroke-linejoin="miter" fill="none" stroke="#000000" d="M31.18166 1.10556V-1.02046"/>
<use data-text="2" xlink:href="#font_3_3" transform="matrix(9.962799,0,0,-9.963098,92.350498,176.8142)"/>
<path transform="matrix(1.00002,0,0,-1.00005,63.65892,165.65364)" stroke-width=".79701" stroke-linecap="butt" stroke-miterlimit="10" stroke-linejoin="miter" fill="none" stroke="#000000" d="M2.33852 35.43349H-2.33876"/>
<path transform="matrix(1.00002,0,0,-1.00005,63.65892,165.65364)" d="M-11.70375 31.227H-4.7298099V39.63998H-11.70375Z" fill="#ffffff"/>
<use data-text="5" xlink:href="#font_3_4" transform="matrix(9.962799,0,0,-9.963098,52.951707,133.42903)"/>
<path transform="matrix(1.00002,0,0,-1.00005,63.65892,165.65364)" stroke-width=".79701" stroke-linecap="butt" stroke-miterlimit="10" stroke-linejoin="miter" fill="none" stroke="#000000" d="M2.33852 70.867H-2.33876"/>
<path transform="matrix(1.00002,0,0,-1.00005,63.65892,165.65364)" d="M-16.68517 66.66052H-4.729829V75.0735H-16.68517Z" fill="#ffffff"/>
<use data-text="1" xlink:href="#font_3_2" transform="matrix(9.962799,0,0,-9.963098,47.969606,97.99326)"/>
<use data-text="0" xlink:href="#font_3_1" transform="matrix(9.962799,0,0,-9.963098,52.951005,97.99326)"/>
<path transform="matrix(1.00002,0,0,-1.00005,63.65892,165.65364)" stroke-width=".79701" stroke-linecap="butt" stroke-miterlimit="10" stroke-linejoin="miter" fill="none" stroke="#000000" d="M2.33852 106.30052H-2.33876"/>
<path transform="matrix(1.00002,0,0,-1.00005,63.65892,165.65364)" d="M-16.68517 102.09402H-4.729829V110.506999H-16.68517Z" fill="#ffffff"/>
<use data-text="1" xlink:href="#font_3_2" transform="matrix(9.962799,0,0,-9.963098,47.969606,62.558496)"/>
<use data-text="5" xlink:href="#font_3_4" transform="matrix(9.962799,0,0,-9.963098,52.951005,62.558496)"/>
<path transform="matrix(1.00002,0,0,-1.00005,63.65892,165.65364)" stroke-width=".79701" stroke-linecap="butt" stroke-miterlimit="10" stroke-linejoin="miter" fill="none" stroke="#000000" d="M2.33852 141.73404H-2.33876"/>
<path transform="matrix(1.00002,0,0,-1.00005,63.65892,165.65364)" d="M-16.68517 137.52754H-4.729829V145.94052H-16.68517Z" fill="#ffffff"/>
<use data-text="2" xlink:href="#font_3_3" transform="matrix(9.962799,0,0,-9.963098,47.969606,27.122727)"/>
<use data-text="0" xlink:href="#font_3_1" transform="matrix(9.962799,0,0,-9.963098,52.951005,27.122727)"/>
<path transform="matrix(1.00002,0,0,-1.00005,63.65892,165.65364)" stroke-width="1.19553" stroke-linecap="butt" stroke-miterlimit="10" stroke-linejoin="miter" fill="none" stroke="#cc0000" d="M-59.86679 139.93376C-59.01985 136.98064-59.01985 136.98064-58.49629 135.19483-57.97272 133.40898-57.13309 130.59133-56.60953 128.8631-56.08595 127.1349-55.24634 124.40964-54.72276 122.73901-54.19919 121.06839-53.35956 118.43546-52.836 116.82243-52.31244 115.20941-51.4728 112.66891-50.94923 111.11348-50.42567 109.55806-49.58604 107.10985-49.06248 105.61203-48.53891 104.11421-47.69928 101.7584-47.17572 100.31819-46.65215 98.87799-45.8125 96.6146-45.28896 95.23198-44.76538 93.84938-43.92575 91.67828-43.40219 90.35329-42.87862 89.02826-42.039 86.94962-41.51543 85.68219-40.99185 84.41478-40.15224 82.42844-39.62866 81.21861-39.10509 80.00879-38.26546 78.11487-37.7419 76.96265-37.21832 75.81044-36.37871 74.00883-35.85513 72.91422-35.33157 71.8196-34.49194 70.1104-33.96837 69.0734-33.4448 68.03638-32.60518 66.41959-32.0816 65.44017-31.55804 64.46075-30.71841 62.93628-30.19484 62.01447-29.6713 61.09265-28.83165 59.6606-28.30809 58.7964-27.78453 57.93217-26.94489 56.59242-26.42133 55.78581-25.89775 54.9792-25.05812 53.73186-24.53456 52.98285-24.01099 52.23386-23.17137 51.07893-22.6478 50.38753-22.12424 49.69612-21.2846 48.63353-20.76103 47.9997-20.23747 47.36588-19.39784 46.39561-18.87427 45.81938-18.3507 45.24316-17.51108 44.3653-16.9875 43.84668-16.46394 43.32808-15.62431 42.5426-15.10074 42.0816-14.57718 41.6206-13.73755 40.92754-13.21397 40.52415-12.69041 40.12074-11.85078 39.52002-11.32721 39.1742-10.80365 38.82838-9.96402 38.31996-9.44044 38.03175-8.9169 37.74355-8.07726 37.32755-7.5537 37.09692-7.03014 36.86632-6.19049 36.54272-5.66693 36.36972-5.14337 36.19672-4.30373 35.96544-3.78018 35.85002-3.2566 35.73463-2.41698 35.59575-1.8934 35.53796-1.36984 35.48016-.53021 35.43369-.00664 35.43349 .51689 35.4333 1.35652 35.47916 1.88008 35.53654 2.40366 35.59393 3.24327 35.73212 3.76685 35.8471 4.29042 35.9621 5.13004 36.19269 5.65361 36.3653 6.17719 36.53789 7.01682 36.8609 7.54037 37.09108 8.06395 37.32129 8.90356 37.7366 9.42714 38.0244 9.95068 38.31218 10.79033 38.81992 11.3139 39.16531 11.83746 39.51074 12.6771 40.11087 13.20067 40.51387 13.72423 40.91687 14.56386 41.60934 15.08742 42.06993 15.61098 42.53052 16.45062 43.31529 16.97418 43.8335 17.49774 44.35168 18.33737 45.22897 18.86095 45.80478 19.38452 46.38058 20.22414 47.35008 20.74771 47.98347 21.27129 48.61688 22.1109 49.6789 22.63448 50.36989 23.15804 51.06091 23.99767 52.21523 24.52124 52.96382 25.0448 53.71243 25.88443 54.95908 26.408 55.76527 26.93158 56.57146 27.7712 57.91052 28.29475 58.77432 28.81833 59.63812 29.65796 61.0696 30.18153 61.991 30.70508 62.91241 31.54472 64.43619 32.0683 65.4152 32.59184 66.3942 33.43149 68.01038 33.95506 69.047 34.47862 70.0836 35.31825 71.7922 35.8418 72.88643 36.36537 73.98064 37.20502 75.78156 37.72858 76.93336 38.25214 78.08516 39.09177 79.9784 39.61534 81.1878 40.1389 82.3972 40.97853 84.38297 41.50209 85.64998 42.02567 86.91698 42.8653 88.99493 43.38885 90.31953 43.91243 91.64415 44.75206 93.81464 45.27563 95.19684 45.7992 96.57904 46.63882 98.84174 47.1624 100.28154 47.68596 101.72134 48.52559 104.07655 49.04915 105.57396 49.57272 107.07138 50.41235 109.51889 50.93591 111.0739 51.45947 112.62892 52.29912 115.16884 52.8227 116.78145 53.34624 118.39407 54.18588 121.0263 54.70944 122.69653 55.233 124.36674 56.07265 127.09138 56.59619 128.8192 57.11977 130.54701 57.95941 133.36399 58.48296 135.1494 59.00653 136.93482 60.36974 141.68721 59.85335 139.88686"/>
<path transform="matrix(-.2756355,-.96128806,-.96125927,.27564378,3.7909432,25.712906)" d="M1.27522 0C-.31879 .31879-1.91284 .9564-3.8257 2.07224-1.91284 .6376-1.91284-.6376-3.8257-2.07224-1.91284-.9564-.31879-.31879 1.27522 0Z" fill="#cc0000"/>
<path transform="matrix(-.2756355,-.96128806,-.96125927,.27564378,3.7909432,25.712906)" stroke-width="1.19553" stroke-linecap="butt" stroke-linejoin="round" fill="none" stroke="#cc0000" d="M1.27522 0C-.31879 .31879-1.91284 .9564-3.8257 2.07224-1.91284 .6376-1.91284-.6376-3.8257-2.07224-1.91284-.9564-.31879-.31879 1.27522 0Z"/>
<path transform="matrix(.2757155,-.961278,-.96124926,-.27572377,123.51347,25.759812)" d="M1.27522 0C-.31879 .31879-1.91284 .9564-3.8257 2.07224-1.91284 .6376-1.91284-.6376-3.8257-2.07224-1.91284-.9564-.31879-.31879 1.27522 0Z" fill="#cc0000"/>
<path transform="matrix(.2757155,-.961278,-.96124926,-.27572377,123.51347,25.759812)" stroke-width="1.19553" stroke-linecap="butt" stroke-linejoin="round" fill="none" stroke="#cc0000" d="M1.27522 0C-.31879 .31879-1.91284 .9564-3.8257 2.07224-1.91284 .6376-1.91284-.6376-3.8257-2.07224-1.91284-.9564-.31879-.31879 1.27522 0Z"/>
</svg>
