<svg xmlns="http://www.w3.org/2000/svg" xmlns:xlink="http://www.w3.org/1999/xlink" version="1.1" width="138" height="148" viewBox="0 0 138 148">
<defs>
<path id="font_1_1" d="M.33399964 .30233766C.33999635 .32835389 .36299134 .42037965 .43299867 .42037965 .43798829 .42037965 .46199037 .42037965 .48298646 .40734864 .45498658 .402359 .43499757 .37734986 .43499757 .35334779 .43499757 .33735658 .44599916 .31835938 .47299195 .31835938 .49499513 .31835938 .5269928 .3363495 .5269928 .37635804 .5269928 .42837525 .46798707 .4423828 .43399049 .4423828 .37599183 .4423828 .34098817 .38935853 .32899476 .36634828 .3039856 .43237306 .25 .4423828 .22099304 .4423828 .116989139 .4423828 .05999756 .3133545 .05999756 .28834535 .05999756 .27833558 .069992069 .27833558 .07199097 .27833558 .07998657 .27833558 .08299255 .28033448 .084991458 .28933717 .11898804 .39535523 .18499756 .42037965 .21899414 .42037965 .23799134 .42037965 .272995 .4113617 .272995 .35334779 .272995 .32235719 .2559967 .25532533 .21899414 .11528015 .20298767 .053268434 .16799927 .011245728 .12399292 .011245728 .117996219 .011245728 .09498596 .011245728 .07398987 .024276734 .09899902 .029266358 .12098694 .05027771 .12098694 .07827759 .12098694 .105270389 .09899902 .11328125 .083999637 .11328125 .053985597 .11328125 .0289917 .08728027 .0289917 .055267335 .0289917 .009246826 .07899475-.0107421879 .12298584-.0107421879 .18899536-.0107421879 .22499085 .059280397 .22799683 .0652771 .23999024 .028274537 .27598573-.0107421879 .33599855-.0107421879 .43899537-.0107421879 .49598695 .118270877 .49598695 .14328003 .49598695 .1532898 .4869995 .1532898 .48399354 .1532898 .47499085 .1532898 .47299195 .14929199 .47099305 .14228821 .43798829 .03527832 .36999513 .011245728 .33799745 .011245728 .29899598 .011245728 .2829895 .043273927 .2829895 .07727051 .2829895 .09927368 .2889862 .121276859 .2999878 .16529846L.33399964 .30233766Z"/>
<path id="font_1_2" d="M.48599244 .38136292C.48999024 .39537049 .48999024 .39736939 .48999024 .40437318 .48999024 .42237855 .47599793 .43138124 .46099855 .43138124 .45098878 .43138124 .43499757 .42536927 .42599488 .41036988 .42399598 .405365 .41600038 .37435914 .4119873 .35635377 .40499879 .33035279 .397995 .30334474 .3919983 .27633668L.34700013 .09628296C.34298707 .08126831 .2999878 .011245728 .23399353 .011245728 .18299866 .011245728 .17199707 .055267335 .17199707 .0922699 .17199707 .1382904 .18899536 .20030213 .22299195 .28833009 .23899842 .3293457 .24299622 .3403473 .24299622 .36035157 .24299622 .405365 .21099854 .4423828 .16099549 .4423828 .06599426 .4423828 .0289917 .29733277 .0289917 .28833009 .0289917 .27833558 .038986207 .27833558 .040985109 .27833558 .050994874 .27833558 .051986696 .28033448 .056991579 .29634095 .083999637 .3903656 .12399292 .42037965 .1579895 .42037965 .1659851 .42037965 .18299866 .42037965 .18299866 .3883667 .18299866 .36335755 .17298889 .3373413 .1659851 .31834413 .12599182 .21231079 .10798645 .1552887 .10798645 .10827637 .10798645 .019256592 .17098999-.0107421879 .22999573-.0107421879 .2689972-.0107421879 .30299378 .0062561037 .33099366 .03425598 .31799317-.017745972 .30599977-.06674194 .2659912-.11973572 .23999024-.15385437 .20199585-.18309021 .1559906-.18309021 .14199829-.18309021 .09700012-.18005371 .07998657-.14074707 .09599304-.14074707 .10899353-.14074707 .12298584-.1287384 .1329956-.11973572 .14299011-.10673523 .14299011-.08773804 .14299011-.056747438 .115997318-.052734376 .10598755-.052734376 .08299255-.052734376 .049987794-.068740848 .049987794-.11773682 .049987794-.16796875 .09399414-.20507813 .1559906-.20507813 .25898744-.20507813 .3619995-.11373901 .3899994-.00074768069L.48599244 .38136292Z"/>
<path id="font_2_1" d="M.6589966 .23046875C.6759949 .23046875 .69400027 .23046875 .69400027 .25045777 .69400027 .27046205 .6759949 .27046205 .6589966 .27046205H.117996219C.100997928 .27046205 .08299255 .27046205 .08299255 .25045777 .08299255 .23046875 .100997928 .23046875 .117996219 .23046875H.6589966Z"/>
<path id="font_3_3" d="M.1269989 .07699585 .23298645 .18003845C.3889923 .31811524 .44898988 .3721466 .44898988 .47216798 .44898988 .5860901 .35899354 .6660156 .23699951 .6660156 .12399292 .6660156 .049987794 .57411196 .049987794 .48516847 .049987794 .4291687 .099990848 .4291687 .102996829 .4291687 .11999512 .4291687 .15499878 .44117738 .15499878 .48217774 .15499878 .5081787 .13699341 .5341797 .101989749 .5341797 .09399414 .5341797 .09199524 .5341797 .08898926 .5331726 .11199951 .59806826 .1659851 .63500979 .22399903 .63500979 .31498719 .63500979 .35798646 .5541382 .35798646 .47216798 .35798646 .39215089 .30799867 .31311036 .25299073 .25108338L.06098938 .036987306C.049987794 .025985718 .049987794 .023986817 .049987794 0H.42099L.44898988 .17404175H.42399598C.4189911 .14402771 .4119873 .1000061 .4019928 .084991458 .394989 .07699585 .32899476 .07699585 .30699159 .07699585H.1269989Z"/>
<path id="font_3_4" d="M.2939911 .16503906V.07800293C.2939911 .041992189 .2919922 .0309906 .21798706 .0309906H.19699097V0C.23799134 .0029907227 .2899933 .0029907227 .33198548 .0029907227 .37399293 .0029907227 .4269867 .0029907227 .46798707 0V.0309906H.44699098C.37298585 .0309906 .37098695 .041992189 .37098695 .07800293V.16503906H.47099305V.19602967H.37098695V.65075686C.37098695 .67074587 .37098695 .6767578 .35499574 .6767578 .34599305 .6767578 .34298707 .6767578 .33499146 .66474917L.027999878 .19602967V.16503906H.2939911M.2999878 .19602967H.055999757L.2999878 .5688019V.19602967Z"/>
<path id="font_3_6" d="M.13198853 .327713V.35173036C.13198853 .6047821 .2559967 .64100649 .30699159 .64100649 .33099366 .64100649 .37298585 .634964 .394989 .6007538 .37998963 .6007538 .33999635 .6007538 .33999635 .5557556 .33999635 .524765 .3639984 .5097656 .38598634 .5097656 .4019928 .5097656 .43199159 .51875308 .43199159 .5577545 .43199159 .6178589 .3880005 .6660156 .30499269 .6660156 .1769867 .6660156 .041992189 .5367584 .041992189 .31570436 .041992189 .048553468 .1579895-.022460938 .25099183-.022460938 .3619995-.022460938 .45700074 .07156372 .45700074 .2036438 .45700074 .33070375 .36799623 .4267578 .25698854 .4267578 .18899536 .4267578 .1519928 .37573243 .13198853 .327713M.25099183 .0055389406C.18798828 .0055389406 .1579895 .06556702 .1519928 .080566409 .13398743 .127594 .13398743 .2076416 .13398743 .22564698 .13398743 .30369569 .1659851 .40374757 .2559967 .40374757 .27198792 .40374757 .31799317 .40374757 .34899903 .34172059 .36698915 .30470277 .36698915 .2536621 .36698915 .20463562 .36698915 .15661621 .36698915 .10658264 .34999085 .0705719 .31999208 .010528564 .27398683 .0055389406 .25099183 .0055389406Z"/>
<path id="font_3_7" d="M.16299439 .4569702C.116989139 .486969 .11299133 .52098086 .11299133 .5379791 .11299133 .598999 .17799378 .64100649 .24899292 .64100649 .32199098 .64100649 .38598634 .58898928 .38598634 .51698306 .38598634 .45996095 .34700013 .4119568 .2869873 .37695313L.16299439 .4569702M.30899049 .36193849C.3809967 .3989563 .42999269 .45095826 .42999269 .51698306 .42999269 .6090088 .34098817 .6660156 .25 .6660156 .1499939 .6660156 .068984989 .59199526 .068984989 .49897767 .068984989 .4809723 .070999149 .43595887 .11299133 .38894654 .12399292 .37695313 .16099549 .35194398 .18598938 .33494569 .12799073 .30592347 .041992189 .24984741 .041992189 .15072632 .041992189 .04458618 .14399719-.022460938 .24899292-.022460938 .3619995-.022460938 .45700074 .06060791 .45700074 .16773987 .45700074 .20379639 .44599916 .24885559 .4079895 .2909088 .3889923 .31193543 .37298585 .3219452 .30899049 .36193849M.20899964 .3199463 .33198548 .24183655C.3600006 .2228241 .40699769 .19277954 .40699769 .13169861 .40699769 .05760193 .33198548 .0055389406 .25 .0055389406 .1639862 .0055389406 .09199524 .067611698 .09199524 .15072632 .09199524 .20880127 .12399292 .27288819 .20899964 .3199463Z"/>
<path id="font_3_5" d="M.44898988 .20022583C.44898988 .3193512 .36698915 .41944886 .25898744 .41944886 .21099854 .41944886 .16799927 .40345765 .13198853 .36842347V.5637665C.1519928 .5577698 .18499756 .55078127 .21699524 .55078127 .33999635 .55078127 .4099884 .6417694 .4099884 .6547699 .4099884 .6607666 .40699769 .6657715 .3999939 .6657715 .39898683 .6657715 .39698792 .6657715 .3919983 .66278079 .37199403 .6537781 .32299806 .6337738 .2559967 .6337738 .21598816 .6337738 .16999817 .6407776 .12298584 .6617737 .114990238 .66477969 .11299133 .66477969 .11099243 .66477969 .100997928 .66477969 .100997928 .6567688 .100997928 .6407776V.34439088C.100997928 .32637025 .100997928 .31835938 .114990238 .31835938 .12199402 .31835938 .12399292 .32136537 .12799073 .32736207 .13899231 .3433838 .17599488 .39746095 .25698854 .39746095 .30899049 .39746095 .33399964 .35139466 .34199525 .33337403 .35798646 .29632569 .3600006 .25727845 .3600006 .20722962 .3600006 .17222595 .3600006 .11222839 .33599855 .07035828 .31199647 .031463624 .2749939 .0055389406 .22898865 .0055389406 .1559906 .0055389406 .09899902 .058380128 .08198547 .11723328 .084991458 .1162262 .08799744 .115234378 .09899902 .115234378 .13198853 .115234378 .14898682 .14022827 .14898682 .16423035 .14898682 .18823242 .13198853 .21322632 .09899902 .21322632 .084991458 .21322632 .049987794 .20622254 .049987794 .16023255 .049987794 .07434082 .11898804-.022460938 .23098755-.022460938 .34700013-.022460938 .44898988 .073349 .44898988 .20022583Z"/>
<path id="font_3_2" d="M.2939911 .64004519C.2939911 .66400149 .2939911 .6660156 .2709961 .6660156 .20899964 .60227969 .12098694 .60227969 .08898926 .60227969V.57128909C.10899353 .57128909 .16799927 .57128909 .21998596 .5972748V.07902527C.21998596 .042999269 .21699524 .0309906 .1269989 .0309906H.09498596V0C.12998963 .0029907227 .21699524 .0029907227 .25698854 .0029907227 .29699708 .0029907227 .38398744 .0029907227 .4189911 0V.0309906H.3869934C.29699708 .0309906 .2939911 .041992189 .2939911 .07902527V.64004519Z"/>
<path id="font_3_1" d="M.45999146 .31976319C.45999146 .39982606 .45498658 .47988893 .41999818 .5539398 .37399293 .65000918 .2919922 .6660156 .25 .6660156 .18998719 .6660156 .116989139 .64001467 .07598877 .54693606 .04399109 .47789 .038986207 .39982606 .038986207 .31976319 .038986207 .24472046 .042999269 .15464783 .083999637 .07859802 .1269989-.0024719239 .19999695-.022460938 .24899292-.022460938 .30299378-.022460938 .3789978-.0014648438 .4229889 .09359741 .45498658 .16265869 .45999146 .2407074 .45999146 .31976319M.24899292-.00047302247C.20999146-.00047302247 .15098572 .024551392 .1329956 .12062073 .12199402 .18066406 .12199402 .2727356 .12199402 .3317871 .12199402 .39582826 .12199402 .46188355 .12998963 .5159149 .14898682 .63500979 .22399903 .64401248 .24899292 .64401248 .28199769 .64401248 .34799195 .6259918 .36698915 .52693179 .3769989 .47088624 .3769989 .39482118 .3769989 .3317871 .3769989 .25672914 .3769989 .18867493 .3659973 .12461853 .35099793 .029556275 .2939911-.00047302247 .24899292-.00047302247Z"/>
</defs>
<path transform="matrix(1,0,0,-1.00005,29.259003,134.89409)" stroke-width=".3985" stroke-linecap="butt" stroke-miterlimit="10" stroke-linejoin="miter" fill="none" stroke="#00aeef" d="M-22.6771 0H90.70839M-22.6771 28.34636H90.70839M-22.6771 56.69275H90.70839M-22.6771 85.03911H90.70839M-22.6771 113.38351H90.70839M-22.6771-5.66927V113.3855M-11.33855-5.66927V113.3855M0-5.66927V113.3855M11.33855-5.66927V113.3855M22.6771-5.66927V113.3855M34.01564-5.66927V113.3855M45.35419-5.66927V113.3855M56.69275-5.66927V113.3855M68.0313-5.66927V113.3855M79.36984-5.66927V113.3855M90.7044-5.66927V113.3855M90.70839 113.3855"/>
<path transform="matrix(1,0,0,-1.00005,29.259003,134.89409)" stroke-width=".79701" stroke-linecap="butt" stroke-miterlimit="10" stroke-linejoin="miter" fill="none" stroke="#000000" d="M-22.6771 0H97.21072"/>
<path transform="matrix(1,0,0,-1.00005,126.46972,134.89409)" d="M1.0361 0C-.25902 .25902-1.55415 .77707-3.1083 1.68365-1.55415 .51805-1.55415-.51805-3.1083-1.68365-1.55415-.77707-.25902-.25902 1.0361 0Z"/>
<path transform="matrix(1,0,0,-1.00005,126.46972,134.89409)" stroke-width=".79701" stroke-linecap="butt" stroke-linejoin="round" fill="none" stroke="#000000" d="M1.0361 0C-.25902 .25902-1.55415 .77707-3.1083 1.68365-1.55415 .51805-1.55415-.51805-3.1083-1.68365-1.55415-.77707-.25902-.25902 1.0361 0Z"/>
<use data-text="x" xlink:href="#font_1_1" transform="matrix(9.9626,0,0,-9.963098,131.623,137.0392)"/>
<path transform="matrix(1,0,0,-1.00005,29.259003,134.89409)" stroke-width=".79701" stroke-linecap="butt" stroke-miterlimit="10" stroke-linejoin="miter" fill="none" stroke="#000000" d="M0-5.66927V121.58864"/>
<path transform="matrix(0,-1.00005,-1,-0,29.259003,13.299377)" d="M1.0361 0C-.25902 .25902-1.55415 .77707-3.1083 1.68365-1.55415 .51805-1.55415-.51805-3.1083-1.68365-1.55415-.77707-.25902-.25902 1.0361 0Z"/>
<path transform="matrix(0,-1.00005,-1,-0,29.259003,13.299377)" stroke-width=".79701" stroke-linecap="butt" stroke-linejoin="round" fill="none" stroke="#000000" d="M1.0361 0C-.25902 .25902-1.55415 .77707-3.1083 1.68365-1.55415 .51805-1.55415-.51805-3.1083-1.68365-1.55415-.77707-.25902-.25902 1.0361 0Z"/>
<use data-text="y" xlink:href="#font_1_2" transform="matrix(9.9626,0,0,-9.963098,26.638,6.208664)"/>
<path transform="matrix(1,0,0,-1.00005,29.259003,134.89409)" stroke-width=".79701" stroke-linecap="butt" stroke-miterlimit="10" stroke-linejoin="miter" fill="none" stroke="#000000" d="M-22.6771 .88443V-.81635"/>
<use data-text="&#x2212;" xlink:href="#font_2_1" transform="matrix(9.9626,0,0,-9.963098,.21700287,145.85063)"/>
<use data-text="2" xlink:href="#font_3_3" transform="matrix(9.9626,0,0,-9.963098,7.9660036,145.85063)"/>
<path transform="matrix(1,0,0,-1.00005,29.259003,134.89409)" stroke-width=".79701" stroke-linecap="butt" stroke-miterlimit="10" stroke-linejoin="miter" fill="none" stroke="#000000" d="M22.6771 .88443V-.81635"/>
<use data-text="2" xlink:href="#font_3_3" transform="matrix(9.9626,0,0,-9.963098,49.445009,145.85063)"/>
<path transform="matrix(1,0,0,-1.00005,29.259003,134.89409)" stroke-width=".79701" stroke-linecap="butt" stroke-miterlimit="10" stroke-linejoin="miter" fill="none" stroke="#000000" d="M45.35419 .88443V-.81635"/>
<use data-text="4" xlink:href="#font_3_4" transform="matrix(9.9626,0,0,-9.963098,72.123,145.85063)"/>
<path transform="matrix(1,0,0,-1.00005,29.259003,134.89409)" stroke-width=".79701" stroke-linecap="butt" stroke-miterlimit="10" stroke-linejoin="miter" fill="none" stroke="#000000" d="M68.0313 .88443V-.81635"/>
<use data-text="6" xlink:href="#font_3_6" transform="matrix(9.9626,0,0,-9.963098,94.8,145.85063)"/>
<path transform="matrix(1,0,0,-1.00005,29.259003,134.89409)" stroke-width=".79701" stroke-linecap="butt" stroke-miterlimit="10" stroke-linejoin="miter" fill="none" stroke="#000000" d="M90.70839 .88443V-.81635"/>
<use data-text="8" xlink:href="#font_3_7" transform="matrix(9.9626,0,0,-9.963098,117.477008,145.85063)"/>
<path transform="matrix(1,0,0,-1.00005,29.259003,134.89409)" stroke-width=".79701" stroke-linecap="butt" stroke-miterlimit="10" stroke-linejoin="miter" fill="none" stroke="#000000" d="M1.7007 28.34636H-1.70087"/>
<path transform="matrix(1,0,0,-1.00005,29.259003,134.89409)" d="M-11.06586 24.13986H-4.09192V32.55284H-11.06586Z" fill="#ffffff"/>
<use data-text="5" xlink:href="#font_3_5" transform="matrix(9.9626,0,0,-9.963098,19.189003,109.756839)"/>
<path transform="matrix(1,0,0,-1.00005,29.259003,134.89409)" stroke-width=".79701" stroke-linecap="butt" stroke-miterlimit="10" stroke-linejoin="miter" fill="none" stroke="#000000" d="M1.7007 56.69275H-1.70087"/>
<path transform="matrix(1,0,0,-1.00005,29.259003,134.89409)" d="M-16.04727 52.48625H-4.0919296V60.89923H-16.04727Z" fill="#ffffff"/>
<use data-text="1" xlink:href="#font_3_2" transform="matrix(9.9626,0,0,-9.963098,14.208,81.40842)"/>
<use data-text="0" xlink:href="#font_3_1" transform="matrix(9.9626,0,0,-9.963098,19.1893,81.40842)"/>
<path transform="matrix(1,0,0,-1.00005,29.259003,134.89409)" stroke-width=".79701" stroke-linecap="butt" stroke-miterlimit="10" stroke-linejoin="miter" fill="none" stroke="#000000" d="M1.7007 85.03911H-1.70087"/>
<path transform="matrix(1,0,0,-1.00005,29.259003,134.89409)" d="M-16.04727 80.83263H-4.0919296V89.245609H-16.04727Z" fill="#ffffff"/>
<use data-text="1" xlink:href="#font_3_2" transform="matrix(9.9626,0,0,-9.963098,14.208,53.060998)"/>
<use data-text="5" xlink:href="#font_3_5" transform="matrix(9.9626,0,0,-9.963098,19.1893,53.060998)"/>
<path transform="matrix(1,0,0,-1.00005,29.259003,134.89409)" stroke-width=".79701" stroke-linecap="butt" stroke-miterlimit="10" stroke-linejoin="miter" fill="none" stroke="#000000" d="M1.7007 113.3855H-1.70087"/>
<path transform="matrix(1,0,0,-1.00005,29.259003,134.89409)" d="M-16.04727 109.179H-4.0919296V117.59198H-16.04727Z" fill="#ffffff"/>
<use data-text="2" xlink:href="#font_3_3" transform="matrix(9.9626,0,0,-9.963098,14.208,24.713585)"/>
<use data-text="0" xlink:href="#font_3_1" transform="matrix(9.9626,0,0,-9.963098,19.1893,24.713585)"/>
<path transform="matrix(1,0,0,-1.00005,29.259003,134.89409)" stroke-width="1.19553" stroke-linecap="butt" stroke-miterlimit="10" stroke-linejoin="miter" fill="none" stroke="#cc0000" d="M-16.27945 111.55858C-15.54712 108.31519-15.54712 108.31519-15.10745 106.41031-14.66776 104.50546-13.96266 101.50002-13.523 99.65659-13.08331 97.81319-12.37822 94.90623-11.93855 93.12425-11.49886 91.34229-10.79376 88.53389-10.3541 86.81335-9.91441 85.09282-9.20932 82.38293-8.76964 80.72383-8.32996 79.06474-7.62486 76.45334-7.1852 74.85568-6.74551 73.25803-6.04042 70.74521-5.60075 69.20898-5.16106 67.67278-4.45596 65.25844-4.0163 63.78366-3.57663 62.30887-2.87152 59.9931-2.43184 58.57979-1.99217 57.16646-1.28706 54.94926-.8474 53.59737-.40773 52.24547 .29735 50.1267 .73701 48.83624 1.17668 47.54578 1.88179 45.52565 2.32146 44.29665 2.76114 43.06764 3.46625 41.146 3.90591 39.97842 4.3456 38.81085 5.05069 36.98772 5.49037 35.88158 5.93004 34.77545 6.63513 33.05087 7.07481 32.00618 7.51448 30.9615 8.21957 29.3354 8.65926 28.35216 9.09894 27.36891 9.80403 25.8414 10.24371 24.91959 10.6834 23.99777 11.38847 22.56877 11.82817 21.70839 12.26784 20.84802 12.97293 19.51749 13.41261 18.71855 13.85228 17.91963 14.55737 16.68774 14.99706 15.95027 15.43674 15.21278 16.14182 14.07932 16.5815 13.40327 17.02118 12.7272 17.72627 11.69232 18.16595 11.07771 18.60564 10.46312 19.31073 9.52678 19.7504 8.97363 20.19008 8.42046 20.89517 7.58263 21.33484 7.09091 21.77454 6.59917 22.47963 5.85983 22.9193 5.42955 23.35898 4.99925 24.06407 4.35849 24.50375 3.98964 24.94344 3.62082 25.64853 3.07861 26.0882 2.77121 26.52788 2.4638 27.23297 2.02011 27.67265 1.77414 28.11232 1.52817 28.81743 1.18297 29.2571 .99844 29.69676 .8139 30.40187 .56728 30.84154 .4442 31.28122 .32112 31.98633 .17303 32.426 .1114 32.86568 .04977 33.57077 .00018 34.01045 0 34.45012-.00018 35.15523 .0487 35.5949 .10994 36.03456 .17117 36.73967 .31865 37.17934 .44133 37.61902 .56401 38.32411 .81 38.7638 .99411 39.20348 1.17824 39.90855 1.5228 40.34825 1.76834 40.78792 2.0139 41.49301 2.45694 41.9327 2.76395 42.37236 3.07094 43.07745 3.61256 43.51714 3.98102 43.95682 4.34944 44.6619 4.98955 45.1016 5.41942 45.54126 5.84932 46.24635 6.58798 46.68605 7.07932 47.12572 7.57063 47.83081 8.40779 48.27048 8.96057 48.71016 9.51334 49.41525 10.44907 49.85492 11.06328 50.29462 11.67749 50.99971 12.71172 51.43938 13.38734 51.87906 14.06297 52.58415 15.19572 53.02383 15.93279 53.46352 16.66988 54.16861 17.90117 54.60828 18.6997 55.04796 19.49823 55.75305 20.82808 56.19272 21.68806 56.63242 22.54802 57.33751 23.97636 57.77718 24.8978 58.21686 25.8192 58.92195 27.34612 59.36163 28.32896 59.8013 29.31183 60.50641 30.93726 60.94608 31.98154 61.38574 33.02582 62.09085 34.74973 62.53053 35.85545 62.9702 36.96117 63.67531 38.78366 64.11497 39.95084 64.55464 41.118 65.25975 43.03897 65.69942 44.26758 66.1391 45.49619 66.84421 47.51572 67.28387 48.80579 67.72356 50.09584 68.42865 52.21394 68.86833 53.56546 69.308 54.91696 70.01309 57.13354 70.45277 58.54648 70.89244 59.95941 71.59753 62.27452 72.03722 63.74889 72.4769 65.22327 73.18199 67.63692 73.62167 69.17273 74.06136 70.70856 74.76643 73.22072 75.20613 74.81798 75.6458 76.41524 76.35089 79.02596 76.79057 80.68465 77.23024 82.34335 77.93533 85.05257 78.37502 86.7727 78.8147 88.49284 79.51978 91.30063 79.95946 93.08221 80.39914 94.86378 81.10423 97.77007 81.54391 99.61308 81.9836 101.45612 82.68869 104.46097 83.12836 106.36542 83.56804 108.26988 84.7128 113.33913 84.3003 111.51225"/>
<path transform="matrix(-.2202,-.97544869,-.9754,.220211,12.979553,23.329957)" d="M1.27522 0C-.31879 .31879-1.91284 .9564-3.8257 2.07224-1.91284 .6376-1.91284-.6376-3.8257-2.07224-1.91284-.9564-.31879-.31879 1.27522 0Z" fill="#cc0000"/>
<path transform="matrix(-.2202,-.97544869,-.9754,.220211,12.979553,23.329957)" stroke-width="1.19553" stroke-linecap="butt" stroke-linejoin="round" fill="none" stroke="#cc0000" d="M1.27522 0C-.31879 .31879-1.91284 .9564-3.8257 2.07224-1.91284 .6376-1.91284-.6376-3.8257-2.07224-1.91284-.9564-.31879-.31879 1.27522 0Z"/>
<path transform="matrix(.22025,-.9754387,-.97539,-.220261,113.55928,23.376267)" d="M1.27522 0C-.31879 .31879-1.91284 .9564-3.8257 2.07224-1.91284 .6376-1.91284-.6376-3.8257-2.07224-1.91284-.9564-.31879-.31879 1.27522 0Z" fill="#cc0000"/>
<path transform="matrix(.22025,-.9754387,-.97539,-.220261,113.55928,23.376267)" stroke-width="1.19553" stroke-linecap="butt" stroke-linejoin="round" fill="none" stroke="#cc0000" d="M1.27522 0C-.31879 .31879-1.91284 .9564-3.8257 2.07224-1.91284 .6376-1.91284-.6376-3.8257-2.07224-1.91284-.9564-.31879-.31879 1.27522 0Z"/>
</svg>
