<svg xmlns="http://www.w3.org/2000/svg" xmlns:xlink="http://www.w3.org/1999/xlink" version="1.1" width="131" height="160" viewBox="0 0 131 160">
<defs>
<path id="font_1_1" d="M.33399964 .30233766C.33999635 .32835389 .36299134 .42037965 .43299867 .42037965 .43798829 .42037965 .46199037 .42037965 .48298646 .40734864 .45498658 .402359 .43499757 .37734986 .43499757 .35334779 .43499757 .33735658 .44599916 .31835938 .47299195 .31835938 .49499513 .31835938 .5269928 .3363495 .5269928 .37635804 .5269928 .42837525 .46798707 .4423828 .43399049 .4423828 .37599183 .4423828 .34098817 .38935853 .32899476 .36634828 .3039856 .43237306 .25 .4423828 .22099304 .4423828 .116989139 .4423828 .05999756 .3133545 .05999756 .28834535 .05999756 .27833558 .069992069 .27833558 .07199097 .27833558 .07998657 .27833558 .08299255 .28033448 .084991458 .28933717 .11898804 .39535523 .18499756 .42037965 .21899414 .42037965 .23799134 .42037965 .272995 .4113617 .272995 .35334779 .272995 .32235719 .2559967 .25532533 .21899414 .11528015 .20298767 .053268434 .16799927 .011245728 .12399292 .011245728 .117996219 .011245728 .09498596 .011245728 .07398987 .024276734 .09899902 .029266358 .12098694 .05027771 .12098694 .07827759 .12098694 .105270389 .09899902 .11328125 .083999637 .11328125 .053985597 .11328125 .0289917 .08728027 .0289917 .055267335 .0289917 .009246826 .07899475-.0107421879 .12298584-.0107421879 .18899536-.0107421879 .22499085 .059280397 .22799683 .0652771 .23999024 .028274537 .27598573-.0107421879 .33599855-.0107421879 .43899537-.0107421879 .49598695 .118270877 .49598695 .14328003 .49598695 .1532898 .4869995 .1532898 .48399354 .1532898 .47499085 .1532898 .47299195 .14929199 .47099305 .14228821 .43798829 .03527832 .36999513 .011245728 .33799745 .011245728 .29899598 .011245728 .2829895 .043273927 .2829895 .07727051 .2829895 .09927368 .2889862 .121276859 .2999878 .16529846L.33399964 .30233766Z"/>
<path id="font_1_2" d="M.48599244 .38136292C.48999024 .39537049 .48999024 .39736939 .48999024 .40437318 .48999024 .42237855 .47599793 .43138124 .46099855 .43138124 .45098878 .43138124 .43499757 .42536927 .42599488 .41036988 .42399598 .405365 .41600038 .37435914 .4119873 .35635377 .40499879 .33035279 .397995 .30334474 .3919983 .27633668L.34700013 .09628296C.34298707 .08126831 .2999878 .011245728 .23399353 .011245728 .18299866 .011245728 .17199707 .055267335 .17199707 .0922699 .17199707 .1382904 .18899536 .20030213 .22299195 .28833009 .23899842 .3293457 .24299622 .3403473 .24299622 .36035157 .24299622 .405365 .21099854 .4423828 .16099549 .4423828 .06599426 .4423828 .0289917 .29733277 .0289917 .28833009 .0289917 .27833558 .038986207 .27833558 .040985109 .27833558 .050994874 .27833558 .051986696 .28033448 .056991579 .29634095 .083999637 .3903656 .12399292 .42037965 .1579895 .42037965 .1659851 .42037965 .18299866 .42037965 .18299866 .3883667 .18299866 .36335755 .17298889 .3373413 .1659851 .31834413 .12599182 .21231079 .10798645 .1552887 .10798645 .10827637 .10798645 .019256592 .17098999-.0107421879 .22999573-.0107421879 .2689972-.0107421879 .30299378 .0062561037 .33099366 .03425598 .31799317-.017745972 .30599977-.06674194 .2659912-.11973572 .23999024-.15385437 .20199585-.18309021 .1559906-.18309021 .14199829-.18309021 .09700012-.18005371 .07998657-.14074707 .09599304-.14074707 .10899353-.14074707 .12298584-.1287384 .1329956-.11973572 .14299011-.10673523 .14299011-.08773804 .14299011-.056747438 .115997318-.052734376 .10598755-.052734376 .08299255-.052734376 .049987794-.068740848 .049987794-.11773682 .049987794-.16796875 .09399414-.20507813 .1559906-.20507813 .25898744-.20507813 .3619995-.11373901 .3899994-.00074768069L.48599244 .38136292Z"/>
<path id="font_2_1" d="M.44898988 .20022583C.44898988 .3193512 .36698915 .41944886 .25898744 .41944886 .21099854 .41944886 .16799927 .40345765 .13198853 .36842347V.5637665C.1519928 .5577698 .18499756 .55078127 .21699524 .55078127 .33999635 .55078127 .4099884 .6417694 .4099884 .6547699 .4099884 .6607666 .40699769 .6657715 .3999939 .6657715 .39898683 .6657715 .39698792 .6657715 .3919983 .66278079 .37199403 .6537781 .32299806 .6337738 .2559967 .6337738 .21598816 .6337738 .16999817 .6407776 .12298584 .6617737 .114990238 .66477969 .11299133 .66477969 .11099243 .66477969 .100997928 .66477969 .100997928 .6567688 .100997928 .6407776V.34439088C.100997928 .32637025 .100997928 .31835938 .114990238 .31835938 .12199402 .31835938 .12399292 .32136537 .12799073 .32736207 .13899231 .3433838 .17599488 .39746095 .25698854 .39746095 .30899049 .39746095 .33399964 .35139466 .34199525 .33337403 .35798646 .29632569 .3600006 .25727845 .3600006 .20722962 .3600006 .17222595 .3600006 .11222839 .33599855 .07035828 .31199647 .031463624 .2749939 .0055389406 .22898865 .0055389406 .1559906 .0055389406 .09899902 .058380128 .08198547 .11723328 .084991458 .1162262 .08799744 .115234378 .09899902 .115234378 .13198853 .115234378 .14898682 .14022827 .14898682 .16423035 .14898682 .18823242 .13198853 .21322632 .09899902 .21322632 .084991458 .21322632 .049987794 .20622254 .049987794 .16023255 .049987794 .07434082 .11898804-.022460938 .23098755-.022460938 .34700013-.022460938 .44898988 .073349 .44898988 .20022583Z"/>
</defs>
<path transform="matrix(1.00008,0,0,-1,18.504044,124.09)" stroke-width=".3985" stroke-linecap="butt" stroke-miterlimit="10" stroke-linejoin="miter" fill="none" stroke="#00aeef" d="M-17.00824-34.0165H85.04128M-17.00824-17.00824H85.04128M-17.00824 0H85.04128M-17.00824 17.00824H85.04128M-17.00824 34.0165H85.04128M-17.00824 51.02477H85.04128M-17.00824 68.03302H85.04128M-17.00824 85.04128H85.04128M-17.00824 102.04356H85.04128M-17.00824-34.0165V102.04953M0-34.0165V102.04953M17.00824-34.0165V102.04953M34.0165-34.0165V102.04953M51.02477-34.0165V102.04953M68.03302-34.0165V102.04953M85.0353-34.0165V102.04953M85.04128 102.04953"/>
<path transform="matrix(1.00008,0,0,-1,18.504044,124.09)" stroke-width=".79701" stroke-linecap="butt" stroke-miterlimit="10" stroke-linejoin="miter" fill="none" stroke="#000000" d="M-17.00824 0H100.61493"/>
<path transform="matrix(1.00008,0,0,-1,119.12702,124.09)" d="M1.0361 0C-.25902 .25902-1.55415 .77707-3.1083 1.68365-1.55415 .51805-1.55415-.51805-3.1083-1.68365-1.55415-.77707-.25902-.25902 1.0361 0Z"/>
<path transform="matrix(1.00008,0,0,-1,119.12702,124.09)" stroke-width=".79701" stroke-linecap="butt" stroke-linejoin="round" fill="none" stroke="#000000" d="M1.0361 0C-.25902 .25902-1.55415 .77707-3.1083 1.68365-1.55415 .51805-1.55415-.51805-3.1083-1.68365-1.55415-.77707-.25902-.25902 1.0361 0Z"/>
<use data-text="x" xlink:href="#font_1_1" transform="matrix(9.963397,0,0,-9.9626,124.2815,126.235)"/>
<path transform="matrix(1.00008,0,0,-1,18.504044,124.09)" stroke-width=".79701" stroke-linecap="butt" stroke-miterlimit="10" stroke-linejoin="miter" fill="none" stroke="#000000" d="M0-34.0165V117.62318"/>
<path transform="matrix(0,-1,-1.00008,-0,18.504044,6.46682)" d="M1.0361 0C-.25902 .25902-1.55415 .77707-3.1083 1.68365-1.55415 .51805-1.55415-.51805-3.1083-1.68365-1.55415-.77707-.25902-.25902 1.0361 0Z"/>
<path transform="matrix(0,-1,-1.00008,-0,18.504044,6.46682)" stroke-width=".79701" stroke-linecap="butt" stroke-linejoin="round" fill="none" stroke="#000000" d="M1.0361 0C-.25902 .25902-1.55415 .77707-3.1083 1.68365-1.55415 .51805-1.55415-.51805-3.1083-1.68365-1.55415-.77707-.25902-.25902 1.0361 0Z"/>
<use data-text="y" xlink:href="#font_1_2" transform="matrix(9.963397,0,0,-9.9626,11.534485,6.2079927)"/>
<path transform="matrix(1.00008,0,0,-1,18.504044,124.09)" stroke-width="1.19553" stroke-linecap="butt" stroke-miterlimit="10" stroke-linejoin="miter" fill="none" stroke="#00aeef" d="M85.04128-34.0165V102.04953"/>
<path transform="matrix(1.00008,0,0,-1,18.504044,124.09)" stroke-width=".79701" stroke-linecap="butt" stroke-miterlimit="10" stroke-linejoin="miter" fill="none" stroke="#000000" d="M85.04128 2.55112V-2.55139"/>
<path transform="matrix(1.00008,0,0,-1,18.504044,124.09)" d="M81.5543-13.35544H88.52824V-4.94246H81.5543Z" fill="#ffffff"/>
<use data-text="5" xlink:href="#font_2_1" transform="matrix(9.963397,0,0,-9.9626,101.061649,136.449)"/>
<path transform="matrix(1.00008,0,0,-1,18.504044,124.09)" stroke-width="1.19553" stroke-linecap="butt" stroke-miterlimit="10" stroke-linejoin="miter" fill="none" stroke="#00aeef" d="M-17.00824 85.04128H85.04128"/>
<path transform="matrix(1.00008,0,0,-1,18.504044,124.09)" stroke-width=".79701" stroke-linecap="butt" stroke-miterlimit="10" stroke-linejoin="miter" fill="none" stroke="#000000" d="M2.55112 85.04128H-2.55139"/>
<path transform="matrix(1.00008,0,0,-1,18.504044,124.09)" d="M-11.91638 80.83478H-4.94244V89.24776H-11.91638Z" fill="#ffffff"/>
<use data-text="5" xlink:href="#font_2_1" transform="matrix(9.963397,0,0,-9.9626,7.583168,42.258996)"/>
<path transform="matrix(1.00008,0,0,-1,18.504044,124.09)" stroke-width="1.19553" stroke-linecap="butt" stroke-miterlimit="10" stroke-linejoin="miter" fill="none" stroke="#cc0000" d="M-3.60237 100.22134C-3.15623 98.24539-3.15623 98.24539-2.82646 96.81673-2.4967 95.38805-1.96786 93.1339-1.63809 91.75131-1.30833 90.36871-.77951 88.18848-.44974 86.85197-.11998 85.51549 .40883 83.40916 .7386 82.11876 1.06836 80.82835 1.59718 78.79597 1.92696 77.55164 2.25671 76.3073 2.78555 74.3486 3.11533 73.15034 3.44508 71.95209 3.97392 70.06757 4.30368 68.9154 4.63345 67.76323 5.1623 65.95241 5.49205 64.8463 5.82182 63.74019 6.35066 62.00331 6.68042 60.9433 7.0102 59.88327 7.53903 58.22032 7.86879 57.20639 8.19856 56.19246 8.7274 54.60341 9.05716 53.63559 9.38693 52.66776 9.91577 51.15266 10.24553 50.23087 10.57529 49.3091 11.10413 47.86768 11.43388 46.99199 11.76364 46.1163 12.2925 44.74907 12.62225 43.91946 12.95201 43.08986 13.48087 41.79633 13.81062 41.01279 14.14038 40.22925 14.66924 39.00966 14.999 38.2722 15.32875 37.53474 15.8576 36.38905 16.18736 35.69771 16.51712 35.00633 17.04597 33.93459 17.37573 33.28932 17.70549 32.64404 18.23434 31.64618 18.5641 31.04701 18.89386 30.44781 19.4227 29.52393 19.75247 28.9708 20.08223 28.41768 20.61107 27.56747 20.94083 27.06044 21.27058 26.5534 21.79944 25.77736 22.1292 25.31642 22.45895 24.85548 22.98781 24.15314 23.31757 23.73825 23.64732 23.32336 24.17616 22.69498 24.50594 22.32619 24.8357 21.95738 25.36452 21.4029 25.69429 21.0802 26.02406 20.75749 26.55289 20.27692 26.88266 20.0003 27.21242 19.7237 27.74127 19.31708 28.07104 19.08652 28.4008 18.85596 28.92963 18.52303 29.2594 18.33856 29.58916 18.15408 30.118 17.89536 30.44775 17.75697 30.77753 17.61859 31.30637 17.43353 31.63612 17.3412 31.9659 17.24889 32.49474 17.13774 32.8245 17.09155 33.15427 17.04536 33.6831 17.00838 34.01286 17.00824 34.34264 17.0081 34.87146 17.0446 35.20122 17.09052 35.53099 17.13643 36.05983 17.2471 36.38959 17.33914 36.71935 17.43117 37.2482 17.61572 37.57796 17.75385 37.90771 17.89198 38.43657 18.15048 38.76633 18.33467 39.09608 18.51884 39.62494 18.85109 39.9547 19.08133 40.28445 19.31157 40.81331 19.7177 41.14307 19.99408 41.47282 20.27045 42.00168 20.75073 42.33144 21.07318 42.6612 21.39563 43.19005 21.94963 43.5198 22.31815 43.84956 22.68663 44.3784 23.3146 44.70816 23.72917 45.03792 24.14372 45.56677 24.8454 45.89653 25.30605 46.22629 25.7667 46.75514 26.5425 47.0849 27.04929 47.41466 27.55606 47.94351 28.40578 48.27327 28.9586 48.60303 29.51144 49.13188 30.43488 49.46164 31.03377 49.7914 31.63266 50.32024 32.63005 50.65001 33.27504 50.97977 33.92001 51.5086 34.99133 51.83838 35.68239 52.16814 36.37346 52.69698 37.51869 53.02675 38.25584 53.3565 38.99301 53.88533 40.21214 54.2151 40.99539 54.54486 41.77864 55.0737 43.0717 55.40347 43.90105 55.73323 44.7304 56.26207 46.09738 56.59183 46.97278 56.9216 47.84819 57.45044 49.28886 57.7802 50.21036 58.10997 51.13187 58.63881 52.64673 58.96857 53.6143 59.29834 54.5819 59.82718 56.17044 60.15694 57.18407 60.48671 58.19771 61.01555 59.86021 61.3453 60.91994 61.67508 61.97968 62.20392 63.7161 62.53368 64.82191 62.86343 65.92773 63.39227 67.73807 63.72203 68.88997 64.05179 70.04187 64.58064 71.92616 64.9104 73.12413 65.24016 74.3221 65.76901 76.28008 66.09877 77.52412 66.42853 78.76817 66.95738 80.80032 67.28714 82.09048 67.6169 83.38063 68.14574 85.48645 68.47551 86.82266 68.80527 88.15886 69.33412 90.33864 69.66388 91.72093 69.99364 93.10323 70.52249 95.35692 70.85225 96.78532 71.182 98.21371 72.04062 102.01581 71.62808 100.18892"/>
<path transform="matrix(-.22022762,-.97539,-.97546806,.22021,14.901385,23.86866)" d="M1.27522 0C-.31879 .31879-1.91284 .9564-3.8257 2.07224-1.91284 .6376-1.91284-.6376-3.8257-2.07224-1.91284-.9564-.31879-.31879 1.27522 0Z" fill="#cc0000"/>
<path transform="matrix(-.22022762,-.97539,-.97546806,.22021,14.901385,23.86866)" stroke-width="1.19553" stroke-linecap="butt" stroke-linejoin="round" fill="none" stroke="#cc0000" d="M1.27522 0C-.31879 .31879-1.91284 .9564-3.8257 2.07224-1.91284 .6376-1.91284-.6376-3.8257-2.07224-1.91284-.9564-.31879-.31879 1.27522 0Z"/>
<path transform="matrix(.2202776,-.97539,-.97546806,-.22026,90.137859,23.901078)" d="M1.27522 0C-.31879 .31879-1.91284 .9564-3.8257 2.07224-1.91284 .6376-1.91284-.6376-3.8257-2.07224-1.91284-.9564-.31879-.31879 1.27522 0Z" fill="#cc0000"/>
<path transform="matrix(.2202776,-.97539,-.97546806,-.22026,90.137859,23.901078)" stroke-width="1.19553" stroke-linecap="butt" stroke-linejoin="round" fill="none" stroke="#cc0000" d="M1.27522 0C-.31879 .31879-1.91284 .9564-3.8257 2.07224-1.91284 .6376-1.91284-.6376-3.8257-2.07224-1.91284-.9564-.31879-.31879 1.27522 0Z"/>
</svg>
