<svg xmlns="http://www.w3.org/2000/svg" xmlns:xlink="http://www.w3.org/1999/xlink" version="1.1" width="128" height="169" viewBox="0 0 128 169">
<defs>
<path id="font_1_2" d="M.45999146 .31976319C.45999146 .39982606 .45498658 .47988893 .41999818 .5539398 .37399293 .65000918 .2919922 .6660156 .25 .6660156 .18998719 .6660156 .116989139 .64001467 .07598877 .54693606 .04399109 .47789 .038986207 .39982606 .038986207 .31976319 .038986207 .24472046 .042999269 .15464783 .083999637 .07859802 .1269989-.0024719239 .19999695-.022460938 .24899292-.022460938 .30299378-.022460938 .3789978-.0014648438 .4229889 .09359741 .45498658 .16265869 .45999146 .2407074 .45999146 .31976319M.24899292-.00047302247C.20999146-.00047302247 .15098572 .024551392 .1329956 .12062073 .12199402 .18066406 .12199402 .2727356 .12199402 .3317871 .12199402 .39582826 .12199402 .46188355 .12998963 .5159149 .14898682 .63500979 .22399903 .64401248 .24899292 .64401248 .28199769 .64401248 .34799195 .6259918 .36698915 .52693179 .3769989 .47088624 .3769989 .39482118 .3769989 .3317871 .3769989 .25672914 .3769989 .18867493 .3659973 .12461853 .35099793 .029556275 .2939911-.00047302247 .24899292-.00047302247Z"/>
<path id="font_1_6" d="M.44898988 .20022583C.44898988 .3193512 .36698915 .41944886 .25898744 .41944886 .21099854 .41944886 .16799927 .40345765 .13198853 .36842347V.5637665C.1519928 .5577698 .18499756 .55078127 .21699524 .55078127 .33999635 .55078127 .4099884 .6417694 .4099884 .6547699 .4099884 .6607666 .40699769 .6657715 .3999939 .6657715 .39898683 .6657715 .39698792 .6657715 .3919983 .66278079 .37199403 .6537781 .32299806 .6337738 .2559967 .6337738 .21598816 .6337738 .16999817 .6407776 .12298584 .6617737 .114990238 .66477969 .11299133 .66477969 .11099243 .66477969 .100997928 .66477969 .100997928 .6567688 .100997928 .6407776V.34439088C.100997928 .32637025 .100997928 .31835938 .114990238 .31835938 .12199402 .31835938 .12399292 .32136537 .12799073 .32736207 .13899231 .3433838 .17599488 .39746095 .25698854 .39746095 .30899049 .39746095 .33399964 .35139466 .34199525 .33337403 .35798646 .29632569 .3600006 .25727845 .3600006 .20722962 .3600006 .17222595 .3600006 .11222839 .33599855 .07035828 .31199647 .031463624 .2749939 .0055389406 .22898865 .0055389406 .1559906 .0055389406 .09899902 .058380128 .08198547 .11723328 .084991458 .1162262 .08799744 .115234378 .09899902 .115234378 .13198853 .115234378 .14898682 .14022827 .14898682 .16423035 .14898682 .18823242 .13198853 .21322632 .09899902 .21322632 .084991458 .21322632 .049987794 .20622254 .049987794 .16023255 .049987794 .07434082 .11898804-.022460938 .23098755-.022460938 .34700013-.022460938 .44898988 .073349 .44898988 .20022583Z"/>
<path id="font_1_3" d="M.2939911 .64004519C.2939911 .66400149 .2939911 .6660156 .2709961 .6660156 .20899964 .60227969 .12098694 .60227969 .08898926 .60227969V.57128909C.10899353 .57128909 .16799927 .57128909 .21998596 .5972748V.07902527C.21998596 .042999269 .21699524 .0309906 .1269989 .0309906H.09498596V0C.12998963 .0029907227 .21699524 .0029907227 .25698854 .0029907227 .29699708 .0029907227 .38398744 .0029907227 .4189911 0V.0309906H.3869934C.29699708 .0309906 .2939911 .041992189 .2939911 .07902527V.64004519Z"/>
<path id="font_1_8" d="M.16299439 .4569702C.116989139 .486969 .11299133 .52098086 .11299133 .5379791 .11299133 .598999 .17799378 .64100649 .24899292 .64100649 .32199098 .64100649 .38598634 .58898928 .38598634 .51698306 .38598634 .45996095 .34700013 .4119568 .2869873 .37695313L.16299439 .4569702M.30899049 .36193849C.3809967 .3989563 .42999269 .45095826 .42999269 .51698306 .42999269 .6090088 .34098817 .6660156 .25 .6660156 .1499939 .6660156 .068984989 .59199526 .068984989 .49897767 .068984989 .4809723 .070999149 .43595887 .11299133 .38894654 .12399292 .37695313 .16099549 .35194398 .18598938 .33494569 .12799073 .30592347 .041992189 .24984741 .041992189 .15072632 .041992189 .04458618 .14399719-.022460938 .24899292-.022460938 .3619995-.022460938 .45700074 .06060791 .45700074 .16773987 .45700074 .20379639 .44599916 .24885559 .4079895 .2909088 .3889923 .31193543 .37298585 .3219452 .30899049 .36193849M.20899964 .3199463 .33198548 .24183655C.3600006 .2228241 .40699769 .19277954 .40699769 .13169861 .40699769 .05760193 .33198548 .0055389406 .25 .0055389406 .1639862 .0055389406 .09199524 .067611698 .09199524 .15072632 .09199524 .20880127 .12399292 .27288819 .20899964 .3199463Z"/>
<path id="font_1_4" d="M.1269989 .07699585 .23298645 .18003845C.3889923 .31811524 .44898988 .3721466 .44898988 .47216798 .44898988 .5860901 .35899354 .6660156 .23699951 .6660156 .12399292 .6660156 .049987794 .57411196 .049987794 .48516847 .049987794 .4291687 .099990848 .4291687 .102996829 .4291687 .11999512 .4291687 .15499878 .44117738 .15499878 .48217774 .15499878 .5081787 .13699341 .5341797 .101989749 .5341797 .09399414 .5341797 .09199524 .5341797 .08898926 .5331726 .11199951 .59806826 .1659851 .63500979 .22399903 .63500979 .31498719 .63500979 .35798646 .5541382 .35798646 .47216798 .35798646 .39215089 .30799867 .31311036 .25299073 .25108338L.06098938 .036987306C.049987794 .025985718 .049987794 .023986817 .049987794 0H.42099L.44898988 .17404175H.42399598C.4189911 .14402771 .4119873 .1000061 .4019928 .084991458 .394989 .07699585 .32899476 .07699585 .30699159 .07699585H.1269989Z"/>
<path id="font_1_5" d="M.2939911 .16503906V.07800293C.2939911 .041992189 .2919922 .0309906 .21798706 .0309906H.19699097V0C.23799134 .0029907227 .2899933 .0029907227 .33198548 .0029907227 .37399293 .0029907227 .4269867 .0029907227 .46798707 0V.0309906H.44699098C.37298585 .0309906 .37098695 .041992189 .37098695 .07800293V.16503906H.47099305V.19602967H.37098695V.65075686C.37098695 .67074587 .37098695 .6767578 .35499574 .6767578 .34599305 .6767578 .34298707 .6767578 .33499146 .66474917L.027999878 .19602967V.16503906H.2939911M.2999878 .19602967H.055999757L.2999878 .5688019V.19602967Z"/>
<path id="font_1_7" d="M.13198853 .327713V.35173036C.13198853 .6047821 .2559967 .64100649 .30699159 .64100649 .33099366 .64100649 .37298585 .634964 .394989 .6007538 .37998963 .6007538 .33999635 .6007538 .33999635 .5557556 .33999635 .524765 .3639984 .5097656 .38598634 .5097656 .4019928 .5097656 .43199159 .51875308 .43199159 .5577545 .43199159 .6178589 .3880005 .6660156 .30499269 .6660156 .1769867 .6660156 .041992189 .5367584 .041992189 .31570436 .041992189 .048553468 .1579895-.022460938 .25099183-.022460938 .3619995-.022460938 .45700074 .07156372 .45700074 .2036438 .45700074 .33070375 .36799623 .4267578 .25698854 .4267578 .18899536 .4267578 .1519928 .37573243 .13198853 .327713M.25099183 .0055389406C.18798828 .0055389406 .1579895 .06556702 .1519928 .080566409 .13398743 .127594 .13398743 .2076416 .13398743 .22564698 .13398743 .30369569 .1659851 .40374757 .2559967 .40374757 .27198792 .40374757 .31799317 .40374757 .34899903 .34172059 .36698915 .30470277 .36698915 .2536621 .36698915 .20463562 .36698915 .15661621 .36698915 .10658264 .34999085 .0705719 .31999208 .010528564 .27398683 .0055389406 .25099183 .0055389406Z"/>
<path id="font_2_4" d="M.20599365 .3996582H.2999878C.31999208 .3996582 .32998658 .3996582 .32998658 .41966249 .32998658 .43066407 .31999208 .43066407 .3019867 .43066407H.21398926C.25 .5724945 .25498963 .59246829 .25498963 .59846499 .25498963 .61546328 .24299622 .62545779 .22599793 .62545779 .22299195 .62545779 .19499207 .62446597 .18598938 .58947756L.14698792 .43066407H.052993776C.032989503 .43066407 .022994996 .43066407 .022994996 .4116516 .022994996 .3996582 .0309906 .3996582 .050994874 .3996582H.13899231C.066986087 .11608887 .06298828 .099121097 .06298828 .08114624 .06298828 .02722168 .100997928-.0107421879 .15499878-.0107421879 .25698854-.0107421879 .31399537 .13505554 .31399537 .14305115 .31399537 .1530304 .30599977 .1530304 .3019867 .1530304 .29299928 .1530304 .2919922 .15003968 .2869873 .13905335 .24398804 .035217287 .19099427 .011245728 .15699768 .011245728 .13598633 .011245728 .12599182 .024230957 .12599182 .057174684 .12599182 .08114624 .12799073 .088134769 .13198853 .10510254L.20599365 .3996582Z"/>
<path id="font_1_1" d="M.2649994 .31141664C.3849945 .286438 .3919983 .18948365 .3919983 .16548157 .3919983 .09840393 .34399415 .03125 .2649994 .021224976V.31141664M.23399353 .31941224V.021224976C.1459961 .026245118 .09899902 .0773468 .085998538 .13948059 .08999634 .13848877 .09799194 .13748169 .101989749 .13748169 .1289978 .13748169 .147995 .15647888 .147995 .18348694 .147995 .21148682 .1269989 .22949219 .101989749 .22949219 .09599304 .22949219 .055999757 .22747803 .055999757 .17848206 .055999757 .08937073 .10899353-.0027770997 .23399353-.010772705V-.055664064H.2649994V-.009765625C.36999513-.00077819827 .44299317 .09239197 .44299317 .19548035 .44299317 .27844239 .397995 .32940675 .3889923 .33839417 .34899903 .38235475 .31298829 .39135743 .2649994 .40333558V.67311099C.34999085 .6691284 .397995 .62519839 .41299439 .5692749 .40899659 .570282 .40699769 .57128909 .39698792 .57128909 .37098695 .57128909 .35099793 .5532837 .35099793 .5252838 .35099793 .49427796 .37599183 .47927857 .39698792 .47927857 .3999939 .47927857 .44299317 .48028565 .44299317 .5292816 .44299317 .6261902 .3769989 .69911196 .2649994 .70510867V.75H.23399353V.7041168C.12298584 .6941223 .055999757 .6042328 .055999757 .51327517 .055999757 .44430543 .09298706 .39634706 .11099243 .379364 .14898682 .34039308 .18299866 .33239747 .23399353 .31941224M.23399353 .41133119C.11099243 .4373169 .10699463 .5232849 .10699463 .5432739 .10699463 .6032257 .1539917 .6651306 .23399353 .67311099V.41133119Z"/>
<path id="font_2_3" d="M.644989 .69506838C.644989 .69807437 .6429901 .7050781 .6339874 .7050781 .6289978 .7050781 .6279907 .70407107 .6159973 .6900635L.56799319 .6330414C.5419922 .68006899 .48999024 .7050781 .4249878 .7050781 .2979889 .7050781 .17799378 .58999636 .17799378 .4689026 .17799378 .38783265 .23098755 .34179688 .28199769 .32678224L.3889923 .2987671C.42599488 .2897644 .48098756 .27474977 .48098756 .19267273 .48098756 .1026001 .39898683 .008529663 .30099488 .008529663 .23699951 .008529663 .12599182 .030548096 .12599182 .15464783 .12599182 .17866516 .1309967 .2026825 .13198853 .20869446 .1329956 .21269226 .13398743 .21369934 .13398743 .21569824 .13398743 .22570801 .1269989 .22669983 .12199402 .22669983 .116989139 .22669983 .114990238 .22570801 .11199951 .22270203 .10798645 .21870423 .051986696-.009475708 .051986696-.012466431 .051986696-.018463135 .056991579-.022460938 .06298828-.022460938 .067993167-.022460938 .068984989-.021469117 .08099365-.007461548L.12998963 .049560548C.17298889-.008468628 .24099732-.022460938 .29899598-.022460938 .43499757-.022460938 .5529938 .11061096 .5529938 .2347107 .5529938 .30377198 .5189972 .33779908 .5039978 .35180665 .48098756 .37483216 .46598817 .37882997 .3769989 .40185548 .35499574 .40785218 .31900025 .41786195 .30999757 .41986085 .2829895 .42886354 .24899292 .457901 .24899292 .51094058 .24899292 .59199526 .32899476 .677063 .42399598 .677063 .5069885 .677063 .56799319 .6340332 .56799319 .52194216 .56799319 .48991395 .56399539 .47190858 .56399539 .4658966 .56399539 .4649048 .56399539 .45588685 .57598879 .45588685 .58599856 .45588685 .58699038 .45889283 .59098818 .47590638L.644989 .69506838Z"/>
<path id="font_2_1" d="M.70799258 .23292542C.70999148 .23791504 .71299746 .24491883 .71299746 .24691773 .71299746 .24790955 .71299746 .2579193 .70098879 .2579193 .69200137 .2579193 .6899872 .25190736 .6879883 .24591065 .6230011 .097961429 .58599856 .0309906 .4149933 .0309906H.2689972C.25498963 .0309906 .25299073 .0309906 .24699402 .03199768 .23699951 .032989503 .23399353 .033996583 .23399353 .041992189 .23399353 .04498291 .23399353 .04698181 .23899842 .06498718L.30699159 .33789063H.4059906C.4909973 .33789063 .4909973 .31689454 .4909973 .29190064 .4909973 .28489686 .4909973 .27290345 .48399354 .24291992 .48199464 .23791504 .48098756 .23492432 .48098756 .23191834 .48098756 .22692871 .4850006 .220932 .49398805 .220932 .5019989 .220932 .5049896 .22592163 .5089874 .24092102L.56599429 .47477723C.56599429 .48077394 .5609894 .48576356 .55400088 .48576356 .54499819 .48576356 .54299929 .47976686 .5399933 .4677887 .5189972 .39186097 .5009918 .36888124 .40899659 .36888124H.31498719L.375 .60964968C.38398744 .64460757 .3849945 .64860537 .42900086 .64860537H.56999209C.69200137 .64860537 .7220001 .61964419 .7220001 .5377197 .7220001 .51374819 .7220001 .51174929 .71798709 .48477174 .71798709 .47877503 .71699526 .4717865 .71699526 .46678163 .71699526 .461792 .7200012 .45480348 .72898867 .45480348 .73999026 .45480348 .7409973 .46080018 .7429962 .47976686L.7630005 .65260317C.7659912 .6796112 .7609863 .6796112 .73599246 .6796112H.23098755C.21099854 .6796112 .20098877 .6796112 .20098877 .65960696 .20098877 .64860537 .20999146 .64860537 .22898865 .64860537 .2659912 .64860537 .2939911 .64860537 .2939911 .6306305 .2939911 .6266327 .2939911 .6246338 .2889862 .6066437L.15699768 .07797241C.14698792 .038986207 .14498902 .0309906 .06599426 .0309906 .04899597 .0309906 .037994386 .0309906 .037994386 .011993408 .037994386 0 .04699707 0 .06599426 0H.58499148C.60798647 0 .60899356 .0009918213 .6159973 .016998291L.70799258 .23292542Z"/>
<path id="font_2_2" d="M.30299378 .3157959H.47299195C.61499026 .3157959 .7539978 .41973878 .7539978 .53167727 .7539978 .6086273 .6879883 .6826172 .5569916 .6826172H.23298645C.21398926 .6826172 .20298767 .6826172 .20298767 .66360476 .20298767 .6516113 .21199036 .6516113 .23199463 .6516113 .24499512 .6516113 .2630005 .65060427 .2749939 .6496124 .29100038 .6476135 .29699708 .64460757 .29699708 .6336212 .29699708 .6296234 .29599 .62661746 .29299928 .614624L.15899658 .07795715C.14898682 .038986207 .14698792 .0309906 .067993167 .0309906 .050994874 .0309906 .039993287 .0309906 .039993287 .011993408 .039993287 0 .051986696 0 .054992677 0 .08299255 0 .1539917 .0029907227 .18199158 .0029907227 .20298767 .0029907227 .22499085 .0019989014 .24598694 .0019989014 .2679901 .0019989014 .2899933 0 .31098939 0 .31799317 0 .33099366 0 .33099366 .019989014 .33099366 .0309906 .32199098 .0309906 .30299378 .0309906 .2659912 .0309906 .23799134 .0309906 .23799134 .048980714 .23799134 .054977418 .23999024 .05996704 .24099732 .065963748L.30299378 .3157959M.375 .6136322C.38398744 .64860537 .38598634 .6516113 .42900086 .6516113H.5249939C.60798647 .6516113 .6609955 .62461856 .6609955 .55566409 .6609955 .5166931 .6409912 .43074037 .60198977 .39476014 .5519867 .34977723 .49198915 .34179688 .44799806 .34179688H.30699159L.375 .6136322Z"/>
</defs>
<path transform="matrix(1,0,0,-1,26.079003,154.754)" stroke-width=".3985" stroke-linecap="butt" stroke-miterlimit="10" stroke-linejoin="miter" fill="none" stroke="#00aeef" d="M0 0H85.04128M0 8.50412H85.04128M0 17.00824H85.04128M0 25.51237H85.04128M0 34.0165H85.04128M0 42.52063H85.04128M0 51.02477H85.04128M0 59.52888H85.04128M0 68.03302H85.04128M0 76.53716H85.04128M0 85.04128H85.04128M0 93.54541H85.04128M0 102.04953H85.04128M0 110.55368H85.04128M0 119.0578H85.04128M0 127.56192H85.04128M0 136.06307H85.04128M0 0V136.06606M8.50412 0V136.06606M17.00824 0V136.06606M25.51237 0V136.06606M34.0165 0V136.06606M42.52063 0V136.06606M51.02477 0V136.06606M59.52888 0V136.06606M68.03302 0V136.06606M76.53716 0V136.06606M85.0383 0V136.06606M85.04128 136.06606"/>
<path transform="matrix(1,0,0,-1,26.079003,154.754)" stroke-width="1.19553" stroke-linecap="butt" stroke-miterlimit="10" stroke-linejoin="miter" fill="none" stroke="#00aeef" d="M0 0V136.06606"/>
<path transform="matrix(1,0,0,-1,26.079003,154.754)" stroke-width="1.19553" stroke-linecap="butt" stroke-miterlimit="10" stroke-linejoin="miter" fill="none" stroke="#000000" d="M0 1.70079V-1.70079"/>
<use data-text="0" xlink:href="#font_1_2" transform="matrix(9.9626,0,0,-9.9626,23.588006,166.794)"/>
<path transform="matrix(1,0,0,-1,26.079003,154.754)" stroke-width="1.19553" stroke-linecap="butt" stroke-miterlimit="10" stroke-linejoin="miter" fill="none" stroke="#00aeef" d="M42.52063 0V136.06606"/>
<path transform="matrix(1,0,0,-1,26.079003,154.754)" stroke-width="1.19553" stroke-linecap="butt" stroke-miterlimit="10" stroke-linejoin="miter" fill="none" stroke="#000000" d="M42.52063 1.70079V-1.70079"/>
<use data-text="5" xlink:href="#font_1_6" transform="matrix(9.9626,0,0,-9.9626,63.618005,166.794)"/>
<use data-text="0" xlink:href="#font_1_2" transform="matrix(9.9626,0,0,-9.9626,68.599308,166.794)"/>
<path transform="matrix(1,0,0,-1,26.079003,154.754)" stroke-width="1.19553" stroke-linecap="butt" stroke-miterlimit="10" stroke-linejoin="miter" fill="none" stroke="#00aeef" d="M85.04128 0V136.06606"/>
<path transform="matrix(1,0,0,-1,26.079003,154.754)" stroke-width="1.19553" stroke-linecap="butt" stroke-miterlimit="10" stroke-linejoin="miter" fill="none" stroke="#000000" d="M85.04128 1.70079V-1.70079"/>
<use data-text="1" xlink:href="#font_1_3" transform="matrix(9.9626,0,0,-9.9626,103.648,166.794)"/>
<use data-text="0" xlink:href="#font_1_2" transform="matrix(9.9626,0,0,-9.9626,108.6293,166.794)"/>
<use data-text="0" xlink:href="#font_1_2" transform="matrix(9.9626,0,0,-9.9626,113.6106,166.794)"/>
<path transform="matrix(1,0,0,-1,26.079003,154.754)" stroke-width="1.19553" stroke-linecap="butt" stroke-miterlimit="10" stroke-linejoin="miter" fill="none" stroke="#00aeef" d="M0 0H85.04128"/>
<path transform="matrix(1,0,0,-1,26.079003,154.754)" stroke-width="1.19553" stroke-linecap="butt" stroke-miterlimit="10" stroke-linejoin="miter" fill="none" stroke="#000000" d="M1.70079 0H-1.70079"/>
<use data-text="8" xlink:href="#font_1_8" transform="matrix(9.9626,0,0,-9.9626,5.515999,157.96399)"/>
<use data-text="0" xlink:href="#font_1_2" transform="matrix(9.9626,0,0,-9.9626,10.497299,157.96399)"/>
<use data-text="0" xlink:href="#font_1_2" transform="matrix(9.9626,0,0,-9.9626,15.4786,157.96399)"/>
<path transform="matrix(1,0,0,-1,26.079003,154.754)" stroke-width="1.19553" stroke-linecap="butt" stroke-miterlimit="10" stroke-linejoin="miter" fill="none" stroke="#00aeef" d="M0 34.0165H85.04128"/>
<path transform="matrix(1,0,0,-1,26.079003,154.754)" stroke-width="1.19553" stroke-linecap="butt" stroke-miterlimit="10" stroke-linejoin="miter" fill="none" stroke="#000000" d="M1.70079 34.0165H-1.70079"/>
<use data-text="1" xlink:href="#font_1_3" transform="matrix(9.9626,0,0,-9.9626,.5340042,123.948)"/>
<use data-text="0" xlink:href="#font_1_2" transform="matrix(9.9626,0,0,-9.9626,5.5153048,123.948)"/>
<use data-text="0" xlink:href="#font_1_2" transform="matrix(9.9626,0,0,-9.9626,10.496605,123.948)"/>
<use data-text="0" xlink:href="#font_1_2" transform="matrix(9.9626,0,0,-9.9626,15.477905,123.948)"/>
<path transform="matrix(1,0,0,-1,26.079003,154.754)" stroke-width="1.19553" stroke-linecap="butt" stroke-miterlimit="10" stroke-linejoin="miter" fill="none" stroke="#00aeef" d="M0 68.03302H85.04128"/>
<path transform="matrix(1,0,0,-1,26.079003,154.754)" stroke-width="1.19553" stroke-linecap="butt" stroke-miterlimit="10" stroke-linejoin="miter" fill="none" stroke="#000000" d="M1.70079 68.03302H-1.70079"/>
<use data-text="1" xlink:href="#font_1_3" transform="matrix(9.9626,0,0,-9.9626,.5340042,89.931)"/>
<use data-text="2" xlink:href="#font_1_4" transform="matrix(9.9626,0,0,-9.9626,5.5153048,89.931)"/>
<use data-text="0" xlink:href="#font_1_2" transform="matrix(9.9626,0,0,-9.9626,10.496605,89.931)"/>
<use data-text="0" xlink:href="#font_1_2" transform="matrix(9.9626,0,0,-9.9626,15.477905,89.931)"/>
<path transform="matrix(1,0,0,-1,26.079003,154.754)" stroke-width="1.19553" stroke-linecap="butt" stroke-miterlimit="10" stroke-linejoin="miter" fill="none" stroke="#00aeef" d="M0 102.04953H85.04128"/>
<path transform="matrix(1,0,0,-1,26.079003,154.754)" stroke-width="1.19553" stroke-linecap="butt" stroke-miterlimit="10" stroke-linejoin="miter" fill="none" stroke="#000000" d="M1.70079 102.04953H-1.70079"/>
<use data-text="1" xlink:href="#font_1_3" transform="matrix(9.9626,0,0,-9.9626,.5340042,55.915)"/>
<use data-text="4" xlink:href="#font_1_5" transform="matrix(9.9626,0,0,-9.9626,5.5153048,55.915)"/>
<use data-text="0" xlink:href="#font_1_2" transform="matrix(9.9626,0,0,-9.9626,10.496605,55.915)"/>
<use data-text="0" xlink:href="#font_1_2" transform="matrix(9.9626,0,0,-9.9626,15.477905,55.915)"/>
<path transform="matrix(1,0,0,-1,26.079003,154.754)" stroke-width="1.19553" stroke-linecap="butt" stroke-miterlimit="10" stroke-linejoin="miter" fill="none" stroke="#00aeef" d="M0 136.06606H85.04128"/>
<path transform="matrix(1,0,0,-1,26.079003,154.754)" stroke-width="1.19553" stroke-linecap="butt" stroke-miterlimit="10" stroke-linejoin="miter" fill="none" stroke="#000000" d="M1.70079 136.06606H-1.70079"/>
<use data-text="1" xlink:href="#font_1_3" transform="matrix(9.9626,0,0,-9.9626,.5340042,21.897995)"/>
<use data-text="6" xlink:href="#font_1_7" transform="matrix(9.9626,0,0,-9.9626,5.5153048,21.897995)"/>
<use data-text="0" xlink:href="#font_1_2" transform="matrix(9.9626,0,0,-9.9626,10.496605,21.897995)"/>
<use data-text="0" xlink:href="#font_1_2" transform="matrix(9.9626,0,0,-9.9626,15.477905,21.897995)"/>
<path transform="matrix(1,0,0,-1,26.079003,154.754)" stroke-width="1.19553" stroke-linecap="butt" stroke-miterlimit="10" stroke-linejoin="miter" fill="none" stroke="#000000" d="M0 0H91.67242"/>
<path transform="matrix(1,0,0,-1,117.75142,154.754)" d="M1.27522 0C-.31879 .31879-1.91284 .9564-3.8257 2.07224-1.91284 .6376-1.91284-.6376-3.8257-2.07224-1.91284-.9564-.31879-.31879 1.27522 0Z"/>
<path transform="matrix(1,0,0,-1,117.75142,154.754)" stroke-width="1.19553" stroke-linecap="butt" stroke-linejoin="round" fill="none" stroke="#000000" d="M1.27522 0C-.31879 .31879-1.91284 .9564-3.8257 2.07224-1.91284 .6376-1.91284-.6376-3.8257-2.07224-1.91284-.9564-.31879-.31879 1.27522 0Z"/>
<use data-text="t" xlink:href="#font_2_4" transform="matrix(9.9626,0,0,-9.9626,123.543,157.818)"/>
<path transform="matrix(1,0,0,-1,26.079003,154.754)" stroke-width="1.19553" stroke-linecap="butt" stroke-miterlimit="10" stroke-linejoin="miter" fill="none" stroke="#000000" d="M0 0V146.94927"/>
<path transform="matrix(0,-1,-1,-0,26.079003,7.8047335)" d="M1.27522 0C-.31879 .31879-1.91284 .9564-3.8257 2.07224-1.91284 .6376-1.91284-.6376-3.8257-2.07224-1.91284-.9564-.31879-.31879 1.27522 0Z"/>
<path transform="matrix(0,-1,-1,-0,26.079003,7.8047335)" stroke-width="1.19553" stroke-linecap="butt" stroke-linejoin="round" fill="none" stroke="#000000" d="M1.27522 0C-.31879 .31879-1.91284 .9564-3.8257 2.07224-1.91284 .6376-1.91284-.6376-3.8257-2.07224-1.91284-.9564-.31879-.31879 1.27522 0Z"/>
<use data-text="$" xlink:href="#font_1_1" transform="matrix(9.9626,0,0,-9.9626,17.179,9.390991)"/>
<path transform="matrix(1,0,0,-1,26.079003,154.754)" stroke-width="1.59404" stroke-linecap="butt" stroke-miterlimit="10" stroke-linejoin="miter" fill="none" stroke="#ff0000" d="M0 34.0165 83.56166 134.29051"/>
<path transform="matrix(.64015,-.76819,-.76819,-.64015,109.640659,20.463501)" d="M1.51433 0C-.37857 .37857-2.27148 1.13573-4.54298 2.46077-2.27148 .75716-2.27148-.75716-4.54298-2.46077-2.27148-1.13573-.37857-.37857 1.51433 0Z" fill="#ff0000"/>
<path transform="matrix(.64015,-.76819,-.76819,-.64015,109.640659,20.463501)" stroke-width="1.59404" stroke-linecap="butt" stroke-linejoin="round" fill="none" stroke="#ff0000" d="M1.51433 0C-.37857 .37857-2.27148 1.13573-4.54298 2.46077-2.27148 .75716-2.27148-.75716-4.54298-2.46077-2.27148-1.13573-.37857-.37857 1.51433 0Z"/>
<use data-text="S" xlink:href="#font_2_3" transform="matrix(9.9626,0,0,-9.9626,115.238,22.091996)"/>
<path transform="matrix(1,0,0,-1,26.079003,154.754)" stroke-width="1.59404" stroke-linecap="butt" stroke-miterlimit="10" stroke-linejoin="miter" fill="none" stroke="#ff0000" d="M0 68.03302 82.89532 101.1912"/>
<path transform="matrix(.92844,-.37137,-.37137,-.92844,108.97432,53.56282)" d="M1.51433 0C-.37857 .37857-2.27148 1.13573-4.54298 2.46077-2.27148 .75716-2.27148-.75716-4.54298-2.46077-2.27148-1.13573-.37857-.37857 1.51433 0Z" fill="#ff0000"/>
<path transform="matrix(.92844,-.37137,-.37137,-.92844,108.97432,53.56282)" stroke-width="1.59404" stroke-linecap="butt" stroke-linejoin="round" fill="none" stroke="#ff0000" d="M1.51433 0C-.37857 .37857-2.27148 1.13573-4.54298 2.46077-2.27148 .75716-2.27148-.75716-4.54298-2.46077-2.27148-1.13573-.37857-.37857 1.51433 0Z"/>
<use data-text="E" xlink:href="#font_2_1" transform="matrix(9.9626,0,0,-9.9626,115.238,56.107995)"/>
<path transform="matrix(1,0,0,-1,26.079003,154.754)" d="M44.22144 85.04128C44.22144 85.9806 43.45996 86.74208 42.52063 86.74208 41.5813 86.74208 40.81981 85.9806 40.81981 85.04128 40.81981 84.10194 41.5813 83.34045 42.52063 83.34045 43.45996 83.34045 44.22144 84.10194 44.22144 85.04128ZM42.52063 85.04128" fill="#cc0000"/>
<path transform="matrix(1,0,0,-1,26.079003,154.754)" stroke-width=".3985" stroke-linecap="butt" stroke-miterlimit="10" stroke-linejoin="miter" fill="none" stroke="#cc0000" d="M44.22144 85.04128C44.22144 85.9806 43.45996 86.74208 42.52063 86.74208 41.5813 86.74208 40.81981 85.9806 40.81981 85.04128 40.81981 84.10194 41.5813 83.34045 42.52063 83.34045 43.45996 83.34045 44.22144 84.10194 44.22144 85.04128ZM42.52063 85.04128"/>
<path transform="matrix(1,0,0,-1,26.079003,154.754)" d="M42.71988 73.05276H52.49237V81.85318H42.71988Z" fill="#ffffff"/>
<use data-text="P" xlink:href="#font_2_2" transform="matrix(9.9626,0,0,-9.9626,69.795,80.704998)"/>
</svg>
