<svg xmlns="http://www.w3.org/2000/svg" xmlns:xlink="http://www.w3.org/1999/xlink" version="1.1" width="144" height="203" viewBox="0 0 144 203">
<defs>
<path id="font_1_5" d="M.20599365 .3996582H.2999878C.31999208 .3996582 .32998658 .3996582 .32998658 .41966249 .32998658 .43066407 .31999208 .43066407 .3019867 .43066407H.21398926C.25 .5724945 .25498963 .59246829 .25498963 .59846499 .25498963 .61546328 .24299622 .62545779 .22599793 .62545779 .22299195 .62545779 .19499207 .62446597 .18598938 .58947756L.14698792 .43066407H.052993776C.032989503 .43066407 .022994996 .43066407 .022994996 .4116516 .022994996 .3996582 .0309906 .3996582 .050994874 .3996582H.13899231C.066986087 .11608887 .06298828 .099121097 .06298828 .08114624 .06298828 .02722168 .100997928-.0107421879 .15499878-.0107421879 .25698854-.0107421879 .31399537 .13505554 .31399537 .14305115 .31399537 .1530304 .30599977 .1530304 .3019867 .1530304 .29299928 .1530304 .2919922 .15003968 .2869873 .13905335 .24398804 .035217287 .19099427 .011245728 .15699768 .011245728 .13598633 .011245728 .12599182 .024230957 .12599182 .057174684 .12599182 .08114624 .12799073 .088134769 .13198853 .10510254L.20599365 .3996582Z"/>
<path id="font_1_2" d="M.15899658 .07795715C.14898682 .038986207 .14698792 .0309906 .067993167 .0309906 .050994874 .0309906 .039993287 .0309906 .039993287 .011993408 .039993287 0 .04899597 0 .067993167 0H.39898683C.6069946 0 .80400088 .21087647 .80400088 .42974855 .80400088 .5706482 .71899417 .6826172 .56900027 .6826172H.23298645C.21398926 .6826172 .20298767 .6826172 .20298767 .66360476 .20298767 .6516113 .21199036 .6516113 .23199463 .6516113 .24499512 .6516113 .2630005 .65060427 .2749939 .6496124 .29100038 .6476135 .29699708 .64460757 .29699708 .6336212 .29699708 .6296234 .29599 .62661746 .29299928 .614624L.15899658 .07795715M.375 .6136322C.38398744 .64860537 .38598634 .6516113 .42900086 .6516113H.5359955C.6339874 .6516113 .71699526 .5986328 .71699526 .46672059 .71699526 .41775514 .69699099 .25386048 .6119995 .1439209 .58299258 .10694885 .5039978 .0309906 .3809967 .0309906H.2679901C.2539978 .0309906 .2519989 .0309906 .24598694 .03199768 .23599243 .032989503 .23298645 .033996583 .23298645 .041992189 .23298645 .04498291 .23298645 .04698181 .23799134 .064971927L.375 .6136322Z"/>
<path id="font_2_8" d="M.44898988 .20022583C.44898988 .3193512 .36698915 .41944886 .25898744 .41944886 .21099854 .41944886 .16799927 .40345765 .13198853 .36842347V.5637665C.1519928 .5577698 .18499756 .55078127 .21699524 .55078127 .33999635 .55078127 .4099884 .6417694 .4099884 .6547699 .4099884 .6607666 .40699769 .6657715 .3999939 .6657715 .39898683 .6657715 .39698792 .6657715 .3919983 .66278079 .37199403 .6537781 .32299806 .6337738 .2559967 .6337738 .21598816 .6337738 .16999817 .6407776 .12298584 .6617737 .114990238 .66477969 .11299133 .66477969 .11099243 .66477969 .100997928 .66477969 .100997928 .6567688 .100997928 .6407776V.34439088C.100997928 .32637025 .100997928 .31835938 .114990238 .31835938 .12199402 .31835938 .12399292 .32136537 .12799073 .32736207 .13899231 .3433838 .17599488 .39746095 .25698854 .39746095 .30899049 .39746095 .33399964 .35139466 .34199525 .33337403 .35798646 .29632569 .3600006 .25727845 .3600006 .20722962 .3600006 .17222595 .3600006 .11222839 .33599855 .07035828 .31199647 .031463624 .2749939 .0055389406 .22898865 .0055389406 .1559906 .0055389406 .09899902 .058380128 .08198547 .11723328 .084991458 .1162262 .08799744 .115234378 .09899902 .115234378 .13198853 .115234378 .14898682 .14022827 .14898682 .16423035 .14898682 .18823242 .13198853 .21322632 .09899902 .21322632 .084991458 .21322632 .049987794 .20622254 .049987794 .16023255 .049987794 .07434082 .11898804-.022460938 .23098755-.022460938 .34700013-.022460938 .44898988 .073349 .44898988 .20022583Z"/>
<path id="font_2_4" d="M.45999146 .31976319C.45999146 .39982606 .45498658 .47988893 .41999818 .5539398 .37399293 .65000918 .2919922 .6660156 .25 .6660156 .18998719 .6660156 .116989139 .64001467 .07598877 .54693606 .04399109 .47789 .038986207 .39982606 .038986207 .31976319 .038986207 .24472046 .042999269 .15464783 .083999637 .07859802 .1269989-.0024719239 .19999695-.022460938 .24899292-.022460938 .30299378-.022460938 .3789978-.0014648438 .4229889 .09359741 .45498658 .16265869 .45999146 .2407074 .45999146 .31976319M.24899292-.00047302247C.20999146-.00047302247 .15098572 .024551392 .1329956 .12062073 .12199402 .18066406 .12199402 .2727356 .12199402 .3317871 .12199402 .39582826 .12199402 .46188355 .12998963 .5159149 .14898682 .63500979 .22399903 .64401248 .24899292 .64401248 .28199769 .64401248 .34799195 .6259918 .36698915 .52693179 .3769989 .47088624 .3769989 .39482118 .3769989 .3317871 .3769989 .25672914 .3769989 .18867493 .3659973 .12461853 .35099793 .029556275 .2939911-.00047302247 .24899292-.00047302247Z"/>
<path id="font_2_5" d="M.2939911 .64004519C.2939911 .66400149 .2939911 .6660156 .2709961 .6660156 .20899964 .60227969 .12098694 .60227969 .08898926 .60227969V.57128909C.10899353 .57128909 .16799927 .57128909 .21998596 .5972748V.07902527C.21998596 .042999269 .21699524 .0309906 .1269989 .0309906H.09498596V0C.12998963 .0029907227 .21699524 .0029907227 .25698854 .0029907227 .29699708 .0029907227 .38398744 .0029907227 .4189911 0V.0309906H.3869934C.29699708 .0309906 .2939911 .041992189 .2939911 .07902527V.64004519Z"/>
<path id="font_2_6" d="M.1269989 .07699585 .23298645 .18003845C.3889923 .31811524 .44898988 .3721466 .44898988 .47216798 .44898988 .5860901 .35899354 .6660156 .23699951 .6660156 .12399292 .6660156 .049987794 .57411196 .049987794 .48516847 .049987794 .4291687 .099990848 .4291687 .102996829 .4291687 .11999512 .4291687 .15499878 .44117738 .15499878 .48217774 .15499878 .5081787 .13699341 .5341797 .101989749 .5341797 .09399414 .5341797 .09199524 .5341797 .08898926 .5331726 .11199951 .59806826 .1659851 .63500979 .22399903 .63500979 .31498719 .63500979 .35798646 .5541382 .35798646 .47216798 .35798646 .39215089 .30799867 .31311036 .25299073 .25108338L.06098938 .036987306C.049987794 .025985718 .049987794 .023986817 .049987794 0H.42099L.44898988 .17404175H.42399598C.4189911 .14402771 .4119873 .1000061 .4019928 .084991458 .394989 .07699585 .32899476 .07699585 .30699159 .07699585H.1269989Z"/>
<path id="font_2_1" d="M.44198609 .69781497C.43499757 .7108154 .43299867 .7158203 .41600038 .7158203 .39898683 .7158203 .39698792 .7108154 .3899994 .69781497L.051986696 .019989014C.04699707 .010986328 .04699707 .008987427 .04699707 .0079956059 .04699707 0 .052993776 0 .068984989 0H.7630005C.7789917 0 .7849884 0 .7849884 .0079956059 .7849884 .008987427 .7849884 .010986328 .7799988 .019989014L.44198609 .69781497M.38398744 .61582949 .6529999 .07598877H.11399841L.38398744 .61582949Z"/>
<path id="font_2_9" d="M.68699648 .32714845C.70199587 .32714845 .72099307 .32714845 .72099307 .34713746 .72099307 .36714173 .70199587 .36714173 .6879883 .36714173H.08898926C.07499695 .36714173 .055999757 .36714173 .055999757 .34713746 .055999757 .32714845 .07499695 .32714845 .08999634 .32714845H.68699648M.6879883 .13284302C.70199587 .13284302 .72099307 .13284302 .72099307 .15284729 .72099307 .17285156 .70199587 .17285156 .68699648 .17285156H.08999634C.07499695 .17285156 .055999757 .17285156 .055999757 .15284729 .055999757 .13284302 .07499695 .13284302 .08898926 .13284302H.6879883Z"/>
<path id="font_1_3" d="M.7599945 .69506838C.7599945 .69807437 .7579956 .7050781 .7489929 .7050781 .74598696 .7050781 .7449951 .70407107 .73399356 .69306948L.6639862 .61598208C.6549988 .6300049 .60899356 .7050781 .49798585 .7050781 .2749939 .7050781 .049987794 .4837799 .049987794 .25144959 .049987794 .09249878 .16099549-.022460938 .32299806-.022460938 .36698915-.022460938 .4119873-.013473511 .44799806 .0015258789 .49798585 .021530152 .5169983 .042526246 .5349884 .06251526 .5439911 .037521364 .56999209 .0005340576 .5799866 .0005340576 .58499148 .0005340576 .58699038 .0035247803 .58699038 .0045318605 .58898928 .0065307619 .598999 .044525148 .60398867 .06550598L.6230011 .14248657C.6269989 .15948487 .6319885 .1764679 .6359863 .19346619 .6469879 .2384491 .647995 .240448 .7049866 .24145508 .70999148 .24145508 .72099307 .2424469 .72099307 .26145936 .72099307 .26844789 .71598818 .27246095 .70799258 .27246095 .68499758 .27246095 .6259918 .26945497 .6029968 .26945497 .57199099 .26945497 .49398805 .27246095 .46299745 .27246095 .45399476 .27246095 .44198609 .27246095 .44198609 .25245667 .44198609 .24145508 .44999696 .24145508 .47200013 .24145508 .47299195 .24145508 .5019989 .24145508 .5249939 .23945618 .5509949 .2364502 .55599978 .23345948 .55599978 .22045899 .55599978 .2114563 .54499819 .16647339 .5349884 .12948609 .5069885 .01953125 .3769989 .008529663 .34199525 .008529663 .24598694 .008529663 .14099121 .06550598 .14099121 .21846009 .14099121 .24945069 .15098572 .41467286 .2559967 .5448761 .30999757 .6129761 .40699769 .67407229 .5059967 .67407229 .60798647 .67407229 .6669922 .59695437 .6669922 .48077394 .6669922 .44070436 .6639862 .43971253 .6639862 .4296875 .6639862 .41967774 .6749878 .41967774 .67900088 .41967774 .69200137 .41967774 .69200137 .42167665 .69699099 .43971253L.7599945 .69506838Z"/>
<path id="font_2_2" d="M.33099366-.2400055C.33099366-.23701477 .33099366-.23500061 .31399537-.21800232 .18899536-.0920105 .15699768 .09700012 .15699768 .25 .15699768 .42399598 .19499207 .59799197 .31799317 .72299197 .33099366 .73498538 .33099366 .7369995 .33099366 .73999026 .33099366 .746994 .32699586 .75 .32099916 .75 .31098939 .75 .22099304 .6819916 .1619873 .5549927 .11099243 .44499208 .09899902 .33399964 .09899902 .25 .09899902 .17199707 .10998535 .050994874 .16499329-.06201172 .22499085-.18501282 .31098939-.25 .32099916-.25 .32699586-.25 .33099366-.24700928 .33099366-.2400055Z"/>
<path id="font_1_1" d="M.20298767 .0009918213C.20298767 .066986087 .17799378 .10598755 .13899231 .10598755 .10598755 .10598755 .085998538 .08099365 .085998538 .052993776 .085998538 .025985718 .10598755 0 .13899231 0 .15098572 0 .1639862 .0039978029 .17399597 .0129852299 .1769867 .01499939 .17799378 .015991211 .1789856 .015991211 .17999268 .015991211 .18099976 .01499939 .18099976 .0009918213 .18099976-.07316589 .1459961-.13328552 .11299133-.16635132 .101989749-.17736817 .101989749-.17936707 .101989749-.18237305 .101989749-.18936157 .10699463-.19335938 .11199951-.19335938 .12298584-.19335938 .20298767-.116256717 .20298767 .0009918213Z"/>
<path id="font_2_3" d="M.2889862 .25C.2889862 .32798768 .27799989 .44898988 .22299195 .56199648 .16299439 .68499758 .07699585 .75 .066986087 .75 .06098938 .75 .056991579 .74598696 .056991579 .73999026 .056991579 .7369995 .056991579 .73498538 .07598877 .71699526 .17399597 .6179962 .23098755 .45899964 .23098755 .25 .23098755 .07899475 .19400025-.09700012 .069992069-.2230072 .056991579-.23500061 .056991579-.23701477 .056991579-.2400055 .056991579-.2460022 .06098938-.25 .066986087-.25 .07699585-.25 .16699219-.18200684 .22599793-.055007936 .2769928 .054992677 .2889862 .16600037 .2889862 .25Z"/>
<path id="font_1_4" d="M.7630005 .60565188C.7719879 .6416168 .7739868 .6516113 .8470001 .6516113 .8730011 .6516113 .8809967 .6516113 .8809967 .6716156 .8809967 .6826172 .8699951 .6826172 .86698916 .6826172 .83898928 .6826172 .7669983 .6796112 .7389984 .6796112 .70999148 .6796112 .6389923 .6826172 .6100006 .6826172 .60198977 .6826172 .59098818 .6826172 .59098818 .6626129 .59098818 .6516113 .59999087 .6516113 .61898806 .6516113 .62098696 .6516113 .6399994 .6516113 .6569977 .6496124 .6749878 .6476135 .6839905 .6466217 .6839905 .6336212 .6839905 .6296234 .68299868 .6276245 .6799927 .6146393L.6199951 .37083436H.31498719L.37399293 .60565188C.3829956 .6416168 .38598634 .6516113 .45799256 .6516113 .48399354 .6516113 .49198915 .6516113 .49198915 .6716156 .49198915 .6826172 .48098756 .6826172 .47799684 .6826172 .44999696 .6826172 .37799073 .6796112 .34999085 .6796112 .32099916 .6796112 .25 .6826172 .22099304 .6826172 .21299744 .6826172 .20199585 .6826172 .20199585 .6626129 .20199585 .6516113 .21099854 .6516113 .22999573 .6516113 .23199463 .6516113 .25099183 .6516113 .2679901 .6496124 .28599549 .6476135 .29499818 .6466217 .29499818 .6336212 .29499818 .6296234 .2939911 .6266327 .29100038 .6146393L.15699768 .07797241C.14698792 .038986207 .14498902 .0309906 .06599426 .0309906 .04798889 .0309906 .038986207 .0309906 .038986207 .010986328 .038986207 0 .050994874 0 .052993776 0 .08099365 0 .1519928 .0029907227 .17999268 .0029907227 .20098877 .0029907227 .22299195 .0019989014 .24398804 .0019989014 .2659912 .0019989014 .28799439 0 .30899049 0 .31698609 0 .32899476 0 .32899476 .019989014 .32899476 .0309906 .31999208 .0309906 .30099488 .0309906 .2639923 .0309906 .23599243 .0309906 .23599243 .048980714 .23599243 .054977418 .23799134 .0599823 .23899842 .065979007L.30699159 .33984376H.6119995C.56999209 .17391968 .5469971 .07896423 .54299929 .0639801 .5329895 .03199768 .5139923 .0309906 .45199586 .0309906 .43699647 .0309906 .42799378 .0309906 .42799378 .010986328 .42799378 0 .43998719 0 .44198609 0 .46998597 0 .54100039 .0029907227 .56900027 .0029907227 .58999636 .0029907227 .6119995 .0019989014 .6329956 .0019989014 .6549988 .0019989014 .6769867 0 .69799807 0 .70599368 0 .71798709 0 .71798709 .019989014 .71798709 .0309906 .70899966 .0309906 .6899872 .0309906 .6529999 .0309906 .625 .0309906 .625 .048980714 .625 .054977418 .6269989 .0599823 .6279907 .065979007L.7630005 .60565188Z"/>
<path id="font_2_7" d="M.2939911 .16503906V.07800293C.2939911 .041992189 .2919922 .0309906 .21798706 .0309906H.19699097V0C.23799134 .0029907227 .2899933 .0029907227 .33198548 .0029907227 .37399293 .0029907227 .4269867 .0029907227 .46798707 0V.0309906H.44699098C.37298585 .0309906 .37098695 .041992189 .37098695 .07800293V.16503906H.47099305V.19602967H.37098695V.65075686C.37098695 .67074587 .37098695 .6767578 .35499574 .6767578 .34599305 .6767578 .34298707 .6767578 .33499146 .66474917L.027999878 .19602967V.16503906H.2939911M.2999878 .19602967H.055999757L.2999878 .5688019V.19602967Z"/>
</defs>
<path transform="matrix(1.00003,0,0,-1,22.891274,188.011)" stroke-width=".3985" stroke-linecap="butt" stroke-miterlimit="10" stroke-linejoin="miter" fill="none" stroke="#00aeef" d="M0 0H102.04953M0 17.00824H102.04953M0 34.0165H102.04953M0 51.02477H102.04953M0 68.03302H102.04953M0 85.04128H102.04953M0 102.04953H102.04953M0 119.0578H102.04953M0 136.06606H102.04953M0 153.07433H102.04953M0 170.0766H102.04953M0 0V170.08257M17.00824 0V170.08257M34.0165 0V170.08257M51.02477 0V170.08257M68.03302 0V170.08257M85.04128 0V170.08257M102.04356 0V170.08257M102.04953 170.08257"/>
<path transform="matrix(1.00003,0,0,-1,22.891274,188.011)" stroke-width="1.19553" stroke-linecap="butt" stroke-miterlimit="10" stroke-linejoin="miter" fill="none" stroke="#000000" d="M0 0H110.3816"/>
<path transform="matrix(1.00003,0,0,-1,133.27619,188.011)" d="M1.27522 0C-.31879 .31879-1.91284 .9564-3.8257 2.07224-1.91284 .6376-1.91284-.6376-3.8257-2.07224-1.91284-.9564-.31879-.31879 1.27522 0Z"/>
<path transform="matrix(1.00003,0,0,-1,133.27619,188.011)" stroke-width="1.19553" stroke-linecap="butt" stroke-linejoin="round" fill="none" stroke="#000000" d="M1.27522 0C-.31879 .31879-1.91284 .9564-3.8257 2.07224-1.91284 .6376-1.91284-.6376-3.8257-2.07224-1.91284-.9564-.31879-.31879 1.27522 0Z"/>
<use data-text="t" xlink:href="#font_1_5" transform="matrix(9.962899,0,0,-9.9626,139.06775,191.075)"/>
<path transform="matrix(1.00003,0,0,-1,22.891274,188.011)" stroke-width="1.19553" stroke-linecap="butt" stroke-miterlimit="10" stroke-linejoin="miter" fill="none" stroke="#000000" d="M0 0V181.81624"/>
<path transform="matrix(0,-1,-1.00003,-0,22.891274,6.194763)" d="M1.27522 0C-.31879 .31879-1.91284 .9564-3.8257 2.07224-1.91284 .6376-1.91284-.6376-3.8257-2.07224-1.91284-.9564-.31879-.31879 1.27522 0Z"/>
<path transform="matrix(0,-1,-1.00003,-0,22.891274,6.194763)" stroke-width="1.19553" stroke-linecap="butt" stroke-linejoin="round" fill="none" stroke="#000000" d="M1.27522 0C-.31879 .31879-1.91284 .9564-3.8257 2.07224-1.91284 .6376-1.91284-.6376-3.8257-2.07224-1.91284-.9564-.31879-.31879 1.27522 0Z"/>
<use data-text="D" xlink:href="#font_1_2" transform="matrix(9.962899,0,0,-9.9626,12.439957,7.725998)"/>
<path transform="matrix(1.00003,0,0,-1,22.891274,188.011)" stroke-width="1.19553" stroke-linecap="butt" stroke-miterlimit="10" stroke-linejoin="miter" fill="none" stroke="#00aeef" d="M85.04128 0V170.08257"/>
<path transform="matrix(1.00003,0,0,-1,22.891274,188.011)" stroke-width=".3985" stroke-linecap="butt" stroke-miterlimit="10" stroke-linejoin="miter" fill="none" stroke="#000000" d="M85.04128 2.55112V-2.55139"/>
<path transform="matrix(1.00003,0,0,-1,22.891274,188.011)" d="M81.5543-14.15245H88.52824V-5.7394697H81.5543Z" fill="#ffffff"/>
<use data-text="5" xlink:href="#font_2_8" transform="matrix(9.962899,0,0,-9.9626,105.444759,201.167)"/>
<path transform="matrix(1.00003,0,0,-1,22.891274,188.011)" stroke-width="1.19553" stroke-linecap="butt" stroke-miterlimit="10" stroke-linejoin="miter" fill="none" stroke="#00aeef" d="M0 34.0165H102.04953"/>
<path transform="matrix(1.00003,0,0,-1,22.891274,188.011)" stroke-width=".3985" stroke-linecap="butt" stroke-miterlimit="10" stroke-linejoin="miter" fill="none" stroke="#000000" d="M2.55112 34.0165H-2.55139"/>
<path transform="matrix(1.00003,0,0,-1,22.891274,188.011)" d="M-17.69482 29.81001H-5.73948V38.222993H-17.69482Z" fill="#ffffff"/>
<use data-text="5" xlink:href="#font_2_8" transform="matrix(9.962899,0,0,-9.9626,6.1917726,157.205)"/>
<use data-text="0" xlink:href="#font_2_4" transform="matrix(9.962899,0,0,-9.9626,11.173218,157.205)"/>
<path transform="matrix(1.00003,0,0,-1,22.891274,188.011)" stroke-width="1.19553" stroke-linecap="butt" stroke-miterlimit="10" stroke-linejoin="miter" fill="none" stroke="#00aeef" d="M0 68.03302H102.04953"/>
<path transform="matrix(1.00003,0,0,-1,22.891274,188.011)" stroke-width=".3985" stroke-linecap="butt" stroke-miterlimit="10" stroke-linejoin="miter" fill="none" stroke="#000000" d="M2.55112 68.03302H-2.55139"/>
<path transform="matrix(1.00003,0,0,-1,22.891274,188.011)" d="M-22.67621 63.82654H-5.7394907V72.239528H-22.67621Z" fill="#ffffff"/>
<use data-text="1" xlink:href="#font_2_5" transform="matrix(9.962899,0,0,-9.9626,1.2106247,123.188)"/>
<use data-text="0" xlink:href="#font_2_4" transform="matrix(9.962899,0,0,-9.9626,6.19207,123.188)"/>
<use data-text="0" xlink:href="#font_2_4" transform="matrix(9.962899,0,0,-9.9626,11.173523,123.188)"/>
<path transform="matrix(1.00003,0,0,-1,22.891274,188.011)" stroke-width="1.19553" stroke-linecap="butt" stroke-miterlimit="10" stroke-linejoin="miter" fill="none" stroke="#00aeef" d="M0 102.04953H102.04953"/>
<path transform="matrix(1.00003,0,0,-1,22.891274,188.011)" stroke-width=".3985" stroke-linecap="butt" stroke-miterlimit="10" stroke-linejoin="miter" fill="none" stroke="#000000" d="M2.55112 102.04953H-2.55139"/>
<path transform="matrix(1.00003,0,0,-1,22.891274,188.011)" d="M-22.67621 97.84305H-5.7394907V106.25603H-22.67621Z" fill="#ffffff"/>
<use data-text="1" xlink:href="#font_2_5" transform="matrix(9.962899,0,0,-9.9626,1.2106247,89.172008)"/>
<use data-text="5" xlink:href="#font_2_8" transform="matrix(9.962899,0,0,-9.9626,6.19207,89.172008)"/>
<use data-text="0" xlink:href="#font_2_4" transform="matrix(9.962899,0,0,-9.9626,11.173523,89.172008)"/>
<path transform="matrix(1.00003,0,0,-1,22.891274,188.011)" stroke-width="1.19553" stroke-linecap="butt" stroke-miterlimit="10" stroke-linejoin="miter" fill="none" stroke="#00aeef" d="M0 136.06606H102.04953"/>
<path transform="matrix(1.00003,0,0,-1,22.891274,188.011)" stroke-width=".3985" stroke-linecap="butt" stroke-miterlimit="10" stroke-linejoin="miter" fill="none" stroke="#000000" d="M2.55112 136.06606H-2.55139"/>
<path transform="matrix(1.00003,0,0,-1,22.891274,188.011)" d="M-22.67621 131.85958H-5.7394907V140.27256H-22.67621Z" fill="#ffffff"/>
<use data-text="2" xlink:href="#font_2_6" transform="matrix(9.962899,0,0,-9.9626,1.2106247,55.155)"/>
<use data-text="0" xlink:href="#font_2_4" transform="matrix(9.962899,0,0,-9.9626,6.19207,55.155)"/>
<use data-text="0" xlink:href="#font_2_4" transform="matrix(9.962899,0,0,-9.9626,11.173523,55.155)"/>
<path transform="matrix(1.00003,0,0,-1,22.891274,188.011)" stroke-width="1.19553" stroke-linecap="butt" stroke-miterlimit="10" stroke-linejoin="miter" fill="none" stroke="#00aeef" d="M0 170.08257H102.04953"/>
<path transform="matrix(1.00003,0,0,-1,22.891274,188.011)" stroke-width=".3985" stroke-linecap="butt" stroke-miterlimit="10" stroke-linejoin="miter" fill="none" stroke="#000000" d="M2.55112 170.08257H-2.55139"/>
<path transform="matrix(1.00003,0,0,-1,22.891274,188.011)" d="M-22.67621 165.87607H-5.7394907V174.28905H-22.67621Z" fill="#ffffff"/>
<use data-text="2" xlink:href="#font_2_6" transform="matrix(9.962899,0,0,-9.9626,1.2106247,21.139008)"/>
<use data-text="5" xlink:href="#font_2_8" transform="matrix(9.962899,0,0,-9.9626,6.19207,21.139008)"/>
<use data-text="0" xlink:href="#font_2_4" transform="matrix(9.962899,0,0,-9.9626,11.173523,21.139008)"/>
<path transform="matrix(1.00003,0,0,-1,22.891274,188.011)" stroke-width="2.26773" stroke-linecap="butt" stroke-dasharray="2.98883,2.98883" stroke-miterlimit="10" stroke-linejoin="miter" fill="none" stroke="#0000ff" d="M34.0165 68.03302H68.03302"/>
<path transform="matrix(1.00003,0,0,-1,22.891274,188.011)" d="M63.08385 76.48003H38.96568V69.8797H63.08385ZM38.96568 69.8797" fill="#ffffff"/>
<use data-text="&#x2206;" xlink:href="#font_2_1" transform="matrix(7.472174,0,0,-7.4719498,62.604967,117.384258)" fill="#0000ff"/>
<use data-text="t" xlink:href="#font_1_5" transform="matrix(7.472174,0,0,-7.4719498,68.83166,117.384258)" fill="#0000ff"/>
<use data-text="=" xlink:href="#font_2_9" transform="matrix(7.472174,0,0,-7.4719498,73.605548,117.384258)" fill="#0000ff"/>
<use data-text="2" xlink:href="#font_2_6" transform="matrix(7.472174,0,0,-7.4719498,81.481227,117.384258)" fill="#0000ff"/>
<path transform="matrix(1.00003,0,0,-1,22.891274,188.011)" stroke-width="2.26773" stroke-linecap="butt" stroke-dasharray="2.98883,2.98883" stroke-miterlimit="10" stroke-linejoin="miter" fill="none" stroke="#0000ff" d="M68.03302 68.03302V136.06606"/>
<path transform="matrix(1.00003,0,0,-1,22.891274,188.011)" d="M107.57472 105.56972H69.93639V98.52936H107.57472ZM69.93639 98.52936" fill="#ffffff"/>
<use data-text="&#x2206;" xlink:href="#font_2_1" transform="matrix(7.9703195,0,0,-7.97008,93.626399,88.68481)" fill="#0000ff"/>
<use data-text="D" xlink:href="#font_1_2" transform="matrix(7.9703195,0,0,-7.97008,100.268199,88.68481)" fill="#0000ff"/>
<use data-text="=" xlink:href="#font_2_9" transform="matrix(7.9703195,0,0,-7.97008,109.30287,88.68481)" fill="#0000ff"/>
<use data-text="1" xlink:href="#font_2_5" transform="matrix(7.9703195,0,0,-7.97008,117.70358,88.68481)" fill="#0000ff"/>
<use data-text="0" xlink:href="#font_2_4" transform="matrix(7.9703195,0,0,-7.97008,121.688739,88.68481)" fill="#0000ff"/>
<use data-text="0" xlink:href="#font_2_4" transform="matrix(7.9703195,0,0,-7.97008,125.67389,88.68481)" fill="#0000ff"/>
<path transform="matrix(1.00003,0,0,-1,22.891274,188.011)" stroke-width="1.59404" stroke-linecap="butt" stroke-miterlimit="10" stroke-linejoin="miter" fill="none" stroke="#ff0000" d="M0 0 84.0077 168.0154"/>
<path transform="matrix(.44718344,-.89436,-.8943869,-.44717,106.9015,19.99562)" d="M1.51433 0C-.37857 .37857-2.27148 1.13573-4.54298 2.46077-2.27148 .75716-2.27148-.75716-4.54298-2.46077-2.27148-1.13573-.37857-.37857 1.51433 0Z" fill="#ff0000"/>
<path transform="matrix(.44718344,-.89436,-.8943869,-.44717,106.9015,19.99562)" stroke-width="1.59404" stroke-linecap="butt" stroke-linejoin="round" fill="none" stroke="#ff0000" d="M1.51433 0C-.37857 .37857-2.27148 1.13573-4.54298 2.46077-2.27148 .75716-2.27148-.75716-4.54298-2.46077-2.27148-1.13573-.37857-.37857 1.51433 0Z"/>
<path transform="matrix(1.00003,0,0,-1,22.891274,188.011)" d="M37.41814 68.03302C37.41814 69.91171 35.89519 71.43466 34.0165 71.43466 32.13782 71.43466 30.61487 69.91171 30.61487 68.03302 30.61487 66.15434 32.13782 64.6314 34.0165 64.6314 35.89519 64.6314 37.41814 66.15434 37.41814 68.03302ZM34.0165 68.03302" fill="#cc0000"/>
<path transform="matrix(1.00003,0,0,-1,22.891274,188.011)" stroke-width=".3985" stroke-linecap="butt" stroke-miterlimit="10" stroke-linejoin="miter" fill="none" stroke="#cc0000" d="M37.41814 68.03302C37.41814 69.91171 35.89519 71.43466 34.0165 71.43466 32.13782 71.43466 30.61487 69.91171 30.61487 68.03302 30.61487 66.15434 32.13782 64.6314 34.0165 64.6314 35.89519 64.6314 37.41814 66.15434 37.41814 68.03302ZM34.0165 68.03302"/>
<path transform="matrix(1.00003,0,0,-1,22.891274,188.011)" d="M35.21204 51.89334H77.14009V63.848665H35.21204Z" fill="#ffffff"/>
<use data-text="G" xlink:href="#font_1_3" transform="matrix(9.962899,0,0,-9.9626,59.10036,132.631)"/>
<use data-text="(" xlink:href="#font_2_2" transform="matrix(9.962899,0,0,-9.9626,66.93359,132.631)"/>
<use data-text="2" xlink:href="#font_2_6" transform="matrix(9.962899,0,0,-9.9626,70.799198,132.631)"/>
<use data-text="," xlink:href="#font_1_1" transform="matrix(9.962899,0,0,-9.9626,75.789859,132.631)"/>
<use data-text="1" xlink:href="#font_2_5" transform="matrix(9.962899,0,0,-9.9626,80.218,132.631)"/>
<use data-text="0" xlink:href="#font_2_4" transform="matrix(9.962899,0,0,-9.9626,85.19945,132.631)"/>
<use data-text="0" xlink:href="#font_2_4" transform="matrix(9.962899,0,0,-9.9626,90.18089,132.631)"/>
<use data-text=")" xlink:href="#font_2_3" transform="matrix(9.962899,0,0,-9.9626,95.16232,132.631)"/>
<path transform="matrix(1.00003,0,0,-1,22.891274,188.011)" d="M71.43466 136.06606C71.43466 137.94475 69.91171 139.4677 68.03302 139.4677 66.15434 139.4677 64.6314 137.94475 64.6314 136.06606 64.6314 134.18737 66.15434 132.66442 68.03302 132.66442 69.91171 132.66442 71.43466 134.18737 71.43466 136.06606ZM68.03302 136.06606" fill="#cc0000"/>
<path transform="matrix(1.00003,0,0,-1,22.891274,188.011)" stroke-width=".3985" stroke-linecap="butt" stroke-miterlimit="10" stroke-linejoin="miter" fill="none" stroke="#cc0000" d="M71.43466 136.06606C71.43466 137.94475 69.91171 139.4677 68.03302 139.4677 66.15434 139.4677 64.6314 137.94475 64.6314 136.06606 64.6314 134.18737 66.15434 132.66442 68.03302 132.66442 69.91171 132.66442 71.43466 134.18737 71.43466 136.06606ZM68.03302 136.06606"/>
<path transform="matrix(1.00003,0,0,-1,22.891274,188.011)" d="M19.66655 138.25788H62.85239V150.2132H19.66655Z" fill="#ffffff"/>
<use data-text="H" xlink:href="#font_1_4" transform="matrix(9.962899,0,0,-9.9626,43.554895,46.266008)"/>
<use data-text="(" xlink:href="#font_2_2" transform="matrix(9.962899,0,0,-9.9626,52.64617,46.266008)"/>
<use data-text="4" xlink:href="#font_2_7" transform="matrix(9.962899,0,0,-9.9626,56.511774,46.266008)"/>
<use data-text="," xlink:href="#font_1_1" transform="matrix(9.962899,0,0,-9.9626,61.502435,46.266008)"/>
<use data-text="2" xlink:href="#font_2_6" transform="matrix(9.962899,0,0,-9.9626,65.93056,46.266008)"/>
<use data-text="0" xlink:href="#font_2_4" transform="matrix(9.962899,0,0,-9.9626,70.912,46.266008)"/>
<use data-text="0" xlink:href="#font_2_4" transform="matrix(9.962899,0,0,-9.9626,75.89345,46.266008)"/>
<use data-text=")" xlink:href="#font_2_3" transform="matrix(9.962899,0,0,-9.9626,80.87489,46.266008)"/>
</svg>
