<svg xmlns="http://www.w3.org/2000/svg" xmlns:xlink="http://www.w3.org/1999/xlink" version="1.1" width="203" height="194" viewBox="0 0 203 194">
<defs>
<path id="font_1_4" d="M.33399964 .30233766C.33999635 .32835389 .36299134 .42037965 .43299867 .42037965 .43798829 .42037965 .46199037 .42037965 .48298646 .40734864 .45498658 .402359 .43499757 .37734986 .43499757 .35334779 .43499757 .33735658 .44599916 .31835938 .47299195 .31835938 .49499513 .31835938 .5269928 .3363495 .5269928 .37635804 .5269928 .42837525 .46798707 .4423828 .43399049 .4423828 .37599183 .4423828 .34098817 .38935853 .32899476 .36634828 .3039856 .43237306 .25 .4423828 .22099304 .4423828 .116989139 .4423828 .05999756 .3133545 .05999756 .28834535 .05999756 .27833558 .069992069 .27833558 .07199097 .27833558 .07998657 .27833558 .08299255 .28033448 .084991458 .28933717 .11898804 .39535523 .18499756 .42037965 .21899414 .42037965 .23799134 .42037965 .272995 .4113617 .272995 .35334779 .272995 .32235719 .2559967 .25532533 .21899414 .11528015 .20298767 .053268434 .16799927 .011245728 .12399292 .011245728 .117996219 .011245728 .09498596 .011245728 .07398987 .024276734 .09899902 .029266358 .12098694 .05027771 .12098694 .07827759 .12098694 .105270389 .09899902 .11328125 .083999637 .11328125 .053985597 .11328125 .0289917 .08728027 .0289917 .055267335 .0289917 .009246826 .07899475-.0107421879 .12298584-.0107421879 .18899536-.0107421879 .22499085 .059280397 .22799683 .0652771 .23999024 .028274537 .27598573-.0107421879 .33599855-.0107421879 .43899537-.0107421879 .49598695 .118270877 .49598695 .14328003 .49598695 .1532898 .4869995 .1532898 .48399354 .1532898 .47499085 .1532898 .47299195 .14929199 .47099305 .14228821 .43798829 .03527832 .36999513 .011245728 .33799745 .011245728 .29899598 .011245728 .2829895 .043273927 .2829895 .07727051 .2829895 .09927368 .2889862 .121276859 .2999878 .16529846L.33399964 .30233766Z"/>
<path id="font_1_5" d="M.48599244 .38136292C.48999024 .39537049 .48999024 .39736939 .48999024 .40437318 .48999024 .42237855 .47599793 .43138124 .46099855 .43138124 .45098878 .43138124 .43499757 .42536927 .42599488 .41036988 .42399598 .405365 .41600038 .37435914 .4119873 .35635377 .40499879 .33035279 .397995 .30334474 .3919983 .27633668L.34700013 .09628296C.34298707 .08126831 .2999878 .011245728 .23399353 .011245728 .18299866 .011245728 .17199707 .055267335 .17199707 .0922699 .17199707 .1382904 .18899536 .20030213 .22299195 .28833009 .23899842 .3293457 .24299622 .3403473 .24299622 .36035157 .24299622 .405365 .21099854 .4423828 .16099549 .4423828 .06599426 .4423828 .0289917 .29733277 .0289917 .28833009 .0289917 .27833558 .038986207 .27833558 .040985109 .27833558 .050994874 .27833558 .051986696 .28033448 .056991579 .29634095 .083999637 .3903656 .12399292 .42037965 .1579895 .42037965 .1659851 .42037965 .18299866 .42037965 .18299866 .3883667 .18299866 .36335755 .17298889 .3373413 .1659851 .31834413 .12599182 .21231079 .10798645 .1552887 .10798645 .10827637 .10798645 .019256592 .17098999-.0107421879 .22999573-.0107421879 .2689972-.0107421879 .30299378 .0062561037 .33099366 .03425598 .31799317-.017745972 .30599977-.06674194 .2659912-.11973572 .23999024-.15385437 .20199585-.18309021 .1559906-.18309021 .14199829-.18309021 .09700012-.18005371 .07998657-.14074707 .09599304-.14074707 .10899353-.14074707 .12298584-.1287384 .1329956-.11973572 .14299011-.10673523 .14299011-.08773804 .14299011-.056747438 .115997318-.052734376 .10598755-.052734376 .08299255-.052734376 .049987794-.068740848 .049987794-.11773682 .049987794-.16796875 .09399414-.20507813 .1559906-.20507813 .25898744-.20507813 .3619995-.11373901 .3899994-.00074768069L.48599244 .38136292Z"/>
<path id="font_2_1" d="M.6589966 .23046875C.6759949 .23046875 .69400027 .23046875 .69400027 .25045777 .69400027 .27046205 .6759949 .27046205 .6589966 .27046205H.117996219C.100997928 .27046205 .08299255 .27046205 .08299255 .25045777 .08299255 .23046875 .100997928 .23046875 .117996219 .23046875H.6589966Z"/>
<path id="font_3_3" d="M.44898988 .20022583C.44898988 .3193512 .36698915 .41944886 .25898744 .41944886 .21099854 .41944886 .16799927 .40345765 .13198853 .36842347V.5637665C.1519928 .5577698 .18499756 .55078127 .21699524 .55078127 .33999635 .55078127 .4099884 .6417694 .4099884 .6547699 .4099884 .6607666 .40699769 .6657715 .3999939 .6657715 .39898683 .6657715 .39698792 .6657715 .3919983 .66278079 .37199403 .6537781 .32299806 .6337738 .2559967 .6337738 .21598816 .6337738 .16999817 .6407776 .12298584 .6617737 .114990238 .66477969 .11299133 .66477969 .11099243 .66477969 .100997928 .66477969 .100997928 .6567688 .100997928 .6407776V.34439088C.100997928 .32637025 .100997928 .31835938 .114990238 .31835938 .12199402 .31835938 .12399292 .32136537 .12799073 .32736207 .13899231 .3433838 .17599488 .39746095 .25698854 .39746095 .30899049 .39746095 .33399964 .35139466 .34199525 .33337403 .35798646 .29632569 .3600006 .25727845 .3600006 .20722962 .3600006 .17222595 .3600006 .11222839 .33599855 .07035828 .31199647 .031463624 .2749939 .0055389406 .22898865 .0055389406 .1559906 .0055389406 .09899902 .058380128 .08198547 .11723328 .084991458 .1162262 .08799744 .115234378 .09899902 .115234378 .13198853 .115234378 .14898682 .14022827 .14898682 .16423035 .14898682 .18823242 .13198853 .21322632 .09899902 .21322632 .084991458 .21322632 .049987794 .20622254 .049987794 .16023255 .049987794 .07434082 .11898804-.022460938 .23098755-.022460938 .34700013-.022460938 .44898988 .073349 .44898988 .20022583Z"/>
<path id="font_3_2" d="M.2939911 .64004519C.2939911 .66400149 .2939911 .6660156 .2709961 .6660156 .20899964 .60227969 .12098694 .60227969 .08898926 .60227969V.57128909C.10899353 .57128909 .16799927 .57128909 .21998596 .5972748V.07902527C.21998596 .042999269 .21699524 .0309906 .1269989 .0309906H.09498596V0C.12998963 .0029907227 .21699524 .0029907227 .25698854 .0029907227 .29699708 .0029907227 .38398744 .0029907227 .4189911 0V.0309906H.3869934C.29699708 .0309906 .2939911 .041992189 .2939911 .07902527V.64004519Z"/>
<path id="font_3_1" d="M.45999146 .31976319C.45999146 .39982606 .45498658 .47988893 .41999818 .5539398 .37399293 .65000918 .2919922 .6660156 .25 .6660156 .18998719 .6660156 .116989139 .64001467 .07598877 .54693606 .04399109 .47789 .038986207 .39982606 .038986207 .31976319 .038986207 .24472046 .042999269 .15464783 .083999637 .07859802 .1269989-.0024719239 .19999695-.022460938 .24899292-.022460938 .30299378-.022460938 .3789978-.0014648438 .4229889 .09359741 .45498658 .16265869 .45999146 .2407074 .45999146 .31976319M.24899292-.00047302247C.20999146-.00047302247 .15098572 .024551392 .1329956 .12062073 .12199402 .18066406 .12199402 .2727356 .12199402 .3317871 .12199402 .39582826 .12199402 .46188355 .12998963 .5159149 .14898682 .63500979 .22399903 .64401248 .24899292 .64401248 .28199769 .64401248 .34799195 .6259918 .36698915 .52693179 .3769989 .47088624 .3769989 .39482118 .3769989 .3317871 .3769989 .25672914 .3769989 .18867493 .3659973 .12461853 .35099793 .029556275 .2939911-.00047302247 .24899292-.00047302247Z"/>
<path id="font_1_3" d="M.30299378 .3244629H.3999939C.47499085 .3244629 .48298646 .30848695 .48298646 .27954103 .48298646 .2725525 .48298646 .26057435 .47599793 .2306366 .47399903 .22564698 .47299195 .22164917 .47299195 .21965027 .47299195 .21166992 .47898866 .20767212 .4850006 .20767212 .49499513 .20767212 .49499513 .21066284 .5 .2286377L.5549927 .44551087C.55799868 .45651246 .55799868 .45851136 .55799868 .46151734 .55799868 .46351625 .55599978 .47251893 .54599 .47251893 .5359955 .47251893 .5349884 .46751405 .5309906 .45150758 .5099945 .37347413 .4869995 .35546876 .4019928 .35546876H.31098939L.375 .6095886C.38398744 .64460757 .3849945 .64860537 .42900086 .64860537H.5609894C.6839905 .64860537 .70700076 .6156006 .70700076 .53855898 .70700076 .5155487 .70700076 .51153567 .70399478 .4845276 .70199587 .4715271 .70199587 .46951295 .70199587 .46652223 .70199587 .46151734 .7049866 .45451356 .71398928 .45451356 .72499087 .45451356 .7259979 .46051026 .7279968 .4795227L.7480011 .65260317C.7509918 .6796112 .74598696 .6796112 .72099307 .6796112H.23098755C.21099854 .6796112 .20098877 .6796112 .20098877 .65960696 .20098877 .64860537 .20999146 .64860537 .22898865 .64860537 .2659912 .64860537 .2939911 .64860537 .2939911 .6306 .2939911 .6266022 .2939911 .6246033 .2889862 .60658267L.15699768 .07791138C.14698792 .038970949 .14498902 .0309906 .06599426 .0309906 .04899597 .0309906 .037994386 .0309906 .037994386 .011993408 .037994386 0 .049987794 0 .052993776 0 .08198547 0 .1559906 .0029907227 .18499756 .0029907227 .21798706 .0029907227 .30099488 0 .33399964 0 .34298707 0 .35499574 0 .35499574 .018997193 .35499574 .026992798 .34899903 .0289917 .34899903 .02999878 .34599305 .0309906 .34399415 .0309906 .32099916 .0309906 .29899598 .0309906 .2939911 .0309906 .2689972 .032989503 .23999024 .035980226 .23699951 .039978029 .23699951 .052947999 .23699951 .0549469 .23699951 .060943605 .24099732 .075912479L.30299378 .3244629Z"/>
<path id="font_1_1" d="M.15899658 .07795715C.14898682 .038986207 .14698792 .0309906 .067993167 .0309906 .050994874 .0309906 .039993287 .0309906 .039993287 .011993408 .039993287 0 .04899597 0 .067993167 0H.39898683C.6069946 0 .80400088 .21087647 .80400088 .42974855 .80400088 .5706482 .71899417 .6826172 .56900027 .6826172H.23298645C.21398926 .6826172 .20298767 .6826172 .20298767 .66360476 .20298767 .6516113 .21199036 .6516113 .23199463 .6516113 .24499512 .6516113 .2630005 .65060427 .2749939 .6496124 .29100038 .6476135 .29699708 .64460757 .29699708 .6336212 .29699708 .6296234 .29599 .62661746 .29299928 .614624L.15899658 .07795715M.375 .6136322C.38398744 .64860537 .38598634 .6516113 .42900086 .6516113H.5359955C.6339874 .6516113 .71699526 .5986328 .71699526 .46672059 .71699526 .41775514 .69699099 .25386048 .6119995 .1439209 .58299258 .10694885 .5039978 .0309906 .3809967 .0309906H.2679901C.2539978 .0309906 .2519989 .0309906 .24598694 .03199768 .23599243 .032989503 .23298645 .033996583 .23298645 .041992189 .23298645 .04498291 .23298645 .04698181 .23799134 .064971927L.375 .6136322Z"/>
<path id="font_1_2" d="M.70799258 .23292542C.70999148 .23791504 .71299746 .24491883 .71299746 .24691773 .71299746 .24790955 .71299746 .2579193 .70098879 .2579193 .69200137 .2579193 .6899872 .25190736 .6879883 .24591065 .6230011 .097961429 .58599856 .0309906 .4149933 .0309906H.2689972C.25498963 .0309906 .25299073 .0309906 .24699402 .03199768 .23699951 .032989503 .23399353 .033996583 .23399353 .041992189 .23399353 .04498291 .23399353 .04698181 .23899842 .06498718L.30699159 .33789063H.4059906C.4909973 .33789063 .4909973 .31689454 .4909973 .29190064 .4909973 .28489686 .4909973 .27290345 .48399354 .24291992 .48199464 .23791504 .48098756 .23492432 .48098756 .23191834 .48098756 .22692871 .4850006 .220932 .49398805 .220932 .5019989 .220932 .5049896 .22592163 .5089874 .24092102L.56599429 .47477723C.56599429 .48077394 .5609894 .48576356 .55400088 .48576356 .54499819 .48576356 .54299929 .47976686 .5399933 .4677887 .5189972 .39186097 .5009918 .36888124 .40899659 .36888124H.31498719L.375 .60964968C.38398744 .64460757 .3849945 .64860537 .42900086 .64860537H.56999209C.69200137 .64860537 .7220001 .61964419 .7220001 .5377197 .7220001 .51374819 .7220001 .51174929 .71798709 .48477174 .71798709 .47877503 .71699526 .4717865 .71699526 .46678163 .71699526 .461792 .7200012 .45480348 .72898867 .45480348 .73999026 .45480348 .7409973 .46080018 .7429962 .47976686L.7630005 .65260317C.7659912 .6796112 .7609863 .6796112 .73599246 .6796112H.23098755C.21099854 .6796112 .20098877 .6796112 .20098877 .65960696 .20098877 .64860537 .20999146 .64860537 .22898865 .64860537 .2659912 .64860537 .2939911 .64860537 .2939911 .6306305 .2939911 .6266327 .2939911 .6246338 .2889862 .6066437L.15699768 .07797241C.14698792 .038986207 .14498902 .0309906 .06599426 .0309906 .04899597 .0309906 .037994386 .0309906 .037994386 .011993408 .037994386 0 .04699707 0 .06599426 0H.58499148C.60798647 0 .60899356 .0009918213 .6159973 .016998291L.70799258 .23292542Z"/>
</defs>
<path transform="matrix(1.00002,0,0,-1.00002,94.107639,103.68082)" stroke-width=".3985" stroke-linecap="butt" stroke-miterlimit="10" stroke-linejoin="miter" fill="none" stroke="#00aeef" d="M-85.04128-85.04128H85.04128M-85.04128-76.53716H85.04128M-85.04128-68.03302H85.04128M-85.04128-59.52888H85.04128M-85.04128-51.02477H85.04128M-85.04128-42.52063H85.04128M-85.04128-34.0165H85.04128M-85.04128-25.51237H85.04128M-85.04128-17.00824H85.04128M-85.04128-8.50412H85.04128M-85.04128 0H85.04128M-85.04128 8.50412H85.04128M-85.04128 17.00824H85.04128M-85.04128 25.51237H85.04128M-85.04128 34.0165H85.04128M-85.04128 42.52063H85.04128M-85.04128 51.02477H85.04128M-85.04128 59.52888H85.04128M-85.04128 68.03302H85.04128M-85.04128 76.53716H85.04128M-85.04128 85.0383H85.04128M-85.04128-85.04128V85.04128M-76.53716-85.04128V85.04128M-68.03302-85.04128V85.04128M-59.52888-85.04128V85.04128M-51.02477-85.04128V85.04128M-42.52063-85.04128V85.04128M-34.0165-85.04128V85.04128M-25.51237-85.04128V85.04128M-17.00824-85.04128V85.04128M-8.50412-85.04128V85.04128M0-85.04128V85.04128M8.50412-85.04128V85.04128M17.00824-85.04128V85.04128M25.51237-85.04128V85.04128M34.0165-85.04128V85.04128M42.52063-85.04128V85.04128M51.02477-85.04128V85.04128M59.52888-85.04128V85.04128M68.03302-85.04128V85.04128M76.53716-85.04128V85.04128M85.0383-85.04128V85.04128M85.04128 85.04128"/>
<path transform="matrix(1.00002,0,0,-1.00002,94.107639,103.68082)" stroke-width=".79701" stroke-linecap="butt" stroke-miterlimit="10" stroke-linejoin="miter" fill="none" stroke="#000000" d="M-85.04128 0H97.21333"/>
<path transform="matrix(1.00002,0,0,-1.00002,191.3229,103.68082)" d="M1.0361 0C-.25902 .25902-1.55415 .77707-3.1083 1.68365-1.55415 .51805-1.55415-.51805-3.1083-1.68365-1.55415-.77707-.25902-.25902 1.0361 0Z"/>
<path transform="matrix(1.00002,0,0,-1.00002,191.3229,103.68082)" stroke-width=".79701" stroke-linecap="butt" stroke-linejoin="round" fill="none" stroke="#000000" d="M1.0361 0C-.25902 .25902-1.55415 .77707-3.1083 1.68365-1.55415 .51805-1.55415-.51805-3.1083-1.68365-1.55415-.77707-.25902-.25902 1.0361 0Z"/>
<use data-text="x" xlink:href="#font_1_4" transform="matrix(9.962799,0,0,-9.962799,196.47669,105.82586)"/>
<path transform="matrix(1.00002,0,0,-1.00002,94.107639,103.68082)" stroke-width=".79701" stroke-linecap="butt" stroke-miterlimit="10" stroke-linejoin="miter" fill="none" stroke="#000000" d="M0-85.04128V97.21333"/>
<path transform="matrix(0,-1.00002,-1.00002,-0,94.107639,6.465538)" d="M1.0361 0C-.25902 .25902-1.55415 .77707-3.1083 1.68365-1.55415 .51805-1.55415-.51805-3.1083-1.68365-1.55415-.77707-.25902-.25902 1.0361 0Z"/>
<path transform="matrix(0,-1.00002,-1.00002,-0,94.107639,6.465538)" stroke-width=".79701" stroke-linecap="butt" stroke-linejoin="round" fill="none" stroke="#000000" d="M1.0361 0C-.25902 .25902-1.55415 .77707-3.1083 1.68365-1.55415 .51805-1.55415-.51805-3.1083-1.68365-1.55415-.77707-.25902-.25902 1.0361 0Z"/>
<use data-text="y" xlink:href="#font_1_5" transform="matrix(9.962799,0,0,-9.962799,87.1385,6.2068636)"/>
<path transform="matrix(1.00002,0,0,-1.00002,94.107639,103.68082)" stroke-width="1.19553" stroke-linecap="butt" stroke-miterlimit="10" stroke-linejoin="miter" fill="none" stroke="#00aeef" d="M-42.52063-85.04128V85.04128"/>
<path transform="matrix(1.00002,0,0,-1.00002,94.107639,103.68082)" stroke-width="1.19553" stroke-linecap="butt" stroke-miterlimit="10" stroke-linejoin="miter" fill="none" stroke="#00aeef" d="M-85.04128-42.52063H85.04128"/>
<path transform="matrix(1.00002,0,0,-1.00002,94.107639,103.68082)" stroke-width=".3985" stroke-linecap="butt" stroke-miterlimit="10" stroke-linejoin="miter" fill="none" stroke="#000000" d="M-42.52063 1.27554V-1.27568"/>
<path transform="matrix(1.00002,0,0,-1.00002,94.107639,103.68082)" d="M-49.88202-12.71071H-35.15924V-3.4674798H-49.88202Z" fill="#ffffff"/>
<use data-text="&#x2212;" xlink:href="#font_2_1" transform="matrix(9.962799,0,0,-9.962799,45.220659,114.56503)"/>
<use data-text="5" xlink:href="#font_3_3" transform="matrix(9.962799,0,0,-9.962799,52.969804,114.56503)"/>
<path transform="matrix(1.00002,0,0,-1.00002,94.107639,103.68082)" stroke-width=".3985" stroke-linecap="butt" stroke-miterlimit="10" stroke-linejoin="miter" fill="none" stroke="#000000" d="M1.27554-42.52063H-1.27568"/>
<path transform="matrix(1.00002,0,0,-1.00002,94.107639,103.68082)" d="M-18.19026-47.14224H-3.4674798V-37.89901H-18.19026Z" fill="#ffffff"/>
<use data-text="&#x2212;" xlink:href="#font_2_1" transform="matrix(9.962799,0,0,-9.962799,76.91329,148.99773)"/>
<use data-text="5" xlink:href="#font_3_3" transform="matrix(9.962799,0,0,-9.962799,84.66244,148.99773)"/>
<path transform="matrix(1.00002,0,0,-1.00002,94.107639,103.68082)" stroke-width="1.19553" stroke-linecap="butt" stroke-miterlimit="10" stroke-linejoin="miter" fill="none" stroke="#00aeef" d="M42.52063-85.04128V85.04128"/>
<path transform="matrix(1.00002,0,0,-1.00002,94.107639,103.68082)" stroke-width="1.19553" stroke-linecap="butt" stroke-miterlimit="10" stroke-linejoin="miter" fill="none" stroke="#00aeef" d="M-85.04128 42.52063H85.04128"/>
<path transform="matrix(1.00002,0,0,-1.00002,94.107639,103.68082)" stroke-width=".3985" stroke-linecap="butt" stroke-miterlimit="10" stroke-linejoin="miter" fill="none" stroke="#000000" d="M42.52063 1.27554V-1.27568"/>
<path transform="matrix(1.00002,0,0,-1.00002,94.107639,103.68082)" d="M39.03366-11.88048H46.0076V-3.4674998H39.03366Z" fill="#ffffff"/>
<use data-text="5" xlink:href="#font_3_3" transform="matrix(9.962799,0,0,-9.962799,134.13843,114.56503)"/>
<path transform="matrix(1.00002,0,0,-1.00002,94.107639,103.68082)" stroke-width=".3985" stroke-linecap="butt" stroke-miterlimit="10" stroke-linejoin="miter" fill="none" stroke="#000000" d="M1.27554 42.52063H-1.27568"/>
<path transform="matrix(1.00002,0,0,-1.00002,94.107639,103.68082)" d="M-10.44142 38.31413H-3.4674798V46.727109H-10.44142Z" fill="#ffffff"/>
<use data-text="5" xlink:href="#font_3_3" transform="matrix(9.962799,0,0,-9.962799,84.662448,64.370029)"/>
<path transform="matrix(1.00002,0,0,-1.00002,94.107639,103.68082)" stroke-width="1.19553" stroke-linecap="butt" stroke-miterlimit="10" stroke-linejoin="miter" fill="none" stroke="#00aeef" d="M-85.04128-85.04128V85.04128"/>
<path transform="matrix(1.00002,0,0,-1.00002,94.107639,103.68082)" stroke-width="1.19553" stroke-linecap="butt" stroke-miterlimit="10" stroke-linejoin="miter" fill="none" stroke="#00aeef" d="M-85.04128-85.04128H85.04128"/>
<path transform="matrix(1.00002,0,0,-1.00002,94.107639,103.68082)" stroke-width=".3985" stroke-linecap="butt" stroke-miterlimit="10" stroke-linejoin="miter" fill="none" stroke="#000000" d="M-85.04128 1.27554V-1.27568"/>
<path transform="matrix(1.00002,0,0,-1.00002,94.107639,103.68082)" d="M-94.89337-12.71071H-75.18917V-3.4674798H-94.89337Z" fill="#ffffff"/>
<use data-text="&#x2212;" xlink:href="#font_2_1" transform="matrix(9.962799,0,0,-9.962799,.2087555,114.56503)"/>
<use data-text="1" xlink:href="#font_3_2" transform="matrix(9.962799,0,0,-9.962799,7.957901,114.56503)"/>
<use data-text="0" xlink:href="#font_3_1" transform="matrix(9.962799,0,0,-9.962799,12.939285,114.56503)"/>
<path transform="matrix(1.00002,0,0,-1.00002,94.107639,103.68082)" stroke-width=".3985" stroke-linecap="butt" stroke-miterlimit="10" stroke-linejoin="miter" fill="none" stroke="#000000" d="M1.27554-85.04128H-1.27568"/>
<path transform="matrix(1.00002,0,0,-1.00002,94.107639,103.68082)" d="M-23.17168-89.66289H-3.4674798V-80.419658H-23.17168Z" fill="#ffffff"/>
<use data-text="&#x2212;" xlink:href="#font_2_1" transform="matrix(9.962799,0,0,-9.962799,71.93219,191.51859)"/>
<use data-text="1" xlink:href="#font_3_2" transform="matrix(9.962799,0,0,-9.962799,79.681339,191.51859)"/>
<use data-text="0" xlink:href="#font_3_1" transform="matrix(9.962799,0,0,-9.962799,84.66272,191.51859)"/>
<path transform="matrix(1.00002,0,0,-1.00002,94.107639,103.68082)" stroke-width="1.19553" stroke-linecap="butt" stroke-miterlimit="10" stroke-linejoin="miter" fill="none" stroke="#00aeef" d="M85.04128-85.04128V85.04128"/>
<path transform="matrix(1.00002,0,0,-1.00002,94.107639,103.68082)" stroke-width="1.19553" stroke-linecap="butt" stroke-miterlimit="10" stroke-linejoin="miter" fill="none" stroke="#00aeef" d="M-85.04128 85.04128H85.04128"/>
<path transform="matrix(1.00002,0,0,-1.00002,94.107639,103.68082)" stroke-width=".3985" stroke-linecap="butt" stroke-miterlimit="10" stroke-linejoin="miter" fill="none" stroke="#000000" d="M85.04128 1.27554V-1.27568"/>
<path transform="matrix(1.00002,0,0,-1.00002,94.107639,103.68082)" d="M79.0636-11.88048H91.018939V-3.4674998H79.0636Z" fill="#ffffff"/>
<use data-text="1" xlink:href="#font_3_2" transform="matrix(9.962799,0,0,-9.962799,174.16924,114.56503)"/>
<use data-text="0" xlink:href="#font_3_1" transform="matrix(9.962799,0,0,-9.962799,179.15062,114.56503)"/>
<path transform="matrix(1.00002,0,0,-1.00002,94.107639,103.68082)" stroke-width=".3985" stroke-linecap="butt" stroke-miterlimit="10" stroke-linejoin="miter" fill="none" stroke="#000000" d="M1.27554 85.04128H-1.27568"/>
<path transform="matrix(1.00002,0,0,-1.00002,94.107639,103.68082)" d="M-15.42284 80.83478H-3.4674998V89.24776H-15.42284Z" fill="#ffffff"/>
<use data-text="1" xlink:href="#font_3_2" transform="matrix(9.962799,0,0,-9.962799,79.68034,21.848176)"/>
<use data-text="0" xlink:href="#font_3_1" transform="matrix(9.962799,0,0,-9.962799,84.66173,21.848176)"/>
<path transform="matrix(1.00002,0,0,-1.00002,94.107639,103.68082)" stroke-width="1.19553" stroke-linecap="butt" stroke-miterlimit="10" stroke-linejoin="miter" fill="none" stroke="#ff0000" d="M76.53885 34.01726-51.02591-17.0086"/>
<path transform="matrix(1.00002,0,0,-1.00002,94.107639,103.68082)" d="M78.66489 34.01726C78.66489 35.19145 77.71304 36.1433 76.53885 36.1433 75.36467 36.1433 74.41283 35.19145 74.41283 34.01726 74.41283 32.84308 75.36467 31.89124 76.53885 31.89124 77.71304 31.89124 78.66489 32.84308 78.66489 34.01726ZM76.53885 34.01726" fill="#cc0000"/>
<path transform="matrix(1.00002,0,0,-1.00002,94.107639,103.68082)" stroke-width=".3985" stroke-linecap="butt" stroke-miterlimit="10" stroke-linejoin="miter" fill="none" stroke="#cc0000" d="M78.66489 34.01726C78.66489 35.19145 77.71304 36.1433 76.53885 36.1433 75.36467 36.1433 74.41283 35.19145 74.41283 34.01726 74.41283 32.84308 75.36467 31.89124 76.53885 31.89124 77.71304 31.89124 78.66489 32.84308 78.66489 34.01726ZM76.53885 34.01726"/>
<path transform="matrix(1.00002,0,0,-1.00002,94.107639,103.68082)" d="M64.56415 36.20906H74.347049V45.00948H64.56415Z" fill="#ffffff"/>
<use data-text="F" xlink:href="#font_1_3" transform="matrix(9.962799,0,0,-9.962799,159.66895,66.47507)"/>
<path transform="matrix(1.00002,0,0,-1.00002,94.107639,103.68082)" d="M-48.89987-17.0086C-48.89987-15.83441-49.85172-14.88258-51.02591-14.88258-52.20009-14.88258-53.15193-15.83441-53.15193-17.0086-53.15193-18.18279-52.20009-19.13463-51.02591-19.13463-49.85172-19.13463-48.89987-18.18279-48.89987-17.0086ZM-51.02591-17.0086" fill="#cc0000"/>
<path transform="matrix(1.00002,0,0,-1.00002,94.107639,103.68082)" stroke-width=".3985" stroke-linecap="butt" stroke-miterlimit="10" stroke-linejoin="miter" fill="none" stroke="#cc0000" d="M-48.89987-17.0086C-48.89987-15.83441-49.85172-14.88258-51.02591-14.88258-52.20009-14.88258-53.15193-15.83441-53.15193-17.0086-53.15193-18.18279-52.20009-19.13463-51.02591-19.13463-49.85172-19.13463-48.89987-18.18279-48.89987-17.0086ZM-51.02591-17.0086"/>
<path transform="matrix(1.00002,0,0,-1.00002,94.107639,103.68082)" d="M-63.73535-28.00084H-53.217714V-19.20042H-63.73535Z" fill="#ffffff"/>
<use data-text="D" xlink:href="#font_1_1" transform="matrix(9.962799,0,0,-9.962799,31.367386,130.68636)"/>
<path transform="matrix(1.00002,0,0,-1.00002,94.107639,103.68082)" d="M-48.89987 34.01726C-48.89987 35.19145-49.85172 36.1433-51.02591 36.1433-52.20009 36.1433-53.15193 35.19145-53.15193 34.01726-53.15193 32.84308-52.20009 31.89124-51.02591 31.89124-49.85172 31.89124-48.89987 32.84308-48.89987 34.01726ZM-51.02591 34.01726" fill="#929292"/>
<path transform="matrix(1.00002,0,0,-1.00002,94.107639,103.68082)" stroke-width=".3985" stroke-linecap="butt" stroke-miterlimit="10" stroke-linejoin="miter" fill="none" stroke="#929292" d="M-48.89987 34.01726C-48.89987 35.19145-49.85172 36.1433-51.02591 36.1433-52.20009 36.1433-53.15193 35.19145-53.15193 34.01726-53.15193 32.84308-52.20009 31.89124-51.02591 31.89124-49.85172 31.89124-48.89987 32.84308-48.89987 34.01726ZM-51.02591 34.01726"/>
<path transform="matrix(1.00002,0,0,-1.00002,94.107639,103.68082)" d="M-63.13895 36.20906H-53.21772V45.00948H-63.13895Z" fill="#ffffff"/>
<use data-text="E" xlink:href="#font_1_2" transform="matrix(9.962799,0,0,-9.962799,31.963395,66.47507)"/>
</svg>
