<svg xmlns="http://www.w3.org/2000/svg" xmlns:xlink="http://www.w3.org/1999/xlink" version="1.1" width="338" height="39" viewBox="0 0 338 39">
<defs>
<path id="font_1_1" d="M.6589966 .23046875C.6759949 .23046875 .69400027 .23046875 .69400027 .25045777 .69400027 .27046205 .6759949 .27046205 .6589966 .27046205H.117996219C.100997928 .27046205 .08299255 .27046205 .08299255 .25045777 .08299255 .23046875 .100997928 .23046875 .117996219 .23046875H.6589966Z"/>
<path id="font_2_4" d="M.2939911 .64004519C.2939911 .66400149 .2939911 .6660156 .2709961 .6660156 .20899964 .60227969 .12098694 .60227969 .08898926 .60227969V.57128909C.10899353 .57128909 .16799927 .57128909 .21998596 .5972748V.07902527C.21998596 .042999269 .21699524 .0309906 .1269989 .0309906H.09498596V0C.12998963 .0029907227 .21699524 .0029907227 .25698854 .0029907227 .29699708 .0029907227 .38398744 .0029907227 .4189911 0V.0309906H.3869934C.29699708 .0309906 .2939911 .041992189 .2939911 .07902527V.64004519Z"/>
<path id="font_2_3" d="M.45999146 .31976319C.45999146 .39982606 .45498658 .47988893 .41999818 .5539398 .37399293 .65000918 .2919922 .6660156 .25 .6660156 .18998719 .6660156 .116989139 .64001467 .07598877 .54693606 .04399109 .47789 .038986207 .39982606 .038986207 .31976319 .038986207 .24472046 .042999269 .15464783 .083999637 .07859802 .1269989-.0024719239 .19999695-.022460938 .24899292-.022460938 .30299378-.022460938 .3789978-.0014648438 .4229889 .09359741 .45498658 .16265869 .45999146 .2407074 .45999146 .31976319M.24899292-.00047302247C.20999146-.00047302247 .15098572 .024551392 .1329956 .12062073 .12199402 .18066406 .12199402 .2727356 .12199402 .3317871 .12199402 .39582826 .12199402 .46188355 .12998963 .5159149 .14898682 .63500979 .22399903 .64401248 .24899292 .64401248 .28199769 .64401248 .34799195 .6259918 .36698915 .52693179 .3769989 .47088624 .3769989 .39482118 .3769989 .3317871 .3769989 .25672914 .3769989 .18867493 .3659973 .12461853 .35099793 .029556275 .2939911-.00047302247 .24899292-.00047302247Z"/>
<path id="font_2_6" d="M.44898988 .20022583C.44898988 .3193512 .36698915 .41944886 .25898744 .41944886 .21099854 .41944886 .16799927 .40345765 .13198853 .36842347V.5637665C.1519928 .5577698 .18499756 .55078127 .21699524 .55078127 .33999635 .55078127 .4099884 .6417694 .4099884 .6547699 .4099884 .6607666 .40699769 .6657715 .3999939 .6657715 .39898683 .6657715 .39698792 .6657715 .3919983 .66278079 .37199403 .6537781 .32299806 .6337738 .2559967 .6337738 .21598816 .6337738 .16999817 .6407776 .12298584 .6617737 .114990238 .66477969 .11299133 .66477969 .11099243 .66477969 .100997928 .66477969 .100997928 .6567688 .100997928 .6407776V.34439088C.100997928 .32637025 .100997928 .31835938 .114990238 .31835938 .12199402 .31835938 .12399292 .32136537 .12799073 .32736207 .13899231 .3433838 .17599488 .39746095 .25698854 .39746095 .30899049 .39746095 .33399964 .35139466 .34199525 .33337403 .35798646 .29632569 .3600006 .25727845 .3600006 .20722962 .3600006 .17222595 .3600006 .11222839 .33599855 .07035828 .31199647 .031463624 .2749939 .0055389406 .22898865 .0055389406 .1559906 .0055389406 .09899902 .058380128 .08198547 .11723328 .084991458 .1162262 .08799744 .115234378 .09899902 .115234378 .13198853 .115234378 .14898682 .14022827 .14898682 .16423035 .14898682 .18823242 .13198853 .21322632 .09899902 .21322632 .084991458 .21322632 .049987794 .20622254 .049987794 .16023255 .049987794 .07434082 .11898804-.022460938 .23098755-.022460938 .34700013-.022460938 .44898988 .073349 .44898988 .20022583Z"/>
<path id="font_2_7" d="M.16299439 .4569702C.116989139 .486969 .11299133 .52098086 .11299133 .5379791 .11299133 .598999 .17799378 .64100649 .24899292 .64100649 .32199098 .64100649 .38598634 .58898928 .38598634 .51698306 .38598634 .45996095 .34700013 .4119568 .2869873 .37695313L.16299439 .4569702M.30899049 .36193849C.3809967 .3989563 .42999269 .45095826 .42999269 .51698306 .42999269 .6090088 .34098817 .6660156 .25 .6660156 .1499939 .6660156 .068984989 .59199526 .068984989 .49897767 .068984989 .4809723 .070999149 .43595887 .11299133 .38894654 .12399292 .37695313 .16099549 .35194398 .18598938 .33494569 .12799073 .30592347 .041992189 .24984741 .041992189 .15072632 .041992189 .04458618 .14399719-.022460938 .24899292-.022460938 .3619995-.022460938 .45700074 .06060791 .45700074 .16773987 .45700074 .20379639 .44599916 .24885559 .4079895 .2909088 .3889923 .31193543 .37298585 .3219452 .30899049 .36193849M.20899964 .3199463 .33198548 .24183655C.3600006 .2228241 .40699769 .19277954 .40699769 .13169861 .40699769 .05760193 .33198548 .0055389406 .25 .0055389406 .1639862 .0055389406 .09199524 .067611698 .09199524 .15072632 .09199524 .20880127 .12399292 .27288819 .20899964 .3199463Z"/>
<path id="font_2_1" d="M.33099366-.2400055C.33099366-.23701477 .33099366-.23500061 .31399537-.21800232 .18899536-.0920105 .15699768 .09700012 .15699768 .25 .15699768 .42399598 .19499207 .59799197 .31799317 .72299197 .33099366 .73498538 .33099366 .7369995 .33099366 .73999026 .33099366 .746994 .32699586 .75 .32099916 .75 .31098939 .75 .22099304 .6819916 .1619873 .5549927 .11099243 .44499208 .09899902 .33399964 .09899902 .25 .09899902 .17199707 .10998535 .050994874 .16499329-.06201172 .22499085-.18501282 .31098939-.25 .32099916-.25 .32699586-.25 .33099366-.24700928 .33099366-.2400055Z"/>
<path id="font_2_5" d="M.2899933 .35191346C.37199403 .37893678 .42999269 .4490509 .42999269 .52809146 .42999269 .6100464 .34199525 .6660156 .24598694 .6660156 .14498902 .6660156 .068984989 .60606387 .068984989 .53009036 .068984989 .49710084 .09098816 .47808839 .11999512 .47808839 .15098572 .47808839 .17098999 .50009158 .17098999 .5290985 .17098999 .57910159 .12399292 .57910159 .10899353 .57910159 .13999939 .62802127 .20599365 .64100649 .24198914 .64100649 .2829895 .64100649 .33799745 .6190338 .33799745 .5290985 .33799745 .51708987 .33599855 .45906068 .30999757 .4149933 .27999879 .36691285 .24598694 .36390687 .22099304 .36291505 .21299744 .36190797 .18899536 .35990907 .18199158 .35990907 .17399597 .35890199 .16699219 .35791017 .16699219 .3479004 .16699219 .33691407 .17399597 .33691407 .19099427 .33691407H.23498535C.31698609 .33691407 .35398866 .2686615 .35398866 .17037964 .35398866 .034469606 .2849884 .0055389406 .24099732 .0055389406 .19799805 .0055389406 .12298584 .022491456 .08799744 .08137512 .12298584 .07637024 .1539917 .09837341 .1539917 .1363678 .1539917 .17237854 .1269989 .19238281 .09799194 .19238281 .07398987 .19238281 .041992189 .17837525 .041992189 .1343689 .041992189 .043441774 .1349945-.022460938 .24398804-.022460938 .3659973-.022460938 .45700074 .06838989 .45700074 .17037964 .45700074 .252594 .3939972 .33088685 .2899933 .35191346Z"/>
<path id="font_2_2" d="M.2889862 .25C.2889862 .32798768 .27799989 .44898988 .22299195 .56199648 .16299439 .68499758 .07699585 .75 .066986087 .75 .06098938 .75 .056991579 .74598696 .056991579 .73999026 .056991579 .7369995 .056991579 .73498538 .07598877 .71699526 .17399597 .6179962 .23098755 .45899964 .23098755 .25 .23098755 .07899475 .19400025-.09700012 .069992069-.2230072 .056991579-.23500061 .056991579-.23701477 .056991579-.2400055 .056991579-.2460022 .06098938-.25 .066986087-.25 .07699585-.25 .16699219-.18200684 .22599793-.055007936 .2769928 .054992677 .2889862 .16600037 .2889862 .25Z"/>
</defs>
<path transform="matrix(1,0,0,-1.00003,168.857,25.487374)" stroke-width=".79701" stroke-linecap="butt" stroke-miterlimit="10" stroke-linejoin="miter" fill="none" stroke="#000000" d="M-167.2462 0H165.81159"/>
<path transform="matrix(1,0,0,-1.00003,334.66859,25.487374)" d="M1.0361 0C-.25902 .25902-1.55415 .77707-3.1083 1.68365-1.55415 .51805-1.55415-.51805-3.1083-1.68365-1.55415-.77707-.25902-.25902 1.0361 0Z"/>
<path transform="matrix(1,0,0,-1.00003,334.66859,25.487374)" stroke-width=".79701" stroke-linecap="butt" stroke-linejoin="round" fill="none" stroke="#000000" d="M1.0361 0C-.25902 .25902-1.55415 .77707-3.1083 1.68365-1.55415 .51805-1.55415-.51805-3.1083-1.68365-1.55415-.77707-.25902-.25902 1.0361 0Z"/>
<path transform="matrix(1,0,0,-1.00003,168.857,25.487374)" stroke-width=".3985" stroke-linecap="butt" stroke-miterlimit="10" stroke-linejoin="miter" fill="none" stroke="#000000" d="M-155.90744 4.25204V0"/>
<path transform="matrix(1,0,0,-1.00003,168.857,25.487374)" stroke-width=".3985" stroke-linecap="butt" stroke-miterlimit="10" stroke-linejoin="miter" fill="none" stroke="#000000" d="M-141.73404 4.25204V0"/>
<path transform="matrix(1,0,0,-1.00003,168.857,25.487374)" stroke-width=".3985" stroke-linecap="butt" stroke-miterlimit="10" stroke-linejoin="miter" fill="none" stroke="#000000" d="M-127.56062 4.25204V0"/>
<path transform="matrix(1,0,0,-1.00003,168.857,25.487374)" stroke-width=".3985" stroke-linecap="butt" stroke-miterlimit="10" stroke-linejoin="miter" fill="none" stroke="#000000" d="M-113.38724 4.25204V0"/>
<path transform="matrix(1,0,0,-1.00003,168.857,25.487374)" stroke-width=".3985" stroke-linecap="butt" stroke-miterlimit="10" stroke-linejoin="miter" fill="none" stroke="#000000" d="M-99.21382 4.25204V0"/>
<path transform="matrix(1,0,0,-1.00003,168.857,25.487374)" stroke-width=".3985" stroke-linecap="butt" stroke-miterlimit="10" stroke-linejoin="miter" fill="none" stroke="#000000" d="M-85.04042 4.25204V0"/>
<path transform="matrix(1,0,0,-1.00003,168.857,25.487374)" stroke-width=".3985" stroke-linecap="butt" stroke-miterlimit="10" stroke-linejoin="miter" fill="none" stroke="#000000" d="M-70.867 4.25204V0"/>
<path transform="matrix(1,0,0,-1.00003,168.857,25.487374)" stroke-width=".3985" stroke-linecap="butt" stroke-miterlimit="10" stroke-linejoin="miter" fill="none" stroke="#000000" d="M-56.69362 4.25204V0"/>
<path transform="matrix(1,0,0,-1.00003,168.857,25.487374)" stroke-width=".3985" stroke-linecap="butt" stroke-miterlimit="10" stroke-linejoin="miter" fill="none" stroke="#000000" d="M-42.5202 4.25204V0"/>
<path transform="matrix(1,0,0,-1.00003,168.857,25.487374)" stroke-width=".3985" stroke-linecap="butt" stroke-miterlimit="10" stroke-linejoin="miter" fill="none" stroke="#000000" d="M-28.3468 4.25204V0"/>
<path transform="matrix(1,0,0,-1.00003,168.857,25.487374)" stroke-width=".3985" stroke-linecap="butt" stroke-miterlimit="10" stroke-linejoin="miter" fill="none" stroke="#000000" d="M-14.17339 4.25204V0"/>
<path transform="matrix(1,0,0,-1.00003,168.857,25.487374)" stroke-width=".3985" stroke-linecap="butt" stroke-miterlimit="10" stroke-linejoin="miter" fill="none" stroke="#000000" d="M0 4.25204V0"/>
<path transform="matrix(1,0,0,-1.00003,168.857,25.487374)" stroke-width=".3985" stroke-linecap="butt" stroke-miterlimit="10" stroke-linejoin="miter" fill="none" stroke="#000000" d="M14.17339 4.25204V0"/>
<path transform="matrix(1,0,0,-1.00003,168.857,25.487374)" stroke-width=".3985" stroke-linecap="butt" stroke-miterlimit="10" stroke-linejoin="miter" fill="none" stroke="#000000" d="M28.3468 4.25204V0"/>
<path transform="matrix(1,0,0,-1.00003,168.857,25.487374)" stroke-width=".3985" stroke-linecap="butt" stroke-miterlimit="10" stroke-linejoin="miter" fill="none" stroke="#000000" d="M42.5202 4.25204V0"/>
<path transform="matrix(1,0,0,-1.00003,168.857,25.487374)" stroke-width=".3985" stroke-linecap="butt" stroke-miterlimit="10" stroke-linejoin="miter" fill="none" stroke="#000000" d="M56.69362 4.25204V0"/>
<path transform="matrix(1,0,0,-1.00003,168.857,25.487374)" stroke-width=".3985" stroke-linecap="butt" stroke-miterlimit="10" stroke-linejoin="miter" fill="none" stroke="#000000" d="M70.867 4.25204V0"/>
<path transform="matrix(1,0,0,-1.00003,168.857,25.487374)" stroke-width=".3985" stroke-linecap="butt" stroke-miterlimit="10" stroke-linejoin="miter" fill="none" stroke="#000000" d="M85.04042 4.25204V0"/>
<path transform="matrix(1,0,0,-1.00003,168.857,25.487374)" stroke-width=".3985" stroke-linecap="butt" stroke-miterlimit="10" stroke-linejoin="miter" fill="none" stroke="#000000" d="M99.21382 4.25204V0"/>
<path transform="matrix(1,0,0,-1.00003,168.857,25.487374)" stroke-width=".3985" stroke-linecap="butt" stroke-miterlimit="10" stroke-linejoin="miter" fill="none" stroke="#000000" d="M113.38724 4.25204V0"/>
<path transform="matrix(1,0,0,-1.00003,168.857,25.487374)" stroke-width=".3985" stroke-linecap="butt" stroke-miterlimit="10" stroke-linejoin="miter" fill="none" stroke="#000000" d="M127.56062 4.25204V0"/>
<path transform="matrix(1,0,0,-1.00003,168.857,25.487374)" stroke-width=".3985" stroke-linecap="butt" stroke-miterlimit="10" stroke-linejoin="miter" fill="none" stroke="#000000" d="M141.73404 4.25204V0"/>
<path transform="matrix(1,0,0,-1.00003,168.857,25.487374)" stroke-width=".3985" stroke-linecap="butt" stroke-miterlimit="10" stroke-linejoin="miter" fill="none" stroke="#000000" d="M155.90744 4.25204V0"/>
<path transform="matrix(1,0,0,-1.00003,168.857,25.487374)" stroke-width=".79701" stroke-linecap="butt" stroke-miterlimit="10" stroke-linejoin="miter" fill="none" stroke="#000000" d="M-141.73404 6.37796V0"/>
<use data-text="&#x2212;" xlink:href="#font_1_1" transform="matrix(8.966339,0,0,-8.966609,19.152283,36.605909)"/>
<use data-text="1" xlink:href="#font_2_4" transform="matrix(8.966339,0,0,-8.966609,26.126389,36.605909)"/>
<use data-text="0" xlink:href="#font_2_3" transform="matrix(8.966339,0,0,-8.966609,30.609543,36.605909)"/>
<path transform="matrix(1,0,0,-1.00003,168.857,25.487374)" stroke-width=".79701" stroke-linecap="butt" stroke-miterlimit="10" stroke-linejoin="miter" fill="none" stroke="#000000" d="M-70.867 6.37796V0"/>
<use data-text="&#x2212;" xlink:href="#font_1_1" transform="matrix(8.966339,0,0,-8.966609,92.26129,36.605909)"/>
<use data-text="5" xlink:href="#font_2_6" transform="matrix(8.966339,0,0,-8.966609,99.2354,36.605909)"/>
<path transform="matrix(1,0,0,-1.00003,168.857,25.487374)" stroke-width=".79701" stroke-linecap="butt" stroke-miterlimit="10" stroke-linejoin="miter" fill="none" stroke="#000000" d="M0 6.37796V0"/>
<use data-text="0" xlink:href="#font_2_3" transform="matrix(8.966339,0,0,-8.966609,166.61528,36.605909)"/>
<path transform="matrix(1,0,0,-1.00003,168.857,25.487374)" stroke-width=".79701" stroke-linecap="butt" stroke-miterlimit="10" stroke-linejoin="miter" fill="none" stroke="#000000" d="M70.867 6.37796V0"/>
<use data-text="5" xlink:href="#font_2_6" transform="matrix(8.966339,0,0,-8.966609,237.48229,36.605909)"/>
<path transform="matrix(1,0,0,-1.00003,168.857,25.487374)" stroke-width=".79701" stroke-linecap="butt" stroke-miterlimit="10" stroke-linejoin="miter" fill="none" stroke="#000000" d="M141.73404 6.37796V0"/>
<use data-text="1" xlink:href="#font_2_4" transform="matrix(8.966339,0,0,-8.966609,306.1073,36.605909)"/>
<use data-text="0" xlink:href="#font_2_3" transform="matrix(8.966339,0,0,-8.966609,310.59046,36.605909)"/>
<path transform="matrix(1,0,0,-1.00003,168.857,25.487374)" d="M116.22186 0C116.22186 1.56554 114.95277 2.83463 113.38724 2.83463 111.82169 2.83463 110.5526 1.56554 110.5526 0 110.5526-1.56554 111.82169-2.83463 113.38724-2.83463 114.95277-2.83463 116.22186-1.56554 116.22186 0ZM113.38724 0" fill="#ff0000"/>
<path transform="matrix(1,0,0,-1.00003,168.857,25.487374)" stroke-width=".3985" stroke-linecap="butt" stroke-miterlimit="10" stroke-linejoin="miter" fill="none" stroke="#ff0000" d="M116.22186 0C116.22186 1.56554 114.95277 2.83463 113.38724 2.83463 111.82169 2.83463 110.5526 1.56554 110.5526 0 110.5526-1.56554 111.82169-2.83463 113.38724-2.83463 114.95277-2.83463 116.22186-1.56554 116.22186 0ZM113.38724 0"/>
<use data-text="8" xlink:href="#font_2_7" transform="matrix(7.97008,0,0,-7.9703195,280.2516,36.4291)" fill="#ff0000"/>
<path transform="matrix(1,0,0,-1.00003,168.857,25.487374)" d="M73.70164 0C73.70164 1.56554 72.43256 2.83463 70.867 2.83463 69.30147 2.83463 68.03238 1.56554 68.03238 0 68.03238-1.56554 69.30147-2.83463 70.867-2.83463 72.43256-2.83463 73.70164-1.56554 73.70164 0ZM70.867 0" fill="#ff0000"/>
<path transform="matrix(1,0,0,-1.00003,168.857,25.487374)" stroke-width=".3985" stroke-linecap="butt" stroke-miterlimit="10" stroke-linejoin="miter" fill="none" stroke="#ff0000" d="M73.70164 0C73.70164 1.56554 72.43256 2.83463 70.867 2.83463 69.30147 2.83463 68.03238 1.56554 68.03238 0 68.03238-1.56554 69.30147-2.83463 70.867-2.83463 72.43256-2.83463 73.70164-1.56554 73.70164 0ZM70.867 0"/>
<path transform="matrix(1,0,0,-1.00003,168.857,25.487374)" stroke-width=".3985" stroke-linecap="butt" stroke-miterlimit="10" stroke-linejoin="miter" fill="none" stroke="#00aeef" d="M70.867 7.51187V11.76393H112.39098"/>
<path transform="matrix(1,0,0,-1.00003,281.248,13.723089)" d="M.797 0C-.19925 .19925-1.19551 .59775-2.39102 1.29512-1.19551 .3985-1.19551-.3985-2.39102-1.29512-1.19551-.59775-.19925-.19925 .797 0Z" fill="#00aeef"/>
<path transform="matrix(1,0,0,-1.00003,281.248,13.723089)" stroke-width=".3985" stroke-linecap="butt" stroke-linejoin="round" fill="none" stroke="#00aeef" d="M.797 0C-.19925 .19925-1.19551 .59775-2.39102 1.29512-1.19551 .3985-1.19551-.3985-2.39102-1.29512-1.19551-.59775-.19925-.19925 .797 0Z"/>
<use data-text="&#x2212;" xlink:href="#font_1_1" transform="matrix(8.966339,0,0,-8.966609,248.28128,8.313057)" fill="#00aeef"/>
<use data-text="(" xlink:href="#font_2_1" transform="matrix(8.966339,0,0,-8.966609,255.25539,8.313057)" fill="#00aeef"/>
<use data-text="&#x2212;" xlink:href="#font_1_1" transform="matrix(8.966339,0,0,-8.966609,258.74198,8.313057)" fill="#00aeef"/>
<use data-text="3" xlink:href="#font_2_5" transform="matrix(8.966339,0,0,-8.966609,265.71607,8.313057)" fill="#00aeef"/>
<use data-text=")" xlink:href="#font_2_2" transform="matrix(8.966339,0,0,-8.966609,270.19923,8.313057)" fill="#00aeef"/>
</svg>
