<svg xmlns="http://www.w3.org/2000/svg" xmlns:xlink="http://www.w3.org/1999/xlink" version="1.1" width="214" height="203" viewBox="0 0 214 203">
<defs>
<path id="font_1_2" d="M.20599365 .3996582H.2999878C.31999208 .3996582 .32998658 .3996582 .32998658 .41966249 .32998658 .43066407 .31999208 .43066407 .3019867 .43066407H.21398926C.25 .5724945 .25498963 .59246829 .25498963 .59846499 .25498963 .61546328 .24299622 .62545779 .22599793 .62545779 .22299195 .62545779 .19499207 .62446597 .18598938 .58947756L.14698792 .43066407H.052993776C.032989503 .43066407 .022994996 .43066407 .022994996 .4116516 .022994996 .3996582 .0309906 .3996582 .050994874 .3996582H.13899231C.066986087 .11608887 .06298828 .099121097 .06298828 .08114624 .06298828 .02722168 .100997928-.0107421879 .15499878-.0107421879 .25698854-.0107421879 .31399537 .13505554 .31399537 .14305115 .31399537 .1530304 .30599977 .1530304 .3019867 .1530304 .29299928 .1530304 .2919922 .15003968 .2869873 .13905335 .24398804 .035217287 .19099427 .011245728 .15699768 .011245728 .13598633 .011245728 .12599182 .024230957 .12599182 .057174684 .12599182 .08114624 .12799073 .088134769 .13198853 .10510254L.20599365 .3996582Z"/>
<path id="font_1_1" d="M.2869873 .68333438C.2869873 .6843262 .2869873 .69433596 .27398683 .69433596 .25099183 .69433596 .17799378 .6863251 .1519928 .6843262 .14399719 .68333438 .1329956 .6823273 .1329956 .6643219 .1329956 .6523285 .14199829 .6523285 .15699768 .6523285 .20498657 .6523285 .20698548 .6453247 .20698548 .6353302L.20399475 .6153412 .05899048 .039260866C.054992677 .025253296 .054992677 .023254395 .054992677 .01725769 .054992677-.0057525637 .07499695-.0107421879 .083999637-.0107421879 .099990848-.0107421879 .115997318 .0012512207 .12098694 .015258789L.13999939 .091278079 .1619873 .18130493C.16799927 .2033081 .17399597 .22531128 .1789856 .24832154 .18099976 .25431825 .18899536 .28733827 .18998719 .29333497 .19299317 .30233766 .22399903 .35835267 .2579956 .38536073 .27999879 .4013672 .31098939 .42037965 .35398866 .42037965 .39698792 .42037965 .4079895 .3863678 .4079895 .35035707 .4079895 .29634095 .36999513 .18730164 .34599305 .12628174 .33799745 .103271488 .33299256 .091278079 .33299256 .0712738 .33299256 .024261475 .36799623-.0107421879 .4149933-.0107421879 .5089874-.0107421879 .54599 .13528443 .54599 .14329529 .54599 .1532898 .5369873 .1532898 .5339966 .1532898 .5239868 .1532898 .5239868 .15029907 .5189972 .13528443 .5039978 .08227539 .47200013 .011245728 .4169922 .011245728 .3999939 .011245728 .3929901 .021255494 .3929901 .044265748 .3929901 .0692749 .4019928 .09327698 .41099549 .11528015 .4269867 .15829468 .47200013 .2773285 .47200013 .3353424 .47200013 .4003601 .43199159 .4423828 .35699464 .4423828 .2939911 .4423828 .24598694 .41137696 .20899964 .36535646L.2869873 .68333438Z"/>
<path id="font_2_2" d="M.2939911 .64004519C.2939911 .66400149 .2939911 .6660156 .2709961 .6660156 .20899964 .60227969 .12098694 .60227969 .08898926 .60227969V.57128909C.10899353 .57128909 .16799927 .57128909 .21998596 .5972748V.07902527C.21998596 .042999269 .21699524 .0309906 .1269989 .0309906H.09498596V0C.12998963 .0029907227 .21699524 .0029907227 .25698854 .0029907227 .29699708 .0029907227 .38398744 .0029907227 .4189911 0V.0309906H.3869934C.29699708 .0309906 .2939911 .041992189 .2939911 .07902527V.64004519Z"/>
<path id="font_2_3" d="M.1269989 .07699585 .23298645 .18003845C.3889923 .31811524 .44898988 .3721466 .44898988 .47216798 .44898988 .5860901 .35899354 .6660156 .23699951 .6660156 .12399292 .6660156 .049987794 .57411196 .049987794 .48516847 .049987794 .4291687 .099990848 .4291687 .102996829 .4291687 .11999512 .4291687 .15499878 .44117738 .15499878 .48217774 .15499878 .5081787 .13699341 .5341797 .101989749 .5341797 .09399414 .5341797 .09199524 .5341797 .08898926 .5331726 .11199951 .59806826 .1659851 .63500979 .22399903 .63500979 .31498719 .63500979 .35798646 .5541382 .35798646 .47216798 .35798646 .39215089 .30799867 .31311036 .25299073 .25108338L.06098938 .036987306C.049987794 .025985718 .049987794 .023986817 .049987794 0H.42099L.44898988 .17404175H.42399598C.4189911 .14402771 .4119873 .1000061 .4019928 .084991458 .394989 .07699585 .32899476 .07699585 .30699159 .07699585H.1269989Z"/>
<path id="font_2_4" d="M.2899933 .35191346C.37199403 .37893678 .42999269 .4490509 .42999269 .52809146 .42999269 .6100464 .34199525 .6660156 .24598694 .6660156 .14498902 .6660156 .068984989 .60606387 .068984989 .53009036 .068984989 .49710084 .09098816 .47808839 .11999512 .47808839 .15098572 .47808839 .17098999 .50009158 .17098999 .5290985 .17098999 .57910159 .12399292 .57910159 .10899353 .57910159 .13999939 .62802127 .20599365 .64100649 .24198914 .64100649 .2829895 .64100649 .33799745 .6190338 .33799745 .5290985 .33799745 .51708987 .33599855 .45906068 .30999757 .4149933 .27999879 .36691285 .24598694 .36390687 .22099304 .36291505 .21299744 .36190797 .18899536 .35990907 .18199158 .35990907 .17399597 .35890199 .16699219 .35791017 .16699219 .3479004 .16699219 .33691407 .17399597 .33691407 .19099427 .33691407H.23498535C.31698609 .33691407 .35398866 .2686615 .35398866 .17037964 .35398866 .034469606 .2849884 .0055389406 .24099732 .0055389406 .19799805 .0055389406 .12298584 .022491456 .08799744 .08137512 .12298584 .07637024 .1539917 .09837341 .1539917 .1363678 .1539917 .17237854 .1269989 .19238281 .09799194 .19238281 .07398987 .19238281 .041992189 .17837525 .041992189 .1343689 .041992189 .043441774 .1349945-.022460938 .24398804-.022460938 .3659973-.022460938 .45700074 .06838989 .45700074 .17037964 .45700074 .252594 .3939972 .33088685 .2899933 .35191346Z"/>
<path id="font_2_5" d="M.2939911 .16503906V.07800293C.2939911 .041992189 .2919922 .0309906 .21798706 .0309906H.19699097V0C.23799134 .0029907227 .2899933 .0029907227 .33198548 .0029907227 .37399293 .0029907227 .4269867 .0029907227 .46798707 0V.0309906H.44699098C.37298585 .0309906 .37098695 .041992189 .37098695 .07800293V.16503906H.47099305V.19602967H.37098695V.65075686C.37098695 .67074587 .37098695 .6767578 .35499574 .6767578 .34599305 .6767578 .34298707 .6767578 .33499146 .66474917L.027999878 .19602967V.16503906H.2939911M.2999878 .19602967H.055999757L.2999878 .5688019V.19602967Z"/>
<path id="font_2_6" d="M.44898988 .20022583C.44898988 .3193512 .36698915 .41944886 .25898744 .41944886 .21099854 .41944886 .16799927 .40345765 .13198853 .36842347V.5637665C.1519928 .5577698 .18499756 .55078127 .21699524 .55078127 .33999635 .55078127 .4099884 .6417694 .4099884 .6547699 .4099884 .6607666 .40699769 .6657715 .3999939 .6657715 .39898683 .6657715 .39698792 .6657715 .3919983 .66278079 .37199403 .6537781 .32299806 .6337738 .2559967 .6337738 .21598816 .6337738 .16999817 .6407776 .12298584 .6617737 .114990238 .66477969 .11299133 .66477969 .11099243 .66477969 .100997928 .66477969 .100997928 .6567688 .100997928 .6407776V.34439088C.100997928 .32637025 .100997928 .31835938 .114990238 .31835938 .12199402 .31835938 .12399292 .32136537 .12799073 .32736207 .13899231 .3433838 .17599488 .39746095 .25698854 .39746095 .30899049 .39746095 .33399964 .35139466 .34199525 .33337403 .35798646 .29632569 .3600006 .25727845 .3600006 .20722962 .3600006 .17222595 .3600006 .11222839 .33599855 .07035828 .31199647 .031463624 .2749939 .0055389406 .22898865 .0055389406 .1559906 .0055389406 .09899902 .058380128 .08198547 .11723328 .084991458 .1162262 .08799744 .115234378 .09899902 .115234378 .13198853 .115234378 .14898682 .14022827 .14898682 .16423035 .14898682 .18823242 .13198853 .21322632 .09899902 .21322632 .084991458 .21322632 .049987794 .20622254 .049987794 .16023255 .049987794 .07434082 .11898804-.022460938 .23098755-.022460938 .34700013-.022460938 .44898988 .073349 .44898988 .20022583Z"/>
<path id="font_2_7" d="M.13198853 .327713V.35173036C.13198853 .6047821 .2559967 .64100649 .30699159 .64100649 .33099366 .64100649 .37298585 .634964 .394989 .6007538 .37998963 .6007538 .33999635 .6007538 .33999635 .5557556 .33999635 .524765 .3639984 .5097656 .38598634 .5097656 .4019928 .5097656 .43199159 .51875308 .43199159 .5577545 .43199159 .6178589 .3880005 .6660156 .30499269 .6660156 .1769867 .6660156 .041992189 .5367584 .041992189 .31570436 .041992189 .048553468 .1579895-.022460938 .25099183-.022460938 .3619995-.022460938 .45700074 .07156372 .45700074 .2036438 .45700074 .33070375 .36799623 .4267578 .25698854 .4267578 .18899536 .4267578 .1519928 .37573243 .13198853 .327713M.25099183 .0055389406C.18798828 .0055389406 .1579895 .06556702 .1519928 .080566409 .13398743 .127594 .13398743 .2076416 .13398743 .22564698 .13398743 .30369569 .1659851 .40374757 .2559967 .40374757 .27198792 .40374757 .31799317 .40374757 .34899903 .34172059 .36698915 .30470277 .36698915 .2536621 .36698915 .20463562 .36698915 .15661621 .36698915 .10658264 .34999085 .0705719 .31999208 .010528564 .27398683 .0055389406 .25099183 .0055389406Z"/>
<path id="font_2_1" d="M.45999146 .31976319C.45999146 .39982606 .45498658 .47988893 .41999818 .5539398 .37399293 .65000918 .2919922 .6660156 .25 .6660156 .18998719 .6660156 .116989139 .64001467 .07598877 .54693606 .04399109 .47789 .038986207 .39982606 .038986207 .31976319 .038986207 .24472046 .042999269 .15464783 .083999637 .07859802 .1269989-.0024719239 .19999695-.022460938 .24899292-.022460938 .30299378-.022460938 .3789978-.0014648438 .4229889 .09359741 .45498658 .16265869 .45999146 .2407074 .45999146 .31976319M.24899292-.00047302247C.20999146-.00047302247 .15098572 .024551392 .1329956 .12062073 .12199402 .18066406 .12199402 .2727356 .12199402 .3317871 .12199402 .39582826 .12199402 .46188355 .12998963 .5159149 .14898682 .63500979 .22399903 .64401248 .24899292 .64401248 .28199769 .64401248 .34799195 .6259918 .36698915 .52693179 .3769989 .47088624 .3769989 .39482118 .3769989 .3317871 .3769989 .25672914 .3769989 .18867493 .3659973 .12461853 .35099793 .029556275 .2939911-.00047302247 .24899292-.00047302247Z"/>
</defs>
<path transform="matrix(1,0,0,-1.00003,21.668,188.63732)" stroke-width=".3985" stroke-linecap="butt" stroke-miterlimit="10" stroke-linejoin="miter" fill="none" stroke="#00aeef" d="M0 0H170.08086M0 14.17339H170.08086M0 28.3468H170.08086M0 42.5202H170.08086M0 56.69362H170.08086M0 70.867H170.08086M0 85.04042H170.08086M0 99.21382H170.08086M0 113.38724H170.08086M0 127.56062H170.08086M0 141.73404H170.08086M0 155.90744H170.08086M0 170.07587H170.08086M0 0V170.08086M14.17339 0V170.08086M28.3468 0V170.08086M42.5202 0V170.08086M56.69362 0V170.08086M70.867 0V170.08086M85.04042 0V170.08086M99.21382 0V170.08086M113.38724 0V170.08086M127.56062 0V170.08086M141.73404 0V170.08086M155.90744 0V170.08086M170.07587 0V170.08086M170.08086 170.08086"/>
<path transform="matrix(1,0,0,-1.00003,21.668,188.63732)" stroke-width=".79701" stroke-linecap="butt" stroke-miterlimit="10" stroke-linejoin="miter" fill="none" stroke="#000000" d="M0 0H182.81964"/>
<path transform="matrix(1,0,0,-1.00003,204.48764,188.63732)" d="M1.0361 0C-.25902 .25902-1.55415 .77707-3.1083 1.68365-1.55415 .51805-1.55415-.51805-3.1083-1.68365-1.55415-.77707-.25902-.25902 1.0361 0Z"/>
<path transform="matrix(1,0,0,-1.00003,204.48764,188.63732)" stroke-width=".79701" stroke-linecap="butt" stroke-linejoin="round" fill="none" stroke="#000000" d="M1.0361 0C-.25902 .25902-1.55415 .77707-3.1083 1.68365-1.55415 .51805-1.55415-.51805-3.1083-1.68365-1.55415-.77707-.25902-.25902 1.0361 0Z"/>
<use data-text="t" xlink:href="#font_1_2" transform="matrix(9.9626,0,0,-9.962899,209.641,191.7014)"/>
<path transform="matrix(1,0,0,-1.00003,21.668,188.63732)" stroke-width=".79701" stroke-linecap="butt" stroke-miterlimit="10" stroke-linejoin="miter" fill="none" stroke="#000000" d="M0 0V182.81964"/>
<path transform="matrix(0,-1.00003,-1,-0,21.668,5.8121798)" d="M1.0361 0C-.25902 .25902-1.55415 .77707-3.1083 1.68365-1.55415 .51805-1.55415-.51805-3.1083-1.68365-1.55415-.77707-.25902-.25902 1.0361 0Z"/>
<path transform="matrix(0,-1.00003,-1,-0,21.668,5.8121798)" stroke-width=".79701" stroke-linecap="butt" stroke-linejoin="round" fill="none" stroke="#000000" d="M1.0361 0C-.25902 .25902-1.55415 .77707-3.1083 1.68365-1.55415 .51805-1.55415-.51805-3.1083-1.68365-1.55415-.77707-.25902-.25902 1.0361 0Z"/>
<use data-text="h" xlink:href="#font_1_1" transform="matrix(9.9626,0,0,-9.962899,12.209,7.8368837)"/>
<path transform="matrix(1,0,0,-1.00003,21.668,188.63732)" stroke-width="1.19553" stroke-linecap="butt" stroke-miterlimit="10" stroke-linejoin="miter" fill="none" stroke="#00aeef" d="M28.3468 0V170.08086"/>
<path transform="matrix(1,0,0,-1.00003,21.668,188.63732)" stroke-width=".79701" stroke-linecap="butt" stroke-miterlimit="10" stroke-linejoin="miter" fill="none" stroke="#000000" d="M28.3468 2.12592V-2.12613"/>
<path transform="matrix(1,0,0,-1.00003,21.668,188.63732)" d="M24.85983-12.93018H31.83377V-4.5171997H24.85983Z" fill="#ffffff"/>
<use data-text="1" xlink:href="#font_2_2" transform="matrix(9.9626,0,0,-9.962899,47.524003,200.57167)"/>
<path transform="matrix(1,0,0,-1.00003,21.668,188.63732)" stroke-width="1.19553" stroke-linecap="butt" stroke-miterlimit="10" stroke-linejoin="miter" fill="none" stroke="#00aeef" d="M56.69362 0V170.08086"/>
<path transform="matrix(1,0,0,-1.00003,21.668,188.63732)" stroke-width=".79701" stroke-linecap="butt" stroke-miterlimit="10" stroke-linejoin="miter" fill="none" stroke="#000000" d="M56.69362 2.12592V-2.12613"/>
<path transform="matrix(1,0,0,-1.00003,21.668,188.63732)" d="M53.20665-12.93018H60.180589V-4.5171997H53.20665Z" fill="#ffffff"/>
<use data-text="2" xlink:href="#font_2_3" transform="matrix(9.9626,0,0,-9.962899,75.871,200.57167)"/>
<path transform="matrix(1,0,0,-1.00003,21.668,188.63732)" stroke-width="1.19553" stroke-linecap="butt" stroke-miterlimit="10" stroke-linejoin="miter" fill="none" stroke="#00aeef" d="M85.04042 0V170.08086"/>
<path transform="matrix(1,0,0,-1.00003,21.668,188.63732)" stroke-width=".79701" stroke-linecap="butt" stroke-miterlimit="10" stroke-linejoin="miter" fill="none" stroke="#000000" d="M85.04042 2.12592V-2.12613"/>
<path transform="matrix(1,0,0,-1.00003,21.668,188.63732)" d="M81.55345-12.93018H88.52739V-4.5171997H81.55345Z" fill="#ffffff"/>
<use data-text="3" xlink:href="#font_2_4" transform="matrix(9.9626,0,0,-9.962899,104.218,200.57167)"/>
<path transform="matrix(1,0,0,-1.00003,21.668,188.63732)" stroke-width="1.19553" stroke-linecap="butt" stroke-miterlimit="10" stroke-linejoin="miter" fill="none" stroke="#00aeef" d="M113.38724 0V170.08086"/>
<path transform="matrix(1,0,0,-1.00003,21.668,188.63732)" stroke-width=".79701" stroke-linecap="butt" stroke-miterlimit="10" stroke-linejoin="miter" fill="none" stroke="#000000" d="M113.38724 2.12592V-2.12613"/>
<path transform="matrix(1,0,0,-1.00003,21.668,188.63732)" d="M109.90027-12.93018H116.87421V-4.5171997H109.90027Z" fill="#ffffff"/>
<use data-text="4" xlink:href="#font_2_5" transform="matrix(9.9626,0,0,-9.962899,132.565,200.57167)"/>
<path transform="matrix(1,0,0,-1.00003,21.668,188.63732)" stroke-width="1.19553" stroke-linecap="butt" stroke-miterlimit="10" stroke-linejoin="miter" fill="none" stroke="#00aeef" d="M141.73404 0V170.08086"/>
<path transform="matrix(1,0,0,-1.00003,21.668,188.63732)" stroke-width=".79701" stroke-linecap="butt" stroke-miterlimit="10" stroke-linejoin="miter" fill="none" stroke="#000000" d="M141.73404 2.12592V-2.12613"/>
<path transform="matrix(1,0,0,-1.00003,21.668,188.63732)" d="M138.24707-12.93018H145.22101V-4.5171997H138.24707Z" fill="#ffffff"/>
<use data-text="5" xlink:href="#font_2_6" transform="matrix(9.9626,0,0,-9.962899,160.911,200.57167)"/>
<path transform="matrix(1,0,0,-1.00003,21.668,188.63732)" stroke-width="1.19553" stroke-linecap="butt" stroke-miterlimit="10" stroke-linejoin="miter" fill="none" stroke="#00aeef" d="M170.08086 0V170.08086"/>
<path transform="matrix(1,0,0,-1.00003,21.668,188.63732)" stroke-width=".79701" stroke-linecap="butt" stroke-miterlimit="10" stroke-linejoin="miter" fill="none" stroke="#000000" d="M170.08086 2.12592V-2.12613"/>
<path transform="matrix(1,0,0,-1.00003,21.668,188.63732)" d="M166.59389-12.93018H173.56783V-4.5171997H166.59389Z" fill="#ffffff"/>
<use data-text="6" xlink:href="#font_2_7" transform="matrix(9.9626,0,0,-9.962899,189.258,200.57167)"/>
<path transform="matrix(1,0,0,-1.00003,21.668,188.63732)" stroke-width="1.19553" stroke-linecap="butt" stroke-miterlimit="10" stroke-linejoin="miter" fill="none" stroke="#00aeef" d="M0 28.3468H170.08086"/>
<path transform="matrix(1,0,0,-1.00003,21.668,188.63732)" stroke-width=".79701" stroke-linecap="butt" stroke-miterlimit="10" stroke-linejoin="miter" fill="none" stroke="#000000" d="M2.12592 28.3468H-2.12613"/>
<path transform="matrix(1,0,0,-1.00003,21.668,188.63732)" d="M-16.47253 24.1403H-4.51719V32.55328H-16.47253Z" fill="#ffffff"/>
<use data-text="5" xlink:href="#font_2_6" transform="matrix(9.9626,0,0,-9.962899,6.1920015,163.49956)"/>
<use data-text="0" xlink:href="#font_2_1" transform="matrix(9.9626,0,0,-9.962899,11.173302,163.49956)"/>
<path transform="matrix(1,0,0,-1.00003,21.668,188.63732)" stroke-width="1.19553" stroke-linecap="butt" stroke-miterlimit="10" stroke-linejoin="miter" fill="none" stroke="#00aeef" d="M0 56.69362H170.08086"/>
<path transform="matrix(1,0,0,-1.00003,21.668,188.63732)" stroke-width=".79701" stroke-linecap="butt" stroke-miterlimit="10" stroke-linejoin="miter" fill="none" stroke="#000000" d="M2.12592 56.69362H-2.12613"/>
<path transform="matrix(1,0,0,-1.00003,21.668,188.63732)" d="M-21.45392 52.48712H-4.5172007V60.9001H-21.45392Z" fill="#ffffff"/>
<use data-text="1" xlink:href="#font_2_2" transform="matrix(9.9626,0,0,-9.962899,1.2099991,135.15271)"/>
<use data-text="0" xlink:href="#font_2_1" transform="matrix(9.9626,0,0,-9.962899,6.1912996,135.15271)"/>
<use data-text="0" xlink:href="#font_2_1" transform="matrix(9.9626,0,0,-9.962899,11.1726,135.15271)"/>
<path transform="matrix(1,0,0,-1.00003,21.668,188.63732)" stroke-width="1.19553" stroke-linecap="butt" stroke-miterlimit="10" stroke-linejoin="miter" fill="none" stroke="#00aeef" d="M0 85.04042H170.08086"/>
<path transform="matrix(1,0,0,-1.00003,21.668,188.63732)" stroke-width=".79701" stroke-linecap="butt" stroke-miterlimit="10" stroke-linejoin="miter" fill="none" stroke="#000000" d="M2.12592 85.04042H-2.12613"/>
<path transform="matrix(1,0,0,-1.00003,21.668,188.63732)" d="M-21.45392 80.83392H-4.5172007V89.2469H-21.45392Z" fill="#ffffff"/>
<use data-text="1" xlink:href="#font_2_2" transform="matrix(9.9626,0,0,-9.962899,1.2099991,106.804859)"/>
<use data-text="5" xlink:href="#font_2_6" transform="matrix(9.9626,0,0,-9.962899,6.1912996,106.804859)"/>
<use data-text="0" xlink:href="#font_2_1" transform="matrix(9.9626,0,0,-9.962899,11.1726,106.804859)"/>
<path transform="matrix(1,0,0,-1.00003,21.668,188.63732)" stroke-width="1.19553" stroke-linecap="butt" stroke-miterlimit="10" stroke-linejoin="miter" fill="none" stroke="#00aeef" d="M0 113.38724H170.08086"/>
<path transform="matrix(1,0,0,-1.00003,21.668,188.63732)" stroke-width=".79701" stroke-linecap="butt" stroke-miterlimit="10" stroke-linejoin="miter" fill="none" stroke="#000000" d="M2.12592 113.38724H-2.12613"/>
<path transform="matrix(1,0,0,-1.00003,21.668,188.63732)" d="M-21.45392 109.18074H-4.5172007V117.59372H-21.45392Z" fill="#ffffff"/>
<use data-text="2" xlink:href="#font_2_3" transform="matrix(9.9626,0,0,-9.962899,1.2099991,78.457)"/>
<use data-text="0" xlink:href="#font_2_1" transform="matrix(9.9626,0,0,-9.962899,6.1912996,78.457)"/>
<use data-text="0" xlink:href="#font_2_1" transform="matrix(9.9626,0,0,-9.962899,11.1726,78.457)"/>
<path transform="matrix(1,0,0,-1.00003,21.668,188.63732)" stroke-width="1.19553" stroke-linecap="butt" stroke-miterlimit="10" stroke-linejoin="miter" fill="none" stroke="#00aeef" d="M0 141.73404H170.08086"/>
<path transform="matrix(1,0,0,-1.00003,21.668,188.63732)" stroke-width=".79701" stroke-linecap="butt" stroke-miterlimit="10" stroke-linejoin="miter" fill="none" stroke="#000000" d="M2.12592 141.73404H-2.12613"/>
<path transform="matrix(1,0,0,-1.00003,21.668,188.63732)" d="M-21.45392 137.52754H-4.5172007V145.94052H-21.45392Z" fill="#ffffff"/>
<use data-text="2" xlink:href="#font_2_3" transform="matrix(9.9626,0,0,-9.962899,1.2099991,50.109148)"/>
<use data-text="5" xlink:href="#font_2_6" transform="matrix(9.9626,0,0,-9.962899,6.1912996,50.109148)"/>
<use data-text="0" xlink:href="#font_2_1" transform="matrix(9.9626,0,0,-9.962899,11.1726,50.109148)"/>
<path transform="matrix(1,0,0,-1.00003,21.668,188.63732)" stroke-width="1.19553" stroke-linecap="butt" stroke-miterlimit="10" stroke-linejoin="miter" fill="none" stroke="#00aeef" d="M0 170.08086H170.08086"/>
<path transform="matrix(1,0,0,-1.00003,21.668,188.63732)" stroke-width=".79701" stroke-linecap="butt" stroke-miterlimit="10" stroke-linejoin="miter" fill="none" stroke="#000000" d="M2.12592 170.08086H-2.12613"/>
<path transform="matrix(1,0,0,-1.00003,21.668,188.63732)" d="M-21.45392 165.87436H-4.5172007V174.28734H-21.45392Z" fill="#ffffff"/>
<use data-text="3" xlink:href="#font_2_4" transform="matrix(9.9626,0,0,-9.962899,1.2099991,21.761292)"/>
<use data-text="0" xlink:href="#font_2_1" transform="matrix(9.9626,0,0,-9.962899,6.1912996,21.761292)"/>
<use data-text="0" xlink:href="#font_2_1" transform="matrix(9.9626,0,0,-9.962899,11.1726,21.761292)"/>
<path transform="matrix(1,0,0,-1.00003,21.668,188.63732)" stroke-width="1.59404" stroke-linecap="butt" stroke-miterlimit="10" stroke-linejoin="miter" fill="none" stroke="#c64a86" d="M0 136.06455C0 136.06455 1.60005 137.06401 2.21458 137.4266 2.82913 137.7892 3.81464 138.3461 4.42918 138.67795 5.04372 139.00978 6.02924 139.51721 6.64377 139.81832 7.25832 140.11945 8.24382 140.5778 8.85837 140.84819 9.4729 141.11859 10.45842 141.52747 11.07297 141.76712 11.6875 142.00678 12.67302 142.36656 13.28755 142.57553 13.9021 142.7845 14.8876 143.09502 15.50215 143.27323 16.11668 143.45143 17.1022 143.71248 17.71674 143.85996 18.33128 144.00743 19.3168 144.21942 19.93134 144.33618 20.54588 144.45293 21.53139 144.61544 22.14594 144.70146 22.76047 144.78749 23.74599 144.90091 24.36052 144.95623 24.97507 145.01155 25.96057 145.07569 26.57512 145.10027 27.18965 145.12483 28.17517 145.1395 28.78972 145.13336 29.40425 145.1272 30.38977 145.0928 31.0043 145.05594 31.61885 145.01906 32.60435 144.93515 33.2189 144.86756 33.83344 144.79994 34.81895 144.66698 35.43349 144.56868 36.04803 144.47039 37.03355 144.28812 37.64809 144.15906 38.26263 144.03 39.24814 143.79828 39.86269 143.6385 40.47722 143.47872 41.46274 143.19794 42.07727 143.00742 42.69182 142.81691 43.67732 142.48665 44.29187 142.26541 44.9064 142.04418 45.89192 141.66481 46.50647 141.41287 47.121 141.16095 48.10654 140.7323 48.72107 140.44962 49.33562 140.16693 50.32112 139.68883 50.93567 139.37541 51.5502 139.062 52.53572 138.53484 53.15025 138.19069 53.7648 137.84654 54.7503 137.26988 55.36485 136.895 55.97939 136.52014 56.9649 135.8944 57.57945 135.48885 58.19398 135.08327 59.1795 134.40825 59.79404 133.97193 60.40858 133.5356 61.39409 132.81111 62.00864 132.34407 62.62317 131.87702 63.60869 131.10349 64.22322 130.6057 64.83777 130.10793 65.82329 129.28488 66.43782 128.7564 67.05237 128.22788 68.03787 127.35576 68.65242 126.79655 69.26695 126.23734 70.25247 125.31595 70.867 124.726 71.48155 124.13603 72.46706 123.16518 73.0816 122.5445 73.69614 121.9238 74.68166 120.90388 75.2962 120.25246 75.91074 119.60104 76.89626 118.53165 77.51079 117.8495 78.12534 117.16736 79.11084 116.0489 79.72539 115.33601 80.33992 114.62315 81.32544 113.4552 81.93997 112.7116 82.55452 111.968 83.54004 110.75096 84.15457 109.97667 84.76912 109.20238 85.75462 107.93605 86.36917 107.131 86.9837 106.32594 87.96922 105.01016 88.58376 104.17438 89.1983 103.33861 90.1838 101.97375 90.79836 101.10725 91.41289 100.24074 92.3984 98.82642 93.01295 97.92917 93.62749 97.03194 94.61302 95.56853 95.22755 94.6406 95.8421 93.71266 96.8276 92.19998 97.44215 91.24127 98.05669 90.2826 99.0422 88.72043 99.65674 87.73102 100.27129 86.7416 101.2568 85.13039 101.87134 84.11024 102.48587 83.0901 103.47139 81.42938 104.08594 80.37852 104.70047 79.32765 105.68599 77.61786 106.30052 76.53629 106.91507 75.45473 107.90057 73.69565 108.51512 72.58331 109.12965 71.471 110.11517 69.66246 110.7297 68.51941 111.34425 67.37636 112.32977 65.51875 112.9443 64.34499 113.55885 63.1712 114.54436 61.26411 115.1589 60.05962 115.77344 58.8551 116.75896 56.89893 117.37349 55.66374 117.98804 54.42853 118.97354 52.42307 119.58809 51.15712 120.20262 49.89116 121.18814 47.83624 121.80269 46.53955 122.41722 45.24287 123.40274 43.1389 124.01727 41.81148 124.63182 40.48407 125.61732 38.33061 126.23187 36.97247 126.8464 35.61433 127.83192 33.41177 128.44646 32.02293 129.061 30.6341 130.04653 28.38226 130.66106 26.96268 131.2756 25.54309 132.26111 23.24178 132.87566 21.79147 133.49019 20.34114 134.47571 17.99078 135.09024 16.50974 135.70479 15.0287 136.69029 12.62886 137.30484 11.11708 137.91938 9.6053 138.90489 7.15637 139.51944 5.6139 140.13397 4.07143 141.73404 0 141.73404 0"/>
</svg>
