<svg xmlns="http://www.w3.org/2000/svg" xmlns:xlink="http://www.w3.org/1999/xlink" version="1.1" width="150" height="145" viewBox="0 0 150 145">
<defs>
<path id="font_1_3" d="M.2869873 .68333438C.2869873 .6843262 .2869873 .69433596 .27398683 .69433596 .25099183 .69433596 .17799378 .6863251 .1519928 .6843262 .14399719 .68333438 .1329956 .6823273 .1329956 .6643219 .1329956 .6523285 .14199829 .6523285 .15699768 .6523285 .20498657 .6523285 .20698548 .6453247 .20698548 .6353302L.20399475 .6153412 .05899048 .039260866C.054992677 .025253296 .054992677 .023254395 .054992677 .01725769 .054992677-.0057525637 .07499695-.0107421879 .083999637-.0107421879 .099990848-.0107421879 .115997318 .0012512207 .12098694 .015258789L.13999939 .091278079 .1619873 .18130493C.16799927 .2033081 .17399597 .22531128 .1789856 .24832154 .18099976 .25431825 .18899536 .28733827 .18998719 .29333497 .19299317 .30233766 .22399903 .35835267 .2579956 .38536073 .27999879 .4013672 .31098939 .42037965 .35398866 .42037965 .39698792 .42037965 .4079895 .3863678 .4079895 .35035707 .4079895 .29634095 .36999513 .18730164 .34599305 .12628174 .33799745 .103271488 .33299256 .091278079 .33299256 .0712738 .33299256 .024261475 .36799623-.0107421879 .4149933-.0107421879 .5089874-.0107421879 .54599 .13528443 .54599 .14329529 .54599 .1532898 .5369873 .1532898 .5339966 .1532898 .5239868 .1532898 .5239868 .15029907 .5189972 .13528443 .5039978 .08227539 .47200013 .011245728 .4169922 .011245728 .3999939 .011245728 .3929901 .021255494 .3929901 .044265748 .3929901 .0692749 .4019928 .09327698 .41099549 .11528015 .4269867 .15829468 .47200013 .2773285 .47200013 .3353424 .47200013 .4003601 .43199159 .4423828 .35699464 .4423828 .2939911 .4423828 .24598694 .41137696 .20899964 .36535646L.2869873 .68333438Z"/>
<path id="font_1_2" d="M.9169922 .5666046C.94200137 .61061099 .96598818 .64660647 1.0289917 .6516113 1.0379944 .65260317 1.0479889 .65260317 1.0479889 .6716156 1.0479889 .6756134 1.0439911 .6826172 1.0359955 .6826172 1.0119934 .6826172 .98399356 .6796112 .95899966 .6796112 .9249878 .6796112 .8880005 .6826172 .8549957 .6826172 .848999 .6826172 .83599856 .6826172 .83599856 .66360476 .83599856 .65260317 .8450012 .6516113 .8509979 .6516113 .875 .65060427 .9099884 .64260867 .9099884 .61260989 .9099884 .6016083 .9049988 .5935974 .8969879 .5796051L.6269989 .108551029 .58999636 .604599C.58898928 .6246033 .58699038 .65060427 .6599884 .6516113 .6769867 .6516113 .68699648 .6516113 .68699648 .6716156 .68699648 .6816101 .6759949 .6826172 .6719971 .6826172 .6319885 .6826172 .58999636 .6796112 .5499878 .6796112 .5269928 .6796112 .46798707 .6826172 .44499208 .6826172 .43899537 .6826172 .42599488 .6826172 .42599488 .6626129 .42599488 .6516113 .43598939 .6516113 .44999696 .6516113 .49398805 .6516113 .5009918 .6456146 .5029907 .6266022L.5089874 .54959109 .2559967 .108551029 .21798706 .6156006C.21798706 .62760928 .21798706 .65060427 .2939911 .6516113 .3039856 .6516113 .31498719 .6516113 .31498719 .6716156 .31498719 .6826172 .30299378 .6826172 .30099488 .6826172 .26098634 .6826172 .21899414 .6796112 .17799378 .6796112 .14299011 .6796112 .10699463 .6826172 .07299805 .6826172 .067993167 .6826172 .054992677 .6826172 .054992677 .66360476 .054992677 .6516113 .06399536 .6516113 .07998657 .6516113 .12998963 .6516113 .1309967 .64260867 .1329956 .61460879L.17799378 .0035247803C.1789856-.014465332 .17999268-.022460938 .19400025-.022460938 .20599365-.022460938 .20899964-.016464234 .21798706-.0014648438L.5119934 .5085907 .548996 .0035247803C.5509949-.017471314 .5529938-.022460938 .5649872-.022460938 .5779877-.022460938 .58399966-.012466431 .58898928-.0034637452L.9169922 .5666046Z"/>
<path id="font_2_82" d="M.4189911 0V.0309906H.3869934C.29699708 .0309906 .2939911 .041992189 .2939911 .07902527V.64012148C.2939911 .6640167 .2939911 .6660156 .2709961 .6660156 .20899964 .60227969 .12098694 .60227969 .08898926 .60227969V.57128909C.10899353 .57128909 .16799927 .57128909 .21998596 .5972748V.07902527C.21998596 .042999269 .21699524 .0309906 .1269989 .0309906H.09498596V0C.12998963 .0029907227 .21699524 .0029907227 .25698854 .0029907227 .29699708 .0029907227 .38398744 .0029907227 .4189911 0Z"/>
<path id="font_2_107" d="M.44898988 .17396546H.42399598C.4189911 .14398194 .4119873 .099990848 .4019928 .084991458 .394989 .07699585 .32899476 .07699585 .30699159 .07699585H.1269989L.23298645 .17996216C.3889923 .31803895 .44898988 .37210084 .44898988 .47216798 .44898988 .5860901 .35899354 .6660156 .23699951 .6660156 .12399292 .6660156 .049987794 .57411196 .049987794 .48516847 .049987794 .4291687 .099990848 .4291687 .102996829 .4291687 .11999512 .4291687 .15499878 .44117738 .15499878 .48217774 .15499878 .5081787 .13699341 .5341797 .101989749 .5341797 .09399414 .5341797 .09199524 .5341797 .08898926 .5331726 .11199951 .59806826 .1659851 .63500979 .22399903 .63500979 .31498719 .63500979 .35798646 .5541382 .35798646 .47216798 .35798646 .39196778 .30799867 .31297303 .25299073 .25097657L.06098938 .036987306C.049987794 .025985718 .049987794 .023986817 .049987794 0H.42099L.44898988 .17396546Z"/>
<path id="font_2_106" d="M.45700074 .17037964C.45700074 .252594 .3939972 .33088685 .2899933 .35191346 .37199403 .37893678 .42999269 .4490509 .42999269 .52809146 .42999269 .6100464 .34199525 .6660156 .24598694 .6660156 .14498902 .6660156 .068984989 .60606387 .068984989 .53009036 .068984989 .49710084 .09098816 .47808839 .11999512 .47808839 .15098572 .47808839 .17098999 .50009158 .17098999 .5290985 .17098999 .57910159 .12399292 .57910159 .10899353 .57910159 .13999939 .62802127 .20599365 .64100649 .24198914 .64100649 .2829895 .64100649 .33799745 .6190338 .33799745 .5290985 .33799745 .51708987 .33599855 .45906068 .30999757 .4149933 .27999879 .36691285 .24598694 .36390687 .22099304 .36291505 .21299744 .36190797 .18899536 .35990907 .18199158 .35990907 .17399597 .35890199 .16699219 .35791017 .16699219 .3479004 .16699219 .33691407 .17399597 .33691407 .19099427 .33691407H.23498535C.31698609 .33691407 .35398866 .2686615 .35398866 .17037964 .35398866 .034469606 .2849884 .0055389406 .24099732 .0055389406 .19799805 .0055389406 .12298584 .022491456 .08799744 .08137512 .12298584 .07637024 .1539917 .09837341 .1539917 .1363678 .1539917 .17237854 .1269989 .19238281 .09799194 .19238281 .07398987 .19238281 .041992189 .17837525 .041992189 .1343689 .041992189 .043441774 .1349945-.022460938 .24398804-.022460938 .3659973-.022460938 .45700074 .06838989 .45700074 .17037964Z"/>
<path id="font_2_57" d="M.47099305 .16503906V.19602967H.37098695V.6507721C.37098695 .6707611 .37098695 .6767578 .35499574 .6767578 .34599305 .6767578 .34298707 .6767578 .33499146 .6647644L.027999878 .19602967V.16503906H.2939911V.07800293C.2939911 .041992189 .2919922 .0309906 .21798706 .0309906H.19699097V0C.23799134 .0029907227 .2899933 .0029907227 .33198548 .0029907227 .37399293 .0029907227 .4269867 .0029907227 .46798707 0V.0309906H.44699098C.37298585 .0309906 .37098695 .041992189 .37098695 .07800293V.16503906H.47099305M.2999878 .19602967H.055999757L.2999878 .56881716V.19602967Z"/>
<path id="font_2_56" d="M.44898988 .20091248C.44898988 .31991578 .36698915 .41992188 .25898744 .41992188 .21099854 .41992188 .16799927 .4039154 .13198853 .36891175V.5641022C.1519928 .55778506 .18499756 .55078127 .21699524 .55078127 .33999635 .55078127 .4099884 .6418457 .4099884 .65493777 .4099884 .6609802 .40699769 .6660156 .3999939 .6660156 .3999939 .66607668 .39698792 .66607668 .3919983 .66308596 .37199403 .65408328 .32299806 .63378909 .2559967 .63378909 .21598816 .63409426 .16999817 .641098 .12298584 .6621094 .114990238 .6651001 .11099243 .6651001 .11099243 .6651001 .100997928 .66508486 .100997928 .657074 .100997928 .64108279V.3447113C.100997928 .3266449 .100997928 .31861878 .114990238 .31861878 .12199402 .31861878 .12399292 .32164 .12799073 .32765199 .13899231 .34371949 .17599488 .3979187 .25698854 .3979187 .30899049 .3979187 .33399964 .3517456 .34199525 .3336792 .35798646 .2965393 .3600006 .2574005 .3600006 .20721436 .3600006 .17218018 .3600006 .112197879 .33599855 .07032776 .31199647 .031448366 .2749939 .0055389406 .22898865 .0055389406 .1559906 .0055389406 .09899902 .05836487 .08198547 .1171875 .084991458 .11685181 .08799744 .115859989 .09899902 .115859989 .13198853 .115859989 .14898682 .14085388 .14898682 .16485596 .14898682 .18885803 .13198853 .21386719 .09899902 .21386719 .084991458 .21386719 .049987794 .2068634 .049987794 .16085816 .049987794 .07432556 .11898804-.022460938 .23098755-.022460938 .34700013-.022460938 .44898988 .07331848 .44898988 .20019531V.20091248Z"/>
<path id="font_2_121" d="M.45999146 .31976319C.45999146 .39982606 .45498658 .47988893 .41999818 .5539398 .37399293 .65000918 .2919922 .6660156 .25 .6660156 .18998719 .6660156 .116989139 .64001467 .07598877 .54693606 .04399109 .47789 .038986207 .39982606 .038986207 .31976319 .038986207 .24472046 .042999269 .15464783 .083999637 .07859802 .1269989-.0024719239 .19999695-.022460938 .24899292-.022460938 .30299378-.022460938 .3789978-.0014648438 .4229889 .09359741 .45498658 .16265869 .45999146 .2407074 .45999146 .31976319M.3769989 .3317871C.3769989 .25672914 .3769989 .18867493 .3659973 .12461853 .35099793 .029556275 .2939911-.00047302247 .24899292-.00047302247 .20999146-.00047302247 .15098572 .024551392 .1329956 .12062073 .12199402 .18066406 .12199402 .2727356 .12199402 .3317871 .12199402 .39582826 .12199402 .46188355 .12998963 .5159149 .14898682 .63500979 .22399903 .64401248 .24899292 .64401248 .28199769 .64401248 .34799195 .6259918 .36698915 .52693179 .3769989 .47088624 .3769989 .39482118 .3769989 .3317871Z"/>
<path id="font_1_1" d="M.1599884 .07795715C.1499939 .038986207 .147995 .0309906 .068984989 .0309906 .051986696 .0309906 .041992189 .0309906 .041992189 .010986328 .041992189 0 .050994874 0 .068984989 0H.42599488C.58399966 0 .70199587 .11791992 .70199587 .21585083 .70199587 .28778077 .6439972 .3457489 .5469971 .35673524 .651001 .37573243 .7559967 .44970704 .7559967 .5446625 .7559967 .6186218 .6899872 .6826172 .56999209 .6826172H.23399353C.21499634 .6826172 .20498657 .6826172 .20498657 .6626129 .20498657 .6516113 .21398926 .6516113 .23298645 .6516113 .23498535 .6516113 .2539978 .6516113 .2709961 .6496124 .2889862 .6476135 .2979889 .64660647 .2979889 .6336212 .2979889 .6296234 .29699708 .62661746 .2939911 .614624L.1599884 .07795715M.31098939 .36573792 .37298585 .6136322C.38198854 .64860537 .38398744 .6516113 .4269867 .6516113H.55599978C.6439972 .6516113 .6649933 .5926361 .6649933 .5486603 .6649933 .46069337 .57899478 .36573792 .45700074 .36573792H.31098939M.2659912 .0309906C.2519989 .0309906 .25 .0309906 .24398804 .03199768 .23399353 .032989503 .23098755 .033996583 .23098755 .04197693 .23098755 .04498291 .23098755 .04698181 .23599243 .064971927L.30499269 .34375H.49398805C.58999636 .34375 .60899356 .2698059 .60899356 .22683716 .60899356 .12791443 .519989 .0309906 .4019928 .0309906H.2659912Z"/>
</defs>
<path transform="matrix(1.00002,0,0,-1.00002,15.047081,131.8834)" stroke-width=".3985" stroke-linecap="butt" stroke-miterlimit="10" stroke-linejoin="miter" fill="none" stroke="#00aeef" d="M0 0H113.38766M0 11.33855H113.38766M0 22.6771H113.38766M0 34.01564H113.38766M0 45.35419H113.38766M0 56.69275H113.38766M0 68.0313H113.38766M0 79.36984H113.38766M0 90.70839H113.38766M0 102.04694H113.38766M0 113.38351H113.38766M0 0V113.3855M22.67752 0V113.3855M45.35506 0V113.3855M68.0326 0V113.3855M90.71013 0V113.3855M113.37968 0V113.3855M113.38766 113.3855"/>
<path transform="matrix(1.00002,0,0,-1.00002,15.047081,131.8834)" stroke-width=".79701" stroke-linecap="butt" stroke-miterlimit="10" stroke-linejoin="miter" fill="none" stroke="#000000" d="M0 0H123.29181"/>
<path transform="matrix(1.00002,0,0,-1.00002,138.34137,131.8834)" d="M1.0361 0C-.25902 .25902-1.55415 .77707-3.1083 1.68365-1.55415 .51805-1.55415-.51805-3.1083-1.68365-1.55415-.77707-.25902-.25902 1.0361 0Z"/>
<path transform="matrix(1.00002,0,0,-1.00002,138.34137,131.8834)" stroke-width=".79701" stroke-linecap="butt" stroke-linejoin="round" fill="none" stroke="#000000" d="M1.0361 0C-.25902 .25902-1.55415 .77707-3.1083 1.68365-1.55415 .51805-1.55415-.51805-3.1083-1.68365-1.55415-.77707-.25902-.25902 1.0361 0Z"/>
<use data-text="h" xlink:href="#font_1_3" transform="matrix(9.962799,0,0,-9.962799,143.49567,135.34249)"/>
<path transform="matrix(1.00002,0,0,-1.00002,15.047081,131.8834)" stroke-width=".79701" stroke-linecap="butt" stroke-miterlimit="10" stroke-linejoin="miter" fill="none" stroke="#000000" d="M0 0V126.12407"/>
<path transform="matrix(0,-1.00002,-1.00002,-0,15.047081,5.756813)" d="M1.0361 0C-.25902 .25902-1.55415 .77707-3.1083 1.68365-1.55415 .51805-1.55415-.51805-3.1083-1.68365-1.55415-.77707-.25902-.25902 1.0361 0Z"/>
<path transform="matrix(0,-1.00002,-1.00002,-0,15.047081,5.756813)" stroke-width=".79701" stroke-linecap="butt" stroke-linejoin="round" fill="none" stroke="#000000" d="M1.0361 0C-.25902 .25902-1.55415 .77707-3.1083 1.68365-1.55415 .51805-1.55415-.51805-3.1083-1.68365-1.55415-.77707-.25902-.25902 1.0361 0Z"/>
<use data-text="W" xlink:href="#font_1_2" transform="matrix(9.962799,0,0,-9.962799,.53479006,7.7259218)"/>
<path transform="matrix(1.00002,0,0,-1.00002,15.047081,131.8834)" stroke-width="1.19553" stroke-linecap="butt" stroke-miterlimit="10" stroke-linejoin="miter" fill="none" stroke="#00aeef" d="M22.67752 0V113.3855"/>
<path transform="matrix(1.00002,0,0,-1.00002,15.047081,131.8834)" stroke-width=".79701" stroke-linecap="butt" stroke-miterlimit="10" stroke-linejoin="miter" fill="none" stroke="#000000" d="M22.67752 .56696V-.56686"/>
<use data-text="1" xlink:href="#font_2_82" transform="matrix(9.962799,0,0,-9.962799,35.23449,142.80463)"/>
<path transform="matrix(1.00002,0,0,-1.00002,15.047081,131.8834)" stroke-width="1.19553" stroke-linecap="butt" stroke-miterlimit="10" stroke-linejoin="miter" fill="none" stroke="#00aeef" d="M45.35506 0V113.3855"/>
<path transform="matrix(1.00002,0,0,-1.00002,15.047081,131.8834)" stroke-width=".79701" stroke-linecap="butt" stroke-miterlimit="10" stroke-linejoin="miter" fill="none" stroke="#000000" d="M45.35506 .56696V-.56686"/>
<use data-text="2" xlink:href="#font_2_107" transform="matrix(9.962799,0,0,-9.962799,57.911939,142.80463)"/>
<path transform="matrix(1.00002,0,0,-1.00002,15.047081,131.8834)" stroke-width="1.19553" stroke-linecap="butt" stroke-miterlimit="10" stroke-linejoin="miter" fill="none" stroke="#00aeef" d="M68.0326 0V113.3855"/>
<path transform="matrix(1.00002,0,0,-1.00002,15.047081,131.8834)" stroke-width=".79701" stroke-linecap="butt" stroke-miterlimit="10" stroke-linejoin="miter" fill="none" stroke="#000000" d="M68.0326 .56696V-.56686"/>
<use data-text="3" xlink:href="#font_2_106" transform="matrix(9.962799,0,0,-9.962799,80.59039,142.80463)"/>
<path transform="matrix(1.00002,0,0,-1.00002,15.047081,131.8834)" stroke-width="1.19553" stroke-linecap="butt" stroke-miterlimit="10" stroke-linejoin="miter" fill="none" stroke="#00aeef" d="M90.71013 0V113.3855"/>
<path transform="matrix(1.00002,0,0,-1.00002,15.047081,131.8834)" stroke-width=".79701" stroke-linecap="butt" stroke-miterlimit="10" stroke-linejoin="miter" fill="none" stroke="#000000" d="M90.71013 .56696V-.56686"/>
<use data-text="4" xlink:href="#font_2_57" transform="matrix(9.962799,0,0,-9.962799,103.26785,142.91463)"/>
<path transform="matrix(1.00002,0,0,-1.00002,15.047081,131.8834)" stroke-width="1.19553" stroke-linecap="butt" stroke-miterlimit="10" stroke-linejoin="miter" fill="none" stroke="#00aeef" d="M113.38766 0V113.3855"/>
<path transform="matrix(1.00002,0,0,-1.00002,15.047081,131.8834)" stroke-width=".79701" stroke-linecap="butt" stroke-miterlimit="10" stroke-linejoin="miter" fill="none" stroke="#000000" d="M113.38766 .56696V-.56686"/>
<use data-text="5" xlink:href="#font_2_56" transform="matrix(9.962799,0,0,-9.962799,125.946308,142.80463)"/>
<path transform="matrix(1.00002,0,0,-1.00002,15.047081,131.8834)" stroke-width="1.19553" stroke-linecap="butt" stroke-miterlimit="10" stroke-linejoin="miter" fill="none" stroke="#00aeef" d="M0 56.69275H113.38766"/>
<path transform="matrix(1.00002,0,0,-1.00002,15.047081,131.8834)" stroke-width=".79701" stroke-linecap="butt" stroke-miterlimit="10" stroke-linejoin="miter" fill="none" stroke="#000000" d="M.22662 56.69275H-.22699"/>
<use data-text="1" xlink:href="#font_2_82" transform="matrix(9.962799,0,0,-9.962799,1.1378021,78.39734)"/>
<use data-text="0" xlink:href="#font_2_121" transform="matrix(9.962799,0,0,-9.962799,6.1192018,78.39734)"/>
<path transform="matrix(1.00002,0,0,-1.00002,15.047081,131.8834)" stroke-width="1.19553" stroke-linecap="butt" stroke-miterlimit="10" stroke-linejoin="miter" fill="none" stroke="#00aeef" d="M0 113.3855H113.38766"/>
<path transform="matrix(1.00002,0,0,-1.00002,15.047081,131.8834)" stroke-width=".79701" stroke-linecap="butt" stroke-miterlimit="10" stroke-linejoin="miter" fill="none" stroke="#000000" d="M.22662 113.3855H-.22699"/>
<use data-text="2" xlink:href="#font_2_107" transform="matrix(9.962799,0,0,-9.962799,1.1378021,21.7042)"/>
<use data-text="0" xlink:href="#font_2_121" transform="matrix(9.962799,0,0,-9.962799,6.1192018,21.7042)"/>
<path transform="matrix(1.00002,0,0,-1.00002,15.047081,131.8834)" stroke-width="1.19553" stroke-linecap="butt" stroke-miterlimit="10" stroke-linejoin="miter" fill="none" stroke="#ff0000" d="M0 0C0 0 1.10301-.00009 1.52667 .00032 1.95032 .0008 2.62971 .0018 3.05338 .00336 3.47702 .00491 4.15642 .00821 4.58006 .01158 5.00371 .01494 5.6831 .0217 6.10675 .02759 6.5304 .03345 7.2098 .04485 7.63344 .05396 8.05708 .06308 8.73648 .08025 9.16014 .09332 9.58379 .1064 10.26317 .13051 10.68681 .14825 11.11046 .16602 11.78987 .1982 12.21352 .22134 12.63718 .24452 13.31656 .28593 13.7402 .3152 14.16386 .34448 14.84325 .39622 15.26689 .43234 15.69055 .46846 16.36993 .53181 16.7936 .57552 17.21724 .6192 17.89664 .69527 18.3203 .74722 18.74394 .79918 19.42331 .88904 19.84697 .95 20.27063 1.01096 20.95003 1.1159 21.37367 1.1866 21.79732 1.25728 22.47672 1.37831 22.90036 1.45943 23.324 1.54056 24.0034 1.679 24.42705 1.77129 24.85071 1.86357 25.53009 2.02043 25.95374 2.12457 26.37738 2.22874 27.0568 2.40523 27.48044 2.52199 27.90408 2.63875 28.58347 2.83603 29.00713 2.96611 29.43079 3.09619 30.11017 3.31544 30.53381 3.45953 30.95747 3.60365 31.63686 3.84592 32.0605 4.00479 32.48416 4.16367 33.16354 4.43025 33.58722 4.60463 34.01086 4.779 34.69023 5.071 35.11389 5.26155 35.53754 5.45212 36.21695 5.77061 36.6406 5.97807 37.06424 6.18556 37.74364 6.53177 38.16728 6.75691 38.59093 6.98204 39.27032 7.35721 39.69397 7.60068 40.11761 7.84416 40.79701 8.2492 41.22066 8.51176 41.6443 8.77432 42.32372 9.21065 42.74736 9.49301 43.171 9.77538 43.85039 10.24403 44.27403 10.5469 44.69771 10.8498 45.37709 11.35187 45.80074 11.676 46.2244 12.00014 46.90378 12.53693 47.32742 12.88301 47.75108 13.22911 48.43047 13.80164 48.85413 14.17041 49.27777 14.53918 49.95715 15.14865 50.38081 15.54083 50.80446 15.933 51.48386 16.58063 51.90752 16.99692 52.33116 17.4132 53.01054 18.10002 53.4342 18.54114 53.85785 18.98225 54.53725 19.70949 54.96089 20.1762 55.38454 20.64288 56.06393 21.41177 56.48758 21.90475 56.91122 22.39774 57.59062 23.20927 58.01427 23.72926 58.43793 24.24924 59.11731 25.1047 59.54095 25.65239 59.9646 26.20006 60.64401 27.10042 61.06766 27.67654 61.49132 28.25267 62.1707 29.19939 62.59435 29.80469 63.018 30.40999 63.69739 31.40396 64.12103 32.03914 64.5447 32.67432 65.22408 33.71683 65.64774 34.3826 66.07138 35.04837 66.75076 36.14047 67.17444 36.83757 67.59808 37.53464 68.27747 38.67757 68.70111 39.40671 69.12476 40.13585 69.80417 41.33081 70.22781 42.09271 70.65146 42.85464 71.33086 44.10266 71.7545 44.89803 72.17815 45.69342 72.85754 46.99568 73.28119 47.82524 73.70483 48.6548 74.38423 50.01251 74.80788 50.877 75.23152 51.7415 75.91093 53.15579 76.33458 54.05594 76.75822 54.95609 77.4376 56.42813 77.86125 57.36462 78.28493 58.30115 78.96431 59.8321 79.38795 60.80566 79.81161 61.77925 80.491 63.37012 80.91466 64.3815 81.3383 65.39287 82.01768 67.04506 82.44135 68.09496 82.86499 69.14485 83.54437 70.85931 83.96803 71.94846 84.39168 73.03763 85.07109 74.81569 85.49474 75.9448 85.91838 77.0739 86.59776 78.9165 87.02142 80.08627 87.44507 81.25607 88.12447 83.1646 88.54811 84.3758 88.97176 85.58698 89.65115 87.56241 90.0748 88.81572 90.49844 90.06903 91.17784 92.11261 91.60149 93.40878 92.02515 94.70493 92.70453 96.81783 93.12817 98.15755 93.55183 99.49724 94.23123 101.68054 94.65488 103.06451 95.07854 104.4485 95.75792 106.70332 96.18156 108.13232 96.60522 109.56131 97.70827 113.3637 97.1865 111.56497"/>
<path transform="matrix(.27858559,-.96037927,-.96037927,-.27858559,112.235507,20.316216)" d="M1.27522 0C-.31879 .31879-1.91284 .9564-3.8257 2.07224-1.91284 .6376-1.91284-.6376-3.8257-2.07224-1.91284-.9564-.31879-.31879 1.27522 0Z" fill="#ff0000"/>
<path transform="matrix(.27858559,-.96037927,-.96037927,-.27858559,112.235507,20.316216)" stroke-width="1.19553" stroke-linecap="butt" stroke-linejoin="round" fill="none" stroke="#ff0000" d="M1.27522 0C-.31879 .31879-1.91284 .9564-3.8257 2.07224-1.91284 .6376-1.91284-.6376-3.8257-2.07224-1.91284-.9564-.31879-.31879 1.27522 0Z"/>
<path transform="matrix(1.00002,0,0,-1.00002,15.047081,131.8834)" d="M92.97786 90.70839C92.97786 91.9608 91.96257 92.97609 90.71013 92.97609 89.45767 92.97609 88.44238 91.9608 88.44238 90.70839 88.44238 89.45598 89.45767 88.44069 90.71013 88.44069 91.96257 88.44069 92.97786 89.45598 92.97786 90.70839ZM90.71013 90.70839" fill="#ff0000"/>
<path transform="matrix(1.00002,0,0,-1.00002,15.047081,131.8834)" stroke-width=".3985" stroke-linecap="butt" stroke-miterlimit="10" stroke-linejoin="miter" fill="none" stroke="#ff0000" d="M92.97786 90.70839C92.97786 91.9608 91.96257 92.97609 90.71013 92.97609 89.45767 92.97609 88.44238 91.9608 88.44238 90.70839 88.44238 89.45598 89.45767 88.44069 90.71013 88.44069 91.96257 88.44069 92.97786 89.45598 92.97786 90.70839ZM90.71013 90.70839"/>
<path transform="matrix(1.00002,0,0,-1.00002,15.047081,131.8834)" d="M77.4728 90.90764H87.52202V99.70806H77.4728Z" fill="#ffffff"/>
<use data-text="B" xlink:href="#font_1_1" transform="matrix(9.962799,0,0,-9.962799,93.517658,39.97757)"/>
</svg>
