<svg xmlns="http://www.w3.org/2000/svg" xmlns:xlink="http://www.w3.org/1999/xlink" version="1.1" width="189" height="179" viewBox="0 0 189 179">
<defs>
<path id="font_1_2" d="M.5159912 .68333438C.5159912 .6843262 .5159912 .69433596 .5029907 .69433596 .48799134 .69433596 .3929901 .68533328 .37599183 .68333438 .36799623 .6823273 .3619995 .6773224 .3619995 .6643219 .3619995 .6523285 .37098695 .6523285 .38598634 .6523285 .43399049 .6523285 .43598939 .6453247 .43598939 .6353302L.43299867 .6153412 .37298585 .37835694C.35499574 .41537477 .32598878 .4423828 .2809906 .4423828 .1639862 .4423828 .039993287 .29533387 .039993287 .14929199 .039993287 .055267335 .09498596-.0107421879 .17298889-.0107421879 .19299317-.0107421879 .24299622-.0067443849 .30299378 .06427002 .31098939 .022247315 .34599305-.0107421879 .3939972-.0107421879 .42900086-.0107421879 .45199586 .012252808 .46798707 .044265748 .4850006 .08027649 .49798585 .14129639 .49798585 .14329529 .49798585 .1532898 .4889984 .1532898 .48599244 .1532898 .47599793 .1532898 .47499085 .14929199 .47200013 .13528443 .45498658 .07026672 .43699647 .011245728 .3959961 .011245728 .36898805 .011245728 .3659973 .037261964 .3659973 .057266237 .3659973 .08126831 .36799623 .088272098 .37199403 .105285648L.5159912 .68333438M.30799867 .119277957C.30299378 .10127258 .30299378 .09927368 .28799439 .08227539 .24398804 .027252198 .20298767 .011245728 .1749878 .011245728 .125 .011245728 .11099243 .06626892 .11099243 .105285648 .11099243 .1552887 .14299011 .27833558 .1659851 .32434083 .19699097 .38336183 .24198914 .42037965 .28199769 .42037965 .34700013 .42037965 .36099244 .3383484 .36099244 .33235169 .36099244 .32633973 .35899354 .32034303 .35798646 .31533814L.30799867 .119277957Z"/>
<path id="font_1_1" d="M.1599884 .07795715C.1499939 .038986207 .147995 .0309906 .068984989 .0309906 .051986696 .0309906 .041992189 .0309906 .041992189 .010986328 .041992189 0 .050994874 0 .068984989 0H.42599488C.58399966 0 .70199587 .11791992 .70199587 .21585083 .70199587 .28778077 .6439972 .3457489 .5469971 .35673524 .651001 .37573243 .7559967 .44970704 .7559967 .5446625 .7559967 .6186218 .6899872 .6826172 .56999209 .6826172H.23399353C.21499634 .6826172 .20498657 .6826172 .20498657 .6626129 .20498657 .6516113 .21398926 .6516113 .23298645 .6516113 .23498535 .6516113 .2539978 .6516113 .2709961 .6496124 .2889862 .6476135 .2979889 .64660647 .2979889 .6336212 .2979889 .6296234 .29699708 .62661746 .2939911 .614624L.1599884 .07795715M.31098939 .36573792 .37298585 .6136322C.38198854 .64860537 .38398744 .6516113 .4269867 .6516113H.55599978C.6439972 .6516113 .6649933 .5926361 .6649933 .5486603 .6649933 .46069337 .57899478 .36573792 .45700074 .36573792H.31098939M.2659912 .0309906C.2519989 .0309906 .25 .0309906 .24398804 .03199768 .23399353 .032989503 .23098755 .033996583 .23098755 .04197693 .23098755 .04498291 .23098755 .04698181 .23599243 .064971927L.30499269 .34375H.49398805C.58999636 .34375 .60899356 .2698059 .60899356 .22683716 .60899356 .12791443 .519989 .0309906 .4019928 .0309906H.2659912Z"/>
<path id="font_2_1" d="M.6589966 .23046875C.6759949 .23046875 .69400027 .23046875 .69400027 .25045777 .69400027 .27046205 .6759949 .27046205 .6589966 .27046205H.117996219C.100997928 .27046205 .08299255 .27046205 .08299255 .25045777 .08299255 .23046875 .100997928 .23046875 .117996219 .23046875H.6589966Z"/>
<path id="font_3_2" d="M.1269989 .07699585 .23298645 .18003845C.3889923 .31811524 .44898988 .3721466 .44898988 .47216798 .44898988 .5860901 .35899354 .6660156 .23699951 .6660156 .12399292 .6660156 .049987794 .57411196 .049987794 .48516847 .049987794 .4291687 .099990848 .4291687 .102996829 .4291687 .11999512 .4291687 .15499878 .44117738 .15499878 .48217774 .15499878 .5081787 .13699341 .5341797 .101989749 .5341797 .09399414 .5341797 .09199524 .5341797 .08898926 .5331726 .11199951 .59806826 .1659851 .63500979 .22399903 .63500979 .31498719 .63500979 .35798646 .5541382 .35798646 .47216798 .35798646 .39215089 .30799867 .31311036 .25299073 .25108338L.06098938 .036987306C.049987794 .025985718 .049987794 .023986817 .049987794 0H.42099L.44898988 .17404175H.42399598C.4189911 .14402771 .4119873 .1000061 .4019928 .084991458 .394989 .07699585 .32899476 .07699585 .30699159 .07699585H.1269989Z"/>
<path id="font_3_1" d="M.45999146 .31976319C.45999146 .39982606 .45498658 .47988893 .41999818 .5539398 .37399293 .65000918 .2919922 .6660156 .25 .6660156 .18998719 .6660156 .116989139 .64001467 .07598877 .54693606 .04399109 .47789 .038986207 .39982606 .038986207 .31976319 .038986207 .24472046 .042999269 .15464783 .083999637 .07859802 .1269989-.0024719239 .19999695-.022460938 .24899292-.022460938 .30299378-.022460938 .3789978-.0014648438 .4229889 .09359741 .45498658 .16265869 .45999146 .2407074 .45999146 .31976319M.24899292-.00047302247C.20999146-.00047302247 .15098572 .024551392 .1329956 .12062073 .12199402 .18066406 .12199402 .2727356 .12199402 .3317871 .12199402 .39582826 .12199402 .46188355 .12998963 .5159149 .14898682 .63500979 .22399903 .64401248 .24899292 .64401248 .28199769 .64401248 .34799195 .6259918 .36698915 .52693179 .3769989 .47088624 .3769989 .39482118 .3769989 .3317871 .3769989 .25672914 .3769989 .18867493 .3659973 .12461853 .35099793 .029556275 .2939911-.00047302247 .24899292-.00047302247Z"/>
<path id="font_3_3" d="M.2939911 .16503906V.07800293C.2939911 .041992189 .2919922 .0309906 .21798706 .0309906H.19699097V0C.23799134 .0029907227 .2899933 .0029907227 .33198548 .0029907227 .37399293 .0029907227 .4269867 .0029907227 .46798707 0V.0309906H.44699098C.37298585 .0309906 .37098695 .041992189 .37098695 .07800293V.16503906H.47099305V.19602967H.37098695V.65075686C.37098695 .67074587 .37098695 .6767578 .35499574 .6767578 .34599305 .6767578 .34298707 .6767578 .33499146 .66474917L.027999878 .19602967V.16503906H.2939911M.2999878 .19602967H.055999757L.2999878 .5688019V.19602967Z"/>
</defs>
<path transform="matrix(1.00002,0,0,-1.00005,54.420839,129.05284)" stroke-width=".3985" stroke-linecap="butt" stroke-miterlimit="10" stroke-linejoin="miter" fill="none" stroke="#00aeef" d="M-45.35419-45.35419H113.3855M-45.35419-34.01564H113.3855M-45.35419-22.6771H113.3855M-45.35419-11.33855H113.3855M-45.35419 0H113.3855M-45.35419 11.33855H113.3855M-45.35419 22.6771H113.3855M-45.35419 34.01564H113.3855M-45.35419 45.35419H113.3855M-45.35419 56.69275H113.3855M-45.35419 68.0313H113.3855M-45.35419 79.36984H113.3855M-45.35419 90.70839H113.3855M-45.35419 102.04694H113.3855M-45.35419 113.38152H113.3855M-45.35419-45.35419V113.3855M-34.01564-45.35419V113.3855M-22.6771-45.35419V113.3855M-11.33855-45.35419V113.3855M0-45.35419V113.3855M11.33855-45.35419V113.3855M22.6771-45.35419V113.3855M34.01564-45.35419V113.3855M45.35419-45.35419V113.3855M56.69275-45.35419V113.3855M68.0313-45.35419V113.3855M79.36984-45.35419V113.3855M90.70839-45.35419V113.3855M102.04694-45.35419V113.3855M113.38152-45.35419V113.3855M113.3855 113.3855"/>
<path transform="matrix(1.00002,0,0,-1.00005,54.420839,129.05284)" stroke-width=".79701" stroke-linecap="butt" stroke-miterlimit="10" stroke-linejoin="miter" fill="none" stroke="#000000" d="M-45.35419 0H123.28943"/>
<path transform="matrix(1.00002,0,0,-1.00005,177.71274,129.05284)" d="M1.0361 0C-.25902 .25902-1.55415 .77707-3.1083 1.68365-1.55415 .51805-1.55415-.51805-3.1083-1.68365-1.55415-.77707-.25902-.25902 1.0361 0Z"/>
<path transform="matrix(1.00002,0,0,-1.00005,177.71274,129.05284)" stroke-width=".79701" stroke-linecap="butt" stroke-linejoin="round" fill="none" stroke="#000000" d="M1.0361 0C-.25902 .25902-1.55415 .77707-3.1083 1.68365-1.55415 .51805-1.55415-.51805-3.1083-1.68365-1.55415-.77707-.25902-.25902 1.0361 0Z"/>
<use data-text="d" xlink:href="#font_1_2" transform="matrix(9.962799,0,0,-9.963098,182.86641,132.51201)"/>
<path transform="matrix(1.00002,0,0,-1.00005,54.420839,129.05284)" stroke-width=".79701" stroke-linecap="butt" stroke-miterlimit="10" stroke-linejoin="miter" fill="none" stroke="#000000" d="M0-45.35419V123.28943"/>
<path transform="matrix(0,-1.00005,-1.00002,-0,54.420839,5.7572557)" d="M1.0361 0C-.25902 .25902-1.55415 .77707-3.1083 1.68365-1.55415 .51805-1.55415-.51805-3.1083-1.68365-1.55415-.77707-.25902-.25902 1.0361 0Z"/>
<path transform="matrix(0,-1.00005,-1.00002,-0,54.420839,5.7572557)" stroke-width=".79701" stroke-linecap="butt" stroke-linejoin="round" fill="none" stroke="#000000" d="M1.0361 0C-.25902 .25902-1.55415 .77707-3.1083 1.68365-1.55415 .51805-1.55415-.51805-3.1083-1.68365-1.55415-.77707-.25902-.25902 1.0361 0Z"/>
<use data-text="B" xlink:href="#font_1_1" transform="matrix(9.962799,0,0,-9.963098,44.63764,7.7267839)"/>
<path transform="matrix(1.00002,0,0,-1.00005,54.420839,129.05284)" stroke-width="1.19553" stroke-linecap="butt" stroke-miterlimit="10" stroke-linejoin="miter" fill="none" stroke="#00aeef" d="M-45.35419-45.35419V113.3855"/>
<path transform="matrix(1.00002,0,0,-1.00005,54.420839,129.05284)" stroke-width=".3985" stroke-linecap="butt" stroke-miterlimit="10" stroke-linejoin="miter" fill="none" stroke="#000000" d="M-45.35419 2.26765V-2.26765"/>
<path transform="matrix(1.00002,0,0,-1.00005,54.420839,129.05284)" d="M-55.20628-13.7027H-35.50208V-4.45947H-55.20628Z" fill="#ffffff"/>
<use data-text="&#x2212;" xlink:href="#font_2_1" transform="matrix(9.962799,0,0,-9.963098,.20974732,140.92945)"/>
<use data-text="2" xlink:href="#font_3_2" transform="matrix(9.962799,0,0,-9.963098,7.958893,140.92945)"/>
<use data-text="0" xlink:href="#font_3_1" transform="matrix(9.962799,0,0,-9.963098,12.940277,140.92945)"/>
<path transform="matrix(1.00002,0,0,-1.00005,54.420839,129.05284)" stroke-width="1.19553" stroke-linecap="butt" stroke-miterlimit="10" stroke-linejoin="miter" fill="none" stroke="#00aeef" d="M45.35419-45.35419V113.3855"/>
<path transform="matrix(1.00002,0,0,-1.00005,54.420839,129.05284)" stroke-width=".3985" stroke-linecap="butt" stroke-miterlimit="10" stroke-linejoin="miter" fill="none" stroke="#000000" d="M45.35419 2.26765V-2.26765"/>
<path transform="matrix(1.00002,0,0,-1.00005,54.420839,129.05284)" d="M39.37651-12.87245H51.331853V-4.45947H39.37651Z" fill="#ffffff"/>
<use data-text="2" xlink:href="#font_3_2" transform="matrix(9.962799,0,0,-9.963098,94.79465,140.92945)"/>
<use data-text="0" xlink:href="#font_3_1" transform="matrix(9.962799,0,0,-9.963098,99.77603,140.92945)"/>
<path transform="matrix(1.00002,0,0,-1.00005,54.420839,129.05284)" stroke-width="1.19553" stroke-linecap="butt" stroke-miterlimit="10" stroke-linejoin="miter" fill="none" stroke="#00aeef" d="M90.70839-45.35419V113.3855"/>
<path transform="matrix(1.00002,0,0,-1.00005,54.420839,129.05284)" stroke-width=".3985" stroke-linecap="butt" stroke-miterlimit="10" stroke-linejoin="miter" fill="none" stroke="#000000" d="M90.70839 2.26765V-2.26765"/>
<path transform="matrix(1.00002,0,0,-1.00005,54.420839,129.05284)" d="M84.73071-12.87245H96.68605V-4.45947H84.73071Z" fill="#ffffff"/>
<use data-text="4" xlink:href="#font_3_3" transform="matrix(9.962799,0,0,-9.963098,140.14955,140.92945)"/>
<use data-text="0" xlink:href="#font_3_1" transform="matrix(9.962799,0,0,-9.963098,145.13094,140.92945)"/>
<path transform="matrix(1.00002,0,0,-1.00005,54.420839,129.05284)" stroke-width="1.19553" stroke-linecap="butt" stroke-miterlimit="10" stroke-linejoin="miter" fill="none" stroke="#00aeef" d="M-45.35419-45.35419H113.3855"/>
<path transform="matrix(1.00002,0,0,-1.00005,54.420839,129.05284)" stroke-width=".3985" stroke-linecap="butt" stroke-miterlimit="10" stroke-linejoin="miter" fill="none" stroke="#000000" d="M2.26765-45.35419H-2.26765"/>
<path transform="matrix(1.00002,0,0,-1.00005,54.420839,129.05284)" d="M-34.12646-49.9758H-4.4594709V-40.73257H-34.12646Z" fill="#ffffff"/>
<use data-text="&#x2212;" xlink:href="#font_2_1" transform="matrix(9.962799,0,0,-9.963098,21.290177,177.20424)"/>
<use data-text="2" xlink:href="#font_3_2" transform="matrix(9.962799,0,0,-9.963098,29.039322,177.20424)"/>
<use data-text="0" xlink:href="#font_3_1" transform="matrix(9.962799,0,0,-9.963098,34.020708,177.20424)"/>
<use data-text="0" xlink:href="#font_3_1" transform="matrix(9.962799,0,0,-9.963098,39.002107,177.20424)"/>
<use data-text="0" xlink:href="#font_3_1" transform="matrix(9.962799,0,0,-9.963098,43.98349,177.20424)"/>
<path transform="matrix(1.00002,0,0,-1.00005,54.420839,129.05284)" stroke-width="1.19553" stroke-linecap="butt" stroke-miterlimit="10" stroke-linejoin="miter" fill="none" stroke="#00aeef" d="M-45.35419 45.35419H113.3855"/>
<path transform="matrix(1.00002,0,0,-1.00005,54.420839,129.05284)" stroke-width=".3985" stroke-linecap="butt" stroke-miterlimit="10" stroke-linejoin="miter" fill="none" stroke="#000000" d="M2.26765 45.35419H-2.26765"/>
<path transform="matrix(1.00002,0,0,-1.00005,54.420839,129.05284)" d="M-26.37761 41.14769H-4.459469V49.56067H-26.37761Z" fill="#ffffff"/>
<use data-text="2" xlink:href="#font_3_2" transform="matrix(9.962799,0,0,-9.963098,29.03933,86.90674)"/>
<use data-text="0" xlink:href="#font_3_1" transform="matrix(9.962799,0,0,-9.963098,34.020715,86.90674)"/>
<use data-text="0" xlink:href="#font_3_1" transform="matrix(9.962799,0,0,-9.963098,39.002115,86.90674)"/>
<use data-text="0" xlink:href="#font_3_1" transform="matrix(9.962799,0,0,-9.963098,43.983499,86.90674)"/>
<path transform="matrix(1.00002,0,0,-1.00005,54.420839,129.05284)" stroke-width="1.19553" stroke-linecap="butt" stroke-miterlimit="10" stroke-linejoin="miter" fill="none" stroke="#00aeef" d="M-45.35419 90.70839H113.3855"/>
<path transform="matrix(1.00002,0,0,-1.00005,54.420839,129.05284)" stroke-width=".3985" stroke-linecap="butt" stroke-miterlimit="10" stroke-linejoin="miter" fill="none" stroke="#000000" d="M2.26765 90.70839H-2.26765"/>
<path transform="matrix(1.00002,0,0,-1.00005,54.420839,129.05284)" d="M-26.37761 86.50189H-4.459469V94.91487H-26.37761Z" fill="#ffffff"/>
<use data-text="4" xlink:href="#font_3_3" transform="matrix(9.962799,0,0,-9.963098,29.03933,41.55047)"/>
<use data-text="0" xlink:href="#font_3_1" transform="matrix(9.962799,0,0,-9.963098,34.020715,41.55047)"/>
<use data-text="0" xlink:href="#font_3_1" transform="matrix(9.962799,0,0,-9.963098,39.002115,41.55047)"/>
<use data-text="0" xlink:href="#font_3_1" transform="matrix(9.962799,0,0,-9.963098,43.983499,41.55047)"/>
</svg>
