<svg xmlns="http://www.w3.org/2000/svg" xmlns:xlink="http://www.w3.org/1999/xlink" version="1.1" width="270" height="23" viewBox="0 0 270 23">
<defs>
<path id="font_1_1" d="M.6589966 .23046875C.6759949 .23046875 .69400027 .23046875 .69400027 .25045777 .69400027 .27046205 .6759949 .27046205 .6589966 .27046205H.117996219C.100997928 .27046205 .08299255 .27046205 .08299255 .25045777 .08299255 .23046875 .100997928 .23046875 .117996219 .23046875H.6589966Z"/>
<path id="font_2_2" d="M.2939911 .64004519C.2939911 .66400149 .2939911 .6660156 .2709961 .6660156 .20899964 .60227969 .12098694 .60227969 .08898926 .60227969V.57128909C.10899353 .57128909 .16799927 .57128909 .21998596 .5972748V.07902527C.21998596 .042999269 .21699524 .0309906 .1269989 .0309906H.09498596V0C.12998963 .0029907227 .21699524 .0029907227 .25698854 .0029907227 .29699708 .0029907227 .38398744 .0029907227 .4189911 0V.0309906H.3869934C.29699708 .0309906 .2939911 .041992189 .2939911 .07902527V.64004519Z"/>
<path id="font_2_1" d="M.45999146 .31976319C.45999146 .39982606 .45498658 .47988893 .41999818 .5539398 .37399293 .65000918 .2919922 .6660156 .25 .6660156 .18998719 .6660156 .116989139 .64001467 .07598877 .54693606 .04399109 .47789 .038986207 .39982606 .038986207 .31976319 .038986207 .24472046 .042999269 .15464783 .083999637 .07859802 .1269989-.0024719239 .19999695-.022460938 .24899292-.022460938 .30299378-.022460938 .3789978-.0014648438 .4229889 .09359741 .45498658 .16265869 .45999146 .2407074 .45999146 .31976319M.24899292-.00047302247C.20999146-.00047302247 .15098572 .024551392 .1329956 .12062073 .12199402 .18066406 .12199402 .2727356 .12199402 .3317871 .12199402 .39582826 .12199402 .46188355 .12998963 .5159149 .14898682 .63500979 .22399903 .64401248 .24899292 .64401248 .28199769 .64401248 .34799195 .6259918 .36698915 .52693179 .3769989 .47088624 .3769989 .39482118 .3769989 .3317871 .3769989 .25672914 .3769989 .18867493 .3659973 .12461853 .35099793 .029556275 .2939911-.00047302247 .24899292-.00047302247Z"/>
<path id="font_2_3" d="M.44898988 .20022583C.44898988 .3193512 .36698915 .41944886 .25898744 .41944886 .21099854 .41944886 .16799927 .40345765 .13198853 .36842347V.5637665C.1519928 .5577698 .18499756 .55078127 .21699524 .55078127 .33999635 .55078127 .4099884 .6417694 .4099884 .6547699 .4099884 .6607666 .40699769 .6657715 .3999939 .6657715 .39898683 .6657715 .39698792 .6657715 .3919983 .66278079 .37199403 .6537781 .32299806 .6337738 .2559967 .6337738 .21598816 .6337738 .16999817 .6407776 .12298584 .6617737 .114990238 .66477969 .11299133 .66477969 .11099243 .66477969 .100997928 .66477969 .100997928 .6567688 .100997928 .6407776V.34439088C.100997928 .32637025 .100997928 .31835938 .114990238 .31835938 .12199402 .31835938 .12399292 .32136537 .12799073 .32736207 .13899231 .3433838 .17599488 .39746095 .25698854 .39746095 .30899049 .39746095 .33399964 .35139466 .34199525 .33337403 .35798646 .29632569 .3600006 .25727845 .3600006 .20722962 .3600006 .17222595 .3600006 .11222839 .33599855 .07035828 .31199647 .031463624 .2749939 .0055389406 .22898865 .0055389406 .1559906 .0055389406 .09899902 .058380128 .08198547 .11723328 .084991458 .1162262 .08799744 .115234378 .09899902 .115234378 .13198853 .115234378 .14898682 .14022827 .14898682 .16423035 .14898682 .18823242 .13198853 .21322632 .09899902 .21322632 .084991458 .21322632 .049987794 .20622254 .049987794 .16023255 .049987794 .07434082 .11898804-.022460938 .23098755-.022460938 .34700013-.022460938 .44898988 .073349 .44898988 .20022583Z"/>
</defs>
<path transform="matrix(1.00009,0,0,-1.00002,134.81687,8.602852)" stroke-width=".79701" stroke-linecap="butt" stroke-miterlimit="10" stroke-linejoin="miter" fill="none" stroke="#000000" d="M-133.79492 0H132.3603"/>
<path transform="matrix(1.00009,0,0,-1.00002,267.1891,8.602852)" d="M1.0361 0C-.25902 .25902-1.55415 .77707-3.1083 1.68365-1.55415 .51805-1.55415-.51805-3.1083-1.68365-1.55415-.77707-.25902-.25902 1.0361 0Z"/>
<path transform="matrix(1.00009,0,0,-1.00002,267.1891,8.602852)" stroke-width=".79701" stroke-linecap="butt" stroke-linejoin="round" fill="none" stroke="#000000" d="M1.0361 0C-.25902 .25902-1.55415 .77707-3.1083 1.68365-1.55415 .51805-1.55415-.51805-3.1083-1.68365-1.55415-.77707-.25902-.25902 1.0361 0Z"/>
<path transform="matrix(1.00009,0,0,-1.00002,134.81687,8.602852)" stroke-width=".3985" stroke-linecap="butt" stroke-miterlimit="10" stroke-linejoin="miter" fill="none" stroke="#000000" d="M-124.72404 3.40158V0"/>
<path transform="matrix(1.00009,0,0,-1.00002,134.81687,8.602852)" stroke-width=".3985" stroke-linecap="butt" stroke-miterlimit="10" stroke-linejoin="miter" fill="none" stroke="#000000" d="M-113.3855 3.40158V0"/>
<path transform="matrix(1.00009,0,0,-1.00002,134.81687,8.602852)" stroke-width=".3985" stroke-linecap="butt" stroke-miterlimit="10" stroke-linejoin="miter" fill="none" stroke="#000000" d="M-102.04694 3.40158V0"/>
<path transform="matrix(1.00009,0,0,-1.00002,134.81687,8.602852)" stroke-width=".3985" stroke-linecap="butt" stroke-miterlimit="10" stroke-linejoin="miter" fill="none" stroke="#000000" d="M-90.70839 3.40158V0"/>
<path transform="matrix(1.00009,0,0,-1.00002,134.81687,8.602852)" stroke-width=".3985" stroke-linecap="butt" stroke-miterlimit="10" stroke-linejoin="miter" fill="none" stroke="#000000" d="M-79.36984 3.40158V0"/>
<path transform="matrix(1.00009,0,0,-1.00002,134.81687,8.602852)" stroke-width=".3985" stroke-linecap="butt" stroke-miterlimit="10" stroke-linejoin="miter" fill="none" stroke="#000000" d="M-68.0313 3.40158V0"/>
<path transform="matrix(1.00009,0,0,-1.00002,134.81687,8.602852)" stroke-width=".3985" stroke-linecap="butt" stroke-miterlimit="10" stroke-linejoin="miter" fill="none" stroke="#000000" d="M-56.69275 3.40158V0"/>
<path transform="matrix(1.00009,0,0,-1.00002,134.81687,8.602852)" stroke-width=".3985" stroke-linecap="butt" stroke-miterlimit="10" stroke-linejoin="miter" fill="none" stroke="#000000" d="M-45.35419 3.40158V0"/>
<path transform="matrix(1.00009,0,0,-1.00002,134.81687,8.602852)" stroke-width=".3985" stroke-linecap="butt" stroke-miterlimit="10" stroke-linejoin="miter" fill="none" stroke="#000000" d="M-34.01564 3.40158V0"/>
<path transform="matrix(1.00009,0,0,-1.00002,134.81687,8.602852)" stroke-width=".3985" stroke-linecap="butt" stroke-miterlimit="10" stroke-linejoin="miter" fill="none" stroke="#000000" d="M-22.6771 3.40158V0"/>
<path transform="matrix(1.00009,0,0,-1.00002,134.81687,8.602852)" stroke-width=".3985" stroke-linecap="butt" stroke-miterlimit="10" stroke-linejoin="miter" fill="none" stroke="#000000" d="M-11.33855 3.40158V0"/>
<path transform="matrix(1.00009,0,0,-1.00002,134.81687,8.602852)" stroke-width=".3985" stroke-linecap="butt" stroke-miterlimit="10" stroke-linejoin="miter" fill="none" stroke="#000000" d="M0 3.40158V0"/>
<path transform="matrix(1.00009,0,0,-1.00002,134.81687,8.602852)" stroke-width=".3985" stroke-linecap="butt" stroke-miterlimit="10" stroke-linejoin="miter" fill="none" stroke="#000000" d="M11.33855 3.40158V0"/>
<path transform="matrix(1.00009,0,0,-1.00002,134.81687,8.602852)" stroke-width=".3985" stroke-linecap="butt" stroke-miterlimit="10" stroke-linejoin="miter" fill="none" stroke="#000000" d="M22.6771 3.40158V0"/>
<path transform="matrix(1.00009,0,0,-1.00002,134.81687,8.602852)" stroke-width=".3985" stroke-linecap="butt" stroke-miterlimit="10" stroke-linejoin="miter" fill="none" stroke="#000000" d="M34.01564 3.40158V0"/>
<path transform="matrix(1.00009,0,0,-1.00002,134.81687,8.602852)" stroke-width=".3985" stroke-linecap="butt" stroke-miterlimit="10" stroke-linejoin="miter" fill="none" stroke="#000000" d="M45.35419 3.40158V0"/>
<path transform="matrix(1.00009,0,0,-1.00002,134.81687,8.602852)" stroke-width=".3985" stroke-linecap="butt" stroke-miterlimit="10" stroke-linejoin="miter" fill="none" stroke="#000000" d="M56.69275 3.40158V0"/>
<path transform="matrix(1.00009,0,0,-1.00002,134.81687,8.602852)" stroke-width=".3985" stroke-linecap="butt" stroke-miterlimit="10" stroke-linejoin="miter" fill="none" stroke="#000000" d="M68.0313 3.40158V0"/>
<path transform="matrix(1.00009,0,0,-1.00002,134.81687,8.602852)" stroke-width=".3985" stroke-linecap="butt" stroke-miterlimit="10" stroke-linejoin="miter" fill="none" stroke="#000000" d="M79.36984 3.40158V0"/>
<path transform="matrix(1.00009,0,0,-1.00002,134.81687,8.602852)" stroke-width=".3985" stroke-linecap="butt" stroke-miterlimit="10" stroke-linejoin="miter" fill="none" stroke="#000000" d="M90.70839 3.40158V0"/>
<path transform="matrix(1.00009,0,0,-1.00002,134.81687,8.602852)" stroke-width=".3985" stroke-linecap="butt" stroke-miterlimit="10" stroke-linejoin="miter" fill="none" stroke="#000000" d="M102.04694 3.40158V0"/>
<path transform="matrix(1.00009,0,0,-1.00002,134.81687,8.602852)" stroke-width=".3985" stroke-linecap="butt" stroke-miterlimit="10" stroke-linejoin="miter" fill="none" stroke="#000000" d="M113.3855 3.40158V0"/>
<path transform="matrix(1.00009,0,0,-1.00002,134.81687,8.602852)" stroke-width=".3985" stroke-linecap="butt" stroke-miterlimit="10" stroke-linejoin="miter" fill="none" stroke="#000000" d="M124.72404 3.40158V0"/>
<path transform="matrix(1.00009,0,0,-1.00002,134.81687,8.602852)" stroke-width=".3985" stroke-linecap="butt" stroke-miterlimit="10" stroke-linejoin="miter" fill="none" stroke="#000000" d="M-113.3855 6.80318V0"/>
<use data-text="&#x2212;" xlink:href="#font_1_1" transform="matrix(9.963496,0,0,-9.962799,12.564865,20.53609)"/>
<use data-text="1" xlink:href="#font_2_2" transform="matrix(9.963496,0,0,-9.962799,20.31456,20.53609)"/>
<use data-text="0" xlink:href="#font_2_1" transform="matrix(9.963496,0,0,-9.962799,25.296296,20.53609)"/>
<path transform="matrix(1.00009,0,0,-1.00002,134.81687,8.602852)" stroke-width=".3985" stroke-linecap="butt" stroke-miterlimit="10" stroke-linejoin="miter" fill="none" stroke="#000000" d="M-56.69275 6.80318V0"/>
<use data-text="&#x2212;" xlink:href="#font_1_1" transform="matrix(9.963496,0,0,-9.962799,71.75319,20.53609)"/>
<use data-text="5" xlink:href="#font_2_3" transform="matrix(9.963496,0,0,-9.962799,79.502887,20.53609)"/>
<path transform="matrix(1.00009,0,0,-1.00002,134.81687,8.602852)" stroke-width=".3985" stroke-linecap="butt" stroke-miterlimit="10" stroke-linejoin="miter" fill="none" stroke="#000000" d="M0 6.80318V0"/>
<use data-text="0" xlink:href="#font_2_1" transform="matrix(9.963496,0,0,-9.962799,132.32564,20.53609)"/>
<path transform="matrix(1.00009,0,0,-1.00002,134.81687,8.602852)" stroke-width=".3985" stroke-linecap="butt" stroke-miterlimit="10" stroke-linejoin="miter" fill="none" stroke="#000000" d="M56.69275 6.80318V0"/>
<use data-text="5" xlink:href="#font_2_3" transform="matrix(9.963496,0,0,-9.962799,189.02375,20.53609)"/>
<path transform="matrix(1.00009,0,0,-1.00002,134.81687,8.602852)" stroke-width=".3985" stroke-linecap="butt" stroke-miterlimit="10" stroke-linejoin="miter" fill="none" stroke="#000000" d="M113.3855 6.80318V0"/>
<use data-text="1" xlink:href="#font_2_2" transform="matrix(9.963496,0,0,-9.962799,243.23062,20.53609)"/>
<use data-text="0" xlink:href="#font_2_1" transform="matrix(9.963496,0,0,-9.962799,248.21237,20.53609)"/>
<path transform="matrix(1.00009,0,0,-1.00002,134.81687,8.602852)" stroke-width="1.59404" stroke-linecap="butt" stroke-miterlimit="10" stroke-linejoin="miter" fill="none" stroke="#ff0000" d="M-68.0313 0H-131.48357"/>
<path transform="matrix(-1.00009,-0,0,1.00002,3.321457,8.602852)" d="M1.51433 0C-.37857 .37857-2.27148 1.13573-4.54298 2.46077-2.27148 .75716-2.27148-.75716-4.54298-2.46077-2.27148-1.13573-.37857-.37857 1.51433 0Z" fill="#ff0000"/>
<path transform="matrix(-1.00009,-0,0,1.00002,3.321457,8.602852)" stroke-width="1.59404" stroke-linecap="butt" stroke-linejoin="round" fill="none" stroke="#ff0000" d="M1.51433 0C-.37857 .37857-2.27148 1.13573-4.54298 2.46077-2.27148 .75716-2.27148-.75716-4.54298-2.46077-2.27148-1.13573-.37857-.37857 1.51433 0Z"/>
<path transform="matrix(1.00009,0,0,-1.00002,134.81687,8.602852)" d="M-64.62975 0C-64.62975 1.87863-66.15265 3.40154-68.0313 3.40154-69.90994 3.40154-71.43285 1.87863-71.43285 0-71.43285-1.87863-69.90994-3.40154-68.0313-3.40154-66.15265-3.40154-64.62975-1.87863-64.62975 0ZM-68.0313 0" fill="#ffffff"/>
<path transform="matrix(1.00009,0,0,-1.00002,134.81687,8.602852)" stroke-width=".3985" stroke-linecap="butt" stroke-miterlimit="10" stroke-linejoin="miter" fill="none" stroke="#ff0000" d="M-64.62975 0C-64.62975 1.87863-66.15265 3.40154-68.0313 3.40154-69.90994 3.40154-71.43285 1.87863-71.43285 0-71.43285-1.87863-69.90994-3.40154-68.0313-3.40154-66.15265-3.40154-64.62975-1.87863-64.62975 0ZM-68.0313 0"/>
</svg>
