<svg xmlns="http://www.w3.org/2000/svg" xmlns:xlink="http://www.w3.org/1999/xlink" version="1.1" width="255" height="188" viewBox="0 0 255 188">
<defs>
<path id="font_1_2" d="M.45199586 .43138124C.45199586 .43537904 .44898988 .44137574 .44198609 .44137574 .43099977 .44137574 .3909912 .4013672 .37399293 .37236024 .35198976 .42637635 .31298829 .4423828 .2809906 .4423828 .16299439 .4423828 .039993287 .29434205 .039993287 .14929199 .039993287 .05126953 .09899902-.0107421879 .17199707-.0107421879 .21499634-.0107421879 .2539978 .013244629 .2899933 .04925537 .2809906 .014251709 .24798584-.1211853 .24499512-.1302185 .23699951-.1583252 .22898865-.16233826 .17298889-.16334534 .1599884-.16334534 .1499939-.16334534 .1499939-.18334961 .1499939-.18434143 .1499939-.19433594 .16299439-.19433594 .19499207-.19433594 .22999573-.19134522 .2630005-.19134522 .29699708-.19134522 .33299256-.19433594 .3659973-.19433594 .37098695-.19433594 .38398744-.19433594 .38398744-.17434693 .38398744-.16334534 .37399293-.16334534 .35798646-.16334534 .30999757-.16334534 .30999757-.15631104 .30999757-.14727783 .30999757-.14025879 .31199647-.13423157 .31399537-.12519837L.45199586 .43138124M.1749878 .011245728C.114990238 .011245728 .11099243 .088272098 .11099243 .105285648 .11099243 .1532898 .13999939 .2623291 .15699768 .30433656 .18798828 .37835694 .23999024 .42037965 .2809906 .42037965 .34599305 .42037965 .3600006 .33935548 .3600006 .33235169 .3600006 .32633973 .30499269 .107284549 .3019867 .103271488 .2869873 .07527161 .23098755 .011245728 .1749878 .011245728Z"/>
<path id="font_1_1" d="M.644989 .69506838C.644989 .69807437 .6429901 .7050781 .6339874 .7050781 .6289978 .7050781 .6279907 .70407107 .6159973 .6900635L.56799319 .6330414C.5419922 .68006899 .48999024 .7050781 .4249878 .7050781 .2979889 .7050781 .17799378 .58999636 .17799378 .4689026 .17799378 .38783265 .23098755 .34179688 .28199769 .32678224L.3889923 .2987671C.42599488 .2897644 .48098756 .27474977 .48098756 .19267273 .48098756 .1026001 .39898683 .008529663 .30099488 .008529663 .23699951 .008529663 .12599182 .030548096 .12599182 .15464783 .12599182 .17866516 .1309967 .2026825 .13198853 .20869446 .1329956 .21269226 .13398743 .21369934 .13398743 .21569824 .13398743 .22570801 .1269989 .22669983 .12199402 .22669983 .116989139 .22669983 .114990238 .22570801 .11199951 .22270203 .10798645 .21870423 .051986696-.009475708 .051986696-.012466431 .051986696-.018463135 .056991579-.022460938 .06298828-.022460938 .067993167-.022460938 .068984989-.021469117 .08099365-.007461548L.12998963 .049560548C.17298889-.008468628 .24099732-.022460938 .29899598-.022460938 .43499757-.022460938 .5529938 .11061096 .5529938 .2347107 .5529938 .30377198 .5189972 .33779908 .5039978 .35180665 .48098756 .37483216 .46598817 .37882997 .3769989 .40185548 .35499574 .40785218 .31900025 .41786195 .30999757 .41986085 .2829895 .42886354 .24899292 .457901 .24899292 .51094058 .24899292 .59199526 .32899476 .677063 .42399598 .677063 .5069885 .677063 .56799319 .6340332 .56799319 .52194216 .56799319 .48991395 .56399539 .47190858 .56399539 .4658966 .56399539 .4649048 .56399539 .45588685 .57598879 .45588685 .58599856 .45588685 .58699038 .45889283 .59098818 .47590638L.644989 .69506838Z"/>
<path id="font_2_2" d="M.2939911 .64004519C.2939911 .66400149 .2939911 .6660156 .2709961 .6660156 .20899964 .60227969 .12098694 .60227969 .08898926 .60227969V.57128909C.10899353 .57128909 .16799927 .57128909 .21998596 .5972748V.07902527C.21998596 .042999269 .21699524 .0309906 .1269989 .0309906H.09498596V0C.12998963 .0029907227 .21699524 .0029907227 .25698854 .0029907227 .29699708 .0029907227 .38398744 .0029907227 .4189911 0V.0309906H.3869934C.29699708 .0309906 .2939911 .041992189 .2939911 .07902527V.64004519Z"/>
<path id="font_2_1" d="M.45999146 .31976319C.45999146 .39982606 .45498658 .47988893 .41999818 .5539398 .37399293 .65000918 .2919922 .6660156 .25 .6660156 .18998719 .6660156 .116989139 .64001467 .07598877 .54693606 .04399109 .47789 .038986207 .39982606 .038986207 .31976319 .038986207 .24472046 .042999269 .15464783 .083999637 .07859802 .1269989-.0024719239 .19999695-.022460938 .24899292-.022460938 .30299378-.022460938 .3789978-.0014648438 .4229889 .09359741 .45498658 .16265869 .45999146 .2407074 .45999146 .31976319M.24899292-.00047302247C.20999146-.00047302247 .15098572 .024551392 .1329956 .12062073 .12199402 .18066406 .12199402 .2727356 .12199402 .3317871 .12199402 .39582826 .12199402 .46188355 .12998963 .5159149 .14898682 .63500979 .22399903 .64401248 .24899292 .64401248 .28199769 .64401248 .34799195 .6259918 .36698915 .52693179 .3769989 .47088624 .3769989 .39482118 .3769989 .3317871 .3769989 .25672914 .3769989 .18867493 .3659973 .12461853 .35099793 .029556275 .2939911-.00047302247 .24899292-.00047302247Z"/>
<path id="font_2_3" d="M.1269989 .07699585 .23298645 .18003845C.3889923 .31811524 .44898988 .3721466 .44898988 .47216798 .44898988 .5860901 .35899354 .6660156 .23699951 .6660156 .12399292 .6660156 .049987794 .57411196 .049987794 .48516847 .049987794 .4291687 .099990848 .4291687 .102996829 .4291687 .11999512 .4291687 .15499878 .44117738 .15499878 .48217774 .15499878 .5081787 .13699341 .5341797 .101989749 .5341797 .09399414 .5341797 .09199524 .5341797 .08898926 .5331726 .11199951 .59806826 .1659851 .63500979 .22399903 .63500979 .31498719 .63500979 .35798646 .5541382 .35798646 .47216798 .35798646 .39215089 .30799867 .31311036 .25299073 .25108338L.06098938 .036987306C.049987794 .025985718 .049987794 .023986817 .049987794 0H.42099L.44898988 .17404175H.42399598C.4189911 .14402771 .4119873 .1000061 .4019928 .084991458 .394989 .07699585 .32899476 .07699585 .30699159 .07699585H.1269989Z"/>
<path id="font_2_4" d="M.2899933 .35191346C.37199403 .37893678 .42999269 .4490509 .42999269 .52809146 .42999269 .6100464 .34199525 .6660156 .24598694 .6660156 .14498902 .6660156 .068984989 .60606387 .068984989 .53009036 .068984989 .49710084 .09098816 .47808839 .11999512 .47808839 .15098572 .47808839 .17098999 .50009158 .17098999 .5290985 .17098999 .57910159 .12399292 .57910159 .10899353 .57910159 .13999939 .62802127 .20599365 .64100649 .24198914 .64100649 .2829895 .64100649 .33799745 .6190338 .33799745 .5290985 .33799745 .51708987 .33599855 .45906068 .30999757 .4149933 .27999879 .36691285 .24598694 .36390687 .22099304 .36291505 .21299744 .36190797 .18899536 .35990907 .18199158 .35990907 .17399597 .35890199 .16699219 .35791017 .16699219 .3479004 .16699219 .33691407 .17399597 .33691407 .19099427 .33691407H.23498535C.31698609 .33691407 .35398866 .2686615 .35398866 .17037964 .35398866 .034469606 .2849884 .0055389406 .24099732 .0055389406 .19799805 .0055389406 .12298584 .022491456 .08799744 .08137512 .12298584 .07637024 .1539917 .09837341 .1539917 .1363678 .1539917 .17237854 .1269989 .19238281 .09799194 .19238281 .07398987 .19238281 .041992189 .17837525 .041992189 .1343689 .041992189 .043441774 .1349945-.022460938 .24398804-.022460938 .3659973-.022460938 .45700074 .06838989 .45700074 .17037964 .45700074 .252594 .3939972 .33088685 .2899933 .35191346Z"/>
<path id="font_2_5" d="M.2939911 .16503906V.07800293C.2939911 .041992189 .2919922 .0309906 .21798706 .0309906H.19699097V0C.23799134 .0029907227 .2899933 .0029907227 .33198548 .0029907227 .37399293 .0029907227 .4269867 .0029907227 .46798707 0V.0309906H.44699098C.37298585 .0309906 .37098695 .041992189 .37098695 .07800293V.16503906H.47099305V.19602967H.37098695V.65075686C.37098695 .67074587 .37098695 .6767578 .35499574 .6767578 .34599305 .6767578 .34298707 .6767578 .33499146 .66474917L.027999878 .19602967V.16503906H.2939911M.2999878 .19602967H.055999757L.2999878 .5688019V.19602967Z"/>
<path id="font_3_1" d="M.6589966 .23046875C.6759949 .23046875 .69400027 .23046875 .69400027 .25045777 .69400027 .27046205 .6759949 .27046205 .6589966 .27046205H.117996219C.100997928 .27046205 .08299255 .27046205 .08299255 .25045777 .08299255 .23046875 .100997928 .23046875 .117996219 .23046875H.6589966Z"/>
</defs>
<path transform="matrix(1.00006,0,0,-1.00002,27.084847,103.53983)" stroke-width=".3985" stroke-linecap="butt" stroke-miterlimit="10" stroke-linejoin="miter" fill="none" stroke="#00aeef" d="M0-79.37244H198.4311M0-69.45088H198.4311M0-59.52933H198.4311M0-49.60777H198.4311M0-39.68622H198.4311M0-29.76466H198.4311M0-19.84311H198.4311M0-9.92155H198.4311M0 0H198.4311M0 9.92155H198.4311M0 19.84311H198.4311M0 29.76466H198.4311M0 39.68622H198.4311M0 49.60777H198.4311M0 59.52933H198.4311M0 69.45088H198.4311M0 79.36894H198.4311M0-79.37244V79.37244M9.92155-79.37244V79.37244M19.84311-79.37244V79.37244M29.76466-79.37244V79.37244M39.68622-79.37244V79.37244M49.60777-79.37244V79.37244M59.52933-79.37244V79.37244M69.45088-79.37244V79.37244M79.37244-79.37244V79.37244M89.29399-79.37244V79.37244M99.21555-79.37244V79.37244M109.13712-79.37244V79.37244M119.05867-79.37244V79.37244M128.98023-79.37244V79.37244M138.90178-79.37244V79.37244M148.82334-79.37244V79.37244M158.74489-79.37244V79.37244M168.66645-79.37244V79.37244M178.588-79.37244V79.37244M188.50955-79.37244V79.37244M198.42763-79.37244V79.37244M198.4311 79.37244"/>
<path transform="matrix(1.00006,0,0,-1.00002,27.084847,103.53983)" stroke-width="1.19553" stroke-linecap="butt" stroke-miterlimit="10" stroke-linejoin="miter" fill="none" stroke="#000000" d="M0 0H216.40123"/>
<path transform="matrix(1.00006,0,0,-1.00002,243.49906,103.53983)" d="M1.27522 0C-.31879 .31879-1.91284 .9564-3.8257 2.07224-1.91284 .6376-1.91284-.6376-3.8257-2.07224-1.91284-.9564-.31879-.31879 1.27522 0Z"/>
<path transform="matrix(1.00006,0,0,-1.00002,243.49906,103.53983)" stroke-width="1.19553" stroke-linecap="butt" stroke-linejoin="round" fill="none" stroke="#000000" d="M1.27522 0C-.31879 .31879-1.91284 .9564-3.8257 2.07224-1.91284 .6376-1.91284-.6376-3.8257-2.07224-1.91284-.9564-.31879-.31879 1.27522 0Z"/>
<use data-text="q" xlink:href="#font_1_2" transform="matrix(9.963197,0,0,-9.962799,249.29117,104.71586)"/>
<path transform="matrix(1.00006,0,0,-1.00002,27.084847,103.53983)" stroke-width=".79701" stroke-linecap="butt" stroke-miterlimit="10" stroke-linejoin="miter" fill="none" stroke="#000000" d="M0-79.37244V97.78094"/>
<path transform="matrix(0,-1.00002,-1.00006,-0,27.084847,5.756935)" d="M1.0361 0C-.25902 .25902-1.55415 .77707-3.1083 1.68365-1.55415 .51805-1.55415-.51805-3.1083-1.68365-1.55415-.77707-.25902-.25902 1.0361 0Z"/>
<path transform="matrix(0,-1.00002,-1.00006,-0,27.084847,5.756935)" stroke-width=".79701" stroke-linecap="butt" stroke-linejoin="round" fill="none" stroke="#000000" d="M1.0361 0C-.25902 .25902-1.55415 .77707-3.1083 1.68365-1.55415 .51805-1.55415-.51805-3.1083-1.68365-1.55415-.77707-.25902-.25902 1.0361 0Z"/>
<use data-text="S" xlink:href="#font_1_1" transform="matrix(9.963197,0,0,-9.962799,18.67434,7.725914)"/>
<path transform="matrix(1.00006,0,0,-1.00002,27.084847,103.53983)" stroke-width="1.19553" stroke-linecap="butt" stroke-miterlimit="10" stroke-linejoin="miter" fill="none" stroke="#00aeef" d="M49.60777-79.37244V79.37244"/>
<path transform="matrix(1.00006,0,0,-1.00002,27.084847,103.53983)" stroke-width=".3985" stroke-linecap="butt" stroke-miterlimit="10" stroke-linejoin="miter" fill="none" stroke="#000000" d="M49.60777 .99219V-.99205"/>
<path transform="matrix(1.00006,0,0,-1.00002,27.084847,103.53983)" d="M43.6301-11.59683H55.58544V-3.1838504H43.6301Z" fill="#ffffff"/>
<use data-text="1" xlink:href="#font_2_2" transform="matrix(9.963197,0,0,-9.962799,71.71352,114.141048)"/>
<use data-text="0" xlink:href="#font_2_1" transform="matrix(9.963197,0,0,-9.962799,76.695117,114.141048)"/>
<path transform="matrix(1.00006,0,0,-1.00002,27.084847,103.53983)" stroke-width="1.19553" stroke-linecap="butt" stroke-miterlimit="10" stroke-linejoin="miter" fill="none" stroke="#00aeef" d="M99.21555-79.37244V79.37244"/>
<path transform="matrix(1.00006,0,0,-1.00002,27.084847,103.53983)" stroke-width=".3985" stroke-linecap="butt" stroke-miterlimit="10" stroke-linejoin="miter" fill="none" stroke="#000000" d="M99.21555 .99219V-.99205"/>
<path transform="matrix(1.00006,0,0,-1.00002,27.084847,103.53983)" d="M93.23787-11.59683H105.19321V-3.1838504H93.23787Z" fill="#ffffff"/>
<use data-text="2" xlink:href="#font_2_3" transform="matrix(9.963197,0,0,-9.962799,121.3245,114.141048)"/>
<use data-text="0" xlink:href="#font_2_1" transform="matrix(9.963197,0,0,-9.962799,126.3061,114.141048)"/>
<path transform="matrix(1.00006,0,0,-1.00002,27.084847,103.53983)" stroke-width="1.19553" stroke-linecap="butt" stroke-miterlimit="10" stroke-linejoin="miter" fill="none" stroke="#00aeef" d="M148.82334-79.37244V79.37244"/>
<path transform="matrix(1.00006,0,0,-1.00002,27.084847,103.53983)" stroke-width=".3985" stroke-linecap="butt" stroke-miterlimit="10" stroke-linejoin="miter" fill="none" stroke="#000000" d="M148.82334 .99219V-.99205"/>
<path transform="matrix(1.00006,0,0,-1.00002,27.084847,103.53983)" d="M142.84566-11.59683H154.801V-3.1838504H142.84566Z" fill="#ffffff"/>
<use data-text="3" xlink:href="#font_2_4" transform="matrix(9.963197,0,0,-9.962799,170.93546,114.141048)"/>
<use data-text="0" xlink:href="#font_2_1" transform="matrix(9.963197,0,0,-9.962799,175.91706,114.141048)"/>
<path transform="matrix(1.00006,0,0,-1.00002,27.084847,103.53983)" stroke-width="1.19553" stroke-linecap="butt" stroke-miterlimit="10" stroke-linejoin="miter" fill="none" stroke="#00aeef" d="M198.4311-79.37244V79.37244"/>
<path transform="matrix(1.00006,0,0,-1.00002,27.084847,103.53983)" stroke-width=".3985" stroke-linecap="butt" stroke-miterlimit="10" stroke-linejoin="miter" fill="none" stroke="#000000" d="M198.4311 .99219V-.99205"/>
<path transform="matrix(1.00006,0,0,-1.00002,27.084847,103.53983)" d="M192.45343-11.59683H204.40877V-3.1838504H192.45343Z" fill="#ffffff"/>
<use data-text="4" xlink:href="#font_2_5" transform="matrix(9.963197,0,0,-9.962799,220.54645,114.141048)"/>
<use data-text="0" xlink:href="#font_2_1" transform="matrix(9.963197,0,0,-9.962799,225.52805,114.141048)"/>
<path transform="matrix(1.00006,0,0,-1.00002,27.084847,103.53983)" stroke-width="1.19553" stroke-linecap="butt" stroke-miterlimit="10" stroke-linejoin="miter" fill="none" stroke="#00aeef" d="M0-79.37244H198.4311"/>
<path transform="matrix(1.00006,0,0,-1.00002,27.084847,103.53983)" stroke-width=".3985" stroke-linecap="butt" stroke-miterlimit="10" stroke-linejoin="miter" fill="none" stroke="#000000" d="M.99219-79.37244H-.99205"/>
<path transform="matrix(1.00006,0,0,-1.00002,27.084847,103.53983)" d="M-27.86943-83.99405H-3.1838513V-74.75082H-27.86943Z" fill="#ffffff"/>
<use data-text="&#x2212;" xlink:href="#font_3_1" transform="matrix(9.963197,0,0,-9.962799,.2102356,185.70948)"/>
<use data-text="4" xlink:href="#font_2_5" transform="matrix(9.963197,0,0,-9.962799,7.9597017,185.70948)"/>
<use data-text="0" xlink:href="#font_2_1" transform="matrix(9.963197,0,0,-9.962799,12.941299,185.70948)"/>
<use data-text="0" xlink:href="#font_2_1" transform="matrix(9.963197,0,0,-9.962799,17.922898,185.70948)"/>
<path transform="matrix(1.00006,0,0,-1.00002,27.084847,103.53983)" stroke-width="1.19553" stroke-linecap="butt" stroke-miterlimit="10" stroke-linejoin="miter" fill="none" stroke="#00aeef" d="M0-39.68622H198.4311"/>
<path transform="matrix(1.00006,0,0,-1.00002,27.084847,103.53983)" stroke-width=".3985" stroke-linecap="butt" stroke-miterlimit="10" stroke-linejoin="miter" fill="none" stroke="#000000" d="M.99219-39.68622H-.99205"/>
<path transform="matrix(1.00006,0,0,-1.00002,27.084847,103.53983)" d="M-27.86943-44.30783H-3.1838513V-35.0646H-27.86943Z" fill="#ffffff"/>
<use data-text="&#x2212;" xlink:href="#font_3_1" transform="matrix(9.963197,0,0,-9.962799,.2102356,146.02169)"/>
<use data-text="2" xlink:href="#font_2_3" transform="matrix(9.963197,0,0,-9.962799,7.9597017,146.02169)"/>
<use data-text="0" xlink:href="#font_2_1" transform="matrix(9.963197,0,0,-9.962799,12.941299,146.02169)"/>
<use data-text="0" xlink:href="#font_2_1" transform="matrix(9.963197,0,0,-9.962799,17.922898,146.02169)"/>
<path transform="matrix(1.00006,0,0,-1.00002,27.084847,103.53983)" stroke-width="1.19553" stroke-linecap="butt" stroke-miterlimit="10" stroke-linejoin="miter" fill="none" stroke="#00aeef" d="M0 39.68622H198.4311"/>
<path transform="matrix(1.00006,0,0,-1.00002,27.084847,103.53983)" stroke-width=".3985" stroke-linecap="butt" stroke-miterlimit="10" stroke-linejoin="miter" fill="none" stroke="#000000" d="M.99219 39.68622H-.99205"/>
<path transform="matrix(1.00006,0,0,-1.00002,27.084847,103.53983)" d="M-20.12059 35.47972H-3.1838704V43.8927H-20.12059Z" fill="#ffffff"/>
<use data-text="2" xlink:href="#font_2_3" transform="matrix(9.963197,0,0,-9.962799,7.9597017,67.0631)"/>
<use data-text="0" xlink:href="#font_2_1" transform="matrix(9.963197,0,0,-9.962799,12.941299,67.0631)"/>
<use data-text="0" xlink:href="#font_2_1" transform="matrix(9.963197,0,0,-9.962799,17.922898,67.0631)"/>
<path transform="matrix(1.00006,0,0,-1.00002,27.084847,103.53983)" stroke-width="1.19553" stroke-linecap="butt" stroke-miterlimit="10" stroke-linejoin="miter" fill="none" stroke="#00aeef" d="M0 79.37244H198.4311"/>
<path transform="matrix(1.00006,0,0,-1.00002,27.084847,103.53983)" stroke-width=".3985" stroke-linecap="butt" stroke-miterlimit="10" stroke-linejoin="miter" fill="none" stroke="#000000" d="M.99219 79.37244H-.99205"/>
<path transform="matrix(1.00006,0,0,-1.00002,27.084847,103.53983)" d="M-20.12059 75.16594H-3.1838704V83.57892H-20.12059Z" fill="#ffffff"/>
<use data-text="4" xlink:href="#font_2_5" transform="matrix(9.963197,0,0,-9.962799,7.9597017,27.376305)"/>
<use data-text="0" xlink:href="#font_2_1" transform="matrix(9.963197,0,0,-9.962799,12.941299,27.376305)"/>
<use data-text="0" xlink:href="#font_2_1" transform="matrix(9.963197,0,0,-9.962799,17.922898,27.376305)"/>
</svg>
