<svg xmlns="http://www.w3.org/2000/svg" xmlns:xlink="http://www.w3.org/1999/xlink" version="1.1" width="184" height="208" viewBox="0 0 184 208">
<defs>
<path id="font_1_3" d="M.33399964 .30233766C.33999635 .32835389 .36299134 .42037965 .43299867 .42037965 .43798829 .42037965 .46199037 .42037965 .48298646 .40734864 .45498658 .402359 .43499757 .37734986 .43499757 .35334779 .43499757 .33735658 .44599916 .31835938 .47299195 .31835938 .49499513 .31835938 .5269928 .3363495 .5269928 .37635804 .5269928 .42837525 .46798707 .4423828 .43399049 .4423828 .37599183 .4423828 .34098817 .38935853 .32899476 .36634828 .3039856 .43237306 .25 .4423828 .22099304 .4423828 .116989139 .4423828 .05999756 .3133545 .05999756 .28834535 .05999756 .27833558 .069992069 .27833558 .07199097 .27833558 .07998657 .27833558 .08299255 .28033448 .084991458 .28933717 .11898804 .39535523 .18499756 .42037965 .21899414 .42037965 .23799134 .42037965 .272995 .4113617 .272995 .35334779 .272995 .32235719 .2559967 .25532533 .21899414 .11528015 .20298767 .053268434 .16799927 .011245728 .12399292 .011245728 .117996219 .011245728 .09498596 .011245728 .07398987 .024276734 .09899902 .029266358 .12098694 .05027771 .12098694 .07827759 .12098694 .105270389 .09899902 .11328125 .083999637 .11328125 .053985597 .11328125 .0289917 .08728027 .0289917 .055267335 .0289917 .009246826 .07899475-.0107421879 .12298584-.0107421879 .18899536-.0107421879 .22499085 .059280397 .22799683 .0652771 .23999024 .028274537 .27598573-.0107421879 .33599855-.0107421879 .43899537-.0107421879 .49598695 .118270877 .49598695 .14328003 .49598695 .1532898 .4869995 .1532898 .48399354 .1532898 .47499085 .1532898 .47299195 .14929199 .47099305 .14228821 .43798829 .03527832 .36999513 .011245728 .33799745 .011245728 .29899598 .011245728 .2829895 .043273927 .2829895 .07727051 .2829895 .09927368 .2889862 .121276859 .2999878 .16529846L.33399964 .30233766Z"/>
<path id="font_1_2" d="M.30299378 .3157959H.47299195C.61499026 .3157959 .7539978 .41973878 .7539978 .53167727 .7539978 .6086273 .6879883 .6826172 .5569916 .6826172H.23298645C.21398926 .6826172 .20298767 .6826172 .20298767 .66360476 .20298767 .6516113 .21199036 .6516113 .23199463 .6516113 .24499512 .6516113 .2630005 .65060427 .2749939 .6496124 .29100038 .6476135 .29699708 .64460757 .29699708 .6336212 .29699708 .6296234 .29599 .62661746 .29299928 .614624L.15899658 .07795715C.14898682 .038986207 .14698792 .0309906 .067993167 .0309906 .050994874 .0309906 .039993287 .0309906 .039993287 .011993408 .039993287 0 .051986696 0 .054992677 0 .08299255 0 .1539917 .0029907227 .18199158 .0029907227 .20298767 .0029907227 .22499085 .0019989014 .24598694 .0019989014 .2679901 .0019989014 .2899933 0 .31098939 0 .31799317 0 .33099366 0 .33099366 .019989014 .33099366 .0309906 .32199098 .0309906 .30299378 .0309906 .2659912 .0309906 .23799134 .0309906 .23799134 .048980714 .23799134 .054977418 .23999024 .05996704 .24099732 .065963748L.30299378 .3157959M.375 .6136322C.38398744 .64860537 .38598634 .6516113 .42900086 .6516113H.5249939C.60798647 .6516113 .6609955 .62461856 .6609955 .55566409 .6609955 .5166931 .6409912 .43074037 .60198977 .39476014 .5519867 .34977723 .49198915 .34179688 .44799806 .34179688H.30699159L.375 .6136322Z"/>
<path id="font_2_2" d="M.2939911 .64004519C.2939911 .66400149 .2939911 .6660156 .2709961 .6660156 .20899964 .60227969 .12098694 .60227969 .08898926 .60227969V.57128909C.10899353 .57128909 .16799927 .57128909 .21998596 .5972748V.07902527C.21998596 .042999269 .21699524 .0309906 .1269989 .0309906H.09498596V0C.12998963 .0029907227 .21699524 .0029907227 .25698854 .0029907227 .29699708 .0029907227 .38398744 .0029907227 .4189911 0V.0309906H.3869934C.29699708 .0309906 .2939911 .041992189 .2939911 .07902527V.64004519Z"/>
<path id="font_2_1" d="M.45999146 .31976319C.45999146 .39982606 .45498658 .47988893 .41999818 .5539398 .37399293 .65000918 .2919922 .6660156 .25 .6660156 .18998719 .6660156 .116989139 .64001467 .07598877 .54693606 .04399109 .47789 .038986207 .39982606 .038986207 .31976319 .038986207 .24472046 .042999269 .15464783 .083999637 .07859802 .1269989-.0024719239 .19999695-.022460938 .24899292-.022460938 .30299378-.022460938 .3789978-.0014648438 .4229889 .09359741 .45498658 .16265869 .45999146 .2407074 .45999146 .31976319M.24899292-.00047302247C.20999146-.00047302247 .15098572 .024551392 .1329956 .12062073 .12199402 .18066406 .12199402 .2727356 .12199402 .3317871 .12199402 .39582826 .12199402 .46188355 .12998963 .5159149 .14898682 .63500979 .22399903 .64401248 .24899292 .64401248 .28199769 .64401248 .34799195 .6259918 .36698915 .52693179 .3769989 .47088624 .3769989 .39482118 .3769989 .3317871 .3769989 .25672914 .3769989 .18867493 .3659973 .12461853 .35099793 .029556275 .2939911-.00047302247 .24899292-.00047302247Z"/>
<path id="font_2_3" d="M.1269989 .07699585 .23298645 .18003845C.3889923 .31811524 .44898988 .3721466 .44898988 .47216798 .44898988 .5860901 .35899354 .6660156 .23699951 .6660156 .12399292 .6660156 .049987794 .57411196 .049987794 .48516847 .049987794 .4291687 .099990848 .4291687 .102996829 .4291687 .11999512 .4291687 .15499878 .44117738 .15499878 .48217774 .15499878 .5081787 .13699341 .5341797 .101989749 .5341797 .09399414 .5341797 .09199524 .5341797 .08898926 .5331726 .11199951 .59806826 .1659851 .63500979 .22399903 .63500979 .31498719 .63500979 .35798646 .5541382 .35798646 .47216798 .35798646 .39215089 .30799867 .31311036 .25299073 .25108338L.06098938 .036987306C.049987794 .025985718 .049987794 .023986817 .049987794 0H.42099L.44898988 .17404175H.42399598C.4189911 .14402771 .4119873 .1000061 .4019928 .084991458 .394989 .07699585 .32899476 .07699585 .30699159 .07699585H.1269989Z"/>
<path id="font_2_4" d="M.2899933 .35191346C.37199403 .37893678 .42999269 .4490509 .42999269 .52809146 .42999269 .6100464 .34199525 .6660156 .24598694 .6660156 .14498902 .6660156 .068984989 .60606387 .068984989 .53009036 .068984989 .49710084 .09098816 .47808839 .11999512 .47808839 .15098572 .47808839 .17098999 .50009158 .17098999 .5290985 .17098999 .57910159 .12399292 .57910159 .10899353 .57910159 .13999939 .62802127 .20599365 .64100649 .24198914 .64100649 .2829895 .64100649 .33799745 .6190338 .33799745 .5290985 .33799745 .51708987 .33599855 .45906068 .30999757 .4149933 .27999879 .36691285 .24598694 .36390687 .22099304 .36291505 .21299744 .36190797 .18899536 .35990907 .18199158 .35990907 .17399597 .35890199 .16699219 .35791017 .16699219 .3479004 .16699219 .33691407 .17399597 .33691407 .19099427 .33691407H.23498535C.31698609 .33691407 .35398866 .2686615 .35398866 .17037964 .35398866 .034469606 .2849884 .0055389406 .24099732 .0055389406 .19799805 .0055389406 .12298584 .022491456 .08799744 .08137512 .12298584 .07637024 .1539917 .09837341 .1539917 .1363678 .1539917 .17237854 .1269989 .19238281 .09799194 .19238281 .07398987 .19238281 .041992189 .17837525 .041992189 .1343689 .041992189 .043441774 .1349945-.022460938 .24398804-.022460938 .3659973-.022460938 .45700074 .06838989 .45700074 .17037964 .45700074 .252594 .3939972 .33088685 .2899933 .35191346Z"/>
<path id="font_1_1" d="M.19198609 .052993776C.19198609 .08198547 .16799927 .10598755 .13899231 .10598755 .10998535 .10598755 .085998538 .08198547 .085998538 .052993776 .085998538 .023986817 .10998535 0 .13899231 0 .16799927 0 .19198609 .023986817 .19198609 .052993776Z"/>
<path id="font_2_5" d="M.2939911 .16503906V.07800293C.2939911 .041992189 .2919922 .0309906 .21798706 .0309906H.19699097V0C.23799134 .0029907227 .2899933 .0029907227 .33198548 .0029907227 .37399293 .0029907227 .4269867 .0029907227 .46798707 0V.0309906H.44699098C.37298585 .0309906 .37098695 .041992189 .37098695 .07800293V.16503906H.47099305V.19602967H.37098695V.65075686C.37098695 .67074587 .37098695 .6767578 .35499574 .6767578 .34599305 .6767578 .34298707 .6767578 .33499146 .66474917L.027999878 .19602967V.16503906H.2939911M.2999878 .19602967H.055999757L.2999878 .5688019V.19602967Z"/>
<path id="font_2_6" d="M.13198853 .327713V.35173036C.13198853 .6047821 .2559967 .64100649 .30699159 .64100649 .33099366 .64100649 .37298585 .634964 .394989 .6007538 .37998963 .6007538 .33999635 .6007538 .33999635 .5557556 .33999635 .524765 .3639984 .5097656 .38598634 .5097656 .4019928 .5097656 .43199159 .51875308 .43199159 .5577545 .43199159 .6178589 .3880005 .6660156 .30499269 .6660156 .1769867 .6660156 .041992189 .5367584 .041992189 .31570436 .041992189 .048553468 .1579895-.022460938 .25099183-.022460938 .3619995-.022460938 .45700074 .07156372 .45700074 .2036438 .45700074 .33070375 .36799623 .4267578 .25698854 .4267578 .18899536 .4267578 .1519928 .37573243 .13198853 .327713M.25099183 .0055389406C.18798828 .0055389406 .1579895 .06556702 .1519928 .080566409 .13398743 .127594 .13398743 .2076416 .13398743 .22564698 .13398743 .30369569 .1659851 .40374757 .2559967 .40374757 .27198792 .40374757 .31799317 .40374757 .34899903 .34172059 .36698915 .30470277 .36698915 .2536621 .36698915 .20463562 .36698915 .15661621 .36698915 .10658264 .34999085 .0705719 .31999208 .010528564 .27398683 .0055389406 .25099183 .0055389406Z"/>
<path id="font_2_7" d="M.16299439 .4569702C.116989139 .486969 .11299133 .52098086 .11299133 .5379791 .11299133 .598999 .17799378 .64100649 .24899292 .64100649 .32199098 .64100649 .38598634 .58898928 .38598634 .51698306 .38598634 .45996095 .34700013 .4119568 .2869873 .37695313L.16299439 .4569702M.30899049 .36193849C.3809967 .3989563 .42999269 .45095826 .42999269 .51698306 .42999269 .6090088 .34098817 .6660156 .25 .6660156 .1499939 .6660156 .068984989 .59199526 .068984989 .49897767 .068984989 .4809723 .070999149 .43595887 .11299133 .38894654 .12399292 .37695313 .16099549 .35194398 .18598938 .33494569 .12799073 .30592347 .041992189 .24984741 .041992189 .15072632 .041992189 .04458618 .14399719-.022460938 .24899292-.022460938 .3619995-.022460938 .45700074 .06060791 .45700074 .16773987 .45700074 .20379639 .44599916 .24885559 .4079895 .2909088 .3889923 .31193543 .37298585 .3219452 .30899049 .36193849M.20899964 .3199463 .33198548 .24183655C.3600006 .2228241 .40699769 .19277954 .40699769 .13169861 .40699769 .05760193 .33198548 .0055389406 .25 .0055389406 .1639862 .0055389406 .09199524 .067611698 .09199524 .15072632 .09199524 .20880127 .12399292 .27288819 .20899964 .3199463Z"/>
</defs>
<path transform="matrix(1.00006,0,0,-1,29.047722,195.663)" stroke-width=".3985" stroke-linecap="butt" stroke-miterlimit="10" stroke-linejoin="miter" fill="none" stroke="#00aeef" d="M0 0H136.06606M0 7.08669H136.06606M0 14.17339H136.06606M0 21.2601H136.06606M0 28.3468H136.06606M0 35.43349H136.06606M0 42.5202H136.06606M0 49.6069H136.06606M0 56.69362H136.06606M0 63.7803H136.06606M0 70.867H136.06606M0 77.95372H136.06606M0 85.04042H136.06606M0 92.1271H136.06606M0 99.21382H136.06606M0 106.30052H136.06606M0 113.38724H136.06606M0 120.47392H136.06606M0 127.56062H136.06606M0 134.64734H136.06606M0 141.73404H136.06606M0 148.82074H136.06606M0 155.90744H136.06606M0 162.99414H136.06606M0 170.08086H136.06606M0 177.16507H136.06606M0 0V177.16754M8.50412 0V177.16754M17.00824 0V177.16754M25.51237 0V177.16754M34.0165 0V177.16754M42.52063 0V177.16754M51.02477 0V177.16754M59.52888 0V177.16754M68.03302 0V177.16754M76.53716 0V177.16754M85.04128 0V177.16754M93.54541 0V177.16754M102.04953 0V177.16754M110.55368 0V177.16754M119.0578 0V177.16754M127.56192 0V177.16754M136.06307 0V177.16754M136.06606 177.16754"/>
<path transform="matrix(1.00006,0,0,-1,29.047722,195.663)" stroke-width=".79701" stroke-linecap="butt" stroke-miterlimit="10" stroke-linejoin="miter" fill="none" stroke="#000000" d="M0 0H143.13558"/>
<path transform="matrix(1.00006,0,0,-1,172.19187,195.663)" d="M1.0361 0C-.25902 .25902-1.55415 .77707-3.1083 1.68365-1.55415 .51805-1.55415-.51805-3.1083-1.68365-1.55415-.77707-.25902-.25902 1.0361 0Z"/>
<path transform="matrix(1.00006,0,0,-1,172.19187,195.663)" stroke-width=".79701" stroke-linecap="butt" stroke-linejoin="round" fill="none" stroke="#000000" d="M1.0361 0C-.25902 .25902-1.55415 .77707-3.1083 1.68365-1.55415 .51805-1.55415-.51805-3.1083-1.68365-1.55415-.77707-.25902-.25902 1.0361 0Z"/>
<use data-text="x" xlink:href="#font_1_3" transform="matrix(9.963197,0,0,-9.9626,177.34561,197.808)"/>
<path transform="matrix(1.00006,0,0,-1,29.047722,195.663)" stroke-width=".79701" stroke-linecap="butt" stroke-miterlimit="10" stroke-linejoin="miter" fill="none" stroke="#000000" d="M0 0V189.90634"/>
<path transform="matrix(0,-1,-1.00006,-0,29.047722,5.756653)" d="M1.0361 0C-.25902 .25902-1.55415 .77707-3.1083 1.68365-1.55415 .51805-1.55415-.51805-3.1083-1.68365-1.55415-.77707-.25902-.25902 1.0361 0Z"/>
<path transform="matrix(0,-1,-1.00006,-0,29.047722,5.756653)" stroke-width=".79701" stroke-linecap="butt" stroke-linejoin="round" fill="none" stroke="#000000" d="M1.0361 0C-.25902 .25902-1.55415 .77707-3.1083 1.68365-1.55415 .51805-1.55415-.51805-3.1083-1.68365-1.55415-.77707-.25902-.25902 1.0361 0Z"/>
<use data-text="P" xlink:href="#font_1_2" transform="matrix(9.963197,0,0,-9.9626,19.541153,7.725998)"/>
<path transform="matrix(1.00006,0,0,-1,29.047722,195.663)" stroke-width=".3985" stroke-linecap="butt" stroke-miterlimit="10" stroke-linejoin="miter" fill="none" stroke="#000000" d="M42.52063 1.06294V-1.06305"/>
<path transform="matrix(1.00006,0,0,-1,29.047722,195.663)" d="M36.54295-11.66785H48.49829V-3.2548695H36.54295Z" fill="#ffffff"/>
<use data-text="1" xlink:href="#font_2_2" transform="matrix(9.963197,0,0,-9.9626,66.588977,206.33499)"/>
<use data-text="0" xlink:href="#font_2_1" transform="matrix(9.963197,0,0,-9.9626,71.57057,206.33499)"/>
<path transform="matrix(1.00006,0,0,-1,29.047722,195.663)" stroke-width=".3985" stroke-linecap="butt" stroke-miterlimit="10" stroke-linejoin="miter" fill="none" stroke="#000000" d="M85.04128 1.06294V-1.06305"/>
<path transform="matrix(1.00006,0,0,-1,29.047722,195.663)" d="M79.0636-11.66785H91.018939V-3.2548695H79.0636Z" fill="#ffffff"/>
<use data-text="2" xlink:href="#font_2_3" transform="matrix(9.963197,0,0,-9.9626,109.11252,206.33499)"/>
<use data-text="0" xlink:href="#font_2_1" transform="matrix(9.963197,0,0,-9.9626,114.09412,206.33499)"/>
<path transform="matrix(1.00006,0,0,-1,29.047722,195.663)" stroke-width=".3985" stroke-linecap="butt" stroke-miterlimit="10" stroke-linejoin="miter" fill="none" stroke="#000000" d="M127.56192 1.06294V-1.06305"/>
<path transform="matrix(1.00006,0,0,-1,29.047722,195.663)" d="M121.58424-11.66785H133.53958V-3.2548695H121.58424Z" fill="#ffffff"/>
<use data-text="3" xlink:href="#font_2_4" transform="matrix(9.963197,0,0,-9.9626,151.63608,206.33499)"/>
<use data-text="0" xlink:href="#font_2_1" transform="matrix(9.963197,0,0,-9.9626,156.61768,206.33499)"/>
<path transform="matrix(1.00006,0,0,-1,29.047722,195.663)" stroke-width=".3985" stroke-linecap="butt" stroke-miterlimit="10" stroke-linejoin="miter" fill="none" stroke="#000000" d="M1.27554 35.43349H-1.27568"/>
<path transform="matrix(1.00006,0,0,-1,29.047722,195.663)" d="M-24.16795 31.227H-4.463749V39.63998H-24.16795Z" fill="#ffffff"/>
<use data-text="2" xlink:href="#font_2_3" transform="matrix(9.963197,0,0,-9.9626,5.8743288,163.44)"/>
<use data-text="." xlink:href="#font_1_1" transform="matrix(9.963197,0,0,-9.9626,10.855629,163.44)"/>
<use data-text="0" xlink:href="#font_2_1" transform="matrix(9.963197,0,0,-9.9626,13.622795,163.44)"/>
<use data-text="0" xlink:href="#font_2_1" transform="matrix(9.963197,0,0,-9.9626,18.604393,163.44)"/>
<path transform="matrix(1.00006,0,0,-1,29.047722,195.663)" stroke-width=".3985" stroke-linecap="butt" stroke-miterlimit="10" stroke-linejoin="miter" fill="none" stroke="#000000" d="M1.27554 70.867H-1.27568"/>
<path transform="matrix(1.00006,0,0,-1,29.047722,195.663)" d="M-24.16795 66.66052H-4.463749V75.0735H-24.16795Z" fill="#ffffff"/>
<use data-text="4" xlink:href="#font_2_5" transform="matrix(9.963197,0,0,-9.9626,5.8743288,128.006)"/>
<use data-text="." xlink:href="#font_1_1" transform="matrix(9.963197,0,0,-9.9626,10.855629,128.006)"/>
<use data-text="0" xlink:href="#font_2_1" transform="matrix(9.963197,0,0,-9.9626,13.622795,128.006)"/>
<use data-text="0" xlink:href="#font_2_1" transform="matrix(9.963197,0,0,-9.9626,18.604393,128.006)"/>
<path transform="matrix(1.00006,0,0,-1,29.047722,195.663)" stroke-width=".3985" stroke-linecap="butt" stroke-miterlimit="10" stroke-linejoin="miter" fill="none" stroke="#000000" d="M1.27554 106.30052H-1.27568"/>
<path transform="matrix(1.00006,0,0,-1,29.047722,195.663)" d="M-24.16795 102.09402H-4.463749V110.506999H-24.16795Z" fill="#ffffff"/>
<use data-text="6" xlink:href="#font_2_6" transform="matrix(9.963197,0,0,-9.9626,5.8743288,92.573)"/>
<use data-text="." xlink:href="#font_1_1" transform="matrix(9.963197,0,0,-9.9626,10.855629,92.573)"/>
<use data-text="0" xlink:href="#font_2_1" transform="matrix(9.963197,0,0,-9.9626,13.622795,92.573)"/>
<use data-text="0" xlink:href="#font_2_1" transform="matrix(9.963197,0,0,-9.9626,18.604393,92.573)"/>
<path transform="matrix(1.00006,0,0,-1,29.047722,195.663)" stroke-width=".3985" stroke-linecap="butt" stroke-miterlimit="10" stroke-linejoin="miter" fill="none" stroke="#000000" d="M1.27554 141.73404H-1.27568"/>
<path transform="matrix(1.00006,0,0,-1,29.047722,195.663)" d="M-24.16795 137.52754H-4.463749V145.94052H-24.16795Z" fill="#ffffff"/>
<use data-text="8" xlink:href="#font_2_7" transform="matrix(9.963197,0,0,-9.9626,5.8743288,57.138994)"/>
<use data-text="." xlink:href="#font_1_1" transform="matrix(9.963197,0,0,-9.9626,10.855629,57.138994)"/>
<use data-text="0" xlink:href="#font_2_1" transform="matrix(9.963197,0,0,-9.9626,13.622795,57.138994)"/>
<use data-text="0" xlink:href="#font_2_1" transform="matrix(9.963197,0,0,-9.9626,18.604393,57.138994)"/>
<path transform="matrix(1.00006,0,0,-1,29.047722,195.663)" stroke-width=".3985" stroke-linecap="butt" stroke-miterlimit="10" stroke-linejoin="miter" fill="none" stroke="#000000" d="M1.27554 177.16754H-1.27568"/>
<path transform="matrix(1.00006,0,0,-1,29.047722,195.663)" d="M-29.14934 172.96105H-4.4637606V181.37403H-29.14934Z" fill="#ffffff"/>
<use data-text="1" xlink:href="#font_2_2" transform="matrix(9.963197,0,0,-9.9626,.8930359,21.705994)"/>
<use data-text="0" xlink:href="#font_2_1" transform="matrix(9.963197,0,0,-9.9626,5.874634,21.705994)"/>
<use data-text="." xlink:href="#font_1_1" transform="matrix(9.963197,0,0,-9.9626,10.855629,21.705994)"/>
<use data-text="0" xlink:href="#font_2_1" transform="matrix(9.963197,0,0,-9.9626,13.623795,21.705994)"/>
<use data-text="0" xlink:href="#font_2_1" transform="matrix(9.963197,0,0,-9.9626,18.605393,21.705994)"/>
<path transform="matrix(1.00006,0,0,-1,29.047722,195.663)" stroke-width=".79701" stroke-linecap="butt" stroke-miterlimit="10" stroke-linejoin="miter" fill="none" stroke="#ff0000" d="M0 0 136.06606 170.08086"/>
<path transform="matrix(1.00006,0,0,-1,29.047722,195.663)" d="M35.88739 42.5202C35.88739 43.38126 35.04977 44.07927 34.0165 44.07927 32.98323 44.07927 32.14561 43.38126 32.14561 42.5202 32.14561 41.65915 32.98323 40.96114 34.0165 40.96114 35.04977 40.96114 35.88739 41.65915 35.88739 42.5202ZM34.0165 42.5202"/>
<path transform="matrix(1.00006,0,0,-1,29.047722,195.663)" stroke-width=".3985" stroke-linecap="butt" stroke-miterlimit="10" stroke-linejoin="miter" fill="none" stroke="#000000" d="M35.88739 42.5202C35.88739 43.38126 35.04977 44.07927 34.0165 44.07927 32.98323 44.07927 32.14561 43.38126 32.14561 42.5202 32.14561 41.65915 32.98323 40.96114 34.0165 40.96114 35.04977 40.96114 35.88739 41.65915 35.88739 42.5202ZM34.0165 42.5202"/>
<path transform="matrix(1.00006,0,0,-1,29.047722,195.663)" d="M69.90392 85.04042C69.90392 85.90147 69.0663 86.59949 68.03302 86.59949 66.99974 86.59949 66.16214 85.90147 66.16214 85.04042 66.16214 84.17937 66.99974 83.48135 68.03302 83.48135 69.0663 83.48135 69.90392 84.17937 69.90392 85.04042ZM68.03302 85.04042"/>
<path transform="matrix(1.00006,0,0,-1,29.047722,195.663)" stroke-width=".3985" stroke-linecap="butt" stroke-miterlimit="10" stroke-linejoin="miter" fill="none" stroke="#000000" d="M69.90392 85.04042C69.90392 85.90147 69.0663 86.59949 68.03302 86.59949 66.99974 86.59949 66.16214 85.90147 66.16214 85.04042 66.16214 84.17937 66.99974 83.48135 68.03302 83.48135 69.0663 83.48135 69.90392 84.17937 69.90392 85.04042ZM68.03302 85.04042"/>
<path transform="matrix(1.00006,0,0,-1,29.047722,195.663)" stroke-width=".79701" stroke-linecap="butt" stroke-miterlimit="10" stroke-linejoin="miter" fill="none" stroke="#000000" d="M8.50412 1.4173V-1.4173"/>
<path transform="matrix(1.00006,0,0,-1,29.047722,195.663)" stroke-width=".79701" stroke-linecap="butt" stroke-miterlimit="10" stroke-linejoin="miter" fill="none" stroke="#000000" d="M17.00824 1.4173V-1.4173"/>
<path transform="matrix(1.00006,0,0,-1,29.047722,195.663)" stroke-width=".79701" stroke-linecap="butt" stroke-miterlimit="10" stroke-linejoin="miter" fill="none" stroke="#000000" d="M25.51237 1.4173V-1.4173"/>
<path transform="matrix(1.00006,0,0,-1,29.047722,195.663)" stroke-width=".79701" stroke-linecap="butt" stroke-miterlimit="10" stroke-linejoin="miter" fill="none" stroke="#000000" d="M34.0165 1.4173V-1.4173"/>
<path transform="matrix(1.00006,0,0,-1,29.047722,195.663)" stroke-width=".79701" stroke-linecap="butt" stroke-miterlimit="10" stroke-linejoin="miter" fill="none" stroke="#000000" d="M42.52063 1.4173V-1.4173"/>
<path transform="matrix(1.00006,0,0,-1,29.047722,195.663)" stroke-width=".79701" stroke-linecap="butt" stroke-miterlimit="10" stroke-linejoin="miter" fill="none" stroke="#000000" d="M51.02477 1.4173V-1.4173"/>
<path transform="matrix(1.00006,0,0,-1,29.047722,195.663)" stroke-width=".79701" stroke-linecap="butt" stroke-miterlimit="10" stroke-linejoin="miter" fill="none" stroke="#000000" d="M59.52888 1.4173V-1.4173"/>
<path transform="matrix(1.00006,0,0,-1,29.047722,195.663)" stroke-width=".79701" stroke-linecap="butt" stroke-miterlimit="10" stroke-linejoin="miter" fill="none" stroke="#000000" d="M68.03302 1.4173V-1.4173"/>
<path transform="matrix(1.00006,0,0,-1,29.047722,195.663)" stroke-width=".79701" stroke-linecap="butt" stroke-miterlimit="10" stroke-linejoin="miter" fill="none" stroke="#000000" d="M76.53716 1.4173V-1.4173"/>
<path transform="matrix(1.00006,0,0,-1,29.047722,195.663)" stroke-width=".79701" stroke-linecap="butt" stroke-miterlimit="10" stroke-linejoin="miter" fill="none" stroke="#000000" d="M85.04128 1.4173V-1.4173"/>
<path transform="matrix(1.00006,0,0,-1,29.047722,195.663)" stroke-width=".79701" stroke-linecap="butt" stroke-miterlimit="10" stroke-linejoin="miter" fill="none" stroke="#000000" d="M93.54541 1.4173V-1.4173"/>
<path transform="matrix(1.00006,0,0,-1,29.047722,195.663)" stroke-width=".79701" stroke-linecap="butt" stroke-miterlimit="10" stroke-linejoin="miter" fill="none" stroke="#000000" d="M102.04953 1.4173V-1.4173"/>
<path transform="matrix(1.00006,0,0,-1,29.047722,195.663)" stroke-width=".79701" stroke-linecap="butt" stroke-miterlimit="10" stroke-linejoin="miter" fill="none" stroke="#000000" d="M110.55368 1.4173V-1.4173"/>
<path transform="matrix(1.00006,0,0,-1,29.047722,195.663)" stroke-width=".79701" stroke-linecap="butt" stroke-miterlimit="10" stroke-linejoin="miter" fill="none" stroke="#000000" d="M119.0578 1.4173V-1.4173"/>
<path transform="matrix(1.00006,0,0,-1,29.047722,195.663)" stroke-width=".79701" stroke-linecap="butt" stroke-miterlimit="10" stroke-linejoin="miter" fill="none" stroke="#000000" d="M127.56192 1.4173V-1.4173"/>
<path transform="matrix(1.00006,0,0,-1,29.047722,195.663)" stroke-width=".79701" stroke-linecap="butt" stroke-miterlimit="10" stroke-linejoin="miter" fill="none" stroke="#000000" d="M136.06606 1.4173V-1.4173"/>
<path transform="matrix(1.00006,0,0,-1,29.047722,195.663)" stroke-width=".79701" stroke-linecap="butt" stroke-miterlimit="10" stroke-linejoin="miter" fill="none" stroke="#000000" d="M1.70079 7.08669H-1.70079"/>
<path transform="matrix(1.00006,0,0,-1,29.047722,195.663)" stroke-width=".79701" stroke-linecap="butt" stroke-miterlimit="10" stroke-linejoin="miter" fill="none" stroke="#000000" d="M1.70079 14.17339H-1.70079"/>
<path transform="matrix(1.00006,0,0,-1,29.047722,195.663)" stroke-width=".79701" stroke-linecap="butt" stroke-miterlimit="10" stroke-linejoin="miter" fill="none" stroke="#000000" d="M1.70079 21.2601H-1.70079"/>
<path transform="matrix(1.00006,0,0,-1,29.047722,195.663)" stroke-width=".79701" stroke-linecap="butt" stroke-miterlimit="10" stroke-linejoin="miter" fill="none" stroke="#000000" d="M1.70079 28.3468H-1.70079"/>
<path transform="matrix(1.00006,0,0,-1,29.047722,195.663)" stroke-width=".79701" stroke-linecap="butt" stroke-miterlimit="10" stroke-linejoin="miter" fill="none" stroke="#000000" d="M1.70079 35.43349H-1.70079"/>
<path transform="matrix(1.00006,0,0,-1,29.047722,195.663)" stroke-width=".79701" stroke-linecap="butt" stroke-miterlimit="10" stroke-linejoin="miter" fill="none" stroke="#000000" d="M1.70079 42.5202H-1.70079"/>
<path transform="matrix(1.00006,0,0,-1,29.047722,195.663)" stroke-width=".79701" stroke-linecap="butt" stroke-miterlimit="10" stroke-linejoin="miter" fill="none" stroke="#000000" d="M1.70079 49.6069H-1.70079"/>
<path transform="matrix(1.00006,0,0,-1,29.047722,195.663)" stroke-width=".79701" stroke-linecap="butt" stroke-miterlimit="10" stroke-linejoin="miter" fill="none" stroke="#000000" d="M1.70079 56.69362H-1.70079"/>
<path transform="matrix(1.00006,0,0,-1,29.047722,195.663)" stroke-width=".79701" stroke-linecap="butt" stroke-miterlimit="10" stroke-linejoin="miter" fill="none" stroke="#000000" d="M1.70079 63.7803H-1.70079"/>
<path transform="matrix(1.00006,0,0,-1,29.047722,195.663)" stroke-width=".79701" stroke-linecap="butt" stroke-miterlimit="10" stroke-linejoin="miter" fill="none" stroke="#000000" d="M1.70079 70.867H-1.70079"/>
<path transform="matrix(1.00006,0,0,-1,29.047722,195.663)" stroke-width=".79701" stroke-linecap="butt" stroke-miterlimit="10" stroke-linejoin="miter" fill="none" stroke="#000000" d="M1.70079 77.95372H-1.70079"/>
<path transform="matrix(1.00006,0,0,-1,29.047722,195.663)" stroke-width=".79701" stroke-linecap="butt" stroke-miterlimit="10" stroke-linejoin="miter" fill="none" stroke="#000000" d="M1.70079 85.04042H-1.70079"/>
<path transform="matrix(1.00006,0,0,-1,29.047722,195.663)" stroke-width=".79701" stroke-linecap="butt" stroke-miterlimit="10" stroke-linejoin="miter" fill="none" stroke="#000000" d="M1.70079 92.1271H-1.70079"/>
<path transform="matrix(1.00006,0,0,-1,29.047722,195.663)" stroke-width=".79701" stroke-linecap="butt" stroke-miterlimit="10" stroke-linejoin="miter" fill="none" stroke="#000000" d="M1.70079 99.21382H-1.70079"/>
<path transform="matrix(1.00006,0,0,-1,29.047722,195.663)" stroke-width=".79701" stroke-linecap="butt" stroke-miterlimit="10" stroke-linejoin="miter" fill="none" stroke="#000000" d="M1.70079 106.30052H-1.70079"/>
<path transform="matrix(1.00006,0,0,-1,29.047722,195.663)" stroke-width=".79701" stroke-linecap="butt" stroke-miterlimit="10" stroke-linejoin="miter" fill="none" stroke="#000000" d="M1.70079 113.38724H-1.70079"/>
<path transform="matrix(1.00006,0,0,-1,29.047722,195.663)" stroke-width=".79701" stroke-linecap="butt" stroke-miterlimit="10" stroke-linejoin="miter" fill="none" stroke="#000000" d="M1.70079 120.47392H-1.70079"/>
<path transform="matrix(1.00006,0,0,-1,29.047722,195.663)" stroke-width=".79701" stroke-linecap="butt" stroke-miterlimit="10" stroke-linejoin="miter" fill="none" stroke="#000000" d="M1.70079 127.56062H-1.70079"/>
<path transform="matrix(1.00006,0,0,-1,29.047722,195.663)" stroke-width=".79701" stroke-linecap="butt" stroke-miterlimit="10" stroke-linejoin="miter" fill="none" stroke="#000000" d="M1.70079 134.64734H-1.70079"/>
<path transform="matrix(1.00006,0,0,-1,29.047722,195.663)" stroke-width=".79701" stroke-linecap="butt" stroke-miterlimit="10" stroke-linejoin="miter" fill="none" stroke="#000000" d="M1.70079 141.73404H-1.70079"/>
<path transform="matrix(1.00006,0,0,-1,29.047722,195.663)" stroke-width=".79701" stroke-linecap="butt" stroke-miterlimit="10" stroke-linejoin="miter" fill="none" stroke="#000000" d="M1.70079 148.82074H-1.70079"/>
<path transform="matrix(1.00006,0,0,-1,29.047722,195.663)" stroke-width=".79701" stroke-linecap="butt" stroke-miterlimit="10" stroke-linejoin="miter" fill="none" stroke="#000000" d="M1.70079 155.90744H-1.70079"/>
<path transform="matrix(1.00006,0,0,-1,29.047722,195.663)" stroke-width=".79701" stroke-linecap="butt" stroke-miterlimit="10" stroke-linejoin="miter" fill="none" stroke="#000000" d="M1.70079 162.99414H-1.70079"/>
<path transform="matrix(1.00006,0,0,-1,29.047722,195.663)" stroke-width=".79701" stroke-linecap="butt" stroke-miterlimit="10" stroke-linejoin="miter" fill="none" stroke="#000000" d="M1.70079 170.08086H-1.70079"/>
<path transform="matrix(1.00006,0,0,-1,29.047722,195.663)" stroke-width=".79701" stroke-linecap="butt" stroke-miterlimit="10" stroke-linejoin="miter" fill="none" stroke="#000000" d="M1.70079 177.16754H-1.70079"/>
</svg>
