<svg xmlns="http://www.w3.org/2000/svg" xmlns:xlink="http://www.w3.org/1999/xlink" version="1.1" width="168" height="163" viewBox="0 0 168 163">
<defs>
<path id="font_1_1" d="M.33399964 .30233766C.33999635 .32835389 .36299134 .42037965 .43299867 .42037965 .43798829 .42037965 .46199037 .42037965 .48298646 .40734864 .45498658 .402359 .43499757 .37734986 .43499757 .35334779 .43499757 .33735658 .44599916 .31835938 .47299195 .31835938 .49499513 .31835938 .5269928 .3363495 .5269928 .37635804 .5269928 .42837525 .46798707 .4423828 .43399049 .4423828 .37599183 .4423828 .34098817 .38935853 .32899476 .36634828 .3039856 .43237306 .25 .4423828 .22099304 .4423828 .116989139 .4423828 .05999756 .3133545 .05999756 .28834535 .05999756 .27833558 .069992069 .27833558 .07199097 .27833558 .07998657 .27833558 .08299255 .28033448 .084991458 .28933717 .11898804 .39535523 .18499756 .42037965 .21899414 .42037965 .23799134 .42037965 .272995 .4113617 .272995 .35334779 .272995 .32235719 .2559967 .25532533 .21899414 .11528015 .20298767 .053268434 .16799927 .011245728 .12399292 .011245728 .117996219 .011245728 .09498596 .011245728 .07398987 .024276734 .09899902 .029266358 .12098694 .05027771 .12098694 .07827759 .12098694 .105270389 .09899902 .11328125 .083999637 .11328125 .053985597 .11328125 .0289917 .08728027 .0289917 .055267335 .0289917 .009246826 .07899475-.0107421879 .12298584-.0107421879 .18899536-.0107421879 .22499085 .059280397 .22799683 .0652771 .23999024 .028274537 .27598573-.0107421879 .33599855-.0107421879 .43899537-.0107421879 .49598695 .118270877 .49598695 .14328003 .49598695 .1532898 .4869995 .1532898 .48399354 .1532898 .47499085 .1532898 .47299195 .14929199 .47099305 .14228821 .43798829 .03527832 .36999513 .011245728 .33799745 .011245728 .29899598 .011245728 .2829895 .043273927 .2829895 .07727051 .2829895 .09927368 .2889862 .121276859 .2999878 .16529846L.33399964 .30233766Z"/>
<path id="font_1_2" d="M.48599244 .38136292C.48999024 .39537049 .48999024 .39736939 .48999024 .40437318 .48999024 .42237855 .47599793 .43138124 .46099855 .43138124 .45098878 .43138124 .43499757 .42536927 .42599488 .41036988 .42399598 .405365 .41600038 .37435914 .4119873 .35635377 .40499879 .33035279 .397995 .30334474 .3919983 .27633668L.34700013 .09628296C.34298707 .08126831 .2999878 .011245728 .23399353 .011245728 .18299866 .011245728 .17199707 .055267335 .17199707 .0922699 .17199707 .1382904 .18899536 .20030213 .22299195 .28833009 .23899842 .3293457 .24299622 .3403473 .24299622 .36035157 .24299622 .405365 .21099854 .4423828 .16099549 .4423828 .06599426 .4423828 .0289917 .29733277 .0289917 .28833009 .0289917 .27833558 .038986207 .27833558 .040985109 .27833558 .050994874 .27833558 .051986696 .28033448 .056991579 .29634095 .083999637 .3903656 .12399292 .42037965 .1579895 .42037965 .1659851 .42037965 .18299866 .42037965 .18299866 .3883667 .18299866 .36335755 .17298889 .3373413 .1659851 .31834413 .12599182 .21231079 .10798645 .1552887 .10798645 .10827637 .10798645 .019256592 .17098999-.0107421879 .22999573-.0107421879 .2689972-.0107421879 .30299378 .0062561037 .33099366 .03425598 .31799317-.017745972 .30599977-.06674194 .2659912-.11973572 .23999024-.15385437 .20199585-.18309021 .1559906-.18309021 .14199829-.18309021 .09700012-.18005371 .07998657-.14074707 .09599304-.14074707 .10899353-.14074707 .12298584-.1287384 .1329956-.11973572 .14299011-.10673523 .14299011-.08773804 .14299011-.056747438 .115997318-.052734376 .10598755-.052734376 .08299255-.052734376 .049987794-.068740848 .049987794-.11773682 .049987794-.16796875 .09399414-.20507813 .1559906-.20507813 .25898744-.20507813 .3619995-.11373901 .3899994-.00074768069L.48599244 .38136292Z"/>
<path id="font_2_1" d="M.6589966 .23046875C.6759949 .23046875 .69400027 .23046875 .69400027 .25045777 .69400027 .27046205 .6759949 .27046205 .6589966 .27046205H.117996219C.100997928 .27046205 .08299255 .27046205 .08299255 .25045777 .08299255 .23046875 .100997928 .23046875 .117996219 .23046875H.6589966Z"/>
<path id="font_3_1" d="M.2899933 .35191346C.37199403 .37893678 .42999269 .4490509 .42999269 .52809146 .42999269 .6100464 .34199525 .6660156 .24598694 .6660156 .14498902 .6660156 .068984989 .60606387 .068984989 .53009036 .068984989 .49710084 .09098816 .47808839 .11999512 .47808839 .15098572 .47808839 .17098999 .50009158 .17098999 .5290985 .17098999 .57910159 .12399292 .57910159 .10899353 .57910159 .13999939 .62802127 .20599365 .64100649 .24198914 .64100649 .2829895 .64100649 .33799745 .6190338 .33799745 .5290985 .33799745 .51708987 .33599855 .45906068 .30999757 .4149933 .27999879 .36691285 .24598694 .36390687 .22099304 .36291505 .21299744 .36190797 .18899536 .35990907 .18199158 .35990907 .17399597 .35890199 .16699219 .35791017 .16699219 .3479004 .16699219 .33691407 .17399597 .33691407 .19099427 .33691407H.23498535C.31698609 .33691407 .35398866 .2686615 .35398866 .17037964 .35398866 .034469606 .2849884 .0055389406 .24099732 .0055389406 .19799805 .0055389406 .12298584 .022491456 .08799744 .08137512 .12298584 .07637024 .1539917 .09837341 .1539917 .1363678 .1539917 .17237854 .1269989 .19238281 .09799194 .19238281 .07398987 .19238281 .041992189 .17837525 .041992189 .1343689 .041992189 .043441774 .1349945-.022460938 .24398804-.022460938 .3659973-.022460938 .45700074 .06838989 .45700074 .17037964 .45700074 .252594 .3939972 .33088685 .2899933 .35191346Z"/>
<path id="font_3_2" d="M.44898988 .20022583C.44898988 .3193512 .36698915 .41944886 .25898744 .41944886 .21099854 .41944886 .16799927 .40345765 .13198853 .36842347V.5637665C.1519928 .5577698 .18499756 .55078127 .21699524 .55078127 .33999635 .55078127 .4099884 .6417694 .4099884 .6547699 .4099884 .6607666 .40699769 .6657715 .3999939 .6657715 .39898683 .6657715 .39698792 .6657715 .3919983 .66278079 .37199403 .6537781 .32299806 .6337738 .2559967 .6337738 .21598816 .6337738 .16999817 .6407776 .12298584 .6617737 .114990238 .66477969 .11299133 .66477969 .11099243 .66477969 .100997928 .66477969 .100997928 .6567688 .100997928 .6407776V.34439088C.100997928 .32637025 .100997928 .31835938 .114990238 .31835938 .12199402 .31835938 .12399292 .32136537 .12799073 .32736207 .13899231 .3433838 .17599488 .39746095 .25698854 .39746095 .30899049 .39746095 .33399964 .35139466 .34199525 .33337403 .35798646 .29632569 .3600006 .25727845 .3600006 .20722962 .3600006 .17222595 .3600006 .11222839 .33599855 .07035828 .31199647 .031463624 .2749939 .0055389406 .22898865 .0055389406 .1559906 .0055389406 .09899902 .058380128 .08198547 .11723328 .084991458 .1162262 .08799744 .115234378 .09899902 .115234378 .13198853 .115234378 .14898682 .14022827 .14898682 .16423035 .14898682 .18823242 .13198853 .21322632 .09899902 .21322632 .084991458 .21322632 .049987794 .20622254 .049987794 .16023255 .049987794 .07434082 .11898804-.022460938 .23098755-.022460938 .34700013-.022460938 .44898988 .073349 .44898988 .20022583Z"/>
</defs>
<path transform="matrix(1,0,0,-1,72.36,75.9)" stroke-width=".3985" stroke-linecap="butt" stroke-miterlimit="10" stroke-linejoin="miter" fill="none" stroke="#00aeef" d="M-70.867-85.04042H70.867M-70.867-70.867H70.867M-70.867-56.69362H70.867M-70.867-42.5202H70.867M-70.867-28.3468H70.867M-70.867-14.17339H70.867M-70.867 0H70.867M-70.867 14.17339H70.867M-70.867 28.3468H70.867M-70.867 42.5202H70.867M-70.867 56.68863H70.867M-70.867-85.04042V56.69362M-56.69362-85.04042V56.69362M-42.5202-85.04042V56.69362M-28.3468-85.04042V56.69362M-14.17339-85.04042V56.69362M0-85.04042V56.69362M14.17339-85.04042V56.69362M28.3468-85.04042V56.69362M42.5202-85.04042V56.69362M56.69362-85.04042V56.69362M70.86205-85.04042V56.69362M70.867 56.69362"/>
<path transform="matrix(1,0,0,-1,72.36,75.9)" stroke-width=".79701" stroke-linecap="butt" stroke-miterlimit="10" stroke-linejoin="miter" fill="none" stroke="#000000" d="M-70.867 0H83.6058"/>
<path transform="matrix(1,0,0,-1,155.96579,75.9)" d="M1.0361 0C-.25902 .25902-1.55415 .77707-3.1083 1.68365-1.55415 .51805-1.55415-.51805-3.1083-1.68365-1.55415-.77707-.25902-.25902 1.0361 0Z"/>
<path transform="matrix(1,0,0,-1,155.96579,75.9)" stroke-width=".79701" stroke-linecap="butt" stroke-linejoin="round" fill="none" stroke="#000000" d="M1.0361 0C-.25902 .25902-1.55415 .77707-3.1083 1.68365-1.55415 .51805-1.55415-.51805-3.1083-1.68365-1.55415-.77707-.25902-.25902 1.0361 0Z"/>
<use data-text="x" xlink:href="#font_1_1" transform="matrix(9.9626,0,0,-9.9626,161.119,78.045)"/>
<path transform="matrix(1,0,0,-1,72.36,75.9)" stroke-width=".79701" stroke-linecap="butt" stroke-miterlimit="10" stroke-linejoin="miter" fill="none" stroke="#000000" d="M0-85.04042V69.4324"/>
<path transform="matrix(0,-1,-1,-0,72.36,6.467598)" d="M1.0361 0C-.25902 .25902-1.55415 .77707-3.1083 1.68365-1.55415 .51805-1.55415-.51805-3.1083-1.68365-1.55415-.77707-.25902-.25902 1.0361 0Z"/>
<path transform="matrix(0,-1,-1,-0,72.36,6.467598)" stroke-width=".79701" stroke-linecap="butt" stroke-linejoin="round" fill="none" stroke="#000000" d="M1.0361 0C-.25902 .25902-1.55415 .77707-3.1083 1.68365-1.55415 .51805-1.55415-.51805-3.1083-1.68365-1.55415-.77707-.25902-.25902 1.0361 0Z"/>
<use data-text="y" xlink:href="#font_1_2" transform="matrix(9.9626,0,0,-9.9626,65.391,6.2089998)"/>
<path transform="matrix(1,0,0,-1,72.36,75.9)" stroke-width="1.19553" stroke-linecap="butt" stroke-miterlimit="10" stroke-linejoin="miter" fill="none" stroke="#00aeef" d="M-42.5202-85.04042V56.69362"/>
<path transform="matrix(1,0,0,-1,72.36,75.9)" stroke-width=".79701" stroke-linecap="butt" stroke-miterlimit="10" stroke-linejoin="miter" fill="none" stroke="#000000" d="M-42.5202 2.12592V-2.12613"/>
<path transform="matrix(1,0,0,-1,72.36,75.9)" d="M-49.88159-13.7604H-35.158815V-4.51717H-49.88159Z" fill="#ffffff"/>
<use data-text="&#x2212;" xlink:href="#font_2_1" transform="matrix(9.9626,0,0,-9.9626,23.475007,87.834)"/>
<use data-text="3" xlink:href="#font_3_1" transform="matrix(9.9626,0,0,-9.9626,31.223999,87.834)"/>
<path transform="matrix(1,0,0,-1,72.36,75.9)" stroke-width="1.19553" stroke-linecap="butt" stroke-miterlimit="10" stroke-linejoin="miter" fill="none" stroke="#00aeef" d="M42.5202-85.04042V56.69362"/>
<path transform="matrix(1,0,0,-1,72.36,75.9)" stroke-width=".79701" stroke-linecap="butt" stroke-miterlimit="10" stroke-linejoin="miter" fill="none" stroke="#000000" d="M42.5202 2.12592V-2.12613"/>
<path transform="matrix(1,0,0,-1,72.36,75.9)" d="M39.03323-12.93018H46.00717V-4.5171997H39.03323Z" fill="#ffffff"/>
<use data-text="3" xlink:href="#font_3_1" transform="matrix(9.9626,0,0,-9.9626,112.39,87.834)"/>
<path transform="matrix(1,0,0,-1,72.36,75.9)" stroke-width="1.19553" stroke-linecap="butt" stroke-miterlimit="10" stroke-linejoin="miter" fill="none" stroke="#00aeef" d="M-70.867-70.867H70.867"/>
<path transform="matrix(1,0,0,-1,72.36,75.9)" stroke-width=".79701" stroke-linecap="butt" stroke-miterlimit="10" stroke-linejoin="miter" fill="none" stroke="#000000" d="M2.12592-70.867H-2.12613"/>
<path transform="matrix(1,0,0,-1,72.36,75.9)" d="M-19.23996-75.48862H-4.5171797V-66.245388H-19.23996Z" fill="#ffffff"/>
<use data-text="&#x2212;" xlink:href="#font_2_1" transform="matrix(9.9626,0,0,-9.9626,54.115999,149.56201)"/>
<use data-text="5" xlink:href="#font_3_2" transform="matrix(9.9626,0,0,-9.9626,61.86499,149.56201)"/>
<path transform="matrix(1,0,0,-1,72.36,75.9)" stroke-width="1.19553" stroke-linecap="butt" stroke-miterlimit="10" stroke-linejoin="miter" fill="none" stroke="#00aeef" d="M-70.867 42.5202H70.867"/>
<path transform="matrix(1,0,0,-1,72.36,75.9)" stroke-width=".79701" stroke-linecap="butt" stroke-miterlimit="10" stroke-linejoin="miter" fill="none" stroke="#000000" d="M2.12592 42.5202H-2.12613"/>
<path transform="matrix(1,0,0,-1,72.36,75.9)" d="M-11.49112 38.3137H-4.5171806V46.72668H-11.49112Z" fill="#ffffff"/>
<use data-text="3" xlink:href="#font_3_1" transform="matrix(9.9626,0,0,-9.9626,61.864999,36.59)"/>
<path transform="matrix(1,0,0,-1,72.36,75.9)" stroke-width="1.59404" stroke-linecap="butt" stroke-miterlimit="10" stroke-linejoin="miter" fill="none" stroke="#ff0000" d="M-13.78992 54.4144C-13.21335 50.98885-13.21335 50.98885-12.84464 48.84564-12.4759 46.70242-11.8846 43.32089-11.51587 41.24681-11.14714 39.17274-10.55585 35.90207-10.18713 33.89713-9.8184 31.89218-9.2271 28.73239-8.85837 26.79659-8.48964 24.86078-7.89833 21.81184-7.5296 19.94518-7.16089 18.0785-6.56958 15.14044-6.20085 13.34293-5.83212 11.5454-5.24081 8.71819-4.87209 6.9898-4.50337 5.2614-3.91205 2.54507-3.54333 .88583-3.1746-.7734-2.58331-3.37886-2.21458-4.969-1.84586-6.5591-1.25455-9.05368-.88583-10.57468-.5171-12.09566 .07419-14.47937 .4429-15.93123 .81163-17.38307 1.40294-19.65591 1.77167-21.03864 2.14038-22.42134 2.73169-24.58333 3.10042-25.8969 3.46915-27.21048 4.06046-29.26158 4.42918-30.50603 4.7979-31.75046 5.3892-33.69069 5.75792-34.866 6.12665-36.04132 6.71796-37.87068 7.08669-38.97685 7.45541-40.08302 8.04672-41.80151 8.41544-42.83855 8.78416-43.87558 9.37547-45.4832 9.7442-46.45111 10.11293-47.419 10.70424-48.91576 11.07297-49.81451 11.44168-50.71329 12.03299-52.09917 12.40172-52.9288 12.77045-53.7584 13.36174-55.03343 13.73047-55.79393 14.09918-56.55443 14.6905-57.71857 15.05922-58.40991 15.42795-59.10127 16.01926-60.15454 16.38799-60.77676 16.75671-61.39899 17.34802-62.34138 17.71674-62.89447 18.08546-63.44756 18.67677-64.27908 19.0455-64.76303 19.41423-65.24698 20.00554-65.96764 20.37427-66.38246 20.74298-66.79726 21.33427-67.40706 21.703-67.75273 22.07173-68.0984 22.66304-68.59734 23.03177-68.87387 23.40048-69.15042 23.9918-69.53847 24.36052-69.74586 24.72925-69.95326 25.32056-70.23045 25.68929-70.36871 26.05801-70.50699 26.64932-70.67331 27.01804-70.74245 27.38676-70.81157 27.97807-70.867 28.3468-70.867 28.71553-70.867 29.30682-70.81157 29.67555-70.74245 30.04427-70.67331 30.63557-70.50699 31.0043-70.36871 31.37303-70.23045 31.96434-69.95326 32.33307-69.74586 32.70178-69.53847 33.2931-69.15042 33.66182-68.87387 34.03055-68.59734 34.62186-68.0984 34.99059-67.75273 35.35931-67.40706 35.9506-66.79726 36.31932-66.38246 36.68805-65.96764 37.27936-65.24698 37.64809-64.76303 38.01682-64.27908 38.60812-63.44756 38.97685-62.89447 39.34557-62.34138 39.93687-61.39899 40.3056-60.77676 40.67433-60.15454 41.26564-59.10127 41.63437-58.40991 42.00308-57.71857 42.5944-56.55443 42.96312-55.79393 43.33185-55.03343 43.92314-53.7584 44.29187-52.9288 44.6606-52.09917 45.2519-50.71329 45.62062-49.81451 45.98935-48.91576 46.58066-47.419 46.94939-46.45111 47.31812-45.4832 47.90942-43.87558 48.27815-42.83855 48.64687-41.80151 49.23817-40.08302 49.6069-38.97685 49.97563-37.87068 50.56694-36.04132 50.93567-34.866 51.30438-33.69069 51.89569-31.75046 52.2644-30.50603 52.63313-29.26158 53.22444-27.21048 53.59317-25.8969 53.9619-24.58333 54.5532-22.42134 54.92192-21.03864 55.29065-19.65591 55.88196-17.38307 56.25069-15.93123 56.61942-14.47937 57.21072-12.09566 57.57945-10.57468 57.94817-9.05368 58.53947-6.5591 58.9082-4.969 59.27693-3.37886 59.86823-.7734 60.23695 .88583 60.60567 2.54507 61.19699 5.2614 61.5657 6.9898 61.93443 8.71819 62.52574 11.5454 62.89447 13.34293 63.2632 15.14044 63.8545 18.0785 64.22322 19.94518 64.59195 21.81184 65.18326 24.86078 65.55199 26.79659 65.92072 28.73239 66.51202 31.89218 66.88075 33.89713 67.24947 35.90207 67.84076 39.17274 68.20949 41.24681 68.57822 43.32089 69.16953 46.70242 69.53825 48.84564 69.90697 50.98885 70.867 56.69362 70.48354 54.4144"/>
<path transform="matrix(-.16591,-.9861,-.9861,.16591,58.5701,21.485604)" d="M1.51433 0C-.37857 .37857-2.27148 1.13573-4.54298 2.46077-2.27148 .75716-2.27148-.75716-4.54298-2.46077-2.27148-1.13573-.37857-.37857 1.51433 0Z" fill="#ff0000"/>
<path transform="matrix(-.16591,-.9861,-.9861,.16591,58.5701,21.485604)" stroke-width="1.59404" stroke-linecap="butt" stroke-linejoin="round" fill="none" stroke="#ff0000" d="M1.51433 0C-.37857 .37857-2.27148 1.13573-4.54298 2.46077-2.27148 .75716-2.27148-.75716-4.54298-2.46077-2.27148-1.13573-.37857-.37857 1.51433 0Z"/>
<path transform="matrix(.16591,-.9861,-.9861,-.16591,142.84352,21.485604)" d="M1.51433 0C-.37857 .37857-2.27148 1.13573-4.54298 2.46077-2.27148 .75716-2.27148-.75716-4.54298-2.46077-2.27148-1.13573-.37857-.37857 1.51433 0Z" fill="#ff0000"/>
<path transform="matrix(.16591,-.9861,-.9861,-.16591,142.84352,21.485604)" stroke-width="1.59404" stroke-linecap="butt" stroke-linejoin="round" fill="none" stroke="#ff0000" d="M1.51433 0C-.37857 .37857-2.27148 1.13573-4.54298 2.46077-2.27148 .75716-2.27148-.75716-4.54298-2.46077-2.27148-1.13573-.37857-.37857 1.51433 0Z"/>
</svg>
