<svg xmlns="http://www.w3.org/2000/svg" xmlns:xlink="http://www.w3.org/1999/xlink" version="1.1" width="290" height="276" viewBox="0 0 290 276">
<defs>
<path id="font_1_2" d="M.46199037 .33935548C.46699525 .36135865 .47698976 .3983612 .47698976 .40437318 .47698976 .42237855 .46299745 .43138124 .44799806 .43138124 .43598939 .43138124 .41799928 .42337037 .41099549 .4033661 .4079895 .3963623 .36099244 .205307 .35398866 .17930603 .34700013 .14929199 .34498597 .13128662 .34498597 .11328125 .34498597 .10227966 .34498597 .10028076 .34599305 .09527588 .32299806 .042266847 .29299928 .011245728 .2539978 .011245728 .17399597 .011245728 .17399597 .08526611 .17399597 .10227966 .17399597 .1342926 .1789856 .17329407 .22599793 .29634095 .23699951 .32633973 .24299622 .3403473 .24299622 .36035157 .24299622 .405365 .20999146 .4423828 .16099549 .4423828 .06599426 .4423828 .0289917 .29733277 .0289917 .28833009 .0289917 .27833558 .038986207 .27833558 .040985109 .27833558 .050994874 .27833558 .051986696 .28033448 .056991579 .29634095 .083999637 .38935853 .12298584 .42037965 .1579895 .42037965 .16699219 .42037965 .18299866 .41937257 .18299866 .38735963 .18299866 .36235047 .17199707 .3343506 .16499329 .31733705 .12098694 .1993103 .10899353 .1532898 .10899353 .11528015 .10899353 .024261475 .17599488-.0107421879 .25099183-.0107421879 .2679901-.0107421879 .31498719-.0107421879 .35499574 .059265138 .3809967-.0047454836 .44999696-.0107421879 .47999574-.0107421879 .5549927-.0107421879 .598999 .052261354 .625 .11227417 .6589966 .19030762 .69099429 .32434083 .69099429 .37236024 .69099429 .42736817 .6639862 .4423828 .6469879 .4423828 .621994 .4423828 .5970001 .41636659 .5970001 .3943634 .5970001 .38136292 .6029968 .3753662 .6119995 .36735536 .6230011 .35635377 .647995 .33035279 .647995 .28233338 .647995 .24832154 .61898806 .15029907 .59298709 .09927368 .5669861 .04626465 .5319977 .011245728 .48298646 .011245728 .43598939 .011245728 .40899659 .041259767 .40899659 .09828186 .40899659 .12628174 .41600038 .1572876 .41999818 .17129517L.46199037 .33935548Z"/>
<path id="font_1_1" d="M.1789856 .114868167C.13899231 .047973634 .099990848 .033981325 .055999757 .0309906 .04399109 .02999878 .034988405 .02999878 .034988405 .010986328 .034988405 .004989624 .039993287 0 .04798889 0 .07499695 0 .10598755 .0029907227 .13398743 .0029907227 .16699219 .0029907227 .20199585 0 .23399353 0 .23999024 0 .25299073 0 .25299073 .018997193 .25299073 .02999878 .24398804 .0309906 .23699951 .0309906 .21398926 .032989503 .18998719 .04096985 .18998719 .06593323 .18998719 .077926639 .19599915 .088897708 .20399475 .102890018L.27999879 .23068238H.5309906C.5329895 .2097168 .5469971 .07392883 .5469971 .063949588 .5469971 .033981325 .49499513 .0309906 .47499085 .0309906 .46099855 .0309906 .45098878 .0309906 .45098878 .010986328 .45098878 0 .46299745 0 .46499635 0 .5059967 0 .548996 .0029907227 .58999636 .0029907227 .61499026 .0029907227 .6779938 0 .7029877 0 .70899966 0 .72099307 0 .72099307 .019989014 .72099307 .0309906 .71099856 .0309906 .69799807 .0309906 .6359863 .0309906 .6359863 .037979127 .6329956 .06694031L.57199099 .691803C.56999209 .71180728 .56999209 .7158203 .5529938 .7158203 .5369873 .7158203 .5329895 .7088165 .5269928 .69880679L.1789856 .114868167M.29899598 .26168824 .49598695 .5917816 .5279999 .26168824H.29899598Z"/>
<path id="font_2_1" d="M.6589966 .23046875C.6759949 .23046875 .69400027 .23046875 .69400027 .25045777 .69400027 .27046205 .6759949 .27046205 .6589966 .27046205H.117996219C.100997928 .27046205 .08299255 .27046205 .08299255 .25045777 .08299255 .23046875 .100997928 .23046875 .117996219 .23046875H.6589966Z"/>
<path id="font_3_5" d="M.44898988 .20022583C.44898988 .3193512 .36698915 .41944886 .25898744 .41944886 .21099854 .41944886 .16799927 .40345765 .13198853 .36842347V.5637665C.1519928 .5577698 .18499756 .55078127 .21699524 .55078127 .33999635 .55078127 .4099884 .6417694 .4099884 .6547699 .4099884 .6607666 .40699769 .6657715 .3999939 .6657715 .39898683 .6657715 .39698792 .6657715 .3919983 .66278079 .37199403 .6537781 .32299806 .6337738 .2559967 .6337738 .21598816 .6337738 .16999817 .6407776 .12298584 .6617737 .114990238 .66477969 .11299133 .66477969 .11099243 .66477969 .100997928 .66477969 .100997928 .6567688 .100997928 .6407776V.34439088C.100997928 .32637025 .100997928 .31835938 .114990238 .31835938 .12199402 .31835938 .12399292 .32136537 .12799073 .32736207 .13899231 .3433838 .17599488 .39746095 .25698854 .39746095 .30899049 .39746095 .33399964 .35139466 .34199525 .33337403 .35798646 .29632569 .3600006 .25727845 .3600006 .20722962 .3600006 .17222595 .3600006 .11222839 .33599855 .07035828 .31199647 .031463624 .2749939 .0055389406 .22898865 .0055389406 .1559906 .0055389406 .09899902 .058380128 .08198547 .11723328 .084991458 .1162262 .08799744 .115234378 .09899902 .115234378 .13198853 .115234378 .14898682 .14022827 .14898682 .16423035 .14898682 .18823242 .13198853 .21322632 .09899902 .21322632 .084991458 .21322632 .049987794 .20622254 .049987794 .16023255 .049987794 .07434082 .11898804-.022460938 .23098755-.022460938 .34700013-.022460938 .44898988 .073349 .44898988 .20022583Z"/>
<path id="font_3_2" d="M.2939911 .64004519C.2939911 .66400149 .2939911 .6660156 .2709961 .6660156 .20899964 .60227969 .12098694 .60227969 .08898926 .60227969V.57128909C.10899353 .57128909 .16799927 .57128909 .21998596 .5972748V.07902527C.21998596 .042999269 .21699524 .0309906 .1269989 .0309906H.09498596V0C.12998963 .0029907227 .21699524 .0029907227 .25698854 .0029907227 .29699708 .0029907227 .38398744 .0029907227 .4189911 0V.0309906H.3869934C.29699708 .0309906 .2939911 .041992189 .2939911 .07902527V.64004519Z"/>
<path id="font_3_1" d="M.45999146 .31976319C.45999146 .39982606 .45498658 .47988893 .41999818 .5539398 .37399293 .65000918 .2919922 .6660156 .25 .6660156 .18998719 .6660156 .116989139 .64001467 .07598877 .54693606 .04399109 .47789 .038986207 .39982606 .038986207 .31976319 .038986207 .24472046 .042999269 .15464783 .083999637 .07859802 .1269989-.0024719239 .19999695-.022460938 .24899292-.022460938 .30299378-.022460938 .3789978-.0014648438 .4229889 .09359741 .45498658 .16265869 .45999146 .2407074 .45999146 .31976319M.24899292-.00047302247C.20999146-.00047302247 .15098572 .024551392 .1329956 .12062073 .12199402 .18066406 .12199402 .2727356 .12199402 .3317871 .12199402 .39582826 .12199402 .46188355 .12998963 .5159149 .14898682 .63500979 .22399903 .64401248 .24899292 .64401248 .28199769 .64401248 .34799195 .6259918 .36698915 .52693179 .3769989 .47088624 .3769989 .39482118 .3769989 .3317871 .3769989 .25672914 .3769989 .18867493 .3659973 .12461853 .35099793 .029556275 .2939911-.00047302247 .24899292-.00047302247Z"/>
<path id="font_3_3" d="M.1269989 .07699585 .23298645 .18003845C.3889923 .31811524 .44898988 .3721466 .44898988 .47216798 .44898988 .5860901 .35899354 .6660156 .23699951 .6660156 .12399292 .6660156 .049987794 .57411196 .049987794 .48516847 .049987794 .4291687 .099990848 .4291687 .102996829 .4291687 .11999512 .4291687 .15499878 .44117738 .15499878 .48217774 .15499878 .5081787 .13699341 .5341797 .101989749 .5341797 .09399414 .5341797 .09199524 .5341797 .08898926 .5331726 .11199951 .59806826 .1659851 .63500979 .22399903 .63500979 .31498719 .63500979 .35798646 .5541382 .35798646 .47216798 .35798646 .39215089 .30799867 .31311036 .25299073 .25108338L.06098938 .036987306C.049987794 .025985718 .049987794 .023986817 .049987794 0H.42099L.44898988 .17404175H.42399598C.4189911 .14402771 .4119873 .1000061 .4019928 .084991458 .394989 .07699585 .32899476 .07699585 .30699159 .07699585H.1269989Z"/>
<path id="font_3_4" d="M.2899933 .35191346C.37199403 .37893678 .42999269 .4490509 .42999269 .52809146 .42999269 .6100464 .34199525 .6660156 .24598694 .6660156 .14498902 .6660156 .068984989 .60606387 .068984989 .53009036 .068984989 .49710084 .09098816 .47808839 .11999512 .47808839 .15098572 .47808839 .17098999 .50009158 .17098999 .5290985 .17098999 .57910159 .12399292 .57910159 .10899353 .57910159 .13999939 .62802127 .20599365 .64100649 .24198914 .64100649 .2829895 .64100649 .33799745 .6190338 .33799745 .5290985 .33799745 .51708987 .33599855 .45906068 .30999757 .4149933 .27999879 .36691285 .24598694 .36390687 .22099304 .36291505 .21299744 .36190797 .18899536 .35990907 .18199158 .35990907 .17399597 .35890199 .16699219 .35791017 .16699219 .3479004 .16699219 .33691407 .17399597 .33691407 .19099427 .33691407H.23498535C.31698609 .33691407 .35398866 .2686615 .35398866 .17037964 .35398866 .034469606 .2849884 .0055389406 .24099732 .0055389406 .19799805 .0055389406 .12298584 .022491456 .08799744 .08137512 .12298584 .07637024 .1539917 .09837341 .1539917 .1363678 .1539917 .17237854 .1269989 .19238281 .09799194 .19238281 .07398987 .19238281 .041992189 .17837525 .041992189 .1343689 .041992189 .043441774 .1349945-.022460938 .24398804-.022460938 .3659973-.022460938 .45700074 .06838989 .45700074 .17037964 .45700074 .252594 .3939972 .33088685 .2899933 .35191346Z"/>
</defs>
<path transform="matrix(1.00009,0,0,-1.00009,129.38329,232.11672)" stroke-width=".3985" stroke-linecap="butt" stroke-miterlimit="10" stroke-linejoin="miter" fill="none" stroke="#00aeef" d="M-127.56062-42.5202H127.56062M-127.56062-28.3468H127.56062M-127.56062-14.17339H127.56062M-127.56062 0H127.56062M-127.56062 14.17339H127.56062M-127.56062 28.3468H127.56062M-127.56062 42.5202H127.56062M-127.56062 56.69362H127.56062M-127.56062 70.867H127.56062M-127.56062 85.04042H127.56062M-127.56062 99.21382H127.56062M-127.56062 113.38724H127.56062M-127.56062 127.56062H127.56062M-127.56062 141.73404H127.56062M-127.56062 155.90744H127.56062M-127.56062 170.08086H127.56062M-127.56062 184.25424H127.56062M-127.56062 198.42766H127.56062M-127.56062 212.59609H127.56062M-127.56062-42.5202V212.60106M-106.30052-42.5202V212.60106M-85.04042-42.5202V212.60106M-63.7803-42.5202V212.60106M-42.5202-42.5202V212.60106M-21.2601-42.5202V212.60106M0-42.5202V212.60106M21.2601-42.5202V212.60106M42.5202-42.5202V212.60106M63.7803-42.5202V212.60106M85.04042-42.5202V212.60106M106.30052-42.5202V212.60106M127.55316-42.5202V212.60106M127.56062 212.60106"/>
<path transform="matrix(1.00009,0,0,-1.00009,129.38329,232.11672)" stroke-width=".79701" stroke-linecap="butt" stroke-miterlimit="10" stroke-linejoin="miter" fill="none" stroke="#000000" d="M-127.56062 0H147.38613"/>
<path transform="matrix(1.00009,0,0,-1.00009,276.78266,232.11672)" d="M1.0361 0C-.25902 .25902-1.55415 .77707-3.1083 1.68365-1.55415 .51805-1.55415-.51805-3.1083-1.68365-1.55415-.77707-.25902-.25902 1.0361 0Z"/>
<path transform="matrix(1.00009,0,0,-1.00009,276.78266,232.11672)" stroke-width=".79701" stroke-linecap="butt" stroke-linejoin="round" fill="none" stroke="#000000" d="M1.0361 0C-.25902 .25902-1.55415 .77707-3.1083 1.68365-1.55415 .51805-1.55415-.51805-3.1083-1.68365-1.55415-.77707-.25902-.25902 1.0361 0Z"/>
<use data-text="w" xlink:href="#font_1_2" transform="matrix(9.963496,0,0,-9.963496,281.937,234.2619)"/>
<path transform="matrix(1.00009,0,0,-1.00009,129.38329,232.11672)" stroke-width=".79701" stroke-linecap="butt" stroke-miterlimit="10" stroke-linejoin="miter" fill="none" stroke="#000000" d="M0-42.5202V225.33986"/>
<path transform="matrix(0,-1.00009,-1.00009,-0,129.38329,6.7565767)" d="M1.0361 0C-.25902 .25902-1.55415 .77707-3.1083 1.68365-1.55415 .51805-1.55415-.51805-3.1083-1.68365-1.55415-.77707-.25902-.25902 1.0361 0Z"/>
<path transform="matrix(0,-1.00009,-1.00009,-0,129.38329,6.7565767)" stroke-width=".79701" stroke-linecap="butt" stroke-linejoin="round" fill="none" stroke="#000000" d="M1.0361 0C-.25902 .25902-1.55415 .77707-3.1083 1.68365-1.55415 .51805-1.55415-.51805-3.1083-1.68365-1.55415-.77707-.25902-.25902 1.0361 0Z"/>
<use data-text="A" xlink:href="#font_1_1" transform="matrix(9.963496,0,0,-9.963496,118.19128,8.725601)"/>
<path transform="matrix(1.00009,0,0,-1.00009,129.38329,232.11672)" stroke-width="1.19553" stroke-linecap="butt" stroke-miterlimit="10" stroke-linejoin="miter" fill="none" stroke="#00aeef" d="M-106.30052-42.5202V212.60106"/>
<path transform="matrix(1.00009,0,0,-1.00009,129.38329,232.11672)" stroke-width=".79701" stroke-linecap="butt" stroke-miterlimit="10" stroke-linejoin="miter" fill="none" stroke="#000000" d="M-106.30052 2.12592V-2.12613"/>
<path transform="matrix(1.00009,0,0,-1.00009,129.38329,232.11672)" d="M-113.66191-13.7604H-98.93913V-4.51717H-113.66191Z" fill="#ffffff"/>
<use data-text="&#x2212;" xlink:href="#font_2_1" transform="matrix(9.963496,0,0,-9.963496,16.707154,244.05179)"/>
<use data-text="5" xlink:href="#font_3_5" transform="matrix(9.963496,0,0,-9.963496,24.456849,244.05179)"/>
<path transform="matrix(1.00009,0,0,-1.00009,129.38329,232.11672)" stroke-width="1.19553" stroke-linecap="butt" stroke-miterlimit="10" stroke-linejoin="miter" fill="none" stroke="#00aeef" d="M106.30052-42.5202V212.60106"/>
<path transform="matrix(1.00009,0,0,-1.00009,129.38329,232.11672)" stroke-width=".79701" stroke-linecap="butt" stroke-miterlimit="10" stroke-linejoin="miter" fill="none" stroke="#000000" d="M106.30052 2.12592V-2.12613"/>
<path transform="matrix(1.00009,0,0,-1.00009,129.38329,232.11672)" d="M102.81355-12.93018H109.78749V-4.5171997H102.81355Z" fill="#ffffff"/>
<use data-text="5" xlink:href="#font_3_5" transform="matrix(9.963496,0,0,-9.963496,233.20264,244.05179)"/>
<path transform="matrix(1.00009,0,0,-1.00009,129.38329,232.11672)" stroke-width="1.19553" stroke-linecap="butt" stroke-miterlimit="10" stroke-linejoin="miter" fill="none" stroke="#00aeef" d="M-127.56062 70.867H127.56062"/>
<path transform="matrix(1.00009,0,0,-1.00009,129.38329,232.11672)" stroke-width=".79701" stroke-linecap="butt" stroke-miterlimit="10" stroke-linejoin="miter" fill="none" stroke="#000000" d="M3.18887 70.867H-3.1892"/>
<path transform="matrix(1.00009,0,0,-1.00009,129.38329,232.11672)" d="M-17.53561 66.66052H-5.58027V75.0735H-17.53561Z" fill="#ffffff"/>
<use data-text="1" xlink:href="#font_3_2" transform="matrix(9.963496,0,0,-9.963496,112.8428,164.45363)"/>
<use data-text="0" xlink:href="#font_3_1" transform="matrix(9.963496,0,0,-9.963496,117.82455,164.45363)"/>
<path transform="matrix(1.00009,0,0,-1.00009,129.38329,232.11672)" stroke-width="1.19553" stroke-linecap="butt" stroke-miterlimit="10" stroke-linejoin="miter" fill="none" stroke="#00aeef" d="M-127.56062 141.73404H127.56062"/>
<path transform="matrix(1.00009,0,0,-1.00009,129.38329,232.11672)" stroke-width=".79701" stroke-linecap="butt" stroke-miterlimit="10" stroke-linejoin="miter" fill="none" stroke="#000000" d="M3.18887 141.73404H-3.1892"/>
<path transform="matrix(1.00009,0,0,-1.00009,129.38329,232.11672)" d="M-17.53561 137.52754H-5.58027V145.94052H-17.53561Z" fill="#ffffff"/>
<use data-text="2" xlink:href="#font_3_3" transform="matrix(9.963496,0,0,-9.963496,112.8428,93.580249)"/>
<use data-text="0" xlink:href="#font_3_1" transform="matrix(9.963496,0,0,-9.963496,117.82455,93.580249)"/>
<path transform="matrix(1.00009,0,0,-1.00009,129.38329,232.11672)" stroke-width="1.19553" stroke-linecap="butt" stroke-miterlimit="10" stroke-linejoin="miter" fill="none" stroke="#00aeef" d="M-127.56062 212.60106H127.56062"/>
<path transform="matrix(1.00009,0,0,-1.00009,129.38329,232.11672)" stroke-width=".79701" stroke-linecap="butt" stroke-miterlimit="10" stroke-linejoin="miter" fill="none" stroke="#000000" d="M3.18887 212.60106H-3.1892"/>
<path transform="matrix(1.00009,0,0,-1.00009,129.38329,232.11672)" d="M-17.53561 208.39456H-5.58027V216.80754H-17.53561Z" fill="#ffffff"/>
<use data-text="3" xlink:href="#font_3_4" transform="matrix(9.963496,0,0,-9.963496,112.8428,22.706864)"/>
<use data-text="0" xlink:href="#font_3_1" transform="matrix(9.963496,0,0,-9.963496,117.82455,22.706864)"/>
<path transform="matrix(1.00009,0,0,-1.00009,129.38329,232.11672)" stroke-width="1.59404" stroke-linecap="butt" stroke-miterlimit="10" stroke-linejoin="miter" fill="none" stroke="#c64a86" d="M-119.77536 210.32645C-118.19643 201.66736-118.19643 201.66736-117.4308 197.55998-116.66518 193.4526-115.43738 186.97197-114.67175 182.99707-113.90614 179.02219-112.67831 172.75408-111.9127 168.9117-111.14708 165.0693-109.91927 159.01374-109.15364 155.30384-108.38802 151.59392-107.16022 145.75072-106.39459 142.17328-105.62898 138.59583-104.40115 132.965-103.63554 129.52004-102.86992 126.07504-101.64212 120.65675-100.8765 117.34428-100.11087 114.03185-98.88306 108.82608-98.11743 105.6461-97.35182 102.46611-96.12401 97.47272-95.35838 94.4252-94.59277 91.37766-93.36496 86.59665-92.59933 83.6816-91.83371 80.76656-90.6059 76.1981-89.84029 73.41553-89.07466 70.63297-87.84686 66.27686-87.08124 63.62677-86.31561 60.97668-85.0878 56.83308-84.32217 54.3155-83.55656 51.79794-82.32875 47.86688-81.56314 45.48178-80.79752 43.0967-79.5697 39.378-78.80408 37.12537-78.03845 34.87273-76.81065 31.36641-76.04501 29.24626-75.2794 27.12608-74.05159 23.83235-73.28598 21.84467-72.52036 19.85698-71.29254 16.77559-70.52693 14.92038-69.76129 13.06519-68.5335 10.19633-67.76787 8.47362-67.00226 6.75089-65.77444 4.09438-65.00882 2.50417-64.24321 .91396-63.01538-1.5298-62.24977-2.98753-61.48413-4.44527-60.25633-6.67686-59.49072-8.00215-58.7251-9.32744-57.49728-11.3465-56.73166-12.53926-55.96605-13.73203-54.73824-15.53853-53.97261-16.59885-53.20699-17.65918-51.97917-19.25351-51.21356-20.18135-50.44794-21.10919-49.22014-22.49074-48.45451-23.28609-47.68889-24.08147-46.46109-25.25089-45.69545-25.91377-44.92984-26.57666-43.70201-27.5333-42.9364-28.06369-42.17078-28.59409-40.94298-29.33862-40.17737-29.73654-39.41173-30.13446-38.18393-30.66621-37.41829-30.93164-36.65268-31.19708-35.42488-31.51671-34.65926-31.64966-33.89365-31.78262-32.66582-31.88945-31.9002-31.88992-31.13457-31.89041-29.90677-31.78508-29.14113-31.6531-28.37552-31.52115-27.14772-31.20325-26.3821-30.93878-25.61649-30.6743-24.38866-30.14389-23.62305-29.74692-22.8574-29.34996-21.62961-28.6072-20.864-28.07776-20.09837-27.54832-18.87056-26.59299-18.10493-25.93108-17.33932-25.26915-16.11153-24.10149-15.34589-23.30707-14.58028-22.51268-13.35245-21.13245-12.58684-20.20557-11.82121-19.27869-10.5934-17.68607-9.82779-16.62674-9.06216-15.56741-7.83437-13.76247-7.06873-12.57062-6.30312-11.37878-5.07529-9.36108-4.30968-8.03676-3.54407-6.71245-2.31625-4.48256-1.55064-3.0258-.785-1.56906 .44276 .87317 1.20839 2.46242 1.974 4.05167 3.20181 6.70667 3.96744 8.42842 4.73306 10.15019 5.96088 13.0175 6.72649 14.87172 7.49211 16.72594 8.71992 19.80563 9.48553 21.79233 10.25116 23.77902 11.47896 27.07124 12.2446 29.19046 13.01021 31.30966 14.23802 34.81442 15.00365 37.06612 15.76926 39.3178 16.99707 43.03491 17.76268 45.41907 18.52832 47.80324 19.75612 51.7329 20.52174 54.24954 21.28737 56.7662 22.51518 60.90823 23.2808 63.55734 24.04642 66.20644 25.27423 70.56084 26.03984 73.34242 26.80548 76.12401 28.03328 80.69095 28.7989 83.60504 29.56453 86.51913 30.79233 91.29863 31.55795 94.34517 32.32356 97.39171 33.55138 102.38338 34.317 105.5624 35.08263 108.74141 36.31044 113.94583 37.07607 117.25735 37.84169 120.5689 39.06949 125.98564 39.8351 129.42963 40.60072 132.8736 41.82854 138.50275 42.59416 142.07921 43.35979 145.65567 44.58759 151.49733 45.35321 155.2063 46.11882 158.91527 47.34665 164.96947 48.11226 168.81092 48.87788 172.65236 50.10568 178.91893 50.87132 182.89284 51.63693 186.86675 52.86475 193.34568 53.63037 197.45206 54.39598 201.55844 56.38942 212.48882 55.97482 210.21508"/>
<path transform="matrix(-.17935615,-.98381856,-.98381856,.17935615,9.597168,21.771347)" d="M1.51433 0C-.37857 .37857-2.27148 1.13573-4.54298 2.46077-2.27148 .75716-2.27148-.75716-4.54298-2.46077-2.27148-1.13573-.37857-.37857 1.51433 0Z" fill="#c64a86"/>
<path transform="matrix(-.17935615,-.98381856,-.98381856,.17935615,9.597168,21.771347)" stroke-width="1.59404" stroke-linecap="butt" stroke-linejoin="round" fill="none" stroke="#c64a86" d="M1.51433 0C-.37857 .37857-2.27148 1.13573-4.54298 2.46077-2.27148 .75716-2.27148-.75716-4.54298-2.46077-2.27148-1.13573-.37857-.37857 1.51433 0Z"/>
<path transform="matrix(.17939614,-.98381856,-.98381856,-.17939614,185.36313,21.882737)" d="M1.51433 0C-.37857 .37857-2.27148 1.13573-4.54298 2.46077-2.27148 .75716-2.27148-.75716-4.54298-2.46077-2.27148-1.13573-.37857-.37857 1.51433 0Z" fill="#c64a86"/>
<path transform="matrix(.17939614,-.98381856,-.98381856,-.17939614,185.36313,21.882737)" stroke-width="1.59404" stroke-linecap="butt" stroke-linejoin="round" fill="none" stroke="#c64a86" d="M1.51433 0C-.37857 .37857-2.27148 1.13573-4.54298 2.46077-2.27148 .75716-2.27148-.75716-4.54298-2.46077-2.27148-1.13573-.37857-.37857 1.51433 0Z"/>
</svg>
