<svg xmlns="http://www.w3.org/2000/svg" xmlns:xlink="http://www.w3.org/1999/xlink" version="1.1" width="219" height="246" viewBox="0 0 219 246">
<defs>
<path id="font_1_1" d="M.33399964 .30233766C.33999635 .32835389 .36299134 .42037965 .43299867 .42037965 .43798829 .42037965 .46199037 .42037965 .48298646 .40734864 .45498658 .402359 .43499757 .37734986 .43499757 .35334779 .43499757 .33735658 .44599916 .31835938 .47299195 .31835938 .49499513 .31835938 .5269928 .3363495 .5269928 .37635804 .5269928 .42837525 .46798707 .4423828 .43399049 .4423828 .37599183 .4423828 .34098817 .38935853 .32899476 .36634828 .3039856 .43237306 .25 .4423828 .22099304 .4423828 .116989139 .4423828 .05999756 .3133545 .05999756 .28834535 .05999756 .27833558 .069992069 .27833558 .07199097 .27833558 .07998657 .27833558 .08299255 .28033448 .084991458 .28933717 .11898804 .39535523 .18499756 .42037965 .21899414 .42037965 .23799134 .42037965 .272995 .4113617 .272995 .35334779 .272995 .32235719 .2559967 .25532533 .21899414 .11528015 .20298767 .053268434 .16799927 .011245728 .12399292 .011245728 .117996219 .011245728 .09498596 .011245728 .07398987 .024276734 .09899902 .029266358 .12098694 .05027771 .12098694 .07827759 .12098694 .105270389 .09899902 .11328125 .083999637 .11328125 .053985597 .11328125 .0289917 .08728027 .0289917 .055267335 .0289917 .009246826 .07899475-.0107421879 .12298584-.0107421879 .18899536-.0107421879 .22499085 .059280397 .22799683 .0652771 .23999024 .028274537 .27598573-.0107421879 .33599855-.0107421879 .43899537-.0107421879 .49598695 .118270877 .49598695 .14328003 .49598695 .1532898 .4869995 .1532898 .48399354 .1532898 .47499085 .1532898 .47299195 .14929199 .47099305 .14228821 .43798829 .03527832 .36999513 .011245728 .33799745 .011245728 .29899598 .011245728 .2829895 .043273927 .2829895 .07727051 .2829895 .09927368 .2889862 .121276859 .2999878 .16529846L.33399964 .30233766Z"/>
<path id="font_1_2" d="M.48599244 .38136292C.48999024 .39537049 .48999024 .39736939 .48999024 .40437318 .48999024 .42237855 .47599793 .43138124 .46099855 .43138124 .45098878 .43138124 .43499757 .42536927 .42599488 .41036988 .42399598 .405365 .41600038 .37435914 .4119873 .35635377 .40499879 .33035279 .397995 .30334474 .3919983 .27633668L.34700013 .09628296C.34298707 .08126831 .2999878 .011245728 .23399353 .011245728 .18299866 .011245728 .17199707 .055267335 .17199707 .0922699 .17199707 .1382904 .18899536 .20030213 .22299195 .28833009 .23899842 .3293457 .24299622 .3403473 .24299622 .36035157 .24299622 .405365 .21099854 .4423828 .16099549 .4423828 .06599426 .4423828 .0289917 .29733277 .0289917 .28833009 .0289917 .27833558 .038986207 .27833558 .040985109 .27833558 .050994874 .27833558 .051986696 .28033448 .056991579 .29634095 .083999637 .3903656 .12399292 .42037965 .1579895 .42037965 .1659851 .42037965 .18299866 .42037965 .18299866 .3883667 .18299866 .36335755 .17298889 .3373413 .1659851 .31834413 .12599182 .21231079 .10798645 .1552887 .10798645 .10827637 .10798645 .019256592 .17098999-.0107421879 .22999573-.0107421879 .2689972-.0107421879 .30299378 .0062561037 .33099366 .03425598 .31799317-.017745972 .30599977-.06674194 .2659912-.11973572 .23999024-.15385437 .20199585-.18309021 .1559906-.18309021 .14199829-.18309021 .09700012-.18005371 .07998657-.14074707 .09599304-.14074707 .10899353-.14074707 .12298584-.1287384 .1329956-.11973572 .14299011-.10673523 .14299011-.08773804 .14299011-.056747438 .115997318-.052734376 .10598755-.052734376 .08299255-.052734376 .049987794-.068740848 .049987794-.11773682 .049987794-.16796875 .09399414-.20507813 .1559906-.20507813 .25898744-.20507813 .3619995-.11373901 .3899994-.00074768069L.48599244 .38136292Z"/>
<path id="font_2_2" d="M.2939911 .64004519C.2939911 .66400149 .2939911 .6660156 .2709961 .6660156 .20899964 .60227969 .12098694 .60227969 .08898926 .60227969V.57128909C.10899353 .57128909 .16799927 .57128909 .21998596 .5972748V.07902527C.21998596 .042999269 .21699524 .0309906 .1269989 .0309906H.09498596V0C.12998963 .0029907227 .21699524 .0029907227 .25698854 .0029907227 .29699708 .0029907227 .38398744 .0029907227 .4189911 0V.0309906H.3869934C.29699708 .0309906 .2939911 .041992189 .2939911 .07902527V.64004519Z"/>
<path id="font_2_3" d="M.1269989 .07699585 .23298645 .18003845C.3889923 .31811524 .44898988 .3721466 .44898988 .47216798 .44898988 .5860901 .35899354 .6660156 .23699951 .6660156 .12399292 .6660156 .049987794 .57411196 .049987794 .48516847 .049987794 .4291687 .099990848 .4291687 .102996829 .4291687 .11999512 .4291687 .15499878 .44117738 .15499878 .48217774 .15499878 .5081787 .13699341 .5341797 .101989749 .5341797 .09399414 .5341797 .09199524 .5341797 .08898926 .5331726 .11199951 .59806826 .1659851 .63500979 .22399903 .63500979 .31498719 .63500979 .35798646 .5541382 .35798646 .47216798 .35798646 .39215089 .30799867 .31311036 .25299073 .25108338L.06098938 .036987306C.049987794 .025985718 .049987794 .023986817 .049987794 0H.42099L.44898988 .17404175H.42399598C.4189911 .14402771 .4119873 .1000061 .4019928 .084991458 .394989 .07699585 .32899476 .07699585 .30699159 .07699585H.1269989Z"/>
<path id="font_2_4" d="M.2899933 .35191346C.37199403 .37893678 .42999269 .4490509 .42999269 .52809146 .42999269 .6100464 .34199525 .6660156 .24598694 .6660156 .14498902 .6660156 .068984989 .60606387 .068984989 .53009036 .068984989 .49710084 .09098816 .47808839 .11999512 .47808839 .15098572 .47808839 .17098999 .50009158 .17098999 .5290985 .17098999 .57910159 .12399292 .57910159 .10899353 .57910159 .13999939 .62802127 .20599365 .64100649 .24198914 .64100649 .2829895 .64100649 .33799745 .6190338 .33799745 .5290985 .33799745 .51708987 .33599855 .45906068 .30999757 .4149933 .27999879 .36691285 .24598694 .36390687 .22099304 .36291505 .21299744 .36190797 .18899536 .35990907 .18199158 .35990907 .17399597 .35890199 .16699219 .35791017 .16699219 .3479004 .16699219 .33691407 .17399597 .33691407 .19099427 .33691407H.23498535C.31698609 .33691407 .35398866 .2686615 .35398866 .17037964 .35398866 .034469606 .2849884 .0055389406 .24099732 .0055389406 .19799805 .0055389406 .12298584 .022491456 .08799744 .08137512 .12298584 .07637024 .1539917 .09837341 .1539917 .1363678 .1539917 .17237854 .1269989 .19238281 .09799194 .19238281 .07398987 .19238281 .041992189 .17837525 .041992189 .1343689 .041992189 .043441774 .1349945-.022460938 .24398804-.022460938 .3659973-.022460938 .45700074 .06838989 .45700074 .17037964 .45700074 .252594 .3939972 .33088685 .2899933 .35191346Z"/>
<path id="font_2_5" d="M.2939911 .16503906V.07800293C.2939911 .041992189 .2919922 .0309906 .21798706 .0309906H.19699097V0C.23799134 .0029907227 .2899933 .0029907227 .33198548 .0029907227 .37399293 .0029907227 .4269867 .0029907227 .46798707 0V.0309906H.44699098C.37298585 .0309906 .37098695 .041992189 .37098695 .07800293V.16503906H.47099305V.19602967H.37098695V.65075686C.37098695 .67074587 .37098695 .6767578 .35499574 .6767578 .34599305 .6767578 .34298707 .6767578 .33499146 .66474917L.027999878 .19602967V.16503906H.2939911M.2999878 .19602967H.055999757L.2999878 .5688019V.19602967Z"/>
<path id="font_2_6" d="M.44898988 .20022583C.44898988 .3193512 .36698915 .41944886 .25898744 .41944886 .21099854 .41944886 .16799927 .40345765 .13198853 .36842347V.5637665C.1519928 .5577698 .18499756 .55078127 .21699524 .55078127 .33999635 .55078127 .4099884 .6417694 .4099884 .6547699 .4099884 .6607666 .40699769 .6657715 .3999939 .6657715 .39898683 .6657715 .39698792 .6657715 .3919983 .66278079 .37199403 .6537781 .32299806 .6337738 .2559967 .6337738 .21598816 .6337738 .16999817 .6407776 .12298584 .6617737 .114990238 .66477969 .11299133 .66477969 .11099243 .66477969 .100997928 .66477969 .100997928 .6567688 .100997928 .6407776V.34439088C.100997928 .32637025 .100997928 .31835938 .114990238 .31835938 .12199402 .31835938 .12399292 .32136537 .12799073 .32736207 .13899231 .3433838 .17599488 .39746095 .25698854 .39746095 .30899049 .39746095 .33399964 .35139466 .34199525 .33337403 .35798646 .29632569 .3600006 .25727845 .3600006 .20722962 .3600006 .17222595 .3600006 .11222839 .33599855 .07035828 .31199647 .031463624 .2749939 .0055389406 .22898865 .0055389406 .1559906 .0055389406 .09899902 .058380128 .08198547 .11723328 .084991458 .1162262 .08799744 .115234378 .09899902 .115234378 .13198853 .115234378 .14898682 .14022827 .14898682 .16423035 .14898682 .18823242 .13198853 .21322632 .09899902 .21322632 .084991458 .21322632 .049987794 .20622254 .049987794 .16023255 .049987794 .07434082 .11898804-.022460938 .23098755-.022460938 .34700013-.022460938 .44898988 .073349 .44898988 .20022583Z"/>
<path id="font_2_1" d="M.45999146 .31976319C.45999146 .39982606 .45498658 .47988893 .41999818 .5539398 .37399293 .65000918 .2919922 .6660156 .25 .6660156 .18998719 .6660156 .116989139 .64001467 .07598877 .54693606 .04399109 .47789 .038986207 .39982606 .038986207 .31976319 .038986207 .24472046 .042999269 .15464783 .083999637 .07859802 .1269989-.0024719239 .19999695-.022460938 .24899292-.022460938 .30299378-.022460938 .3789978-.0014648438 .4229889 .09359741 .45498658 .16265869 .45999146 .2407074 .45999146 .31976319M.24899292-.00047302247C.20999146-.00047302247 .15098572 .024551392 .1329956 .12062073 .12199402 .18066406 .12199402 .2727356 .12199402 .3317871 .12199402 .39582826 .12199402 .46188355 .12998963 .5159149 .14898682 .63500979 .22399903 .64401248 .24899292 .64401248 .28199769 .64401248 .34799195 .6259918 .36698915 .52693179 .3769989 .47088624 .3769989 .39482118 .3769989 .3317871 .3769989 .25672914 .3769989 .18867493 .3659973 .12461853 .35099793 .029556275 .2939911-.00047302247 .24899292-.00047302247Z"/>
<path id="font_2_7" d="M.47599793 .609375C.4850006 .6213684 .4850006 .62338259 .4850006 .64437869H.24198914C.11999512 .64437869 .117996219 .65737918 .11399841 .67637637H.08898926L.055999757 .4702301H.08099365C.083999637 .48625184 .09298706 .5493469 .10598755 .56137087 .11299133 .5673828 .19099427 .5673828 .20399475 .5673828H.41099549C.3999939 .5513611 .32099916 .4421997 .29899598 .40914918 .20899964 .27394105 .17599488 .1347351 .17599488 .032577516 .17599488 .022567749 .17599488-.022460938 .22200012-.022460938 .2679901-.022460938 .2679901 .022567749 .2679901 .032577516V.08366394C.2679901 .13873291 .2709961 .19381714 .2789917 .24790955 .2829895 .27093507 .29699708 .35707093 .34098817 .41915895L.47599793 .609375Z"/>
</defs>
<path transform="matrix(1.00002,0,0,-1.00006,17.750077,231.81912)" stroke-width=".3985" stroke-linecap="butt" stroke-miterlimit="10" stroke-linejoin="miter" fill="none" stroke="#00aeef" d="M0 0H170.08086M0 14.17339H170.08086M0 28.3468H170.08086M0 42.5202H170.08086M0 56.69362H170.08086M0 70.867H170.08086M0 85.04042H170.08086M0 99.21382H170.08086M0 113.38724H170.08086M0 127.56062H170.08086M0 141.73404H170.08086M0 155.90744H170.08086M0 170.08086H170.08086M0 184.25424H170.08086M0 198.42766H170.08086M0 212.59609H170.08086M0 0V212.60106M21.2601 0V212.60106M42.5202 0V212.60106M63.7803 0V212.60106M85.04042 0V212.60106M106.30052 0V212.60106M127.56062 0V212.60106M148.82074 0V212.60106M170.07338 0V212.60106M170.08086 212.60106"/>
<path transform="matrix(1.00002,0,0,-1.00006,17.750077,231.81912)" stroke-width=".79701" stroke-linecap="butt" stroke-miterlimit="10" stroke-linejoin="miter" fill="none" stroke="#000000" d="M0 0H189.90634"/>
<path transform="matrix(1.00002,0,0,-1.00006,207.66022,231.81912)" d="M1.0361 0C-.25902 .25902-1.55415 .77707-3.1083 1.68365-1.55415 .51805-1.55415-.51805-3.1083-1.68365-1.55415-.77707-.25902-.25902 1.0361 0Z"/>
<path transform="matrix(1.00002,0,0,-1.00006,207.66022,231.81912)" stroke-width=".79701" stroke-linecap="butt" stroke-linejoin="round" fill="none" stroke="#000000" d="M1.0361 0C-.25902 .25902-1.55415 .77707-3.1083 1.68365-1.55415 .51805-1.55415-.51805-3.1083-1.68365-1.55415-.77707-.25902-.25902 1.0361 0Z"/>
<use data-text="x" xlink:href="#font_1_1" transform="matrix(9.962799,0,0,-9.963197,212.81398,233.96425)"/>
<path transform="matrix(1.00002,0,0,-1.00006,17.750077,231.81912)" stroke-width=".79701" stroke-linecap="butt" stroke-miterlimit="10" stroke-linejoin="miter" fill="none" stroke="#000000" d="M0 0V225.33986"/>
<path transform="matrix(0,-1.00006,-1.00002,-0,17.750077,6.465744)" d="M1.0361 0C-.25902 .25902-1.55415 .77707-3.1083 1.68365-1.55415 .51805-1.55415-.51805-3.1083-1.68365-1.55415-.77707-.25902-.25902 1.0361 0Z"/>
<path transform="matrix(0,-1.00006,-1.00002,-0,17.750077,6.465744)" stroke-width=".79701" stroke-linecap="butt" stroke-linejoin="round" fill="none" stroke="#000000" d="M1.0361 0C-.25902 .25902-1.55415 .77707-3.1083 1.68365-1.55415 .51805-1.55415-.51805-3.1083-1.68365-1.55415-.77707-.25902-.25902 1.0361 0Z"/>
<use data-text="y" xlink:href="#font_1_2" transform="matrix(9.962799,0,0,-9.963197,10.780937,6.2075808)"/>
<path transform="matrix(1.00002,0,0,-1.00006,17.750077,231.81912)" stroke-width="1.19553" stroke-linecap="butt" stroke-miterlimit="10" stroke-linejoin="miter" fill="none" stroke="#00aeef" d="M42.5202 0V212.60106"/>
<path transform="matrix(1.00002,0,0,-1.00006,17.750077,231.81912)" stroke-width=".79701" stroke-linecap="butt" stroke-miterlimit="10" stroke-linejoin="miter" fill="none" stroke="#000000" d="M42.5202 2.12592V-2.12613"/>
<path transform="matrix(1.00002,0,0,-1.00006,17.750077,231.81912)" d="M39.03323-12.93018H46.00717V-4.5171997H39.03323Z" fill="#ffffff"/>
<use data-text="1" xlink:href="#font_2_2" transform="matrix(9.962799,0,0,-9.963197,57.780878,243.75385)"/>
<path transform="matrix(1.00002,0,0,-1.00006,17.750077,231.81912)" stroke-width="1.19553" stroke-linecap="butt" stroke-miterlimit="10" stroke-linejoin="miter" fill="none" stroke="#00aeef" d="M85.04042 0V212.60106"/>
<path transform="matrix(1.00002,0,0,-1.00006,17.750077,231.81912)" stroke-width=".79701" stroke-linecap="butt" stroke-miterlimit="10" stroke-linejoin="miter" fill="none" stroke="#000000" d="M85.04042 2.12592V-2.12613"/>
<path transform="matrix(1.00002,0,0,-1.00006,17.750077,231.81912)" d="M81.55345-12.93018H88.52739V-4.5171997H81.55345Z" fill="#ffffff"/>
<use data-text="2" xlink:href="#font_2_3" transform="matrix(9.962799,0,0,-9.963197,100.301738,243.75385)"/>
<path transform="matrix(1.00002,0,0,-1.00006,17.750077,231.81912)" stroke-width="1.19553" stroke-linecap="butt" stroke-miterlimit="10" stroke-linejoin="miter" fill="none" stroke="#00aeef" d="M127.56062 0V212.60106"/>
<path transform="matrix(1.00002,0,0,-1.00006,17.750077,231.81912)" stroke-width=".79701" stroke-linecap="butt" stroke-miterlimit="10" stroke-linejoin="miter" fill="none" stroke="#000000" d="M127.56062 2.12592V-2.12613"/>
<path transform="matrix(1.00002,0,0,-1.00006,17.750077,231.81912)" d="M124.07365-12.93018H131.04759V-4.5171997H124.07365Z" fill="#ffffff"/>
<use data-text="3" xlink:href="#font_2_4" transform="matrix(9.962799,0,0,-9.963197,142.82257,243.75385)"/>
<path transform="matrix(1.00002,0,0,-1.00006,17.750077,231.81912)" stroke-width="1.19553" stroke-linecap="butt" stroke-miterlimit="10" stroke-linejoin="miter" fill="none" stroke="#00aeef" d="M170.08086 0V212.60106"/>
<path transform="matrix(1.00002,0,0,-1.00006,17.750077,231.81912)" stroke-width=".79701" stroke-linecap="butt" stroke-miterlimit="10" stroke-linejoin="miter" fill="none" stroke="#000000" d="M170.08086 2.12592V-2.12613"/>
<path transform="matrix(1.00002,0,0,-1.00006,17.750077,231.81912)" d="M166.59389-12.93018H173.56783V-4.5171997H166.59389Z" fill="#ffffff"/>
<use data-text="4" xlink:href="#font_2_5" transform="matrix(9.962799,0,0,-9.963197,185.34343,243.75385)"/>
<path transform="matrix(1.00002,0,0,-1.00006,17.750077,231.81912)" stroke-width="1.19553" stroke-linecap="butt" stroke-miterlimit="10" stroke-linejoin="miter" fill="none" stroke="#00aeef" d="M0 70.867H170.08086"/>
<path transform="matrix(1.00002,0,0,-1.00006,17.750077,231.81912)" stroke-width=".79701" stroke-linecap="butt" stroke-miterlimit="10" stroke-linejoin="miter" fill="none" stroke="#000000" d="M3.18887 70.867H-3.1892"/>
<path transform="matrix(1.00002,0,0,-1.00006,17.750077,231.81912)" d="M-17.53561 66.66052H-5.58027V75.0735H-17.53561Z" fill="#ffffff"/>
<use data-text="2" xlink:href="#font_2_3" transform="matrix(9.962799,0,0,-9.963197,1.2107468,164.15807)"/>
<use data-text="5" xlink:href="#font_2_6" transform="matrix(9.962799,0,0,-9.963197,6.1921465,164.15807)"/>
<path transform="matrix(1.00002,0,0,-1.00006,17.750077,231.81912)" stroke-width="1.19553" stroke-linecap="butt" stroke-miterlimit="10" stroke-linejoin="miter" fill="none" stroke="#00aeef" d="M0 141.73404H170.08086"/>
<path transform="matrix(1.00002,0,0,-1.00006,17.750077,231.81912)" stroke-width=".79701" stroke-linecap="butt" stroke-miterlimit="10" stroke-linejoin="miter" fill="none" stroke="#000000" d="M3.18887 141.73404H-3.1892"/>
<path transform="matrix(1.00002,0,0,-1.00006,17.750077,231.81912)" d="M-17.53561 137.52754H-5.58027V145.94052H-17.53561Z" fill="#ffffff"/>
<use data-text="5" xlink:href="#font_2_6" transform="matrix(9.962799,0,0,-9.963197,1.2107468,93.28682)"/>
<use data-text="0" xlink:href="#font_2_1" transform="matrix(9.962799,0,0,-9.963197,6.1921465,93.28682)"/>
<path transform="matrix(1.00002,0,0,-1.00006,17.750077,231.81912)" stroke-width="1.19553" stroke-linecap="butt" stroke-miterlimit="10" stroke-linejoin="miter" fill="none" stroke="#00aeef" d="M0 212.60106H170.08086"/>
<path transform="matrix(1.00002,0,0,-1.00006,17.750077,231.81912)" stroke-width=".79701" stroke-linecap="butt" stroke-miterlimit="10" stroke-linejoin="miter" fill="none" stroke="#000000" d="M3.18887 212.60106H-3.1892"/>
<path transform="matrix(1.00002,0,0,-1.00006,17.750077,231.81912)" d="M-17.53561 208.39456H-5.58027V216.80754H-17.53561Z" fill="#ffffff"/>
<use data-text="7" xlink:href="#font_2_7" transform="matrix(9.962799,0,0,-9.963197,1.2107468,22.415558)"/>
<use data-text="5" xlink:href="#font_2_6" transform="matrix(9.962799,0,0,-9.963197,6.1921465,22.415558)"/>
<use data-text="0" xlink:href="#font_2_1" transform="matrix(9.962799,0,0,-9.963197,9.248901,241.75972)"/>
<path transform="matrix(1.00002,0,0,-1.00006,17.750077,231.81912)" stroke-width="1.59404" stroke-linecap="butt" stroke-miterlimit="10" stroke-linejoin="miter" fill="none" stroke="#ff0000" d="M0 136.06455C0 136.06455 1.44003 139.09229 1.9931 140.21692 2.5462 141.34154 3.43317 143.10079 3.98625 144.17009 4.53934 145.23938 5.4263 146.90967 5.97939 147.92365 6.53247 148.93764 7.41943 150.51955 7.97252 151.47826 8.5256 152.43694 9.41257 153.92987 9.96567 154.83324 10.51874 155.73659 11.4057 157.14095 11.95879 157.98903 12.51187 158.8371 13.39883 160.1529 13.95193 160.94565 14.505 161.7384 15.39198 162.96518 15.94505 163.70264 16.49815 164.44008 17.38512 165.57852 17.93819 166.26067 18.49129 166.94281 19.37825 167.99227 19.93134 168.61908 20.48442 169.24588 21.37138 170.20677 21.92447 170.77832 22.47755 171.34986 23.3645 172.22216 23.9176 172.73836 24.47067 173.25457 25.35765 174.03789 25.91074 174.4988 26.46382 174.95969 27.35078 175.65467 27.90388 176.06024 28.45695 176.46585 29.34392 177.07184 29.897 177.4221 30.45009 177.77237 31.33707 178.28977 31.89014 178.58477 32.44324 178.87976 33.3302 179.30858 33.88329 179.54824 34.43637 179.78789 35.32332 180.12775 35.8764 180.3121 36.42949 180.49646 37.31645 180.74793 37.86955 180.877 38.42262 181.00605 39.3096 181.16855 39.86269 181.24227 40.41577 181.316 41.30273 181.38993 41.85582 181.40836 42.4089 181.42682 43.29587 181.41216 43.84895 181.37529 44.40204 181.33841 45.28902 181.23474 45.84209 181.14258 46.39519 181.05039 47.28214 180.85839 47.83522 180.71089 48.3883 180.56342 49.27527 180.28241 49.82835 180.0796 50.38144 179.8768 51.2684 179.50722 51.8215 179.24913 52.37457 178.99105 53.26154 178.5329 53.81464 178.21947 54.3677 177.90605 55.25468 177.35894 55.80777 176.9902 56.36086 176.62149 57.24782 175.98598 57.8009 175.56197 58.35399 175.13794 59.24095 174.41347 59.79402 173.93412 60.34712 173.45475 61.23409 172.64171 61.78717 172.10706 62.34026 171.57244 63.22722 170.6708 63.7803 170.08086 64.33339 169.49089 65.22035 168.50028 65.77344 167.85501 66.32652 167.20975 67.21349 166.13077 67.76659 165.4302 68.31966 164.72963 69.20662 163.56168 69.7597 162.80577 70.31279 162.04988 71.19975 160.79334 71.75284 159.98217 72.30592 159.171 73.1929 157.82588 73.74597 156.95937 74.29907 156.09288 75.18604 154.65879 75.7391 153.73696 76.2922 152.81516 77.17915 151.2927 77.73225 150.31558 78.28532 149.33847 79.1723 147.72704 79.72539 146.6946 80.27847 145.66216 81.16542 143.96213 81.71852 142.87442 82.27159 141.7867 83.15857 139.99811 83.71165 138.85506 84.26474 137.712 85.1517 135.83444 85.70479 134.6361 86.25787 133.43773 87.14484 131.47179 87.69792 130.21816 88.251 128.9645 89.13799 126.90958 89.69106 125.60057 90.24416 124.2916 91.1311 122.1481 91.6842 120.78384 92.23727 119.41957 93.12424 117.1875 93.67732 115.76791 94.23041 114.34831 95.11737 112.02727 95.67047 110.55237 96.22354 109.07747 97.11052 106.66806 97.6636 105.13786 98.21669 103.60767 99.10365 101.10927 99.65672 99.52373 100.20982 97.9382 101.09679 95.35123 101.64987 93.71043 102.20296 92.06963 103.08994 89.39407 103.643 87.69792 104.1961 86.0018 105.08304 83.23726 105.63614 81.48582 106.18922 79.73438 107.07619 76.88147 107.62927 75.07474 108.18236 73.26799 109.06932 70.32613 109.62242 68.46405 110.17549 66.60197 111.06245 63.57152 111.61555 61.65417 112.16862 59.73682 113.0556 56.61778 113.60867 54.6451 114.16177 52.67241 115.04874 49.4644 115.60182 47.43643 116.1549 45.40843 117.04187 42.11208 117.59494 40.02878 118.14804 37.9455 119.03499 34.56013 119.58809 32.42152 120.14117 30.2829 121.02814 26.80898 121.58122 24.61507 122.13431 22.42117 123.02127 18.85867 123.57436 16.60945 124.12744 14.36023 125.0144 10.70872 125.5675 8.40419 126.12057 6.09967 127.56062 0 127.56062 0"/>
</svg>
