<svg xmlns="http://www.w3.org/2000/svg" xmlns:xlink="http://www.w3.org/1999/xlink" version="1.1" width="168" height="163" viewBox="0 0 168 163">
<defs>
<path id="font_1_1" d="M.33399964 .30233766C.33999635 .32835389 .36299134 .42037965 .43299867 .42037965 .43798829 .42037965 .46199037 .42037965 .48298646 .40734864 .45498658 .402359 .43499757 .37734986 .43499757 .35334779 .43499757 .33735658 .44599916 .31835938 .47299195 .31835938 .49499513 .31835938 .5269928 .3363495 .5269928 .37635804 .5269928 .42837525 .46798707 .4423828 .43399049 .4423828 .37599183 .4423828 .34098817 .38935853 .32899476 .36634828 .3039856 .43237306 .25 .4423828 .22099304 .4423828 .116989139 .4423828 .05999756 .3133545 .05999756 .28834535 .05999756 .27833558 .069992069 .27833558 .07199097 .27833558 .07998657 .27833558 .08299255 .28033448 .084991458 .28933717 .11898804 .39535523 .18499756 .42037965 .21899414 .42037965 .23799134 .42037965 .272995 .4113617 .272995 .35334779 .272995 .32235719 .2559967 .25532533 .21899414 .11528015 .20298767 .053268434 .16799927 .011245728 .12399292 .011245728 .117996219 .011245728 .09498596 .011245728 .07398987 .024276734 .09899902 .029266358 .12098694 .05027771 .12098694 .07827759 .12098694 .105270389 .09899902 .11328125 .083999637 .11328125 .053985597 .11328125 .0289917 .08728027 .0289917 .055267335 .0289917 .009246826 .07899475-.0107421879 .12298584-.0107421879 .18899536-.0107421879 .22499085 .059280397 .22799683 .0652771 .23999024 .028274537 .27598573-.0107421879 .33599855-.0107421879 .43899537-.0107421879 .49598695 .118270877 .49598695 .14328003 .49598695 .1532898 .4869995 .1532898 .48399354 .1532898 .47499085 .1532898 .47299195 .14929199 .47099305 .14228821 .43798829 .03527832 .36999513 .011245728 .33799745 .011245728 .29899598 .011245728 .2829895 .043273927 .2829895 .07727051 .2829895 .09927368 .2889862 .121276859 .2999878 .16529846L.33399964 .30233766Z"/>
<path id="font_1_2" d="M.48599244 .38136292C.48999024 .39537049 .48999024 .39736939 .48999024 .40437318 .48999024 .42237855 .47599793 .43138124 .46099855 .43138124 .45098878 .43138124 .43499757 .42536927 .42599488 .41036988 .42399598 .405365 .41600038 .37435914 .4119873 .35635377 .40499879 .33035279 .397995 .30334474 .3919983 .27633668L.34700013 .09628296C.34298707 .08126831 .2999878 .011245728 .23399353 .011245728 .18299866 .011245728 .17199707 .055267335 .17199707 .0922699 .17199707 .1382904 .18899536 .20030213 .22299195 .28833009 .23899842 .3293457 .24299622 .3403473 .24299622 .36035157 .24299622 .405365 .21099854 .4423828 .16099549 .4423828 .06599426 .4423828 .0289917 .29733277 .0289917 .28833009 .0289917 .27833558 .038986207 .27833558 .040985109 .27833558 .050994874 .27833558 .051986696 .28033448 .056991579 .29634095 .083999637 .3903656 .12399292 .42037965 .1579895 .42037965 .1659851 .42037965 .18299866 .42037965 .18299866 .3883667 .18299866 .36335755 .17298889 .3373413 .1659851 .31834413 .12599182 .21231079 .10798645 .1552887 .10798645 .10827637 .10798645 .019256592 .17098999-.0107421879 .22999573-.0107421879 .2689972-.0107421879 .30299378 .0062561037 .33099366 .03425598 .31799317-.017745972 .30599977-.06674194 .2659912-.11973572 .23999024-.15385437 .20199585-.18309021 .1559906-.18309021 .14199829-.18309021 .09700012-.18005371 .07998657-.14074707 .09599304-.14074707 .10899353-.14074707 .12298584-.1287384 .1329956-.11973572 .14299011-.10673523 .14299011-.08773804 .14299011-.056747438 .115997318-.052734376 .10598755-.052734376 .08299255-.052734376 .049987794-.068740848 .049987794-.11773682 .049987794-.16796875 .09399414-.20507813 .1559906-.20507813 .25898744-.20507813 .3619995-.11373901 .3899994-.00074768069L.48599244 .38136292Z"/>
<path id="font_2_1" d="M.6589966 .23046875C.6759949 .23046875 .69400027 .23046875 .69400027 .25045777 .69400027 .27046205 .6759949 .27046205 .6589966 .27046205H.117996219C.100997928 .27046205 .08299255 .27046205 .08299255 .25045777 .08299255 .23046875 .100997928 .23046875 .117996219 .23046875H.6589966Z"/>
<path id="font_3_1" d="M.2899933 .35191346C.37199403 .37893678 .42999269 .4490509 .42999269 .52809146 .42999269 .6100464 .34199525 .6660156 .24598694 .6660156 .14498902 .6660156 .068984989 .60606387 .068984989 .53009036 .068984989 .49710084 .09098816 .47808839 .11999512 .47808839 .15098572 .47808839 .17098999 .50009158 .17098999 .5290985 .17098999 .57910159 .12399292 .57910159 .10899353 .57910159 .13999939 .62802127 .20599365 .64100649 .24198914 .64100649 .2829895 .64100649 .33799745 .6190338 .33799745 .5290985 .33799745 .51708987 .33599855 .45906068 .30999757 .4149933 .27999879 .36691285 .24598694 .36390687 .22099304 .36291505 .21299744 .36190797 .18899536 .35990907 .18199158 .35990907 .17399597 .35890199 .16699219 .35791017 .16699219 .3479004 .16699219 .33691407 .17399597 .33691407 .19099427 .33691407H.23498535C.31698609 .33691407 .35398866 .2686615 .35398866 .17037964 .35398866 .034469606 .2849884 .0055389406 .24099732 .0055389406 .19799805 .0055389406 .12298584 .022491456 .08799744 .08137512 .12298584 .07637024 .1539917 .09837341 .1539917 .1363678 .1539917 .17237854 .1269989 .19238281 .09799194 .19238281 .07398987 .19238281 .041992189 .17837525 .041992189 .1343689 .041992189 .043441774 .1349945-.022460938 .24398804-.022460938 .3659973-.022460938 .45700074 .06838989 .45700074 .17037964 .45700074 .252594 .3939972 .33088685 .2899933 .35191346Z"/>
<path id="font_4_85" d="M.33099366-.2400055C.33099366-.23701477 .33099366-.23500061 .31399537-.21800232 .18899536-.0920105 .15699768 .09700012 .15699768 .25 .15699768 .42399598 .19499207 .59799197 .31799317 .72299197 .33099366 .7350006 .33099366 .7369995 .33099366 .73999026 .33099366 .746994 .32699586 .75 .32099916 .75 .31098939 .75 .22099304 .6819916 .1619873 .5549927 .11099243 .44499208 .09899902 .33399964 .09899902 .25 .09899902 .17199707 .10998535 .050994874 .16499329-.06201172 .22499085-.18501282 .31098939-.25 .32099916-.25 .32699586-.25 .33099366-.24700928 .33099366-.2400055Z"/>
<path id="font_4_28" d="M.48298646 .08912659V.14511109H.45799256V.08912659C.45799256 .03112793 .43299867 .025131226 .42199708 .025131226 .3889923 .025131226 .3849945 .070129398 .3849945 .07511902V.27508546C.3849945 .31707765 .3849945 .3560791 .34899903 .39312745 .30999757 .43223573 .2599945 .4482422 .21199036 .4482422 .12998963 .4482422 .06098938 .40115357 .06098938 .335083 .06098938 .30508424 .08099365 .28808595 .10699463 .28808595 .1349945 .28808595 .15299988 .30807496 .15299988 .33407594 .15299988 .3460846 .147995 .37908937 .101989749 .38008119 .1289978 .41519166 .17799378 .426239 .20999146 .426239 .25898744 .426239 .31599427 .38710023 .31599427 .29808045V.26107789C.2649994 .25808717 .19499207 .25508119 .13198853 .22509766 .056991579 .19110108 .03199768 .13911438 .03199768 .09512329 .03199768 .014251709 .1289978-.0107421879 .19198609-.0107421879 .2579956-.0107421879 .3039856 .029251099 .32299806 .07624817 .32699586 .036132814 .35398866-.005859375 .40098573-.005859375 .42199708-.005859375 .48298646 .008132935 .48298646 .08912659M.31599427 .14013672C.31599427 .04525757 .24398804 .011245728 .19898987 .011245728 .1499939 .011245728 .10899353 .04624939 .10899353 .09625244 .10899353 .15124512 .15098572 .23425293 .31599427 .24024964V.14013672Z"/>
<path id="font_4_86" d="M.2889862 .25C.2889862 .32798768 .27799989 .44898988 .22299195 .56199648 .16299439 .68499758 .07699585 .75 .066986087 .75 .06098938 .75 .056991579 .74598696 .056991579 .73999026 .056991579 .7369995 .056991579 .7350006 .07598877 .71699526 .17399597 .6179962 .23098755 .45899964 .23098755 .25 .23098755 .07899475 .19400025-.09700012 .069992069-.2230072 .056991579-.23500061 .056991579-.23701477 .056991579-.2400055 .056991579-.2460022 .06098938-.25 .066986087-.25 .07699585-.25 .16699219-.18200684 .22599793-.055007936 .2769928 .054992677 .2889862 .16600037 .2889862 .25Z"/>
<path id="font_4_35" d="M.5209961 .2163086C.5209961 .34335328 .4229889 .4423828 .30899049 .4423828 .23098755 .4423828 .18798828 .39537049 .17199707 .3773651V.69433596L.027999878 .68333438V.6523285C.09799194 .6523285 .10598755 .6453247 .10598755 .596344V.00024414063H.1309967L.16699219 .06227112C.18199158 .039260866 .22399903-.0107421879 .2979889-.0107421879 .4169922-.0107421879 .5209961 .08728027 .5209961 .2163086M.43798829 .21731568C.43798829 .18029785 .43598939 .120285037 .40699769 .07527161 .38598634 .044265748 .34799195 .011245728 .2939911 .011245728 .24899292 .011260986 .21299744 .03526306 .18899536 .072265628 .1749878 .09326172 .1749878 .09625244 .1749878 .11425781V.32034303C.1749878 .3393402 .1749878 .3403473 .18598938 .35635377 .22499085 .41236878 .27999879 .42037965 .3039856 .42037965 .34899903 .42037965 .3849945 .3943634 .40899659 .35635377 .43499757 .31533814 .43798829 .25831605 .43798829 .21730042V.21731568Z"/>
</defs>
<path transform="matrix(1,0,0,-1.00006,72.67799,90.07862)" stroke-width=".3985" stroke-linecap="butt" stroke-miterlimit="10" stroke-linejoin="miter" fill="none" stroke="#00aeef" d="M-70.867-70.867H70.867M-70.867-56.69362H70.867M-70.867-42.5202H70.867M-70.867-28.3468H70.867M-70.867-14.17339H70.867M-70.867 0H70.867M-70.867 14.17339H70.867M-70.867 28.3468H70.867M-70.867 42.5202H70.867M-70.867 56.69362H70.867M-70.867 70.86205H70.867M-70.867-70.867V70.867M-56.69362-70.867V70.867M-42.5202-70.867V70.867M-28.3468-70.867V70.867M-14.17339-70.867V70.867M0-70.867V70.867M14.17339-70.867V70.867M28.3468-70.867V70.867M42.5202-70.867V70.867M56.69362-70.867V70.867M70.86205-70.867V70.867M70.867 70.867"/>
<path transform="matrix(1,0,0,-1.00006,72.67799,90.07862)" stroke-width=".79701" stroke-linecap="butt" stroke-miterlimit="10" stroke-linejoin="miter" fill="none" stroke="#000000" d="M-70.867 0H83.6058"/>
<path transform="matrix(1,0,0,-1.00006,156.28379,90.07862)" d="M1.0361 0C-.25902 .25902-1.55415 .77707-3.1083 1.68365-1.55415 .51805-1.55415-.51805-3.1083-1.68365-1.55415-.77707-.25902-.25902 1.0361 0Z"/>
<path transform="matrix(1,0,0,-1.00006,156.28379,90.07862)" stroke-width=".79701" stroke-linecap="butt" stroke-linejoin="round" fill="none" stroke="#000000" d="M1.0361 0C-.25902 .25902-1.55415 .77707-3.1083 1.68365-1.55415 .51805-1.55415-.51805-3.1083-1.68365-1.55415-.77707-.25902-.25902 1.0361 0Z"/>
<use data-text="x" xlink:href="#font_1_1" transform="matrix(9.9626,0,0,-9.963197,161.437,92.22375)"/>
<path transform="matrix(1,0,0,-1.00006,72.67799,90.07862)" stroke-width=".79701" stroke-linecap="butt" stroke-miterlimit="10" stroke-linejoin="miter" fill="none" stroke="#000000" d="M0-70.867V83.6058"/>
<path transform="matrix(0,-1.00006,-1,-0,72.67799,6.4678118)" d="M1.0361 0C-.25902 .25902-1.55415 .77707-3.1083 1.68365-1.55415 .51805-1.55415-.51805-3.1083-1.68365-1.55415-.77707-.25902-.25902 1.0361 0Z"/>
<path transform="matrix(0,-1.00006,-1,-0,72.67799,6.4678118)" stroke-width=".79701" stroke-linecap="butt" stroke-linejoin="round" fill="none" stroke="#000000" d="M1.0361 0C-.25902 .25902-1.55415 .77707-3.1083 1.68365-1.55415 .51805-1.55415-.51805-3.1083-1.68365-1.55415-.77707-.25902-.25902 1.0361 0Z"/>
<use data-text="y" xlink:href="#font_1_2" transform="matrix(9.9626,0,0,-9.963197,65.70899,6.2095949)"/>
<path transform="matrix(1,0,0,-1.00006,72.67799,90.07862)" stroke-width="1.19553" stroke-linecap="butt" stroke-miterlimit="10" stroke-linejoin="miter" fill="none" stroke="#00aeef" d="M-42.5202-70.867V70.867"/>
<path transform="matrix(1,0,0,-1.00006,72.67799,90.07862)" stroke-width=".79701" stroke-linecap="butt" stroke-miterlimit="10" stroke-linejoin="miter" fill="none" stroke="#000000" d="M-42.5202 2.12592V-2.12613"/>
<path transform="matrix(1,0,0,-1.00006,72.67799,90.07862)" d="M-49.88159-13.7604H-35.158815V-4.51717H-49.88159Z" fill="#ffffff"/>
<use data-text="&#x2212;" xlink:href="#font_2_1" transform="matrix(9.9626,0,0,-9.963197,23.793,102.013339)"/>
<use data-text="3" xlink:href="#font_3_1" transform="matrix(9.9626,0,0,-9.963197,31.541993,102.013339)"/>
<path transform="matrix(1,0,0,-1.00006,72.67799,90.07862)" stroke-width="1.19553" stroke-linecap="butt" stroke-miterlimit="10" stroke-linejoin="miter" fill="none" stroke="#00aeef" d="M42.5202-70.867V70.867"/>
<path transform="matrix(1,0,0,-1.00006,72.67799,90.07862)" stroke-width=".79701" stroke-linecap="butt" stroke-miterlimit="10" stroke-linejoin="miter" fill="none" stroke="#000000" d="M42.5202 2.12592V-2.12613"/>
<path transform="matrix(1,0,0,-1.00006,72.67799,90.07862)" d="M39.03323-12.93018H46.00717V-4.5171997H39.03323Z" fill="#ffffff"/>
<use data-text="3" xlink:href="#font_3_1" transform="matrix(9.9626,0,0,-9.963197,112.70799,102.013339)"/>
<path transform="matrix(1,0,0,-1.00006,72.67799,90.07862)" stroke-width="1.19553" stroke-linecap="butt" stroke-miterlimit="10" stroke-linejoin="miter" fill="none" stroke="#00aeef" d="M-70.867-42.5202H70.867"/>
<path transform="matrix(1,0,0,-1.00006,72.67799,90.07862)" stroke-width=".79701" stroke-linecap="butt" stroke-miterlimit="10" stroke-linejoin="miter" fill="none" stroke="#000000" d="M2.12592-42.5202H-2.12613"/>
<path transform="matrix(1,0,0,-1.00006,72.67799,90.07862)" d="M-19.23996-47.14182H-4.5171797V-37.89859H-19.23996Z" fill="#ffffff"/>
<use data-text="&#x2212;" xlink:href="#font_2_1" transform="matrix(9.9626,0,0,-9.963197,54.43399,135.39633)"/>
<use data-text="3" xlink:href="#font_3_1" transform="matrix(9.9626,0,0,-9.963197,62.182985,135.39633)"/>
<path transform="matrix(1,0,0,-1.00006,72.67799,90.07862)" stroke-width="1.19553" stroke-linecap="butt" stroke-miterlimit="10" stroke-linejoin="miter" fill="none" stroke="#00aeef" d="M-70.867 42.5202H70.867"/>
<path transform="matrix(1,0,0,-1.00006,72.67799,90.07862)" stroke-width=".79701" stroke-linecap="butt" stroke-miterlimit="10" stroke-linejoin="miter" fill="none" stroke="#000000" d="M2.12592 42.5202H-2.12613"/>
<path transform="matrix(1,0,0,-1.00006,72.67799,90.07862)" d="M-11.49112 38.3137H-4.5171806V46.72668H-11.49112Z" fill="#ffffff"/>
<use data-text="3" xlink:href="#font_3_1" transform="matrix(9.9626,0,0,-9.963197,62.18299,50.766263)"/>
<path transform="matrix(1,0,0,-1.00006,72.67799,90.07862)" stroke-width="1.59404" stroke-linecap="butt" stroke-miterlimit="10" stroke-linejoin="miter" fill="none" stroke="#ff0000" d="M-30.65044 68.59517C-30.21474 66.2716-30.21474 66.2716-29.88382 64.54526-29.55292 62.8189-29.02223 60.09508-28.69131 58.42441-28.36041 56.75375-27.82971 54.11922-27.49881 52.50426-27.1679 50.88928-26.6372 48.3441-26.3063 46.7848-25.97539 45.2255-25.4447 42.76945-25.11378 41.26584-24.78288 39.76222-24.2522 37.3957-23.92128 35.94778-23.59038 34.49986-23.0597 32.22247-22.72878 30.83022-22.39787 29.43796-21.86717 27.24991-21.53627 25.91333-21.20535 24.57677-20.67467 22.47803-20.34377 21.19716-20.01285 19.91629-19.48216 17.90686-19.15125 16.68167-18.82034 15.4565-18.28966 13.53638-17.95874 12.3669-17.62784 11.1974-17.09714 9.36662-16.76624 8.2528-16.43532 7.13898-15.90463 5.39734-15.57373 4.3392-15.24281 3.28107-14.71213 1.62895-14.38123 .62651-14.05031-.37589-13.51962-1.93889-13.1887-2.88567-12.8578-3.83243-12.32712-5.30609-11.9962-6.19717-11.66531-7.08826-11.13461-8.4726-10.80371-9.30798-10.4728-10.14337-9.94211-11.43837-9.6112-12.2181-9.28029-12.99782-8.7496-14.2037-8.41869-14.92775-8.08778-15.65176-7.5571-16.76811-7.22618-17.43645-6.89528-18.10478-6.3646-19.13202-6.03368-19.7447-5.70277-20.35738-5.17207-21.29529-4.84117-21.85225-4.51025-22.4092-3.97957-23.2576-3.64867-23.75887-3.31775-24.26013-2.78706-25.01938-2.45615-25.46501-2.12524-25.91064-1.59456-26.58075-1.26364-26.97067-.93274-27.36063-.40204-27.94121-.07114-28.27544 .25975-28.60965 .79044-29.10092 1.12134-29.37947 1.45226-29.65804 1.98294-30.06015 2.31384-30.28305 2.64476-30.50594 3.17545-30.81877 3.50636-30.98593 3.83727-31.15309 4.36795-31.37642 4.69887-31.48788 5.02977-31.59935 5.56047-31.73357 5.89137-31.78937 6.22229-31.84517 6.75298-31.89 7.08388-31.89014 7.4148-31.89029 7.94548-31.846 8.2764-31.79045 8.60728-31.73491 9.13797-31.60106 9.46889-31.48982 9.79979-31.3786 10.33047-31.15565 10.66139-30.98874 10.9923-30.82181 11.523-30.50934 11.8539-30.28673 12.18481-30.0641 12.7155-29.66252 13.0464-29.38423 13.37732-29.10596 13.908-28.61502 14.23892-28.28105 14.56982-27.94708 15.10051-27.36682 15.43143-26.97716 15.76233-26.5875 16.29303-25.91791 16.62393-25.47258 16.95485-25.02725 17.48553-24.26854 17.81644-23.76752 18.14735-23.2665 18.67804-22.41824 19.00894-21.86153 19.33986-21.30482 19.87054-20.36745 20.20146-19.75507 20.53236-19.14268 21.06305-18.116 21.39397-17.4479 21.72487-16.77985 22.25557-15.66382 22.58647-14.94006 22.91739-14.2163 23.44807-13.01097 23.77898-12.2315 24.1099-11.45206 24.64058-10.15741 24.9715-9.32225 25.3024-8.4871 25.83308-7.10313 26.164-6.21231 26.4949-5.3215 27.02559-3.84839 27.3565-2.90189 27.68741-1.95538 28.21811-.39275 28.54901 .60942 28.87991 1.61163 29.4106 3.2634 29.7415 4.32126 30.07242 5.37912 30.6031 7.12022 30.93402 8.23378 31.26492 9.34732 31.79561 11.17775 32.12653 12.347 32.45743 13.51624 32.98813 15.43597 33.31903 16.66092 33.64995 17.88585 34.18063 19.89493 34.51154 21.17552 34.84245 22.45613 35.37314 24.55434 35.70404 25.89064 36.03496 27.22691 36.56564 29.41466 36.89656 30.80664 37.22746 32.19862 37.75815 34.47548 38.08907 35.92313 38.41997 37.37079 38.95067 39.73697 39.28157 41.24031 39.61249 42.74367 40.14317 45.19917 40.47408 46.75821 40.805 48.31725 41.33568 50.86206 41.6666 52.47679 41.9975 54.09152 42.52818 56.72565 42.8591 58.39607 43.19 60.0665 43.72069 62.78996 44.0516 64.51605 44.3825 66.24214 45.24411 70.83652 44.81807 68.56488"/>
<path transform="matrix(-.18427,-.9828789,-.98282,.18428105,42.027574,21.479355)" d="M1.51433 0C-.37857 .37857-2.27148 1.13573-4.54298 2.46077-2.27148 .75716-2.27148-.75716-4.54298-2.46077-2.27148-1.13573-.37857-.37857 1.51433 0Z" fill="#ff0000"/>
<path transform="matrix(-.18427,-.9828789,-.98282,.18428105,42.027574,21.479355)" stroke-width="1.59404" stroke-linecap="butt" stroke-linejoin="round" fill="none" stroke="#ff0000" d="M1.51433 0C-.37857 .37857-2.27148 1.13573-4.54298 2.46077-2.27148 .75716-2.27148-.75716-4.54298-2.46077-2.27148-1.13573-.37857-.37857 1.51433 0Z"/>
<path transform="matrix(.18433,-.9828789,-.98282,-.18434106,117.49606,21.509636)" d="M1.51433 0C-.37857 .37857-2.27148 1.13573-4.54298 2.46077-2.27148 .75716-2.27148-.75716-4.54298-2.46077-2.27148-1.13573-.37857-.37857 1.51433 0Z" fill="#ff0000"/>
<path transform="matrix(.18433,-.9828789,-.98282,-.18434106,117.49606,21.509636)" stroke-width="1.59404" stroke-linecap="butt" stroke-linejoin="round" fill="none" stroke="#ff0000" d="M1.51433 0C-.37857 .37857-2.27148 1.13573-4.54298 2.46077-2.27148 .75716-2.27148-.75716-4.54298-2.46077-2.27148-1.13573-.37857-.37857 1.51433 0Z"/>
<path transform="matrix(1,0,0,-1.00006,72.67799,90.07862)" d="M50.02623 60.87376H64.75119V72.82905H50.02623Z" fill="#ffffff"/>
<use data-text="(" xlink:href="#font_4_85" transform="matrix(9.9626,0,0,-9.963197,123.70099,25.71376)" fill="#ff0000"/>
<use data-text="a" xlink:href="#font_4_28" transform="matrix(9.9626,0,0,-9.963197,127.57645,25.71376)" fill="#ff0000"/>
<use data-text=")" xlink:href="#font_4_86" transform="matrix(9.9626,0,0,-9.963197,132.55774,25.71376)" fill="#ff0000"/>
<path transform="matrix(1,0,0,-1.00006,72.67799,90.07862)" stroke-width="1.59404" stroke-linecap="butt" stroke-miterlimit="10" stroke-linejoin="miter" fill="none" stroke="#0000ff" d="M-30.65044-68.59517C-30.21474-66.2716-30.21474-66.2716-29.88382-64.54526-29.55292-62.8189-29.02223-60.09508-28.69131-58.42441-28.36041-56.75375-27.82971-54.11922-27.49881-52.50426-27.1679-50.88928-26.6372-48.3441-26.3063-46.7848-25.97539-45.2255-25.4447-42.76945-25.11378-41.26584-24.78288-39.76222-24.2522-37.3957-23.92128-35.94778-23.59038-34.49986-23.0597-32.22247-22.72878-30.83022-22.39787-29.43796-21.86717-27.24991-21.53627-25.91333-21.20535-24.57677-20.67467-22.47803-20.34377-21.19716-20.01285-19.91629-19.48216-17.90686-19.15125-16.68167-18.82034-15.4565-18.28966-13.53638-17.95874-12.3669-17.62784-11.1974-17.09714-9.36662-16.76624-8.2528-16.43532-7.13898-15.90463-5.39734-15.57373-4.3392-15.24281-3.28107-14.71213-1.62895-14.38123-.62651-14.05031 .37589-13.51962 1.93889-13.1887 2.88567-12.8578 3.83243-12.32712 5.30609-11.9962 6.19717-11.66531 7.08826-11.13461 8.4726-10.80371 9.30798-10.4728 10.14337-9.94211 11.43837-9.6112 12.2181-9.28029 12.99782-8.7496 14.2037-8.41869 14.92775-8.08778 15.65176-7.5571 16.76811-7.22618 17.43645-6.89528 18.10478-6.3646 19.13202-6.03368 19.7447-5.70277 20.35738-5.17207 21.29529-4.84117 21.85225-4.51025 22.4092-3.97957 23.2576-3.64867 23.75887-3.31775 24.26013-2.78706 25.01938-2.45615 25.46501-2.12524 25.91064-1.59456 26.58075-1.26364 26.97067-.93274 27.36063-.40204 27.94121-.07114 28.27544 .25975 28.60965 .79044 29.10092 1.12134 29.37947 1.45226 29.65804 1.98294 30.06015 2.31384 30.28305 2.64476 30.50594 3.17545 30.81877 3.50636 30.98593 3.83727 31.15309 4.36795 31.37642 4.69887 31.48788 5.02977 31.59935 5.56047 31.73357 5.89137 31.78937 6.22229 31.84517 6.75298 31.89 7.08388 31.89014 7.4148 31.89029 7.94548 31.846 8.2764 31.79045 8.60728 31.73491 9.13797 31.60106 9.46889 31.48982 9.79979 31.3786 10.33047 31.15565 10.66139 30.98874 10.9923 30.82181 11.523 30.50934 11.8539 30.28673 12.18481 30.0641 12.7155 29.66252 13.0464 29.38423 13.37732 29.10596 13.908 28.61502 14.23892 28.28105 14.56982 27.94708 15.10051 27.36682 15.43143 26.97716 15.76233 26.5875 16.29303 25.91791 16.62393 25.47258 16.95485 25.02725 17.48553 24.26854 17.81644 23.76752 18.14735 23.2665 18.67804 22.41824 19.00894 21.86153 19.33986 21.30482 19.87054 20.36745 20.20146 19.75507 20.53236 19.14268 21.06305 18.116 21.39397 17.4479 21.72487 16.77985 22.25557 15.66382 22.58647 14.94006 22.91739 14.2163 23.44807 13.01097 23.77898 12.2315 24.1099 11.45206 24.64058 10.15741 24.9715 9.32225 25.3024 8.4871 25.83308 7.10313 26.164 6.21231 26.4949 5.3215 27.02559 3.84839 27.3565 2.90189 27.68741 1.95538 28.21811 .39275 28.54901-.60942 28.87991-1.61163 29.4106-3.2634 29.7415-4.32126 30.07242-5.37912 30.6031-7.12022 30.93402-8.23378 31.26492-9.34732 31.79561-11.17775 32.12653-12.347 32.45743-13.51624 32.98813-15.43597 33.31903-16.66092 33.64995-17.88585 34.18063-19.89493 34.51154-21.17552 34.84245-22.45613 35.37314-24.55434 35.70404-25.89064 36.03496-27.22691 36.56564-29.41466 36.89656-30.80664 37.22746-32.19862 37.75815-34.47548 38.08907-35.92313 38.41997-37.37079 38.95067-39.73697 39.28157-41.24031 39.61249-42.74367 40.14317-45.19917 40.47408-46.75821 40.805-48.31725 41.33568-50.86206 41.6666-52.47679 41.9975-54.09152 42.52818-56.72565 42.8591-58.39607 43.19-60.0665 43.72069-62.78996 44.0516-64.51605 44.3825-66.24214 45.24411-70.83652 44.81807-68.56488"/>
<path transform="matrix(-.18427,.9828789,.98282,.18428105,42.027574,158.67789)" d="M1.51433 0C-.37857 .37857-2.27148 1.13573-4.54298 2.46077-2.27148 .75716-2.27148-.75716-4.54298-2.46077-2.27148-1.13573-.37857-.37857 1.51433 0Z" fill="#0000ff"/>
<path transform="matrix(-.18427,.9828789,.98282,.18428105,42.027574,158.67789)" stroke-width="1.59404" stroke-linecap="butt" stroke-linejoin="round" fill="none" stroke="#0000ff" d="M1.51433 0C-.37857 .37857-2.27148 1.13573-4.54298 2.46077-2.27148 .75716-2.27148-.75716-4.54298-2.46077-2.27148-1.13573-.37857-.37857 1.51433 0Z"/>
<path transform="matrix(.18433,.9828789,.98282,-.18434106,117.49606,158.64762)" d="M1.51433 0C-.37857 .37857-2.27148 1.13573-4.54298 2.46077-2.27148 .75716-2.27148-.75716-4.54298-2.46077-2.27148-1.13573-.37857-.37857 1.51433 0Z" fill="#0000ff"/>
<path transform="matrix(.18433,.9828789,.98282,-.18434106,117.49606,158.64762)" stroke-width="1.59404" stroke-linecap="butt" stroke-linejoin="round" fill="none" stroke="#0000ff" d="M1.51433 0C-.37857 .37857-2.27148 1.13573-4.54298 2.46077-2.27148 .75716-2.27148-.75716-4.54298-2.46077-2.27148-1.13573-.37857-.37857 1.51433 0Z"/>
<path transform="matrix(1,0,0,-1.00006,72.67799,90.07862)" d="M49.02995-72.82906H64.31283V-60.87377H49.02995Z" fill="#ffffff"/>
<use data-text="(" xlink:href="#font_4_85" transform="matrix(9.9626,0,0,-9.963197,122.703998,159.42478)" fill="#0000ff"/>
<use data-text="b" xlink:href="#font_4_35" transform="matrix(9.9626,0,0,-9.963197,126.57945,159.42478)" fill="#0000ff"/>
<use data-text=")" xlink:href="#font_4_86" transform="matrix(9.9626,0,0,-9.963197,132.11865,159.42478)" fill="#0000ff"/>
</svg>
