<svg xmlns="http://www.w3.org/2000/svg" xmlns:xlink="http://www.w3.org/1999/xlink" version="1.1" width="198" height="312" viewBox="0 0 198 312">
<defs>
<path id="font_1_2" d="M.08799744 .059265138C.084991458 .044265748 .07899475 .021255494 .07899475 .01625061 .07899475-.0017547608 .09298706-.0107421879 .10798645-.0107421879 .11999512-.0107421879 .13798523-.002746582 .14498902 .01725769 .14698792 .021255494 .18099976 .15730286 .18499756 .17530823 .19299317 .20831299 .21099854 .27833558 .21699524 .30534364 .22099304 .31835938 .24899292 .36535646 .272995 .38734437 .2809906 .39434815 .30999757 .42037965 .35299684 .42037965 .3789978 .42037965 .3939972 .4083557 .394989 .4083557 .36499024 .40335084 .34298707 .37934876 .34298707 .35334779 .34298707 .33735658 .35398866 .31835938 .3809967 .31835938 .4079895 .31835938 .43598939 .34135438 .43598939 .37734986 .43598939 .41235353 .4039917 .4423828 .35299684 .4423828 .28799439 .4423828 .24398804 .39335633 .22499085 .36535646 .21699524 .4103546 .18099976 .4423828 .13398743 .4423828 .08799744 .4423828 .068984989 .40335084 .05999756 .38534547 .041992189 .35134889 .0289917 .29133607 .0289917 .28834535 .0289917 .27833558 .038986207 .27833558 .040985109 .27833558 .050994874 .27833558 .051986696 .27934266 .057998659 .30134584 .07499695 .37234498 .09498596 .42037965 .1309967 .42037965 .147995 .42037965 .1619873 .41235353 .1619873 .37435914 .1619873 .35334779 .15899658 .3423462 .1459961 .29034425L.08799744 .059265138Z"/>
<path id="font_1_1" d="M.7599945 .69506838C.7599945 .69807437 .7579956 .7050781 .7489929 .7050781 .74598696 .7050781 .7449951 .70407107 .73399356 .69306948L.6639862 .61602786C.6549988 .6300354 .60899356 .7050781 .49798585 .7050781 .2749939 .7050781 .049987794 .48391725 .049987794 .25172425 .049987794 .08659363 .16799927-.022460938 .32099916-.022460938 .4079895-.022460938 .48399354 .017532349 .5369873 .063583377 .6299896 .14564514 .6469879 .2367096 .6469879 .23971558 .6469879 .24972534 .6369934 .24972534 .6349945 .24972534 .6289978 .24972534 .6239929 .24772644 .621994 .23971558 .61299136 .21069336 .58999636 .13963318 .5209961 .081588748 .45199586 .025543213 .3889923 .008529663 .33699037 .008529663 .24699402 .008529663 .14099121 .060577394 .14099121 .21670532 .14099121 .27374269 .1619873 .43588258 .2619934 .55296328 .32299806 .62402346 .4169922 .67407229 .5059967 .67407229 .60798647 .67407229 .6669922 .5970001 .6669922 .48091126 .6669922 .44088746 .6639862 .43988038 .6639862 .4298706 .6639862 .41986085 .6749878 .41986085 .67900088 .41986085 .69200137 .41986085 .69200137 .42185975 .69699099 .43988038L.7599945 .69506838Z"/>
<path id="font_2_6" d="M.44898988 .20022583C.44898988 .3193512 .36698915 .41944886 .25898744 .41944886 .21099854 .41944886 .16799927 .40345765 .13198853 .36842347V.5637665C.1519928 .5577698 .18499756 .55078127 .21699524 .55078127 .33999635 .55078127 .4099884 .6417694 .4099884 .6547699 .4099884 .6607666 .40699769 .6657715 .3999939 .6657715 .39898683 .6657715 .39698792 .6657715 .3919983 .66278079 .37199403 .6537781 .32299806 .6337738 .2559967 .6337738 .21598816 .6337738 .16999817 .6407776 .12298584 .6617737 .114990238 .66477969 .11299133 .66477969 .11099243 .66477969 .100997928 .66477969 .100997928 .6567688 .100997928 .6407776V.34439088C.100997928 .32637025 .100997928 .31835938 .114990238 .31835938 .12199402 .31835938 .12399292 .32136537 .12799073 .32736207 .13899231 .3433838 .17599488 .39746095 .25698854 .39746095 .30899049 .39746095 .33399964 .35139466 .34199525 .33337403 .35798646 .29632569 .3600006 .25727845 .3600006 .20722962 .3600006 .17222595 .3600006 .11222839 .33599855 .07035828 .31199647 .031463624 .2749939 .0055389406 .22898865 .0055389406 .1559906 .0055389406 .09899902 .058380128 .08198547 .11723328 .084991458 .1162262 .08799744 .115234378 .09899902 .115234378 .13198853 .115234378 .14898682 .14022827 .14898682 .16423035 .14898682 .18823242 .13198853 .21322632 .09899902 .21322632 .084991458 .21322632 .049987794 .20622254 .049987794 .16023255 .049987794 .07434082 .11898804-.022460938 .23098755-.022460938 .34700013-.022460938 .44898988 .073349 .44898988 .20022583Z"/>
<path id="font_2_2" d="M.2939911 .64004519C.2939911 .66400149 .2939911 .6660156 .2709961 .6660156 .20899964 .60227969 .12098694 .60227969 .08898926 .60227969V.57128909C.10899353 .57128909 .16799927 .57128909 .21998596 .5972748V.07902527C.21998596 .042999269 .21699524 .0309906 .1269989 .0309906H.09498596V0C.12998963 .0029907227 .21699524 .0029907227 .25698854 .0029907227 .29699708 .0029907227 .38398744 .0029907227 .4189911 0V.0309906H.3869934C.29699708 .0309906 .2939911 .041992189 .2939911 .07902527V.64004519Z"/>
<path id="font_2_1" d="M.45999146 .31976319C.45999146 .39982606 .45498658 .47988893 .41999818 .5539398 .37399293 .65000918 .2919922 .6660156 .25 .6660156 .18998719 .6660156 .116989139 .64001467 .07598877 .54693606 .04399109 .47789 .038986207 .39982606 .038986207 .31976319 .038986207 .24472046 .042999269 .15464783 .083999637 .07859802 .1269989-.0024719239 .19999695-.022460938 .24899292-.022460938 .30299378-.022460938 .3789978-.0014648438 .4229889 .09359741 .45498658 .16265869 .45999146 .2407074 .45999146 .31976319M.24899292-.00047302247C.20999146-.00047302247 .15098572 .024551392 .1329956 .12062073 .12199402 .18066406 .12199402 .2727356 .12199402 .3317871 .12199402 .39582826 .12199402 .46188355 .12998963 .5159149 .14898682 .63500979 .22399903 .64401248 .24899292 .64401248 .28199769 .64401248 .34799195 .6259918 .36698915 .52693179 .3769989 .47088624 .3769989 .39482118 .3769989 .3317871 .3769989 .25672914 .3769989 .18867493 .3659973 .12461853 .35099793 .029556275 .2939911-.00047302247 .24899292-.00047302247Z"/>
<path id="font_2_3" d="M.1269989 .07699585 .23298645 .18003845C.3889923 .31811524 .44898988 .3721466 .44898988 .47216798 .44898988 .5860901 .35899354 .6660156 .23699951 .6660156 .12399292 .6660156 .049987794 .57411196 .049987794 .48516847 .049987794 .4291687 .099990848 .4291687 .102996829 .4291687 .11999512 .4291687 .15499878 .44117738 .15499878 .48217774 .15499878 .5081787 .13699341 .5341797 .101989749 .5341797 .09399414 .5341797 .09199524 .5341797 .08898926 .5331726 .11199951 .59806826 .1659851 .63500979 .22399903 .63500979 .31498719 .63500979 .35798646 .5541382 .35798646 .47216798 .35798646 .39215089 .30799867 .31311036 .25299073 .25108338L.06098938 .036987306C.049987794 .025985718 .049987794 .023986817 .049987794 0H.42099L.44898988 .17404175H.42399598C.4189911 .14402771 .4119873 .1000061 .4019928 .084991458 .394989 .07699585 .32899476 .07699585 .30699159 .07699585H.1269989Z"/>
<path id="font_2_4" d="M.2899933 .35191346C.37199403 .37893678 .42999269 .4490509 .42999269 .52809146 .42999269 .6100464 .34199525 .6660156 .24598694 .6660156 .14498902 .6660156 .068984989 .60606387 .068984989 .53009036 .068984989 .49710084 .09098816 .47808839 .11999512 .47808839 .15098572 .47808839 .17098999 .50009158 .17098999 .5290985 .17098999 .57910159 .12399292 .57910159 .10899353 .57910159 .13999939 .62802127 .20599365 .64100649 .24198914 .64100649 .2829895 .64100649 .33799745 .6190338 .33799745 .5290985 .33799745 .51708987 .33599855 .45906068 .30999757 .4149933 .27999879 .36691285 .24598694 .36390687 .22099304 .36291505 .21299744 .36190797 .18899536 .35990907 .18199158 .35990907 .17399597 .35890199 .16699219 .35791017 .16699219 .3479004 .16699219 .33691407 .17399597 .33691407 .19099427 .33691407H.23498535C.31698609 .33691407 .35398866 .2686615 .35398866 .17037964 .35398866 .034469606 .2849884 .0055389406 .24099732 .0055389406 .19799805 .0055389406 .12298584 .022491456 .08799744 .08137512 .12298584 .07637024 .1539917 .09837341 .1539917 .1363678 .1539917 .17237854 .1269989 .19238281 .09799194 .19238281 .07398987 .19238281 .041992189 .17837525 .041992189 .1343689 .041992189 .043441774 .1349945-.022460938 .24398804-.022460938 .3659973-.022460938 .45700074 .06838989 .45700074 .17037964 .45700074 .252594 .3939972 .33088685 .2899933 .35191346Z"/>
<path id="font_2_5" d="M.2939911 .16503906V.07800293C.2939911 .041992189 .2919922 .0309906 .21798706 .0309906H.19699097V0C.23799134 .0029907227 .2899933 .0029907227 .33198548 .0029907227 .37399293 .0029907227 .4269867 .0029907227 .46798707 0V.0309906H.44699098C.37298585 .0309906 .37098695 .041992189 .37098695 .07800293V.16503906H.47099305V.19602967H.37098695V.65075686C.37098695 .67074587 .37098695 .6767578 .35499574 .6767578 .34599305 .6767578 .34298707 .6767578 .33499146 .66474917L.027999878 .19602967V.16503906H.2939911M.2999878 .19602967H.055999757L.2999878 .5688019V.19602967Z"/>
<path id="font_3_85" d="M.33099366-.2400055C.33099366-.23701477 .33099366-.23500061 .31399537-.21800232 .18899536-.0920105 .15699768 .09700012 .15699768 .25 .15699768 .42399598 .19499207 .59799197 .31799317 .72299197 .33099366 .7350006 .33099366 .7369995 .33099366 .73999026 .33099366 .746994 .32699586 .75 .32099916 .75 .31098939 .75 .22099304 .6819916 .1619873 .5549927 .11099243 .44499208 .09899902 .33399964 .09899902 .25 .09899902 .17199707 .10998535 .050994874 .16499329-.06201172 .22499085-.18501282 .31098939-.25 .32099916-.25 .32699586-.25 .33099366-.24700928 .33099366-.2400055Z"/>
<path id="font_3_35" d="M.5209961 .2163086C.5209961 .34335328 .4229889 .4423828 .30899049 .4423828 .23098755 .4423828 .18798828 .39537049 .17199707 .3773651V.69433596L.027999878 .68333438V.6523285C.09799194 .6523285 .10598755 .6453247 .10598755 .596344V.00024414063H.1309967L.16699219 .06227112C.18199158 .039260866 .22399903-.0107421879 .2979889-.0107421879 .4169922-.0107421879 .5209961 .08728027 .5209961 .2163086M.43798829 .21731568C.43798829 .18029785 .43598939 .120285037 .40699769 .07527161 .38598634 .044265748 .34799195 .011245728 .2939911 .011245728 .24899292 .011260986 .21299744 .03526306 .18899536 .072265628 .1749878 .09326172 .1749878 .09625244 .1749878 .11425781V.32034303C.1749878 .3393402 .1749878 .3403473 .18598938 .35635377 .22499085 .41236878 .27999879 .42037965 .3039856 .42037965 .34899903 .42037965 .3849945 .3943634 .40899659 .35635377 .43499757 .31533814 .43798829 .25831605 .43798829 .21730042V.21731568Z"/>
<path id="font_3_86" d="M.2889862 .25C.2889862 .32798768 .27799989 .44898988 .22299195 .56199648 .16299439 .68499758 .07699585 .75 .066986087 .75 .06098938 .75 .056991579 .74598696 .056991579 .73999026 .056991579 .7369995 .056991579 .7350006 .07598877 .71699526 .17399597 .6179962 .23098755 .45899964 .23098755 .25 .23098755 .07899475 .19400025-.09700012 .069992069-.2230072 .056991579-.23500061 .056991579-.23701477 .056991579-.2400055 .056991579-.2460022 .06098938-.25 .066986087-.25 .07699585-.25 .16699219-.18200684 .22599793-.055007936 .2769928 .054992677 .2889862 .16600037 .2889862 .25Z"/>
<path id="font_3_43" d="M.4149933 .119140628C.4149933 .12911988 .40499879 .12911988 .4019928 .12911988 .3929901 .12911988 .3909912 .12512207 .3889923 .119140628 .3600006 .026229859 .29499818 .014251709 .2579956 .014251709 .20498657 .014251709 .116989139 .0572052 .116989139 .21801758 .116989139 .38093568 .19898987 .42323304 .2519989 .42323304 .26098634 .42323304 .32398988 .42222596 .35899354 .38594056 .31799317 .38293458 .31199647 .3529358 .31199647 .3399353 .31199647 .31393434 .32998658 .2939453 .35798646 .2939453 .38398744 .2939453 .4039917 .3109436 .4039917 .34094239 .4039917 .40911866 .32798768 .4482422 .25099183 .4482422 .12599182 .4482422 .033996583 .3399353 .033996583 .21601868 .033996583 .08816528 .1329956-.0107421879 .24899292-.0107421879 .3829956-.0107421879 .4149933 .10914612 .4149933 .119140628Z"/>
</defs>
<path transform="matrix(1.00006,0,0,-1.00002,17.963234,299.12773)" stroke-width=".3985" stroke-linecap="butt" stroke-miterlimit="10" stroke-linejoin="miter" fill="none" stroke="#00aeef" d="M0 0H158.7397M0 11.33855H158.7397M0 22.6771H158.7397M0 34.01564H158.7397M0 45.35419H158.7397M0 56.69275H158.7397M0 68.0313H158.7397M0 79.36984H158.7397M0 90.70839H158.7397M0 102.04694H158.7397M0 113.3855H158.7397M0 124.72404H158.7397M0 136.06259H158.7397M0 147.40114H158.7397M0 158.7397H158.7397M0 170.07825H158.7397M0 181.4168H158.7397M0 192.75534H158.7397M0 204.09389H158.7397M0 215.43247H158.7397M0 226.77101H158.7397M0 238.10956H158.7397M0 249.4481H158.7397M0 260.78669H158.7397M0 272.1252H158.7397M0 283.46177H158.7397M0 0V283.46376M11.33855 0V283.46376M22.6771 0V283.46376M34.01564 0V283.46376M45.35419 0V283.46376M56.69275 0V283.46376M68.0313 0V283.46376M79.36984 0V283.46376M90.70839 0V283.46376M102.04694 0V283.46376M113.3855 0V283.46376M124.72404 0V283.46376M136.06259 0V283.46376M147.40114 0V283.46376M158.73572 0V283.46376M158.7397 283.46376"/>
<path transform="matrix(1.00006,0,0,-1.00002,17.963234,299.12773)" stroke-width=".79701" stroke-linecap="butt" stroke-miterlimit="10" stroke-linejoin="miter" fill="none" stroke="#000000" d="M0 0H168.64365"/>
<path transform="matrix(1.00006,0,0,-1.00002,186.617,299.12773)" d="M1.0361 0C-.25902 .25902-1.55415 .77707-3.1083 1.68365-1.55415 .51805-1.55415-.51805-3.1083-1.68365-1.55415-.77707-.25902-.25902 1.0361 0Z"/>
<path transform="matrix(1.00006,0,0,-1.00002,186.617,299.12773)" stroke-width=".79701" stroke-linecap="butt" stroke-linejoin="round" fill="none" stroke="#000000" d="M1.0361 0C-.25902 .25902-1.55415 .77707-3.1083 1.68365-1.55415 .51805-1.55415-.51805-3.1083-1.68365-1.55415-.77707-.25902-.25902 1.0361 0Z"/>
<use data-text="r" xlink:href="#font_1_2" transform="matrix(9.963197,0,0,-9.962799,191.77066,301.27278)"/>
<path transform="matrix(1.00006,0,0,-1.00002,17.963234,299.12773)" stroke-width=".79701" stroke-linecap="butt" stroke-miterlimit="10" stroke-linejoin="miter" fill="none" stroke="#000000" d="M0 0V293.36769"/>
<path transform="matrix(0,-1.00002,-1.00006,-0,17.963234,5.7541506)" d="M1.0361 0C-.25902 .25902-1.55415 .77707-3.1083 1.68365-1.55415 .51805-1.55415-.51805-3.1083-1.68365-1.55415-.77707-.25902-.25902 1.0361 0Z"/>
<path transform="matrix(0,-1.00002,-1.00006,-0,17.963234,5.7541506)" stroke-width=".79701" stroke-linecap="butt" stroke-linejoin="round" fill="none" stroke="#000000" d="M1.0361 0C-.25902 .25902-1.55415 .77707-3.1083 1.68365-1.55415 .51805-1.55415-.51805-3.1083-1.68365-1.55415-.77707-.25902-.25902 1.0361 0Z"/>
<use data-text="C" xlink:href="#font_1_1" transform="matrix(9.963197,0,0,-9.962799,6.4105379,7.723877)"/>
<path transform="matrix(1.00006,0,0,-1.00002,17.963234,299.12773)" stroke-width="1.19553" stroke-linecap="butt" stroke-miterlimit="10" stroke-linejoin="miter" fill="none" stroke="#00aeef" d="M56.69275 0V283.46376"/>
<path transform="matrix(1.00006,0,0,-1.00002,17.963234,299.12773)" stroke-width=".79701" stroke-linecap="butt" stroke-miterlimit="10" stroke-linejoin="miter" fill="none" stroke="#000000" d="M56.69275 .85034V-.85042"/>
<path transform="matrix(1.00006,0,0,-1.00002,17.963234,299.12773)" d="M53.20578-11.65446H60.179719V-3.2414799H53.20578Z" fill="#ffffff"/>
<use data-text="5" xlink:href="#font_2_6" transform="matrix(9.963197,0,0,-9.962799,72.16849,309.78593)"/>
<path transform="matrix(1.00006,0,0,-1.00002,17.963234,299.12773)" stroke-width="1.19553" stroke-linecap="butt" stroke-miterlimit="10" stroke-linejoin="miter" fill="none" stroke="#00aeef" d="M113.3855 0V283.46376"/>
<path transform="matrix(1.00006,0,0,-1.00002,17.963234,299.12773)" stroke-width=".79701" stroke-linecap="butt" stroke-miterlimit="10" stroke-linejoin="miter" fill="none" stroke="#000000" d="M113.3855 .85034V-.85042"/>
<path transform="matrix(1.00006,0,0,-1.00002,17.963234,299.12773)" d="M107.40782-11.65446H119.36316V-3.2414799H107.40782Z" fill="#ffffff"/>
<use data-text="1" xlink:href="#font_2_2" transform="matrix(9.963197,0,0,-9.962799,126.37373,309.78593)"/>
<use data-text="0" xlink:href="#font_2_1" transform="matrix(9.963197,0,0,-9.962799,131.35533,309.78593)"/>
<path transform="matrix(1.00006,0,0,-1.00002,17.963234,299.12773)" stroke-width="1.19553" stroke-linecap="butt" stroke-miterlimit="10" stroke-linejoin="miter" fill="none" stroke="#00aeef" d="M0 56.69275H158.7397"/>
<path transform="matrix(1.00006,0,0,-1.00002,17.963234,299.12773)" stroke-width=".79701" stroke-linecap="butt" stroke-miterlimit="10" stroke-linejoin="miter" fill="none" stroke="#000000" d="M3.40158 56.69275H-3.40158"/>
<path transform="matrix(1.00006,0,0,-1.00002,17.963234,299.12773)" d="M-17.748 52.48625H-5.792659V60.89923H-17.748Z" fill="#ffffff"/>
<use data-text="1" xlink:href="#font_2_2" transform="matrix(9.963197,0,0,-9.962799,1.210228,245.64365)"/>
<use data-text="0" xlink:href="#font_2_1" transform="matrix(9.963197,0,0,-9.962799,6.191826,245.64365)"/>
<path transform="matrix(1.00006,0,0,-1.00002,17.963234,299.12773)" stroke-width="1.19553" stroke-linecap="butt" stroke-miterlimit="10" stroke-linejoin="miter" fill="none" stroke="#00aeef" d="M0 113.3855H158.7397"/>
<path transform="matrix(1.00006,0,0,-1.00002,17.963234,299.12773)" stroke-width=".79701" stroke-linecap="butt" stroke-miterlimit="10" stroke-linejoin="miter" fill="none" stroke="#000000" d="M3.40158 113.3855H-3.40158"/>
<path transform="matrix(1.00006,0,0,-1.00002,17.963234,299.12773)" d="M-17.748 109.179H-5.792659V117.59198H-17.748Z" fill="#ffffff"/>
<use data-text="2" xlink:href="#font_2_3" transform="matrix(9.963197,0,0,-9.962799,1.210228,188.9505)"/>
<use data-text="0" xlink:href="#font_2_1" transform="matrix(9.963197,0,0,-9.962799,6.191826,188.9505)"/>
<path transform="matrix(1.00006,0,0,-1.00002,17.963234,299.12773)" stroke-width="1.19553" stroke-linecap="butt" stroke-miterlimit="10" stroke-linejoin="miter" fill="none" stroke="#00aeef" d="M0 170.07825H158.7397"/>
<path transform="matrix(1.00006,0,0,-1.00002,17.963234,299.12773)" stroke-width=".79701" stroke-linecap="butt" stroke-miterlimit="10" stroke-linejoin="miter" fill="none" stroke="#000000" d="M3.40158 170.07825H-3.40158"/>
<path transform="matrix(1.00006,0,0,-1.00002,17.963234,299.12773)" d="M-17.748 165.87177H-5.792659V174.28475H-17.748Z" fill="#ffffff"/>
<use data-text="3" xlink:href="#font_2_4" transform="matrix(9.963197,0,0,-9.962799,1.210228,132.25638)"/>
<use data-text="0" xlink:href="#font_2_1" transform="matrix(9.963197,0,0,-9.962799,6.191826,132.25638)"/>
<path transform="matrix(1.00006,0,0,-1.00002,17.963234,299.12773)" stroke-width="1.19553" stroke-linecap="butt" stroke-miterlimit="10" stroke-linejoin="miter" fill="none" stroke="#00aeef" d="M0 226.77101H158.7397"/>
<path transform="matrix(1.00006,0,0,-1.00002,17.963234,299.12773)" stroke-width=".79701" stroke-linecap="butt" stroke-miterlimit="10" stroke-linejoin="miter" fill="none" stroke="#000000" d="M3.40158 226.77101H-3.40158"/>
<path transform="matrix(1.00006,0,0,-1.00002,17.963234,299.12773)" d="M-17.748 222.56452H-5.792659V230.9775H-17.748Z" fill="#ffffff"/>
<use data-text="4" xlink:href="#font_2_5" transform="matrix(9.963197,0,0,-9.962799,1.210228,75.56224)"/>
<use data-text="0" xlink:href="#font_2_1" transform="matrix(9.963197,0,0,-9.962799,6.191826,75.56224)"/>
<path transform="matrix(1.00006,0,0,-1.00002,17.963234,299.12773)" stroke-width="1.19553" stroke-linecap="butt" stroke-miterlimit="10" stroke-linejoin="miter" fill="none" stroke="#00aeef" d="M0 283.46376H158.7397"/>
<path transform="matrix(1.00006,0,0,-1.00002,17.963234,299.12773)" stroke-width=".79701" stroke-linecap="butt" stroke-miterlimit="10" stroke-linejoin="miter" fill="none" stroke="#000000" d="M3.40158 283.46376H-3.40158"/>
<path transform="matrix(1.00006,0,0,-1.00002,17.963234,299.12773)" d="M-17.748 279.25727H-5.792659V287.67027H-17.748Z" fill="#ffffff"/>
<use data-text="5" xlink:href="#font_2_6" transform="matrix(9.963197,0,0,-9.962799,1.210228,18.868103)"/>
<use data-text="0" xlink:href="#font_2_1" transform="matrix(9.963197,0,0,-9.962799,6.191826,18.868103)"/>
<path transform="matrix(1.00006,0,0,-1.00002,17.963234,299.12773)" stroke-width="1.59404" stroke-linecap="butt" stroke-miterlimit="10" stroke-linejoin="miter" fill="none" stroke="#c64a86" d="M0 0C0 0 1.81013 .0307 2.50539 .0691 3.20062 .1075 4.31554 .1999 5.01077 .27672 5.70601 .35353 6.82092 .50752 7.51617 .62274 8.2114 .73798 9.32632 .95355 10.02156 1.10718 10.7168 1.2608 11.83173 1.53792 12.52695 1.72993 13.22218 1.92195 14.33711 2.26067 15.03235 2.4911 15.7276 2.72154 16.84251 3.12193 17.53773 3.39076 18.23299 3.6596 19.3479 4.12152 20.04315 4.42876 20.73837 4.73601 21.85329 5.25952 22.54854 5.60516 23.24377 5.95079 24.35869 6.53584 25.05392 6.91989 25.74916 7.30392 26.86409 7.95062 27.55933 8.3731 28.25456 8.79556 29.36949 9.50386 30.06471 9.96472 30.75996 10.42558 31.87488 11.19542 32.57011 11.69467 33.26535 12.19395 34.38026 13.02544 35.0755 13.56313 35.77075 14.10081 36.88567 14.99382 37.5809 15.5699 38.27614 16.14597 39.39105 17.1006 40.0863 17.71509 40.78154 18.32956 41.89647 19.34578 42.59169 19.99869 43.28693 20.65158 44.40186 21.72939 45.09709 22.42067 45.79233 23.11198 46.90724 24.2514 47.60248 24.9811 48.29773 25.7108 49.41264 26.91171 50.10786 27.67982 50.80312 28.44794 51.91803 29.71054 52.61327 30.51707 53.30852 31.32358 54.42343 32.6477 55.11867 33.49261 55.8139 34.33754 56.92883 35.72334 57.62407 36.60667 58.31929 37.49 59.43422 38.93732 60.12946 39.85905 60.82469 40.78078 61.93962 42.2897 62.63484 43.24983 63.3301 44.20998 64.445 45.7805 65.14024 46.77904 65.8355 47.77756 66.95041 49.4096 67.64563 50.44656 68.34088 51.48349 69.45581 53.17722 70.15105 54.25256 70.84627 55.32793 71.9612 57.08324 72.65643 58.19699 73.35167 59.31076 74.4666 61.12761 75.16182 62.27974 75.85706 63.43188 76.97198 65.31033 77.66722 66.50092 78.36246 67.69148 79.47739 69.63159 80.1726 70.86057 80.86786 72.08954 81.98277 74.09117 82.67801 75.35854 83.37325 76.62592 84.48816 78.68916 85.18341 79.99493 85.87865 81.3007 86.99358 83.42548 87.6888 84.76964 88.38403 86.11383 89.49896 88.30026 90.1942 89.68286 90.88943 91.06544 92.00436 93.31348 92.69958 94.73448 93.39482 96.15549 94.50975 98.46501 95.20499 99.92442 95.9002 101.38382 97.01514 103.75505 97.71037 105.25287 98.40562 106.75067 99.52054 109.18341 100.21577 110.71964 100.91101 112.25584 102.02592 114.75018 102.72118 116.3248 103.41641 117.89943 104.53134 120.45537 105.22656 122.06839 105.9218 123.68141 107.03673 126.29893 107.73196 127.95038 108.42719 129.6018 109.54211 132.28096 110.23735 133.97078 110.93259 135.66063 112.04752 138.40128 112.74275 140.12952 113.43799 141.85776 114.5529 144.6601 115.24815 146.42675 115.94339 148.19339 117.0583 151.05725 117.75354 152.86229 118.44878 154.66733 119.56369 157.59279 120.25894 159.43625 120.95416 161.2797 122.06909 164.26676 122.76433 166.14862 123.45956 168.03047 124.5745 171.07912 125.26971 172.99939 125.96495 174.91967 127.07988 178.0299 127.77512 179.98857 128.47037 181.94725 129.58528 185.1191 130.28052 187.11618 130.97576 189.11325 132.09067 192.34671 132.78592 194.38219 133.48114 196.41767 134.59606 199.71263 135.2913 201.78653 135.98654 203.86042 137.10146 207.21706 137.79669 209.32935 138.49193 211.44165 139.60686 214.8598 140.3021 217.0105 140.99735 219.1612 142.11226 222.64096 142.80748 224.83007 143.50273 227.01917 144.61765 230.56052 145.31288 232.78804 146.00812 235.01554 147.12303 238.6185 147.81829 240.88442 148.51352 243.15033 149.62844 246.81488 150.32367 249.1192 151.0189 251.42354 152.13382 255.14969 152.82907 257.49244 153.5243 259.83515 154.63924 263.6228 155.33446 266.00395 156.0297 268.38508 157.14463 272.2344 157.83986 274.65397 158.5351 277.0735 160.34525 283.4423 159.71346 281.2191"/>
<path transform="matrix(.2733664,-.96188929,-.9619277,-.27335549,177.68628,17.902985)" d="M1.51433 0C-.37857 .37857-2.27148 1.13573-4.54298 2.46077-2.27148 .75716-2.27148-.75716-4.54298-2.46077-2.27148-1.13573-.37857-.37857 1.51433 0Z" fill="#c64a86"/>
<path transform="matrix(.2733664,-.96188929,-.9619277,-.27335549,177.68628,17.902985)" stroke-width="1.59404" stroke-linecap="butt" stroke-linejoin="round" fill="none" stroke="#c64a86" d="M1.51433 0C-.37857 .37857-2.27148 1.13573-4.54298 2.46077-2.27148 .75716-2.27148-.75716-4.54298-2.46077-2.27148-1.13573-.37857-.37857 1.51433 0Z"/>
<path transform="matrix(1.00006,0,0,-1.00002,17.963234,299.12773)" d="M36.28333 12.75584C36.28333 14.00827 35.26805 15.02354 34.01564 15.02354 32.76321 15.02354 31.74794 14.00827 31.74794 12.75584 31.74794 11.50343 32.76321 10.48816 34.01564 10.48816 35.26805 10.48816 36.28333 11.50343 36.28333 12.75584ZM34.01564 12.75584" fill="#0000ff"/>
<path transform="matrix(1.00006,0,0,-1.00002,17.963234,299.12773)" stroke-width=".3985" stroke-linecap="butt" stroke-miterlimit="10" stroke-linejoin="miter" fill="none" stroke="#0000ff" d="M36.28333 12.75584C36.28333 14.00827 35.26805 15.02354 34.01564 15.02354 32.76321 15.02354 31.74794 14.00827 31.74794 12.75584 31.74794 11.50343 32.76321 10.48816 34.01564 10.48816 35.26805 10.48816 36.28333 11.50343 36.28333 12.75584ZM34.01564 12.75584"/>
<path transform="matrix(1.00006,0,0,-1.00002,17.963234,299.12773)" d="M18.5335 14.94766H33.81638V26.90295H18.5335Z" fill="#ffffff"/>
<use data-text="(" xlink:href="#font_3_85" transform="matrix(9.963197,0,0,-9.962799,37.494409,280.69236)"/>
<use data-text="b" xlink:href="#font_3_35" transform="matrix(9.963197,0,0,-9.962799,41.370096,280.69236)"/>
<use data-text=")" xlink:href="#font_3_86" transform="matrix(9.963197,0,0,-9.962799,46.90963,280.69236)"/>
<path transform="matrix(1.00006,0,0,-1.00002,17.963234,299.12773)" d="M92.97609 90.70839C92.97609 91.9608 91.9608 92.97609 90.70839 92.97609 89.45598 92.97609 88.44069 91.9608 88.44069 90.70839 88.44069 89.45598 89.45598 88.44069 90.70839 88.44069 91.9608 88.44069 92.97609 89.45598 92.97609 90.70839ZM90.70839 90.70839" fill="#0000ff"/>
<path transform="matrix(1.00006,0,0,-1.00002,17.963234,299.12773)" stroke-width=".3985" stroke-linecap="butt" stroke-miterlimit="10" stroke-linejoin="miter" fill="none" stroke="#0000ff" d="M92.97609 90.70839C92.97609 91.9608 91.9608 92.97609 90.70839 92.97609 89.45598 92.97609 88.44069 91.9608 88.44069 90.70839 88.44069 89.45598 89.45598 88.44069 90.70839 88.44069 91.9608 88.44069 92.97609 89.45598 92.97609 90.70839ZM90.70839 90.70839"/>
<path transform="matrix(1.00006,0,0,-1.00002,17.963234,299.12773)" d="M74.34952 90.90764H88.51657V102.86293H74.34952Z" fill="#ffffff"/>
<use data-text="(" xlink:href="#font_3_85" transform="matrix(9.963197,0,0,-9.962799,93.31375,204.73084)"/>
<use data-text="c" xlink:href="#font_3_43" transform="matrix(9.963197,0,0,-9.962799,97.18944,204.73084)"/>
<use data-text=")" xlink:href="#font_3_86" transform="matrix(9.963197,0,0,-9.962799,101.61309,204.73084)"/>
</svg>
