<svg xmlns="http://www.w3.org/2000/svg" xmlns:xlink="http://www.w3.org/1999/xlink" version="1.1" width="168" height="163" viewBox="0 0 168 163">
<defs>
<path id="font_1_1" d="M.33399964 .30233766C.33999635 .32835389 .36299134 .42037965 .43299867 .42037965 .43798829 .42037965 .46199037 .42037965 .48298646 .40734864 .45498658 .402359 .43499757 .37734986 .43499757 .35334779 .43499757 .33735658 .44599916 .31835938 .47299195 .31835938 .49499513 .31835938 .5269928 .3363495 .5269928 .37635804 .5269928 .42837525 .46798707 .4423828 .43399049 .4423828 .37599183 .4423828 .34098817 .38935853 .32899476 .36634828 .3039856 .43237306 .25 .4423828 .22099304 .4423828 .116989139 .4423828 .05999756 .3133545 .05999756 .28834535 .05999756 .27833558 .069992069 .27833558 .07199097 .27833558 .07998657 .27833558 .08299255 .28033448 .084991458 .28933717 .11898804 .39535523 .18499756 .42037965 .21899414 .42037965 .23799134 .42037965 .272995 .4113617 .272995 .35334779 .272995 .32235719 .2559967 .25532533 .21899414 .11528015 .20298767 .053268434 .16799927 .011245728 .12399292 .011245728 .117996219 .011245728 .09498596 .011245728 .07398987 .024276734 .09899902 .029266358 .12098694 .05027771 .12098694 .07827759 .12098694 .105270389 .09899902 .11328125 .083999637 .11328125 .053985597 .11328125 .0289917 .08728027 .0289917 .055267335 .0289917 .009246826 .07899475-.0107421879 .12298584-.0107421879 .18899536-.0107421879 .22499085 .059280397 .22799683 .0652771 .23999024 .028274537 .27598573-.0107421879 .33599855-.0107421879 .43899537-.0107421879 .49598695 .118270877 .49598695 .14328003 .49598695 .1532898 .4869995 .1532898 .48399354 .1532898 .47499085 .1532898 .47299195 .14929199 .47099305 .14228821 .43798829 .03527832 .36999513 .011245728 .33799745 .011245728 .29899598 .011245728 .2829895 .043273927 .2829895 .07727051 .2829895 .09927368 .2889862 .121276859 .2999878 .16529846L.33399964 .30233766Z"/>
<path id="font_1_2" d="M.48599244 .38136292C.48999024 .39537049 .48999024 .39736939 .48999024 .40437318 .48999024 .42237855 .47599793 .43138124 .46099855 .43138124 .45098878 .43138124 .43499757 .42536927 .42599488 .41036988 .42399598 .405365 .41600038 .37435914 .4119873 .35635377 .40499879 .33035279 .397995 .30334474 .3919983 .27633668L.34700013 .09628296C.34298707 .08126831 .2999878 .011245728 .23399353 .011245728 .18299866 .011245728 .17199707 .055267335 .17199707 .0922699 .17199707 .1382904 .18899536 .20030213 .22299195 .28833009 .23899842 .3293457 .24299622 .3403473 .24299622 .36035157 .24299622 .405365 .21099854 .4423828 .16099549 .4423828 .06599426 .4423828 .0289917 .29733277 .0289917 .28833009 .0289917 .27833558 .038986207 .27833558 .040985109 .27833558 .050994874 .27833558 .051986696 .28033448 .056991579 .29634095 .083999637 .3903656 .12399292 .42037965 .1579895 .42037965 .1659851 .42037965 .18299866 .42037965 .18299866 .3883667 .18299866 .36335755 .17298889 .3373413 .1659851 .31834413 .12599182 .21231079 .10798645 .1552887 .10798645 .10827637 .10798645 .019256592 .17098999-.0107421879 .22999573-.0107421879 .2689972-.0107421879 .30299378 .0062561037 .33099366 .03425598 .31799317-.017745972 .30599977-.06674194 .2659912-.11973572 .23999024-.15385437 .20199585-.18309021 .1559906-.18309021 .14199829-.18309021 .09700012-.18005371 .07998657-.14074707 .09599304-.14074707 .10899353-.14074707 .12298584-.1287384 .1329956-.11973572 .14299011-.10673523 .14299011-.08773804 .14299011-.056747438 .115997318-.052734376 .10598755-.052734376 .08299255-.052734376 .049987794-.068740848 .049987794-.11773682 .049987794-.16796875 .09399414-.20507813 .1559906-.20507813 .25898744-.20507813 .3619995-.11373901 .3899994-.00074768069L.48599244 .38136292Z"/>
<path id="font_2_1" d="M.6589966 .23046875C.6759949 .23046875 .69400027 .23046875 .69400027 .25045777 .69400027 .27046205 .6759949 .27046205 .6589966 .27046205H.117996219C.100997928 .27046205 .08299255 .27046205 .08299255 .25045777 .08299255 .23046875 .100997928 .23046875 .117996219 .23046875H.6589966Z"/>
<path id="font_3_1" d="M.2899933 .35191346C.37199403 .37893678 .42999269 .4490509 .42999269 .52809146 .42999269 .6100464 .34199525 .6660156 .24598694 .6660156 .14498902 .6660156 .068984989 .60606387 .068984989 .53009036 .068984989 .49710084 .09098816 .47808839 .11999512 .47808839 .15098572 .47808839 .17098999 .50009158 .17098999 .5290985 .17098999 .57910159 .12399292 .57910159 .10899353 .57910159 .13999939 .62802127 .20599365 .64100649 .24198914 .64100649 .2829895 .64100649 .33799745 .6190338 .33799745 .5290985 .33799745 .51708987 .33599855 .45906068 .30999757 .4149933 .27999879 .36691285 .24598694 .36390687 .22099304 .36291505 .21299744 .36190797 .18899536 .35990907 .18199158 .35990907 .17399597 .35890199 .16699219 .35791017 .16699219 .3479004 .16699219 .33691407 .17399597 .33691407 .19099427 .33691407H.23498535C.31698609 .33691407 .35398866 .2686615 .35398866 .17037964 .35398866 .034469606 .2849884 .0055389406 .24099732 .0055389406 .19799805 .0055389406 .12298584 .022491456 .08799744 .08137512 .12298584 .07637024 .1539917 .09837341 .1539917 .1363678 .1539917 .17237854 .1269989 .19238281 .09799194 .19238281 .07398987 .19238281 .041992189 .17837525 .041992189 .1343689 .041992189 .043441774 .1349945-.022460938 .24398804-.022460938 .3659973-.022460938 .45700074 .06838989 .45700074 .17037964 .45700074 .252594 .3939972 .33088685 .2899933 .35191346Z"/>
</defs>
<path transform="matrix(1,0,0,-1,72.36,90.073)" stroke-width=".3985" stroke-linecap="butt" stroke-miterlimit="10" stroke-linejoin="miter" fill="none" stroke="#00aeef" d="M-70.867-70.867H70.867M-70.867-56.69362H70.867M-70.867-42.5202H70.867M-70.867-28.3468H70.867M-70.867-14.17339H70.867M-70.867 0H70.867M-70.867 14.17339H70.867M-70.867 28.3468H70.867M-70.867 42.5202H70.867M-70.867 56.69362H70.867M-70.867 70.86205H70.867M-70.867-70.867V70.867M-56.69362-70.867V70.867M-42.5202-70.867V70.867M-28.3468-70.867V70.867M-14.17339-70.867V70.867M0-70.867V70.867M14.17339-70.867V70.867M28.3468-70.867V70.867M42.5202-70.867V70.867M56.69362-70.867V70.867M70.86205-70.867V70.867M70.867 70.867"/>
<path transform="matrix(1,0,0,-1,72.36,90.073)" stroke-width=".79701" stroke-linecap="butt" stroke-miterlimit="10" stroke-linejoin="miter" fill="none" stroke="#000000" d="M-70.867 0H83.6058"/>
<path transform="matrix(1,0,0,-1,155.96579,90.073)" d="M1.0361 0C-.25902 .25902-1.55415 .77707-3.1083 1.68365-1.55415 .51805-1.55415-.51805-3.1083-1.68365-1.55415-.77707-.25902-.25902 1.0361 0Z"/>
<path transform="matrix(1,0,0,-1,155.96579,90.073)" stroke-width=".79701" stroke-linecap="butt" stroke-linejoin="round" fill="none" stroke="#000000" d="M1.0361 0C-.25902 .25902-1.55415 .77707-3.1083 1.68365-1.55415 .51805-1.55415-.51805-3.1083-1.68365-1.55415-.77707-.25902-.25902 1.0361 0Z"/>
<use data-text="x" xlink:href="#font_1_1" transform="matrix(9.9626,0,0,-9.9626,161.119,92.218)"/>
<path transform="matrix(1,0,0,-1,72.36,90.073)" stroke-width=".79701" stroke-linecap="butt" stroke-miterlimit="10" stroke-linejoin="miter" fill="none" stroke="#000000" d="M0-70.867V83.6058"/>
<path transform="matrix(0,-1,-1,-0,72.36,6.467201)" d="M1.0361 0C-.25902 .25902-1.55415 .77707-3.1083 1.68365-1.55415 .51805-1.55415-.51805-3.1083-1.68365-1.55415-.77707-.25902-.25902 1.0361 0Z"/>
<path transform="matrix(0,-1,-1,-0,72.36,6.467201)" stroke-width=".79701" stroke-linecap="butt" stroke-linejoin="round" fill="none" stroke="#000000" d="M1.0361 0C-.25902 .25902-1.55415 .77707-3.1083 1.68365-1.55415 .51805-1.55415-.51805-3.1083-1.68365-1.55415-.77707-.25902-.25902 1.0361 0Z"/>
<use data-text="y" xlink:href="#font_1_2" transform="matrix(9.9626,0,0,-9.9626,65.391,6.2089998)"/>
<path transform="matrix(1,0,0,-1,72.36,90.073)" stroke-width="1.19553" stroke-linecap="butt" stroke-miterlimit="10" stroke-linejoin="miter" fill="none" stroke="#00aeef" d="M-42.5202-70.867V70.867"/>
<path transform="matrix(1,0,0,-1,72.36,90.073)" stroke-width=".79701" stroke-linecap="butt" stroke-miterlimit="10" stroke-linejoin="miter" fill="none" stroke="#000000" d="M-42.5202 2.12592V-2.12613"/>
<path transform="matrix(1,0,0,-1,72.36,90.073)" d="M-49.88159-13.7604H-35.158815V-4.51717H-49.88159Z" fill="#ffffff"/>
<use data-text="&#x2212;" xlink:href="#font_2_1" transform="matrix(9.9626,0,0,-9.9626,23.475007,102.006999)"/>
<use data-text="3" xlink:href="#font_3_1" transform="matrix(9.9626,0,0,-9.9626,31.223999,102.006999)"/>
<path transform="matrix(1,0,0,-1,72.36,90.073)" stroke-width="1.19553" stroke-linecap="butt" stroke-miterlimit="10" stroke-linejoin="miter" fill="none" stroke="#00aeef" d="M42.5202-70.867V70.867"/>
<path transform="matrix(1,0,0,-1,72.36,90.073)" stroke-width=".79701" stroke-linecap="butt" stroke-miterlimit="10" stroke-linejoin="miter" fill="none" stroke="#000000" d="M42.5202 2.12592V-2.12613"/>
<path transform="matrix(1,0,0,-1,72.36,90.073)" d="M39.03323-12.93018H46.00717V-4.5171997H39.03323Z" fill="#ffffff"/>
<use data-text="3" xlink:href="#font_3_1" transform="matrix(9.9626,0,0,-9.9626,112.39,102.006999)"/>
<path transform="matrix(1,0,0,-1,72.36,90.073)" stroke-width="1.19553" stroke-linecap="butt" stroke-miterlimit="10" stroke-linejoin="miter" fill="none" stroke="#00aeef" d="M-70.867-42.5202H70.867"/>
<path transform="matrix(1,0,0,-1,72.36,90.073)" stroke-width=".79701" stroke-linecap="butt" stroke-miterlimit="10" stroke-linejoin="miter" fill="none" stroke="#000000" d="M2.12592-42.5202H-2.12613"/>
<path transform="matrix(1,0,0,-1,72.36,90.073)" d="M-19.23996-47.14182H-4.5171797V-37.89859H-19.23996Z" fill="#ffffff"/>
<use data-text="&#x2212;" xlink:href="#font_2_1" transform="matrix(9.9626,0,0,-9.9626,54.115999,135.388)"/>
<use data-text="3" xlink:href="#font_3_1" transform="matrix(9.9626,0,0,-9.9626,61.86499,135.388)"/>
<path transform="matrix(1,0,0,-1,72.36,90.073)" stroke-width="1.19553" stroke-linecap="butt" stroke-miterlimit="10" stroke-linejoin="miter" fill="none" stroke="#00aeef" d="M-70.867 42.5202H70.867"/>
<path transform="matrix(1,0,0,-1,72.36,90.073)" stroke-width=".79701" stroke-linecap="butt" stroke-miterlimit="10" stroke-linejoin="miter" fill="none" stroke="#000000" d="M2.12592 42.5202H-2.12613"/>
<path transform="matrix(1,0,0,-1,72.36,90.073)" d="M-11.49112 38.3137H-4.5171806V46.72668H-11.49112Z" fill="#ffffff"/>
<use data-text="3" xlink:href="#font_3_1" transform="matrix(9.9626,0,0,-9.9626,61.864999,50.762998)"/>
<path transform="matrix(1,0,0,-1,72.36,90.073)" stroke-width="1.59404" stroke-linecap="butt" stroke-miterlimit="10" stroke-linejoin="miter" fill="none" stroke="#ff0000" d="M-48.42427 68.60251C-48.10706 67.06348-48.10706 67.06348-47.80603 65.63481-47.505 64.20616-47.02225 61.95193-46.72122 60.56935-46.42021 59.1868-45.93744 57.0067-45.63643 55.67021-45.33539 54.33376-44.85265 52.22736-44.5516 50.93695-44.2506 49.64653-43.76782 47.6141-43.46681 46.36978-43.16579 45.12547-42.68303 43.16698-42.382 41.96872-42.08098 40.77045-41.59822 38.8857-41.2972 37.73352-40.99617 36.58134-40.51341 34.77072-40.21239 33.66464-39.91138 32.55856-39.4286 30.82161-39.1276 29.76163-38.82655 28.70163-38.34381 27.03882-38.04277 26.02493-37.74176 25.01103-37.25899 23.42195-36.95798 22.45412-36.65695 21.48627-36.1742 19.97116-35.87317 19.0494-35.57214 18.12761-35.08939 16.68623-34.78836 15.81055-34.48734 14.93486-34.00458 13.56761-33.70357 12.73802-33.40254 11.90842-32.91978 10.6149-32.61876 9.83136-32.31775 9.04782-31.83498 7.82825-31.53395 7.0908-31.23293 6.35335-30.75017 5.20769-30.44914 4.51633-30.14813 3.82498-29.66536 2.75322-29.36435 2.10796-29.06332 1.46269-28.58057 .46489-28.27954-.1343-27.97852-.73349-27.49574-1.65758-27.19473-2.21068-26.8937-2.76381-26.41095-3.61374-26.10992-4.12077-25.80891-4.62779-25.32614-5.40402-25.02513-5.86497-24.72409-6.32594-24.24135-7.02823-23.9403-7.4431-23.6393-7.85797-23.15652-8.48633-22.85551-8.85512-22.55449-9.22389-22.07173-9.77832-21.7707-10.10104-21.46968-10.42377-20.98692-10.90443-20.6859-11.18109-20.38487-11.45775-19.90211-11.86452-19.60109-12.09505-19.30008-12.32559-18.8173-12.65823-18.5163-12.84268-18.21526-13.02713-17.73251-13.28604-17.43147-13.42445-17.13046-13.56287-16.64769-13.748-16.34668-13.84033-16.04565-13.93266-15.5629-14.0437-15.26187-14.08992-14.96085-14.13611-14.47809-14.17325-14.17706-14.17339-13.87604-14.17354-13.39328-14.1369-13.09225-14.09099-12.79124-14.04509-12.30847-13.9345-12.00746-13.8425-11.70642-13.7505-11.22368-13.566-10.92264-13.42792-10.62163-13.28983-10.13885-13.03137-9.83784-12.84723-9.53682-12.66307-9.05406-12.33092-8.75304-12.10066-8.45201-11.87042-7.96925-11.46413-7.66823-11.18779-7.3672-10.91147-6.88445-10.43144-6.58342-10.10905-6.28241-9.78667-5.79965-9.23268-5.49863-8.86421-5.19762-8.49573-4.71484-7.86784-4.41382-7.45326-4.1128-7.0387-3.63004-6.3369-3.32901-5.87622-3.028-5.41556-2.54523-4.63982-2.24422-4.1331-1.94319-3.62637-1.46043-2.77687-1.15941-2.2241-.85838-1.67131-.37563-.74786-.0746-.14899 .2264 .44986 .70915 1.4472 1.01018 2.09216 1.31119 2.73714 1.79396 3.80841 2.09497 4.49947 2.39601 5.19052 2.87875 6.33571 3.1798 7.07285 3.4808 7.81 3.96358 9.02911 4.26459 9.81232 4.56561 10.59554 5.04837 11.88841 5.3494 12.71768 5.65042 13.54695 6.13318 14.91377 6.4342 15.78914 6.73523 16.66449 7.21799 18.10522 7.51901 19.02669 7.82002 19.94814 8.3028 21.46278 8.6038 22.43033 8.90485 23.39786 9.38759 24.98643 9.68863 26.00006 9.98964 27.0137 10.47241 28.6762 10.77342 29.73589 11.07445 30.79558 11.5572 32.53185 11.85823 33.63759 12.15926 34.74335 12.64201 36.55356 12.94304 37.7054 13.24406 38.85724 13.72682 40.74136 14.02785 41.9393 14.32886 43.13724 14.81163 45.09526 15.11264 46.33928 15.41368 47.58331 15.89642 49.61526 16.19746 50.90538 16.49847 52.1955 16.98125 54.30138 17.28226 55.63756 17.58328 56.97374 18.06604 59.15338 18.36707 60.53563 18.66808 61.91785 19.15085 64.17145 19.45187 65.59978 19.7529 67.0281 20.53668 70.83002 20.07 68.56639"/>
<path transform="matrix(-.20186,-.97935,-.97935,.20186,23.93573,21.470498)" d="M1.51433 0C-.37857 .37857-2.27148 1.13573-4.54298 2.46077-2.27148 .75716-2.27148-.75716-4.54298-2.46077-2.27148-1.13573-.37857-.37857 1.51433 0Z" fill="#ff0000"/>
<path transform="matrix(-.20186,-.97935,-.97935,.20186,23.93573,21.470498)" stroke-width="1.59404" stroke-linecap="butt" stroke-linejoin="round" fill="none" stroke="#ff0000" d="M1.51433 0C-.37857 .37857-2.27148 1.13573-4.54298 2.46077-2.27148 .75716-2.27148-.75716-4.54298-2.46077-2.27148-1.13573-.37857-.37857 1.51433 0Z"/>
<path transform="matrix(.2019,-.97935,-.97935,-.2019,92.43,21.506615)" d="M1.51433 0C-.37857 .37857-2.27148 1.13573-4.54298 2.46077-2.27148 .75716-2.27148-.75716-4.54298-2.46077-2.27148-1.13573-.37857-.37857 1.51433 0Z" fill="#ff0000"/>
<path transform="matrix(.2019,-.97935,-.97935,-.2019,92.43,21.506615)" stroke-width="1.59404" stroke-linecap="butt" stroke-linejoin="round" fill="none" stroke="#ff0000" d="M1.51433 0C-.37857 .37857-2.27148 1.13573-4.54298 2.46077-2.27148 .75716-2.27148-.75716-4.54298-2.46077-2.27148-1.13573-.37857-.37857 1.51433 0Z"/>
</svg>
