<svg xmlns="http://www.w3.org/2000/svg" xmlns:xlink="http://www.w3.org/1999/xlink" version="1.1" width="168" height="163" viewBox="0 0 168 163">
<defs>
<path id="font_1_1" d="M.33399964 .30233766C.33999635 .32835389 .36299134 .42037965 .43299867 .42037965 .43798829 .42037965 .46199037 .42037965 .48298646 .40734864 .45498658 .402359 .43499757 .37734986 .43499757 .35334779 .43499757 .33735658 .44599916 .31835938 .47299195 .31835938 .49499513 .31835938 .5269928 .3363495 .5269928 .37635804 .5269928 .42837525 .46798707 .4423828 .43399049 .4423828 .37599183 .4423828 .34098817 .38935853 .32899476 .36634828 .3039856 .43237306 .25 .4423828 .22099304 .4423828 .116989139 .4423828 .05999756 .3133545 .05999756 .28834535 .05999756 .27833558 .069992069 .27833558 .07199097 .27833558 .07998657 .27833558 .08299255 .28033448 .084991458 .28933717 .11898804 .39535523 .18499756 .42037965 .21899414 .42037965 .23799134 .42037965 .272995 .4113617 .272995 .35334779 .272995 .32235719 .2559967 .25532533 .21899414 .11528015 .20298767 .053268434 .16799927 .011245728 .12399292 .011245728 .117996219 .011245728 .09498596 .011245728 .07398987 .024276734 .09899902 .029266358 .12098694 .05027771 .12098694 .07827759 .12098694 .105270389 .09899902 .11328125 .083999637 .11328125 .053985597 .11328125 .0289917 .08728027 .0289917 .055267335 .0289917 .009246826 .07899475-.0107421879 .12298584-.0107421879 .18899536-.0107421879 .22499085 .059280397 .22799683 .0652771 .23999024 .028274537 .27598573-.0107421879 .33599855-.0107421879 .43899537-.0107421879 .49598695 .118270877 .49598695 .14328003 .49598695 .1532898 .4869995 .1532898 .48399354 .1532898 .47499085 .1532898 .47299195 .14929199 .47099305 .14228821 .43798829 .03527832 .36999513 .011245728 .33799745 .011245728 .29899598 .011245728 .2829895 .043273927 .2829895 .07727051 .2829895 .09927368 .2889862 .121276859 .2999878 .16529846L.33399964 .30233766Z"/>
<path id="font_1_2" d="M.48599244 .38136292C.48999024 .39537049 .48999024 .39736939 .48999024 .40437318 .48999024 .42237855 .47599793 .43138124 .46099855 .43138124 .45098878 .43138124 .43499757 .42536927 .42599488 .41036988 .42399598 .405365 .41600038 .37435914 .4119873 .35635377 .40499879 .33035279 .397995 .30334474 .3919983 .27633668L.34700013 .09628296C.34298707 .08126831 .2999878 .011245728 .23399353 .011245728 .18299866 .011245728 .17199707 .055267335 .17199707 .0922699 .17199707 .1382904 .18899536 .20030213 .22299195 .28833009 .23899842 .3293457 .24299622 .3403473 .24299622 .36035157 .24299622 .405365 .21099854 .4423828 .16099549 .4423828 .06599426 .4423828 .0289917 .29733277 .0289917 .28833009 .0289917 .27833558 .038986207 .27833558 .040985109 .27833558 .050994874 .27833558 .051986696 .28033448 .056991579 .29634095 .083999637 .3903656 .12399292 .42037965 .1579895 .42037965 .1659851 .42037965 .18299866 .42037965 .18299866 .3883667 .18299866 .36335755 .17298889 .3373413 .1659851 .31834413 .12599182 .21231079 .10798645 .1552887 .10798645 .10827637 .10798645 .019256592 .17098999-.0107421879 .22999573-.0107421879 .2689972-.0107421879 .30299378 .0062561037 .33099366 .03425598 .31799317-.017745972 .30599977-.06674194 .2659912-.11973572 .23999024-.15385437 .20199585-.18309021 .1559906-.18309021 .14199829-.18309021 .09700012-.18005371 .07998657-.14074707 .09599304-.14074707 .10899353-.14074707 .12298584-.1287384 .1329956-.11973572 .14299011-.10673523 .14299011-.08773804 .14299011-.056747438 .115997318-.052734376 .10598755-.052734376 .08299255-.052734376 .049987794-.068740848 .049987794-.11773682 .049987794-.16796875 .09399414-.20507813 .1559906-.20507813 .25898744-.20507813 .3619995-.11373901 .3899994-.00074768069L.48599244 .38136292Z"/>
<path id="font_2_1" d="M.6589966 .23046875C.6759949 .23046875 .69400027 .23046875 .69400027 .25045777 .69400027 .27046205 .6759949 .27046205 .6589966 .27046205H.117996219C.100997928 .27046205 .08299255 .27046205 .08299255 .25045777 .08299255 .23046875 .100997928 .23046875 .117996219 .23046875H.6589966Z"/>
<path id="font_3_1" d="M.2899933 .35191346C.37199403 .37893678 .42999269 .4490509 .42999269 .52809146 .42999269 .6100464 .34199525 .6660156 .24598694 .6660156 .14498902 .6660156 .068984989 .60606387 .068984989 .53009036 .068984989 .49710084 .09098816 .47808839 .11999512 .47808839 .15098572 .47808839 .17098999 .50009158 .17098999 .5290985 .17098999 .57910159 .12399292 .57910159 .10899353 .57910159 .13999939 .62802127 .20599365 .64100649 .24198914 .64100649 .2829895 .64100649 .33799745 .6190338 .33799745 .5290985 .33799745 .51708987 .33599855 .45906068 .30999757 .4149933 .27999879 .36691285 .24598694 .36390687 .22099304 .36291505 .21299744 .36190797 .18899536 .35990907 .18199158 .35990907 .17399597 .35890199 .16699219 .35791017 .16699219 .3479004 .16699219 .33691407 .17399597 .33691407 .19099427 .33691407H.23498535C.31698609 .33691407 .35398866 .2686615 .35398866 .17037964 .35398866 .034469606 .2849884 .0055389406 .24099732 .0055389406 .19799805 .0055389406 .12298584 .022491456 .08799744 .08137512 .12298584 .07637024 .1539917 .09837341 .1539917 .1363678 .1539917 .17237854 .1269989 .19238281 .09799194 .19238281 .07398987 .19238281 .041992189 .17837525 .041992189 .1343689 .041992189 .043441774 .1349945-.022460938 .24398804-.022460938 .3659973-.022460938 .45700074 .06838989 .45700074 .17037964 .45700074 .252594 .3939972 .33088685 .2899933 .35191346Z"/>
<path id="font_3_2" d="M.44898988 .20022583C.44898988 .3193512 .36698915 .41944886 .25898744 .41944886 .21099854 .41944886 .16799927 .40345765 .13198853 .36842347V.5637665C.1519928 .5577698 .18499756 .55078127 .21699524 .55078127 .33999635 .55078127 .4099884 .6417694 .4099884 .6547699 .4099884 .6607666 .40699769 .6657715 .3999939 .6657715 .39898683 .6657715 .39698792 .6657715 .3919983 .66278079 .37199403 .6537781 .32299806 .6337738 .2559967 .6337738 .21598816 .6337738 .16999817 .6407776 .12298584 .6617737 .114990238 .66477969 .11299133 .66477969 .11099243 .66477969 .100997928 .66477969 .100997928 .6567688 .100997928 .6407776V.34439088C.100997928 .32637025 .100997928 .31835938 .114990238 .31835938 .12199402 .31835938 .12399292 .32136537 .12799073 .32736207 .13899231 .3433838 .17599488 .39746095 .25698854 .39746095 .30899049 .39746095 .33399964 .35139466 .34199525 .33337403 .35798646 .29632569 .3600006 .25727845 .3600006 .20722962 .3600006 .17222595 .3600006 .11222839 .33599855 .07035828 .31199647 .031463624 .2749939 .0055389406 .22898865 .0055389406 .1559906 .0055389406 .09899902 .058380128 .08198547 .11723328 .084991458 .1162262 .08799744 .115234378 .09899902 .115234378 .13198853 .115234378 .14898682 .14022827 .14898682 .16423035 .14898682 .18823242 .13198853 .21322632 .09899902 .21322632 .084991458 .21322632 .049987794 .20622254 .049987794 .16023255 .049987794 .07434082 .11898804-.022460938 .23098755-.022460938 .34700013-.022460938 .44898988 .073349 .44898988 .20022583Z"/>
</defs>
<path transform="matrix(1,0,0,-1.00008,72.36,146.7767)" stroke-width=".3985" stroke-linecap="butt" stroke-miterlimit="10" stroke-linejoin="miter" fill="none" stroke="#00aeef" d="M-70.867-14.17339H70.867M-70.867 0H70.867M-70.867 14.17339H70.867M-70.867 28.3468H70.867M-70.867 42.5202H70.867M-70.867 56.69362H70.867M-70.867 70.867H70.867M-70.867 85.04042H70.867M-70.867 99.21382H70.867M-70.867 113.38724H70.867M-70.867 127.55566H70.867M-70.867-14.17339V127.56062M-56.69362-14.17339V127.56062M-42.5202-14.17339V127.56062M-28.3468-14.17339V127.56062M-14.17339-14.17339V127.56062M0-14.17339V127.56062M14.17339-14.17339V127.56062M28.3468-14.17339V127.56062M42.5202-14.17339V127.56062M56.69362-14.17339V127.56062M70.86205-14.17339V127.56062M70.867 127.56062"/>
<path transform="matrix(1,0,0,-1.00008,72.36,146.7767)" stroke-width=".79701" stroke-linecap="butt" stroke-miterlimit="10" stroke-linejoin="miter" fill="none" stroke="#000000" d="M-70.867 0H83.6058"/>
<path transform="matrix(1,0,0,-1.00008,155.96579,146.7767)" d="M1.0361 0C-.25902 .25902-1.55415 .77707-3.1083 1.68365-1.55415 .51805-1.55415-.51805-3.1083-1.68365-1.55415-.77707-.25902-.25902 1.0361 0Z"/>
<path transform="matrix(1,0,0,-1.00008,155.96579,146.7767)" stroke-width=".79701" stroke-linecap="butt" stroke-linejoin="round" fill="none" stroke="#000000" d="M1.0361 0C-.25902 .25902-1.55415 .77707-3.1083 1.68365-1.55415 .51805-1.55415-.51805-3.1083-1.68365-1.55415-.77707-.25902-.25902 1.0361 0Z"/>
<use data-text="x" xlink:href="#font_1_1" transform="matrix(9.9626,0,0,-9.963397,161.119,148.92188)"/>
<path transform="matrix(1,0,0,-1.00008,72.36,146.7767)" stroke-width=".79701" stroke-linecap="butt" stroke-miterlimit="10" stroke-linejoin="miter" fill="none" stroke="#000000" d="M0-14.17339V140.29944"/>
<path transform="matrix(0,-1.00008,-1,-0,72.36,6.466049)" d="M1.0361 0C-.25902 .25902-1.55415 .77707-3.1083 1.68365-1.55415 .51805-1.55415-.51805-3.1083-1.68365-1.55415-.77707-.25902-.25902 1.0361 0Z"/>
<path transform="matrix(0,-1.00008,-1,-0,72.36,6.466049)" stroke-width=".79701" stroke-linecap="butt" stroke-linejoin="round" fill="none" stroke="#000000" d="M1.0361 0C-.25902 .25902-1.55415 .77707-3.1083 1.68365-1.55415 .51805-1.55415-.51805-3.1083-1.68365-1.55415-.77707-.25902-.25902 1.0361 0Z"/>
<use data-text="y" xlink:href="#font_1_2" transform="matrix(9.9626,0,0,-9.963397,65.391,6.2074587)"/>
<path transform="matrix(1,0,0,-1.00008,72.36,146.7767)" stroke-width="1.19553" stroke-linecap="butt" stroke-miterlimit="10" stroke-linejoin="miter" fill="none" stroke="#00aeef" d="M-42.5202-14.17339V127.56062"/>
<path transform="matrix(1,0,0,-1.00008,72.36,146.7767)" stroke-width=".79701" stroke-linecap="butt" stroke-miterlimit="10" stroke-linejoin="miter" fill="none" stroke="#000000" d="M-42.5202 2.12592V-2.12613"/>
<path transform="matrix(1,0,0,-1.00008,72.36,146.7767)" d="M-49.88159-13.7604H-35.158815V-4.51717H-49.88159Z" fill="#ffffff"/>
<use data-text="&#x2212;" xlink:href="#font_2_1" transform="matrix(9.9626,0,0,-9.963397,23.475007,158.71166)"/>
<use data-text="3" xlink:href="#font_3_1" transform="matrix(9.9626,0,0,-9.963397,31.223999,158.71166)"/>
<path transform="matrix(1,0,0,-1.00008,72.36,146.7767)" stroke-width="1.19553" stroke-linecap="butt" stroke-miterlimit="10" stroke-linejoin="miter" fill="none" stroke="#00aeef" d="M42.5202-14.17339V127.56062"/>
<path transform="matrix(1,0,0,-1.00008,72.36,146.7767)" stroke-width=".79701" stroke-linecap="butt" stroke-miterlimit="10" stroke-linejoin="miter" fill="none" stroke="#000000" d="M42.5202 2.12592V-2.12613"/>
<path transform="matrix(1,0,0,-1.00008,72.36,146.7767)" d="M39.03323-12.93018H46.00717V-4.5171997H39.03323Z" fill="#ffffff"/>
<use data-text="3" xlink:href="#font_3_1" transform="matrix(9.9626,0,0,-9.963397,112.39,158.71166)"/>
<path transform="matrix(1,0,0,-1.00008,72.36,146.7767)" stroke-width="1.19553" stroke-linecap="butt" stroke-miterlimit="10" stroke-linejoin="miter" fill="none" stroke="#00aeef" d="M-70.867 70.867H70.867"/>
<path transform="matrix(1,0,0,-1.00008,72.36,146.7767)" stroke-width=".79701" stroke-linecap="butt" stroke-miterlimit="10" stroke-linejoin="miter" fill="none" stroke="#000000" d="M2.12592 70.867H-2.12613"/>
<path transform="matrix(1,0,0,-1.00008,72.36,146.7767)" d="M-11.49112 66.66052H-4.5171806V75.0735H-11.49112Z" fill="#ffffff"/>
<use data-text="5" xlink:href="#font_3_2" transform="matrix(9.9626,0,0,-9.963397,61.864999,79.114299)"/>
<path transform="matrix(1,0,0,-1.00008,72.36,146.7767)" stroke-width="1.59404" stroke-linecap="butt" stroke-miterlimit="10" stroke-linejoin="miter" fill="none" stroke="#ff0000" d="M-44.45587-11.89078C-43.8083-7.83487-43.8083-7.83487-43.41966-5.45364-43.03102-3.07242-42.40775 .68463-42.0191 2.98903-41.63046 5.29344-41.00719 8.92734-40.61856 11.15494-40.2299 13.38252-39.60663 16.89322-39.218 19.04398-38.82935 21.19476-38.20607 24.58223-37.81744 26.65622-37.42879 28.7302-36.80551 31.99466-36.41689 33.99184-36.02823 35.98904-35.40495 39.13026-35.01633 41.05066-34.62767 42.97102-34.0044 45.98907-33.61577 47.83264-33.22711 49.6762-32.60384 52.57104-32.21521 54.3378-31.82655 56.10454-31.20328 58.87619-30.81465 60.56612-30.426 62.25604-29.80272 64.90451-29.4141 66.51762-29.02544 68.13072-28.40216 70.65599-28.01353 72.1923-27.62488 73.72862-27.0016 76.13087-26.61298 77.59038-26.22432 79.04988-25.60104 81.32872-25.21242 82.71141-24.82376 84.0941-24.2005 86.24994-23.81186 87.55583-23.4232 88.86172-22.79994 90.89435-22.4113 92.12343-22.02264 93.35251-21.39938 95.26196-21.01074 96.41423-20.62209 97.56648-19.99883 99.3527-19.61018 100.42816-19.22153 101.50365-18.59827 103.16687-18.20963 104.16551-17.82097 105.16418-17.19771 106.70396-16.80907 107.62582-16.42041 108.54765-15.79715 109.96446-15.40851 110.80951-15.01985 111.65457-14.39659 112.94818-14.00795 113.71638-13.6193 114.48459-12.99603 115.65483-12.60739 116.34622-12.21873 117.03761-11.59547 118.08481-11.20683 118.69945-10.81818 119.31407-10.19492 120.23825-9.80627 120.77605-9.41762 121.31386-8.79436 122.11467-8.40572 122.57562-8.01706 123.03659-7.3938 123.7142-7.00516 124.09837-6.6165 124.48256-5.99324 125.03712-5.6046 125.34451-5.21594 125.6519-4.59268 126.0833-4.20404 126.31384-3.81538 126.54437-3.19212 126.8524-2.80348 127.00612-2.41483 127.15985-1.79156 127.34485-1.40292 127.42178-1.01427 127.49873-.391 127.56049-.00237 127.56062 .38626 127.56078 1.0095 127.49953 1.39816 127.42287 1.7868 127.3462 2.41006 127.16154 2.79872 127.00807 3.18736 126.85458 3.81062 126.54695 4.19928 126.31665 4.58792 126.08633 5.21118 125.65532 5.59984 125.34819 5.98848 125.04108 6.61174 124.48703 7.0004 124.10313 7.38904 123.71922 8.0123 123.04198 8.40096 122.58125 8.7896 122.12054 9.41286 121.32008 9.80151 120.78253 10.19016 120.245 10.81342 119.32133 11.20207 118.70702 11.59071 118.09268 12.21397 117.04602 12.60263 116.35487 12.99127 115.66373 13.61453 114.49365 14.00319 113.7257 14.39183 112.95772 15.01509 111.66467 15.40375 110.81989 15.79239 109.97511 16.41565 108.55865 16.8043 107.63707 17.19295 106.71547 17.81621 105.17603 18.20486 104.17763 18.5935 103.17924 19.21677 101.51657 19.60542 100.44136 19.99406 99.36617 20.61732 97.58026 21.00598 96.42827 21.39462 95.27628 22.01788 93.36739 22.40654 92.13858 22.79518 90.90977 23.41844 88.87747 23.8071 87.57184 24.19574 86.26622 24.819 84.11095 25.20766 82.7285 25.5963 81.34605 26.21956 79.06738 26.60822 77.60811 26.99686 76.14886 27.62012 73.74718 28.00877 72.21112 28.39742 70.67506 29.02068 68.15018 29.40933 66.53731 29.79797 64.92444 30.42123 62.2763 30.80989 60.58665 31.19853 58.897 31.8218 56.12589 32.21045 54.3594 32.59909 52.59294 33.22235 49.69846 33.61101 47.85512 33.99965 46.01181 34.62291 42.99413 35.01157 41.074 35.4002 39.1539 36.02347 36.01317 36.41212 34.0163 36.80077 32.0194 37.42403 28.75546 37.81268 26.68175 38.20132 24.60803 38.82458 21.2209 39.21324 19.07037 39.60188 16.91985 40.22514 13.40952 40.6138 11.18217 41.00244 8.95482 41.6257 5.32132 42.01436 3.01717 42.403 .71298 43.02626-3.0437 43.4149-5.42467 43.80354-7.80562 44.81546-14.14311 44.45111-11.86072"/>
<path transform="matrix(-.15764,.98754897,.98747,.1576526,27.90414,158.66843)" d="M1.51433 0C-.37857 .37857-2.27148 1.13573-4.54298 2.46077-2.27148 .75716-2.27148-.75716-4.54298-2.46077-2.27148-1.13573-.37857-.37857 1.51433 0Z" fill="#ff0000"/>
<path transform="matrix(-.15764,.98754897,.98747,.1576526,27.90414,158.66843)" stroke-width="1.59404" stroke-linecap="butt" stroke-linejoin="round" fill="none" stroke="#ff0000" d="M1.51433 0C-.37857 .37857-2.27148 1.13573-4.54298 2.46077-2.27148 .75716-2.27148-.75716-4.54298-2.46077-2.27148-1.13573-.37857-.37857 1.51433 0Z"/>
<path transform="matrix(.15764,.98754897,.98747,-.1576526,116.8111,158.63837)" d="M1.51433 0C-.37857 .37857-2.27148 1.13573-4.54298 2.46077-2.27148 .75716-2.27148-.75716-4.54298-2.46077-2.27148-1.13573-.37857-.37857 1.51433 0Z" fill="#ff0000"/>
<path transform="matrix(.15764,.98754897,.98747,-.1576526,116.8111,158.63837)" stroke-width="1.59404" stroke-linecap="butt" stroke-linejoin="round" fill="none" stroke="#ff0000" d="M1.51433 0C-.37857 .37857-2.27148 1.13573-4.54298 2.46077-2.27148 .75716-2.27148-.75716-4.54298-2.46077-2.27148-1.13573-.37857-.37857 1.51433 0Z"/>
</svg>
