<svg xmlns="http://www.w3.org/2000/svg" xmlns:xlink="http://www.w3.org/1999/xlink" version="1.1" width="140" height="191" viewBox="0 0 140 191">
<defs>
<path id="font_1_1" d="M.33399964 .30233766C.33999635 .32835389 .36299134 .42037965 .43299867 .42037965 .43798829 .42037965 .46199037 .42037965 .48298646 .40734864 .45498658 .402359 .43499757 .37734986 .43499757 .35334779 .43499757 .33735658 .44599916 .31835938 .47299195 .31835938 .49499513 .31835938 .5269928 .3363495 .5269928 .37635804 .5269928 .42837525 .46798707 .4423828 .43399049 .4423828 .37599183 .4423828 .34098817 .38935853 .32899476 .36634828 .3039856 .43237306 .25 .4423828 .22099304 .4423828 .116989139 .4423828 .05999756 .3133545 .05999756 .28834535 .05999756 .27833558 .069992069 .27833558 .07199097 .27833558 .07998657 .27833558 .08299255 .28033448 .084991458 .28933717 .11898804 .39535523 .18499756 .42037965 .21899414 .42037965 .23799134 .42037965 .272995 .4113617 .272995 .35334779 .272995 .32235719 .2559967 .25532533 .21899414 .11528015 .20298767 .053268434 .16799927 .011245728 .12399292 .011245728 .117996219 .011245728 .09498596 .011245728 .07398987 .024276734 .09899902 .029266358 .12098694 .05027771 .12098694 .07827759 .12098694 .105270389 .09899902 .11328125 .083999637 .11328125 .053985597 .11328125 .0289917 .08728027 .0289917 .055267335 .0289917 .009246826 .07899475-.0107421879 .12298584-.0107421879 .18899536-.0107421879 .22499085 .059280397 .22799683 .0652771 .23999024 .028274537 .27598573-.0107421879 .33599855-.0107421879 .43899537-.0107421879 .49598695 .118270877 .49598695 .14328003 .49598695 .1532898 .4869995 .1532898 .48399354 .1532898 .47499085 .1532898 .47299195 .14929199 .47099305 .14228821 .43798829 .03527832 .36999513 .011245728 .33799745 .011245728 .29899598 .011245728 .2829895 .043273927 .2829895 .07727051 .2829895 .09927368 .2889862 .121276859 .2999878 .16529846L.33399964 .30233766Z"/>
<path id="font_1_2" d="M.48599244 .38136292C.48999024 .39537049 .48999024 .39736939 .48999024 .40437318 .48999024 .42237855 .47599793 .43138124 .46099855 .43138124 .45098878 .43138124 .43499757 .42536927 .42599488 .41036988 .42399598 .405365 .41600038 .37435914 .4119873 .35635377 .40499879 .33035279 .397995 .30334474 .3919983 .27633668L.34700013 .09628296C.34298707 .08126831 .2999878 .011245728 .23399353 .011245728 .18299866 .011245728 .17199707 .055267335 .17199707 .0922699 .17199707 .1382904 .18899536 .20030213 .22299195 .28833009 .23899842 .3293457 .24299622 .3403473 .24299622 .36035157 .24299622 .405365 .21099854 .4423828 .16099549 .4423828 .06599426 .4423828 .0289917 .29733277 .0289917 .28833009 .0289917 .27833558 .038986207 .27833558 .040985109 .27833558 .050994874 .27833558 .051986696 .28033448 .056991579 .29634095 .083999637 .3903656 .12399292 .42037965 .1579895 .42037965 .1659851 .42037965 .18299866 .42037965 .18299866 .3883667 .18299866 .36335755 .17298889 .3373413 .1659851 .31834413 .12599182 .21231079 .10798645 .1552887 .10798645 .10827637 .10798645 .019256592 .17098999-.0107421879 .22999573-.0107421879 .2689972-.0107421879 .30299378 .0062561037 .33099366 .03425598 .31799317-.017745972 .30599977-.06674194 .2659912-.11973572 .23999024-.15385437 .20199585-.18309021 .1559906-.18309021 .14199829-.18309021 .09700012-.18005371 .07998657-.14074707 .09599304-.14074707 .10899353-.14074707 .12298584-.1287384 .1329956-.11973572 .14299011-.10673523 .14299011-.08773804 .14299011-.056747438 .115997318-.052734376 .10598755-.052734376 .08299255-.052734376 .049987794-.068740848 .049987794-.11773682 .049987794-.16796875 .09399414-.20507813 .1559906-.20507813 .25898744-.20507813 .3619995-.11373901 .3899994-.00074768069L.48599244 .38136292Z"/>
<path id="font_2_1" d="M.6589966 .23046875C.6759949 .23046875 .69400027 .23046875 .69400027 .25045777 .69400027 .27046205 .6759949 .27046205 .6589966 .27046205H.117996219C.100997928 .27046205 .08299255 .27046205 .08299255 .25045777 .08299255 .23046875 .100997928 .23046875 .117996219 .23046875H.6589966Z"/>
<path id="font_3_1" d="M.2899933 .35191346C.37199403 .37893678 .42999269 .4490509 .42999269 .52809146 .42999269 .6100464 .34199525 .6660156 .24598694 .6660156 .14498902 .6660156 .068984989 .60606387 .068984989 .53009036 .068984989 .49710084 .09098816 .47808839 .11999512 .47808839 .15098572 .47808839 .17098999 .50009158 .17098999 .5290985 .17098999 .57910159 .12399292 .57910159 .10899353 .57910159 .13999939 .62802127 .20599365 .64100649 .24198914 .64100649 .2829895 .64100649 .33799745 .6190338 .33799745 .5290985 .33799745 .51708987 .33599855 .45906068 .30999757 .4149933 .27999879 .36691285 .24598694 .36390687 .22099304 .36291505 .21299744 .36190797 .18899536 .35990907 .18199158 .35990907 .17399597 .35890199 .16699219 .35791017 .16699219 .3479004 .16699219 .33691407 .17399597 .33691407 .19099427 .33691407H.23498535C.31698609 .33691407 .35398866 .2686615 .35398866 .17037964 .35398866 .034469606 .2849884 .0055389406 .24099732 .0055389406 .19799805 .0055389406 .12298584 .022491456 .08799744 .08137512 .12298584 .07637024 .1539917 .09837341 .1539917 .1363678 .1539917 .17237854 .1269989 .19238281 .09799194 .19238281 .07398987 .19238281 .041992189 .17837525 .041992189 .1343689 .041992189 .043441774 .1349945-.022460938 .24398804-.022460938 .3659973-.022460938 .45700074 .06838989 .45700074 .17037964 .45700074 .252594 .3939972 .33088685 .2899933 .35191346Z"/>
<path id="font_3_2" d="M.44898988 .20022583C.44898988 .3193512 .36698915 .41944886 .25898744 .41944886 .21099854 .41944886 .16799927 .40345765 .13198853 .36842347V.5637665C.1519928 .5577698 .18499756 .55078127 .21699524 .55078127 .33999635 .55078127 .4099884 .6417694 .4099884 .6547699 .4099884 .6607666 .40699769 .6657715 .3999939 .6657715 .39898683 .6657715 .39698792 .6657715 .3919983 .66278079 .37199403 .6537781 .32299806 .6337738 .2559967 .6337738 .21598816 .6337738 .16999817 .6407776 .12298584 .6617737 .114990238 .66477969 .11299133 .66477969 .11099243 .66477969 .100997928 .66477969 .100997928 .6567688 .100997928 .6407776V.34439088C.100997928 .32637025 .100997928 .31835938 .114990238 .31835938 .12199402 .31835938 .12399292 .32136537 .12799073 .32736207 .13899231 .3433838 .17599488 .39746095 .25698854 .39746095 .30899049 .39746095 .33399964 .35139466 .34199525 .33337403 .35798646 .29632569 .3600006 .25727845 .3600006 .20722962 .3600006 .17222595 .3600006 .11222839 .33599855 .07035828 .31199647 .031463624 .2749939 .0055389406 .22898865 .0055389406 .1559906 .0055389406 .09899902 .058380128 .08198547 .11723328 .084991458 .1162262 .08799744 .115234378 .09899902 .115234378 .13198853 .115234378 .14898682 .14022827 .14898682 .16423035 .14898682 .18823242 .13198853 .21322632 .09899902 .21322632 .084991458 .21322632 .049987794 .20622254 .049987794 .16023255 .049987794 .07434082 .11898804-.022460938 .23098755-.022460938 .34700013-.022460938 .44898988 .073349 .44898988 .20022583Z"/>
</defs>
<path transform="matrix(1.00008,0,0,-1,58.392229,104.246)" stroke-width=".3985" stroke-linecap="butt" stroke-miterlimit="10" stroke-linejoin="miter" fill="none" stroke="#00aeef" d="M-56.69362-85.04042H56.69362M-56.69362-70.867H56.69362M-56.69362-56.69362H56.69362M-56.69362-42.5202H56.69362M-56.69362-28.3468H56.69362M-56.69362-14.17339H56.69362M-56.69362 0H56.69362M-56.69362 14.17339H56.69362M-56.69362 28.3468H56.69362M-56.69362 42.5202H56.69362M-56.69362 56.69362H56.69362M-56.69362 70.867H56.69362M-56.69362 85.03543H56.69362M-56.69362-85.04042V85.04042M-42.5202-85.04042V85.04042M-28.3468-85.04042V85.04042M-14.17339-85.04042V85.04042M0-85.04042V85.04042M14.17339-85.04042V85.04042M28.3468-85.04042V85.04042M42.5202-85.04042V85.04042M56.68863-85.04042V85.04042M56.69362 85.04042"/>
<path transform="matrix(1.00008,0,0,-1,58.392229,104.246)" stroke-width=".79701" stroke-linecap="butt" stroke-miterlimit="10" stroke-linejoin="miter" fill="none" stroke="#000000" d="M-56.69362 0H69.4324"/>
<path transform="matrix(1.00008,0,0,-1,127.830188,104.246)" d="M1.0361 0C-.25902 .25902-1.55415 .77707-3.1083 1.68365-1.55415 .51805-1.55415-.51805-3.1083-1.68365-1.55415-.77707-.25902-.25902 1.0361 0Z"/>
<path transform="matrix(1.00008,0,0,-1,127.830188,104.246)" stroke-width=".79701" stroke-linecap="butt" stroke-linejoin="round" fill="none" stroke="#000000" d="M1.0361 0C-.25902 .25902-1.55415 .77707-3.1083 1.68365-1.55415 .51805-1.55415-.51805-3.1083-1.68365-1.55415-.77707-.25902-.25902 1.0361 0Z"/>
<use data-text="x" xlink:href="#font_1_1" transform="matrix(9.963397,0,0,-9.9626,132.98419,106.39101)"/>
<path transform="matrix(1.00008,0,0,-1,58.392229,104.246)" stroke-width=".79701" stroke-linecap="butt" stroke-miterlimit="10" stroke-linejoin="miter" fill="none" stroke="#000000" d="M0-85.04042V97.7792"/>
<path transform="matrix(0,-1,-1.00008,-0,58.392229,6.4668047)" d="M1.0361 0C-.25902 .25902-1.55415 .77707-3.1083 1.68365-1.55415 .51805-1.55415-.51805-3.1083-1.68365-1.55415-.77707-.25902-.25902 1.0361 0Z"/>
<path transform="matrix(0,-1,-1.00008,-0,58.392229,6.4668047)" stroke-width=".79701" stroke-linecap="butt" stroke-linejoin="round" fill="none" stroke="#000000" d="M1.0361 0C-.25902 .25902-1.55415 .77707-3.1083 1.68365-1.55415 .51805-1.55415-.51805-3.1083-1.68365-1.55415-.77707-.25902-.25902 1.0361 0Z"/>
<use data-text="y" xlink:href="#font_1_2" transform="matrix(9.963397,0,0,-9.9626,49.43051,6.208)"/>
<path transform="matrix(1.00008,0,0,-1,58.392229,104.246)" stroke-width="1.19553" stroke-linecap="butt" stroke-miterlimit="10" stroke-linejoin="miter" fill="none" stroke="#00aeef" d="M-42.5202-85.04042V85.04042"/>
<path transform="matrix(1.00008,0,0,-1,58.392229,104.246)" stroke-width=".79701" stroke-linecap="butt" stroke-miterlimit="10" stroke-linejoin="miter" fill="none" stroke="#000000" d="M-42.5202 2.12592V-2.12613"/>
<path transform="matrix(1.00008,0,0,-1,58.392229,104.246)" d="M-49.88159-13.7604H-35.158815V-4.51717H-49.88159Z" fill="#ffffff"/>
<use data-text="&#x2212;" xlink:href="#font_2_1" transform="matrix(9.963397,0,0,-9.9626,9.503326,116.18)"/>
<use data-text="3" xlink:href="#font_3_1" transform="matrix(9.963397,0,0,-9.9626,17.251954,116.18)"/>
<path transform="matrix(1.00008,0,0,-1,58.392229,104.246)" stroke-width="1.19553" stroke-linecap="butt" stroke-miterlimit="10" stroke-linejoin="miter" fill="none" stroke="#00aeef" d="M42.5202-85.04042V85.04042"/>
<path transform="matrix(1.00008,0,0,-1,58.392229,104.246)" stroke-width=".79701" stroke-linecap="butt" stroke-miterlimit="10" stroke-linejoin="miter" fill="none" stroke="#000000" d="M42.5202 2.12592V-2.12613"/>
<path transform="matrix(1.00008,0,0,-1,58.392229,104.246)" d="M39.03323-12.93018H46.00717V-4.5171997H39.03323Z" fill="#ffffff"/>
<use data-text="3" xlink:href="#font_3_1" transform="matrix(9.963397,0,0,-9.9626,98.42543,116.18)"/>
<path transform="matrix(1.00008,0,0,-1,58.392229,104.246)" stroke-width="1.19553" stroke-linecap="butt" stroke-miterlimit="10" stroke-linejoin="miter" fill="none" stroke="#00aeef" d="M-56.69362-70.867H56.69362"/>
<path transform="matrix(1.00008,0,0,-1,58.392229,104.246)" stroke-width=".79701" stroke-linecap="butt" stroke-miterlimit="10" stroke-linejoin="miter" fill="none" stroke="#000000" d="M2.12592-70.867H-2.12613"/>
<path transform="matrix(1.00008,0,0,-1,58.392229,104.246)" d="M-19.23996-75.48862H-4.5171797V-66.245388H-19.23996Z" fill="#ffffff"/>
<use data-text="&#x2212;" xlink:href="#font_2_1" transform="matrix(9.963397,0,0,-9.9626,40.146768,177.908)"/>
<use data-text="5" xlink:href="#font_3_2" transform="matrix(9.963397,0,0,-9.9626,47.895395,177.908)"/>
<path transform="matrix(1.00008,0,0,-1,58.392229,104.246)" stroke-width="1.19553" stroke-linecap="butt" stroke-miterlimit="10" stroke-linejoin="miter" fill="none" stroke="#00aeef" d="M-56.69362 70.867H56.69362"/>
<path transform="matrix(1.00008,0,0,-1,58.392229,104.246)" stroke-width=".79701" stroke-linecap="butt" stroke-miterlimit="10" stroke-linejoin="miter" fill="none" stroke="#000000" d="M2.12592 70.867H-2.12613"/>
<path transform="matrix(1.00008,0,0,-1,58.392229,104.246)" d="M-11.49112 66.66052H-4.5171806V75.0735H-11.49112Z" fill="#ffffff"/>
<use data-text="5" xlink:href="#font_3_2" transform="matrix(9.963397,0,0,-9.9626,47.896387,36.589006)"/>
<path transform="matrix(1.00008,0,0,-1,58.392229,104.246)" stroke-width="1.59404" stroke-linecap="butt" stroke-miterlimit="10" stroke-linejoin="miter" fill="none" stroke="#c64a86" d="M-55.65207 54.63039C-55.41356 54.15816-55.41356 54.15816-54.92192 53.20563-54.4303 52.25308-53.64189 50.75017-53.15025 49.82837-52.65863 48.90656-51.87021 47.45291-51.37857 46.56183-50.88695 45.67075-50.09854 44.26639-49.6069 43.40604-49.11528 42.54568-48.32686 41.19058-47.83522 40.36098-47.34358 39.53134-46.55519 38.22554-46.06355 37.42662-45.57191 36.62773-44.7835 35.3712-44.29187 34.60303-43.80023 33.83485-43.01183 32.6276-42.5202 31.89014-42.02856 31.1527-41.24016 29.9947-40.74854 29.28801-40.2569 28.58128-39.46848 27.47256-38.97685 26.79659-38.48521 26.12057-37.69681 25.06116-37.20518 24.4159-36.71355 23.77063-35.92513 22.76047-35.43349 22.14594-34.94186 21.53139-34.15346 20.57051-33.66182 19.98671-33.1702 19.4029-32.38177 18.49129-31.89014 17.9382-31.39851 17.38512-30.6101 16.52278-30.11847 16.00043-29.62685 15.47807-28.83844 14.66502-28.3468 14.17339-27.85516 13.68176-27.06676 12.91798-26.57512 12.45709-26.08348 11.99617-25.29507 11.28166-24.80345 10.8515-24.31181 10.42131-23.52339 9.75609-23.03177 9.35664-22.54013 8.9572-21.75172 8.34125-21.2601 7.97252-20.76846 7.60379-19.98004 7.03712-19.48842 6.69914-18.99678 6.36115-18.20837 5.84373-17.71674 5.53648-17.22511 5.2292-16.43669 4.76108-15.94505 4.48454-15.45343 4.20801-14.66502 3.78914-14.17339 3.54333-13.68176 3.29752-12.89336 2.92795-12.40172 2.71286-11.9101 2.49779-11.12167 2.17747-10.63004 1.99312-10.1384 1.80876-9.35 1.53773-8.85837 1.38411-8.36673 1.23047-7.57831 1.00871-7.08669 .88583-6.59505 .76292-5.80664 .59045-5.31502 .49826-4.82338 .4061-4.03496 .2829-3.54333 .22144-3.0517 .15999-2.26329 .08606-1.77167 .05534-1.28003 .02461-.49161 0 0 0 .49161 0 1.28003 .02461 1.77167 .05534 2.26329 .08606 3.0517 .15999 3.54333 .22144 4.03496 .2829 4.82338 .4061 5.31502 .49826 5.80664 .59045 6.59505 .76292 7.08669 .88583 7.57831 1.00871 8.36673 1.23047 8.85837 1.38411 9.35 1.53773 10.1384 1.80876 10.63004 1.99312 11.12167 2.17747 11.9101 2.49779 12.40172 2.71286 12.89336 2.92795 13.68176 3.29752 14.17339 3.54333 14.66502 3.78914 15.45343 4.20801 15.94505 4.48454 16.43669 4.76108 17.22511 5.2292 17.71674 5.53648 18.20837 5.84373 18.99678 6.36115 19.48842 6.69914 19.98004 7.03712 20.76846 7.60379 21.2601 7.97252 21.75172 8.34125 22.54013 8.9572 23.03177 9.35664 23.52339 9.75609 24.31181 10.42131 24.80345 10.8515 25.29507 11.28166 26.08348 11.99617 26.57512 12.45709 27.06676 12.91798 27.85516 13.68176 28.3468 14.17339 28.83844 14.66502 29.62685 15.47807 30.11847 16.00043 30.6101 16.52278 31.39851 17.38512 31.89014 17.9382 32.38177 18.49129 33.1702 19.4029 33.66182 19.98671 34.15346 20.57051 34.94186 21.53139 35.43349 22.14594 35.92513 22.76047 36.71355 23.77063 37.20518 24.4159 37.69681 25.06116 38.48521 26.12057 38.97685 26.79659 39.46848 27.47256 40.2569 28.58128 40.74854 29.28801 41.24016 29.9947 42.02856 31.1527 42.5202 31.89014 43.01183 32.6276 43.80023 33.83485 44.29187 34.60303 44.7835 35.3712 45.57191 36.62773 46.06355 37.42662 46.55519 38.22554 47.34358 39.53134 47.83522 40.36098 48.32686 41.19058 49.11528 42.54568 49.6069 43.40604 50.09854 44.26639 50.88695 45.67075 51.37857 46.56183 51.87021 47.45291 52.65863 48.90656 53.15025 49.82837 53.64189 50.75017 54.4303 52.25308 54.92192 53.20563 55.41356 54.15816 56.69362 56.69362 55.65207 54.63039"/>
<path transform="matrix(-.45065604,-.89265,-.8927214,.45062,2.7357064,49.61563)" d="M1.51433 0C-.37857 .37857-2.27148 1.13573-4.54298 2.46077-2.27148 .75716-2.27148-.75716-4.54298-2.46077-2.27148-1.13573-.37857-.37857 1.51433 0Z" fill="#c64a86"/>
<path transform="matrix(-.45065604,-.89265,-.8927214,.45062,2.7357064,49.61563)" stroke-width="1.59404" stroke-linecap="butt" stroke-linejoin="round" fill="none" stroke="#c64a86" d="M1.51433 0C-.37857 .37857-2.27148 1.13573-4.54298 2.46077-2.27148 .75716-2.27148-.75716-4.54298-2.46077-2.27148-1.13573-.37857-.37857 1.51433 0Z"/>
<path transform="matrix(.45065604,-.89265,-.8927214,-.45062,114.04875,49.61563)" d="M1.51433 0C-.37857 .37857-2.27148 1.13573-4.54298 2.46077-2.27148 .75716-2.27148-.75716-4.54298-2.46077-2.27148-1.13573-.37857-.37857 1.51433 0Z" fill="#c64a86"/>
<path transform="matrix(.45065604,-.89265,-.8927214,-.45062,114.04875,49.61563)" stroke-width="1.59404" stroke-linecap="butt" stroke-linejoin="round" fill="none" stroke="#c64a86" d="M1.51433 0C-.37857 .37857-2.27148 1.13573-4.54298 2.46077-2.27148 .75716-2.27148-.75716-4.54298-2.46077-2.27148-1.13573-.37857-.37857 1.51433 0Z"/>
</svg>
