<svg xmlns="http://www.w3.org/2000/svg" xmlns:xlink="http://www.w3.org/1999/xlink" version="1.1" width="221" height="245" viewBox="0 0 221 245">
<defs>
<path id="font_1_2" d="M.04499817-.122177127C.036987306-.15631104 .034988405-.16334534-.009002686-.16334534-.021011353-.16334534-.03201294-.16334534-.03201294-.18234253-.03201294-.19033814-.027008057-.19433594-.019012452-.19433594 .0079956059-.19433594 .036987306-.19134522 .06498718-.19134522 .09799194-.19134522 .13198853-.19433594 .1639862-.19433594 .16899109-.19433594 .18199158-.19433594 .18199158-.17434693 .18199158-.16334534 .17199707-.16334534 .1579895-.16334534 .10798645-.16334534 .10798645-.15631104 .10798645-.14727783 .10798645-.13523865 .1499939 .028259278 .15699768 .053268434 .16999817 .024261475 .19799805-.0107421879 .24899292-.0107421879 .36499024-.0107421879 .48999024 .13528443 .48999024 .28233338 .48999024 .37635804 .43299867 .4423828 .35699464 .4423828 .30699159 .4423828 .25898744 .40637208 .22599793 .36735536 .21598816 .42137147 .17298889 .4423828 .13598633 .4423828 .08999634 .4423828 .070999149 .4033661 .06199646 .38536073 .04399109 .35134889 .0309906 .29133607 .0309906 .28833009 .0309906 .27833558 .040985109 .27833558 .042999269 .27833558 .052993776 .27833558 .053985597 .2793274 .05999756 .30133058 .07699585 .37236024 .09700012 .42037965 .1329956 .42037965 .1499939 .42037965 .1639862 .41236878 .1639862 .37435914 .1639862 .35134889 .16099549 .3403473 .15699768 .323349L.04499817-.122177127M.22099304 .3123474C.22799683 .33935548 .25498963 .36735536 .272995 .38235475 .30799867 .41337586 .33699037 .42037965 .35398866 .42037965 .3939972 .42037965 .41799928 .38536073 .41799928 .32633973 .41799928 .26733399 .3849945 .15229798 .36698915 .11428833 .33299256 .044265748 .2849884 .011245728 .24798584 .011245728 .18199158 .011245728 .16899109 .0942688 .16899109 .10028076 .16899109 .10227966 .16899109 .104278568 .17199707 .11628723L.22099304 .3123474Z"/>
<path id="font_1_1" d="M.375 .6136017C.3809967 .63760378 .38398744 .6476135 .40299989 .65060427 .4119873 .6516113 .44400025 .6516113 .46398927 .6516113 .5349884 .6516113 .6459961 .6516113 .6459961 .5525818 .6459961 .51856997 .6299896 .44955445 .59098818 .41055299 .5649872 .38453675 .5119934 .35253907 .42199708 .35253907H.30999757L.375 .6136017M.5189972 .33953858C.6199951 .3615265 .7389984 .43154908 .7389984 .5325775 .7389984 .61860659 .6489868 .6826172 .5179901 .6826172H.23298645C.21299744 .6826172 .20399475 .6826172 .20399475 .6626129 .20399475 .6516113 .21299744 .6516113 .23199463 .6516113 .23399353 .6516113 .25299073 .6516113 .269989 .6496124 .28799439 .6476135 .29699708 .64660647 .29699708 .63360598 .29699708 .62960818 .29599 .6266022 .29299928 .6145935L.15899658 .07752991C.14898682 .038528444 .14698792 .030532837 .067993167 .030532837 .049987794 .030532837 .040985109 .030532837 .040985109 .010528564 .040985109-.00047302247 .052993776-.00047302247 .054992677-.00047302247 .08299255-.00047302247 .15299988 .002532959 .18099976 .002532959 .20899964 .002532959 .27999879-.00047302247 .30799867-.00047302247 .31599427-.00047302247 .32798768-.00047302247 .32798768 .01953125 .32798768 .030532837 .31900025 .030532837 .2999878 .030532837 .2630005 .030532837 .23498535 .030532837 .23498535 .048538209 .23498535 .054534913 .23699951 .059524537 .23799134 .0655365L.3039856 .3305359H.4229889C.5139923 .3305359 .5319977 .27453614 .5319977 .23953247 .5319977 .22453308 .5239868 .19352722 .5179901 .17053223 .5109863 .14253235 .5019989 .105529788 .5019989 .08552551 .5019989-.022460938 .621994-.022460938 .6349945-.022460938 .7200012-.022460938 .7549896 .07853699 .7549896 .0925293 .7549896 .104537967 .74398806 .104537967 .7429962 .104537967 .73399356 .104537967 .7319946 .09753418 .7299957 .090530399 .7049866 .016525269 .6619873-.00047302247 .6389923-.00047302247 .60598757-.00047302247 .598999 .021530152 .598999 .060531618 .598999 .091537479 .6049957 .14253235 .60899356 .17453003 .61099246 .1885376 .61299136 .20753479 .61299136 .2215271 .61299136 .2985382 .54599 .3295288 .5189972 .33953858Z"/>
<path id="font_2_2" d="M.2939911 .64004519C.2939911 .66400149 .2939911 .6660156 .2709961 .6660156 .20899964 .60227969 .12098694 .60227969 .08898926 .60227969V.57128909C.10899353 .57128909 .16799927 .57128909 .21998596 .5972748V.07902527C.21998596 .042999269 .21699524 .0309906 .1269989 .0309906H.09498596V0C.12998963 .0029907227 .21699524 .0029907227 .25698854 .0029907227 .29699708 .0029907227 .38398744 .0029907227 .4189911 0V.0309906H.3869934C.29699708 .0309906 .2939911 .041992189 .2939911 .07902527V.64004519Z"/>
<path id="font_2_1" d="M.45999146 .31976319C.45999146 .39982606 .45498658 .47988893 .41999818 .5539398 .37399293 .65000918 .2919922 .6660156 .25 .6660156 .18998719 .6660156 .116989139 .64001467 .07598877 .54693606 .04399109 .47789 .038986207 .39982606 .038986207 .31976319 .038986207 .24472046 .042999269 .15464783 .083999637 .07859802 .1269989-.0024719239 .19999695-.022460938 .24899292-.022460938 .30299378-.022460938 .3789978-.0014648438 .4229889 .09359741 .45498658 .16265869 .45999146 .2407074 .45999146 .31976319M.24899292-.00047302247C.20999146-.00047302247 .15098572 .024551392 .1329956 .12062073 .12199402 .18066406 .12199402 .2727356 .12199402 .3317871 .12199402 .39582826 .12199402 .46188355 .12998963 .5159149 .14898682 .63500979 .22399903 .64401248 .24899292 .64401248 .28199769 .64401248 .34799195 .6259918 .36698915 .52693179 .3769989 .47088624 .3769989 .39482118 .3769989 .3317871 .3769989 .25672914 .3769989 .18867493 .3659973 .12461853 .35099793 .029556275 .2939911-.00047302247 .24899292-.00047302247Z"/>
<path id="font_2_3" d="M.1269989 .07699585 .23298645 .18003845C.3889923 .31811524 .44898988 .3721466 .44898988 .47216798 .44898988 .5860901 .35899354 .6660156 .23699951 .6660156 .12399292 .6660156 .049987794 .57411196 .049987794 .48516847 .049987794 .4291687 .099990848 .4291687 .102996829 .4291687 .11999512 .4291687 .15499878 .44117738 .15499878 .48217774 .15499878 .5081787 .13699341 .5341797 .101989749 .5341797 .09399414 .5341797 .09199524 .5341797 .08898926 .5331726 .11199951 .59806826 .1659851 .63500979 .22399903 .63500979 .31498719 .63500979 .35798646 .5541382 .35798646 .47216798 .35798646 .39215089 .30799867 .31311036 .25299073 .25108338L.06098938 .036987306C.049987794 .025985718 .049987794 .023986817 .049987794 0H.42099L.44898988 .17404175H.42399598C.4189911 .14402771 .4119873 .1000061 .4019928 .084991458 .394989 .07699585 .32899476 .07699585 .30699159 .07699585H.1269989Z"/>
<path id="font_2_4" d="M.2899933 .35191346C.37199403 .37893678 .42999269 .4490509 .42999269 .52809146 .42999269 .6100464 .34199525 .6660156 .24598694 .6660156 .14498902 .6660156 .068984989 .60606387 .068984989 .53009036 .068984989 .49710084 .09098816 .47808839 .11999512 .47808839 .15098572 .47808839 .17098999 .50009158 .17098999 .5290985 .17098999 .57910159 .12399292 .57910159 .10899353 .57910159 .13999939 .62802127 .20599365 .64100649 .24198914 .64100649 .2829895 .64100649 .33799745 .6190338 .33799745 .5290985 .33799745 .51708987 .33599855 .45906068 .30999757 .4149933 .27999879 .36691285 .24598694 .36390687 .22099304 .36291505 .21299744 .36190797 .18899536 .35990907 .18199158 .35990907 .17399597 .35890199 .16699219 .35791017 .16699219 .3479004 .16699219 .33691407 .17399597 .33691407 .19099427 .33691407H.23498535C.31698609 .33691407 .35398866 .2686615 .35398866 .17037964 .35398866 .034469606 .2849884 .0055389406 .24099732 .0055389406 .19799805 .0055389406 .12298584 .022491456 .08799744 .08137512 .12298584 .07637024 .1539917 .09837341 .1539917 .1363678 .1539917 .17237854 .1269989 .19238281 .09799194 .19238281 .07398987 .19238281 .041992189 .17837525 .041992189 .1343689 .041992189 .043441774 .1349945-.022460938 .24398804-.022460938 .3659973-.022460938 .45700074 .06838989 .45700074 .17037964 .45700074 .252594 .3939972 .33088685 .2899933 .35191346Z"/>
<path id="font_2_5" d="M.2939911 .16503906V.07800293C.2939911 .041992189 .2919922 .0309906 .21798706 .0309906H.19699097V0C.23799134 .0029907227 .2899933 .0029907227 .33198548 .0029907227 .37399293 .0029907227 .4269867 .0029907227 .46798707 0V.0309906H.44699098C.37298585 .0309906 .37098695 .041992189 .37098695 .07800293V.16503906H.47099305V.19602967H.37098695V.65075686C.37098695 .67074587 .37098695 .6767578 .35499574 .6767578 .34599305 .6767578 .34298707 .6767578 .33499146 .66474917L.027999878 .19602967V.16503906H.2939911M.2999878 .19602967H.055999757L.2999878 .5688019V.19602967Z"/>
<path id="font_2_6" d="M.44898988 .20022583C.44898988 .3193512 .36698915 .41944886 .25898744 .41944886 .21099854 .41944886 .16799927 .40345765 .13198853 .36842347V.5637665C.1519928 .5577698 .18499756 .55078127 .21699524 .55078127 .33999635 .55078127 .4099884 .6417694 .4099884 .6547699 .4099884 .6607666 .40699769 .6657715 .3999939 .6657715 .39898683 .6657715 .39698792 .6657715 .3919983 .66278079 .37199403 .6537781 .32299806 .6337738 .2559967 .6337738 .21598816 .6337738 .16999817 .6407776 .12298584 .6617737 .114990238 .66477969 .11299133 .66477969 .11099243 .66477969 .100997928 .66477969 .100997928 .6567688 .100997928 .6407776V.34439088C.100997928 .32637025 .100997928 .31835938 .114990238 .31835938 .12199402 .31835938 .12399292 .32136537 .12799073 .32736207 .13899231 .3433838 .17599488 .39746095 .25698854 .39746095 .30899049 .39746095 .33399964 .35139466 .34199525 .33337403 .35798646 .29632569 .3600006 .25727845 .3600006 .20722962 .3600006 .17222595 .3600006 .11222839 .33599855 .07035828 .31199647 .031463624 .2749939 .0055389406 .22898865 .0055389406 .1559906 .0055389406 .09899902 .058380128 .08198547 .11723328 .084991458 .1162262 .08799744 .115234378 .09899902 .115234378 .13198853 .115234378 .14898682 .14022827 .14898682 .16423035 .14898682 .18823242 .13198853 .21322632 .09899902 .21322632 .084991458 .21322632 .049987794 .20622254 .049987794 .16023255 .049987794 .07434082 .11898804-.022460938 .23098755-.022460938 .34700013-.022460938 .44898988 .073349 .44898988 .20022583Z"/>
<path id="font_2_7" d="M.13198853 .327713V.35173036C.13198853 .6047821 .2559967 .64100649 .30699159 .64100649 .33099366 .64100649 .37298585 .634964 .394989 .6007538 .37998963 .6007538 .33999635 .6007538 .33999635 .5557556 .33999635 .524765 .3639984 .5097656 .38598634 .5097656 .4019928 .5097656 .43199159 .51875308 .43199159 .5577545 .43199159 .6178589 .3880005 .6660156 .30499269 .6660156 .1769867 .6660156 .041992189 .5367584 .041992189 .31570436 .041992189 .048553468 .1579895-.022460938 .25099183-.022460938 .3619995-.022460938 .45700074 .07156372 .45700074 .2036438 .45700074 .33070375 .36799623 .4267578 .25698854 .4267578 .18899536 .4267578 .1519928 .37573243 .13198853 .327713M.25099183 .0055389406C.18798828 .0055389406 .1579895 .06556702 .1519928 .080566409 .13398743 .127594 .13398743 .2076416 .13398743 .22564698 .13398743 .30369569 .1659851 .40374757 .2559967 .40374757 .27198792 .40374757 .31799317 .40374757 .34899903 .34172059 .36698915 .30470277 .36698915 .2536621 .36698915 .20463562 .36698915 .15661621 .36698915 .10658264 .34999085 .0705719 .31999208 .010528564 .27398683 .0055389406 .25099183 .0055389406Z"/>
</defs>
<path transform="matrix(1.00006,0,0,-1.00002,26.333558,231.0994)" stroke-width=".3985" stroke-linecap="butt" stroke-miterlimit="10" stroke-linejoin="miter" fill="none" stroke="#00aeef" d="M0 0H170.08086M0 14.17339H170.08086M0 28.3468H170.08086M0 42.5202H170.08086M0 56.69362H170.08086M0 70.867H170.08086M0 85.04042H170.08086M0 99.21382H170.08086M0 113.38724H170.08086M0 127.56062H170.08086M0 141.73404H170.08086M0 155.90744H170.08086M0 170.08086H170.08086M0 184.25424H170.08086M0 198.42766H170.08086M0 212.59609H170.08086M0 0V212.60106M14.17339 0V212.60106M28.3468 0V212.60106M42.5202 0V212.60106M56.69362 0V212.60106M70.867 0V212.60106M85.04042 0V212.60106M99.21382 0V212.60106M113.38724 0V212.60106M127.56062 0V212.60106M141.73404 0V212.60106M155.90744 0V212.60106M170.07587 0V212.60106M170.08086 212.60106"/>
<path transform="matrix(1.00006,0,0,-1.00002,26.333558,231.0994)" stroke-width=".79701" stroke-linecap="butt" stroke-miterlimit="10" stroke-linejoin="miter" fill="none" stroke="#000000" d="M0 0H182.81964"/>
<path transform="matrix(1.00006,0,0,-1.00002,209.16416,231.0994)" d="M1.0361 0C-.25902 .25902-1.55415 .77707-3.1083 1.68365-1.55415 .51805-1.55415-.51805-3.1083-1.68365-1.55415-.77707-.25902-.25902 1.0361 0Z"/>
<path transform="matrix(1.00006,0,0,-1.00002,209.16416,231.0994)" stroke-width=".79701" stroke-linecap="butt" stroke-linejoin="round" fill="none" stroke="#000000" d="M1.0361 0C-.25902 .25902-1.55415 .77707-3.1083 1.68365-1.55415 .51805-1.55415-.51805-3.1083-1.68365-1.55415-.77707-.25902-.25902 1.0361 0Z"/>
<use data-text="p" xlink:href="#font_1_2" transform="matrix(9.963197,0,0,-9.962799,214.31784,232.27542)"/>
<path transform="matrix(1.00006,0,0,-1.00002,26.333558,231.0994)" stroke-width=".79701" stroke-linecap="butt" stroke-miterlimit="10" stroke-linejoin="miter" fill="none" stroke="#000000" d="M0 0V225.33986"/>
<path transform="matrix(0,-1.00002,-1.00006,-0,26.333558,5.75502)" d="M1.0361 0C-.25902 .25902-1.55415 .77707-3.1083 1.68365-1.55415 .51805-1.55415-.51805-3.1083-1.68365-1.55415-.77707-.25902-.25902 1.0361 0Z"/>
<path transform="matrix(0,-1.00002,-1.00006,-0,26.333558,5.75502)" stroke-width=".79701" stroke-linecap="butt" stroke-linejoin="round" fill="none" stroke="#000000" d="M1.0361 0C-.25902 .25902-1.55415 .77707-3.1083 1.68365-1.55415 .51805-1.55415-.51805-3.1083-1.68365-1.55415-.77707-.25902-.25902 1.0361 0Z"/>
<use data-text="R" xlink:href="#font_1_1" transform="matrix(9.963197,0,0,-9.962799,14.971878,7.7239229)"/>
<path transform="matrix(1.00006,0,0,-1.00002,26.333558,231.0994)" stroke-width="1.19553" stroke-linecap="butt" stroke-miterlimit="10" stroke-linejoin="miter" fill="none" stroke="#00aeef" d="M28.3468 0V212.60106"/>
<path transform="matrix(1.00006,0,0,-1.00002,26.333558,231.0994)" stroke-width=".79701" stroke-linecap="butt" stroke-miterlimit="10" stroke-linejoin="miter" fill="none" stroke="#000000" d="M28.3468 2.12592V-2.12613"/>
<path transform="matrix(1.00006,0,0,-1.00002,26.333558,231.0994)" d="M22.36913-12.93018H34.32447V-4.5171997H22.36913Z" fill="#ffffff"/>
<use data-text="1" xlink:href="#font_2_2" transform="matrix(9.963197,0,0,-9.962799,49.69996,243.03363)"/>
<use data-text="0" xlink:href="#font_2_1" transform="matrix(9.963197,0,0,-9.962799,54.681558,243.03363)"/>
<path transform="matrix(1.00006,0,0,-1.00002,26.333558,231.0994)" stroke-width="1.19553" stroke-linecap="butt" stroke-miterlimit="10" stroke-linejoin="miter" fill="none" stroke="#00aeef" d="M56.69362 0V212.60106"/>
<path transform="matrix(1.00006,0,0,-1.00002,26.333558,231.0994)" stroke-width=".79701" stroke-linecap="butt" stroke-miterlimit="10" stroke-linejoin="miter" fill="none" stroke="#000000" d="M56.69362 2.12592V-2.12613"/>
<path transform="matrix(1.00006,0,0,-1.00002,26.333558,231.0994)" d="M50.71594-12.93018H62.67128V-4.5171997H50.71594Z" fill="#ffffff"/>
<use data-text="2" xlink:href="#font_2_3" transform="matrix(9.963197,0,0,-9.962799,78.04866,243.03363)"/>
<use data-text="0" xlink:href="#font_2_1" transform="matrix(9.963197,0,0,-9.962799,83.03026,243.03363)"/>
<path transform="matrix(1.00006,0,0,-1.00002,26.333558,231.0994)" stroke-width="1.19553" stroke-linecap="butt" stroke-miterlimit="10" stroke-linejoin="miter" fill="none" stroke="#00aeef" d="M85.04042 0V212.60106"/>
<path transform="matrix(1.00006,0,0,-1.00002,26.333558,231.0994)" stroke-width=".79701" stroke-linecap="butt" stroke-miterlimit="10" stroke-linejoin="miter" fill="none" stroke="#000000" d="M85.04042 2.12592V-2.12613"/>
<path transform="matrix(1.00006,0,0,-1.00002,26.333558,231.0994)" d="M79.06274-12.93018H91.018077V-4.5171997H79.06274Z" fill="#ffffff"/>
<use data-text="3" xlink:href="#font_2_4" transform="matrix(9.963197,0,0,-9.962799,106.397357,243.03363)"/>
<use data-text="0" xlink:href="#font_2_1" transform="matrix(9.963197,0,0,-9.962799,111.37895,243.03363)"/>
<path transform="matrix(1.00006,0,0,-1.00002,26.333558,231.0994)" stroke-width="1.19553" stroke-linecap="butt" stroke-miterlimit="10" stroke-linejoin="miter" fill="none" stroke="#00aeef" d="M113.38724 0V212.60106"/>
<path transform="matrix(1.00006,0,0,-1.00002,26.333558,231.0994)" stroke-width=".79701" stroke-linecap="butt" stroke-miterlimit="10" stroke-linejoin="miter" fill="none" stroke="#000000" d="M113.38724 2.12592V-2.12613"/>
<path transform="matrix(1.00006,0,0,-1.00002,26.333558,231.0994)" d="M107.40956-12.93018H119.3649V-4.5171997H107.40956Z" fill="#ffffff"/>
<use data-text="4" xlink:href="#font_2_5" transform="matrix(9.963197,0,0,-9.962799,134.74607,243.03363)"/>
<use data-text="0" xlink:href="#font_2_1" transform="matrix(9.963197,0,0,-9.962799,139.72766,243.03363)"/>
<path transform="matrix(1.00006,0,0,-1.00002,26.333558,231.0994)" stroke-width="1.19553" stroke-linecap="butt" stroke-miterlimit="10" stroke-linejoin="miter" fill="none" stroke="#00aeef" d="M141.73404 0V212.60106"/>
<path transform="matrix(1.00006,0,0,-1.00002,26.333558,231.0994)" stroke-width=".79701" stroke-linecap="butt" stroke-miterlimit="10" stroke-linejoin="miter" fill="none" stroke="#000000" d="M141.73404 2.12592V-2.12613"/>
<path transform="matrix(1.00006,0,0,-1.00002,26.333558,231.0994)" d="M135.75637-12.93018H147.7117V-4.5171997H135.75637Z" fill="#ffffff"/>
<use data-text="5" xlink:href="#font_2_6" transform="matrix(9.963197,0,0,-9.962799,163.09476,243.03363)"/>
<use data-text="0" xlink:href="#font_2_1" transform="matrix(9.963197,0,0,-9.962799,168.07636,243.03363)"/>
<path transform="matrix(1.00006,0,0,-1.00002,26.333558,231.0994)" stroke-width="1.19553" stroke-linecap="butt" stroke-miterlimit="10" stroke-linejoin="miter" fill="none" stroke="#00aeef" d="M170.08086 0V212.60106"/>
<path transform="matrix(1.00006,0,0,-1.00002,26.333558,231.0994)" stroke-width=".79701" stroke-linecap="butt" stroke-miterlimit="10" stroke-linejoin="miter" fill="none" stroke="#000000" d="M170.08086 2.12592V-2.12613"/>
<path transform="matrix(1.00006,0,0,-1.00002,26.333558,231.0994)" d="M164.10318-12.93018H176.05852V-4.5171997H164.10318Z" fill="#ffffff"/>
<use data-text="6" xlink:href="#font_2_7" transform="matrix(9.963197,0,0,-9.962799,191.44246,243.03363)"/>
<use data-text="0" xlink:href="#font_2_1" transform="matrix(9.963197,0,0,-9.962799,196.42406,243.03363)"/>
<path transform="matrix(1.00006,0,0,-1.00002,26.333558,231.0994)" stroke-width="1.19553" stroke-linecap="butt" stroke-miterlimit="10" stroke-linejoin="miter" fill="none" stroke="#00aeef" d="M0 70.867H170.08086"/>
<path transform="matrix(1.00006,0,0,-1.00002,26.333558,231.0994)" stroke-width=".79701" stroke-linecap="butt" stroke-miterlimit="10" stroke-linejoin="miter" fill="none" stroke="#000000" d="M2.12592 70.867H-2.12613"/>
<path transform="matrix(1.00006,0,0,-1.00002,26.333558,231.0994)" d="M-26.43533 66.66052H-4.517189V75.0735H-26.43533Z" fill="#ffffff"/>
<use data-text="1" xlink:href="#font_2_2" transform="matrix(9.963197,0,0,-9.962799,.89302828,163.44104)"/>
<use data-text="0" xlink:href="#font_2_1" transform="matrix(9.963197,0,0,-9.962799,5.874626,163.44104)"/>
<use data-text="0" xlink:href="#font_2_1" transform="matrix(9.963197,0,0,-9.962799,10.856232,163.44104)"/>
<use data-text="0" xlink:href="#font_2_1" transform="matrix(9.963197,0,0,-9.962799,15.83783,163.44104)"/>
<path transform="matrix(1.00006,0,0,-1.00002,26.333558,231.0994)" stroke-width="1.19553" stroke-linecap="butt" stroke-miterlimit="10" stroke-linejoin="miter" fill="none" stroke="#00aeef" d="M0 141.73404H170.08086"/>
<path transform="matrix(1.00006,0,0,-1.00002,26.333558,231.0994)" stroke-width=".79701" stroke-linecap="butt" stroke-miterlimit="10" stroke-linejoin="miter" fill="none" stroke="#000000" d="M2.12592 141.73404H-2.12613"/>
<path transform="matrix(1.00006,0,0,-1.00002,26.333558,231.0994)" d="M-26.43533 137.52754H-4.517189V145.94052H-26.43533Z" fill="#ffffff"/>
<use data-text="2" xlink:href="#font_2_3" transform="matrix(9.963197,0,0,-9.962799,.89302828,92.57262)"/>
<use data-text="0" xlink:href="#font_2_1" transform="matrix(9.963197,0,0,-9.962799,5.874626,92.57262)"/>
<use data-text="0" xlink:href="#font_2_1" transform="matrix(9.963197,0,0,-9.962799,10.856232,92.57262)"/>
<use data-text="0" xlink:href="#font_2_1" transform="matrix(9.963197,0,0,-9.962799,15.83783,92.57262)"/>
<path transform="matrix(1.00006,0,0,-1.00002,26.333558,231.0994)" stroke-width="1.19553" stroke-linecap="butt" stroke-miterlimit="10" stroke-linejoin="miter" fill="none" stroke="#00aeef" d="M0 212.60106H170.08086"/>
<path transform="matrix(1.00006,0,0,-1.00002,26.333558,231.0994)" stroke-width=".79701" stroke-linecap="butt" stroke-miterlimit="10" stroke-linejoin="miter" fill="none" stroke="#000000" d="M2.12592 212.60106H-2.12613"/>
<path transform="matrix(1.00006,0,0,-1.00002,26.333558,231.0994)" d="M-26.43533 208.39456H-4.517189V216.80754H-26.43533Z" fill="#ffffff"/>
<use data-text="3" xlink:href="#font_2_4" transform="matrix(9.963197,0,0,-9.962799,.89302828,21.704194)"/>
<use data-text="0" xlink:href="#font_2_1" transform="matrix(9.963197,0,0,-9.962799,5.874626,21.704194)"/>
<use data-text="0" xlink:href="#font_2_1" transform="matrix(9.963197,0,0,-9.962799,10.856232,21.704194)"/>
<use data-text="0" xlink:href="#font_2_1" transform="matrix(9.963197,0,0,-9.962799,15.83783,21.704194)"/>
<path transform="matrix(1.00006,0,0,-1.00002,26.333558,231.0994)" stroke-width="1.59404" stroke-linecap="butt" stroke-miterlimit="10" stroke-linejoin="miter" fill="none" stroke="#c64a86" d="M0 0C0 0 1.92004 8.55713 2.6575 11.77193 3.39494 14.98676 4.57756 20.05907 5.31502 23.17018 6.05246 26.2813 7.23508 31.1873 7.97252 34.19472 8.70996 37.20212 9.8926 41.9418 10.63004 44.84552 11.36748 47.74922 12.55011 52.32262 13.28755 55.12262 14.02501 57.92264 15.20761 62.32971 15.94505 65.02602 16.68251 67.72232 17.86513 71.9631 18.60258 74.5557 19.34003 77.14828 20.52264 81.22276 21.2601 83.71167 21.99754 86.20055 23.18015 90.10872 23.9176 92.49391 24.65504 94.87909 25.83768 98.62097 26.57512 100.90245 27.31256 103.18394 28.4952 106.75949 29.23264 108.93727 29.97008 111.11505 31.1527 114.5243 31.89014 116.59839 32.6276 118.67245 33.81021 121.9154 34.54765 123.88577 35.28511 125.85616 36.46773 128.9328 37.20518 130.79947 37.94263 132.66614 39.12523 135.57648 39.86269 137.33945 40.60013 139.10242 41.78275 141.84645 42.5202 143.5057 43.25764 145.16497 44.44028 147.7427 45.17772 149.29827 45.91516 150.85382 47.09778 153.26525 47.83522 154.71709 48.57266 156.16895 49.7553 158.41407 50.49274 159.76222 51.2302 161.11037 52.41281 163.1892 53.15025 164.43363 53.88771 165.67807 55.07031 167.59059 55.80777 168.73133 56.54521 169.87207 57.72783 171.61827 58.46529 172.6553 59.20273 173.69234 60.38535 175.27225 61.1228 176.20558 61.86024 177.13892 63.04286 178.55252 63.7803 179.38214 64.51775 180.21178 65.70038 181.45906 66.43782 182.18498 67.17526 182.9109 68.3579 183.99192 69.09534 184.61412 69.8328 185.23635 71.0154 186.15103 71.75284 186.66954 72.4903 187.18807 73.67291 187.93645 74.41037 188.35124 75.14781 188.76605 76.33043 189.34813 77.06789 189.65924 77.80533 189.97035 78.98793 190.38613 79.72539 190.59352 80.46283 190.80094 81.64546 191.0504 82.3829 191.1541 83.12035 191.2578 84.30298 191.34096 85.04042 191.34096 85.77786 191.34096 86.96048 191.2578 87.69792 191.1541 88.43538 191.0504 89.618 190.80094 90.35544 190.59352 91.0929 190.38613 92.2755 189.97035 93.01295 189.65924 93.7504 189.34813 94.93301 188.76605 95.67047 188.35124 96.40791 187.93645 97.59053 187.18807 98.32799 186.66954 99.06543 186.15103 100.24805 185.23635 100.98549 184.61412 101.72293 183.99192 102.90556 182.9109 103.643 182.18498 104.38045 181.45906 105.56308 180.21178 106.30052 179.38214 107.03798 178.55252 108.22058 177.13892 108.95802 176.20558 109.69548 175.27225 110.8781 173.69234 111.61555 172.6553 112.353 171.61827 113.53561 169.87207 114.27307 168.73133 115.01051 167.59059 116.19312 165.67807 116.93057 164.43363 117.66801 163.1892 118.85065 161.11037 119.58809 159.76222 120.32553 158.41407 121.50816 156.16895 122.2456 154.71709 122.98305 153.26525 124.16566 150.85382 124.9031 149.29827 125.64056 147.7427 126.82318 145.16497 127.56062 143.5057 128.29808 141.84645 129.4807 139.10242 130.21816 137.33945 130.9556 135.57648 132.1382 132.66614 132.87566 130.79947 133.6131 128.9328 134.79572 125.85616 135.53318 123.88577 136.27062 121.9154 137.45325 118.67245 138.19069 116.59839 138.92813 114.5243 140.11075 111.11505 140.84819 108.93727 141.58563 106.75949 142.76827 103.18394 143.5057 100.90245 144.24317 98.62097 145.42578 94.87909 146.16323 92.49391 146.90068 90.10872 148.08329 86.20055 148.82074 83.71167 149.55818 81.22276 150.7408 77.14828 151.47826 74.5557 152.2157 71.9631 153.39832 67.72232 154.13578 65.02602 154.87322 62.32971 156.05583 57.92264 156.79328 55.12262 157.53072 52.32262 158.71335 47.74922 159.45079 44.84552 160.18825 41.9418 161.37087 37.20212 162.1083 34.19472 162.84577 31.1873 164.02837 26.2813 164.76581 23.17018 165.50327 20.05907 166.68589 14.98676 167.42334 11.77193 168.16078 8.55713 170.08086 0 170.08086 0"/>
</svg>
