<svg xmlns="http://www.w3.org/2000/svg" xmlns:xlink="http://www.w3.org/1999/xlink" version="1.1" width="294" height="91" viewBox="0 0 294 91">
<defs>
<path id="font_1_1" d="M.37298585 .37835694C.35499574 .41537477 .32598878 .4423828 .2809906 .4423828 .1639862 .4423828 .039993287 .29533387 .039993287 .14929199 .039993287 .055267335 .09498596-.0107421879 .17298889-.0107421879 .19299317-.0107421879 .24299622-.0067443849 .30299378 .06427002 .31098939 .022247315 .34599305-.0107421879 .3939972-.0107421879 .42900086-.0107421879 .45199586 .012252808 .46798707 .044265748 .4850006 .08027649 .49798585 .14129639 .49798585 .14329529 .49798585 .1532898 .4889984 .1532898 .48599244 .1532898 .47599793 .1532898 .47499085 .14929199 .47200013 .13528443 .45498658 .07026672 .43699647 .011245728 .3959961 .011245728 .36898805 .011245728 .3659973 .037261964 .3659973 .057266237 .3659973 .07926941 .36799623 .08728027 .3789978 .13128662 .3899994 .17329407 .3919983 .18330384 .40098573 .22131348L.43699647 .36135865C.44400025 .38935853 .44400025 .39135743 .44400025 .39537049 .44400025 .41236878 .43199159 .42237855 .4149933 .42237855 .3909912 .42237855 .37599183 .4003601 .37298585 .37835694M.30799867 .119277957C.30299378 .10127258 .30299378 .09927368 .28799439 .08227539 .24398804 .027252198 .20298767 .011245728 .1749878 .011245728 .125 .011245728 .11099243 .06626892 .11099243 .105285648 .11099243 .1552887 .14299011 .27833558 .1659851 .32434083 .19699097 .38336183 .24198914 .42037965 .28199769 .42037965 .34700013 .42037965 .36099244 .3383484 .36099244 .33235169 .36099244 .32633973 .35899354 .32034303 .35798646 .31533814L.30799867 .119277957Z"/>
<path id="font_1_2" d="M.23899842 .68333438C.23899842 .6843262 .23899842 .69433596 .22599793 .69433596 .20298767 .69433596 .12998963 .6863251 .10398865 .6843262 .09599304 .68333438 .084991458 .6823273 .084991458 .6643219 .084991458 .6523285 .09399414 .6523285 .10899353 .6523285 .15699768 .6523285 .15899658 .6453247 .15899658 .6353302 .15899658 .6283264 .1499939 .5943451 .14498902 .573349L.06298828 .24731446C.050994874 .1973114 .04699707 .18130493 .04699707 .14628601 .04699707 .05126953 .099990848-.0107421879 .17399597-.0107421879 .2919922-.0107421879 .4149933 .1382904 .4149933 .28233338 .4149933 .37335206 .3619995 .4423828 .28199769 .4423828 .23599243 .4423828 .19499207 .41337586 .16499329 .38235475L.23899842 .68333438M.14498902 .30534364C.15098572 .3273468 .15098572 .3293457 .1599884 .3403473 .20899964 .405365 .2539978 .42037965 .27999879 .42037965 .31599427 .42037965 .34298707 .3903656 .34298707 .32633973 .34298707 .26733399 .30999757 .15229798 .2919922 .11428833 .25898744 .04725647 .21299744 .011245728 .17399597 .011245728 .13999939 .011245728 .10699463 .038253786 .10699463 .11227417 .10699463 .13128662 .10699463 .15029907 .12298584 .21331787L.14498902 .30534364Z"/>
<path id="font_2_2" d="M.68699648 .32714845C.70199587 .32714845 .72099307 .32714845 .72099307 .34713746 .72099307 .36714173 .70199587 .36714173 .6879883 .36714173H.08898926C.07499695 .36714173 .055999757 .36714173 .055999757 .34713746 .055999757 .32714845 .07499695 .32714845 .08999634 .32714845H.68699648M.6879883 .13284302C.70199587 .13284302 .72099307 .13284302 .72099307 .15284729 .72099307 .17285156 .70199587 .17285156 .68699648 .17285156H.08999634C.07499695 .17285156 .055999757 .17285156 .055999757 .15284729 .055999757 .13284302 .07499695 .13284302 .08898926 .13284302H.6879883Z"/>
<path id="font_2_1" d="M.40899659 .23046875H.6879883C.70199587 .23046875 .72099307 .23046875 .72099307 .25045777 .72099307 .27046205 .70199587 .27046205 .6879883 .27046205H.40899659V.5500183C.40899659 .56399539 .40899659 .5830078 .3889923 .5830078 .36898805 .5830078 .36898805 .56399539 .36898805 .5500183V.27046205H.08898926C.07499695 .27046205 .055999757 .27046205 .055999757 .25045777 .055999757 .23046875 .07499695 .23046875 .08898926 .23046875H.36898805V-.05000305C.36898805-.06401062 .36898805-.08300781 .3889923-.08300781 .40899659-.08300781 .40899659-.06401062 .40899659-.05000305V.23046875Z"/>
</defs>
<path transform="matrix(1.00005,0,0,-1.00005,17.14225,89.04885)" d="M0 28.3468V70.867H42.5202V28.3468ZM42.5202 70.867" fill="#fff200"/>
<path transform="matrix(1.00005,0,0,-1.00005,17.14225,89.04885)" stroke-width="1.19553" stroke-linecap="butt" stroke-miterlimit="10" stroke-linejoin="miter" fill="none" stroke="#000000" d="M0 28.3468V70.867H42.5202V28.3468ZM42.5202 70.867"/>
<path transform="matrix(1.00005,0,0,-1.00005,17.14225,89.04885)" d="M0 0V28.3468H42.5202V0ZM42.5202 28.3468" fill="#ec008c"/>
<path transform="matrix(1.00005,0,0,-1.00005,17.14225,89.04885)" stroke-width="1.19553" stroke-linecap="butt" stroke-miterlimit="10" stroke-linejoin="miter" fill="none" stroke="#000000" d="M0 0V28.3468H42.5202V0ZM42.5202 28.3468"/>
<path transform="matrix(1.00005,0,0,-1.00005,17.14225,89.04885)" d="M42.5202 28.3468V70.867H70.867V28.3468ZM70.867 70.867" fill="#abe1fa"/>
<path transform="matrix(1.00005,0,0,-1.00005,17.14225,89.04885)" stroke-width="1.19553" stroke-linecap="butt" stroke-miterlimit="10" stroke-linejoin="miter" fill="none" stroke="#000000" d="M42.5202 28.3468V70.867H70.867V28.3468ZM70.867 70.867"/>
<path transform="matrix(1.00005,0,0,-1.00005,17.14225,89.04885)" d="M42.5202 0V28.3468H70.867V0ZM70.867 28.3468" fill="#00ff00"/>
<path transform="matrix(1.00005,0,0,-1.00005,17.14225,89.04885)" stroke-width="1.19553" stroke-linecap="butt" stroke-miterlimit="10" stroke-linejoin="miter" fill="none" stroke="#000000" d="M42.5202 0V28.3468H70.867V0ZM70.867 28.3468"/>
<path transform="matrix(1.00005,0,0,-1.00005,17.14225,89.04885)" stroke-width=".3985" stroke-linecap="butt" stroke-miterlimit="10" stroke-linejoin="miter" fill="none" stroke="#000000" d="M-2.83484 28.3468C-4.32927 29.09398-5.32553 30.8375-5.32553 33.32819V44.62552C-5.32553 47.11621-6.3218 48.85973-7.81622 49.6069-6.3218 50.35408-5.32553 52.0976-5.32553 54.58829V65.88562C-5.32553 68.37631-4.32927 70.11983-2.83484 70.867"/>
<use data-text="a" xlink:href="#font_1_1" transform="matrix(9.963098,0,0,-9.963098,1.535469,41.58448)"/>
<path transform="matrix(1.00005,0,0,-1.00005,17.14225,89.04885)" stroke-width=".3985" stroke-linecap="butt" stroke-miterlimit="10" stroke-linejoin="miter" fill="none" stroke="#000000" d="M-2.83484 0C-4.32927 .74718-5.32553 2.49069-5.32553 4.98138V9.192C-5.32553 11.6827-6.3218 13.42621-7.81622 14.17339-6.3218 14.92056-5.32553 16.66408-5.32553 19.15477V23.36542C-5.32553 25.85611-4.32927 27.59962-2.83484 28.3468"/>
<use data-text="b" xlink:href="#font_1_2" transform="matrix(9.963098,0,0,-9.963098,2.5265198,78.33432)"/>
<path transform="matrix(1.00005,0,0,-1.00005,17.14225,89.04885)" stroke-width=".3985" stroke-linecap="butt" stroke-miterlimit="10" stroke-linejoin="miter" fill="none" stroke="#000000" d="M0 73.70186C.74718 75.19629 2.49069 76.19255 4.98138 76.19255H16.27872C18.76941 76.19255 20.51292 77.18881 21.2601 78.68324 22.00728 77.18881 23.7508 76.19255 26.24149 76.19255H37.53882C40.02951 76.19255 41.77303 75.19629 42.5202 73.70186"/>
<use data-text="a" xlink:href="#font_1_1" transform="matrix(9.963098,0,0,-9.963098,35.77018,7.8377916)"/>
<path transform="matrix(1.00005,0,0,-1.00005,17.14225,89.04885)" stroke-width=".3985" stroke-linecap="butt" stroke-miterlimit="10" stroke-linejoin="miter" fill="none" stroke="#000000" d="M42.5202 73.70186C43.26738 75.19629 45.0109 76.19255 47.50159 76.19255H51.71222C54.20291 76.19255 55.94643 77.18881 56.6936 78.68324 57.44078 77.18881 59.1843 76.19255 61.67499 76.19255H65.88562C68.37631 76.19255 70.11983 75.19629 70.867 73.70186"/>
<use data-text="b" xlink:href="#font_1_2" transform="matrix(9.963098,0,0,-9.963098,71.70097,7.8377916)"/>
<use data-text="=" xlink:href="#font_2_2" transform="matrix(9.963098,0,0,-9.963098,105.39966,55.441175)"/>
<path transform="matrix(1.00005,0,0,-1.00005,17.14225,89.04885)" d="M113.38724 14.17339V56.6936H155.90744V14.17339ZM155.90744 56.6936" fill="#fff200"/>
<path transform="matrix(1.00005,0,0,-1.00005,17.14225,89.04885)" stroke-width="1.19553" stroke-linecap="butt" stroke-miterlimit="10" stroke-linejoin="miter" fill="none" stroke="#000000" d="M113.38724 14.17339V56.6936H155.90744V14.17339ZM155.90744 56.6936"/>
<use data-text="+" xlink:href="#font_2_1" transform="matrix(9.963098,0,0,-9.963098,176.2702,56.104207)"/>
<path transform="matrix(1.00005,0,0,-1.00005,17.14225,89.04885)" d="M170.08086 14.17339V56.6936H198.42766V14.17339ZM198.42766 56.6936" fill="#abe1fa"/>
<path transform="matrix(1.00005,0,0,-1.00005,17.14225,89.04885)" stroke-width="1.19553" stroke-linecap="butt" stroke-miterlimit="10" stroke-linejoin="miter" fill="none" stroke="#000000" d="M170.08086 14.17339V56.6936H198.42766V14.17339ZM198.42766 56.6936"/>
<path transform="matrix(1.00005,0,0,-1.00005,17.14225,89.04885)" d="M202.6795 14.17339V56.6936H231.0263V14.17339ZM231.0263 56.6936" fill="#ec008c"/>
<path transform="matrix(1.00005,0,0,-1.00005,17.14225,89.04885)" stroke-width="1.19553" stroke-linecap="butt" stroke-miterlimit="10" stroke-linejoin="miter" fill="none" stroke="#000000" d="M202.6795 14.17339V56.6936H231.0263V14.17339ZM231.0263 56.6936"/>
<use data-text="+" xlink:href="#font_2_1" transform="matrix(9.963098,0,0,-9.963098,251.39295,56.104207)"/>
<path transform="matrix(1.00005,0,0,-1.00005,17.14225,89.04885)" d="M246.61714 21.26009V49.60689H274.96397V21.26009ZM274.96397 49.60689" fill="#00ff00"/>
<path transform="matrix(1.00005,0,0,-1.00005,17.14225,89.04885)" stroke-width="1.19553" stroke-linecap="butt" stroke-miterlimit="10" stroke-linejoin="miter" fill="none" stroke="#000000" d="M246.61714 21.26009V49.60689H274.96397V21.26009ZM274.96397 49.60689"/>
</svg>
