<svg xmlns="http://www.w3.org/2000/svg" xmlns:xlink="http://www.w3.org/1999/xlink" version="1.1" width="205" height="122" viewBox="0 0 205 122">
<defs>
<path id="font_1_1" d="M.33399964 .30233766C.33999635 .32835389 .36299134 .42037965 .43299867 .42037965 .43798829 .42037965 .46199037 .42037965 .48298646 .40734864 .45498658 .402359 .43499757 .37734986 .43499757 .35334779 .43499757 .33735658 .44599916 .31835938 .47299195 .31835938 .49499513 .31835938 .5269928 .3363495 .5269928 .37635804 .5269928 .42837525 .46798707 .4423828 .43399049 .4423828 .37599183 .4423828 .34098817 .38935853 .32899476 .36634828 .3039856 .43237306 .25 .4423828 .22099304 .4423828 .116989139 .4423828 .05999756 .3133545 .05999756 .28834535 .05999756 .27833558 .069992069 .27833558 .07199097 .27833558 .07998657 .27833558 .08299255 .28033448 .084991458 .28933717 .11898804 .39535523 .18499756 .42037965 .21899414 .42037965 .23799134 .42037965 .272995 .4113617 .272995 .35334779 .272995 .32235719 .2559967 .25532533 .21899414 .11528015 .20298767 .053268434 .16799927 .011245728 .12399292 .011245728 .117996219 .011245728 .09498596 .011245728 .07398987 .024276734 .09899902 .029266358 .12098694 .05027771 .12098694 .07827759 .12098694 .105270389 .09899902 .11328125 .083999637 .11328125 .053985597 .11328125 .0289917 .08728027 .0289917 .055267335 .0289917 .009246826 .07899475-.0107421879 .12298584-.0107421879 .18899536-.0107421879 .22499085 .059280397 .22799683 .0652771 .23999024 .028274537 .27598573-.0107421879 .33599855-.0107421879 .43899537-.0107421879 .49598695 .118270877 .49598695 .14328003 .49598695 .1532898 .4869995 .1532898 .48399354 .1532898 .47499085 .1532898 .47299195 .14929199 .47099305 .14228821 .43798829 .03527832 .36999513 .011245728 .33799745 .011245728 .29899598 .011245728 .2829895 .043273927 .2829895 .07727051 .2829895 .09927368 .2889862 .121276859 .2999878 .16529846L.33399964 .30233766Z"/>
<path id="font_1_2" d="M.48599244 .38136292C.48999024 .39537049 .48999024 .39736939 .48999024 .40437318 .48999024 .42237855 .47599793 .43138124 .46099855 .43138124 .45098878 .43138124 .43499757 .42536927 .42599488 .41036988 .42399598 .405365 .41600038 .37435914 .4119873 .35635377 .40499879 .33035279 .397995 .30334474 .3919983 .27633668L.34700013 .09628296C.34298707 .08126831 .2999878 .011245728 .23399353 .011245728 .18299866 .011245728 .17199707 .055267335 .17199707 .0922699 .17199707 .1382904 .18899536 .20030213 .22299195 .28833009 .23899842 .3293457 .24299622 .3403473 .24299622 .36035157 .24299622 .405365 .21099854 .4423828 .16099549 .4423828 .06599426 .4423828 .0289917 .29733277 .0289917 .28833009 .0289917 .27833558 .038986207 .27833558 .040985109 .27833558 .050994874 .27833558 .051986696 .28033448 .056991579 .29634095 .083999637 .3903656 .12399292 .42037965 .1579895 .42037965 .1659851 .42037965 .18299866 .42037965 .18299866 .3883667 .18299866 .36335755 .17298889 .3373413 .1659851 .31834413 .12599182 .21231079 .10798645 .1552887 .10798645 .10827637 .10798645 .019256592 .17098999-.0107421879 .22999573-.0107421879 .2689972-.0107421879 .30299378 .0062561037 .33099366 .03425598 .31799317-.017745972 .30599977-.06674194 .2659912-.11973572 .23999024-.15385437 .20199585-.18309021 .1559906-.18309021 .14199829-.18309021 .09700012-.18005371 .07998657-.14074707 .09599304-.14074707 .10899353-.14074707 .12298584-.1287384 .1329956-.11973572 .14299011-.10673523 .14299011-.08773804 .14299011-.056747438 .115997318-.052734376 .10598755-.052734376 .08299255-.052734376 .049987794-.068740848 .049987794-.11773682 .049987794-.16796875 .09399414-.20507813 .1559906-.20507813 .25898744-.20507813 .3619995-.11373901 .3899994-.00074768069L.48599244 .38136292Z"/>
<path id="font_2_1" d="M.6589966 .23046875C.6759949 .23046875 .69400027 .23046875 .69400027 .25045777 .69400027 .27046205 .6759949 .27046205 .6589966 .27046205H.117996219C.100997928 .27046205 .08299255 .27046205 .08299255 .25045777 .08299255 .23046875 .100997928 .23046875 .117996219 .23046875H.6589966Z"/>
<path id="font_3_1" d="M.44898988 .20022583C.44898988 .3193512 .36698915 .41944886 .25898744 .41944886 .21099854 .41944886 .16799927 .40345765 .13198853 .36842347V.5637665C.1519928 .5577698 .18499756 .55078127 .21699524 .55078127 .33999635 .55078127 .4099884 .6417694 .4099884 .6547699 .4099884 .6607666 .40699769 .6657715 .3999939 .6657715 .39898683 .6657715 .39698792 .6657715 .3919983 .66278079 .37199403 .6537781 .32299806 .6337738 .2559967 .6337738 .21598816 .6337738 .16999817 .6407776 .12298584 .6617737 .114990238 .66477969 .11299133 .66477969 .11099243 .66477969 .100997928 .66477969 .100997928 .6567688 .100997928 .6407776V.34439088C.100997928 .32637025 .100997928 .31835938 .114990238 .31835938 .12199402 .31835938 .12399292 .32136537 .12799073 .32736207 .13899231 .3433838 .17599488 .39746095 .25698854 .39746095 .30899049 .39746095 .33399964 .35139466 .34199525 .33337403 .35798646 .29632569 .3600006 .25727845 .3600006 .20722962 .3600006 .17222595 .3600006 .11222839 .33599855 .07035828 .31199647 .031463624 .2749939 .0055389406 .22898865 .0055389406 .1559906 .0055389406 .09899902 .058380128 .08198547 .11723328 .084991458 .1162262 .08799744 .115234378 .09899902 .115234378 .13198853 .115234378 .14898682 .14022827 .14898682 .16423035 .14898682 .18823242 .13198853 .21322632 .09899902 .21322632 .084991458 .21322632 .049987794 .20622254 .049987794 .16023255 .049987794 .07434082 .11898804-.022460938 .23098755-.022460938 .34700013-.022460938 .44898988 .073349 .44898988 .20022583Z"/>
</defs>
<path transform="matrix(1.00003,0,0,-1.00005,92.30127,107.0877)" stroke-width=".3985" stroke-linecap="butt" stroke-miterlimit="10" stroke-linejoin="miter" fill="none" stroke="#00aeef" d="M-85.04128 0H85.04128M-85.04128 17.00824H85.04128M-85.04128 34.0165H85.04128M-85.04128 51.02477H85.04128M-85.04128 68.03302H85.04128M-85.04128 85.0353H85.04128M-85.04128 0V85.04128M-68.03302 0V85.04128M-51.02477 0V85.04128M-34.0165 0V85.04128M-17.00824 0V85.04128M0 0V85.04128M17.00824 0V85.04128M34.0165 0V85.04128M51.02477 0V85.04128M68.03302 0V85.04128M85.0353 0V85.04128M85.04128 85.04128"/>
<path transform="matrix(1.00003,0,0,-1.00005,92.30127,107.0877)" stroke-width="1.19553" stroke-linecap="butt" stroke-miterlimit="10" stroke-linejoin="miter" fill="none" stroke="#000000" d="M-85.04128 0H100.17654"/>
<path transform="matrix(1.00003,0,0,-1.00005,192.4808,107.0877)" d="M1.27522 0C-.31879 .31879-1.91284 .9564-3.8257 2.07224-1.91284 .6376-1.91284-.6376-3.8257-2.07224-1.91284-.9564-.31879-.31879 1.27522 0Z"/>
<path transform="matrix(1.00003,0,0,-1.00005,192.4808,107.0877)" stroke-width="1.19553" stroke-linecap="butt" stroke-linejoin="round" fill="none" stroke="#000000" d="M1.27522 0C-.31879 .31879-1.91284 .9564-3.8257 2.07224-1.91284 .6376-1.91284-.6376-3.8257-2.07224-1.91284-.9564-.31879-.31879 1.27522 0Z"/>
<use data-text="x" xlink:href="#font_1_1" transform="matrix(9.962899,0,0,-9.963098,198.27246,109.2328)"/>
<path transform="matrix(1.00003,0,0,-1.00005,92.30127,107.0877)" stroke-width="1.19553" stroke-linecap="butt" stroke-miterlimit="10" stroke-linejoin="miter" fill="none" stroke="#000000" d="M0 0V100.17654"/>
<path transform="matrix(0,-1.00005,-1.00003,-0,92.30127,6.9061586)" d="M1.27522 0C-.31879 .31879-1.91284 .9564-3.8257 2.07224-1.91284 .6376-1.91284-.6376-3.8257-2.07224-1.91284-.9564-.31879-.31879 1.27522 0Z"/>
<path transform="matrix(0,-1.00005,-1.00003,-0,92.30127,6.9061586)" stroke-width="1.19553" stroke-linecap="butt" stroke-linejoin="round" fill="none" stroke="#000000" d="M1.27522 0C-.31879 .31879-1.91284 .9564-3.8257 2.07224-1.91284 .6376-1.91284-.6376-3.8257-2.07224-1.91284-.9564-.31879-.31879 1.27522 0Z"/>
<use data-text="y" xlink:href="#font_1_2" transform="matrix(9.962899,0,0,-9.963098,85.13306,6.2096636)"/>
<path transform="matrix(1.00003,0,0,-1.00005,92.30127,107.0877)" stroke-width=".79701" stroke-linecap="butt" stroke-miterlimit="10" stroke-linejoin="miter" fill="none" stroke="#00aeef" d="M-85.04128 0V85.04128"/>
<path transform="matrix(1.00003,0,0,-1.00005,92.30127,107.0877)" stroke-width=".3985" stroke-linecap="butt" stroke-miterlimit="10" stroke-linejoin="miter" fill="none" stroke="#000000" d="M-85.04128 3.40158V-3.40158"/>
<path transform="matrix(1.00003,0,0,-1.00005,92.30127,107.0877)" d="M-92.40266-14.83662H-77.67988V-5.5933907H-92.40266Z" fill="#ffffff"/>
<use data-text="&#x2212;" xlink:href="#font_2_1" transform="matrix(9.962899,0,0,-9.963098,.89253237,120.09835)"/>
<use data-text="5" xlink:href="#font_3_1" transform="matrix(9.962899,0,0,-9.963098,8.641754,120.09835)"/>
<path transform="matrix(1.00003,0,0,-1.00005,92.30127,107.0877)" stroke-width=".79701" stroke-linecap="butt" stroke-miterlimit="10" stroke-linejoin="miter" fill="none" stroke="#00aeef" d="M85.04128 0V85.04128"/>
<path transform="matrix(1.00003,0,0,-1.00005,92.30127,107.0877)" stroke-width=".3985" stroke-linecap="butt" stroke-miterlimit="10" stroke-linejoin="miter" fill="none" stroke="#000000" d="M85.04128 3.40158V-3.40158"/>
<path transform="matrix(1.00003,0,0,-1.00005,92.30127,107.0877)" d="M81.5543-14.00638H88.52824V-5.5934H81.5543Z" fill="#ffffff"/>
<use data-text="5" xlink:href="#font_3_1" transform="matrix(9.962899,0,0,-9.963098,174.85475,120.09835)"/>
<path transform="matrix(1.00003,0,0,-1.00005,92.30127,107.0877)" stroke-width=".79701" stroke-linecap="butt" stroke-miterlimit="10" stroke-linejoin="miter" fill="none" stroke="#00aeef" d="M-85.04128 85.04128H85.04128"/>
<path transform="matrix(1.00003,0,0,-1.00005,92.30127,107.0877)" stroke-width=".3985" stroke-linecap="butt" stroke-miterlimit="10" stroke-linejoin="miter" fill="none" stroke="#000000" d="M3.40158 85.04128H-3.40158"/>
<path transform="matrix(1.00003,0,0,-1.00005,92.30127,107.0877)" d="M-12.56734 80.83478H-5.5934V89.24776H-12.56734Z" fill="#ffffff"/>
<use data-text="5" xlink:href="#font_3_1" transform="matrix(9.962899,0,0,-9.963098,80.72992,25.25261)"/>
<path transform="matrix(1.00003,0,0,-1.00005,92.30127,107.0877)" stroke-width="1.19553" stroke-linecap="butt" stroke-miterlimit="10" stroke-linejoin="miter" fill="none" stroke="#d73589" d="M51.02477 0C51.02477 0 50.99538 1.80849 50.96092 2.50233 50.92645 3.19618 50.84456 4.30931 50.7764 5.00078 50.70822 5.69223 50.5714 6.79883 50.46964 7.486 50.36787 8.17314 50.1782 9.27188 50.04297 9.95331 49.90775 10.63472 49.6637 11.72328 49.49486 12.39725 49.32602 13.07123 49.02785 14.14606 48.82605 14.81084 48.62427 15.47562 48.27455 16.53452 48.04047 17.18861 47.80638 17.84271 47.40483 18.88333 47.13889 19.52512 46.87292 20.16689 46.4207 21.18608 46.12361 21.81413 45.82654 22.44218 45.32512 23.43883 44.99779 24.05176 44.67047 24.66469 44.12166 25.63591 43.76453 26.23177 43.40741 26.82764 42.8099 27.769 42.42381 28.34639 42.03775 28.92378 41.39586 29.83531 40.98192 30.39326 40.56795 30.95122 39.88116 31.83064 39.4403 32.36772 38.99947 32.90483 38.27078 33.74928 37.80453 34.26434 37.3383 34.77942 36.57118 35.58879 36.07999 36.07999 35.58879 36.57118 34.77942 37.3383 34.26434 37.80453 33.74928 38.27078 32.90483 38.99947 32.36772 39.4403 31.83064 39.88116 30.95122 40.56795 30.39326 40.98192 29.83531 41.39586 28.92378 42.03775 28.34639 42.42381 27.769 42.8099 26.82764 43.40741 26.23177 43.76453 25.63591 44.12166 24.66469 44.67047 24.05176 44.99779 23.43883 45.32512 22.44218 45.82654 21.81413 46.12361 21.18608 46.4207 20.16689 46.87292 19.52512 47.13889 18.88333 47.40483 17.84271 47.80638 17.18861 48.04047 16.53452 48.27455 15.47562 48.62427 14.81084 48.82605 14.14606 49.02785 13.07123 49.32602 12.39725 49.49486 11.72328 49.6637 10.63472 49.90775 9.95331 50.04297 9.27188 50.1782 8.17314 50.36787 7.486 50.46964 6.79883 50.5714 5.69223 50.70822 5.00078 50.7764 4.30931 50.84456 3.19618 50.92645 2.50233 50.96092 1.80849 50.99538 .69437 51.02477 0 51.02477-.69437 51.02477-1.80849 50.99538-2.50233 50.96092-3.19618 50.92645-4.30931 50.84456-5.00078 50.7764-5.69223 50.70822-6.79883 50.5714-7.486 50.46964-8.17314 50.36787-9.27188 50.1782-9.95331 50.04297-10.63472 49.90775-11.72328 49.6637-12.39725 49.49486-13.07123 49.32602-14.14606 49.02785-14.81084 48.82605-15.47562 48.62427-16.53452 48.27455-17.18861 48.04047-17.84271 47.80638-18.88333 47.40483-19.52512 47.13889-20.16689 46.87292-21.18608 46.4207-21.81413 46.12361-22.44218 45.82654-23.43883 45.32512-24.05176 44.99779-24.66469 44.67047-25.63591 44.12166-26.23177 43.76453-26.82764 43.40741-27.769 42.8099-28.34639 42.42381-28.92378 42.03775-29.83531 41.39586-30.39326 40.98192-30.95122 40.56795-31.83064 39.88116-32.36772 39.4403-32.90483 38.99947-33.74928 38.27078-34.26434 37.80453-34.77942 37.3383-35.58879 36.57118-36.07999 36.07999-36.57118 35.58879-37.3383 34.77942-37.80453 34.26434-38.27078 33.74928-38.99947 32.90483-39.4403 32.36772-39.88116 31.83064-40.56795 30.95122-40.98192 30.39326-41.39586 29.83531-42.03775 28.92378-42.42381 28.34639-42.8099 27.769-43.40741 26.82764-43.76453 26.23177-44.12166 25.63591-44.67047 24.66469-44.99779 24.05176-45.32512 23.43883-45.82654 22.44218-46.12361 21.81413-46.4207 21.18608-46.87292 20.16689-47.13889 19.52512-47.40483 18.88333-47.80638 17.84271-48.04047 17.18861-48.27455 16.53452-48.62427 15.47562-48.82605 14.81084-49.02785 14.14606-49.32602 13.07123-49.49486 12.39725-49.6637 11.72328-49.90775 10.63472-50.04297 9.95331-50.1782 9.27188-50.36787 8.17314-50.46964 7.486-50.5714 6.79883-50.70822 5.69223-50.7764 5.00078-50.84456 4.30931-50.92645 3.19618-50.96092 2.50233-50.99538 1.80849-51.02477 0-51.02477 0"/>
</svg>
