<svg xmlns="http://www.w3.org/2000/svg" xmlns:xlink="http://www.w3.org/1999/xlink" version="1.1" width="160" height="135" viewBox="0 0 160 135">
<defs>
<path id="font_1_1" d="M.33399964 .30233766C.33999635 .32835389 .36299134 .42037965 .43299867 .42037965 .43798829 .42037965 .46199037 .42037965 .48298646 .40734864 .45498658 .402359 .43499757 .37734986 .43499757 .35334779 .43499757 .33735658 .44599916 .31835938 .47299195 .31835938 .49499513 .31835938 .5269928 .3363495 .5269928 .37635804 .5269928 .42837525 .46798707 .4423828 .43399049 .4423828 .37599183 .4423828 .34098817 .38935853 .32899476 .36634828 .3039856 .43237306 .25 .4423828 .22099304 .4423828 .116989139 .4423828 .05999756 .3133545 .05999756 .28834535 .05999756 .27833558 .069992069 .27833558 .07199097 .27833558 .07998657 .27833558 .08299255 .28033448 .084991458 .28933717 .11898804 .39535523 .18499756 .42037965 .21899414 .42037965 .23799134 .42037965 .272995 .4113617 .272995 .35334779 .272995 .32235719 .2559967 .25532533 .21899414 .11528015 .20298767 .053268434 .16799927 .011245728 .12399292 .011245728 .117996219 .011245728 .09498596 .011245728 .07398987 .024276734 .09899902 .029266358 .12098694 .05027771 .12098694 .07827759 .12098694 .105270389 .09899902 .11328125 .083999637 .11328125 .053985597 .11328125 .0289917 .08728027 .0289917 .055267335 .0289917 .009246826 .07899475-.0107421879 .12298584-.0107421879 .18899536-.0107421879 .22499085 .059280397 .22799683 .0652771 .23999024 .028274537 .27598573-.0107421879 .33599855-.0107421879 .43899537-.0107421879 .49598695 .118270877 .49598695 .14328003 .49598695 .1532898 .4869995 .1532898 .48399354 .1532898 .47499085 .1532898 .47299195 .14929199 .47099305 .14228821 .43798829 .03527832 .36999513 .011245728 .33799745 .011245728 .29899598 .011245728 .2829895 .043273927 .2829895 .07727051 .2829895 .09927368 .2889862 .121276859 .2999878 .16529846L.33399964 .30233766Z"/>
<path id="font_1_2" d="M.48599244 .38136292C.48999024 .39537049 .48999024 .39736939 .48999024 .40437318 .48999024 .42237855 .47599793 .43138124 .46099855 .43138124 .45098878 .43138124 .43499757 .42536927 .42599488 .41036988 .42399598 .405365 .41600038 .37435914 .4119873 .35635377 .40499879 .33035279 .397995 .30334474 .3919983 .27633668L.34700013 .09628296C.34298707 .08126831 .2999878 .011245728 .23399353 .011245728 .18299866 .011245728 .17199707 .055267335 .17199707 .0922699 .17199707 .1382904 .18899536 .20030213 .22299195 .28833009 .23899842 .3293457 .24299622 .3403473 .24299622 .36035157 .24299622 .405365 .21099854 .4423828 .16099549 .4423828 .06599426 .4423828 .0289917 .29733277 .0289917 .28833009 .0289917 .27833558 .038986207 .27833558 .040985109 .27833558 .050994874 .27833558 .051986696 .28033448 .056991579 .29634095 .083999637 .3903656 .12399292 .42037965 .1579895 .42037965 .1659851 .42037965 .18299866 .42037965 .18299866 .3883667 .18299866 .36335755 .17298889 .3373413 .1659851 .31834413 .12599182 .21231079 .10798645 .1552887 .10798645 .10827637 .10798645 .019256592 .17098999-.0107421879 .22999573-.0107421879 .2689972-.0107421879 .30299378 .0062561037 .33099366 .03425598 .31799317-.017745972 .30599977-.06674194 .2659912-.11973572 .23999024-.15385437 .20199585-.18309021 .1559906-.18309021 .14199829-.18309021 .09700012-.18005371 .07998657-.14074707 .09599304-.14074707 .10899353-.14074707 .12298584-.1287384 .1329956-.11973572 .14299011-.10673523 .14299011-.08773804 .14299011-.056747438 .115997318-.052734376 .10598755-.052734376 .08299255-.052734376 .049987794-.068740848 .049987794-.11773682 .049987794-.16796875 .09399414-.20507813 .1559906-.20507813 .25898744-.20507813 .3619995-.11373901 .3899994-.00074768069L.48599244 .38136292Z"/>
<path id="font_2_1" d="M.6589966 .23046875C.6759949 .23046875 .69400027 .23046875 .69400027 .25045777 .69400027 .27046205 .6759949 .27046205 .6589966 .27046205H.117996219C.100997928 .27046205 .08299255 .27046205 .08299255 .25045777 .08299255 .23046875 .100997928 .23046875 .117996219 .23046875H.6589966Z"/>
<path id="font_3_3" d="M.44898988 .20022583C.44898988 .3193512 .36698915 .41944886 .25898744 .41944886 .21099854 .41944886 .16799927 .40345765 .13198853 .36842347V.5637665C.1519928 .5577698 .18499756 .55078127 .21699524 .55078127 .33999635 .55078127 .4099884 .6417694 .4099884 .6547699 .4099884 .6607666 .40699769 .6657715 .3999939 .6657715 .39898683 .6657715 .39698792 .6657715 .3919983 .66278079 .37199403 .6537781 .32299806 .6337738 .2559967 .6337738 .21598816 .6337738 .16999817 .6407776 .12298584 .6617737 .114990238 .66477969 .11299133 .66477969 .11099243 .66477969 .100997928 .66477969 .100997928 .6567688 .100997928 .6407776V.34439088C.100997928 .32637025 .100997928 .31835938 .114990238 .31835938 .12199402 .31835938 .12399292 .32136537 .12799073 .32736207 .13899231 .3433838 .17599488 .39746095 .25698854 .39746095 .30899049 .39746095 .33399964 .35139466 .34199525 .33337403 .35798646 .29632569 .3600006 .25727845 .3600006 .20722962 .3600006 .17222595 .3600006 .11222839 .33599855 .07035828 .31199647 .031463624 .2749939 .0055389406 .22898865 .0055389406 .1559906 .0055389406 .09899902 .058380128 .08198547 .11723328 .084991458 .1162262 .08799744 .115234378 .09899902 .115234378 .13198853 .115234378 .14898682 .14022827 .14898682 .16423035 .14898682 .18823242 .13198853 .21322632 .09899902 .21322632 .084991458 .21322632 .049987794 .20622254 .049987794 .16023255 .049987794 .07434082 .11898804-.022460938 .23098755-.022460938 .34700013-.022460938 .44898988 .073349 .44898988 .20022583Z"/>
<path id="font_3_2" d="M.2939911 .64004519C.2939911 .66400149 .2939911 .6660156 .2709961 .6660156 .20899964 .60227969 .12098694 .60227969 .08898926 .60227969V.57128909C.10899353 .57128909 .16799927 .57128909 .21998596 .5972748V.07902527C.21998596 .042999269 .21699524 .0309906 .1269989 .0309906H.09498596V0C.12998963 .0029907227 .21699524 .0029907227 .25698854 .0029907227 .29699708 .0029907227 .38398744 .0029907227 .4189911 0V.0309906H.3869934C.29699708 .0309906 .2939911 .041992189 .2939911 .07902527V.64004519Z"/>
<path id="font_3_1" d="M.45999146 .31976319C.45999146 .39982606 .45498658 .47988893 .41999818 .5539398 .37399293 .65000918 .2919922 .6660156 .25 .6660156 .18998719 .6660156 .116989139 .64001467 .07598877 .54693606 .04399109 .47789 .038986207 .39982606 .038986207 .31976319 .038986207 .24472046 .042999269 .15464783 .083999637 .07859802 .1269989-.0024719239 .19999695-.022460938 .24899292-.022460938 .30299378-.022460938 .3789978-.0014648438 .4229889 .09359741 .45498658 .16265869 .45999146 .2407074 .45999146 .31976319M.24899292-.00047302247C.20999146-.00047302247 .15098572 .024551392 .1329956 .12062073 .12199402 .18066406 .12199402 .2727356 .12199402 .3317871 .12199402 .39582826 .12199402 .46188355 .12998963 .5159149 .14898682 .63500979 .22399903 .64401248 .24899292 .64401248 .28199769 .64401248 .34799195 .6259918 .36698915 .52693179 .3769989 .47088624 .3769989 .39482118 .3769989 .3317871 .3769989 .25672914 .3769989 .18867493 .3659973 .12461853 .35099793 .029556275 .2939911-.00047302247 .24899292-.00047302247Z"/>
</defs>
<path transform="matrix(1.00006,0,0,-1.00003,69.846279,73.0658)" stroke-width=".3985" stroke-linecap="butt" stroke-miterlimit="10" stroke-linejoin="miter" fill="none" stroke="#00aeef" d="M-68.0313-56.69275H68.0313M-68.0313-45.35419H68.0313M-68.0313-34.01564H68.0313M-68.0313-22.6771H68.0313M-68.0313-11.33855H68.0313M-68.0313 0H68.0313M-68.0313 11.33855H68.0313M-68.0313 22.6771H68.0313M-68.0313 34.01564H68.0313M-68.0313 45.35419H68.0313M-68.0313 56.68877H68.0313M-68.0313-56.69275V56.69275M-56.69275-56.69275V56.69275M-45.35419-56.69275V56.69275M-34.01564-56.69275V56.69275M-22.6771-56.69275V56.69275M-11.33855-56.69275V56.69275M0-56.69275V56.69275M11.33855-56.69275V56.69275M22.6771-56.69275V56.69275M34.01564-56.69275V56.69275M45.35419-56.69275V56.69275M56.69275-56.69275V56.69275M68.02731-56.69275V56.69275M68.0313 56.69275"/>
<path transform="matrix(1.00006,0,0,-1.00003,69.846279,73.0658)" stroke-width=".79701" stroke-linecap="butt" stroke-miterlimit="10" stroke-linejoin="miter" fill="none" stroke="#000000" d="M-68.0313 0H77.93523"/>
<path transform="matrix(1.00006,0,0,-1.00003,147.78618,73.0658)" d="M1.0361 0C-.25902 .25902-1.55415 .77707-3.1083 1.68365-1.55415 .51805-1.55415-.51805-3.1083-1.68365-1.55415-.77707-.25902-.25902 1.0361 0Z"/>
<path transform="matrix(1.00006,0,0,-1.00003,147.78618,73.0658)" stroke-width=".79701" stroke-linecap="butt" stroke-linejoin="round" fill="none" stroke="#000000" d="M1.0361 0C-.25902 .25902-1.55415 .77707-3.1083 1.68365-1.55415 .51805-1.55415-.51805-3.1083-1.68365-1.55415-.77707-.25902-.25902 1.0361 0Z"/>
<use data-text="x" xlink:href="#font_1_1" transform="matrix(9.963197,0,0,-9.962899,152.94025,75.21087)"/>
<path transform="matrix(1.00006,0,0,-1.00003,69.846279,73.0658)" stroke-width=".79701" stroke-linecap="butt" stroke-miterlimit="10" stroke-linejoin="miter" fill="none" stroke="#000000" d="M0-56.69275V66.59668"/>
<path transform="matrix(0,-1.00003,-1.00006,-0,69.846279,6.467125)" d="M1.0361 0C-.25902 .25902-1.55415 .77707-3.1083 1.68365-1.55415 .51805-1.55415-.51805-3.1083-1.68365-1.55415-.77707-.25902-.25902 1.0361 0Z"/>
<path transform="matrix(0,-1.00003,-1.00006,-0,69.846279,6.467125)" stroke-width=".79701" stroke-linecap="butt" stroke-linejoin="round" fill="none" stroke="#000000" d="M1.0361 0C-.25902 .25902-1.55415 .77707-3.1083 1.68365-1.55415 .51805-1.55415-.51805-3.1083-1.68365-1.55415-.77707-.25902-.25902 1.0361 0Z"/>
<use data-text="y" xlink:href="#font_1_2" transform="matrix(9.963197,0,0,-9.962899,62.87686,6.2087938)"/>
<path transform="matrix(1.00006,0,0,-1.00003,69.846279,73.0658)" stroke-width="1.19553" stroke-linecap="butt" stroke-miterlimit="10" stroke-linejoin="miter" fill="none" stroke="#00aeef" d="M-56.69275-56.69275V56.69275"/>
<path transform="matrix(1.00006,0,0,-1.00003,69.846279,73.0658)" stroke-width=".79701" stroke-linecap="butt" stroke-miterlimit="10" stroke-linejoin="miter" fill="none" stroke="#000000" d="M-56.69275 1.7007V-1.70087"/>
<path transform="matrix(1.00006,0,0,-1.00003,69.846279,73.0658)" d="M-64.05414-13.33516H-49.33136V-4.0919306H-64.05414Z" fill="#ffffff"/>
<use data-text="&#x2212;" xlink:href="#font_2_1" transform="matrix(9.963197,0,0,-9.962899,6.7845,84.57515)"/>
<use data-text="5" xlink:href="#font_3_3" transform="matrix(9.963197,0,0,-9.962899,14.533966,84.57515)"/>
<path transform="matrix(1.00006,0,0,-1.00003,69.846279,73.0658)" stroke-width="1.19553" stroke-linecap="butt" stroke-miterlimit="10" stroke-linejoin="miter" fill="none" stroke="#00aeef" d="M56.69275-56.69275V56.69275"/>
<path transform="matrix(1.00006,0,0,-1.00003,69.846279,73.0658)" stroke-width=".79701" stroke-linecap="butt" stroke-miterlimit="10" stroke-linejoin="miter" fill="none" stroke="#000000" d="M56.69275 1.7007V-1.70087"/>
<path transform="matrix(1.00006,0,0,-1.00003,69.846279,73.0658)" d="M53.20578-12.50491H60.179719V-4.0919306H53.20578Z" fill="#ffffff"/>
<use data-text="5" xlink:href="#font_3_3" transform="matrix(9.963197,0,0,-9.962899,124.05153,84.57515)"/>
<path transform="matrix(1.00006,0,0,-1.00003,69.846279,73.0658)" stroke-width="1.19553" stroke-linecap="butt" stroke-miterlimit="10" stroke-linejoin="miter" fill="none" stroke="#00aeef" d="M-68.0313-56.69275H68.0313"/>
<path transform="matrix(1.00006,0,0,-1.00003,69.846279,73.0658)" stroke-width=".79701" stroke-linecap="butt" stroke-miterlimit="10" stroke-linejoin="miter" fill="none" stroke="#000000" d="M1.7007-56.69275H-1.70087"/>
<path transform="matrix(1.00006,0,0,-1.00003,69.846279,73.0658)" d="M-23.79613-61.31436H-4.0919287V-52.071134H-23.79613Z" fill="#ffffff"/>
<use data-text="&#x2212;" xlink:href="#font_2_1" transform="matrix(9.963197,0,0,-9.962899,47.044908,132.55559)"/>
<use data-text="1" xlink:href="#font_3_2" transform="matrix(9.963197,0,0,-9.962899,54.794374,132.55559)"/>
<use data-text="0" xlink:href="#font_3_1" transform="matrix(9.963197,0,0,-9.962899,59.77597,132.55559)"/>
<path transform="matrix(1.00006,0,0,-1.00003,69.846279,73.0658)" stroke-width="1.19553" stroke-linecap="butt" stroke-miterlimit="10" stroke-linejoin="miter" fill="none" stroke="#00aeef" d="M-68.0313 56.69275H68.0313"/>
<path transform="matrix(1.00006,0,0,-1.00003,69.846279,73.0658)" stroke-width=".79701" stroke-linecap="butt" stroke-miterlimit="10" stroke-linejoin="miter" fill="none" stroke="#000000" d="M1.7007 56.69275H-1.70087"/>
<path transform="matrix(1.00006,0,0,-1.00003,69.846279,73.0658)" d="M-16.04727 52.48625H-4.0919296V60.89923H-16.04727Z" fill="#ffffff"/>
<use data-text="1" xlink:href="#font_3_2" transform="matrix(9.963197,0,0,-9.962899,54.794374,19.581196)"/>
<use data-text="0" xlink:href="#font_3_1" transform="matrix(9.963197,0,0,-9.962899,59.77597,19.581196)"/>
<path transform="matrix(1.00006,0,0,-1.00003,69.846279,73.0658)" stroke-width="1.19553" stroke-linecap="butt" stroke-miterlimit="10" stroke-linejoin="miter" fill="none" stroke="#cc0000" d="M-56.23439 54.87679C-55.66873 52.63608-55.66873 52.63608-55.27542 51.11205-54.88211 49.58801-54.2514 47.1834-53.8581 45.70851-53.4648 44.23364-52.83408 41.90787-52.44078 40.48215-52.04747 39.05644-51.41676 36.8095-51.02345 35.43295-50.63017 34.05641-49.99944 31.8883-49.60614 30.56093-49.21284 29.23354-48.58212 27.14427-48.18881 25.86606-47.79553 24.58783-47.1648 22.57741-46.77151 21.34834-46.3782 20.11928-45.74748 18.1877-45.35419 17.00781-44.96089 15.82791-44.33017 13.97517-43.93687 12.84444-43.54356 11.7137-42.91286 9.9398-42.51955 8.85823-42.12625 7.77666-41.49553 6.08159-41.10223 5.04918-40.70892 4.01677-40.07822 2.40056-39.6849 1.4173-39.29161 .43405-38.66089-1.10329-38.26758-2.03738-37.8743-2.97147-37.24358-4.43001-36.85027-5.31493-36.45697-6.19984-35.82625-7.57954-35.43295-8.4153-35.03966-9.25108-34.40894-10.55194-34.01564-11.33855-33.62234-12.12514-32.99161-13.34715-32.59833-14.08458-32.20502-14.82202-31.57431-15.9652-31.181-16.65349-30.78769-17.34175-30.15698-18.4061-29.76367-19.04521-29.37038-19.68433-28.73965-20.66982-28.34636-21.25977-27.95305-21.84972-27.32234-22.75636-26.92903-23.29716-26.53575-23.83794-25.90501-24.66577-25.51172-25.1574-25.11842-25.64902-24.4877-26.398-24.09439-26.84045-23.70111-27.28293-23.07039-27.95305-22.6771-28.34636-22.28378-28.73965-21.65306-29.33096-21.25977-29.6751-20.86647-30.01923-20.23575-30.5317-19.84245-30.82668-19.44914-31.12164-18.81844-31.55525-18.42513-31.80107-18.03183-32.04689-17.40111-32.40167-17.00781-32.59833-16.6145-32.79497-15.9838-33.0709-15.59048-33.2184-15.19719-33.36588-14.56647-33.56299-14.17316-33.6613-13.77988-33.75963-13.14915-33.87788-12.75584-33.92705-12.36255-33.97621-11.73183-34.01564-11.33855-34.01564-10.94524-34.01564-10.31451-33.97621-9.92122-33.92705-9.52792-33.87788-8.89719-33.75963-8.5039-33.6613-8.1106-33.56299-7.47989-33.36588-7.08658-33.2184-6.69327-33.0709-6.06256-32.79497-5.66925-32.59833-5.27596-32.40167-4.64523-32.04689-4.25194-31.80107-3.85863-31.55525-3.22792-31.12164-2.83461-30.82668-2.44133-30.5317-1.8106-30.01923-1.4173-29.6751-1.024-29.33096-.39328-28.73965 0-28.34636 .39328-27.95305 1.024-27.28293 1.4173-26.84045 1.8106-26.398 2.44133-25.64902 2.83461-25.1574 3.22792-24.66577 3.85863-23.83794 4.25194-23.29716 4.64523-22.75636 5.27596-21.84972 5.66925-21.25977 6.06256-20.66982 6.69327-19.68433 7.08658-19.04521 7.47989-18.4061 8.1106-17.34175 8.5039-16.65349 8.89719-15.9652 9.52792-14.82202 9.92122-14.08458 10.31451-13.34715 10.94524-12.12514 11.33855-11.33855 11.73183-10.55194 12.36255-9.25108 12.75584-8.4153 13.14915-7.57954 13.77988-6.19984 14.17316-5.31493 14.56647-4.43001 15.19719-2.97147 15.59048-2.03738 15.9838-1.10329 16.6145 .43405 17.00781 1.4173 17.40111 2.40056 18.03183 4.01677 18.42513 5.04918 18.81844 6.08159 19.44914 7.77666 19.84245 8.85823 20.23575 9.9398 20.86647 11.7137 21.25977 12.84444 21.65306 13.97517 22.28378 15.82791 22.6771 17.00781 23.07039 18.1877 23.70111 20.11928 24.09439 21.34834 24.4877 22.57741 25.11842 24.58783 25.51172 25.86606 25.90501 27.14427 26.53575 29.23354 26.92903 30.56093 27.32234 31.8883 27.95305 34.05641 28.34636 35.43295 28.73965 36.8095 29.37038 39.05644 29.76367 40.48215 30.15698 41.90787 30.78769 44.23364 31.181 45.70851 31.57431 47.1834 32.20502 49.58801 32.59833 51.11205 32.99161 52.63608 34.01564 56.69275 33.55728 54.87679"/>
<path transform="matrix(-.24473468,-.9695892,-.96961817,.24472735,13.608513,18.187367)" d="M1.27522 0C-.31879 .31879-1.91284 .9564-3.8257 2.07224-1.91284 .6376-1.91284-.6376-3.8257-2.07224-1.91284-.9564-.31879-.31879 1.27522 0Z" fill="#cc0000"/>
<path transform="matrix(-.24473468,-.9695892,-.96961817,.24472735,13.608513,18.187367)" stroke-width="1.19553" stroke-linecap="butt" stroke-linejoin="round" fill="none" stroke="#cc0000" d="M1.27522 0C-.31879 .31879-1.91284 .9564-3.8257 2.07224-1.91284 .6376-1.91284-.6376-3.8257-2.07224-1.91284-.9564-.31879-.31879 1.27522 0Z"/>
<path transform="matrix(.24473468,-.9695892,-.96961817,-.24472735,103.40556,18.187367)" d="M1.27522 0C-.31879 .31879-1.91284 .9564-3.8257 2.07224-1.91284 .6376-1.91284-.6376-3.8257-2.07224-1.91284-.9564-.31879-.31879 1.27522 0Z" fill="#cc0000"/>
<path transform="matrix(.24473468,-.9695892,-.96961817,-.24472735,103.40556,18.187367)" stroke-width="1.19553" stroke-linecap="butt" stroke-linejoin="round" fill="none" stroke="#cc0000" d="M1.27522 0C-.31879 .31879-1.91284 .9564-3.8257 2.07224-1.91284 .6376-1.91284-.6376-3.8257-2.07224-1.91284-.9564-.31879-.31879 1.27522 0Z"/>
</svg>
