<svg xmlns="http://www.w3.org/2000/svg" xmlns:xlink="http://www.w3.org/1999/xlink" version="1.1" width="283" height="28" viewBox="0 0 283 28">
<defs>
<path id="font_1_121" d="M.45999146 .31976319C.45999146 .39982606 .45498658 .47988893 .41999818 .5539398 .37399293 .65000918 .2919922 .6660156 .25 .6660156 .18998719 .6660156 .116989139 .64001467 .07598877 .54693606 .04399109 .47789 .038986207 .39982606 .038986207 .31976319 .038986207 .24472046 .042999269 .15464783 .083999637 .07859802 .1269989-.0024719239 .19999695-.022460938 .24899292-.022460938 .30299378-.022460938 .3789978-.0014648438 .4229889 .09359741 .45498658 .16265869 .45999146 .2407074 .45999146 .31976319M.3769989 .3317871C.3769989 .25672914 .3769989 .18867493 .3659973 .12461853 .35099793 .029556275 .2939911-.00047302247 .24899292-.00047302247 .20999146-.00047302247 .15098572 .024551392 .1329956 .12062073 .12199402 .18066406 .12199402 .2727356 .12199402 .3317871 .12199402 .39582826 .12199402 .46188355 .12998963 .5159149 .14898682 .63500979 .22399903 .64401248 .24899292 .64401248 .28199769 .64401248 .34799195 .6259918 .36698915 .52693179 .3769989 .47088624 .3769989 .39482118 .3769989 .3317871Z"/>
<path id="font_1_56" d="M.44898988 .20091248C.44898988 .31991578 .36698915 .41992188 .25898744 .41992188 .21099854 .41992188 .16799927 .4039154 .13198853 .36891175V.5641022C.1519928 .55778506 .18499756 .55078127 .21699524 .55078127 .33999635 .55078127 .4099884 .6418457 .4099884 .65493777 .4099884 .6609802 .40699769 .6660156 .3999939 .6660156 .3999939 .66607668 .39698792 .66607668 .3919983 .66308596 .37199403 .65408328 .32299806 .63378909 .2559967 .63378909 .21598816 .63409426 .16999817 .641098 .12298584 .6621094 .114990238 .6651001 .11099243 .6651001 .11099243 .6651001 .100997928 .66508486 .100997928 .657074 .100997928 .64108279V.3447113C.100997928 .3266449 .100997928 .31861878 .114990238 .31861878 .12199402 .31861878 .12399292 .32164 .12799073 .32765199 .13899231 .34371949 .17599488 .3979187 .25698854 .3979187 .30899049 .3979187 .33399964 .3517456 .34199525 .3336792 .35798646 .2965393 .3600006 .2574005 .3600006 .20721436 .3600006 .17218018 .3600006 .112197879 .33599855 .07032776 .31199647 .031448366 .2749939 .0055389406 .22898865 .0055389406 .1559906 .0055389406 .09899902 .05836487 .08198547 .1171875 .084991458 .11685181 .08799744 .115859989 .09899902 .115859989 .13198853 .115859989 .14898682 .14085388 .14898682 .16485596 .14898682 .18885803 .13198853 .21386719 .09899902 .21386719 .084991458 .21386719 .049987794 .2068634 .049987794 .16085816 .049987794 .07432556 .11898804-.022460938 .23098755-.022460938 .34700013-.022460938 .44898988 .07331848 .44898988 .20019531V.20091248Z"/>
<path id="font_1_82" d="M.4189911 0V.0309906H.3869934C.29699708 .0309906 .2939911 .041992189 .2939911 .07902527V.64012148C.2939911 .6640167 .2939911 .6660156 .2709961 .6660156 .20899964 .60227969 .12098694 .60227969 .08898926 .60227969V.57128909C.10899353 .57128909 .16799927 .57128909 .21998596 .5972748V.07902527C.21998596 .042999269 .21699524 .0309906 .1269989 .0309906H.09498596V0C.12998963 .0029907227 .21699524 .0029907227 .25698854 .0029907227 .29699708 .0029907227 .38398744 .0029907227 .4189911 0Z"/>
<path id="font_1_27" d="M.71699526 0V.0309906H.69898989C.6389923 .0309906 .625 .037979127 .6139984 .07095337L.397995 .6958008C.3929901 .7088165 .3909912 .7158203 .375 .7158203 .35899354 .7158203 .35598756 .70980837 .35099793 .6958008L.14399719 .09791565C.12599182 .04698181 .085998538 .03199768 .03199768 .0309906V0L.13398743 .0029907227 .24899292 0V.0309906C.19898987 .0309906 .17399597 .05596924 .17399597 .0819397 .17399597 .08493042 .1749878 .09492493 .17599488 .09692383L.22200012 .2277832H.46899415L.5219879 .07495117C.522995 .07095337 .5249939 .064956668 .5249939 .060958864 .5249939 .0309906 .46899415 .0309906 .44198609 .0309906V0C.47799684 .0029907227 .5479889 .0029907227 .58599856 .0029907227L.71699526 0M.45799256 .25878907H.23298645L.34498597 .58380129 .45799256 .25878907Z"/>
<path id="font_1_34" d="M.651001 .18289185C.651001 .26983644 .56900027 .34480287 .45799256 .35679627 .5549927 .3757782 .6239929 .43974305 .6239929 .51368716 .6239929 .6006317 .5319977 .6826172 .4019928 .6826172H.035995485V.6516113H.05999756C.13699341 .6516113 .13899231 .64060977 .13899231 .6046295V.07795715C.13899231 .041992189 .13699341 .0309906 .05999756 .0309906H.035995485V0H.42799378C.5609894-.0002593994 .651001 .08874512 .651001 .18273926V.18289185M.5269928 .5136719C.5269928 .44970704 .47799684 .36573792 .36698915 .36573792H.22200012V.6116333C.22200012 .64460757 .22399903 .6516113 .2709961 .6516113H.394989C.49198915 .65174868 .5269928 .56674197 .5269928 .51374819V.5136719M.5509949 .18386841C.5509949 .1129303 .49899293 .0309906 .3959961 .0309906H.2709961C.22399903 .0309906 .22200012 .037994386 .22200012 .07095337V.34375H.4099884C.5089874 .34399415 .5509949 .25099183 .5509949 .18399048V.18386841Z"/>
</defs>
<path transform="matrix(1.00009,0,0,-1.00002,4.0262835,14.567032)" stroke-width=".79701" stroke-linecap="butt" stroke-miterlimit="10" stroke-linejoin="miter" fill="none" stroke="#000000" d="M0 0H276.3629"/>
<path transform="matrix(1.00009,0,0,-1.00002,280.41407,14.567032)" d="M1.0361 0C-.25902 .25902-1.55415 .77707-3.1083 1.68365-1.55415 .51805-1.55415-.51805-3.1083-1.68365-1.55415-.77707-.25902-.25902 1.0361 0Z"/>
<path transform="matrix(1.00009,0,0,-1.00002,280.41407,14.567032)" stroke-width=".79701" stroke-linecap="butt" stroke-linejoin="round" fill="none" stroke="#000000" d="M1.0361 0C-.25902 .25902-1.55415 .77707-3.1083 1.68365-1.55415 .51805-1.55415-.51805-3.1083-1.68365-1.55415-.77707-.25902-.25902 1.0361 0Z"/>
<path transform="matrix(1.00009,0,0,-1.00002,4.0262835,14.567032)" stroke-width=".79701" stroke-linecap="butt" stroke-miterlimit="10" stroke-linejoin="miter" fill="none" stroke="#000000" d="M0 6.94505V-.99188"/>
<use data-text="0" xlink:href="#font_1_121" transform="matrix(9.963496,0,0,-9.962799,1.5350571,25.913258)"/>
<path transform="matrix(1.00009,0,0,-1.00002,4.0262835,14.567032)" stroke-width=".79701" stroke-linecap="butt" stroke-miterlimit="10" stroke-linejoin="miter" fill="none" stroke="#000000" d="M99.2134 6.94505V-.99188"/>
<use data-text="5" xlink:href="#font_1_56" transform="matrix(9.963496,0,0,-9.962799,95.775539,25.913258)"/>
<use data-text="0" xlink:href="#font_1_121" transform="matrix(9.963496,0,0,-9.962799,100.75728,25.913258)"/>
<use data-text="0" xlink:href="#font_1_121" transform="matrix(9.963496,0,0,-9.962799,105.73903,25.913258)"/>
<path transform="matrix(1.00009,0,0,-1.00002,4.0262835,14.567032)" stroke-width=".79701" stroke-linecap="butt" stroke-miterlimit="10" stroke-linejoin="miter" fill="none" stroke="#000000" d="M198.42679 6.94505V-.99188"/>
<use data-text="1" xlink:href="#font_1_82" transform="matrix(9.963496,0,0,-9.962799,192.50727,25.913258)"/>
<use data-text="0" xlink:href="#font_1_121" transform="matrix(9.963496,0,0,-9.962799,197.489,25.913258)"/>
<use data-text="0" xlink:href="#font_1_121" transform="matrix(9.963496,0,0,-9.962799,202.47075,25.913258)"/>
<use data-text="0" xlink:href="#font_1_121" transform="matrix(9.963496,0,0,-9.962799,207.4525,25.913258)"/>
<path transform="matrix(1.00009,0,0,-1.00002,4.0262835,14.567032)" stroke-width=".79701" stroke-linecap="butt" stroke-miterlimit="10" stroke-linejoin="miter" fill="none" stroke="#000000" d="M19.84267 3.96846V0"/>
<path transform="matrix(1.00009,0,0,-1.00002,4.0262835,14.567032)" stroke-width=".79701" stroke-linecap="butt" stroke-miterlimit="10" stroke-linejoin="miter" fill="none" stroke="#000000" d="M39.68535 3.96846V0"/>
<path transform="matrix(1.00009,0,0,-1.00002,4.0262835,14.567032)" stroke-width=".79701" stroke-linecap="butt" stroke-miterlimit="10" stroke-linejoin="miter" fill="none" stroke="#000000" d="M59.52802 3.96846V0"/>
<path transform="matrix(1.00009,0,0,-1.00002,4.0262835,14.567032)" stroke-width=".79701" stroke-linecap="butt" stroke-miterlimit="10" stroke-linejoin="miter" fill="none" stroke="#000000" d="M79.37071 3.96846V0"/>
<path transform="matrix(1.00009,0,0,-1.00002,4.0262835,14.567032)" stroke-width=".79701" stroke-linecap="butt" stroke-miterlimit="10" stroke-linejoin="miter" fill="none" stroke="#000000" d="M99.2134 3.96846V0"/>
<path transform="matrix(1.00009,0,0,-1.00002,4.0262835,14.567032)" stroke-width=".79701" stroke-linecap="butt" stroke-miterlimit="10" stroke-linejoin="miter" fill="none" stroke="#000000" d="M119.05606 3.96846V0"/>
<path transform="matrix(1.00009,0,0,-1.00002,4.0262835,14.567032)" stroke-width=".79701" stroke-linecap="butt" stroke-miterlimit="10" stroke-linejoin="miter" fill="none" stroke="#000000" d="M138.89876 3.96846V0"/>
<path transform="matrix(1.00009,0,0,-1.00002,4.0262835,14.567032)" stroke-width=".79701" stroke-linecap="butt" stroke-miterlimit="10" stroke-linejoin="miter" fill="none" stroke="#000000" d="M158.74143 3.96846V0"/>
<path transform="matrix(1.00009,0,0,-1.00002,4.0262835,14.567032)" stroke-width=".79701" stroke-linecap="butt" stroke-miterlimit="10" stroke-linejoin="miter" fill="none" stroke="#000000" d="M178.5841 3.96846V0"/>
<path transform="matrix(1.00009,0,0,-1.00002,4.0262835,14.567032)" stroke-width=".79701" stroke-linecap="butt" stroke-miterlimit="10" stroke-linejoin="miter" fill="none" stroke="#000000" d="M198.42679 3.96846V0"/>
<path transform="matrix(1.00009,0,0,-1.00002,4.0262835,14.567032)" stroke-width=".79701" stroke-linecap="butt" stroke-miterlimit="10" stroke-linejoin="miter" fill="none" stroke="#000000" d="M218.26947 3.96846V0"/>
<path transform="matrix(1.00009,0,0,-1.00002,4.0262835,14.567032)" stroke-width=".79701" stroke-linecap="butt" stroke-miterlimit="10" stroke-linejoin="miter" fill="none" stroke="#000000" d="M238.11215 3.96846V0"/>
<path transform="matrix(1.00009,0,0,-1.00002,4.0262835,14.567032)" stroke-width=".79701" stroke-linecap="butt" stroke-miterlimit="10" stroke-linejoin="miter" fill="none" stroke="#000000" d="M257.95484 3.96846V0"/>
<path transform="matrix(1.00009,0,0,-1.00002,4.0262835,14.567032)" stroke-width=".79701" stroke-linecap="butt" stroke-miterlimit="10" stroke-linejoin="miter" fill="none" stroke="#000000" d="M9.92133 2.381V0"/>
<path transform="matrix(1.00009,0,0,-1.00002,4.0262835,14.567032)" stroke-width=".79701" stroke-linecap="butt" stroke-miterlimit="10" stroke-linejoin="miter" fill="none" stroke="#000000" d="M29.764 2.381V0"/>
<path transform="matrix(1.00009,0,0,-1.00002,4.0262835,14.567032)" stroke-width=".79701" stroke-linecap="butt" stroke-miterlimit="10" stroke-linejoin="miter" fill="none" stroke="#000000" d="M49.60667 2.381V0"/>
<path transform="matrix(1.00009,0,0,-1.00002,4.0262835,14.567032)" stroke-width=".79701" stroke-linecap="butt" stroke-miterlimit="10" stroke-linejoin="miter" fill="none" stroke="#000000" d="M69.44937 2.381V0"/>
<path transform="matrix(1.00009,0,0,-1.00002,4.0262835,14.567032)" stroke-width=".79701" stroke-linecap="butt" stroke-miterlimit="10" stroke-linejoin="miter" fill="none" stroke="#000000" d="M89.29204 2.381V0"/>
<path transform="matrix(1.00009,0,0,-1.00002,4.0262835,14.567032)" stroke-width=".79701" stroke-linecap="butt" stroke-miterlimit="10" stroke-linejoin="miter" fill="none" stroke="#000000" d="M109.13472 2.381V0"/>
<path transform="matrix(1.00009,0,0,-1.00002,4.0262835,14.567032)" stroke-width=".79701" stroke-linecap="butt" stroke-miterlimit="10" stroke-linejoin="miter" fill="none" stroke="#000000" d="M128.9774 2.381V0"/>
<path transform="matrix(1.00009,0,0,-1.00002,4.0262835,14.567032)" stroke-width=".79701" stroke-linecap="butt" stroke-miterlimit="10" stroke-linejoin="miter" fill="none" stroke="#000000" d="M148.82009 2.381V0"/>
<path transform="matrix(1.00009,0,0,-1.00002,4.0262835,14.567032)" stroke-width=".79701" stroke-linecap="butt" stroke-miterlimit="10" stroke-linejoin="miter" fill="none" stroke="#000000" d="M168.66277 2.381V0"/>
<path transform="matrix(1.00009,0,0,-1.00002,4.0262835,14.567032)" stroke-width=".79701" stroke-linecap="butt" stroke-miterlimit="10" stroke-linejoin="miter" fill="none" stroke="#000000" d="M188.50543 2.381V0"/>
<path transform="matrix(1.00009,0,0,-1.00002,4.0262835,14.567032)" stroke-width=".79701" stroke-linecap="butt" stroke-miterlimit="10" stroke-linejoin="miter" fill="none" stroke="#000000" d="M208.34813 2.381V0"/>
<path transform="matrix(1.00009,0,0,-1.00002,4.0262835,14.567032)" stroke-width=".79701" stroke-linecap="butt" stroke-miterlimit="10" stroke-linejoin="miter" fill="none" stroke="#000000" d="M228.19081 2.381V0"/>
<path transform="matrix(1.00009,0,0,-1.00002,4.0262835,14.567032)" stroke-width=".79701" stroke-linecap="butt" stroke-miterlimit="10" stroke-linejoin="miter" fill="none" stroke="#000000" d="M248.03348 2.381V0"/>
<path transform="matrix(1.00009,0,0,-1.00002,4.0262835,14.567032)" d="M71.43362 0C71.43362 1.09587 70.54524 1.98425 69.44937 1.98425 68.35349 1.98425 67.4651 1.09587 67.4651 0 67.4651-1.09587 68.35349-1.98425 69.44937-1.98425 70.54524-1.98425 71.43362-1.09587 71.43362 0ZM69.44937 0" fill="#0000ff"/>
<path transform="matrix(1.00009,0,0,-1.00002,4.0262835,14.567032)" stroke-width=".3985" stroke-linecap="butt" stroke-miterlimit="10" stroke-linejoin="miter" fill="none" stroke="#0000ff" d="M71.43362 0C71.43362 1.09587 70.54524 1.98425 69.44937 1.98425 68.35349 1.98425 67.4651 1.09587 67.4651 0 67.4651-1.09587 68.35349-1.98425 69.44937-1.98425 70.54524-1.98425 71.43362-1.09587 71.43362 0ZM69.44937 0"/>
<use data-text="A" xlink:href="#font_1_27" transform="matrix(9.963496,0,0,-9.962799,69.74519,9.05492)" fill="#0000ff"/>
<path transform="matrix(1.00009,0,0,-1.00002,4.0262835,14.567032)" d="M165.68634 0C165.68634 1.09587 164.79798 1.98425 163.70209 1.98425 162.6062 1.98425 161.71784 1.09587 161.71784 0 161.71784-1.09587 162.6062-1.98425 163.70209-1.98425 164.79798-1.98425 165.68634-1.09587 165.68634 0ZM163.70209 0" fill="#0000ff"/>
<path transform="matrix(1.00009,0,0,-1.00002,4.0262835,14.567032)" stroke-width=".3985" stroke-linecap="butt" stroke-miterlimit="10" stroke-linejoin="miter" fill="none" stroke="#0000ff" d="M165.68634 0C165.68634 1.09587 164.79798 1.98425 163.70209 1.98425 162.6062 1.98425 161.71784 1.09587 161.71784 0 161.71784-1.09587 162.6062-1.98425 163.70209-1.98425 164.79798-1.98425 165.68634-1.09587 165.68634 0ZM163.70209 0"/>
<use data-text="B" xlink:href="#font_1_34" transform="matrix(9.963496,0,0,-9.962799,164.2157,9.05492)" fill="#0000ff"/>
</svg>
