<svg xmlns="http://www.w3.org/2000/svg" xmlns:xlink="http://www.w3.org/1999/xlink" version="1.1" width="317" height="27" viewBox="0 0 317 27">
<defs>
<path id="font_1_121" d="M.45999146 .31976319C.45999146 .39982606 .45498658 .47988893 .41999818 .5539398 .37399293 .65000918 .2919922 .6660156 .25 .6660156 .18998719 .6660156 .116989139 .64001467 .07598877 .54693606 .04399109 .47789 .038986207 .39982606 .038986207 .31976319 .038986207 .24472046 .042999269 .15464783 .083999637 .07859802 .1269989-.0024719239 .19999695-.022460938 .24899292-.022460938 .30299378-.022460938 .3789978-.0014648438 .4229889 .09359741 .45498658 .16265869 .45999146 .2407074 .45999146 .31976319M.3769989 .3317871C.3769989 .25672914 .3769989 .18867493 .3659973 .12461853 .35099793 .029556275 .2939911-.00047302247 .24899292-.00047302247 .20999146-.00047302247 .15098572 .024551392 .1329956 .12062073 .12199402 .18066406 .12199402 .2727356 .12199402 .3317871 .12199402 .39582826 .12199402 .46188355 .12998963 .5159149 .14898682 .63500979 .22399903 .64401248 .24899292 .64401248 .28199769 .64401248 .34799195 .6259918 .36698915 .52693179 .3769989 .47088624 .3769989 .39482118 .3769989 .3317871Z"/>
<path id="font_1_82" d="M.4189911 0V.0309906H.3869934C.29699708 .0309906 .2939911 .041992189 .2939911 .07902527V.64012148C.2939911 .6640167 .2939911 .6660156 .2709961 .6660156 .20899964 .60227969 .12098694 .60227969 .08898926 .60227969V.57128909C.10899353 .57128909 .16799927 .57128909 .21998596 .5972748V.07902527C.21998596 .042999269 .21699524 .0309906 .1269989 .0309906H.09498596V0C.12998963 .0029907227 .21699524 .0029907227 .25698854 .0029907227 .29699708 .0029907227 .38398744 .0029907227 .4189911 0Z"/>
<path id="font_1_107" d="M.44898988 .17396546H.42399598C.4189911 .14398194 .4119873 .099990848 .4019928 .084991458 .394989 .07699585 .32899476 .07699585 .30699159 .07699585H.1269989L.23298645 .17996216C.3889923 .31803895 .44898988 .37210084 .44898988 .47216798 .44898988 .5860901 .35899354 .6660156 .23699951 .6660156 .12399292 .6660156 .049987794 .57411196 .049987794 .48516847 .049987794 .4291687 .099990848 .4291687 .102996829 .4291687 .11999512 .4291687 .15499878 .44117738 .15499878 .48217774 .15499878 .5081787 .13699341 .5341797 .101989749 .5341797 .09399414 .5341797 .09199524 .5341797 .08898926 .5331726 .11199951 .59806826 .1659851 .63500979 .22399903 .63500979 .31498719 .63500979 .35798646 .5541382 .35798646 .47216798 .35798646 .39196778 .30799867 .31297303 .25299073 .25097657L.06098938 .036987306C.049987794 .025985718 .049987794 .023986817 .049987794 0H.42099L.44898988 .17396546Z"/>
<path id="font_1_42" d="M.6649933 .23271179C.6649933 .24272156 .6649933 .24972534 .6519928 .24972534 .6409912 .24972534 .6409912 .24372864 .6399994 .23371887 .6319885 .09059143 .5249939 .008529663 .41600038 .008529663 .35499574 .008529663 .15899658 .042556764 .15899658 .34080506 .15899658 .64004519 .35398866 .67407229 .4149933 .67407229 .5239868 .67407229 .61299136 .58299258 .6329956 .4368744 .6349945 .42286683 .6349945 .41986085 .6489868 .41986085 .6649933 .41986085 .6649933 .42286683 .6649933 .44387818V.68107607C.6649933 .69807437 .6649933 .7050781 .6539917 .7050781 .6499939 .7050781 .6459961 .7050781 .6380005 .69306948L.58799746 .61901858C.5509949 .6550598 .5 .7050781 .4039917 .7050781 .21699524 .7050781 .055999757 .5459595 .055999757 .34179688 .055999757 .1346283 .21798706-.022460938 .4039917-.022460938 .5669861-.022460938 .6649933 .116622928 .6649933 .23271179Z"/>
<path id="font_1_46" d="M.70700076 .33580018C.70700076 .52568057 .57199099 .6826172 .40098573 .6826172H.034988405V.6516113H.05899048C.13598633 .6516113 .13798523 .64060977 .13798523 .6046295V.07795715C.13798523 .041992189 .13598633 .0309906 .05899048 .0309906H.034988405V0H.40098573C.56900027 0 .70700076 .1479187 .70700076 .33580018M.6069946 .33580018C.6069946 .22486878 .58799746 .16490174 .5519867 .11593628 .5319977 .08895874 .47499085 .0309906 .37399293 .0309906H.272995C.22599793 .0309906 .22399903 .037994386 .22399903 .07096863V.6116333C.22399903 .64460757 .22599793 .6516113 .272995 .6516113H.37298585C.43499757 .6516113 .5039978 .6296234 .5549927 .55867007 .59799197 .49969483 .6069946 .41375733 .6069946 .33580018Z"/>
</defs>
<path transform="matrix(1.00008,0,0,-1,3.7090989,13.676)" stroke-width=".79701" stroke-linecap="butt" stroke-miterlimit="10" stroke-linejoin="miter" fill="none" stroke="#000000" d="M0 0H310.3803"/>
<path transform="matrix(1.00008,0,0,-1,314.11427,13.676)" d="M1.0361 0C-.25902 .25902-1.55415 .77707-3.1083 1.68365-1.55415 .51805-1.55415-.51805-3.1083-1.68365-1.55415-.77707-.25902-.25902 1.0361 0Z"/>
<path transform="matrix(1.00008,0,0,-1,314.11427,13.676)" stroke-width=".79701" stroke-linecap="butt" stroke-linejoin="round" fill="none" stroke="#000000" d="M1.0361 0C-.25902 .25902-1.55415 .77707-3.1083 1.68365-1.55415 .51805-1.55415-.51805-3.1083-1.68365-1.55415-.77707-.25902-.25902 1.0361 0Z"/>
<path transform="matrix(1.00008,0,0,-1,3.7090989,13.676)" stroke-width=".79701" stroke-linecap="butt" stroke-miterlimit="10" stroke-linejoin="miter" fill="none" stroke="#000000" d="M0 4.96077V-.70848"/>
<use data-text="0" xlink:href="#font_1_121" transform="matrix(9.963397,0,0,-9.9626,1.2179031,24.739)"/>
<path transform="matrix(1.00008,0,0,-1,3.7090989,13.676)" stroke-width=".79701" stroke-linecap="butt" stroke-miterlimit="10" stroke-linejoin="miter" fill="none" stroke="#000000" d="M141.73404 4.96077V-.70848"/>
<use data-text="1" xlink:href="#font_1_82" transform="matrix(9.963397,0,0,-9.9626,135.49063,24.739)"/>
<use data-text="0" xlink:href="#font_1_121" transform="matrix(9.963397,0,0,-9.9626,140.47234,24.739)"/>
<use data-text="0" xlink:href="#font_1_121" transform="matrix(9.963397,0,0,-9.9626,145.45404,24.739)"/>
<use data-text="0" xlink:href="#font_1_121" transform="matrix(9.963397,0,0,-9.9626,150.43573,24.739)"/>
<path transform="matrix(1.00008,0,0,-1,3.7090989,13.676)" stroke-width=".79701" stroke-linecap="butt" stroke-miterlimit="10" stroke-linejoin="miter" fill="none" stroke="#000000" d="M283.4681 4.96077V-.70848"/>
<use data-text="2" xlink:href="#font_1_107" transform="matrix(9.963397,0,0,-9.9626,277.236,24.739)"/>
<use data-text="0" xlink:href="#font_1_121" transform="matrix(9.963397,0,0,-9.9626,282.21769,24.739)"/>
<use data-text="0" xlink:href="#font_1_121" transform="matrix(9.963397,0,0,-9.9626,287.19938,24.739)"/>
<use data-text="0" xlink:href="#font_1_121" transform="matrix(9.963397,0,0,-9.9626,292.1811,24.739)"/>
<path transform="matrix(1.00008,0,0,-1,3.7090989,13.676)" stroke-width=".79701" stroke-linecap="butt" stroke-miterlimit="10" stroke-linejoin="miter" fill="none" stroke="#000000" d="M28.3468 2.83463V0"/>
<path transform="matrix(1.00008,0,0,-1,3.7090989,13.676)" stroke-width=".79701" stroke-linecap="butt" stroke-miterlimit="10" stroke-linejoin="miter" fill="none" stroke="#000000" d="M56.69362 2.83463V0"/>
<path transform="matrix(1.00008,0,0,-1,3.7090989,13.676)" stroke-width=".79701" stroke-linecap="butt" stroke-miterlimit="10" stroke-linejoin="miter" fill="none" stroke="#000000" d="M85.04042 2.83463V0"/>
<path transform="matrix(1.00008,0,0,-1,3.7090989,13.676)" stroke-width=".79701" stroke-linecap="butt" stroke-miterlimit="10" stroke-linejoin="miter" fill="none" stroke="#000000" d="M113.38724 2.83463V0"/>
<path transform="matrix(1.00008,0,0,-1,3.7090989,13.676)" stroke-width=".79701" stroke-linecap="butt" stroke-miterlimit="10" stroke-linejoin="miter" fill="none" stroke="#000000" d="M141.73404 2.83463V0"/>
<path transform="matrix(1.00008,0,0,-1,3.7090989,13.676)" stroke-width=".79701" stroke-linecap="butt" stroke-miterlimit="10" stroke-linejoin="miter" fill="none" stroke="#000000" d="M170.08086 2.83463V0"/>
<path transform="matrix(1.00008,0,0,-1,3.7090989,13.676)" stroke-width=".79701" stroke-linecap="butt" stroke-miterlimit="10" stroke-linejoin="miter" fill="none" stroke="#000000" d="M198.42766 2.83463V0"/>
<path transform="matrix(1.00008,0,0,-1,3.7090989,13.676)" stroke-width=".79701" stroke-linecap="butt" stroke-miterlimit="10" stroke-linejoin="miter" fill="none" stroke="#000000" d="M226.77448 2.83463V0"/>
<path transform="matrix(1.00008,0,0,-1,3.7090989,13.676)" stroke-width=".79701" stroke-linecap="butt" stroke-miterlimit="10" stroke-linejoin="miter" fill="none" stroke="#000000" d="M255.12128 2.83463V0"/>
<path transform="matrix(1.00008,0,0,-1,3.7090989,13.676)" stroke-width=".79701" stroke-linecap="butt" stroke-miterlimit="10" stroke-linejoin="miter" fill="none" stroke="#000000" d="M283.4681 2.83463V0"/>
<path transform="matrix(1.00008,0,0,-1,3.7090989,13.676)" d="M100.63115 0C100.63115 .78276 99.99658 1.41731 99.21382 1.41731 98.43106 1.41731 97.7965 .78276 97.7965 0 97.7965-.78276 98.43106-1.41731 99.21382-1.41731 99.99658-1.41731 100.63115-.78276 100.63115 0ZM99.21382 0" fill="#0000ff"/>
<path transform="matrix(1.00008,0,0,-1,3.7090989,13.676)" stroke-width=".3985" stroke-linecap="butt" stroke-miterlimit="10" stroke-linejoin="miter" fill="none" stroke="#0000ff" d="M100.63115 0C100.63115 .78276 99.99658 1.41731 99.21382 1.41731 98.43106 1.41731 97.7965 .78276 97.7965 0 97.7965-.78276 98.43106-1.41731 99.21382-1.41731 99.99658-1.41731 100.63115-.78276 100.63115 0ZM99.21382 0"/>
<use data-text="C" xlink:href="#font_1_42" transform="matrix(9.963397,0,0,-9.9626,99.33374,7.9440004)" fill="#0000ff"/>
<path transform="matrix(1.00008,0,0,-1,3.7090989,13.676)" d="M199.84499 0C199.84499 .78276 199.21044 1.41731 198.42766 1.41731 197.6449 1.41731 197.01033 .78276 197.01033 0 197.01033-.78276 197.6449-1.41731 198.42766-1.41731 199.21044-1.41731 199.84499-.78276 199.84499 0ZM198.42766 0" fill="#0000ff"/>
<path transform="matrix(1.00008,0,0,-1,3.7090989,13.676)" stroke-width=".3985" stroke-linecap="butt" stroke-miterlimit="10" stroke-linejoin="miter" fill="none" stroke="#0000ff" d="M199.84499 0C199.84499 .78276 199.21044 1.41731 198.42766 1.41731 197.6449 1.41731 197.01033 .78276 197.01033 0 197.01033-.78276 197.6449-1.41731 198.42766-1.41731 199.21044-1.41731 199.84499-.78276 199.84499 0ZM198.42766 0"/>
<use data-text="D" xlink:href="#font_1_46" transform="matrix(9.963397,0,0,-9.9626,198.34665,8.164)" fill="#0000ff"/>
</svg>
