<svg xmlns="http://www.w3.org/2000/svg" xmlns:xlink="http://www.w3.org/1999/xlink" version="1.1" width="304" height="27" viewBox="0 0 304 27">
<defs>
<path id="font_1_1" d="M.6589966 .23046875C.6759949 .23046875 .69400027 .23046875 .69400027 .25045777 .69400027 .27046205 .6759949 .27046205 .6589966 .27046205H.117996219C.100997928 .27046205 .08299255 .27046205 .08299255 .25045777 .08299255 .23046875 .100997928 .23046875 .117996219 .23046875H.6589966Z"/>
<path id="font_2_2" d="M.2939911 .64004519C.2939911 .66400149 .2939911 .6660156 .2709961 .6660156 .20899964 .60227969 .12098694 .60227969 .08898926 .60227969V.57128909C.10899353 .57128909 .16799927 .57128909 .21998596 .5972748V.07902527C.21998596 .042999269 .21699524 .0309906 .1269989 .0309906H.09498596V0C.12998963 .0029907227 .21699524 .0029907227 .25698854 .0029907227 .29699708 .0029907227 .38398744 .0029907227 .4189911 0V.0309906H.3869934C.29699708 .0309906 .2939911 .041992189 .2939911 .07902527V.64004519Z"/>
<path id="font_2_1" d="M.45999146 .31976319C.45999146 .39982606 .45498658 .47988893 .41999818 .5539398 .37399293 .65000918 .2919922 .6660156 .25 .6660156 .18998719 .6660156 .116989139 .64001467 .07598877 .54693606 .04399109 .47789 .038986207 .39982606 .038986207 .31976319 .038986207 .24472046 .042999269 .15464783 .083999637 .07859802 .1269989-.0024719239 .19999695-.022460938 .24899292-.022460938 .30299378-.022460938 .3789978-.0014648438 .4229889 .09359741 .45498658 .16265869 .45999146 .2407074 .45999146 .31976319M.24899292-.00047302247C.20999146-.00047302247 .15098572 .024551392 .1329956 .12062073 .12199402 .18066406 .12199402 .2727356 .12199402 .3317871 .12199402 .39582826 .12199402 .46188355 .12998963 .5159149 .14898682 .63500979 .22399903 .64401248 .24899292 .64401248 .28199769 .64401248 .34799195 .6259918 .36698915 .52693179 .3769989 .47088624 .3769989 .39482118 .3769989 .3317871 .3769989 .25672914 .3769989 .18867493 .3659973 .12461853 .35099793 .029556275 .2939911-.00047302247 .24899292-.00047302247Z"/>
<path id="font_2_5" d="M.44898988 .20022583C.44898988 .3193512 .36698915 .41944886 .25898744 .41944886 .21099854 .41944886 .16799927 .40345765 .13198853 .36842347V.5637665C.1519928 .5577698 .18499756 .55078127 .21699524 .55078127 .33999635 .55078127 .4099884 .6417694 .4099884 .6547699 .4099884 .6607666 .40699769 .6657715 .3999939 .6657715 .39898683 .6657715 .39698792 .6657715 .3919983 .66278079 .37199403 .6537781 .32299806 .6337738 .2559967 .6337738 .21598816 .6337738 .16999817 .6407776 .12298584 .6617737 .114990238 .66477969 .11299133 .66477969 .11099243 .66477969 .100997928 .66477969 .100997928 .6567688 .100997928 .6407776V.34439088C.100997928 .32637025 .100997928 .31835938 .114990238 .31835938 .12199402 .31835938 .12399292 .32136537 .12799073 .32736207 .13899231 .3433838 .17599488 .39746095 .25698854 .39746095 .30899049 .39746095 .33399964 .35139466 .34199525 .33337403 .35798646 .29632569 .3600006 .25727845 .3600006 .20722962 .3600006 .17222595 .3600006 .11222839 .33599855 .07035828 .31199647 .031463624 .2749939 .0055389406 .22898865 .0055389406 .1559906 .0055389406 .09899902 .058380128 .08198547 .11723328 .084991458 .1162262 .08799744 .115234378 .09899902 .115234378 .13198853 .115234378 .14898682 .14022827 .14898682 .16423035 .14898682 .18823242 .13198853 .21322632 .09899902 .21322632 .084991458 .21322632 .049987794 .20622254 .049987794 .16023255 .049987794 .07434082 .11898804-.022460938 .23098755-.022460938 .34700013-.022460938 .44898988 .073349 .44898988 .20022583Z"/>
<path id="font_2_4" d="M.2939911 .16503906V.07800293C.2939911 .041992189 .2919922 .0309906 .21798706 .0309906H.19699097V0C.23799134 .0029907227 .2899933 .0029907227 .33198548 .0029907227 .37399293 .0029907227 .4269867 .0029907227 .46798707 0V.0309906H.44699098C.37298585 .0309906 .37098695 .041992189 .37098695 .07800293V.16503906H.47099305V.19602967H.37098695V.65075686C.37098695 .67074587 .37098695 .6767578 .35499574 .6767578 .34599305 .6767578 .34298707 .6767578 .33499146 .66474917L.027999878 .19602967V.16503906H.2939911M.2999878 .19602967H.055999757L.2999878 .5688019V.19602967Z"/>
<path id="font_3_1" d="M.19198609 .052993776C.19198609 .08198547 .16799927 .10598755 .13899231 .10598755 .10998535 .10598755 .085998538 .08198547 .085998538 .052993776 .085998538 .023986817 .10998535 0 .13899231 0 .16799927 0 .19198609 .023986817 .19198609 .052993776Z"/>
<path id="font_2_6" d="M.13198853 .327713V.35173036C.13198853 .6047821 .2559967 .64100649 .30699159 .64100649 .33099366 .64100649 .37298585 .634964 .394989 .6007538 .37998963 .6007538 .33999635 .6007538 .33999635 .5557556 .33999635 .524765 .3639984 .5097656 .38598634 .5097656 .4019928 .5097656 .43199159 .51875308 .43199159 .5577545 .43199159 .6178589 .3880005 .6660156 .30499269 .6660156 .1769867 .6660156 .041992189 .5367584 .041992189 .31570436 .041992189 .048553468 .1579895-.022460938 .25099183-.022460938 .3619995-.022460938 .45700074 .07156372 .45700074 .2036438 .45700074 .33070375 .36799623 .4267578 .25698854 .4267578 .18899536 .4267578 .1519928 .37573243 .13198853 .327713M.25099183 .0055389406C.18798828 .0055389406 .1579895 .06556702 .1519928 .080566409 .13398743 .127594 .13398743 .2076416 .13398743 .22564698 .13398743 .30369569 .1659851 .40374757 .2559967 .40374757 .27198792 .40374757 .31799317 .40374757 .34899903 .34172059 .36698915 .30470277 .36698915 .2536621 .36698915 .20463562 .36698915 .15661621 .36698915 .10658264 .34999085 .0705719 .31999208 .010528564 .27398683 .0055389406 .25099183 .0055389406Z"/>
<path id="font_2_3" d="M.1269989 .07699585 .23298645 .18003845C.3889923 .31811524 .44898988 .3721466 .44898988 .47216798 .44898988 .5860901 .35899354 .6660156 .23699951 .6660156 .12399292 .6660156 .049987794 .57411196 .049987794 .48516847 .049987794 .4291687 .099990848 .4291687 .102996829 .4291687 .11999512 .4291687 .15499878 .44117738 .15499878 .48217774 .15499878 .5081787 .13699341 .5341797 .101989749 .5341797 .09399414 .5341797 .09199524 .5341797 .08898926 .5331726 .11199951 .59806826 .1659851 .63500979 .22399903 .63500979 .31498719 .63500979 .35798646 .5541382 .35798646 .47216798 .35798646 .39215089 .30799867 .31311036 .25299073 .25108338L.06098938 .036987306C.049987794 .025985718 .049987794 .023986817 .049987794 0H.42099L.44898988 .17404175H.42399598C.4189911 .14402771 .4119873 .1000061 .4019928 .084991458 .394989 .07699585 .32899476 .07699585 .30699159 .07699585H.1269989Z"/>
</defs>
<path transform="matrix(1.00005,0,0,-1.00005,152.13884,14.271063)" stroke-width=".79701" stroke-linecap="butt" stroke-miterlimit="10" stroke-linejoin="miter" fill="none" stroke="#000000" d="M-150.52056 0H149.08596"/>
<path transform="matrix(1.00005,0,0,-1.00005,301.23225,14.271063)" d="M1.0361 0C-.25902 .25902-1.55415 .77707-3.1083 1.68365-1.55415 .51805-1.55415-.51805-3.1083-1.68365-1.55415-.77707-.25902-.25902 1.0361 0Z"/>
<path transform="matrix(1.00005,0,0,-1.00005,301.23225,14.271063)" stroke-width=".79701" stroke-linecap="butt" stroke-linejoin="round" fill="none" stroke="#000000" d="M1.0361 0C-.25902 .25902-1.55415 .77707-3.1083 1.68365-1.55415 .51805-1.55415-.51805-3.1083-1.68365-1.55415-.77707-.25902-.25902 1.0361 0Z"/>
<path transform="matrix(1.00005,0,0,-1.00005,152.13884,14.271063)" stroke-width=".3985" stroke-linecap="butt" stroke-miterlimit="10" stroke-linejoin="miter" fill="none" stroke="#000000" d="M-140.31575 3.82681V0"/>
<path transform="matrix(1.00005,0,0,-1.00005,152.13884,14.271063)" stroke-width=".3985" stroke-linecap="butt" stroke-miterlimit="10" stroke-linejoin="miter" fill="none" stroke="#000000" d="M-127.55977 3.82681V0"/>
<path transform="matrix(1.00005,0,0,-1.00005,152.13884,14.271063)" stroke-width=".3985" stroke-linecap="butt" stroke-miterlimit="10" stroke-linejoin="miter" fill="none" stroke="#000000" d="M-114.80379 3.82681V0"/>
<path transform="matrix(1.00005,0,0,-1.00005,152.13884,14.271063)" stroke-width=".3985" stroke-linecap="butt" stroke-miterlimit="10" stroke-linejoin="miter" fill="none" stroke="#000000" d="M-102.0478 3.82681V0"/>
<path transform="matrix(1.00005,0,0,-1.00005,152.13884,14.271063)" stroke-width=".3985" stroke-linecap="butt" stroke-miterlimit="10" stroke-linejoin="miter" fill="none" stroke="#000000" d="M-89.29184 3.82681V0"/>
<path transform="matrix(1.00005,0,0,-1.00005,152.13884,14.271063)" stroke-width=".3985" stroke-linecap="butt" stroke-miterlimit="10" stroke-linejoin="miter" fill="none" stroke="#000000" d="M-76.53586 3.82681V0"/>
<path transform="matrix(1.00005,0,0,-1.00005,152.13884,14.271063)" stroke-width=".3985" stroke-linecap="butt" stroke-miterlimit="10" stroke-linejoin="miter" fill="none" stroke="#000000" d="M-63.77988 3.82681V0"/>
<path transform="matrix(1.00005,0,0,-1.00005,152.13884,14.271063)" stroke-width=".3985" stroke-linecap="butt" stroke-miterlimit="10" stroke-linejoin="miter" fill="none" stroke="#000000" d="M-51.0239 3.82681V0"/>
<path transform="matrix(1.00005,0,0,-1.00005,152.13884,14.271063)" stroke-width=".3985" stroke-linecap="butt" stroke-miterlimit="10" stroke-linejoin="miter" fill="none" stroke="#000000" d="M-38.26791 3.82681V0"/>
<path transform="matrix(1.00005,0,0,-1.00005,152.13884,14.271063)" stroke-width=".3985" stroke-linecap="butt" stroke-miterlimit="10" stroke-linejoin="miter" fill="none" stroke="#000000" d="M-25.51193 3.82681V0"/>
<path transform="matrix(1.00005,0,0,-1.00005,152.13884,14.271063)" stroke-width=".3985" stroke-linecap="butt" stroke-miterlimit="10" stroke-linejoin="miter" fill="none" stroke="#000000" d="M-12.75595 3.82681V0"/>
<path transform="matrix(1.00005,0,0,-1.00005,152.13884,14.271063)" stroke-width=".3985" stroke-linecap="butt" stroke-miterlimit="10" stroke-linejoin="miter" fill="none" stroke="#000000" d="M0 3.82681V0"/>
<path transform="matrix(1.00005,0,0,-1.00005,152.13884,14.271063)" stroke-width=".3985" stroke-linecap="butt" stroke-miterlimit="10" stroke-linejoin="miter" fill="none" stroke="#000000" d="M12.75595 3.82681V0"/>
<path transform="matrix(1.00005,0,0,-1.00005,152.13884,14.271063)" stroke-width=".3985" stroke-linecap="butt" stroke-miterlimit="10" stroke-linejoin="miter" fill="none" stroke="#000000" d="M25.51193 3.82681V0"/>
<path transform="matrix(1.00005,0,0,-1.00005,152.13884,14.271063)" stroke-width=".3985" stroke-linecap="butt" stroke-miterlimit="10" stroke-linejoin="miter" fill="none" stroke="#000000" d="M38.26791 3.82681V0"/>
<path transform="matrix(1.00005,0,0,-1.00005,152.13884,14.271063)" stroke-width=".3985" stroke-linecap="butt" stroke-miterlimit="10" stroke-linejoin="miter" fill="none" stroke="#000000" d="M51.0239 3.82681V0"/>
<path transform="matrix(1.00005,0,0,-1.00005,152.13884,14.271063)" stroke-width=".3985" stroke-linecap="butt" stroke-miterlimit="10" stroke-linejoin="miter" fill="none" stroke="#000000" d="M63.77988 3.82681V0"/>
<path transform="matrix(1.00005,0,0,-1.00005,152.13884,14.271063)" stroke-width=".3985" stroke-linecap="butt" stroke-miterlimit="10" stroke-linejoin="miter" fill="none" stroke="#000000" d="M76.53586 3.82681V0"/>
<path transform="matrix(1.00005,0,0,-1.00005,152.13884,14.271063)" stroke-width=".3985" stroke-linecap="butt" stroke-miterlimit="10" stroke-linejoin="miter" fill="none" stroke="#000000" d="M89.29184 3.82681V0"/>
<path transform="matrix(1.00005,0,0,-1.00005,152.13884,14.271063)" stroke-width=".3985" stroke-linecap="butt" stroke-miterlimit="10" stroke-linejoin="miter" fill="none" stroke="#000000" d="M102.0478 3.82681V0"/>
<path transform="matrix(1.00005,0,0,-1.00005,152.13884,14.271063)" stroke-width=".3985" stroke-linecap="butt" stroke-miterlimit="10" stroke-linejoin="miter" fill="none" stroke="#000000" d="M114.80379 3.82681V0"/>
<path transform="matrix(1.00005,0,0,-1.00005,152.13884,14.271063)" stroke-width=".3985" stroke-linecap="butt" stroke-miterlimit="10" stroke-linejoin="miter" fill="none" stroke="#000000" d="M127.55977 3.82681V0"/>
<path transform="matrix(1.00005,0,0,-1.00005,152.13884,14.271063)" stroke-width=".3985" stroke-linecap="butt" stroke-miterlimit="10" stroke-linejoin="miter" fill="none" stroke="#000000" d="M140.31575 3.82681V0"/>
<path transform="matrix(1.00005,0,0,-1.00005,152.13884,14.271063)" stroke-width=".79701" stroke-linecap="butt" stroke-miterlimit="10" stroke-linejoin="miter" fill="none" stroke="#000000" d="M-127.55977 5.74013V0"/>
<use data-text="&#x2212;" xlink:href="#font_1_1" transform="matrix(9.963098,0,0,-9.963098,15.716019,24.411572)"/>
<use data-text="1" xlink:href="#font_2_2" transform="matrix(9.963098,0,0,-9.963098,23.465409,24.411572)"/>
<use data-text="0" xlink:href="#font_2_1" transform="matrix(9.963098,0,0,-9.963098,28.446946,24.411572)"/>
<path transform="matrix(1.00005,0,0,-1.00005,152.13884,14.271063)" stroke-width=".79701" stroke-linecap="butt" stroke-miterlimit="10" stroke-linejoin="miter" fill="none" stroke="#000000" d="M-63.77988 5.74013V0"/>
<use data-text="&#x2212;" xlink:href="#font_1_1" transform="matrix(9.963098,0,0,-9.963098,81.99034,24.411572)"/>
<use data-text="5" xlink:href="#font_2_5" transform="matrix(9.963098,0,0,-9.963098,89.73973,24.411572)"/>
<path transform="matrix(1.00005,0,0,-1.00005,152.13884,14.271063)" stroke-width=".79701" stroke-linecap="butt" stroke-miterlimit="10" stroke-linejoin="miter" fill="none" stroke="#000000" d="M0 5.74013V0"/>
<use data-text="0" xlink:href="#font_2_1" transform="matrix(9.963098,0,0,-9.963098,149.6477,24.41057)"/>
<path transform="matrix(1.00005,0,0,-1.00005,152.13884,14.271063)" stroke-width=".79701" stroke-linecap="butt" stroke-miterlimit="10" stroke-linejoin="miter" fill="none" stroke="#000000" d="M63.77988 5.74013V0"/>
<use data-text="5" xlink:href="#font_2_5" transform="matrix(9.963098,0,0,-9.963098,213.43091,24.41057)"/>
<path transform="matrix(1.00005,0,0,-1.00005,152.13884,14.271063)" stroke-width=".79701" stroke-linecap="butt" stroke-miterlimit="10" stroke-linejoin="miter" fill="none" stroke="#000000" d="M127.55977 5.74013V0"/>
<use data-text="1" xlink:href="#font_2_2" transform="matrix(9.963098,0,0,-9.963098,274.72297,24.41057)"/>
<use data-text="0" xlink:href="#font_2_1" transform="matrix(9.963098,0,0,-9.963098,279.70454,24.41057)"/>
<path transform="matrix(1.00005,0,0,-1.00005,152.13884,14.271063)" d="M-55.48859 0C-55.48859 1.05669-56.3452 1.9133-57.40189 1.9133-58.45857 1.9133-59.3152 1.05669-59.3152 0-59.3152-1.05669-58.45857-1.9133-57.40189-1.9133-56.3452-1.9133-55.48859-1.05669-55.48859 0ZM-57.40189 0" fill="#ff0000"/>
<path transform="matrix(1.00005,0,0,-1.00005,152.13884,14.271063)" stroke-width=".3985" stroke-linecap="butt" stroke-miterlimit="10" stroke-linejoin="miter" fill="none" stroke="#ff0000" d="M-55.48859 0C-55.48859 1.05669-56.3452 1.9133-57.40189 1.9133-58.45857 1.9133-59.3152 1.05669-59.3152 0-59.3152-1.05669-58.45857-1.9133-57.40189-1.9133-56.3452-1.9133-55.48859-1.05669-55.48859 0ZM-57.40189 0"/>
<use data-text="&#x2212;" xlink:href="#font_1_1" transform="matrix(8.966787,0,0,-8.966787,85.5184,7.366518)" fill="#ff0000"/>
<use data-text="4" xlink:href="#font_2_4" transform="matrix(8.966787,0,0,-8.966787,92.49284,7.366518)" fill="#ff0000"/>
<use data-text="." xlink:href="#font_3_1" transform="matrix(8.966787,0,0,-8.966787,96.97598,7.366518)" fill="#ff0000"/>
<use data-text="5" xlink:href="#font_2_5" transform="matrix(8.966787,0,0,-8.966787,99.4673,7.366518)" fill="#ff0000"/>
<path transform="matrix(1.00005,0,0,-1.00005,152.13884,14.271063)" d="M-15.94496 0C-15.94496 1.05669-16.80159 1.9133-17.85828 1.9133-18.91496 1.9133-19.77158 1.05669-19.77158 0-19.77158-1.05669-18.91496-1.9133-17.85828-1.9133-16.80159-1.9133-15.94496-1.05669-15.94496 0ZM-17.85828 0" fill="#ff0000"/>
<path transform="matrix(1.00005,0,0,-1.00005,152.13884,14.271063)" stroke-width=".3985" stroke-linecap="butt" stroke-miterlimit="10" stroke-linejoin="miter" fill="none" stroke="#ff0000" d="M-15.94496 0C-15.94496 1.05669-16.80159 1.9133-17.85828 1.9133-18.91496 1.9133-19.77158 1.05669-19.77158 0-19.77158-1.05669-18.91496-1.9133-17.85828-1.9133-16.80159-1.9133-15.94496-1.05669-15.94496 0ZM-17.85828 0"/>
<use data-text="&#x2212;" xlink:href="#font_1_1" transform="matrix(8.966787,0,0,-8.966787,125.06338,7.366518)" fill="#ff0000"/>
<use data-text="1" xlink:href="#font_2_2" transform="matrix(8.966787,0,0,-8.966787,132.03781,7.366518)" fill="#ff0000"/>
<use data-text="." xlink:href="#font_3_1" transform="matrix(8.966787,0,0,-8.966787,136.52097,7.366518)" fill="#ff0000"/>
<use data-text="4" xlink:href="#font_2_4" transform="matrix(8.966787,0,0,-8.966787,139.01227,7.366518)" fill="#ff0000"/>
<path transform="matrix(1.00005,0,0,-1.00005,152.13884,14.271063)" d="M9.56694 0C9.56694 1.05669 8.71033 1.9133 7.65364 1.9133 6.59695 1.9133 5.74034 1.05669 5.74034 0 5.74034-1.05669 6.59695-1.9133 7.65364-1.9133 8.71033-1.9133 9.56694-1.05669 9.56694 0ZM7.65364 0" fill="#ff0000"/>
<path transform="matrix(1.00005,0,0,-1.00005,152.13884,14.271063)" stroke-width=".3985" stroke-linecap="butt" stroke-miterlimit="10" stroke-linejoin="miter" fill="none" stroke="#ff0000" d="M9.56694 0C9.56694 1.05669 8.71033 1.9133 7.65364 1.9133 6.59695 1.9133 5.74034 1.05669 5.74034 0 5.74034-1.05669 6.59695-1.9133 7.65364-1.9133 8.71033-1.9133 9.56694-1.05669 9.56694 0ZM7.65364 0"/>
<use data-text="0" xlink:href="#font_2_1" transform="matrix(8.966787,0,0,-8.966787,154.06383,8.114555)" fill="#ff0000"/>
<use data-text="." xlink:href="#font_3_1" transform="matrix(8.966787,0,0,-8.966787,158.54785,8.114555)" fill="#ff0000"/>
<use data-text="6" xlink:href="#font_2_6" transform="matrix(8.966787,0,0,-8.966787,161.03827,8.114555)" fill="#ff0000"/>
<path transform="matrix(1.00005,0,0,-1.00005,152.13884,14.271063)" d="M27.42525 0C27.42525 1.05669 26.56863 1.9133 25.51193 1.9133 24.45525 1.9133 23.59863 1.05669 23.59863 0 23.59863-1.05669 24.45525-1.9133 25.51193-1.9133 26.56863-1.9133 27.42525-1.05669 27.42525 0ZM25.51193 0" fill="#ff0000"/>
<path transform="matrix(1.00005,0,0,-1.00005,152.13884,14.271063)" stroke-width=".3985" stroke-linecap="butt" stroke-miterlimit="10" stroke-linejoin="miter" fill="none" stroke="#ff0000" d="M27.42525 0C27.42525 1.05669 26.56863 1.9133 25.51193 1.9133 24.45525 1.9133 23.59863 1.05669 23.59863 0 23.59863-1.05669 24.45525-1.9133 25.51193-1.9133 26.56863-1.9133 27.42525-1.05669 27.42525 0ZM25.51193 0"/>
<use data-text="2" xlink:href="#font_2_3" transform="matrix(8.966787,0,0,-8.966787,175.4099,8.114555)" fill="#ff0000"/>
<path transform="matrix(1.00005,0,0,-1.00005,152.13884,14.271063)" d="M-23.59863 0C-23.59863 1.05669-24.45525 1.9133-25.51193 1.9133-26.56863 1.9133-27.42525 1.05669-27.42525 0-27.42525-1.05669-26.56863-1.9133-25.51193-1.9133-24.45525-1.9133-23.59863-1.05669-23.59863 0ZM-25.51193 0" fill="#ff0000"/>
<path transform="matrix(1.00005,0,0,-1.00005,152.13884,14.271063)" stroke-width=".3985" stroke-linecap="butt" stroke-miterlimit="10" stroke-linejoin="miter" fill="none" stroke="#ff0000" d="M-23.59863 0C-23.59863 1.05669-24.45525 1.9133-25.51193 1.9133-26.56863 1.9133-27.42525 1.05669-27.42525 0-27.42525-1.05669-26.56863-1.9133-25.51193-1.9133-24.45525-1.9133-23.59863-1.05669-23.59863 0ZM-25.51193 0"/>
<use data-text="&#x2212;" xlink:href="#font_1_1" transform="matrix(8.966787,0,0,-8.966787,120.89717,26.20646)" fill="#ff0000"/>
<use data-text="2" xlink:href="#font_2_3" transform="matrix(8.966787,0,0,-8.966787,127.87161,26.20646)" fill="#ff0000"/>
</svg>
